<svg xmlns="http://www.w3.org/2000/svg" width="129" height="224" viewBox="0 0 129 224" fill="none"><path d="M61.8703 164.182C79.7435 164.8 95.2647 167.248 105.385 169.97C115.583 172.739 120.365 175.782 118.662 178.664C116.945 181.57 109.161 183.972 98.8238 186.215C88.4094 188.411 75.4261 190.424 61.6691 191.431C34.867 193.65 10.2003 189.28 4.73775 180.014C-0.786714 170.794 25.35 162.672 61.8703 164.182Z" fill="#424242"></path><path d="M107.109 80.5965C112.392 56.6338 102.39 33.9937 76.5377 28.1846C50.6855 22.3754 32.1427 38.584 26.8595 62.5467C22.7559 81.2448 34.2714 90.6328 41.863 108.631C43.3761 112.184 38.5289 123.75 38.5289 123.75L70.8441 131.037C70.8441 131.037 71.3058 118.512 74.1782 115.944C88.6175 102.848 103.005 99.2947 107.109 80.5965Z" fill="#00B1A6"></path><path d="M53.7888 118.745C43.2992 93.9005 27.3724 80.9077 33.066 55.0778C34.2971 49.5279 36.0411 44.2634 38.2467 39.4138C32.7583 45.4823 28.8599 53.4439 26.8595 62.5207C22.7559 81.2189 34.2714 90.6069 41.863 108.605C43.3761 112.158 38.5289 123.724 38.5289 123.724L53.3528 127.07C54.1735 123.698 54.5326 120.508 53.7888 118.745Z" fill="#34C279"></path><path d="M37.9898 123.595L36.9896 128.107C35.3482 135.576 39.9903 142.967 47.3767 144.653L54.0705 146.157C61.4569 147.817 68.7663 143.123 70.4333 135.654L71.4336 131.141L37.9898 123.595Z" fill="#00B1A6"></path><path d="M49.583 66.1774L56.1999 60.5498L59.8418 68.4596L66.4331 62.8579L70.075 70.7677L76.6919 65.166L80.3338 73.0758L86.9507 67.4741L90.6182 75.4098" stroke="#8EE791" stroke-width="13.3555" stroke-miterlimit="10"></path><path d="M54.199 73.4128L56.6868 97.4274L50.4546 125.799" stroke="#8EE791" stroke-width="13.3555" stroke-miterlimit="10"></path><path d="M79.2818 79.0664L66.9456 99.7355L60.7134 128.107" stroke="#8EE791" stroke-width="13.3555" stroke-miterlimit="10"></path><path d="M46.5758 127.946L45.8008 131.464L66.7042 136.172L67.4792 132.653L46.5758 127.946Z" fill="#8EE791"></path><path d="M45.1741 134.296L44.3994 137.815L59.4449 141.202L60.2196 137.683L45.1741 134.296Z" fill="#8EE791"></path><path d="M115.814 177.35H116.847L93.1031 87.8096H92.0923L115.814 177.35Z" fill="#E0E0E0"></path><path d="M101.863 177.35H102.874L79.1529 87.8096H78.1421L101.863 177.35Z" fill="#E0E0E0"></path><path d="M94.0689 93.352L93.7994 92.3298H79.4902L79.7823 93.352H94.0689Z" fill="#E0E0E0"></path><path d="M96.1583 101.234L95.8887 100.189H81.5796L81.8492 101.234H96.1583Z" fill="#E0E0E0"></path><path d="M98.2471 109.093L97.9776 108.071H83.6685L83.938 109.093H98.2471Z" fill="#E0E0E0"></path><path d="M100.336 116.975L100.066 115.953H85.7573L86.0269 116.975H100.336Z" fill="#E0E0E0"></path><path d="M102.425 124.857L102.155 123.812H87.8462L88.1157 124.857H102.425Z" fill="#E0E0E0"></path><path d="M104.514 132.716L104.222 131.694H89.9355L90.2051 132.716H104.514Z" fill="#E0E0E0"></path><path d="M106.581 140.598L106.311 139.576H92.0244L92.294 140.598H106.581Z" fill="#E0E0E0"></path><path d="M108.67 148.48L108.4 147.435H94.1138L94.3833 148.48H108.67Z" fill="#E0E0E0"></path><path d="M110.759 156.362L110.489 155.317H96.2026L96.4722 156.362H110.759Z" fill="#E0E0E0"></path><path d="M112.848 164.221L112.579 163.199H98.2695L98.5616 164.221H112.848Z" fill="#E0E0E0"></path><path d="M114.937 172.103L114.668 171.058H100.358L100.628 172.103H114.937Z" fill="#E0E0E0"></path><path d="M106.942 155.304C106.807 155.167 106.852 154.804 106.852 154.804C106.852 154.804 108.806 154.35 109.458 154.44C109.638 154.463 109.93 154.577 110.199 154.69C110.244 154.713 110.334 154.849 110.379 154.872C110.469 154.917 110.491 154.827 110.559 154.872C110.738 154.963 110.873 155.031 110.896 155.054C111.165 155.94 110.985 156.348 110.985 156.348C110.985 156.348 109.413 157.053 109.009 156.757C107.975 155.985 107.234 155.576 106.942 155.304Z" fill="#212121"></path><path d="M102.315 153.782L102.495 155.304L101.057 155.781C101.057 155.781 100.9 155.599 100.787 155.644C100.675 155.667 100.608 155.917 100.473 155.962C100.181 156.053 99.8439 156.167 99.7091 156.212C99.4395 156.303 96.8338 157.166 96.8338 157.166C96.8338 157.166 96.6765 156.894 96.7215 156.757C96.7439 156.689 96.9461 156.53 97.1033 156.417C97.7772 155.962 99.6866 154.6 99.8214 153.759C100.001 152.76 102.315 153.782 102.315 153.782Z" fill="#212121"></path><path d="M99.5739 105.014L99.7536 103.174C99.7536 103.174 98.4956 102.902 98.4732 102.152C98.3833 100.676 99.4391 98.6541 99.8884 98.1544C101.214 96.7007 102.449 93.8387 105.594 97.3821C106.785 98.7222 103.213 102.402 102.764 103.311C102.314 104.196 102.494 105.446 102.494 105.446L101.393 105.855L99.5739 105.014Z" fill="#FFB994"></path><path d="M107.818 117.166L100.338 119.642C100.338 119.642 104.831 120.505 108.559 119.551C112.266 118.62 108.2 117.189 107.818 117.166Z" fill="#FFB994"></path><path d="M105.257 135.951C105.257 135.951 102.36 139.881 103.573 143.106C105.729 148.83 107.459 153.418 108.178 155.349C108.447 156.099 108.649 155.94 108.649 155.94H110.312L111.008 155.167L107.144 141.948L105.257 135.951Z" fill="#2F4858"></path><path d="M87.9605 104.901L83.1084 99.3584C83.1084 99.3584 85.1526 107.149 87.6909 107.695C90.2517 108.24 87.9605 104.901 87.9605 104.901Z" fill="#FFB994"></path><path d="M102.696 105.264C102.696 105.264 104.359 105.014 107.706 111.101C111.075 117.166 110.401 117.166 110.401 117.166L110.783 118.688L108.492 119.869L105.077 114.827L102.696 105.264Z" fill="#757575"></path><path d="M97.0359 125.298C97.0359 125.298 100.54 138.063 104.92 145.264C107.257 149.103 106.942 143.469 106.942 143.469L102.764 120.437L94.8569 120.323C94.8569 120.323 95.7105 121.346 97.0359 125.298Z" fill="#2F4858"></path><path d="M102.292 124.48C102.292 124.48 96.3616 137.655 96.0921 138.586C94.7443 143.152 92.6777 137.677 92.5429 136.564C92.4081 135.474 92.6552 129.795 93.9581 124.321C95.2834 118.824 95.2834 118.824 95.2834 118.824L102.292 124.48Z" fill="#2F4858"></path><path d="M96.1823 136.064C96.1823 136.064 97.3504 138.268 98.6308 141.13C99.5742 143.242 101.596 149.466 102.584 153.941C102.652 154.213 99.6641 154.304 99.6641 154.304C99.6641 154.304 94.7671 142.493 93.6664 139.858C92.5657 137.2 93.8461 134.679 96.1823 136.064Z" fill="#2F4858"></path><path d="M105.123 107.081L103.123 105.082L102.27 103.992L98.6982 103.606L97.9794 104.742L95.1041 105.9C95.1041 105.9 94.3178 107.081 94.5649 111.692C94.8345 116.826 92.5432 123.913 93.5765 124.662C100.36 129.455 103.73 125.412 103.73 125.412C103.73 125.412 106.807 115.645 105.123 107.081Z" fill="#757575"></path><path d="M100.023 106.422C100.023 106.422 100.45 107.263 98.1366 108.012C94.183 109.307 89.9824 109.034 89.1737 109.012C88.3426 108.989 87.1969 108.921 86.3883 107.444C85.7593 106.309 85.5347 105.945 85.5347 105.945L87.7361 104.264L88.2527 104.855L88.4774 105.218C88.4774 105.218 91.4874 104.946 94.3178 104.673C100.922 104.037 100.023 106.422 100.023 106.422Z" fill="#757575"></path><path d="M100.809 98.9948C100.809 98.9948 101.326 98.8586 101.281 99.222C101.259 99.5854 100.787 100.244 100.562 100.267C100.338 100.267 100.001 101.175 100.001 101.175L100.225 102.357L102.943 103.174C102.943 103.174 103.887 103.061 104.134 102.47C104.381 101.88 106.335 97.791 106.335 97.791L104.741 96.201C104.741 96.201 103.887 95.3833 103.235 94.9744C102.247 94.3384 101.843 94.8381 101.798 95.1561C101.73 95.4741 101.394 95.406 100.967 95.2697C100.54 95.1334 99.8885 95.3151 100.068 95.5877C100.136 95.7013 99.6189 95.8375 99.7088 96.2237C99.8211 96.7688 100.585 97.155 100.45 97.9273C100.383 98.2225 100.18 99.381 100.809 98.9948Z" fill="#2F4858"></path><path d="M83.4455 100.903C83.4455 100.903 84.5462 100.335 84.6136 99.9717C84.681 99.6083 84.8607 98.3136 84.8607 98.3136L84.8831 97.9728C84.8831 97.9728 84.5237 97.7457 84.4114 98.6316C84.2991 99.5174 84.1194 99.0404 84.1194 99.0404L83.9172 98.2L83.5803 97.2005L83.4904 96.7463C83.4904 96.7463 83.4679 96.4737 83.4005 96.4283C83.2208 96.2693 83.1759 96.451 83.1759 96.451L83.3781 98.2908L82.7266 96.6554C82.7266 96.6554 82.6143 96.451 82.502 96.4737C82.3897 96.4964 82.4122 96.5645 82.4122 96.5645L82.7042 98.5861L82.2774 97.7684C82.2774 97.7684 82.1651 97.5867 82.0527 97.5867C81.918 97.6094 81.8955 97.6094 81.8955 97.6094L83.1085 100.971L83.4455 100.903Z" fill="#FFB994"></path><path d="M13.3737 177.188L13.2164 179.119L12.857 180.709L12.2056 181.14L11.7338 181.277L11.5991 181.549L9.93677 182.662C9.4875 182.867 8.85853 182.958 8.09478 182.776C7.82522 182.708 8.2071 181.981 8.29695 181.89C8.81361 181.254 9.62229 180.573 9.62229 180.573L10.9252 178.96L12.3853 176.938L13.3737 177.188Z" fill="#212121"></path><path d="M28.1993 175.076L27.7725 175.848L27.5479 176.711L27.5703 178.097L28.3116 178.21L28.8732 178.097L29.2326 178.347C29.2326 178.347 31.3217 178.778 32.1079 178.801C33.4108 178.846 34.1296 178.71 34.3767 178.46C34.5115 178.324 33.905 178.029 33.7028 178.006C32.5347 177.824 31.3217 177.075 31.3217 177.075L30.3782 175.984L30.1985 175.212L28.1993 175.076Z" fill="#212121"></path><path d="M22.3592 133.145L10.3413 178.892L13.3963 179.073L19.2368 164.536L20.652 160.13L27.5707 142.935L28.896 133.463L22.3592 133.145Z" fill="#616161"></path><path d="M27.6378 175.235L28.4914 157.654L27.7276 149.59L26.8066 138.528L28.1994 131.123L32.984 131.896L33.5232 143.821L33.2311 155.132L32.984 159.403L31.187 176.166L27.6378 175.235Z" fill="#616161"></path><path d="M40.7111 113.997C40.7111 113.997 43.4516 113.293 46.6414 109C47.7196 107.546 47.2254 109.09 47.1356 110.839C47.0457 112.589 44.0581 115.564 40.5987 116.723C37.1394 117.881 40.7111 113.997 40.7111 113.997Z" fill="#FFB994"></path><path d="M46.4394 110.09C46.4394 110.09 45.788 108.25 46.0575 107.773C46.3046 107.296 47.3604 105.593 47.3604 105.593L47.6749 105.184C47.6749 105.184 48.2814 105.297 47.5626 106.433C46.8438 107.569 47.4727 107.228 47.4727 107.228L48.4836 106.478L49.7864 105.661L50.3256 105.206C50.3256 105.206 50.6176 104.934 50.7299 104.934C51.0669 104.934 50.9545 105.229 50.9545 105.229L49.0002 107.137L51.2466 105.911C51.2466 105.911 51.561 105.797 51.6734 105.956C51.7857 106.092 51.6734 106.16 51.6734 106.16L49.4495 108.205L50.6625 107.705C50.6625 107.705 50.977 107.614 51.0893 107.75C51.2016 107.909 51.2466 107.932 51.2466 107.932L46.7764 110.544L46.4394 110.09Z" fill="#FFB994"></path><path d="M45.7066 109.632L44.6553 111.243L46.6428 112.569L47.6941 110.958L45.7066 109.632Z" fill="white"></path><path d="M49.3369 107.478L50.9543 106.705C50.9543 106.705 51.2912 106.501 51.5158 106.501C51.7629 106.501 51.7629 106.751 51.7629 106.751L49.4268 108.159L49.3369 107.478Z" fill="#FFB994"></path><path d="M26.6946 111.316C26.6946 111.316 26.47 112.793 32.0633 118.426C35.1857 121.583 37.0726 123.605 38.9146 122.992C42.082 121.924 47.8999 113.134 47.8999 113.134L44.9573 109.954C44.9573 109.954 40.2624 115.587 38.1284 115.541C37.6342 115.541 34.6017 112.747 31.5467 108.909C30.2438 107.296 27.0316 110.885 26.6946 111.316Z" fill="#9E9E9E"></path><path d="M34.8484 142.776L33.0738 144.639L31.6362 139.755L30.221 145.388L18.9444 143.844C18.9444 143.844 20.6067 133.917 21.6849 129.306L18.0683 117.745C18.0683 117.745 14.9909 109.59 20.0226 109.204C25.0544 108.818 30.8499 108.5 30.8499 108.5C30.8499 108.5 37.9259 127.853 34.8484 142.776Z" fill="#9E9E9E"></path><path d="M27.5703 108.954L28.4015 119.789L22.8306 111.158L22.7183 108.909L27.5703 108.954Z" fill="#F5F5F5"></path><path d="M20.4494 138.415L18.7422 137.574L18.54 137.393L18.7422 137.006L19.1016 137.029L18.9893 135.939L20.719 135.53L21.5726 135.053L20.9211 138.074" fill="#FFB994"></path><path d="M15.1254 127.853L21.5499 134.917C21.5499 134.917 21.3927 136.007 20.876 135.462C20.8086 135.394 21.1006 135.167 20.7188 134.985C19.1913 134.258 15.6645 133.19 14.3167 132.009C12.5421 130.465 11.2393 128.579 11.2393 128.579L15.1254 127.853Z" fill="#FFB994"></path><path d="M18.4673 131.449L16.9722 133.02L18.688 134.689L20.1831 133.118L18.4673 131.449Z" fill="#F5F5F5"></path><path d="M26.4473 110.703C26.4473 110.703 29.9965 118.858 27.7951 127.194C27.6154 127.852 26.7843 128.239 26.7843 128.239L25.8184 127.171C25.8184 127.171 26.964 117.586 26.4473 110.703Z" fill="#9E9E9E"></path><path d="M26.0653 110.363L25.8407 111.771L22.7407 109.613L22.7183 108.909L26.0653 110.363Z" fill="#9E9E9E"></path><path d="M26.5815 108.841L27.3004 111.589L26.604 110.635L26.5815 108.841Z" fill="#9E9E9E"></path><path d="M18.5175 117.472L15.7321 127.262L19.6856 132.418C19.6856 132.418 18.1357 134.758 17.4842 134.485C13.014 132.6 9.4873 126.104 9.4873 126.104L13.5307 112.793C13.5307 112.793 15.2154 109.954 19.2813 109.272C22.224 108.773 18.6973 116.654 18.5175 117.472Z" fill="#9E9E9E"></path><path d="M22.2466 107.137C22.3814 107.66 22.6285 108.455 22.8531 108.932C23.2125 109.659 26.1327 110.454 26.5595 110.544C27.0088 110.635 26.3349 108.318 26.29 107.796C26.2675 107.387 26.0204 107.523 26.29 106.933L22.2466 107.137Z" fill="#FFB994"></path><path d="M26.5142 108.636L27.3678 111.067L28.4685 120.357L30.0634 113.066L28.7605 111.794L29.4569 110.612L27.9069 108.704L26.5142 108.636Z" fill="#424242"></path><path d="M31.6137 134.235L31.7485 139.369L30.7601 134.735L21.4154 140.822C21.4154 140.822 20.6516 133.917 21.7074 129.306L18.0908 117.744C18.0908 117.744 15.0133 109.59 20.0451 109.204C20.7639 109.158 21.4828 109.09 22.2016 109.045C23.2124 108.977 25.1218 111.93 25.5711 112.77C26.0653 113.679 29.2326 121.924 29.2326 121.924L31.6137 134.235Z" fill="#9E9E9E"></path><path d="M22.5158 108.841L20.8535 109.227L22.1788 111.748L24.1107 112.906L24.0882 115.087L29.0526 122.265L25.8179 112.816L22.5158 108.841Z" fill="#424242"></path><path d="M22.5158 108.704L20.8535 109.09L22.1788 111.634L24.0882 112.725L24.0658 114.815L29.0302 121.674L25.7954 112.634L22.5158 108.704Z" fill="#424242"></path><path d="M26.5816 110.544L26.0649 110.499L26.1099 111.771L26.7164 112.202L27.0758 111.68L26.5816 110.544Z" fill="#9E9E9E"></path><path d="M27.053 106.047C27.1429 106.501 26.8733 106.956 26.4241 107.046L22.785 107.841C22.3358 107.932 21.909 107.66 21.7966 107.205L20.6285 101.754C20.5387 101.3 20.8083 100.845 21.2575 100.755L24.8966 99.9595C25.3458 99.8687 25.7726 100.141 25.885 100.596L27.053 106.047Z" fill="#FFB994"></path><path d="M26.1319 101.731C26.1319 101.731 26.5138 101.095 26.5363 100.755C26.5363 100.573 26.2667 100.005 25.795 99.846C25.3457 99.687 25.0986 100.209 25.0986 100.209C25.0986 100.209 25.8175 100.437 25.8848 100.55C25.9298 100.686 26.1319 101.731 26.1319 101.731Z" fill="#424242"></path><path d="M20.7863 104.298C20.7863 104.298 19.7754 102.322 19.7529 101.686C19.7305 101.05 19.708 100.618 20.4268 100.368C21.5051 100.027 21.5725 100.255 22.0442 99.8003C22.5159 99.346 23.3021 98.3012 23.6166 98.1422C24.1333 97.8923 25.0543 97.8696 25.3238 98.9372C25.526 99.7095 26.0427 99.8003 26.0427 99.823C26.0202 99.9366 25.8405 100.05 25.526 100.323C24.6275 101.05 24.0434 101.299 23.2123 101.254C22.3811 101.231 20.8536 101.095 20.8087 101.708C20.7638 102.322 21.2131 104.071 21.1681 104.23C21.1232 104.389 20.9435 104.366 20.7863 104.298Z" fill="#424242"></path><path d="M22.2692 105.683C22.2917 105.842 22.2018 105.979 22.0671 106.024L21.2809 106.206C21.1236 106.228 20.9888 106.138 20.9439 106.001L20.6294 104.548C20.607 104.389 20.6968 104.252 20.8316 104.207L21.6178 104.025C21.775 104.002 21.9098 104.093 21.9547 104.23L22.2692 105.683Z" fill="#FFB994"></path><path d="M26.9631 104.638C27.008 104.797 26.8957 104.934 26.7609 104.979L25.9747 105.161C25.8175 105.184 25.6827 105.093 25.6378 104.956L25.3233 103.503C25.3008 103.344 25.3907 103.207 25.5254 103.162L26.3117 102.98C26.4689 102.958 26.6037 103.048 26.6486 103.185L26.9631 104.638Z" fill="#FFB994"></path><path d="M21.2354 104.684C21.2354 104.684 21.7071 106.819 21.8419 107.546C21.9766 108.205 22.5382 109.568 26.1548 108.75C28.2888 108.273 27.8845 106.706 27.7722 106.183C27.6823 105.797 26.986 104.684 26.7164 104.525L26.8961 105.411C26.8961 105.411 26.2671 104.639 25.2563 104.866C23.6165 105.229 23.4592 106.274 22.7179 106.433C22.1563 106.547 21.5498 105.729 21.2354 104.684Z" fill="#424242"></path><path d="M24.8741 106.433L25.9972 106.183C26.1545 106.16 26.2443 106.001 26.1994 105.842L26.1545 105.683L24.4922 106.047L24.5371 106.206C24.582 106.365 24.7168 106.478 24.8741 106.433Z" fill="#FFB994"></path><path d="M23.5735 116.74L19.6841 117.318L19.8572 118.509L23.7466 117.931L23.5735 116.74Z" fill="#424242"></path></svg>