<svg xmlns="http://www.w3.org/2000/svg" width="129" height="224" viewBox="0 0 129 224" fill="none"><path d="M111.921 77.3792C111.921 77.3792 39.0834 103.47 34.223 107.014C29.3627 110.558 15.7267 146.808 16.098 154.335C17.2456 179.109 42.0198 179.109 60.6174 178.231C79.5188 177.32 92.4797 156.562 106.622 142.825C120.764 129.155 125.658 73.8689 111.921 77.3792Z" fill="#BDBDBD"></path><path d="M18.1567 148.63C18.1567 148.63 -0.879609 179.21 0.0317062 179.851C19.6419 194.061 49.9178 206.313 50.8966 203.647C55.2507 191.597 54.7106 177.522 56.1957 170.299C59.301 155.246 16.7729 146.605 16.7729 146.605" fill="#BDBDBD"></path><path d="M93.3572 62.7981L120.832 40.1164C120.832 40.1164 126.907 39.6776 126.502 45.7193C126.131 51.761 125.658 53.4149 118.266 63.2031C110.875 72.9913 106.656 81.8344 104.327 83.252C101.964 84.6359 93.3572 62.7981 93.3572 62.7981Z" fill="#BDBDBD"></path><path d="M105.339 46.1919H107.365V39.5764H105.339V46.1919Z" fill="#2F4858"></path><path d="M105.339 63.5406H107.365V52.4023H105.339V63.5406Z" fill="#2F4858"></path><path d="M105.339 76.7717H107.365V66.1396H105.339V76.7717Z" fill="#2F4858"></path><path d="M33.4128 160.376C33.4128 166.283 38.2395 171.143 44.1461 171.143H95.821C101.728 171.143 106.588 166.317 106.588 160.376V30.7333C106.588 24.8266 101.761 20 95.821 20H44.1461C38.2395 20 33.4128 24.8266 33.4128 30.7333V160.376Z" fill="#2F4858"></path><path d="M95.8548 169.624C100.951 169.624 105.069 165.473 105.069 160.41V30.7332C105.069 25.6366 100.918 21.5188 95.8548 21.5188H44.1798C39.0832 21.5188 34.9316 25.6704 34.9316 30.7332V160.41C34.9316 165.507 39.0832 169.624 44.1798 169.624H95.8548Z" fill="#00B1A6"></path><path d="M101.829 39.0698H38.1719V152.545H101.829V39.0698Z" fill="#C3FCF1"></path><path d="M112.292 114.136C112.292 114.136 107.567 125.915 105.643 130.978C103.753 136.041 103.82 138.438 106.217 140.429C108.613 142.454 114.925 138.775 119.38 133.003C123.869 127.232 127.245 122.236 127.245 122.236C127.245 122.236 127.346 117.14 123.262 113.9C119.212 110.659 116.781 112.246 112.292 114.136Z" fill="#BDBDBD"></path><path d="M114.014 94.4576C114.014 94.4576 109.288 106.237 107.398 111.3C105.508 116.363 105.576 118.759 107.972 120.751C110.368 122.776 116.68 119.097 121.135 113.325C125.624 107.554 129 102.558 129 102.558C129 102.558 129.101 97.4616 125.017 94.2213C120.933 91.0149 118.503 92.5675 114.014 94.4576Z" fill="#BDBDBD"></path><path d="M111.347 77.2779C111.347 77.2779 106.622 89.0574 104.698 94.1203C102.808 99.1832 102.876 101.58 105.272 103.571C107.668 105.596 113.98 101.917 118.435 96.1454C122.925 90.3738 126.3 85.3785 126.3 85.3785C126.3 85.3785 126.401 80.2818 122.317 77.0416C118.267 73.8013 115.837 75.3877 111.347 77.2779Z" fill="#BDBDBD"></path><path d="M47.319 44.5718C47.319 44.5718 56.6008 51.6598 53.3606 62.7981C50.1204 73.9364 42.6949 85.0747 42.6949 85.0747C42.6949 85.0747 43.8087 113.224 42.3574 124.396C41.2098 133.341 36.5182 155.989 29.6664 157.474C17.2793 160.14 18.1231 152.107 16.8068 146.605C15.4567 141.137 22.1734 86.1548 22.8147 83.2858C23.456 80.4843 27.8776 76.9404 29.5652 73.7339C29.869 73.1938 47.3527 46.4282 47.319 44.5718Z" fill="#BDBDBD"></path><path d="M86.3156 96.9989L88 91.4911L84.6181 90.1272C84.7544 88.408 84.5797 86.715 84.1318 85.0988L87.1915 83.1167L84.4898 78.0359L81.1359 79.4643C80.0461 78.1904 78.7398 77.0989 77.2388 76.2494L77.9994 72.6843L72.4912 71L71.1282 74.3817C69.415 74.2481 67.7148 74.4201 66.0994 74.868L64.1173 71.8085L59.0362 74.5101L60.4639 77.8647C59.1899 78.9535 58.0984 80.2598 57.2488 81.7616L53.6835 81.0019L52 86.5098L55.381 87.8728C55.2474 89.5868 55.4203 91.2859 55.8674 92.9021L52.8077 94.8842L55.5093 99.965L58.8633 98.5357C59.953 99.8105 61.2646 100.904 62.7604 101.751L61.9998 105.317L67.5079 107L68.871 103.619C70.5912 103.754 72.2843 103.58 73.8997 103.133L75.8818 106.192L80.963 103.49L79.5344 100.136C80.8084 99.0473 81.9025 97.7341 82.7495 96.2384L86.3156 96.9989ZM66.9604 98.9408C61.4707 97.2626 58.3804 91.4518 60.0587 85.9623C61.737 80.4737 67.5481 77.3827 73.0379 79.0609C78.5276 80.7391 81.6178 86.5499 79.9404 92.0394C78.2622 97.5281 72.4511 100.619 66.9604 98.9408Z" fill="#2DCAB4"></path><path d="M91.7835 122.777L93 118.799L90.5575 117.814C90.6559 116.572 90.5298 115.35 90.2063 114.182L92.4161 112.751L90.4649 109.081L88.0426 110.113C87.2555 109.193 86.3121 108.405 85.228 107.791L85.7773 105.216L81.7992 104L80.8148 106.442C79.5775 106.346 78.3496 106.47 77.1829 106.794L75.7514 104.584L72.0817 106.535L73.1128 108.958C72.1927 109.744 71.4044 110.688 70.7908 111.772L68.2159 111.224L67 115.202L69.4418 116.186C69.3454 117.424 69.4702 118.651 69.7931 119.818L67.5833 121.25L69.5345 124.919L71.9568 123.887C72.7439 124.808 73.6911 125.597 74.7714 126.209L74.2221 128.784L78.2002 130L79.1846 127.558C80.4269 127.656 81.6498 127.53 82.8165 127.207L84.248 129.417L87.9177 127.465L86.886 125.043C87.8061 124.256 88.5962 123.308 89.208 122.228L91.7835 122.777ZM77.8048 124.179C73.8399 122.967 71.6081 118.771 72.8202 114.806C74.0323 110.842 78.2292 108.61 82.194 109.822C86.1589 111.034 88.3907 115.231 87.1792 119.195C85.9671 123.159 81.7702 125.392 77.8048 124.179Z" fill="#2DCAB4"></path></svg>