<svg xmlns="http://www.w3.org/2000/svg" width="129" height="224" viewBox="0 0 129 224" fill="none"><path d="M90.9419 66.3888H92.7962V60.2288H90.9419V66.3888Z" fill="#8EE791"></path><path d="M90.9419 82.5431H92.7962V72.1716H90.9419V82.5431Z" fill="#8EE791"></path><path d="M90.9419 94.8632H92.7962V84.9631H90.9419V94.8632Z" fill="#8EE791"></path><path d="M23.9668 172.743C23.9668 178.243 28.4611 182.769 33.9611 182.769H82.0784C87.5785 182.769 92.0728 178.275 92.0728 172.743V51.9943C92.0728 46.4943 87.5785 42 82.0784 42H33.9611C28.4611 42 23.9668 46.4943 23.9668 51.9943V172.743Z" fill="#8EE791"></path><path d="M82.0794 181.323C86.8251 181.323 90.6594 177.458 90.6594 172.743V51.9943C90.6594 47.2485 86.7937 43.3828 82.0794 43.3828H33.962C29.2163 43.3828 25.3506 47.2485 25.3506 51.9943V172.743C25.3506 177.489 29.2163 181.323 33.962 181.323H82.0794Z" fill="url(#paint0_linear)"></path><path d="M87.6422 59.7573H28.3677V165.421H87.6422V59.7573Z" fill="white"></path><path d="M112.22 157H46V193.3H112.22V157Z" fill="#E0E0E0"></path><path d="M112.22 157H46V163.066H112.22V157Z" fill="#757575"></path><path d="M47.9478 159.954H49.7078" stroke="#E0E0E0" stroke-width="6.6108"></path><path d="M51.4048 159.954H53.1648" stroke="#E0E0E0" stroke-width="6.6108"></path><path d="M54.8315 159.954H56.5915" stroke="#E0E0E0" stroke-width="6.6108"></path><path d="M50.9341 174.663H101.534" stroke="white" stroke-width="8.4829" stroke-miterlimit="10"></path><path d="M50.9341 179.471H83.6199" stroke="white" stroke-width="8.4829" stroke-miterlimit="10"></path><path d="M53.8255 186.166H50.9341V188.837H53.8255V186.166Z" fill="#9E9E9E"></path><path d="M68.5657 186.166H54.8628V188.837H68.5657V186.166Z" fill="white"></path><path d="M75.3861 186.166H72.4946V188.837H75.3861V186.166Z" fill="#9E9E9E"></path><path d="M88.3653 186.166H76.4224V188.837H88.3653V186.166Z" fill="white"></path><path d="M95.5941 186.166H92.7026V188.837H95.5941V186.166Z" fill="#9E9E9E"></path><path d="M108.574 186.166H96.6313V188.837H108.574V186.166Z" fill="white"></path><path d="M50.9341 168.974H71.9284" stroke="white" stroke-width="8.4829" stroke-miterlimit="10"></path><path d="M89.0314 35.7744C89.0314 37.0001 90.0371 38.0058 91.2629 38.0058H92.74V43.1915L97.9257 38.0058H114.992C116.217 38.0058 117.223 37.0001 117.223 35.7744V17.2314C117.223 16.0057 116.217 15 114.992 15H91.2314C90.0057 15 89 16.0057 89 17.2314V35.7744H89.0314Z" fill="#8EE791"></path><path d="M112.948 21.4114H94.4048V22.8257H112.948V21.4114Z" fill="white"></path><path d="M112.947 24.9629H94.4043V26.3772H112.947V24.9629Z" fill="white"></path><path d="M112.947 28.5457H94.4043V29.9599H112.947V28.5457Z" fill="white"></path><path d="M28.0845 106.02C28.0845 107.12 28.9959 108.032 30.0959 108.032H85.6304C86.7618 108.032 87.6419 107.12 87.6419 106.02V59.5686C87.6419 58.4371 86.7304 57.5571 85.6304 57.5571H30.0959C28.9959 57.5571 28.0845 58.4686 28.0845 59.5686V106.02Z" fill="white"></path><path d="M87.6733 64.8486V59.5686C87.6733 58.4371 86.7618 57.5571 85.6618 57.5571H30.0959C28.9959 57.5571 28.0845 58.4686 28.0845 59.5686V64.8486" fill="#9E9E9E"></path><path d="M64.4156 72.7058H60.3613V76.7287H64.4156V72.7058Z" fill="#8EE791"></path><path d="M56.338 72.7058H52.2837V76.7287H56.338V72.7058Z" fill="#8EE791"></path><path d="M48.2608 72.7058H44.2065V76.7287H48.2608V72.7058Z" fill="#8EE791"></path><path d="M40.1847 72.7061H36.1304V76.7289H40.1847V72.7061Z" fill="#8EE791"></path><path d="M80.5699 80.783H76.5156V84.8373H80.5699V80.783Z" fill="#8EE791"></path><path d="M72.4928 80.783H68.4385V84.8373H72.4928V80.783Z" fill="#8EE791"></path><path d="M64.4156 80.783H60.3613V84.8373H64.4156V80.783Z" fill="#BDBDBD"></path><path d="M56.338 80.783H52.2837V84.8373H56.338V80.783Z" fill="#BDBDBD"></path><path d="M48.2608 80.783H44.2065V84.8373H48.2608V80.783Z" fill="#8EE791"></path><path d="M40.1837 80.783H36.1294V84.8373H40.1837V80.783Z" fill="#8EE791"></path><path d="M80.5699 88.8604H76.5156V92.9147H80.5699V88.8604Z" fill="#2DCAB4"></path><path d="M72.4928 88.8604H68.4385V92.9147H72.4928V88.8604Z" fill="#2DCAB4"></path><path d="M64.4156 88.8604H60.3613V92.9147H64.4156V88.8604Z" fill="#2DCAB4"></path><path d="M56.338 88.8604H52.2837V92.9147H56.338V88.8604Z" fill="#8EE791"></path><path d="M48.2608 88.8604H44.2065V92.9147H48.2608V88.8604Z" fill="#9E9E9E"></path><path d="M40.1837 88.8604H36.1294V92.9147H40.1837V88.8604Z" fill="#8EE791"></path><path d="M80.5699 96.9375H76.5156V100.992H80.5699V96.9375Z" fill="#8EE791"></path><path d="M72.4928 96.9375H68.4385V100.992H72.4928V96.9375Z" fill="#8EE791"></path><path d="M64.4156 96.9375H60.3613V100.992H64.4156V96.9375Z" fill="#8EE791"></path><path d="M79.5643 74.717H77.5215" stroke="#2DCAB4" stroke-width="4.5154"></path><path d="M71.4877 74.717H69.4448" stroke="#2DCAB4" stroke-width="4.5154"></path><path d="M39.1482 98.949H37.1367" stroke="#2DCAB4" stroke-width="4.5154"></path><path d="M47.2243 98.949H45.2129" stroke="#2DCAB4" stroke-width="4.5154"></path><path d="M55.3015 98.949H53.29" stroke="#2DCAB4" stroke-width="4.5154"></path><path d="M65.4531 61.6113H47.2559" stroke="white" stroke-width="4.5154"></path><path d="M83.6188 61.6113H81.6074" stroke="white" stroke-width="4.5154"></path><path d="M34.1498 61.6113H32.1069" stroke="white" stroke-width="4.5154"></path><path d="M87.6728 64.9431H28.084V66.3574H87.6728V64.9431Z" fill="#34C279"></path><path d="M36.6115 126H17V145.612H36.6115V126Z" fill="#757575"></path><path d="M34.6633 127.917H18.9175V143.663H34.6633V127.917Z" fill="#E0E0E0"></path><path d="M28.8486 132.789C28.8486 133.574 29.4772 134.203 30.2629 134.203C31.0486 134.203 31.6772 133.574 31.6772 132.789C31.6772 132.003 31.0486 131.374 30.2629 131.374C29.4772 131.374 28.8486 132.003 28.8486 132.789Z" fill="#757575"></path><path d="M25.1087 135.711L22.5944 138.885L20.0801 142.06H25.1087H30.1373L27.623 138.885L25.1087 135.711Z" fill="#757575"></path><path d="M29.8227 137.597L28.0627 139.828L26.3027 142.06H29.8227H33.3742L31.6142 139.828L29.8227 137.597Z" fill="#757575"></path><path d="M23.3943 99.0429C23.3943 99.7972 22.7972 100.394 22.0429 100.394H10.3514C9.59715 100.394 9 99.7972 9 99.0429V87.3514C9 86.5971 9.59715 86 10.3514 86H22.0429C22.7972 86 23.3943 86.5971 23.3943 87.3514V99.0429Z" fill="#BDBDBD"></path><path d="M22.9541 91.2485V95.1456L27.4484 99.0428V87.3513L22.9541 91.2485Z" fill="#BDBDBD"></path><path d="M22.9541 91.2484V95.1455L27.4484 99.0427V93.5741L23.8341 90.4626L22.9541 91.2484Z" fill="#9E9E9E"></path><path d="M15.3174 90.9341V95.4284L18.4603 93.1969L15.3174 90.9341Z" fill="white"></path><path d="M114.366 108V115.606C114.366 115.606 114.837 116.517 115.34 116.517C115.654 116.517 115.937 116.36 116.094 116.14C116.692 115.354 117.666 114.851 118.734 114.851C120.589 114.851 122.066 116.36 122.066 118.183C122.066 120.037 120.557 121.514 118.734 121.514C117.666 121.514 116.692 121.011 116.094 120.226C115.906 120.006 115.623 119.849 115.34 119.849C114.806 119.849 114.366 120.76 114.366 120.76V128.366H106.729C106.226 128.429 105.849 128.837 105.849 129.34C105.849 129.654 106.006 129.937 106.226 130.126C107.011 130.723 107.514 131.697 107.514 132.766C107.514 134.62 106.006 136.097 104.183 136.097C102.329 136.097 100.851 134.62 100.851 132.766C100.851 131.697 101.354 130.754 102.14 130.126C102.36 129.937 102.517 129.654 102.517 129.34C102.517 128.837 102.14 128.429 101.637 128.366H94V108H114.366Z" fill="#00B1A6"></path><defs><linearGradient id="paint0_linear" x1="25.3506" y1="112.353" x2="90.6594" y2="112.353" gradientUnits="userSpaceOnUse"><stop stop-color="#00BF72"></stop><stop offset="1" stop-color="#00ACB4"></stop></linearGradient></defs></svg>