<svg xmlns="http://www.w3.org/2000/svg" width="129" height="224" viewBox="0 0 129 224" fill="none"><path d="M78.9143 48.4729L105.892 35.6123C105.892 35.6123 110.327 37.0536 108.294 41.2295C106.261 45.4055 105.448 46.4403 97.3921 51.2445C89.3358 56.0488 83.7924 61.1117 81.7229 61.4073C79.6534 61.703 78.9143 48.4729 78.9143 48.4729Z" fill="#BDBDBD"></path><path d="M77.8428 57.4901L106.89 50.4685C106.89 50.4685 110.918 52.7967 108.11 56.4554C105.264 60.114 104.266 60.9639 95.3968 64.0313C86.5274 67.0986 80.0602 70.868 77.9537 70.7572C75.8842 70.6094 77.8428 57.4901 77.8428 57.4901Z" fill="#BDBDBD"></path><path d="M72.4478 75.0811L101.495 68.0596C101.495 68.0596 105.523 70.3878 102.715 74.0464C99.8689 77.705 98.8711 78.555 90.0017 81.6223C81.1324 84.6896 74.6651 88.4591 72.5586 88.3482C70.4522 88.2374 72.4478 75.0811 72.4478 75.0811Z" fill="#BDBDBD"></path><path d="M95.175 31.1039H96.6902V26.041H95.175V31.1039Z" fill="#2DCAB4"></path><path d="M95.175 44.3715H96.6902V35.8347H95.175V44.3715Z" fill="#2DCAB4"></path><path d="M95.175 54.4967H96.6902V46.3665H95.175V54.4967Z" fill="#2DCAB4"></path><path d="M40.1112 118.504C40.1112 123.013 43.8067 126.745 48.3523 126.745H87.8949C92.4034 126.745 96.136 123.05 96.136 118.504V19.2411C96.136 14.7325 92.4404 11 87.8949 11H48.3523C43.8067 11 40.1112 14.6956 40.1112 19.2411V118.504Z" fill="#2DCAB4"></path><path d="M87.895 125.563C91.7754 125.563 94.9536 122.384 94.9536 118.504V19.2411C94.9536 15.3608 91.7754 12.1826 87.895 12.1826H48.3525C44.4721 12.1826 41.2939 15.3608 41.2939 19.2411V118.504C41.2939 122.384 44.4721 125.563 48.3525 125.563H87.895Z" fill="#C3FCF1"></path><path d="M43.733 25.6348H92.4775V112.481H43.733V25.6348Z" fill="white"></path><path d="M45.4324 26.7803H91.7009V53.7579H45.4324V26.7803Z" fill="#2DCAB4"></path><path d="M45.4324 54.1277H91.7009V81.0684H45.4324V54.1277Z" fill="white"></path><path d="M60.8062 57.897H87.3403V59.6709H60.8062V57.897Z" fill="url(#paint0_linear)"></path><path d="M57.0737 61.7034H87.3403V63.0338H57.0737V61.7034Z" fill="#00B1A6"></path><path d="M61.0279 64.8076H87.4512V66.138H61.0279V64.8076Z" fill="#00B1A6"></path><path d="M45.4324 70.5728H91.7009V97.5504H45.4324V70.5728Z" fill="#2DCAB4"></path><path d="M60.8062 101.689H87.3403V103.463H60.8062V101.689Z" fill="url(#paint1_linear)"></path><path d="M57.0737 105.496H87.3403V106.826H57.0737V105.496Z" fill="#00B1A6"></path><path d="M61.0279 108.6H87.4512V109.93H61.0279V108.6Z" fill="#00B1A6"></path><path d="M39.6739 51.0213C39.6739 51.0213 33.5231 50.3566 32.8521 56.4501C32.1811 62.5437 20.5505 143.09 19.8796 149.848C17.6429 172.118 20.2151 181.683 21.5943 187.739C22.9736 193.833 58.9463 213 58.9463 213L52.6837 173.521C52.6837 173.521 75.9075 155.24 75.2365 138.991C74.5655 122.741 77.2868 96.3354 77.9578 91.6083C78.6288 86.8811 71.136 87.5459 67.0355 92.9748C62.935 98.4036 61.5557 107.193 61.5557 111.92C61.5557 116.647 55.144 128.982 49.2542 126.803C43.7744 124.772 45.8246 118.014 44.4827 101.764C43.0661 85.5516 39.6739 51.0213 39.6739 51.0213Z" fill="#BDBDBD"></path><defs><linearGradient id="paint0_linear" x1="87.3403" y1="58.7839" x2="60.8062" y2="58.7839" gradientUnits="userSpaceOnUse"><stop stop-color="#00BF72"></stop><stop offset="1" stop-color="#00ACB4"></stop></linearGradient><linearGradient id="paint1_linear" x1="87.3403" y1="102.576" x2="60.8062" y2="102.576" gradientUnits="userSpaceOnUse"><stop stop-color="#00BF72"></stop><stop offset="1" stop-color="#00ACB4"></stop></linearGradient></defs></svg>