<svg xmlns="http://www.w3.org/2000/svg" width="129" height="224" viewBox="0 0 129 224" fill="none"><path d="M114 60H15V147H114V60Z" fill="white"></path><path fill-rule="evenodd" clip-rule="evenodd" d="M110 24H94V22H110V24Z" fill="#424242"></path><path fill-rule="evenodd" clip-rule="evenodd" d="M109 32H100V31H109V32Z" fill="#9E9E9E"></path><path fill-rule="evenodd" clip-rule="evenodd" d="M105 35H100V33H105V35Z" fill="#9E9E9E"></path><path fill-rule="evenodd" clip-rule="evenodd" d="M109 38H100V37H109V38Z" fill="#9E9E9E"></path><path fill-rule="evenodd" clip-rule="evenodd" d="M105 41H100V39H105V41Z" fill="#9E9E9E"></path><path fill-rule="evenodd" clip-rule="evenodd" d="M109 44H100V43H109V44Z" fill="#9E9E9E"></path><path fill-rule="evenodd" clip-rule="evenodd" d="M105 47H100V46H105V47Z" fill="#9E9E9E"></path><path fill-rule="evenodd" clip-rule="evenodd" d="M107 26H94V25H107V26Z" fill="#424242"></path><path d="M98 31H95V34H98V31Z" fill="#BDBDBD"></path><path d="M98 37H95V40H98V37Z" fill="#BDBDBD"></path><path d="M98 44H95V46H98V44Z" fill="#BDBDBD"></path><path d="M93 19H84V28H93V19Z" fill="#34C279"></path><path fill-rule="evenodd" clip-rule="evenodd" d="M92 22.0409L87.2753 27L85 24.625L86 23.5812L87.2725 24.9095L90.9973 21L92 22.0409Z" fill="white"></path><path d="M98.1937 77.6968H33.0239V80.3857H98.1937V77.6968Z" fill="#8EE791"></path><path d="M54.1273 71.9524H33.0239V74.6413H54.1273V71.9524Z" fill="#8EE791"></path><path d="M36.5242 90.814H33.0474V94.3178H36.5242V90.814Z" fill="#8EE791"></path><path d="M46.2234 90.8162H42.7466V94.32H46.2234V90.8162Z" fill="#8EE791"></path><path d="M56.2527 90.814H52.7759V94.3178H56.2527V90.814Z" fill="#8EE791"></path><path d="M66.1174 90.814H62.6406V94.3178H66.1174V90.814Z" fill="#8EE791"></path><path d="M75.9817 90.814H72.5049V94.3178H75.9817V90.814Z" fill="#8EE791"></path><path d="M85.8459 90.814H82.3691V94.3178H85.8459V90.814Z" fill="#C3FCF1"></path><path d="M95.7107 90.814H92.2339V94.3178H95.7107V90.814Z" fill="#C3FCF1"></path><path d="M36.5242 99.6143H33.0474V103.118H36.5242V99.6143Z" fill="#8EE791"></path><path d="M46.2234 99.6165H42.7466V103.12H46.2234V99.6165Z" fill="#8EE791"></path><path d="M56.2527 99.6143H52.7759V103.118H56.2527V99.6143Z" fill="#8EE791"></path><path d="M66.1174 99.6143H62.6406V103.118H66.1174V99.6143Z" fill="#8EE791"></path><path d="M75.9817 99.6143H72.5049V103.118H75.9817V99.6143Z" fill="#8EE791"></path><path d="M85.8459 99.6143H82.3691V103.118H85.8459V99.6143Z" fill="#C3FCF1"></path><path d="M95.7107 99.6143H92.2339V103.118H95.7107V99.6143Z" fill="#C3FCF1"></path><path d="M36.5242 108.374H33.0474V111.877H36.5242V108.374Z" fill="#8EE791"></path><path d="M46.2234 108.376H42.7466V111.879H46.2234V108.376Z" fill="#8EE791"></path><path d="M56.2527 108.374H52.7759V111.877H56.2527V108.374Z" fill="#2DCAB4"></path><path d="M66.1174 108.374H62.6406V111.877H66.1174V108.374Z" fill="#2DCAB4"></path><path d="M75.9817 108.374H72.5049V111.877H75.9817V108.374Z" fill="#8EE791"></path><path d="M85.8459 108.374H82.3691V111.877H85.8459V108.374Z" fill="#C3FCF1"></path><path d="M95.7107 108.374H92.2339V111.877H95.7107V108.374Z" fill="#C3FCF1"></path><path d="M36.5242 117.133H33.0474V120.637H36.5242V117.133Z" fill="url(#paint0_linear)"></path><path d="M46.2234 117.135H42.7466V120.639H46.2234V117.135Z" fill="#8EE791"></path><path d="M56.2527 117.133H52.7759V120.637H56.2527V117.133Z" fill="#8EE791"></path><path d="M66.1174 117.133H62.6406V120.637H66.1174V117.133Z" fill="#8EE791"></path><path d="M75.9817 117.133H72.5049V120.637H75.9817V117.133Z" fill="#8EE791"></path><path d="M85.8459 117.133H82.3691V120.637H85.8459V117.133Z" fill="#C3FCF1"></path><path d="M95.7107 117.133H92.2339V120.637H95.7107V117.133Z" fill="#C3FCF1"></path><path d="M36.5242 125.892H33.0474V129.396H36.5242V125.892Z" fill="#8EE791"></path><path d="M46.2234 125.894H42.7466V129.398H46.2234V125.894Z" fill="#8EE791"></path><path d="M56.2527 125.892H52.7759V129.396H56.2527V125.892Z" fill="#8EE791"></path><path d="M66.1174 125.892H62.6406V129.396H66.1174V125.892Z" fill="#8EE791"></path><path d="M75.9817 125.892H72.5049V129.396H75.9817V125.892Z" fill="#8EE791"></path><path d="M85.8459 125.892H82.3691V129.396H85.8459V125.892Z" fill="#C3FCF1"></path><path d="M95.7107 125.892H92.2339V129.396H95.7107V125.892Z" fill="#C3FCF1"></path><path d="M36.5242 134.692H33.0474V138.196H36.5242V134.692Z" fill="#8EE791"></path><path d="M46.2234 134.694H42.7466V138.198H46.2234V134.694Z" fill="#8EE791"></path><path d="M56.2527 134.692H52.7759V138.196H56.2527V134.692Z" fill="#8EE791"></path><path d="M66.1174 134.692H62.6406V138.196H66.1174V134.692Z" fill="#8EE791"></path><path d="M75.9817 134.692H72.5049V138.196H75.9817V134.692Z" fill="#8EE791"></path><path d="M85.8459 134.692H82.3691V138.196H85.8459V134.692Z" fill="#8EE791"></path><path d="M95.7107 134.692H92.2339V138.196H95.7107V134.692Z" fill="#8EE791"></path><path d="M29.7091 200.125L29.4262 200.288L29.3857 200.125L29.7496 199.922H29.9517V201.511H29.7496V200.125H29.7091Z" fill="#E0E0E0"></path><path d="M31.5285 200.695C31.5285 201.225 31.3264 201.551 30.9626 201.551C30.6392 201.551 30.437 201.265 30.437 200.736C30.437 200.206 30.6796 199.921 31.003 199.921C31.3264 199.88 31.5285 200.206 31.5285 200.695ZM30.6796 200.736C30.6796 201.143 30.8009 201.388 31.003 201.388C31.2052 201.388 31.3264 201.143 31.3264 200.736C31.3264 200.328 31.2456 200.084 31.003 200.084C30.8009 200.043 30.6796 200.288 30.6796 200.736Z" fill="#E0E0E0"></path><path d="M29.2241 193.28V193.158L29.3858 192.995C29.7901 192.587 29.9923 192.384 29.9923 192.18C29.9923 192.017 29.9114 191.854 29.6688 191.854C29.5071 191.854 29.3859 191.936 29.3454 191.976L29.2645 191.813C29.3858 191.732 29.5475 191.65 29.7092 191.65C30.0327 191.65 30.1944 191.895 30.1944 192.099C30.1944 192.384 29.9923 192.628 29.6284 192.954L29.5071 193.076H30.2348V193.239H29.2241V193.28Z" fill="#E0E0E0"></path><path d="M31.5281 192.465C31.5281 192.995 31.326 193.321 30.9621 193.321C30.6387 193.321 30.4365 193.036 30.4365 192.506C30.4365 191.976 30.6791 191.691 31.0025 191.691C31.3259 191.65 31.5281 191.976 31.5281 192.465ZM30.6791 192.506C30.6791 192.913 30.8004 193.158 31.0025 193.158C31.2047 193.158 31.3259 192.913 31.3259 192.506C31.3259 192.099 31.2451 191.854 31.0025 191.854C30.8004 191.854 30.6791 192.058 30.6791 192.506Z" fill="#E0E0E0"></path><path d="M29.2651 184.806C29.346 184.847 29.4673 184.887 29.629 184.887C29.912 184.887 29.9929 184.724 29.9929 184.561C29.9929 184.358 29.7907 184.235 29.5886 184.235H29.4673V184.072H29.5886C29.7503 184.072 29.9524 183.991 29.9524 183.787C29.9524 183.665 29.8716 183.543 29.6694 183.543C29.5481 183.543 29.4269 183.584 29.346 183.665L29.3056 183.502C29.3864 183.421 29.5481 183.38 29.7098 183.38C30.0333 183.38 30.1546 183.584 30.1546 183.747C30.1546 183.91 30.0737 184.032 29.8716 184.113C30.0737 184.154 30.2354 184.317 30.2354 184.521C30.2354 184.765 30.0333 185.01 29.6694 185.01C29.5077 185.01 29.346 184.969 29.2651 184.887V184.806Z" fill="#E0E0E0"></path><path d="M31.5285 184.236C31.5285 184.765 31.3264 185.091 30.9626 185.091C30.6392 185.091 30.437 184.806 30.437 184.276C30.437 183.747 30.6796 183.461 31.003 183.461C31.3264 183.461 31.5285 183.747 31.5285 184.236ZM30.6796 184.276C30.6796 184.684 30.8009 184.928 31.003 184.928C31.2052 184.928 31.3264 184.684 31.3264 184.276C31.3264 183.869 31.2456 183.624 31.003 183.624C30.8009 183.624 30.6796 183.828 30.6796 184.276Z" fill="#E0E0E0"></path><path d="M29.9113 176.821V176.372H29.1836V176.209L29.8708 175.191H30.1134V176.169H30.3155V176.332H30.1134V176.78H29.9113V176.821ZM29.9113 176.25V175.721C29.9113 175.639 29.9113 175.558 29.9113 175.476C29.8708 175.558 29.8304 175.639 29.79 175.721L29.3857 176.25H29.9113Z" fill="#E0E0E0"></path><path d="M31.5285 176.006C31.5285 176.536 31.3264 176.862 30.9626 176.862C30.6392 176.862 30.437 176.576 30.437 176.047C30.437 175.517 30.6796 175.232 31.003 175.232C31.3264 175.232 31.5285 175.517 31.5285 176.006ZM30.6796 176.047C30.6796 176.454 30.8009 176.699 31.003 176.699C31.2052 176.699 31.3264 176.454 31.3264 176.047C31.3264 175.639 31.2456 175.395 31.003 175.395C30.8009 175.395 30.6796 175.599 30.6796 176.047Z" fill="#E0E0E0"></path><path d="M30.1943 167.206H29.5879L29.507 167.613C29.5474 167.613 29.5879 167.613 29.6283 167.613C29.7496 167.613 29.8709 167.654 29.9517 167.695C30.073 167.776 30.1943 167.898 30.1943 168.102C30.1943 168.428 29.9517 168.632 29.5879 168.632C29.4262 168.632 29.2644 168.591 29.1836 168.55L29.224 168.387C29.3049 168.428 29.4262 168.469 29.5475 168.469C29.7496 168.469 29.9113 168.346 29.9113 168.102C29.9113 167.898 29.79 167.735 29.4666 167.735C29.3857 167.735 29.3049 167.735 29.2644 167.735L29.3857 166.961H30.1539V167.206H30.1943Z" fill="#E0E0E0"></path><path d="M31.5285 167.817C31.5285 168.346 31.3264 168.672 30.9626 168.672C30.6392 168.672 30.437 168.387 30.437 167.857C30.437 167.328 30.6796 167.043 31.003 167.043C31.3264 167.002 31.5285 167.287 31.5285 167.817ZM30.6796 167.817C30.6796 168.224 30.8009 168.469 31.003 168.469C31.2052 168.469 31.3264 168.224 31.3264 167.817C31.3264 167.409 31.2456 167.165 31.003 167.165C30.8009 167.165 30.6796 167.369 30.6796 167.817Z" fill="#E0E0E0"></path><path d="M30.1539 158.935C30.1134 158.935 30.073 158.935 29.9922 158.935C29.6687 158.976 29.4666 159.22 29.4262 159.506C29.507 159.424 29.6283 159.302 29.79 159.302C30.073 159.302 30.2751 159.506 30.2751 159.831C30.2751 160.117 30.073 160.402 29.7496 160.402C29.4262 160.402 29.1836 160.117 29.1836 159.709C29.1836 159.383 29.3049 159.139 29.4666 158.976C29.5879 158.854 29.79 158.772 29.9922 158.731C30.073 158.731 30.1134 158.731 30.1539 158.731V158.935ZM30.073 159.872C30.073 159.628 29.9517 159.506 29.7496 159.506C29.6283 159.506 29.507 159.587 29.4262 159.709C29.4262 159.75 29.3857 159.75 29.3857 159.791C29.3857 160.035 29.507 160.239 29.7496 160.239C29.9517 160.239 30.073 160.076 30.073 159.872Z" fill="#E0E0E0"></path><path d="M31.5285 159.587C31.5285 160.117 31.3264 160.443 30.9626 160.443C30.6392 160.443 30.437 160.158 30.437 159.628C30.437 159.098 30.6796 158.813 31.003 158.813C31.3264 158.772 31.5285 159.058 31.5285 159.587ZM30.6796 159.587C30.6796 159.995 30.8009 160.239 31.003 160.239C31.2052 160.239 31.3264 159.995 31.3264 159.587C31.3264 159.18 31.2456 158.935 31.003 158.935C30.8009 158.935 30.6796 159.18 30.6796 159.587Z" fill="#E0E0E0"></path><path d="M39.1287 207.336L38.8861 207.458L38.8457 207.295L39.1691 207.132H39.3308V208.517H39.1691V207.336H39.1287Z" fill="#E0E0E0"></path><path d="M51.2979 208.558V208.436L51.4596 208.273C51.8234 207.947 51.9852 207.743 51.9852 207.539C51.9852 207.417 51.9043 207.254 51.7021 207.254C51.5808 207.254 51.4596 207.336 51.4192 207.377L51.3787 207.254C51.4596 207.173 51.6213 207.132 51.783 207.132C52.066 207.132 52.2277 207.336 52.2277 207.539C52.2277 207.784 52.0255 207.988 51.7425 208.273L51.6213 208.395H52.2277V208.558H51.2979Z" fill="#E0E0E0"></path><path d="M63.9111 208.354C63.9516 208.395 64.0728 208.436 64.2345 208.436C64.4771 208.436 64.558 208.273 64.558 208.151C64.558 207.947 64.3962 207.865 64.1941 207.865H64.0728V207.743H64.1941C64.3154 207.743 64.5176 207.662 64.5176 207.499C64.5176 207.377 64.4367 207.295 64.2749 207.295C64.1537 207.295 64.0728 207.336 63.992 207.377L63.9516 207.254C64.0324 207.214 64.1537 207.132 64.3154 207.132C64.5984 207.132 64.7197 207.295 64.7197 207.458C64.7197 207.621 64.6388 207.743 64.4771 207.784C64.6388 207.825 64.8005 207.947 64.8005 208.151C64.8005 208.395 64.6388 208.558 64.2749 208.558C64.1132 208.558 63.992 208.517 63.9111 208.477V208.354Z" fill="#E0E0E0"></path><path d="M77.0101 208.558V208.192H76.3633V208.069L76.9697 207.173H77.1718V208.029H77.374V208.192H77.1718V208.558H77.0101ZM77.0101 208.029V207.581C77.0101 207.499 77.0101 207.418 77.0101 207.377C76.9697 207.458 76.9293 207.499 76.8889 207.581L76.5654 208.069H77.0101V208.029Z" fill="#E0E0E0"></path><path d="M89.8255 207.336H89.3L89.2595 207.702C89.3 207.702 89.3404 207.702 89.3808 207.702C89.5021 207.702 89.583 207.743 89.6638 207.784C89.7851 207.865 89.866 207.988 89.866 208.151C89.866 208.436 89.6638 208.64 89.3404 208.64C89.1787 208.64 89.0574 208.599 88.9766 208.558L89.017 208.395C89.0574 208.436 89.1787 208.477 89.3 208.477C89.4617 208.477 89.6234 208.354 89.6234 208.191C89.6234 208.028 89.5021 207.865 89.2191 207.865C89.1383 207.865 89.0978 207.865 89.017 207.865L89.0978 207.214H89.7447V207.336H89.8255Z" fill="#E0E0E0"></path><path d="M96.3341 155.146H32.8218V205.462H96.3341V155.146Z" stroke="#E0E0E0" stroke-width="0.3087" stroke-miterlimit="10"></path><path d="M32.8218 197.069H96.3341" stroke="#E0E0E0" stroke-width="0.3087" stroke-miterlimit="10"></path><path d="M32.8218 188.677H96.3341" stroke="#E0E0E0" stroke-width="0.3087" stroke-miterlimit="10"></path><path d="M32.8218 180.284H96.3341" stroke="#E0E0E0" stroke-width="0.3087" stroke-miterlimit="10"></path><path d="M32.8218 171.891H96.3341" stroke="#E0E0E0" stroke-width="0.3087" stroke-miterlimit="10"></path><path d="M32.8218 163.539H96.3341" stroke="#E0E0E0" stroke-width="0.3087" stroke-miterlimit="10"></path><path d="M83.6396 155.146V205.462" stroke="#E0E0E0" stroke-width="0.3087" stroke-miterlimit="10"></path><path d="M70.9453 155.146V205.462" stroke="#E0E0E0" stroke-width="0.3087" stroke-miterlimit="10"></path><path d="M58.251 155.146V205.462" stroke="#E0E0E0" stroke-width="0.3087" stroke-miterlimit="10"></path><path d="M45.5566 155.146V205.462" stroke="#E0E0E0" stroke-width="0.3087" stroke-miterlimit="10"></path><path d="M40.7054 184.032H37.6733V205.462H40.7054V184.032Z" fill="#757575"></path><path d="M53.3993 184.032H50.3672V205.462H53.3993V184.032Z" fill="#9E9E9E"></path><path d="M66.0941 184.032H63.062V205.462H66.0941V184.032Z" fill="#424242"></path><path d="M78.7479 184.032H75.7158V205.462H78.7479V184.032Z" fill="#757575"></path><path d="M91.4418 184.032H88.4097V205.462H91.4418V184.032Z" fill="#E0E0E0"></path><path d="M40.7054 180.284H37.6733V184.032H40.7054V180.284Z" fill="#757575"></path><path d="M53.3993 167.531H50.3672V184.032H53.3993V167.531Z" fill="#9E9E9E"></path><path d="M78.7479 169.528H75.7158V184.032H78.7479V169.528Z" fill="#757575"></path><path d="M91.4418 157.102H88.4097V184.032H91.4418V157.102Z" fill="#E0E0E0"></path><path d="M47.5373 171.891C47.5373 173.806 46.001 175.354 44.1009 175.354C42.2008 175.354 40.6646 173.806 40.6646 171.891C40.6646 169.976 42.2008 168.428 44.1009 168.428C46.0415 168.469 47.5373 170.017 47.5373 171.891Z" fill="#9E9E9E"></path><path d="M43.4951 172.909V172.298H42.4844V172.095L43.4546 170.709H43.778V172.054H44.1015V172.298H43.778V172.909H43.4951ZM43.4951 172.095V171.361C43.4951 171.239 43.4951 171.117 43.4951 171.035C43.4142 171.158 43.3738 171.239 43.3334 171.361L42.8078 172.095H43.4951Z" fill="#E0E0E0"></path><path d="M45.5974 170.954H44.7484L44.6675 171.524C44.708 171.524 44.7484 171.524 44.8292 171.524C44.991 171.524 45.1527 171.565 45.3144 171.646C45.4761 171.728 45.6378 171.931 45.6378 172.217C45.6378 172.665 45.3144 172.95 44.8292 172.95C44.5867 172.95 44.3846 172.868 44.3037 172.828L44.3845 172.583C44.4654 172.624 44.6675 172.706 44.8697 172.706C45.1527 172.706 45.3952 172.543 45.3952 172.217C45.3952 171.931 45.1931 171.728 44.7888 171.728C44.6675 171.728 44.5867 171.728 44.5059 171.768L44.6271 170.709H45.6782V170.954H45.5974Z" fill="#E0E0E0"></path><path d="M47.5376 171.891H50.3676" stroke="#9E9E9E" stroke-width="0.7527" stroke-miterlimit="10"></path><path d="M85.6613 163.539C85.6613 165.454 84.1251 167.002 82.2249 167.002C80.3248 167.002 78.7886 165.454 78.7886 163.539C78.7886 161.624 80.3248 160.076 82.2249 160.076C84.1251 160.076 85.6613 161.624 85.6613 163.539Z" fill="#E0E0E0"></path><path d="M81.9822 162.561H81.1332L81.0523 163.131C81.0927 163.131 81.1332 163.131 81.214 163.131C81.3757 163.131 81.5375 163.172 81.6992 163.254C81.8609 163.335 82.0226 163.539 82.0226 163.824C82.0226 164.272 81.6991 164.557 81.214 164.557C80.9714 164.557 80.7693 164.476 80.6885 164.435L80.7693 164.191C80.8502 164.232 81.0523 164.313 81.2544 164.313C81.5374 164.313 81.78 164.15 81.78 163.824C81.78 163.539 81.5779 163.335 81.1736 163.335C81.0523 163.335 80.9715 163.335 80.8906 163.376L81.0119 162.317H82.063V162.561H81.9822Z" fill="#E0E0E0"></path><path d="M82.3867 163.946C82.3867 163.661 82.5484 163.457 82.8314 163.376C82.5888 163.254 82.4676 163.091 82.4676 162.887C82.4676 162.52 82.7506 162.317 83.1549 162.317C83.5591 162.317 83.8017 162.602 83.8017 162.846C83.8017 163.05 83.7208 163.213 83.4378 163.376C83.7208 163.498 83.8825 163.661 83.8825 163.946C83.8825 164.313 83.5591 164.598 83.1549 164.598C82.6293 164.557 82.3867 164.272 82.3867 163.946ZM83.5591 163.946C83.5591 163.661 83.357 163.539 83.074 163.457C82.8314 163.539 82.6697 163.702 82.6697 163.906C82.6697 164.109 82.8314 164.313 83.1144 164.313C83.357 164.354 83.5591 164.191 83.5591 163.946ZM82.7506 162.846C82.7506 163.05 82.9123 163.172 83.1549 163.254C83.357 163.172 83.4783 163.05 83.4783 162.846C83.4783 162.683 83.357 162.48 83.1144 162.48C82.8719 162.52 82.7506 162.683 82.7506 162.846Z" fill="#E0E0E0"></path><path d="M85.6616 163.539H88.4512" stroke="#424242" stroke-width="0.7527" stroke-miterlimit="10"></path><path d="M18.3943 189.043C18.3943 189.797 17.7972 190.394 17.0429 190.394H5.35143C4.59715 190.394 4 189.797 4 189.043V177.351C4 176.597 4.59715 176 5.35143 176H17.0429C17.7972 176 18.3943 176.597 18.3943 177.351V189.043Z" fill="#2DCAB4"></path><path d="M17.9541 181.248V185.146L22.4484 189.043V177.351L17.9541 181.248Z" fill="#2DCAB4"></path><path d="M17.9541 181.248V185.146L22.4484 189.043V183.574L18.8341 180.463L17.9541 181.248Z" fill="#00B1A6"></path><path d="M10.3174 180.934V185.428L13.4603 183.197L10.3174 180.934Z" fill="white"></path><path d="M14.0314 44.7744C14.0314 46.0001 15.0371 47.0058 16.2629 47.0058H17.74V52.1915L22.9257 47.0058H39.9915C41.2172 47.0058 42.223 46.0001 42.223 44.7744V26.2314C42.223 25.0057 41.2172 24 39.9915 24H16.2314C15.0057 24 14 25.0057 14 26.2314V44.7744H14.0314Z" fill="#9E9E9E"></path><path d="M37.9477 30.4114H19.4048V31.8257H37.9477V30.4114Z" fill="white"></path><path d="M37.9472 33.9629H19.4043V35.3772H37.9472V33.9629Z" fill="white"></path><path d="M37.9472 37.5457H19.4043V38.9599H37.9472V37.5457Z" fill="white"></path><defs><linearGradient id="paint0_linear" x1="33.0474" y1="118.885" x2="36.5242" y2="118.885" gradientUnits="userSpaceOnUse"><stop stop-color="#00BF72"></stop><stop offset="1" stop-color="#00ACB4"></stop></linearGradient></defs></svg>