<svg width="136" height="136" viewBox="0 0 136 136" fill="none" xmlns="http://www.w3.org/2000/svg">
<g clip-path="url(#clip0)">
<path d="M94.1066 80.7024C110.432 57.6496 104.972 25.7282 81.9192 9.4068C58.8664 -6.91463 26.945 -1.45856 10.6236 21.5981C-5.69784 44.651 -0.241759 76.5684 22.8149 92.8898C39.269 104.539 61.0231 105.436 78.378 95.1869L116.087 132.67C120.159 136.956 126.933 137.127 131.219 133.056C135.505 128.988 135.677 122.214 131.609 117.928C131.48 117.791 131.355 117.666 131.219 117.538L94.1066 80.7024ZM52.3339 84.1968C34.1171 84.2007 19.3479 69.4431 19.3362 51.2263C19.3323 33.0095 34.0898 18.2403 52.3105 18.2325C70.5039 18.2247 85.2654 32.9588 85.3005 51.1522C85.3317 69.3729 70.5819 84.1656 52.3573 84.1968C52.3495 84.1968 52.3456 84.1968 52.3339 84.1968Z" fill="#A3A3A3"/>
</g>
<defs>
<clipPath id="clip0">
<rect width="136" height="136" fill="white"/>
</clipPath>
</defs>
</svg>
