<svg width="22" height="14" viewBox="0 0 22 14" fill="none" xmlns="http://www.w3.org/2000/svg">
<path fill-rule="evenodd" clip-rule="evenodd" d="M14.7555 1.1306C14.8368 1.04911 14.9333 0.984463 15.0396 0.940352C15.1459 0.89624 15.2599 0.873535 15.375 0.873535C15.4901 0.873535 15.604 0.89624 15.7104 0.940352C15.8167 0.984463 15.9132 1.04911 15.9945 1.1306L21.2445 6.3806C21.326 6.46188 21.3906 6.55844 21.4347 6.66474C21.4789 6.77104 21.5016 6.88501 21.5016 7.0001C21.5016 7.11519 21.4789 7.22915 21.4347 7.33546C21.3906 7.44176 21.326 7.53832 21.2445 7.6196L15.9945 12.8696C15.8302 13.0339 15.6074 13.1262 15.375 13.1262C15.1426 13.1262 14.9198 13.0339 14.7555 12.8696C14.5912 12.7053 14.4989 12.4825 14.4989 12.2501C14.4989 12.0177 14.5912 11.7949 14.7555 11.6306L19.3877 7.0001L14.7555 2.3696C14.674 2.28832 14.6094 2.19176 14.5652 2.08546C14.5211 1.97915 14.4984 1.86519 14.4984 1.7501C14.4984 1.63501 14.5211 1.52104 14.5652 1.41474C14.6094 1.30844 14.674 1.21188 14.7555 1.1306Z" fill="white"/>
<path fill-rule="evenodd" clip-rule="evenodd" d="M0.5 7C0.5 6.76794 0.592187 6.54538 0.756282 6.38128C0.920376 6.21719 1.14294 6.125 1.375 6.125H19.75C19.9821 6.125 20.2046 6.21719 20.3687 6.38128C20.5328 6.54538 20.625 6.76794 20.625 7C20.625 7.23206 20.5328 7.45462 20.3687 7.61872C20.2046 7.78281 19.9821 7.875 19.75 7.875H1.375C1.14294 7.875 0.920376 7.78281 0.756282 7.61872C0.592187 7.45462 0.5 7.23206 0.5 7Z" fill="white"/>
</svg>
