<svg xmlns="http://www.w3.org/2000/svg" xmlns:xlink="http://www.w3.org/1999/xlink" viewBox="0 0 682.11 756.87"><defs><style>.cls-1,.cls-13{fill:#380dec;}.cls-1{opacity:0.1;}.cls-2{fill:url(#linear-gradient);}.cls-3{fill:#c6c6c6;}.cls-4,.cls-6{fill:#fff;}.cls-5,.cls-6{opacity:0.2;}.cls-7{fill:#bfa8f5;}.cls-8{fill:#fda286;}.cls-9{fill:#231746;}.cls-10{fill:#2e2163;}.cls-11{fill:#eb3d7b;}.cls-12{fill:#7f69ff;}.cls-14{fill:#fdb943;}.cls-15{fill:#adadad;}.cls-16{fill:#f2a120;}</style><linearGradient id="linear-gradient" x1="125.62" y1="356.79" x2="515" y2="356.79" gradientUnits="userSpaceOnUse"><stop offset="0" stop-color="#fa5"/><stop offset="0.29" stop-color="#fea051"/><stop offset="0.79" stop-color="#fb8646"/><stop offset="1" stop-color="#f97841"/></linearGradient></defs><title>Asset 6</title><g id="Layer_2" data-name="Layer 2"><g id="Layer_1-2" data-name="Layer 1"><ellipse class="cls-1" cx="324.53" cy="693.79" rx="146.55" ry="32.91"/><path class="cls-2" d="M462.39,448.68C497,413.42,515,367.86,515,320.75c-.14-104.51-88.86-188.29-195.48-188.29-104.65,0-180.25,78-192.24,161.78-7.48,55.85,10.58,110.29,48.09,151.47,33,35.26,51.06,82.37,51.06,130.89v4.51H414.29V576.6C414.3,526.67,430.8,481,462.39,448.68Z"/><path class="cls-3" d="M224.53,549.42S260.87,561,320.31,561,416,549.42,416,549.42s-5.56,114.49-5.89,123c-.4,10.69-54.12,24.12-83.6,24.12-44,0-95.8-12.77-97.29-22.45S224.53,549.42,224.53,549.42Z"/><path class="cls-4" d="M363,526.63h-.25a3.94,3.94,0,0,1-3.7-4.19l5.82-94.49a3.69,3.69,0,0,1,.19-1c1.74-5.32,9.53-28.95,18.86-54.9h-1.33c-17.88-.07-34.17-6.27-41.49-15.79-6.12-7.95-8.49-16.22-10.39-22.86-2.57-9-3.81-12-8.39-12.47h-4.07c-4.58.49-5.82,3.5-8.39,12.47-1.9,6.64-4.27,14.91-10.38,22.86-7.33,9.52-23.62,15.72-41.49,15.79h-1.34C266,398,273.75,421.63,275.49,427a4.13,4.13,0,0,1,.19,1l5.82,94.49a4,4,0,0,1-7.91.48l-5.79-94c-5.62-17.15-12.69-37.78-19.85-57.5a68.26,68.26,0,0,1-45.45-25.49c-17.68-22.63-14.44-42.78-3.95-51.92,7.52-6.56,17.54-6.23,24.35.79,7,7.21,19.64,38.67,30.81,69.21,1.51.09,2.91.11,4.22.12,15-.06,29.53-5.28,35.23-12.7,5.2-6.75,7.25-13.9,9.06-20.22,2.42-8.46,4.93-17.21,15.43-18.19h5.21c10.5,1,13,9.73,15.44,18.19,1.81,6.32,3.85,13.47,9.05,20.22,5.71,7.42,20.2,12.64,35.23,12.7,1.31,0,2.71,0,4.23-.12,11.17-30.54,23.8-62,30.8-69.21,6.81-7,16.83-7.35,24.36-.79,10.49,9.14,13.72,29.29-4,51.92-13.95,17.85-32,23.78-45.46,25.5-7.16,19.71-14.22,40.34-19.85,57.49l-5.79,94A4,4,0,0,1,363,526.63Zm67-229.37a9.14,9.14,0,0,0-6.68,3.07c-5.39,5.56-16.36,32.14-27.61,62.59a58.86,58.86,0,0,0,36.09-21.86c14.5-18.56,12.75-34.3,5-41.07A10.58,10.58,0,0,0,430,297.26Zm-219.42,0a10.59,10.59,0,0,0-6.8,2.73c-7.76,6.77-9.51,22.5,5,41.07a58.91,58.91,0,0,0,36.1,21.86c-11.25-30.45-22.22-57-27.62-62.59A9.14,9.14,0,0,0,210.55,297.26Z"/><g class="cls-5"><path class="cls-4" d="M235.37,568.58a148.07,148.07,0,0,0,20.68,5.24c7,1.38,14,2.39,21,3.16a394,394,0,0,0,42.48,2.2A399.11,399.11,0,0,0,362.05,577c7.05-.75,14.08-1.74,21-3.13a138.15,138.15,0,0,0,20.65-5.31,73.34,73.34,0,0,1-9.91,4.11c-3.38,1.19-6.82,2.21-10.28,3.19-6.94,1.81-14,3.17-21.08,4.32a291.87,291.87,0,0,1-85.8-.06C262.54,577.83,248.36,574.68,235.37,568.58Z"/><path class="cls-4" d="M235.37,591.79A146.69,146.69,0,0,0,256.05,597c7,1.38,14,2.4,21,3.16a394,394,0,0,0,42.48,2.21,399.11,399.11,0,0,0,42.48-2.16c7.05-.75,14.08-1.74,21-3.13a138.18,138.18,0,0,0,20.65-5.32,72.07,72.07,0,0,1-9.91,4.11c-3.38,1.2-6.82,2.22-10.28,3.2-6.94,1.8-14,3.17-21.08,4.31a291,291,0,0,1-85.8-.06C262.54,601.05,248.36,597.9,235.37,591.79Z"/><path class="cls-4" d="M235.37,615a146.73,146.73,0,0,0,20.68,5.25c7,1.38,14,2.39,21,3.16a396.53,396.53,0,0,0,42.48,2.2,399.11,399.11,0,0,0,42.48-2.16c7.05-.75,14.08-1.74,21-3.13A137,137,0,0,0,403.74,615a72.12,72.12,0,0,1-9.91,4.12c-3.38,1.19-6.82,2.21-10.28,3.19-6.94,1.81-14,3.17-21.08,4.32a291.87,291.87,0,0,1-85.8-.06C262.54,624.26,248.36,621.11,235.37,615Z"/><path class="cls-4" d="M235.37,638.22a148.07,148.07,0,0,0,20.68,5.24c7,1.38,14,2.39,21,3.16a394,394,0,0,0,42.48,2.21,404.45,404.45,0,0,0,42.48-2.16c7.05-.75,14.08-1.75,21-3.13a138.18,138.18,0,0,0,20.65-5.32,72.07,72.07,0,0,1-9.91,4.11c-3.38,1.2-6.82,2.21-10.28,3.2-6.94,1.8-14,3.16-21.08,4.31a291,291,0,0,1-85.8-.06C262.54,647.48,248.36,644.32,235.37,638.22Z"/><path class="cls-4" d="M235.37,661.43a145.34,145.34,0,0,0,20.68,5.24c7,1.39,14,2.4,21,3.16A394,394,0,0,0,319.57,672a399.11,399.11,0,0,0,42.48-2.16c7.05-.75,14.08-1.74,21-3.13a137,137,0,0,0,20.65-5.32,72.12,72.12,0,0,1-9.91,4.12c-3.38,1.19-6.82,2.21-10.28,3.19-6.94,1.81-14,3.17-21.08,4.31a291,291,0,0,1-85.8-.06C262.54,670.69,248.36,667.54,235.37,661.43Z"/></g><ellipse class="cls-6" cx="379.74" cy="323.71" rx="107.67" ry="111.66"/><path class="cls-7" d="M440.2,699.29c-15.39-.16-30.79-1.54-46.17-.88a6.47,6.47,0,0,1-2.52-.23,6,6,0,0,1-1.75-1.22c-3.62-3.23-7.61-6.43-10.46-10.37s-3.15-5-3.29-7.25c-.17-2.75,1.5-3.36,2.14-3.64a5.84,5.84,0,0,1,3.1.17c3.75,2,5.82,4.79,8.58,10.58a13.81,13.81,0,0,1,1.19-15c.93-1.18,2.33-2.27,3.79-2a4.41,4.41,0,0,1,2.54,2.36,24.13,24.13,0,0,1,3.16,12.45,30.08,30.08,0,0,1,1-12.08,13.76,13.76,0,0,1,3.7-6.52c1.9-1.67,4.76-2.45,7-1.36s3.51,3.83,3.74,6.41-.27,5.16-.29,7.75a19.44,19.44,0,0,1,4.56-9.26,7.44,7.44,0,0,1,2.75-2.11,3.35,3.35,0,0,1,3.31.4,4.42,4.42,0,0,1,1.25,2.8,15.52,15.52,0,0,1-2,10.17c1.94-3,3.92-6.06,6.65-8.36s6.4-3.79,9.91-3.1a4.22,4.22,0,0,1,2.65,1.47,4.3,4.3,0,0,1,.63,2.62,13.29,13.29,0,0,1-3.33,8,33.44,33.44,0,0,1-6.64,5.74,16.14,16.14,0,0,1,6.67-3.36c3.84-1.13,8.51-1.67,11.41,1.1a4.36,4.36,0,0,1,1.31,4.59,5.3,5.3,0,0,1-1.38,1.81,18.25,18.25,0,0,1-6.28,3.91,5.64,5.64,0,0,1,2.3-.23,2,2,0,0,1,1.66,1.43c.2,1.11-.91,2-1.95,2.44C446.8,699.59,441.65,699.3,440.2,699.29Z"/><path class="cls-7" d="M215,704.12c15.52-.16,31-1.55,46.55-.89a6.37,6.37,0,0,0,2.54-.24,6.09,6.09,0,0,0,1.77-1.22c3.65-3.26,7.67-6.48,10.55-10.46s3.17-5,3.31-7.3c.17-2.78-1.51-3.4-2.16-3.68a5.82,5.82,0,0,0-3.12.18c-3.79,2-5.87,4.83-8.65,10.66a13.92,13.92,0,0,0-1.2-15.09c-.94-1.19-2.35-2.29-3.83-2a4.36,4.36,0,0,0-2.55,2.37A24.2,24.2,0,0,0,255,689a30.35,30.35,0,0,0-1-12.17,13.8,13.8,0,0,0-3.74-6.58,6.7,6.7,0,0,0-7.09-1.37c-2.36,1.12-3.54,3.86-3.77,6.46s.27,5.21.29,7.82a19.54,19.54,0,0,0-4.6-9.34,7.38,7.38,0,0,0-2.77-2.13,3.36,3.36,0,0,0-3.33.4,4.52,4.52,0,0,0-1.27,2.83,15.63,15.63,0,0,0,2,10.25c-1.95-3-3.95-6.11-6.71-8.43s-6.44-3.82-10-3.12a4.24,4.24,0,0,0-2.68,1.48,4.31,4.31,0,0,0-.63,2.64,13.42,13.42,0,0,0,3.35,8,34,34,0,0,0,6.7,5.78,16.25,16.25,0,0,0-6.72-3.38c-3.88-1.14-8.59-1.69-11.51,1.1a4.41,4.41,0,0,0-1.32,4.63,5.4,5.4,0,0,0,1.39,1.83,18.24,18.24,0,0,0,6.34,3.94,5.8,5.8,0,0,0-2.33-.23,2,2,0,0,0-1.67,1.44c-.2,1.12.92,2,2,2.46C208.34,704.42,213.53,704.13,215,704.12Z"/><ellipse class="cls-1" cx="318.43" cy="169.77" rx="65.28" ry="37.43"/><path class="cls-8" d="M449,244.89c1.35-.62,3.3-.81,4.63-1.48,1.64-.83,3.63-3,3.44-4.56-.54-1-1-1.13-2-.56a18.27,18.27,0,0,1-3.34,1.47,14.61,14.61,0,0,1-5.21.88,7.38,7.38,0,0,1-4.32-1.24c-1.44-1.08-2.09-3.25-3.84-3.63-1-.21-3.94,3-4.44,3.65,1.1,1.91,3.25,2.7,4.8,4.2s1.41,3.62,4.21,4.63C445.27,248,446.51,246,449,244.89Z"/><path class="cls-9" d="M452,239.69a18.71,18.71,0,0,1-2,.55,5.62,5.62,0,0,1-1.49,2.1,12.47,12.47,0,0,1-9,2.88c.71,1.27,1.21,2.57,3.29,3.32,2.46-.23,3.76-2.32,6.29-3.5,1.41-.66,3.45-.85,4.83-1.55,1.71-.86,3.78-3.09,3.59-4.75-.57-1.07-1-1.17-2.07-.58A18.43,18.43,0,0,1,452,239.69Z"/><path class="cls-9" d="M427.11,212.93q-8.36-13.58-17.6-26.58c-3.08-4.33-7.47-8.9-12.24-11.38-1.81-.93-3.57-2-5.37-2.92q-5.76-3.09-11.6-6c-7.82-3.95-15.72-7.72-23.67-11.39-8.47-3.91-17-7.7-25.51-11.46-2.19-1-4.6-1.94-6.92-1.35-3.08.79-4.81,4-6.1,6.9-2.54,5.73-7.07,6.52-9,12.48,11.86,12.73,32.51,20.78,50.37,24.31,9.27,1.83,20,5,28.71,6.3,1.2,6.59,5.26,12.69,9.65,17.94,3.67,4.39,28.5,28,39,32.41l.94-.21a14.27,14.27,0,0,0,3.88-3C441.2,232.56,429.46,216.74,427.11,212.93Z"/><path class="cls-8" d="M385.51,290.54c1.48-.13,3.39.35,4.86.17,1.82-.22,4.42-1.56,4.78-3.12-.16-1.15-.52-1.39-1.67-1.2a18.52,18.52,0,0,1-3.64.26,14.78,14.78,0,0,1-5.2-.95,7.3,7.3,0,0,1-3.65-2.62c-1-1.5-.86-3.77-2.38-4.72-.85-.53-4.71,1.46-5.42,1.94.39,2.17,2.15,3.64,3.1,5.57s.1,3.88,2.4,5.79C381,292.25,382.83,290.78,385.51,290.54Z"/><path class="cls-10" d="M390.14,286.68c-.62,0-1.33-.07-2.06-.16A5.52,5.52,0,0,1,386,288a12.42,12.42,0,0,1-9.42-.32c.24,1.44.28,2.83,2,4.24,2.39.62,4.32-.91,7.11-1.16,1.54-.14,3.53.36,5.06.17,1.9-.23,4.61-1.63,5-3.25-.17-1.2-.55-1.45-1.75-1.25A19.32,19.32,0,0,1,390.14,286.68Z"/><path class="cls-10" d="M375.79,253.07q-3.27-15.6-7.57-31c-1-3.39-2-6.87-4.13-9.66-.07-.1-.16-.18-.23-.28a5.1,5.1,0,0,0-.91-1.78c-13-15.69-27.36-30.77-41.8-45.38l.38-.1c-.65-.84-1.46-2-1-3.33,2.49-7.46,7.24-14.72,8.18-20.41-4.82,2.74-8.83,2.81-16.05,2.49-8.56-.37-16.8-.63-24.95-3.08-12.52,30.56,17.92,59.22,33.92,67.54,6.61,3.43,16.56,8.48,24.56,12.49-.91,6.44.83,13.33,3.12,19.57,2,5.37,17.34,36,25.74,43.7l1,.12a14.29,14.29,0,0,0,4.65-1.49C382.4,276.32,376.71,257.45,375.79,253.07Z"/><path class="cls-8" d="M376.63,3.77A4.77,4.77,0,0,0,378.74,0c-2.75,1.8-6.82,3.3-8.24,6.27-.89,1.86-1.15,4-1.9,5.89a43.41,43.41,0,0,0-4.86,6.3C360,24.32,352.37,31.7,347,45.84a13.25,13.25,0,0,0-.77,3.26c-1.62,1-3.18,2.1-4.56,2.95C333.2,57.28,326.46,62.68,318.32,67c-5.3,2.81-11,6-13.34,11.54,3.18,4,8.8,4.72,13.84,5.14,3.59.31,7.19.59,10.78.86a5.62,5.62,0,0,0,2.8-.27,8.6,8.6,0,0,0,1.81-1.56C345.7,73,348.88,68.14,355.94,55.37c2.32-1.88,4.08-4.9,5.67-7.87,4.58-8.6,5.8-14.52,9-24.82a45.83,45.83,0,0,0,1.29-5.6c1.29-3.45,3.07-6.78,6-8.88,2.49-1.77,5.59-2.48,8.22-4C386.73.88,379.54,2.06,376.63,3.77Z"/><path class="cls-8" d="M281.57,66c-9.13-1.14-17.36-3.79-27.11-5.68-1.58-.31-3.44-.8-5.31-1.14a12.83,12.83,0,0,0-1.87-2.77c-10.07-11.3-19.81-15.5-25.41-19.64a51.25,51.25,0,0,0-5.58-3.56h0c-1.7-1.6-3.56-3.35-5.25-5-2.37-2.27-6.53-2.68-9.73-3.39a4.78,4.78,0,0,0,3.31,2.78c-3.33-.57-10.47.88-8.81,3.76,3,.52,6.16.09,9.12.86,3.28.84,6,3.05,8.28,5.58a21.14,21.14,0,0,0,1.36,2.79c5.13,8.92,12.29,16.14,19.63,22.55,2.53,2.21,5.26,4.4,8.09,5.33,11.14,9.43,15.83,12.83,30,17.83a8.65,8.65,0,0,0,2.26.82,5.72,5.72,0,0,0,2.7-.75q4.9-2.28,9.77-4.63c4.57-2.19,9.55-4.9,11.11-9.72C294,67.75,287.53,66.78,281.57,66Z"/><path class="cls-11" d="M332.55,84.43c3.68-2.36,12.46-8.71,12.46-8.71l-1.48-1.65a77,77,0,0,1-5.39-10.88c-1.93-5.18-2.53-7.59-2.53-7.59S316.44,61,315.18,61.23A42.48,42.48,0,0,0,307.71,65c-6.19-1.18-13.28-1.58-19,0a21.63,21.63,0,0,0-3.81-1c-1.27,0-21.08-2.12-21.08-2.12s-.19,2.48-1.22,7.9a77.45,77.45,0,0,1-3.49,11.64L258,83.32s9.91,3.38,13.93,5.09c3.43,1.46,5.32,2.67,8.2,3.9,1.18,5.1,2.62,10.08,3.4,14,.21,1.07.46,2.12.68,3.19l.07.55s.06,24.11-1.33,28.46,7.7,9.78,26.17,11.36,22.7-9.17,22.7-9.17a266.26,266.26,0,0,1-3-37.15h0A91.49,91.49,0,0,0,328,90C329.25,87.81,330.5,85.74,332.55,84.43Z"/><path class="cls-8" d="M318.43,44.87a1.09,1.09,0,0,0-.2-.57L316,40.61c-.19-.33-.39-.67-.6-1a33.22,33.22,0,0,0-2-7.62c-1.73-4.19-4.9-8-9.21-9.43-4.7-1.54-10.13.14-13.64,3.64a19.06,19.06,0,0,0-5.16,13.53c0,5.27,2,10.69,6,14.09,1.48,1.24,3.2,2.2,4.6,3.52s1.37,3.39,1.12,5.31c-.13,1-2.57,2.45-2.58,3.5-.08,6.13,18.52,6.72,15.53.49-1.19-2.47-2.9-3.91-2.77-7.07.24-6,4.66-2.34,7.76-4.28,1.66-1,1.66-3.42,1.46-5.36-.12-1.12-.23-2.23-.35-3.34a4.28,4.28,0,0,0,1.91-1.19A.92.92,0,0,0,318.43,44.87Z"/><path class="cls-9" d="M293.52,42.32c-1.31-2.55-2-7.24-.87-9.89a8.5,8.5,0,0,1,5.82-4.68A15.92,15.92,0,0,1,306,28c2.86.65,5.81,1.68,8.64.93,3-.79,5.43-5.84,5.67-9.15A7.93,7.93,0,0,0,315.63,12a6.91,6.91,0,0,0-8.21,2.84A5.6,5.6,0,0,0,299,12.93c-1.6,1.39-2.39,3.64-4.05,5-2.28,1.82-5.55,1.37-8.07,2.79-2,1.15-4.18,4.88-5,7.15-3.33,9,.7,22.23,8,28,2.15,1.71,5.06,3,7.46,1.71,1.3-1,.74-3.27-.5-4.32s-2.89-1.37-4.24-2.25-2.38-2.85-1.47-4.23c.8-1.21,2.55-1.11,3.79-.44s2.15,1.62,3.39,2.16C296.65,46.43,294.75,44.71,293.52,42.32Z"/><ellipse class="cls-1" cx="576.79" cy="743.31" rx="60.38" ry="13.56"/><path class="cls-9" d="M458.35,567.77c-4.33-3-9.27-2-12.37,2.52a9.44,9.44,0,0,0-1.15,8.64l-2.91-1.9c-1.24-.86-3.27-1-4,.09l-14.79,21.34c-.74,1.07.08,2.93,1.32,3.79l6.75,5-18.91,5.65c-1-1.59-2.12-2.46-3-2.14-1.22.45-1.27,3.29-.15,6.29s3,5.09,4.27,4.63c.93-.35,1.2-2.08.77-4.21l29-1.28,7.51,5.64a2.34,2.34,0,0,0,3.39-.51l16.14-23.28a2.35,2.35,0,0,0-.71-3.36l-4.17-2.66a37,37,0,0,1-1.07-9.62C464.09,576.88,464,571.68,458.35,567.77Zm3.93,22.34-12.79-8.19c-1.75-2.27-3.91-6.27-1.27-10.08,2.28-3.29,5.5-4,8.63-1.79,4.51,3.13,4.64,7.29,4.8,12.55A50.92,50.92,0,0,0,462.28,590.11Z"/><path class="cls-12" d="M479.86,573.5c-4.05,1.39-8.05,2.21-12.33.42-2.82-1.18-6-2-7.29,1.1-.69,3.12,1.22,2.06,4.34,3.35.87.87-4.07,2.48-3.35,4.51,4.19-.94,5.44-1.7,8.66-2.35,2.29-.47,4.32-1.81,6.61-2.26,3.54-.7,7.11.76,10.7,1.09a17.21,17.21,0,0,0,10.69-2.56c5.13-3.25-1.28-6.94-4.83-7.1C488.74,569.52,483.84,572.14,479.86,573.5Z"/><path class="cls-12" d="M541,539.2q-1.9-5.06-3.88-10.09c-1.84-4.72-4.17-9.89-8.86-11.81-4.64,3.82-6.1,10.19-7.28,16.07-1.82,9-5.08,17-7.69,26.61-.32,1.16-.75,2.46-1.15,3.8h-.48c-15.08,1.21-24.31,6.44-31,8.4-3.28,1-8,2.16-8.15,2.9a4.44,4.44,0,0,0,2.13,4,13.85,13.85,0,0,0,4.67,1.24c10.21,1.3,20.29-.05,29.83-2,3.92-.81,8-1.84,10.44-4.27a6,6,0,0,0,.93-1.27c10.25-10.41,14-14.84,20.05-28.62a8.88,8.88,0,0,0,1-2.19A5.56,5.56,0,0,0,541,539.2Z"/><path class="cls-12" d="M525.93,518.19c-1.47,1.92-1.22,8.69-1.24,11.11-.05,6,.68,9.88,3.67,14,10,13.7,24.43,24.28,31.46,39.71.84,1.83,1.65,3.83,3.34,4.93a9.38,9.38,0,0,0,5.22,1c4.87,0,10.12-.44,13.86-3.57,6.36-5.31,5.17-15.24,3.21-23.29q-3.66-15-8.27-29.76c-2.7-8.65-5-23.54-11.12-30.38C555.57,490.27,532.21,510,525.93,518.19Z"/><path class="cls-12" d="M647.63,526.75c4.17.94,8.7,1.5,12.61-.23,2.8-1.23,5-3.51,7.7-5,2.83,1.87-1.63,6.79-4.59,8.4a4.8,4.8,0,0,1,4.32.14c-3,1.42-6.11,2.89-9.38,2.58-2.32-.23-4.49-1.33-6.81-1.54-3.59-.32-7,1.52-10.52,2.23a17.23,17.23,0,0,1-10.9-1.4c-5.45-2.68.53-7,4-7.58C638.37,523.73,643.53,525.82,647.63,526.75Z"/><path class="cls-12" d="M655.3,528.26c-.21-.72-5.26-2.12-8.63-2.73-6.85-1.24-16.58-5.45-31.71-5a12.64,12.64,0,0,0-4.79,1.1,59.2,59.2,0,0,0-7.14-4c-8.73-4.75-16.76-7.93-24.53-12.86-5.07-3.22-17.9-8.94-21.53-5.61-1.86,4.72,5.15,9.71,7.28,14.31q2.26,4.9,4.6,9.78a5.65,5.65,0,0,0,1.61,2.3,8.93,8.93,0,0,0,2.26.81c14.44,5.27,20.14,5.54,35.45,5.32a1,1,0,0,0,.18,0c2.69,2.06,6.75,2.65,10.66,3,9.7,1,19.86,1.22,29.87-1.16a13.74,13.74,0,0,0,4.52-1.73C654.72,530.87,655.65,529.45,655.3,528.26Z"/><path class="cls-8" d="M587.44,574.6c-6.27-.32-12,2.33-18.31,2.64-3.18.15-6.78.62-8.62,3.21-1.39,2-1.34,4.55-1.23,6.95,1.24,25.24,6.33,76.06,6.29,75.67-.12-1-.1.64.16,2.66a36.33,36.33,0,0,0-.15,8.08c.66,10.6,2.1,20.33,3.46,30.87.57,4.41,3.2,20.79,4.62,30a4.93,4.93,0,0,1-.12.87,7.38,7.38,0,0,1-2.58,3.68,14.81,14.81,0,0,1-4.61,2.6,18.54,18.54,0,0,1-3.52,1c-1.14.2-1.41.55-1.19,1.68.86,1.36,3.75,1.77,5.54,1.38,1.46-.31,3.1-1.39,4.54-1.75,2.61-.66,4.84.13,6.81-1.19,1.55-2.55.1-4,.37-6.26a13.23,13.23,0,0,1,.54-2.3c5.4-10.06,9.87-44,10-49.73.14-8.22-.87-17.1-6-23.38,2.53-9,6.1-22.06,8.29-30.37C596.27,613.3,595.06,590.24,587.44,574.6Z"/><path class="cls-13" d="M566.08,742a19.35,19.35,0,0,0,1.89-.82,5.72,5.72,0,0,0,2.49.69,12.37,12.37,0,0,0,8.78-3.4c.25,1.44.67,2.76-.47,4.65-2,1.37-4.38.56-7.1,1.24-1.5.37-3.21,1.5-4.73,1.83-1.86.4-4.88,0-5.77-1.44-.23-1.18.05-1.55,1.24-1.75A18.44,18.44,0,0,0,566.08,742Z"/><path class="cls-8" d="M676.38,560.47c-1.48.06-3.29.85-4.77,1-2.68.2-4.75-.95-6.91,0-2,2.25-.78,3.95-1.43,6.1a12,12,0,0,1-.65,1.63l-2.31,4.47A179.13,179.13,0,0,0,647.92,604a71.3,71.3,0,0,0-2,10.65c-3.25-4.59-6.46-9.11-9-12.58-10.64-14.77-29.22-28.49-46.13-32.55-4.23,4.63-5.86,10.77-9.6,15.81-1.9,2.55-3.83,5.62-3,8.69.62,2.32,2.66,3.93,4.58,5.37,20.1,15,41,30.25,62.4,43.26a52.92,52.92,0,0,0,6.72,3.5,4.22,4.22,0,0,0,2.94,1.46c3.52.08,6.69-2.48,8.35-5.59s2.12-6.71,2.5-10.21q1.74-15.85,2.41-31.79c.19-4.44-.28-18.23,0-29.61a4.56,4.56,0,0,1,.26-.84,7.34,7.34,0,0,1,3.17-3.19,14.65,14.65,0,0,1,5-1.78,18.52,18.52,0,0,1,3.63-.34c1.16,0,1.49-.3,1.46-1.46C681,561.3,678.21,560.4,676.38,560.47Z"/><path class="cls-13" d="M676.81,564.49c-.61.12-1.3.29-2,.49a5.65,5.65,0,0,0-2.33-1.1,12.41,12.41,0,0,0-9.23,1.86c0-1.46-.2-2.84,1.25-4.5,2.26-1,4.42.19,7.21,0,1.54-.11,3.42-.93,5-1,1.9-.08,4.8.86,5.44,2.4,0,1.21-.31,1.52-1.52,1.52A19.31,19.31,0,0,0,676.81,564.49Z"/><path class="cls-14" d="M554.55,573.89s12.88-1.11,19.59-6.81a73.78,73.78,0,0,0,10-10.09,31.46,31.46,0,0,0,13,10.07,135.72,135.72,0,0,1,28.63,15.28,126.74,126.74,0,0,1,14.82,12.19s-4.1,20-16.22,28.74C602,639.46,597,626.16,578,636A174.18,174.18,0,0,1,557,645s-1.16-6.79-1.12-31.22S556.6,583.47,554.55,573.89Z"/><path class="cls-11" d="M520.55,458.35c1.49-3.6,6.74-7.27,10.55-8.12a16.05,16.05,0,0,1,6.93-.18,17,17,0,0,1,8.23,5c1.88,1.92,3.68,4.81,5.94,6.25,3.13,2,4.72,2.82,8,2.74s6.6-.41,9.81.26,6.39,2.61,7.48,5.71c1,2.71.14,5.74-1.16,8.3-.87,1.72-2,3.59-1.44,5.43.64,2.12,3.09,3,4.94,4.18a10.36,10.36,0,0,1,4.41,6.46,7,7,0,0,1-.14,3.8,9.35,9.35,0,0,1-3.94,4.32c-2.08,1.4-4.53,2.61-7,2.18-3.49-.61-5.68-4.48-5.51-8,.06-1.5.46-3,.49-4.48a5,5,0,0,0-1.55-4.07,5.11,5.11,0,0,0-4.07-.66c-1.39.26-2.73.8-4.14,1a8.37,8.37,0,0,1-7.3-2.85c-3-3.51-2.52-8.74-4.31-13a3.51,3.51,0,0,0-1-1.52c-1.22-.91-2.93-.22-4.31.42-5.53,2.57-10.58,2-15.79-1C521.63,468.11,518.68,462.89,520.55,458.35Z"/><path class="cls-8" d="M547.11,505.15c-.61-.85-3.42-.6-4.13-1.37-1.3-1.43-2.52-3.09-2.14-5s1.24-3.66,1.73-5.53c1.34-5.1-.15-10.67-3.17-15a19,19,0,0,0-12-8.09c-4.88-.85-10.29.9-13.25,4.88-2.71,3.63-3.1,8.58-2.1,13a33.33,33.33,0,0,0,2.78,7.37c0,.39,0,.78.08,1.16l.33,4.28a1.12,1.12,0,0,0,.16.58.85.85,0,0,0,.52.29,4.18,4.18,0,0,0,2.24-.13l1.64,2.93c1,1.71,2.32,3.66,4.28,3.55,3.65-.2,5.15-5.75,8.81-1,1.93,2.51,1.35,4.67,1.81,7.38C535.83,521.31,550.71,510.12,547.11,505.15Z"/><path class="cls-11" d="M512.59,494.55a10.82,10.82,0,0,1-4.09-5c-1.27-3.21-.79-5.59-.58-7.63.45-4.47,2.74-7.61,5.94-10.76,3.86-3.79,10.35-5.24,15.75-4.94a23.22,23.22,0,0,1,7.52,2c4,1.76,8.64,6.42,9.48,9.35,1.7,6,1.66,10.16-.59,15.74a12.42,12.42,0,0,1-5.18,5.49c-2.4-1.6-2.32-1.9-4.83-3.74-.72-.52-1.5-.86-1.54-1.75,1.07-1.65,2.16-.38,2.48-3.29.16-1.44-.2-4.27-1.41-5.49-1-1-2.66-1.67-3.62-.58-1.85,2.13-.75,4.46-2.31,6.82,0-2.08-2.17-3.95-4.93-5.2a10.22,10.22,0,0,0-7.53-.74A18.89,18.89,0,0,1,512.59,494.55Z"/><path class="cls-4" d="M390,620.54l2.52.83a.31.31,0,0,0,.28,0l2.12-1.61a.3.3,0,0,1,.49.24v2.66a.3.3,0,0,0,.13.25l2.19,1.51a.31.31,0,0,1-.08.55l-2.53.82a.3.3,0,0,0-.2.21l-.76,2.54a.31.31,0,0,1-.55.09L392,626.43a.29.29,0,0,0-.26-.12l-2.65.06a.31.31,0,0,1-.26-.49l1.57-2.15a.31.31,0,0,0,0-.28l-.88-2.51A.31.31,0,0,1,390,620.54Z"/><path class="cls-4" d="M380.92,641.38l2.52.82a.31.31,0,0,0,.28-.05l2.12-1.61a.3.3,0,0,1,.49.25v2.65a.32.32,0,0,0,.13.26l2.19,1.51a.31.31,0,0,1-.08.55l-2.53.81a.32.32,0,0,0-.2.21l-.76,2.55a.31.31,0,0,1-.55.09L383,647.27a.29.29,0,0,0-.26-.13l-2.65.06a.31.31,0,0,1-.26-.49l1.57-2.15a.31.31,0,0,0,0-.28l-.88-2.51A.3.3,0,0,1,380.92,641.38Z"/><path class="cls-4" d="M402,635.88l2.06-1.67a.32.32,0,0,0,.11-.27l-.2-2.65a.31.31,0,0,1,.47-.28l2.23,1.45a.33.33,0,0,0,.29,0l2.45-1a.31.31,0,0,1,.42.36l-.69,2.57a.32.32,0,0,0,.07.28l1.72,2a.31.31,0,0,1-.22.51l-2.65.14a.33.33,0,0,0-.25.15l-1.38,2.26a.31.31,0,0,1-.56,0l-.95-2.48a.35.35,0,0,0-.22-.19l-2.58-.62A.31.31,0,0,1,402,635.88Z"/><path class="cls-4" d="M415.29,647.34l2.06-1.67a.29.29,0,0,0,.11-.26l-.2-2.65a.31.31,0,0,1,.47-.29l2.23,1.45a.33.33,0,0,0,.29,0l2.45-1a.31.31,0,0,1,.42.37l-.69,2.56a.31.31,0,0,0,.07.28l1.72,2a.31.31,0,0,1-.22.51l-2.65.14a.32.32,0,0,0-.25.15l-1.39,2.27a.31.31,0,0,1-.55-.06l-1-2.47a.3.3,0,0,0-.22-.19l-2.58-.63A.31.31,0,0,1,415.29,647.34Z"/><path class="cls-4" d="M379.81,663.75l2.07-1.68a.29.29,0,0,0,.11-.26l-.21-2.65a.31.31,0,0,1,.48-.28l2.23,1.44a.3.3,0,0,0,.29,0l2.45-1a.31.31,0,0,1,.42.37l-.69,2.56a.33.33,0,0,0,.06.29l1.73,2a.31.31,0,0,1-.22.51l-2.65.14a.31.31,0,0,0-.25.14l-1.39,2.27a.31.31,0,0,1-.55,0l-.95-2.48a.3.3,0,0,0-.22-.19l-2.58-.62A.31.31,0,0,1,379.81,663.75Z"/><path class="cls-4" d="M399.06,650.93l2.51-.89a.35.35,0,0,0,.19-.22l.68-2.56a.3.3,0,0,1,.54-.11l1.63,2.1a.32.32,0,0,0,.26.12l2.65-.15a.31.31,0,0,1,.28.48l-1.5,2.2a.28.28,0,0,0,0,.28l1,2.48a.31.31,0,0,1-.38.41l-2.55-.75a.35.35,0,0,0-.28.06L402,656.06a.31.31,0,0,1-.51-.23l-.08-2.66a.3.3,0,0,0-.14-.25L399,651.48A.31.31,0,0,1,399.06,650.93Z"/><ellipse class="cls-1" cx="100.97" cy="726.71" rx="73.92" ry="16.6"/><path class="cls-15" d="M276.27,415.51a3.16,3.16,0,0,0-4.2,1.54l-7.75,16.76H197.57l7.85-17a3.16,3.16,0,1,0-5.73-2.66l-87.94,190.2a3.15,3.15,0,0,0-1,2.12L55.62,725.79a3.15,3.15,0,0,0,1.54,4.2,3.12,3.12,0,0,0,1.32.29,3.16,3.16,0,0,0,2.87-1.83l7.76-16.79h66.75l-8.34,18a3.16,3.16,0,0,0,5.74,2.65L277.81,419.7A3.16,3.16,0,0,0,276.27,415.51ZM261.4,440.13l-12.77,27.62H181.88l12.77-27.62Zm-28.46,61.56H166.19L179,474.07h66.75Zm-15.69,33.94H150.5L163.27,508H230Zm-15.7,34H134.8L147.57,542h66.75Zm-15.69,33.93H119.11l12.77-27.61h66.75Zm-15.69,33.94H103.42l12.77-27.62h66.75Zm-15.7,33.95H87.73l12.77-27.63h66.75ZM72,705.34l12.78-27.62h66.74l-12.77,27.62Z"/><path class="cls-12" d="M121.5,375.89a19.7,19.7,0,0,0-11.12-5.58,27.6,27.6,0,0,0-24.7,8c-6.33,6.72-8.89,17.32-5.68,26a6.25,6.25,0,0,1,.64,3,4.58,4.58,0,0,1-1,2c-3.58,4.6-9.62,6.12-13.91,10A20.17,20.17,0,0,0,59.45,434a25,25,0,0,0,5.18,15.12c2.65,3.48,6.36,7.22,5.31,11.59a9.45,9.45,0,0,1-2.51,4.16c-3.36,3.61-7.77,5.95-11.37,9.3s-6.51,8.41-5.26,13.23c1,3.83,4.34,6.47,7.83,8,6.5,2.79,13.81,2.6,20.85,1.95,9.72-.89,19.54-2.62,28.33-7.17s21.83-12.09,24.85-21.87.5-21.63-7.33-27.6c-2.61-2-6-3.67-6.72-7-.53-2.3-.59-8.72,9.86-18.82,1.94-1.87,3.52-4.52,3.27-7.25-.46-5.14-7.53-7.68-7.4-12.85.06-2,1.31-3.82,1.39-5.83a25.45,25.45,0,0,0-.51-3.68C124.81,381.66,124,378.58,121.5,375.89Z"/><path class="cls-8" d="M185.43,465.8c3.7,1.58,7.78,2.84,11.68,1.9,2.79-.67,5.21-2.4,7.94-3.3,2.64,1.65-2.64,6-5.64,7a4.45,4.45,0,0,1,4,.85c-3,.82-6.12,1.64-9.08.81-2.11-.59-3.92-2-6-2.56-3.26-.89-6.7.24-10.08.31a16.21,16.21,0,0,1-9.83-3.12c-4.59-3.38,1.66-6.41,5-6.32C177.39,461.48,181.8,464.26,185.43,465.8Z"/><path class="cls-16" d="M184.75,464.52c-6.12-2.28-14.4-7.8-28.42-9.94a12.15,12.15,0,0,0-2.7-.09,54.88,54.88,0,0,0-5.57-5.39c-6.76-6.4-13.28-11.22-19.14-17.56-3.82-4.14-8.09-8.52-13.67-9.32-2.82,3.82-2.16,9.1-1.34,13.78.58,3.33,1.19,6.66,1.81,10a5.47,5.47,0,0,0,.91,2.47,8.31,8.31,0,0,0,1.85,1.27c11.83,8.26,16.51,11.12,30.45,14.61h0c2.19,2,5.52,3.07,8.76,4,8.79,2.5,18.13,4.45,27.77,3.92a12.85,12.85,0,0,0,4.46-.85c1.36-.6,2.46-1.75,2.34-2.91C192.19,467.78,187.76,465.65,184.75,464.52Z"/><path class="cls-11" d="M155.09,638.76c1.39-.15,3.18.27,4.56.07,1.7-.25,4.12-1.55,4.43-3-.17-1.07-.52-1.29-1.59-1.09a17.41,17.41,0,0,1-3.42.31,14,14,0,0,1-4.89-.79,6.93,6.93,0,0,1-3.47-2.4c-1-1.39-.88-3.51-2.32-4.37-.81-.49-4.39,1.45-5,1.91.4,2,2.08,3.37,3,5.17s.17,3.64,2.36,5.38C150.87,640.45,152.59,639,155.09,638.76Z"/><path class="cls-11" d="M159.36,635.05c-.58,0-1.25,0-1.94-.11a5.17,5.17,0,0,1-2,1.41,11.67,11.67,0,0,1-8.83-.12c.25,1.34.31,2.64,1.93,3.93,2.25.54,4-.94,6.64-1.22,1.45-.16,3.32.28,4.76.07,1.77-.25,4.29-1.61,4.61-3.14-.18-1.12-.54-1.35-1.66-1.14A18,18,0,0,1,159.36,635.05Z"/><path class="cls-11" d="M145.27,603.8q-3.35-14.58-7.67-28.9c-1.65-5.5-3.73-10.82-5.07-16.57-1.6-6.92-3.37-13.81-5.25-20.66-3.76-13.71-8-27.28-12.26-40.84-.68-2.14-.19-4.21-1.25-8.78-.68-2.9-7.88,2.15-10.72,3.05-5.62,1.77-11.56,1.32-17,3.64-1.61,16.24,4.83,36.92,14.63,50.9,4.63,6.6,12,16.91,17.18,24-2.52,7.21-.52,15.34,2.28,22.54,2,5,16.93,33.41,25,40.5l.9.09a13.62,13.62,0,0,0,4.34-1.48C151.9,625.48,146.22,607.89,145.27,603.8Z"/><path class="cls-14" d="M126.54,434.46c-.8-2.12-2.79-8.15-4.71-9.36-8.18-5.17-35.16-14.92-40.58-1.23-3.18,8-.33,21.85.1,30.35q.75,14.46,2.41,28.86c.14,1.2-2.5,2.29-2.29,3.53,9,4.32,22.34,8.51,30.55,2.6a2.81,2.81,0,0,1,.69-.35,5.74,5.74,0,0,1,1.06-.81c2.47-13.82,10.24-26.45,14.1-40.09C129.16,443.38,128.54,439.74,126.54,434.46Z"/><path class="cls-8" d="M19.94,470.64c-3.36,2.19-7.16,4.15-11.17,3.91-2.86-.18-5.55-1.46-8.39-1.87-1.88,2.56,3.65,5.44,6.78,5.9A4.47,4.47,0,0,0,3.4,480.1c3.07.29,6.31.56,9.09-.78,2-.95,3.51-2.63,5.49-3.57,3.05-1.45,6.64-.94,10-1.46a16.16,16.16,0,0,0,9.13-4.78c3.93-4.14-2.75-6-6-5.35C27.1,465,23.25,468.49,19.94,470.64Z"/><path class="cls-14" d="M86.85,418.21c-5.47,1.32-9.84,6.09-13.25,10.57-5.23,6.87-11.26,12.29-17.4,19.3a57.69,57.69,0,0,0-5,5.83,11.81,11.81,0,0,0-4.57.6C33.2,459.07,26,465.94,20.39,469.26c-2.76,1.63-6.76,4.51-6.71,5.21.08,1.16,1.37,2.1,2.81,2.46A13,13,0,0,0,21,477c9.59-1.16,18.44-4.7,26.66-8.7a31.24,31.24,0,0,0,6.17-3.67h0c13.55-4.79,20.86-9.37,31.85-18.71a8.32,8.32,0,0,0,1.72-1.44,5.33,5.33,0,0,0,.67-2.55q.47-5.06.86-10.11C89.34,427.07,90,421.75,86.85,418.21Z"/><path class="cls-11" d="M9.74,509.37c-1.31.48-3.16.51-4.45,1-1.59.64-3.62,2.49-3.57,4,.42,1,.82,1.13,1.81.68A17.41,17.41,0,0,1,6.77,514a13.78,13.78,0,0,1,4.94-.41,7,7,0,0,1,3.94,1.5c1.25,1.11,1.69,3.2,3.3,3.69.9.27,3.91-2.46,4.44-3.07-.88-1.87-2.83-2.78-4.16-4.3s-1-3.49-3.58-4.66C13.42,506.72,12.1,508.5,9.74,509.37Z"/><path class="cls-11" d="M6.49,514c.56-.14,1.22-.26,1.9-.36A5.19,5.19,0,0,1,10,511.8a11.65,11.65,0,0,1,8.61-2c-.57-1.24-.93-2.49-2.82-3.36-2.31,0-3.69,1.88-6.15,2.78-1.37.5-3.29.53-4.64,1.08-1.66.67-3.77,2.59-3.72,4.15.44,1,.85,1.18,1.88.71A17.65,17.65,0,0,1,6.49,514Z"/><path class="cls-11" d="M93.06,487.69c-4.39-1.14-8.75-5.05-11.2-2.75C69,495,58.44,513.88,55.07,530.62c-.72,3.57-1.6,8.09-2.5,12.76-6.49-7.78-23.51-26.24-31.71-30.52L20,513a13.55,13.55,0,0,0-3.85,2.48c-.09,6,9.65,21.74,11.54,25.49Q34.41,554.3,42,567.17c1.69,2.85,3.47,5.74,6.1,7.76s6.32,3,9.3,1.53,4.31-5,6-7.72c2.18-3.46,4.88-6.6,7.1-10.08,3.15-4.95,6.07-10,9.09-15.07,5-8.37,9.19-17.76,14.81-25.7,3.19-4.52,7.08-8.48,10.55-12.79a54.2,54.2,0,0,0,7.78-13.61c.37-.89,1.58-3,1-3.91-1.57.64-3,1.69-4.58,2.21a13.18,13.18,0,0,1-5.15.54C100.3,490,96.68,488.63,93.06,487.69Z"/><path class="cls-8" d="M128.23,398a.94.94,0,0,0-.19-.55c-.76-1.18-1.51-2.37-2.26-3.55a11.46,11.46,0,0,0-1.27-1.77c-.36-2.12-.82-4.22-1.36-6.33-1.24-4.87-3-9.85-7.51-12.08-4.93-2.43-11.17-1.44-15.57,1.87a21.16,21.16,0,0,0-7.78,14.06c-.8,5.8,4.31,5.16,7.26,9,2.35,3.06,2.46,6.91,1.68,12a12,12,0,0,1-.62,6.1c-.31,1.12-2.19,2.2-2.37,3.35-1,6.73,19.66,11.91,17,3-.87-2.92-2.58-4.75-1.94-8.2,1.21-6.57,5.49-1.84,9.2-3.49,2-.88,2.36-3.5,2.44-5.67.07-1.74.14-3.47.2-5.21,0-.23,0-.45,0-.68a6,6,0,0,0,2.79-1.33A.89.89,0,0,0,128.23,398Z"/><path class="cls-12" d="M106.91,382.71A25,25,0,0,0,121.08,385a10.25,10.25,0,0,0,5-1.79,5.38,5.38,0,0,0,2.21-4.84c-.27-1.88-1.75-3.26-3.23-4.32A24.65,24.65,0,0,0,111,369.26a20.81,20.81,0,0,0-14,5.25A23.73,23.73,0,0,0,90,387a30.69,30.69,0,0,0,.46,14.45c1,3.77,2.55,2.8,4.91.69a36,36,0,0,0,5.12-5.62,37.5,37.5,0,0,0,3.92-6.61C104.69,389.27,107.35,382.92,106.91,382.71Z"/></g></g></svg>