<svg xmlns="http://www.w3.org/2000/svg" xmlns:xlink="http://www.w3.org/1999/xlink" viewBox="0 0 860.81 939.21"><defs><style>.cls-1{fill:#d8d8d8;}.cls-2{fill:#eaf0fe;}.cls-3{fill:#dae2f2;}.cls-4{fill:#ffbd07;}.cls-5{fill:url(#linear-gradient);}.cls-6{fill:#b9ddff;}.cls-7{fill:#ecebe4;}.cls-8{fill:#eef9ff;}.cls-9{fill:#ff83ac;}.cls-10{fill:#ff2363;}.cls-11{fill:#9ecaef;}.cls-12{fill:#ffc190;}.cls-13{fill:#2e3b57;}.cls-14{fill:url(#linear-gradient-2);}.cls-15{fill:url(#linear-gradient-3);}.cls-16{fill:#ffc7ca;}</style><linearGradient id="linear-gradient" x1="223" y1="546.92" x2="675.91" y2="546.92" gradientUnits="userSpaceOnUse"><stop offset="0" stop-color="#fa5"/><stop offset="0.29" stop-color="#fea051"/><stop offset="0.79" stop-color="#fb8646"/><stop offset="1" stop-color="#f97841"/></linearGradient><linearGradient id="linear-gradient-2" x1="767.92" y1="605.9" x2="841.52" y2="605.9" gradientUnits="userSpaceOnUse"><stop offset="0" stop-color="#4042e2"/><stop offset="1" stop-color="#4f52ff"/></linearGradient><linearGradient id="linear-gradient-3" x1="701.97" y1="598.29" x2="841.52" y2="598.29" xlink:href="#linear-gradient-2"/></defs><title>Asset 2</title><g id="Layer_2" data-name="Layer 2"><g id="Layer_1-2" data-name="Layer 1"><rect class="cls-1" x="289.24" width="528.83" height="303.78" rx="23.33"/><rect class="cls-2" x="301.62" y="9.02" width="493.47" height="26.78"/><rect class="cls-2" x="308.7" y="49.21" width="187.5" height="241.71"/><rect class="cls-3" x="324.62" y="205.95" width="146.78" height="70.23"/><rect class="cls-3" x="324.62" y="67.56" width="146.78" height="9.91"/><rect class="cls-3" x="324.62" y="89.88" width="146.78" height="9.93"/><rect class="cls-3" x="324.62" y="116.67" width="146.78" height="9.92"/><rect class="cls-3" x="324.62" y="138.99" width="146.78" height="9.92"/><rect class="cls-2" x="549.25" y="49.21" width="245.85" height="11.9"/><rect class="cls-2" x="549.25" y="71.52" width="245.85" height="11.91"/><rect class="cls-2" x="549.25" y="98.3" width="245.85" height="11.93"/><rect class="cls-2" x="549.25" y="126.59" width="245.85" height="157.33"/><rect class="cls-3" x="570.47" y="143.95" width="208.69" height="70.79"/><rect class="cls-3" x="308.7" y="15.72" width="267.96" height="12.65"/><rect class="cls-3" x="679.23" y="15.72" width="106.13" height="12.65"/><polygon class="cls-4" points="109.37 469.45 98.54 466.44 184.14 158.75 300.97 263.25 393.99 133.31 503.48 164.43 718.06 74.99 722.39 85.37 504.18 176.32 398.54 146.29 302.82 279.99 190.13 179.19 109.37 469.45"/><path class="cls-1" d="M162.3,386.83a163.32,163.32,0,1,0,83.37,315.83c87.2-23,139.28-112.41,116.23-199.6A163.32,163.32,0,0,0,162.3,386.83Zm63.62,241a85.9,85.9,0,1,1,61.13-105A85.95,85.95,0,0,1,225.92,627.78Z"/><path class="cls-1" d="M208.67,413.82l-71.16,18.8s-27.19-53.54-18.21-68.94c9.25-15.92,56.33-29.69,71.17-18.8C204.85,355.42,208.67,413.82,208.67,413.82Z"/><path class="cls-1" d="M266.44,659.66l-71.17,18.8s2.79,60,18.2,69c15.9,9.25,63.64-2,71.18-18.82C291.93,712.35,266.44,659.66,266.44,659.66Z"/><path class="cls-1" d="M109.33,449.77l-28.65,67.8s-59-11.26-65.7-27.79c-6.92-17,11-62.71,28.68-67.78C60.79,417.08,109.33,449.77,109.33,449.77Z"/><path class="cls-1" d="M78.35,549.77l6.92,73.3s-57.25,18.07-71,6.7C.08,618-5.82,569.35,7.35,556.48,20.11,544,78.35,549.77,78.35,549.77Z"/><path class="cls-1" d="M335.5,552.71l-15.87-71.88s54.61-25,69.61-15.4c15.52,9.9,27.36,57.52,15.89,71.91C394,551.25,335.5,552.71,335.5,552.71Z"/><path class="cls-1" d="M237.4,413.58l58.42,44.8s45.73-38.89,43.4-56.58c-2.4-18.26-40.52-49.13-58.38-44.81C263.5,361.17,237.4,413.58,237.4,413.58Z"/><path class="cls-1" d="M159.48,682.6,101.1,637.8s-45.77,38.89-43.43,56.57c2.41,18.23,40.52,49.13,58.41,44.8C133.43,735,159.48,682.6,159.48,682.6Z"/><path class="cls-1" d="M302.08,647.31l28.66-67.78s59,11.23,65.69,27.77c6.93,17.05-11,62.72-28.68,67.8C350.6,680,302.08,647.31,302.08,647.31Z"/><path class="cls-3" d="M164.75,105.63A86.22,86.22,0,1,0,270.11,167,86.23,86.23,0,0,0,164.75,105.63Zm33.59,127.19a45.34,45.34,0,1,1,32.26-55.4A45.37,45.37,0,0,1,198.34,232.82Z"/><path class="cls-3" d="M189.23,119.89l-37.55,9.92s-14.37-28.26-9.62-36.39c4.87-8.41,29.73-15.67,37.55-9.93C187.21,89.05,189.23,119.89,189.23,119.89Z"/><path class="cls-3" d="M219.73,249.66l-37.57,9.92s1.46,31.66,9.6,36.41c8.4,4.89,33.6-1.06,37.58-9.93C233.18,277.48,219.73,249.66,219.73,249.66Z"/><path class="cls-3" d="M136.79,138.86l-15.13,35.78S90.53,168.7,87,160c-3.64-9,5.8-33.1,15.15-35.78C111.17,121.61,136.79,138.86,136.79,138.86Z"/><path class="cls-3" d="M120.44,191.65l3.65,38.69s-30.22,9.54-37.48,3.54C79.12,227.69,76,202,83,195.19,89.7,188.62,120.44,191.65,120.44,191.65Z"/><path class="cls-3" d="M256.17,193.2l-8.37-37.95s28.83-13.18,36.75-8.12c8.2,5.22,14.45,30.36,8.39,38C287.06,192.43,256.17,193.2,256.17,193.2Z"/><path class="cls-3" d="M204.39,119.75l30.83,23.66s24.16-20.54,22.93-29.87c-1.28-9.64-21.39-25.94-30.83-23.66C218.18,92.09,204.39,119.75,204.39,119.75Z"/><path class="cls-3" d="M163.27,261.77l-30.82-23.66S108.28,258.65,109.51,268c1.29,9.63,21.39,25.93,30.84,23.65C149.5,289.43,163.27,261.77,163.27,261.77Z"/><path class="cls-3" d="M238.55,243.14l15.12-35.79s31.15,5.94,34.67,14.67c3.66,9-5.8,33.11-15.13,35.79C264.16,260.42,238.55,243.14,238.55,243.14Z"/><path class="cls-5" d="M675.91,902.55a34.27,34.27,0,0,1-34.1,34.37l-382.39,1.13a34.26,34.26,0,0,1-34.3-34.16L223,191.24a34.23,34.23,0,0,1,34.17-34.32l382.38-1.13a34.22,34.22,0,0,1,34.29,34.14Z"/><polygon class="cls-6" points="638.63 826.37 259.11 827.44 257.33 205.44 636.78 204.29 638.63 826.37"/><path class="cls-7" d="M482.55,878.89a32.09,32.09,0,1,1-32.2-32A32.14,32.14,0,0,1,482.55,878.89Z"/><rect class="cls-8" x="305.48" y="296.2" width="287.98" height="182.84"/><rect class="cls-9" x="331.76" y="327.73" width="15.41" height="119.62"/><rect class="cls-10" x="350.4" y="359.32" width="16.99" height="88.03"/><rect class="cls-9" x="372.22" y="345.78" width="15.41" height="101.57"/><rect class="cls-10" x="390.87" y="387.54" width="16.98" height="59.81"/><rect class="cls-9" x="412.42" y="327.73" width="15.42" height="119.62"/><rect class="cls-10" x="431.08" y="359.32" width="16.98" height="88.03"/><rect class="cls-9" x="452.87" y="345.78" width="15.42" height="101.57"/><rect class="cls-10" x="471.54" y="387.54" width="16.98" height="59.81"/><rect class="cls-9" x="493.1" y="327.73" width="15.39" height="119.62"/><rect class="cls-10" x="511.76" y="359.32" width="16.94" height="88.03"/><rect class="cls-9" x="533.55" y="345.78" width="15.41" height="101.57"/><rect class="cls-10" x="552.22" y="387.54" width="16.95" height="59.81"/><rect class="cls-8" x="82.12" y="497.68" width="511.34" height="230.02"/><rect class="cls-9" x="115.09" y="557.79" width="36.68" height="141.3"/><rect class="cls-10" x="159.51" y="595.12" width="40.4" height="103.98"/><rect class="cls-9" x="211.41" y="579.13" width="36.69" height="119.97"/><rect class="cls-10" x="255.85" y="628.44" width="40.39" height="70.65"/><path class="cls-10" d="M361.86,623l27.75-17.88L407.09,614l28.56,26.51,25-17.57,9,5.17,12.41,7.09,17,5.31s22.32,4.45,27.67,5.32l11.63,23,27.68-3.55V699.1H361.86Z"/><polygon class="cls-9" points="361.54 677.78 389.61 660.81 402.04 673.35 412.87 677.78 441.03 669.3 454.41 677.78 474.06 685.75 499.07 690.18 527.64 690.18 543.91 690.18 566.05 699.1 361.86 699.1 361.54 677.78"/><path class="cls-11" d="M120.84,521.11h1v6.3h3.47v.77h-4.5Z"/><path class="cls-11" d="M131.08,525.65a2.47,2.47,0,0,1-2.62,2.61,2.42,2.42,0,0,1-2.56-2.51,2.5,2.5,0,0,1,2.63-2.61A2.4,2.4,0,0,1,131.08,525.65Zm-4.4.08a1.86,1.86,0,0,0,1.83,2,2,2,0,1,0-1.83-2Z"/><path class="cls-11" d="M132,523.29a8.58,8.58,0,0,1,1.43-.1,2.45,2.45,0,0,1,1.62.4,1.13,1.13,0,0,1,.45.94,1.31,1.31,0,0,1-1.05,1.26v0a1.32,1.32,0,0,1,.82,1,7.84,7.84,0,0,0,.44,1.36H135a5.61,5.61,0,0,1-.38-1.19,1.07,1.07,0,0,0-1.15-1h-.69v2.14H132Zm.74,2.26h.75c.8,0,1.28-.37,1.28-.93s-.52-.93-1.31-.94a3.52,3.52,0,0,0-.72.06Z"/><path class="cls-11" d="M139.53,525.85H137.3v1.79h2.47v.54h-3.21v-5h3.08v.54H137.3v1.57h2.23Z"/><path class="cls-11" d="M145.49,526c0-.7-.08-1.52-.07-2.15h0c-.17.58-.41,1.2-.69,1.89l-1,2.4h-.55l-.91-2.36a12.89,12.89,0,0,1-.65-1.93h0c0,.63-.05,1.45-.1,2.2l-.15,2.12h-.71l.41-5h.92l1,2.41a15.07,15.07,0,0,1,.57,1.67h0a15.23,15.23,0,0,1,.61-1.67l1-2.41H146l.38,5h-.73Z"/><path class="cls-11" d="M150.77,523.22v5H150v-5Z"/><path class="cls-11" d="M152.05,523.28a8.56,8.56,0,0,1,1.41-.09,2.54,2.54,0,0,1,1.59.41,1.25,1.25,0,0,1,.52,1,1.43,1.43,0,0,1-.45,1.07,2.62,2.62,0,0,1-1.74.54,2.13,2.13,0,0,1-.59,0v2h-.74Zm.74,2.39a2.13,2.13,0,0,0,.6.05c.89,0,1.42-.37,1.42-1.05s-.53-1-1.32-1a4.77,4.77,0,0,0-.7,0Z"/><path class="cls-11" d="M156.42,527.4a3,3,0,0,0,1.33.32c.76,0,1.18-.34,1.18-.83s-.28-.74-1.07-1-1.5-.71-1.5-1.41.74-1.35,1.85-1.35a2.85,2.85,0,0,1,1.26.25l-.21.52a2.37,2.37,0,0,0-1.08-.23c-.76,0-1.08.4-1.08.74s.36.69,1.14,1c1,.33,1.45.73,1.45,1.46s-.64,1.42-2,1.42a3.07,3.07,0,0,1-1.46-.32Z"/><path class="cls-11" d="M161.42,523.22v2.94c0,1.11.57,1.58,1.32,1.58s1.39-.49,1.39-1.58v-2.94h.74v2.89a1.94,1.94,0,0,1-2.14,2.15,1.87,1.87,0,0,1-2.06-2.12v-2.92Z"/><path class="cls-11" d="M170.93,526c0-.7-.11-1.52-.1-2.15h0c-.18.58-.44,1.2-.7,1.89l-1,2.4h-.56l-.91-2.36a18,18,0,0,1-.67-1.93h0c0,.63-.06,1.45-.11,2.2l-.16,2.12H166l.39-5h.94l1,2.41c.23.61.43,1.14.58,1.67h0a15,15,0,0,1,.6-1.67l1-2.41h.95l.35,5h-.72Z"/><path class="cls-11" d="M175.47,523.29a10.31,10.31,0,0,1,1.56-.1,3.72,3.72,0,0,1,2.32.61,2.2,2.2,0,0,1,.78,1.78,2.48,2.48,0,0,1-.82,1.94,3.8,3.8,0,0,1-2.51.71,12.14,12.14,0,0,1-1.33-.07Zm.72,4.39a5.17,5.17,0,0,0,.76,0c1.56,0,2.41-.77,2.41-2.12,0-1.17-.75-1.9-2.29-1.9a5.91,5.91,0,0,0-.88.06Z"/><path class="cls-11" d="M185.93,525.65a2.47,2.47,0,0,1-2.64,2.61,2.43,2.43,0,0,1-2.56-2.51,2.52,2.52,0,0,1,2.66-2.61A2.4,2.4,0,0,1,185.93,525.65Zm-4.4.08a1.83,1.83,0,1,0,1.82-2.06A1.85,1.85,0,0,0,181.53,525.73Z"/><path class="cls-11" d="M186.88,523.22h.74v4.42h2.43v.54h-3.17Z"/><path class="cls-11" d="M195.38,525.65a2.48,2.48,0,0,1-2.63,2.61,2.41,2.41,0,0,1-2.56-2.51,2.51,2.51,0,0,1,2.65-2.61A2.4,2.4,0,0,1,195.38,525.65Zm-4.4.08a1.82,1.82,0,1,0,1.82-2.06A1.85,1.85,0,0,0,191,525.73Z"/><path class="cls-11" d="M196.33,523.29a8.25,8.25,0,0,1,1.41-.1,2.49,2.49,0,0,1,1.65.4,1.15,1.15,0,0,1,.44.94,1.29,1.29,0,0,1-1.07,1.26v0a1.26,1.26,0,0,1,.83,1,7,7,0,0,0,.44,1.36h-.76a7.18,7.18,0,0,1-.38-1.19c-.17-.68-.45-.93-1.13-1h-.7v2.14h-.73Zm.73,2.26h.76c.79,0,1.29-.37,1.29-.93s-.54-.93-1.32-.94a3.56,3.56,0,0,0-.73.06Z"/><path class="cls-11" d="M203.3,527.4a3,3,0,0,0,1.33.32c.75,0,1.19-.34,1.19-.83s-.29-.74-1.07-1-1.49-.71-1.49-1.41.71-1.35,1.82-1.35a2.87,2.87,0,0,1,1.27.25l-.21.52a2.34,2.34,0,0,0-1.08-.23c-.76,0-1.06.4-1.06.74s.35.69,1.13,1c1,.33,1.45.73,1.45,1.46s-.66,1.42-2,1.42a3,3,0,0,1-1.44-.32Z"/><path class="cls-11" d="M208.31,523.22v5h-.73v-5Z"/><path class="cls-11" d="M210.66,523.77h-1.72v-.55h4.19v.55h-1.72v4.41h-.75Z"/><path class="cls-11" d="M217.23,526.63l-.57,1.55h-.76l1.92-5h.89l1.94,5h-.77l-.62-1.55Zm1.87-.51-.56-1.43c-.12-.32-.2-.61-.28-.9h0c-.09.3-.17.59-.28.9l-.57,1.43Z"/><path class="cls-11" d="M226.24,526c-.06-.7-.09-1.52-.09-2.15h0c-.2.58-.42,1.2-.73,1.89l-1,2.4h-.56l-.92-2.36a19.71,19.71,0,0,1-.64-1.93h0c0,.63-.06,1.45-.12,2.2l-.14,2.12h-.72l.41-5h.93l1,2.41a15.25,15.25,0,0,1,.58,1.67h0c.16-.51.36-1.06.61-1.67l1-2.41h.93l.34,5h-.69Z"/><path class="cls-11" d="M231.16,525.85H229v1.79h2.46v.54h-3.19v-5h3.07v.54H229v1.57h2.21Z"/><path class="cls-11" d="M233.56,523.77h-1.71v-.55h4.21v.55h-1.75v4.41h-.75Z"/><path class="cls-11" d="M236.24,529.47A14.51,14.51,0,0,0,237,527l1.19-.1a12.84,12.84,0,0,1-1.17,2.55Z"/><path class="cls-11" d="M245.69,528a4.14,4.14,0,0,1-1.48.23c-1.61,0-2.81-.88-2.81-2.5a2.67,2.67,0,0,1,3-2.61,3.63,3.63,0,0,1,1.35.22l-.19.53a3,3,0,0,0-1.15-.21,2,2,0,0,0-2.21,2,1.93,1.93,0,0,0,2.18,2,3.5,3.5,0,0,0,1.2-.2Z"/><path class="cls-11" d="M251.29,525.65a2.47,2.47,0,0,1-2.63,2.61,2.42,2.42,0,0,1-2.56-2.51,2.51,2.51,0,0,1,2.63-2.61A2.4,2.4,0,0,1,251.29,525.65Zm-4.41.08a1.83,1.83,0,1,0,1.83-2.06A1.85,1.85,0,0,0,246.88,525.73Z"/><path class="cls-11" d="M252.24,528.18v-5h.8l1.81,2.51a13.6,13.6,0,0,1,1.05,1.61h0a18.57,18.57,0,0,1-.09-2v-2.08h.7v5h-.75L254,525.66a13.22,13.22,0,0,1-1.05-1.64h0c0,.62,0,1.22,0,2.05v2.11Z"/><path class="cls-11" d="M257.69,527.4a2.84,2.84,0,0,0,1.31.32c.76,0,1.19-.34,1.19-.83s-.3-.74-1.06-1c-.94-.3-1.52-.71-1.52-1.41s.74-1.35,1.84-1.35a2.9,2.9,0,0,1,1.27.25l-.21.52a2.35,2.35,0,0,0-1.09-.23c-.77,0-1.07.4-1.07.74s.35.69,1.14,1c1,.33,1.45.73,1.45,1.46s-.64,1.42-2,1.42a3.2,3.2,0,0,1-1.47-.32Z"/><path class="cls-11" d="M264.89,525.85h-2.22v1.79h2.46v.54h-3.19v-5H265v.54h-2.34v1.57h2.22Z"/><path class="cls-11" d="M270.05,528a4.2,4.2,0,0,1-1.49.23c-1.61,0-2.81-.88-2.81-2.5a2.66,2.66,0,0,1,2.95-2.61,3.4,3.4,0,0,1,1.35.22l-.17.53a2.88,2.88,0,0,0-1.13-.21,2,2,0,0,0-2.22,2,1.93,1.93,0,0,0,2.16,2,3.39,3.39,0,0,0,1.21-.2Z"/><path class="cls-11" d="M272.29,523.77h-1.73v-.55h4.21v.55H273v4.41h-.73Z"/><path class="cls-11" d="M278.36,525.85h-2.22v1.79h2.45v.54H275.4v-5h3.08v.54h-2.34v1.57h2.22Z"/><path class="cls-11" d="M280.76,523.77H279v-.55h4.19v.55h-1.73v4.41h-.73Z"/><path class="cls-11" d="M284.59,523.22v2.94c0,1.11.58,1.58,1.34,1.58s1.37-.49,1.37-1.58v-2.94h.75v2.89a2,2,0,0,1-2.16,2.15,1.88,1.88,0,0,1-2.05-2.12v-2.92Z"/><path class="cls-11" d="M289.31,523.29a8.33,8.33,0,0,1,1.41-.1,2.47,2.47,0,0,1,1.64.4,1.17,1.17,0,0,1,.46.94,1.32,1.32,0,0,1-1.07,1.26v0a1.23,1.23,0,0,1,.82,1,9.27,9.27,0,0,0,.43,1.36h-.74a6.85,6.85,0,0,1-.39-1.19,1,1,0,0,0-1.13-1H290v2.14h-.73Zm.73,2.26h.75c.79,0,1.29-.37,1.29-.93s-.53-.93-1.31-.94a3.48,3.48,0,0,0-.73.06Z"/><path class="cls-11" d="M297.33,526.63l-.61,1.55H296l1.94-5h.87l2,5H300l-.62-1.55Zm1.85-.51-.55-1.43a6.22,6.22,0,0,1-.29-.9h0c-.09.3-.17.59-.28.9l-.56,1.43Z"/><path class="cls-11" d="M301.55,523.29a10.54,10.54,0,0,1,1.57-.1,3.56,3.56,0,0,1,2.29.61,2.16,2.16,0,0,1,.8,1.78,2.5,2.5,0,0,1-.8,1.94,3.93,3.93,0,0,1-2.54.71,12.38,12.38,0,0,1-1.32-.07Zm.73,4.39a5.28,5.28,0,0,0,.75,0c1.58,0,2.43-.77,2.43-2.12,0-1.17-.76-1.9-2.31-1.9a5.75,5.75,0,0,0-.87.06Z"/><path class="cls-11" d="M307.88,523.22v5h-.71v-5Z"/><path class="cls-11" d="M309.17,523.28a8.78,8.78,0,0,1,1.42-.09,2.5,2.5,0,0,1,1.59.41,1.23,1.23,0,0,1,.49,1,1.38,1.38,0,0,1-.43,1.07,2.57,2.57,0,0,1-1.74.54,2.09,2.09,0,0,1-.58,0v2h-.75Zm.75,2.39a2.13,2.13,0,0,0,.6.05c.89,0,1.43-.37,1.43-1.05s-.54-1-1.35-1a4.76,4.76,0,0,0-.68,0Z"/><path class="cls-11" d="M314.41,523.22v5h-.75v-5Z"/><path class="cls-11" d="M315.57,527.4a2.81,2.81,0,0,0,1.31.32c.77,0,1.2-.34,1.2-.83s-.3-.74-1.08-1-1.49-.71-1.49-1.41.72-1.35,1.82-1.35a2.79,2.79,0,0,1,1.26.25l-.18.52a2.53,2.53,0,0,0-1.09-.23c-.78,0-1.07.4-1.07.74s.34.69,1.12,1c1,.33,1.48.73,1.48,1.46s-.66,1.42-2,1.42a3.1,3.1,0,0,1-1.44-.32Z"/><path class="cls-11" d="M323.8,528a4.31,4.31,0,0,1-1.52.23,2.49,2.49,0,0,1-2.79-2.5,2.67,2.67,0,0,1,3-2.61,3.51,3.51,0,0,1,1.34.22l-.17.53a3,3,0,0,0-1.15-.21,2,2,0,0,0-2.22,2,1.94,1.94,0,0,0,2.2,2,3.59,3.59,0,0,0,1.2-.2Z"/><path class="cls-11" d="M325.45,523.22v5h-.73v-5Z"/><path class="cls-11" d="M326.72,528.18v-5h.79l1.84,2.51a16,16,0,0,1,1,1.61h0a16.39,16.39,0,0,1-.09-2v-2.08H331v5h-.74l-1.79-2.52a13.58,13.58,0,0,1-1.08-1.64h0c0,.62.06,1.22.06,2.05v2.11Z"/><path class="cls-11" d="M336.6,528a6,6,0,0,1-1.75.28,3.18,3.18,0,0,1-2.12-.66,2.39,2.39,0,0,1-.8-1.85c0-1.48,1.17-2.56,3.08-2.56a3.88,3.88,0,0,1,1.42.23l-.19.52a3.21,3.21,0,0,0-1.25-.21c-1.38,0-2.29.75-2.29,2a2,2,0,0,0,2.19,2,2.75,2.75,0,0,0,1-.14V526.1h-1.15v-.52h1.87Z"/><path class="cls-11" d="M343.21,525.85H341v1.79h2.45v.54h-3.19v-5h3.08v.54H341v1.57h2.21Z"/><path class="cls-11" d="M344.42,523.22h.72v4.42h2.43v.54h-3.15Z"/><path class="cls-11" d="M349.13,523.22v5h-.74v-5Z"/><path class="cls-11" d="M351.48,523.77h-1.73v-.55H354v.55h-1.74v4.41h-.74Z"/><path class="cls-11" d="M354.15,529.47a14.53,14.53,0,0,0,.71-2.51l1.19-.1a13.48,13.48,0,0,1-1.16,2.55Z"/><path class="cls-11" d="M359.53,527.4a2.81,2.81,0,0,0,1.31.32c.75,0,1.18-.34,1.18-.83s-.29-.74-1-1c-.93-.3-1.51-.71-1.51-1.41s.73-1.35,1.84-1.35a2.7,2.7,0,0,1,1.25.25l-.19.52a2.44,2.44,0,0,0-1.08-.23c-.79,0-1.08.4-1.08.74s.35.69,1.12,1c1,.33,1.47.73,1.47,1.46s-.67,1.42-2,1.42a3,3,0,0,1-1.45-.32Z"/><path class="cls-11" d="M366.72,525.85h-2.2v1.79H367v.54h-3.2v-5h3.07v.54h-2.33v1.57h2.2Z"/><path class="cls-11" d="M367.93,523.29a10.17,10.17,0,0,1,1.55-.1,3.61,3.61,0,0,1,2.31.61,2.16,2.16,0,0,1,.8,1.78,2.46,2.46,0,0,1-.83,1.94,3.8,3.8,0,0,1-2.5.71,11.86,11.86,0,0,1-1.33-.07Zm.73,4.39a5.38,5.38,0,0,0,.75,0c1.56,0,2.41-.77,2.41-2.12,0-1.17-.75-1.9-2.29-1.9a5.75,5.75,0,0,0-.87.06Z"/><path class="cls-11" d="M376.09,523.29a10.13,10.13,0,0,1,1.56-.1,3.58,3.58,0,0,1,2.3.61,2.16,2.16,0,0,1,.8,1.78,2.47,2.47,0,0,1-.81,1.94,3.87,3.87,0,0,1-2.51.71,12.49,12.49,0,0,1-1.34-.07Zm.74,4.39a4.9,4.9,0,0,0,.73,0c1.58,0,2.43-.77,2.43-2.12,0-1.17-.74-1.9-2.31-1.9a5.66,5.66,0,0,0-.85.06Z"/><path class="cls-11" d="M386.55,525.65a2.48,2.48,0,0,1-2.64,2.61,2.41,2.41,0,0,1-2.54-2.51,2.51,2.51,0,0,1,2.63-2.61A2.39,2.39,0,0,1,386.55,525.65Zm-4.41.08a1.83,1.83,0,1,0,1.83-2.06A1.86,1.86,0,0,0,382.14,525.73Z"/><path class="cls-11" d="M393,525.85h-2.21v1.79h2.46v.54h-3.18v-5h3.07v.54h-2.35v1.57H393Z"/><path class="cls-11" d="M394.93,523.22v5h-.72v-5Z"/><path class="cls-11" d="M397,523.22v2.94c0,1.11.57,1.58,1.32,1.58s1.38-.49,1.38-1.58v-2.94h.75v2.89a2,2,0,0,1-2.16,2.15,1.86,1.86,0,0,1-2-2.12v-2.92Z"/><path class="cls-11" d="M401.58,527.4a2.77,2.77,0,0,0,1.3.32c.75,0,1.19-.34,1.19-.83s-.31-.74-1.06-1c-.95-.3-1.51-.71-1.51-1.41s.74-1.35,1.84-1.35a2.89,2.89,0,0,1,1.26.25l-.21.52a2.5,2.5,0,0,0-1.09-.23c-.77,0-1.05.4-1.05.74s.34.69,1.12,1c.95.33,1.46.73,1.46,1.46s-.66,1.42-2,1.42a3.22,3.22,0,0,1-1.46-.32Z"/><path class="cls-11" d="M410.62,526c-.06-.7-.1-1.52-.1-2.15h0c-.2.58-.43,1.2-.72,1.89l-1,2.4h-.55l-.92-2.36c-.27-.7-.5-1.34-.67-1.93h0c0,.63-.09,1.45-.13,2.2l-.13,2.12h-.71l.4-5H407l1,2.41a15.25,15.25,0,0,1,.58,1.67h0a15,15,0,0,1,.6-1.67l1-2.41h.93l.36,5h-.71Z"/><path class="cls-11" d="M417.46,525.65a2.48,2.48,0,0,1-2.66,2.61,2.42,2.42,0,0,1-2.55-2.51,2.51,2.51,0,0,1,2.65-2.61A2.41,2.41,0,0,1,417.46,525.65Zm-4.41.08a1.85,1.85,0,0,0,1.81,2,1.87,1.87,0,0,0,1.82-2.06,1.83,1.83,0,1,0-3.63.05Z"/><path class="cls-11" d="M418.4,523.29a10.08,10.08,0,0,1,1.55-.1,3.65,3.65,0,0,1,2.31.61,2.15,2.15,0,0,1,.79,1.78,2.47,2.47,0,0,1-.81,1.94,3.85,3.85,0,0,1-2.51.71,12.43,12.43,0,0,1-1.33-.07Zm.73,4.39a5.13,5.13,0,0,0,.74,0c1.58,0,2.41-.77,2.41-2.12,0-1.17-.75-1.9-2.29-1.9a5.6,5.6,0,0,0-.86.06Z"/><path class="cls-11" d="M427.64,523.77h-1.73v-.55h4.21v.55h-1.73v4.41h-.75Z"/><path class="cls-11" d="M433.69,525.85h-2.21v1.79h2.45v.54h-3.18v-5h3.06v.54h-2.33v1.57h2.21Z"/><path class="cls-11" d="M439.67,526c0-.7-.07-1.52-.07-2.15h0c-.18.58-.43,1.2-.71,1.89l-1,2.4h-.56l-.91-2.36a17.76,17.76,0,0,1-.66-1.93h0c0,.63-.05,1.45-.1,2.2l-.16,2.12h-.69l.39-5h.95l1,2.41c.24.61.42,1.14.58,1.67h0a13.07,13.07,0,0,1,.59-1.67l1-2.41h.94l.35,5h-.73Z"/><path class="cls-11" d="M441.68,523.28a8.34,8.34,0,0,1,1.4-.09,2.56,2.56,0,0,1,1.59.41,1.26,1.26,0,0,1,.5,1,1.33,1.33,0,0,1-.45,1.07,2.54,2.54,0,0,1-1.74.54,2,2,0,0,1-.57,0v2h-.73Zm.73,2.39a2,2,0,0,0,.58.05c.9,0,1.45-.37,1.45-1.05s-.54-1-1.34-1a4.6,4.6,0,0,0-.69,0Z"/><path class="cls-11" d="M451,525.65a2.48,2.48,0,0,1-2.63,2.61,2.41,2.41,0,0,1-2.57-2.51,2.51,2.51,0,0,1,2.64-2.61A2.42,2.42,0,0,1,451,525.65Zm-4.42.08a1.83,1.83,0,1,0,1.81-2.06A1.85,1.85,0,0,0,446.59,525.73Z"/><path class="cls-11" d="M452,523.29a8.17,8.17,0,0,1,1.41-.1,2.5,2.5,0,0,1,1.63.4,1.16,1.16,0,0,1,.45.94,1.3,1.3,0,0,1-1.07,1.26v0a1.26,1.26,0,0,1,.83,1,6.8,6.8,0,0,0,.45,1.36h-.77a4.88,4.88,0,0,1-.36-1.19,1.07,1.07,0,0,0-1.16-1h-.67v2.14H452Zm.74,2.26h.74c.78,0,1.28-.37,1.28-.93s-.53-.93-1.31-.94a3.25,3.25,0,0,0-.71.06Z"/><path class="cls-11" d="M459.77,523.22v5H459v-5Z"/><path class="cls-11" d="M461.07,528.18v-5h.79l1.8,2.51a14.79,14.79,0,0,1,1,1.61h0c0-.66-.07-1.27-.07-2v-2.08h.69v5h-.75l-1.8-2.52a12.15,12.15,0,0,1-1-1.64h0c0,.62,0,1.22,0,2.05v2.11Z"/><path class="cls-11" d="M470.56,528a4.27,4.27,0,0,1-1.5.23c-1.6,0-2.81-.88-2.81-2.5a2.67,2.67,0,0,1,3-2.61,3.74,3.74,0,0,1,1.36.22l-.19.53a2.88,2.88,0,0,0-1.15-.21,2,2,0,0,0-2.22,2,2,2,0,0,0,2.2,2,3.31,3.31,0,0,0,1.19-.2Z"/><path class="cls-11" d="M472.2,523.22v5h-.72v-5Z"/><path class="cls-11" d="M473.5,523.29a10.12,10.12,0,0,1,1.54-.1,3.68,3.68,0,0,1,2.32.61,2.16,2.16,0,0,1,.8,1.78,2.51,2.51,0,0,1-.81,1.94,3.9,3.9,0,0,1-2.53.71,11.8,11.8,0,0,1-1.32-.07Zm.73,4.39a5.13,5.13,0,0,0,.74,0c1.58,0,2.41-.77,2.41-2.12,0-1.17-.75-1.9-2.3-1.9a5.45,5.45,0,0,0-.85.06Z"/><path class="cls-11" d="M479.83,523.22v5h-.74v-5Z"/><path class="cls-11" d="M481.12,523.29a10.17,10.17,0,0,1,1.55-.1,3.7,3.7,0,0,1,2.32.61,2.15,2.15,0,0,1,.79,1.78,2.5,2.5,0,0,1-.8,1.94,4,4,0,0,1-2.54.71,11.94,11.94,0,0,1-1.32-.07Zm.74,4.39a5,5,0,0,0,.74,0c1.56,0,2.4-.77,2.4-2.12,0-1.17-.75-1.9-2.29-1.9a5.34,5.34,0,0,0-.85.06Z"/><path class="cls-11" d="M487.46,523.22v2.94c0,1.11.56,1.58,1.33,1.58s1.37-.49,1.37-1.58v-2.94h.76v2.89a2,2,0,0,1-2.16,2.15,1.86,1.86,0,0,1-2-2.12v-2.92Z"/><path class="cls-11" d="M492.19,528.18v-5H493l1.82,2.51a13.08,13.08,0,0,1,1,1.61h0c0-.66-.07-1.27-.07-2v-2.08h.69v5h-.74l-1.8-2.52a13.46,13.46,0,0,1-1.07-1.64h0c0,.62.06,1.22.06,2.05v2.11Z"/><path class="cls-11" d="M498.8,523.77h-1.73v-.55h4.21v.55h-1.72v4.41h-.76Z"/><path class="cls-11" d="M505.19,523.22v2.94c0,1.11.58,1.58,1.33,1.58s1.37-.49,1.37-1.58v-2.94h.75v2.89a1.94,1.94,0,0,1-2.14,2.15,1.87,1.87,0,0,1-2.05-2.12v-2.92Z"/><path class="cls-11" d="M511,523.77h-1.73v-.55h4.2v.55h-1.72v4.41H511Z"/><path class="cls-11" d="M516.65,523.22h.74v4.42h2.41v.54h-3.15Z"/><path class="cls-11" d="M521.55,526.63l-.59,1.55h-.78l2-5H523l2,5h-.8l-.6-1.55Zm1.86-.51-.55-1.43a7.9,7.9,0,0,1-.3-.9h0c-.1.3-.21.59-.29.9l-.56,1.43Z"/><path class="cls-11" d="M525.77,523.29a7.39,7.39,0,0,1,1.37-.1,2.54,2.54,0,0,1,1.55.36,1,1,0,0,1,.48.87,1.22,1.22,0,0,1-1,1.09h0a1.36,1.36,0,0,1,1.18,1.25,1.24,1.24,0,0,1-.48,1,3.15,3.15,0,0,1-2,.47,7.83,7.83,0,0,1-1.15-.07Zm.74,2h.68c.76,0,1.23-.36,1.23-.83s-.51-.81-1.27-.81a3.67,3.67,0,0,0-.64.05Zm0,2.38a5.46,5.46,0,0,0,.63,0c.75,0,1.46-.24,1.46-1s-.67-1-1.46-1h-.63Z"/><path class="cls-11" d="M535.21,525.65a2.48,2.48,0,0,1-2.65,2.61,2.43,2.43,0,0,1-2.57-2.51,2.53,2.53,0,0,1,2.67-2.61A2.4,2.4,0,0,1,535.21,525.65Zm-4.42.08a1.84,1.84,0,1,0,1.83-2.06A1.85,1.85,0,0,0,530.79,525.73Z"/><path class="cls-11" d="M536.15,523.29a8.53,8.53,0,0,1,1.4-.1,2.52,2.52,0,0,1,1.66.4,1.19,1.19,0,0,1,.46.94,1.34,1.34,0,0,1-1.09,1.26v0a1.31,1.31,0,0,1,.85,1,4.64,4.64,0,0,0,.44,1.36h-.77a5.61,5.61,0,0,1-.38-1.19c-.19-.68-.47-.93-1.13-1h-.71v2.14h-.73Zm.73,2.26h.77c.77,0,1.27-.37,1.27-.93s-.52-.93-1.3-.94a3.52,3.52,0,0,0-.74.06Z"/><path class="cls-11" d="M543.63,525.85h-2.22v1.79h2.47v.54h-3.19v-5h3v.54h-2.33v1.57h2.22Z"/><path class="cls-11" d="M550.33,525.85h-2.21v1.79h2.46v.54h-3.19v-5h3.07v.54h-2.34v1.57h2.21Z"/><path class="cls-11" d="M552.74,523.77H551v-.55h4.22v.55h-1.74v4.41h-.75Z"/><path class="cls-11" d="M105.67,535.89a11.22,11.22,0,0,1,1.54-.11,3.62,3.62,0,0,1,2.31.62,2.14,2.14,0,0,1,.79,1.79,2.44,2.44,0,0,1-.8,1.91,3.76,3.76,0,0,1-2.51.72c-.52,0-1,0-1.33-.05Zm.72,4.39c.19,0,.45,0,.75,0,1.57,0,2.41-.75,2.41-2.09,0-1.18-.74-1.92-2.29-1.92a3.65,3.65,0,0,0-.87.08Z"/><path class="cls-11" d="M116.13,538.25a2.47,2.47,0,0,1-2.64,2.61,2.41,2.41,0,0,1-2.55-2.52,2.51,2.51,0,0,1,2.64-2.6A2.41,2.41,0,0,1,116.13,538.25Zm-4.4.08a1.83,1.83,0,0,0,1.8,2,2.06,2.06,0,1,0-1.8-2Z"/><path class="cls-11" d="M117.07,535.83h.73v4.42h2.43v.53h-3.16Z"/><path class="cls-11" d="M125.59,538.25a2.47,2.47,0,0,1-2.65,2.61,2.4,2.4,0,0,1-2.54-2.52,2.51,2.51,0,0,1,2.63-2.6A2.41,2.41,0,0,1,125.59,538.25Zm-4.42.08a1.84,1.84,0,0,0,1.81,2,2.05,2.05,0,1,0-1.81-2Z"/><path class="cls-11" d="M126.52,535.89a9.76,9.76,0,0,1,1.42-.11,2.62,2.62,0,0,1,1.65.41,1.22,1.22,0,0,1,.45.94A1.35,1.35,0,0,1,129,538.4v0a1.24,1.24,0,0,1,.83,1,6.86,6.86,0,0,0,.45,1.36h-.77a6.1,6.1,0,0,1-.38-1.18,1,1,0,0,0-1.13-1h-.69v2.15h-.75Zm.75,2.25H128c.78,0,1.28-.37,1.28-.94s-.53-.91-1.3-.93a3.07,3.07,0,0,0-.73.07Z"/><path class="cls-11" d="M134,538.45H131.8v1.8h2.47v.53h-3.2v-4.95h3.07v.54H131.8v1.56H134Z"/><path class="cls-11" d="M142.54,538.61c0-.69-.08-1.53-.08-2.15h0c-.2.59-.44,1.21-.71,1.88l-1,2.42h-.57l-.92-2.37c-.25-.71-.48-1.33-.64-1.93h0c-.05.62-.09,1.46-.12,2.19l-.16,2.13h-.69l.38-4.95H139l1,2.39c.24.62.43,1.15.58,1.67h0a17.24,17.24,0,0,1,.59-1.67l1-2.39H143l.38,4.95h-.71Z"/><path class="cls-11" d="M145.35,539.22l-.57,1.56H144l1.93-4.95h.91l1.94,4.95H148l-.61-1.56Zm1.89-.49-.57-1.44c-.13-.32-.2-.61-.29-.9h0l-.27.9-.56,1.44Z"/><path class="cls-11" d="M153.8,540.57a6.49,6.49,0,0,1-1.73.26,3.17,3.17,0,0,1-2.13-.65,2.41,2.41,0,0,1-.8-1.85c0-1.48,1.18-2.56,3.08-2.56a3.83,3.83,0,0,1,1.4.23l-.16.52a3.21,3.21,0,0,0-1.25-.21c-1.39,0-2.29.75-2.29,2a2,2,0,0,0,2.19,2,3,3,0,0,0,1-.12v-1.49h-1.18v-.5h1.88Z"/><path class="cls-11" d="M154.92,540.78v-4.95h.81l1.81,2.5a13.59,13.59,0,0,1,1,1.62h0a18.88,18.88,0,0,1-.08-2.05v-2.06h.69v4.95h-.74l-1.82-2.52a13.51,13.51,0,0,1-1.06-1.66h0c0,.63,0,1.23,0,2v2.12Z"/><path class="cls-11" d="M161.38,539.22l-.58,1.56h-.75l1.93-4.95h.86l1.95,4.95H164l-.59-1.56Zm1.88-.49-.56-1.44a7.9,7.9,0,0,1-.3-.9h0c-.1.29-.19.6-.29.9l-.56,1.44Z"/><path class="cls-11" d="M169.09,539.22l-.59,1.56h-.75l1.92-4.95h.89l1.94,4.95h-.78l-.61-1.56Zm1.85-.49-.53-1.44a5.19,5.19,0,0,1-.29-.9h0a8.63,8.63,0,0,1-.3.9l-.55,1.44Z"/><path class="cls-11" d="M173.33,535.83h.72v4.42h2.45v.53h-3.17Z"/><path class="cls-11" d="M178,535.83v4.95h-.74v-4.95Z"/><path class="cls-11" d="M184,541.51c-.78-.18-1.53-.38-2.2-.58a1.21,1.21,0,0,0-.34-.07,2.43,2.43,0,0,1-2.52-2.51,2.52,2.52,0,0,1,2.67-2.61,2.41,2.41,0,0,1,2.55,2.51,2.29,2.29,0,0,1-1.61,2.37v0c.55.13,1.17.25,1.64.33Zm-.62-3.23a1.85,1.85,0,0,0-1.8-2,1.87,1.87,0,0,0-1.84,2.08,1.84,1.84,0,0,0,1.81,2A1.87,1.87,0,0,0,183.4,538.28Z"/><path class="cls-11" d="M185.86,535.83v2.93c0,1.11.57,1.58,1.31,1.58s1.4-.49,1.4-1.58v-2.93h.74v2.88a2,2,0,0,1-2.16,2.15,1.85,1.85,0,0,1-2-2.12v-2.91Z"/><path class="cls-11" d="M191.2,539.22l-.58,1.56h-.76l1.92-4.95h.89l1.93,4.95h-.76l-.61-1.56Zm1.88-.49-.57-1.44c-.12-.32-.21-.61-.29-.9h0l-.3.9-.58,1.44Z"/><path class="cls-11" d="M195.42,540.24a.69.69,0,0,1,.73-.67.67.67,0,0,1,.72.67.66.66,0,0,1-.72.66A.67.67,0,0,1,195.42,540.24Z"/><path class="cls-11" d="M201.81,533.7v4.19c0,1.59.8,2.26,1.88,2.26s2-.69,2-2.26V533.7h1.06v4.12a2.78,2.78,0,0,1-3.06,3.08c-1.66,0-2.92-.83-2.92-3V533.7Z"/><path class="cls-11" d="M209.36,536.37h-1.74v-.54h4.22v.54h-1.73v4.41h-.75Z"/><path class="cls-11" d="M218,538.45h-2.21v1.8h2.46v.53H215v-4.95h3.08v.54h-2.34v1.56H218Z"/><path class="cls-11" d="M219.17,540.78v-4.95h.8l1.8,2.5a9.82,9.82,0,0,1,1,1.62h0c-.05-.67-.06-1.27-.06-2.05v-2.06h.68v4.95h-.75l-1.8-2.52a13.63,13.63,0,0,1-1.07-1.66h0c0,.63.06,1.23.06,2v2.12Z"/><path class="cls-11" d="M225.43,535.83v4.95h-.73v-4.95Z"/><path class="cls-11" d="M231.51,538.61c0-.69-.1-1.53-.09-2.15h0c-.2.59-.44,1.21-.72,1.88l-1,2.42h-.52l-.92-2.37a15.84,15.84,0,0,1-.66-1.93h0c0,.62-.05,1.46-.1,2.19l-.16,2.13h-.7l.4-4.95h.95l1,2.39a14.82,14.82,0,0,1,.59,1.67h0a15.41,15.41,0,0,1,.61-1.67l1-2.39h1l.34,4.95h-.72Z"/><path class="cls-11" d="M237,539.22l-.6,1.56h-.76l1.93-4.95h.88l2,4.95h-.8l-.61-1.56Zm1.86-.49-.55-1.44c-.12-.32-.23-.61-.31-.9h0a8.63,8.63,0,0,1-.3.9l-.55,1.44Z"/><path class="cls-11" d="M241.19,535.89a11.91,11.91,0,0,1,1.56-.11,3.52,3.52,0,0,1,2.29.62,2.14,2.14,0,0,1,.82,1.79,2.42,2.42,0,0,1-.82,1.91,3.72,3.72,0,0,1-2.51.72c-.52,0-1,0-1.34-.05Zm.75,4.39c.17,0,.46,0,.73,0,1.57,0,2.42-.75,2.42-2.09,0-1.18-.74-1.92-2.3-1.92a3.57,3.57,0,0,0-.85.08Z"/><path class="cls-11" d="M254.16,538.61c0-.69-.1-1.53-.09-2.15h0c-.21.59-.44,1.21-.72,1.88l-1,2.42h-.54l-.93-2.37c-.26-.71-.49-1.33-.66-1.93h0c0,.62,0,1.46-.1,2.19l-.15,2.13h-.69l.38-4.95h1l.95,2.39a14.62,14.62,0,0,1,.58,1.67h0c.14-.49.34-1,.58-1.67l1-2.39h.94l.36,4.95h-.73Z"/><path class="cls-11" d="M256.86,535.83v4.95h-.72v-4.95Z"/><path class="cls-11" d="M258.15,540.78v-4.95h.8l1.82,2.5a12,12,0,0,1,1,1.62h0a18.76,18.76,0,0,1-.09-2.05v-2.06h.69v4.95h-.73l-1.82-2.52a14.68,14.68,0,0,1-1.05-1.66h0c.05.63.07,1.23.07,2v2.12Z"/><path class="cls-11" d="M264.42,535.83v4.95h-.74v-4.95Z"/><path class="cls-11" d="M270.48,538.61c0-.69-.09-1.53-.07-2.15h0c-.19.59-.42,1.21-.71,1.88l-1,2.42h-.57l-.92-2.37a20,20,0,0,1-.65-1.93h0c0,.62-.05,1.46-.1,2.19l-.17,2.13h-.68l.4-4.95h.92l1,2.39c.23.62.43,1.15.57,1.67h0a17.24,17.24,0,0,1,.59-1.67l1-2.39H271l.36,4.95h-.73Z"/><path class="cls-11" d="M276.27,540.78l-1.84-4.95h.79l.89,2.43c.23.67.45,1.28.6,1.85h0c.15-.56.4-1.19.63-1.84l1-2.44h.8l-2,4.95Z"/><path class="cls-11" d="M282.65,538.45h-2.19v1.8h2.47v.53h-3.21v-4.95h3.08v.54h-2.34v1.56h2.19Z"/><path class="cls-11" d="M283.87,540.78v-4.95h.8l1.84,2.5a18.37,18.37,0,0,1,1,1.62h0a16.46,16.46,0,0,1-.1-2.05v-2.06h.69v4.95h-.74l-1.8-2.52a18.52,18.52,0,0,1-1.07-1.66h0c0,.63.08,1.23.08,2v2.12Z"/><path class="cls-11" d="M290.14,535.83v4.95h-.72v-4.95Z"/><path class="cls-11" d="M292.36,539.22l-.6,1.56H291l1.93-4.95h.87l1.95,4.95H295l-.62-1.56Zm1.85-.49-.55-1.44a7.76,7.76,0,0,1-.29-.9h0c-.09.29-.19.6-.3.9l-.56,1.44Z"/><path class="cls-11" d="M301.33,538.61c0-.69-.08-1.53-.07-2.15h0c-.19.59-.43,1.21-.72,1.88l-1,2.42h-.56l-.91-2.37c-.26-.71-.48-1.33-.65-1.93h0c0,.62-.06,1.46-.09,2.19l-.15,2.13h-.71l.4-4.95h.93l1,2.39a16.86,16.86,0,0,1,.58,1.67h0a11.75,11.75,0,0,1,.59-1.67l1-2.39h.92l.35,4.95h-.71Z"/><path class="cls-11" d="M302.86,542.07a12.57,12.57,0,0,0,.74-2.52l1.17-.09a11,11,0,0,1-1.14,2.55Z"/><path class="cls-11" d="M313.06,541.51c-.77-.18-1.53-.38-2.18-.58a1.55,1.55,0,0,0-.35-.07,2.42,2.42,0,0,1-2.49-2.51,2.5,2.5,0,0,1,2.64-2.61,2.4,2.4,0,0,1,2.54,2.51,2.3,2.3,0,0,1-1.61,2.37v0c.57.13,1.16.25,1.67.33Zm-.62-3.23a1.82,1.82,0,1,0-1.83,2.06A1.84,1.84,0,0,0,312.44,538.28Z"/><path class="cls-11" d="M314.91,535.83v2.93c0,1.11.55,1.58,1.32,1.58s1.37-.49,1.37-1.58v-2.93h.75v2.88a1.94,1.94,0,0,1-2.14,2.15,1.86,1.86,0,0,1-2-2.12v-2.91Z"/><path class="cls-11" d="M320.35,535.83v4.95h-.72v-4.95Z"/><path class="cls-11" d="M321.54,540a2.84,2.84,0,0,0,1.31.32c.75,0,1.19-.34,1.19-.84s-.31-.73-1.06-1c-.94-.28-1.52-.7-1.52-1.4s.75-1.35,1.83-1.35a3,3,0,0,1,1.27.24l-.2.53a2.47,2.47,0,0,0-1.09-.25c-.77,0-1,.42-1,.75s.33.7,1.13,1,1.45.73,1.45,1.45-.65,1.44-2,1.44a3.27,3.27,0,0,1-1.45-.33Z"/><path class="cls-11" d="M328.34,540.78v-4.95h.81l1.82,2.5a12.17,12.17,0,0,1,1,1.62h0a19,19,0,0,1-.07-2.05v-2.06h.67v4.95h-.73l-1.81-2.52A13.39,13.39,0,0,1,329,536.6h0c0,.63.07,1.23.07,2v2.12Z"/><path class="cls-11" d="M338.75,538.25a2.48,2.48,0,0,1-2.65,2.61,2.43,2.43,0,0,1-2.56-2.52,2.52,2.52,0,0,1,2.64-2.6A2.41,2.41,0,0,1,338.75,538.25Zm-4.41.08a1.84,1.84,0,0,0,1.82,2,2.05,2.05,0,1,0-1.82-2Z"/><path class="cls-11" d="M339.59,540a2.81,2.81,0,0,0,1.31.32c.76,0,1.21-.34,1.21-.84s-.32-.73-1.09-1c-.93-.28-1.49-.7-1.49-1.4s.72-1.35,1.82-1.35a3,3,0,0,1,1.26.24l-.19.53a2.5,2.5,0,0,0-1.08-.25c-.78,0-1.08.42-1.08.75s.34.7,1.14,1c1,.32,1.45.73,1.45,1.45s-.64,1.44-2,1.44a3.16,3.16,0,0,1-1.44-.33Z"/><path class="cls-11" d="M344.93,536.37h-1.74v-.54h4.21v.54h-1.73v4.41h-.74Z"/><path class="cls-11" d="M348,535.89a9.65,9.65,0,0,1,1.42-.11,2.51,2.51,0,0,1,1.64.41,1.16,1.16,0,0,1,.45.94,1.36,1.36,0,0,1-1.07,1.27v0a1.27,1.27,0,0,1,.84,1,8.47,8.47,0,0,0,.42,1.36H351a11.92,11.92,0,0,1-.38-1.18c-.18-.7-.47-1-1.12-1h-.72v2.15H348Zm.73,2.25h.75c.8,0,1.29-.37,1.29-.94s-.52-.91-1.3-.93a3.48,3.48,0,0,0-.74.07Z"/><path class="cls-11" d="M353.29,535.83v2.93c0,1.11.57,1.58,1.33,1.58s1.4-.49,1.4-1.58v-2.93h.71v2.88a1.93,1.93,0,0,1-2.13,2.15,1.86,1.86,0,0,1-2-2.12v-2.91Z"/><path class="cls-11" d="M358,535.89a11.14,11.14,0,0,1,1.55-.11,3.66,3.66,0,0,1,2.31.62,2.14,2.14,0,0,1,.79,1.79,2.39,2.39,0,0,1-.82,1.91,3.75,3.75,0,0,1-2.52.72c-.52,0-.95,0-1.31-.05Zm.72,4.39c.19,0,.45,0,.75,0,1.56,0,2.4-.75,2.4-2.09,0-1.18-.73-1.92-2.29-1.92a3.55,3.55,0,0,0-.86.08Z"/><path class="cls-11" d="M369.12,538.45h-2.2v1.8h2.45v.53h-3.19v-4.95h3.08v.54h-2.34v1.56h2.2Z"/><path class="cls-11" d="M373.43,540.78l-.72-1.1c-.31-.41-.48-.69-.66-1h0c-.16.28-.31.55-.6,1l-.7,1.09h-.84l1.73-2.51L370,535.83h.85l.76,1.16c.18.32.35.57.51.82h0a7.29,7.29,0,0,1,.52-.82l.78-1.16h.84l-1.75,2.4,1.77,2.55Z"/><path class="cls-11" d="M378.07,538.45h-2.21v1.8h2.46v.53h-3.17v-4.95h3v.54h-2.33v1.56h2.21Z"/><path class="cls-11" d="M379.28,535.89a9.39,9.39,0,0,1,1.41-.11,2.53,2.53,0,0,1,1.64.41,1.16,1.16,0,0,1,.45.94,1.35,1.35,0,0,1-1.08,1.27v0a1.3,1.3,0,0,1,.85,1,6.58,6.58,0,0,0,.43,1.36h-.77a5.64,5.64,0,0,1-.37-1.18c-.17-.7-.47-1-1.14-1H380v2.15h-.73Zm.73,2.25h.75c.79,0,1.29-.37,1.29-.94s-.54-.91-1.31-.93a3.29,3.29,0,0,0-.73.07Z"/><path class="cls-11" d="M387.8,540.62a4.2,4.2,0,0,1-1.49.24,2.5,2.5,0,0,1-2.8-2.52,2.65,2.65,0,0,1,2.95-2.6,3.26,3.26,0,0,1,1.35.22l-.17.52a3.13,3.13,0,0,0-1.14-.21,2,2,0,0,0-2.22,2.06,1.92,1.92,0,0,0,2.17,2,3,3,0,0,0,1.2-.22Z"/><path class="cls-11" d="M389.46,535.83v4.95h-.74v-4.95Z"/><path class="cls-11" d="M391.81,536.37h-1.72v-.54h4.21v.54h-1.75v4.41h-.74Z"/><path class="cls-11" d="M395.21,539.22l-.59,1.56h-.78l2-4.95h.89l1.93,4.95h-.78l-.6-1.56Zm1.87-.49-.57-1.44a7.76,7.76,0,0,1-.29-.9h0c-.09.29-.18.6-.3.9l-.53,1.44Z"/><path class="cls-11" d="M399.89,536.37h-1.74v-.54h4.23v.54h-1.76v4.41h-.73Z"/><path class="cls-11" d="M403.71,535.83v4.95H403v-4.95Z"/><path class="cls-11" d="M409.86,538.25a2.48,2.48,0,0,1-2.65,2.61,2.42,2.42,0,0,1-2.55-2.52,2.5,2.5,0,0,1,2.65-2.6A2.41,2.41,0,0,1,409.86,538.25Zm-4.4.08a1.82,1.82,0,1,0,1.81-2.07A1.84,1.84,0,0,0,405.46,538.33Z"/><path class="cls-11" d="M410.8,540.78v-4.95h.81l1.83,2.5a13.14,13.14,0,0,1,1,1.62h0a18.76,18.76,0,0,1-.09-2.05v-2.06h.7v4.95h-.75l-1.81-2.52a18.52,18.52,0,0,1-1.07-1.66h0c.06.63.07,1.23.07,2v2.12Z"/><path class="cls-11" d="M419.64,535.83v2.93c0,1.11.57,1.58,1.31,1.58s1.4-.49,1.4-1.58v-2.93h.73v2.88a1.94,1.94,0,0,1-2.14,2.15,1.88,1.88,0,0,1-2.05-2.12v-2.91Z"/><path class="cls-11" d="M424.35,535.83h.73v4.42h2.43v.53h-3.16Z"/><path class="cls-11" d="M428.33,535.83h.74v4.42h2.42v.53h-3.16Z"/><path class="cls-11" d="M433.22,539.22l-.59,1.56h-.75l1.91-4.95h.9l1.94,4.95h-.78l-.62-1.56Zm1.87-.49-.56-1.44a7.9,7.9,0,0,1-.3-.9h0c-.09.29-.17.6-.29.9l-.55,1.44Z"/><path class="cls-11" d="M442.22,538.61c0-.69-.1-1.53-.09-2.15h0c-.2.59-.43,1.21-.71,1.88l-1,2.42h-.54l-.93-2.37c-.27-.71-.49-1.33-.66-1.93h0c0,.62-.05,1.46-.11,2.19l-.15,2.13h-.69l.38-4.95h.93l1,2.39a14.42,14.42,0,0,1,.57,1.67h0a17.24,17.24,0,0,1,.59-1.67l1-2.39h.92l.36,4.95h-.72Z"/><path class="cls-11" d="M448.16,540.62a4.15,4.15,0,0,1-1.49.24,2.49,2.49,0,0,1-2.79-2.52,2.65,2.65,0,0,1,3-2.6,3.28,3.28,0,0,1,1.34.22l-.18.52a3.15,3.15,0,0,0-1.15-.21,2,2,0,0,0-2.2,2.06,1.93,1.93,0,0,0,2.19,2,2.94,2.94,0,0,0,1.17-.22Z"/><path class="cls-11" d="M453.76,538.25a2.47,2.47,0,0,1-2.64,2.61,2.42,2.42,0,0,1-2.55-2.52,2.52,2.52,0,0,1,2.64-2.6A2.4,2.4,0,0,1,453.76,538.25Zm-4.42.08a1.83,1.83,0,1,0,1.83-2.07A1.86,1.86,0,0,0,449.34,538.33Z"/><path class="cls-11" d="M457.28,535.83H458v4.42h2.43v.53h-3.15Z"/><path class="cls-11" d="M462.15,539.22l-.59,1.56h-.75l1.94-4.95h.89l1.93,4.95h-.78l-.61-1.56Zm1.88-.49-.56-1.44a6.22,6.22,0,0,1-.29-.9h0a8.41,8.41,0,0,1-.28.9l-.55,1.44Z"/><path class="cls-11" d="M466.39,535.89a8.19,8.19,0,0,1,1.36-.11,2.66,2.66,0,0,1,1.56.37,1,1,0,0,1,.45.88,1.22,1.22,0,0,1-.94,1.09h0a1.35,1.35,0,0,1,1.17,1.23,1.27,1.27,0,0,1-.49,1,3,3,0,0,1-1.95.46c-.53,0-.91,0-1.16-.05Zm.75,2h.65c.78,0,1.23-.36,1.23-.83s-.52-.82-1.23-.82a3.61,3.61,0,0,0-.65.05Zm0,2.37a3.35,3.35,0,0,0,.62,0c.73,0,1.46-.24,1.46-1s-.68-1-1.47-1h-.61Z"/><path class="cls-11" d="M475.82,538.25a2.46,2.46,0,0,1-2.63,2.61,2.41,2.41,0,0,1-2.56-2.52,2.5,2.5,0,0,1,2.63-2.6A2.41,2.41,0,0,1,475.82,538.25Zm-4.42.08a1.83,1.83,0,1,0,1.84-2.07A1.85,1.85,0,0,0,471.4,538.33Z"/><path class="cls-11" d="M476.75,535.89a10,10,0,0,1,1.43-.11,2.58,2.58,0,0,1,1.64.41,1.18,1.18,0,0,1,.44.94,1.32,1.32,0,0,1-1.07,1.27v0a1.3,1.3,0,0,1,.85,1,5.4,5.4,0,0,0,.44,1.36h-.77a7.63,7.63,0,0,1-.39-1.18,1,1,0,0,0-1.14-1h-.68v2.15h-.75Zm.75,2.25h.76c.78,0,1.27-.37,1.27-.94s-.53-.91-1.29-.93a3.32,3.32,0,0,0-.74.07Z"/><path class="cls-11" d="M482,535.83v4.95h-.75v-4.95Z"/><path class="cls-11" d="M483.22,540a2.81,2.81,0,0,0,1.31.32c.75,0,1.2-.34,1.2-.84s-.32-.73-1.08-1c-.92-.28-1.49-.7-1.49-1.4s.71-1.35,1.83-1.35a2.9,2.9,0,0,1,1.25.24l-.22.53a2.31,2.31,0,0,0-1.06-.25c-.77,0-1.06.42-1.06.75s.33.7,1.11,1c1,.32,1.46.73,1.46,1.45s-.67,1.44-2,1.44a3.27,3.27,0,0,1-1.45-.33Z"/><path class="cls-11" d="M490,540.78v-4.95h.79l1.83,2.5a12.17,12.17,0,0,1,1,1.62h0a16.46,16.46,0,0,1-.1-2.05v-2.06h.7v4.95h-.75l-1.82-2.52c-.37-.55-.75-1.12-1.05-1.66h0c0,.63.07,1.23.07,2v2.12Z"/><path class="cls-11" d="M496.28,535.83v4.95h-.7v-4.95Z"/><path class="cls-11" d="M497.47,540a3,3,0,0,0,1.32.32c.74,0,1.19-.34,1.19-.84s-.3-.73-1.07-1c-.94-.28-1.51-.7-1.51-1.4s.75-1.35,1.84-1.35a2.92,2.92,0,0,1,1.26.24l-.2.53a2.46,2.46,0,0,0-1.08-.25c-.78,0-1.07.42-1.07.75s.34.7,1.13,1c1,.32,1.45.73,1.45,1.45s-.65,1.44-2,1.44a3.21,3.21,0,0,1-1.46-.33Z"/><path class="cls-11" d="M502.47,535.83v4.95h-.73v-4.95Z"/><path class="cls-11" d="M507,535.83v2.93c0,1.11.59,1.58,1.33,1.58s1.37-.49,1.37-1.58v-2.93h.74v2.88a1.93,1.93,0,0,1-2.13,2.15,1.87,1.87,0,0,1-2-2.12v-2.91Z"/><path class="cls-11" d="M512.82,536.37H511.1v-.54h4.21v.54h-1.74v4.41h-.75Z"/><path class="cls-11" d="M519.39,539.22l-.58,1.56H518l2-4.95h.87l1.95,4.95H522l-.6-1.56Zm1.88-.49-.57-1.44c-.12-.32-.19-.61-.29-.9h0c-.11.29-.19.6-.29.9l-.56,1.44Z"/><path class="cls-11" d="M523.64,535.83h.75v4.42h2.41v.53h-3.16Z"/><path class="cls-11" d="M528.33,535.83v4.95h-.71v-4.95Z"/><path class="cls-11" d="M534.32,541.51c-.77-.18-1.52-.38-2.18-.58a1.28,1.28,0,0,0-.35-.07,2.41,2.41,0,0,1-2.5-2.51,2.51,2.51,0,0,1,2.64-2.61,2.41,2.41,0,0,1,2.55,2.51,2.28,2.28,0,0,1-1.61,2.37v0c.56.13,1.19.25,1.65.33Zm-.59-3.23a1.84,1.84,0,1,0-3.65.06,1.84,1.84,0,0,0,1.81,2A1.86,1.86,0,0,0,533.73,538.28Z"/><path class="cls-11" d="M536.19,535.83v2.93c0,1.11.55,1.58,1.3,1.58s1.39-.49,1.39-1.58v-2.93h.75v2.88a2,2,0,0,1-2.16,2.15,1.86,1.86,0,0,1-2-2.12v-2.91Z"/><path class="cls-11" d="M541.62,535.83v4.95h-.74v-4.95Z"/><path class="cls-11" d="M542.91,535.88a9.51,9.51,0,0,1,1.39-.1,2.77,2.77,0,0,1,1.61.41,1.35,1.35,0,0,1,.49,1,1.33,1.33,0,0,1-.43,1.06,2.63,2.63,0,0,1-1.74.55,2.83,2.83,0,0,1-.6,0v2h-.72Zm.72,2.39a2.58,2.58,0,0,0,.6.06c.89,0,1.44-.38,1.44-1.07s-.55-1-1.34-1a4.83,4.83,0,0,0-.7.05Z"/><path class="cls-11" d="M552.87,538.45h-2.21v1.8h2.47v.53h-3.19v-4.95H553v.54h-2.34v1.56h2.21Z"/><path class="cls-11" d="M557.19,540.78l-.74-1.1c-.28-.41-.47-.69-.63-1h0c-.15.28-.33.55-.6,1l-.69,1.09h-.85l1.74-2.51-1.68-2.44h.87l.74,1.16c.2.32.38.57.52.82h0a7.47,7.47,0,0,1,.53-.82l.76-1.16H558l-1.73,2.4,1.78,2.55Z"/><path class="cls-11" d="M564.38,538.45h-2.2v1.8h2.46v.53h-3.19v-4.95h3.07v.54h-2.34v1.56h2.2Z"/><path class="cls-11" d="M566.51,539.22l-.59,1.56h-.77l1.94-4.95H568l1.91,4.95h-.77l-.62-1.56Zm1.86-.49-.55-1.44a5.27,5.27,0,0,1-.3-.9h0a5.4,5.4,0,0,1-.27.9l-.56,1.44Z"/><path class="cls-11" d="M297,553.22a4.28,4.28,0,0,1-1.51.24A2.49,2.49,0,0,1,292.7,551a2.67,2.67,0,0,1,3-2.61,3.36,3.36,0,0,1,1.34.22l-.18.52a2.91,2.91,0,0,0-1.14-.2,2,2,0,0,0-2.22,2,1.94,1.94,0,0,0,2.2,2,3.31,3.31,0,0,0,1.17-.21Z"/><path class="cls-11" d="M302.59,550.85a2.49,2.49,0,0,1-2.64,2.61,2.42,2.42,0,0,1-2.56-2.51,2.52,2.52,0,0,1,2.64-2.61A2.39,2.39,0,0,1,302.59,550.85Zm-4.4.08a1.82,1.82,0,1,0,1.81-2.07A1.85,1.85,0,0,0,298.19,550.93Z"/><path class="cls-11" d="M308.34,551.2c0-.69-.09-1.52-.09-2.14h0c-.18.58-.43,1.2-.71,1.89l-1,2.4H306L305,551a15.56,15.56,0,0,1-.65-1.92h0c0,.62-.07,1.45-.11,2.19l-.15,2.13h-.69l.38-5h.94l1,2.41c.23.61.43,1.15.58,1.66h0a13.84,13.84,0,0,1,.6-1.66l1-2.41h.93l.35,5h-.7Z"/><path class="cls-11" d="M315.1,551.2c-.05-.69-.08-1.52-.08-2.14h0c-.18.58-.42,1.2-.7,1.89l-1,2.4h-.56l-.93-2.37c-.26-.69-.47-1.34-.64-1.92h0c0,.62,0,1.45-.1,2.19l-.14,2.13h-.7l.39-5h.95l1,2.41c.23.61.41,1.15.56,1.66h0a14.07,14.07,0,0,1,.61-1.66l1-2.41h.93l.35,5h-.73Z"/><path class="cls-11" d="M321.94,550.85a2.47,2.47,0,0,1-2.63,2.61,2.41,2.41,0,0,1-2.55-2.51,2.5,2.5,0,0,1,2.62-2.61A2.4,2.4,0,0,1,321.94,550.85Zm-4.4.08a1.84,1.84,0,1,0,1.83-2.07A1.86,1.86,0,0,0,317.54,550.93Z"/><path class="cls-11" d="M322.89,548.49a10.58,10.58,0,0,1,1.56-.1,3.68,3.68,0,0,1,2.32.61,2.16,2.16,0,0,1,.8,1.78,2.47,2.47,0,0,1-.83,1.93,3.76,3.76,0,0,1-2.51.71c-.53,0-1,0-1.34-.06Zm.74,4.38a4,4,0,0,0,.74,0c1.59,0,2.42-.77,2.42-2.11,0-1.17-.75-1.91-2.3-1.91a4.38,4.38,0,0,0-.86.07Z"/><path class="cls-11" d="M333.37,550.85a2.49,2.49,0,0,1-2.65,2.61,2.41,2.41,0,0,1-2.55-2.51,2.5,2.5,0,0,1,2.64-2.61A2.4,2.4,0,0,1,333.37,550.85Zm-4.43.08a1.84,1.84,0,1,0,1.82-2.07A1.86,1.86,0,0,0,328.94,550.93Z"/><path class="cls-11" d="M340.83,553.22a4.22,4.22,0,0,1-1.5.24,2.51,2.51,0,0,1-2.81-2.51,2.67,2.67,0,0,1,3-2.61,3.51,3.51,0,0,1,1.37.22l-.19.52a2.93,2.93,0,0,0-1.13-.2,2,2,0,0,0-2.22,2,1.93,1.93,0,0,0,2.16,2,3.46,3.46,0,0,0,1.21-.21Z"/><path class="cls-11" d="M346.41,550.85a2.47,2.47,0,0,1-2.61,2.61,2.41,2.41,0,0,1-2.57-2.51,2.51,2.51,0,0,1,2.64-2.61A2.38,2.38,0,0,1,346.41,550.85Zm-4.4.08a1.84,1.84,0,1,0,1.83-2.07A1.88,1.88,0,0,0,342,550.93Z"/><path class="cls-11" d="M347.38,553.38v-5h.8l1.83,2.52a18.91,18.91,0,0,1,1,1.61h0a16.73,16.73,0,0,1-.09-2v-2.08h.69v5h-.72l-1.81-2.52a14.85,14.85,0,0,1-1.07-1.65h0c0,.62.05,1.21.05,2v2.12Z"/><path class="cls-11" d="M352.81,552.6a3.08,3.08,0,0,0,1.34.32c.74,0,1.16-.34,1.16-.84s-.29-.73-1-1c-.95-.29-1.54-.71-1.54-1.4s.76-1.35,1.86-1.35a3,3,0,0,1,1.26.24l-.22.53a2.34,2.34,0,0,0-1.06-.24c-.78,0-1.08.4-1.08.75s.34.69,1.13,1c1,.32,1.46.73,1.46,1.46s-.66,1.43-2,1.43a3.38,3.38,0,0,1-1.45-.32Z"/><path class="cls-11" d="M360,551.06h-2.21v1.79h2.45v.53h-3.19v-5h3.08V549h-2.34v1.56H360Z"/><path class="cls-11" d="M365.91,554.1c-.77-.17-1.52-.36-2.18-.56a1.05,1.05,0,0,0-.34-.08,2.44,2.44,0,0,1-2.51-2.51,2.51,2.51,0,0,1,2.66-2.61,2.39,2.39,0,0,1,2.53,2.51,2.31,2.31,0,0,1-1.61,2.38v0c.55.12,1.19.24,1.66.32Zm-.6-3.21a1.84,1.84,0,1,0-3.65.05,1.84,1.84,0,0,0,1.81,2A1.87,1.87,0,0,0,365.31,550.89Z"/><path class="cls-11" d="M367.76,548.41v3c0,1.1.56,1.58,1.33,1.58s1.37-.49,1.37-1.58v-3h.75v2.9a2,2,0,0,1-2.15,2.15,1.86,1.86,0,0,1-2-2.12v-2.93Z"/><path class="cls-11" d="M373.12,551.82l-.62,1.56h-.74l1.92-5h.89l1.94,5h-.78l-.61-1.56Zm1.85-.51-.54-1.42a4.82,4.82,0,0,1-.3-.91h0a9.49,9.49,0,0,1-.29.91l-.54,1.42Z"/><path class="cls-11" d="M377.77,549H376v-.55h4.22V549h-1.74v4.42h-.75Z"/><path class="cls-11" d="M380.87,552.83a.72.72,0,0,1,1.43,0,.72.72,0,0,1-1.43,0Z"/><polygon class="cls-4" points="690.15 131.49 681.03 124.91 708.79 86.42 655.88 89.21 655.29 77.98 731.66 73.95 690.15 131.49"/><path class="cls-3" d="M751.43,914.61c0,13.61-6.5,24.6-14.49,24.6h0c-8,0-14.46-11-14.46-24.6V341.1c0-13.6,6.47-24.6,14.46-24.6h0c8,0,14.49,11,14.49,24.6Z"/><path class="cls-3" d="M860.81,914.61c0,13.61-6.5,24.6-14.5,24.6h0c-8,0-14.47-11-14.47-24.6V341.1c0-13.6,6.49-24.6,14.47-24.6h0c8,0,14.5,11,14.5,24.6Z"/><path class="cls-3" d="M846.31,368.3c0,4-8.81,7.22-19.67,7.22h-70c-10.86,0-19.68-3.24-19.68-7.22h0c0-4,8.82-7.22,19.68-7.22h70c10.86,0,19.67,3.25,19.67,7.22Z"/><path class="cls-3" d="M846.31,418.06c0,4-8.81,7.22-19.67,7.22h-70c-10.86,0-19.68-3.23-19.68-7.22h0c0-4,8.82-7.21,19.68-7.21h70c10.86,0,19.67,3.23,19.67,7.21Z"/><path class="cls-3" d="M846.31,476.12c0,4-8.81,7.23-19.67,7.23h-70c-10.86,0-19.68-3.24-19.68-7.23h0c0-4,8.82-7.2,19.68-7.2h70c10.86,0,19.67,3.23,19.67,7.2Z"/><path class="cls-3" d="M846.31,525.9c0,4-8.81,7.21-19.67,7.21h-70c-10.86,0-19.68-3.24-19.68-7.21h0c0-4,8.82-7.23,19.68-7.23h70c10.86,0,19.67,3.23,19.67,7.23Z"/><path class="cls-3" d="M846.31,579.8c0,4-8.81,7.22-19.67,7.22h-70c-10.86,0-19.68-3.23-19.68-7.22h0c0-4,8.82-7.22,19.68-7.22h70c10.86,0,19.67,3.23,19.67,7.22Z"/><path class="cls-3" d="M846.31,629.57c0,4-8.81,7.21-19.67,7.21h-70c-10.86,0-19.68-3.23-19.68-7.21h0c0-4,8.82-7.23,19.68-7.23h70c10.86,0,19.67,3.23,19.67,7.23Z"/><path class="cls-3" d="M846.31,687.62c0,4-8.81,7.21-19.67,7.21h-70c-10.86,0-19.68-3.22-19.68-7.21h0c0-4,8.82-7.19,19.68-7.19h70c10.86,0,19.67,3.22,19.67,7.19Z"/><path class="cls-3" d="M846.31,737.39c0,4-8.81,7.21-19.67,7.21h-70c-10.86,0-19.68-3.23-19.68-7.21h0c0-4,8.82-7.22,19.68-7.22h70c10.86,0,19.67,3.23,19.67,7.22Z"/><path class="cls-3" d="M846.31,799.59c0,4-8.81,7.22-19.67,7.22h-70c-10.86,0-19.68-3.21-19.68-7.22h0c0-4,8.82-7.22,19.68-7.22h70c10.86,0,19.67,3.24,19.67,7.22Z"/><path class="cls-3" d="M846.31,849.36c0,4-8.81,7.21-19.67,7.21h-70c-10.86,0-19.68-3.24-19.68-7.21h0c0-4,8.82-7.22,19.68-7.22h70c10.86,0,19.67,3.23,19.67,7.22Z"/><path class="cls-3" d="M846.31,903.28c0,4-8.81,7.21-19.67,7.21h-70c-10.86,0-19.68-3.23-19.68-7.21h0c0-4,8.82-7.21,19.68-7.21h70c10.86,0,19.67,3.22,19.67,7.21Z"/><path class="cls-12" d="M713.23,274.47l-47,75-110-43.74,3.28-9.39,89.81,20.41,45.36-64.38s13.52-22.87,28.05-12.64C722.73,239.72,722.6,258.92,713.23,274.47Z"/><path class="cls-12" d="M561.4,297.79s-15.5-12-19.71-10.37C538.12,288.76,528,299.17,558.2,305Z"/><path class="cls-12" d="M843.91,297.08l-47,75-110-43.75,3.28-9.36L780,339.33,825.33,275s13.56-22.88,28.08-12.64C853.41,262.32,853.28,281.5,843.91,297.08Z"/><path class="cls-12" d="M692.08,320.39s-15.52-12-19.73-10.37c-3.55,1.33-13.73,11.76,16.52,17.62Z"/><polygon class="cls-13" points="810.82 776.33 804.5 776.86 803.39 786.54 801.12 790.8 783.63 805.06 815.17 794.8 810.82 776.33"/><polygon class="cls-13" points="833.44 759.39 828.47 763.32 832.88 772 833.35 776.81 826.61 798.35 847.27 772.37 833.44 759.39"/><polygon class="cls-14" points="841.52 427.65 823.76 623.02 817.4 784.14 802.18 784.14 786.94 616.69 767.92 427.65 841.52 427.65"/><polygon class="cls-15" points="701.97 427.65 707.03 605.9 826.29 768.92 841.52 761.31 759.07 614.16 788.22 437.81 788.22 427.65 701.97 427.65"/><polygon class="cls-10" points="841.52 427.65 701.97 427.65 717.19 329.97 717.19 232.25 772.77 221.08 841.52 227.4 841.52 321.73 841.52 427.65"/><path class="cls-16" d="M722.94,232.76s22.74,12.94-15.48,54.35l-22.6-24.44S701.85,227.67,722.94,232.76Z"/><path class="cls-16" d="M837.48,227.09s25.93-3.6,20.9,52.52L825.55,274S817.67,235.92,837.48,227.09Z"/><path class="cls-12" d="M784.45,227c.3,4.91-19.45,4.91-19.65,0a99.85,99.85,0,0,1,1.89-24.74l14.6-5.39S783.85,216.73,784.45,227Z"/><path class="cls-12" d="M769.24,210.24c-1.34.12-13.66,2.21-15.55-3.82s-1.26-28.22,1.61-33.62,12.33-8.57,16.79-6.65,16.44,14.65,9.81,36.51C781.9,202.66,776.5,209.51,769.24,210.24Z"/><path class="cls-13" d="M752.59,172.8s1.1,7.62,6.5,7,14.59-2.22,15.52,1.9-2.9,18.12,0,21.59,10.16,7.61,11.74,2.52,4.77-36.47-11.74-43.77C774.61,162,758.18,158.53,752.59,172.8Z"/></g></g></svg>