<svg xmlns="http://www.w3.org/2000/svg" xmlns:xlink="http://www.w3.org/1999/xlink" viewBox="0 0 1064.08 990.04"><defs><style>.cls-1{fill:#eb3d7b;}.cls-2,.cls-28,.cls-29{fill:#fff;}.cls-2{opacity:0.87;}.cls-3{fill:#91b3fa;}.cls-4{fill:#efefef;}.cls-5{fill:url(#linear-gradient);}.cls-6{fill:url(#linear-gradient-2);}.cls-7{fill:url(#linear-gradient-3);}.cls-8{fill:url(#linear-gradient-4);}.cls-9{fill:url(#linear-gradient-5);}.cls-10{fill:url(#linear-gradient-6);}.cls-11{fill:url(#linear-gradient-7);}.cls-12{fill:url(#linear-gradient-8);}.cls-13{fill:url(#linear-gradient-9);}.cls-14{fill:url(#linear-gradient-10);}.cls-15{fill:url(#linear-gradient-11);}.cls-16{fill:url(#linear-gradient-12);}.cls-17{fill:#381e28;}.cls-18{fill:#f27a38;}.cls-19{fill:#ffdab8;}.cls-20{fill:#ccc;}.cls-21{fill:url(#linear-gradient-13);}.cls-22{fill:url(#linear-gradient-14);}.cls-23{fill:url(#linear-gradient-15);}.cls-24{fill:url(#linear-gradient-16);}.cls-25{fill:url(#linear-gradient-17);}.cls-26{fill:url(#linear-gradient-18);}.cls-27{opacity:0.74;}.cls-29{fill-rule:evenodd;}.cls-30{opacity:0.81;}.cls-31{opacity:0.8;}.cls-32{opacity:0.82;}.cls-33{fill:url(#linear-gradient-19);}.cls-34{fill:url(#linear-gradient-20);}.cls-35{fill:url(#linear-gradient-21);}.cls-36{fill:url(#linear-gradient-22);}.cls-37{fill:url(#linear-gradient-23);}.cls-38{fill:url(#linear-gradient-24);}.cls-39{fill:url(#linear-gradient-25);}.cls-40{fill:url(#linear-gradient-26);}.cls-41{fill:url(#linear-gradient-27);}.cls-42{fill:url(#linear-gradient-28);}.cls-43{fill:url(#linear-gradient-29);}.cls-44{fill:url(#_39);}.cls-45{fill:url(#linear-gradient-30);}.cls-46{fill:url(#linear-gradient-31);}.cls-47{fill:url(#linear-gradient-32);}.cls-48{fill:url(#linear-gradient-33);}.cls-49{fill:url(#linear-gradient-34);}.cls-50{fill:url(#linear-gradient-35);}.cls-51{fill:url(#linear-gradient-36);}.cls-52{fill:url(#linear-gradient-37);}.cls-53{fill:url(#linear-gradient-38);}.cls-54{fill:url(#linear-gradient-39);}.cls-55{fill:url(#linear-gradient-40);}.cls-56{fill:url(#linear-gradient-41);}.cls-57{fill:url(#linear-gradient-42);}.cls-58{fill:url(#linear-gradient-43);}.cls-59{fill:url(#linear-gradient-44);}.cls-60{fill:url(#linear-gradient-45);}.cls-61{fill:url(#linear-gradient-46);}.cls-62{fill:url(#linear-gradient-47);}.cls-63{fill:url(#linear-gradient-48);}.cls-64{fill:url(#linear-gradient-49);}.cls-65{fill:url(#linear-gradient-50);}.cls-66{fill:url(#linear-gradient-51);}.cls-67{fill:url(#linear-gradient-52);}.cls-68{fill:url(#linear-gradient-53);}.cls-69{fill:url(#linear-gradient-54);}.cls-70{fill:url(#linear-gradient-55);}.cls-71{fill:url(#linear-gradient-56);}.cls-72{fill:url(#linear-gradient-57);}.cls-73{fill:url(#linear-gradient-58);}.cls-74{fill:url(#linear-gradient-59);}.cls-75{fill:url(#linear-gradient-60);}.cls-76{fill:url(#linear-gradient-61);}.cls-77{fill:url(#linear-gradient-62);}.cls-78{fill:url(#linear-gradient-63);}.cls-79{fill:url(#linear-gradient-64);}.cls-80{fill:url(#linear-gradient-65);}.cls-81{fill:url(#linear-gradient-66);}.cls-82{fill:url(#linear-gradient-67);}.cls-83{fill:url(#linear-gradient-68);}.cls-84{fill:url(#linear-gradient-69);}.cls-85{fill:url(#linear-gradient-70);}.cls-86{fill:url(#linear-gradient-71);}.cls-87{fill:url(#linear-gradient-72);}.cls-88{fill:url(#linear-gradient-73);}.cls-89{opacity:0.28;fill:url(#linear-gradient-74);}.cls-90{fill:#bdd0fb;}.cls-91{fill:url(#linear-gradient-75);}.cls-92{fill:url(#linear-gradient-76);}.cls-93{fill:url(#linear-gradient-77);}.cls-94{fill:url(#linear-gradient-78);}.cls-95{fill:#eaeaea;}.cls-96{fill:url(#linear-gradient-79);}.cls-97{fill:url(#linear-gradient-80);}.cls-98{opacity:0.65;}.cls-99{fill:url(#linear-gradient-81);}.cls-100{fill:url(#linear-gradient-82);}.cls-101{fill:url(#linear-gradient-83);}.cls-102{fill:url(#linear-gradient-84);}.cls-103{fill:url(#linear-gradient-85);}.cls-104{fill:url(#linear-gradient-86);}</style><linearGradient id="linear-gradient" x1="453.51" y1="39.9" x2="591.45" y2="39.9" gradientUnits="userSpaceOnUse"><stop offset="0" stop-color="#4042e2"/><stop offset="1" stop-color="#4f52ff"/></linearGradient><linearGradient id="linear-gradient-2" x1="453.51" y1="53.5" x2="591.45" y2="53.5" xlink:href="#linear-gradient"/><linearGradient id="linear-gradient-3" x1="424.68" y1="-2459.8" x2="426.86" y2="-2459.8" gradientTransform="matrix(1, 0, 0, 0.43, -2.11, 1205.87)" xlink:href="#linear-gradient"/><linearGradient id="linear-gradient-4" x1="474.45" y1="145.21" x2="476.63" y2="145.21" xlink:href="#linear-gradient"/><linearGradient id="linear-gradient-5" x1="513.97" y1="144" x2="518.23" y2="144" xlink:href="#linear-gradient"/><linearGradient id="linear-gradient-6" x1="555.6" y1="126.39" x2="557.77" y2="126.39" xlink:href="#linear-gradient"/><linearGradient id="linear-gradient-7" x1="349.54" y1="118" x2="364.24" y2="118" xlink:href="#linear-gradient"/><linearGradient id="linear-gradient-8" x1="349.54" y1="53.87" x2="364.24" y2="53.87" xlink:href="#linear-gradient"/><linearGradient id="linear-gradient-9" x1="352.54" y1="177.53" x2="588.59" y2="177.53" xlink:href="#linear-gradient"/><linearGradient id="linear-gradient-10" x1="352.54" y1="177.53" x2="588.59" y2="177.53" xlink:href="#linear-gradient"/><linearGradient id="linear-gradient-11" x1="371.65" y1="169.84" x2="552.64" y2="49.66" xlink:href="#linear-gradient"/><linearGradient id="linear-gradient-12" x1="385.09" y1="190.08" x2="566.08" y2="69.9" xlink:href="#linear-gradient"/><linearGradient id="linear-gradient-13" x1="446.33" y1="366.37" x2="251.64" y2="573.4" gradientUnits="userSpaceOnUse"><stop offset="0" stop-color="#fa5"/><stop offset="0.29" stop-color="#fea051"/><stop offset="0.79" stop-color="#fb8646"/><stop offset="1" stop-color="#f97841"/></linearGradient><linearGradient id="linear-gradient-14" x1="607.48" y1="366.37" x2="412.79" y2="573.4" xlink:href="#linear-gradient-13"/><linearGradient id="linear-gradient-15" x1="446.33" y1="526.4" x2="251.64" y2="733.43" xlink:href="#linear-gradient-13"/><linearGradient id="linear-gradient-16" x1="607.48" y1="526.4" x2="412.79" y2="733.43" xlink:href="#linear-gradient-13"/><linearGradient id="linear-gradient-17" x1="446.33" y1="686.43" x2="251.64" y2="893.46" xlink:href="#linear-gradient-13"/><linearGradient id="linear-gradient-18" x1="607.48" y1="686.43" x2="412.79" y2="893.46" xlink:href="#linear-gradient-13"/><linearGradient id="linear-gradient-19" x1="2014.75" y1="954.98" x2="1902.72" y2="1076.84" gradientTransform="matrix(-1, 0, 0, 1, 2807.64, 0)" xlink:href="#linear-gradient"/><linearGradient id="linear-gradient-20" x1="1978.39" y1="964.03" x2="1988.34" y2="964.03" gradientTransform="matrix(-1, 0, 0, 1, 2807.64, 0)" gradientUnits="userSpaceOnUse"><stop offset="0" stop-color="#ff928e"/><stop offset="1" stop-color="#feb3b1"/></linearGradient><linearGradient id="linear-gradient-21" x1="1960.36" y1="955.18" x2="1982.35" y2="827.44" gradientTransform="matrix(-1, 0, 0, 1, 2807.64, 0)" xlink:href="#linear-gradient"/><linearGradient id="linear-gradient-22" x1="1989.62" y1="931.87" x2="1877.59" y2="1053.73" gradientTransform="matrix(-1, 0, 0, 1, 2807.64, 0)" xlink:href="#linear-gradient"/><linearGradient id="linear-gradient-23" x1="1942.52" y1="963.52" x2="1951.11" y2="963.52" xlink:href="#linear-gradient-20"/><linearGradient id="linear-gradient-24" x1="1935.49" y1="950.9" x2="1957.48" y2="823.16" gradientTransform="matrix(-1, 0, 0, 1, 2807.64, 0)" xlink:href="#linear-gradient"/><linearGradient id="linear-gradient-25" x1="1919.98" y1="797.28" x2="2076.56" y2="684.59" gradientTransform="matrix(-1, 0, 0, 1, 2807.64, 0)" xlink:href="#linear-gradient-13"/><linearGradient id="linear-gradient-26" x1="2019.34" y1="704.42" x2="2070.17" y2="704.42" xlink:href="#linear-gradient-20"/><linearGradient id="linear-gradient-27" x1="7916.43" y1="695.9" x2="7950.55" y2="773.51" gradientTransform="translate(-7167.65)" xlink:href="#linear-gradient-20"/><linearGradient id="linear-gradient-28" x1="737.3" y1="614.88" x2="736.7" y2="657.11" gradientTransform="matrix(1, 0, 0, 1, 0, 0)" xlink:href="#linear-gradient-20"/><linearGradient id="linear-gradient-29" x1="1899.25" y1="768.48" x2="2055.83" y2="655.79" gradientTransform="matrix(-1, 0, 0, 1, 2807.64, 0)" xlink:href="#linear-gradient-13"/><linearGradient id="_39" x1="837.26" y1="698.12" x2="838.47" y2="756.04" gradientUnits="userSpaceOnUse"><stop offset="0" stop-color="#ff928e"/><stop offset="0.22" stop-color="#ff9490"/><stop offset="0.3" stop-color="#ff9b97"/><stop offset="0.32" stop-color="#ff9d99"/><stop offset="1" stop-color="#feb3b1"/></linearGradient><linearGradient id="linear-gradient-30" x1="-4180.95" y1="-1948.15" x2="-4217.75" y2="-1887.21" gradientTransform="matrix(-0.75, -0.67, -0.67, 0.75, -3442.26, -1411.95)" xlink:href="#linear-gradient-20"/><linearGradient id="linear-gradient-31" x1="-4189.13" y1="-1953.09" x2="-4225.94" y2="-1892.15" gradientTransform="matrix(-0.75, -0.67, -0.67, 0.75, -3442.26, -1411.95)" xlink:href="#linear-gradient-20"/><linearGradient id="linear-gradient-32" x1="1634.97" y1="1483.65" x2="1527.97" y2="1656.2" gradientTransform="matrix(-1, 0, 0, 1, 2807.64, 0)" gradientUnits="userSpaceOnUse"><stop offset="0" stop-color="#fe7062"/><stop offset="1" stop-color="#ff928e"/></linearGradient><linearGradient id="linear-gradient-33" x1="1657.51" y1="1497.62" x2="1550.51" y2="1670.18" xlink:href="#linear-gradient-32"/><linearGradient id="linear-gradient-34" x1="1646.52" y1="1490.8" x2="1539.52" y2="1663.36" xlink:href="#linear-gradient-32"/><linearGradient id="linear-gradient-35" x1="1650.84" y1="1493.48" x2="1543.85" y2="1666.04" xlink:href="#linear-gradient-32"/><linearGradient id="linear-gradient-36" x1="1664.67" y1="1502.06" x2="1557.68" y2="1674.62" xlink:href="#linear-gradient-32"/><linearGradient id="linear-gradient-37" x1="1680.52" y1="1511.89" x2="1573.52" y2="1684.44" xlink:href="#linear-gradient-32"/><linearGradient id="linear-gradient-38" x1="1694.98" y1="1520.85" x2="1587.99" y2="1693.41" xlink:href="#linear-gradient-32"/><linearGradient id="linear-gradient-39" x1="1659.6" y1="1498.92" x2="1552.61" y2="1671.48" xlink:href="#linear-gradient-32"/><linearGradient id="linear-gradient-40" x1="1667.2" y1="1503.63" x2="1560.21" y2="1676.18" xlink:href="#linear-gradient-32"/><linearGradient id="linear-gradient-41" x1="1673.63" y1="1507.61" x2="1566.63" y2="1680.17" xlink:href="#linear-gradient-32"/><linearGradient id="linear-gradient-42" x1="1687.5" y1="1516.22" x2="1580.51" y2="1688.78" gradientTransform="matrix(-0.99, -0.16, -0.16, 0.99, 2937.6, 336.7)" gradientUnits="userSpaceOnUse"><stop offset="0" stop-color="#09005d"/><stop offset="1" stop-color="#1a0f91"/></linearGradient><linearGradient id="linear-gradient-43" x1="1687.31" y1="1516.1" x2="1580.32" y2="1688.66" xlink:href="#linear-gradient-32"/><linearGradient id="linear-gradient-44" x1="1739.6" y1="1548.52" x2="1632.6" y2="1721.07" gradientTransform="matrix(-0.97, -0.23, -0.23, 0.97, 2975.46, 507.53)" xlink:href="#linear-gradient-42"/><linearGradient id="linear-gradient-45" x1="1739.4" y1="1548.4" x2="1632.41" y2="1720.96" xlink:href="#linear-gradient-32"/><linearGradient id="linear-gradient-46" x1="1960.6" y1="812.4" x2="1908.23" y2="770.51" xlink:href="#linear-gradient-20"/><linearGradient id="linear-gradient-47" x1="1958.9" y1="814.52" x2="1906.53" y2="772.63" xlink:href="#linear-gradient-20"/><linearGradient id="linear-gradient-48" x1="4630.39" y1="589.7" x2="4565.79" y2="669.12" gradientTransform="matrix(-0.99, -0.12, -0.12, 0.99, 5581.29, 672.09)" xlink:href="#linear-gradient-20"/><linearGradient id="linear-gradient-49" x1="4546.72" y1="850.67" x2="4545.12" y2="1047.01" gradientTransform="matrix(-0.99, -0.12, -0.12, 0.99, 5581.29, 672.09)" xlink:href="#linear-gradient-13"/><linearGradient id="linear-gradient-50" x1="986.84" y1="697.31" x2="994.69" y2="769.11" gradientTransform="matrix(1, 0, 0, 1, 0, 0)" xlink:href="#linear-gradient-20"/><linearGradient id="linear-gradient-51" x1="-3298.87" y1="-487.21" x2="-3343.52" y2="-443.16" gradientTransform="translate(6405.97 792.94) rotate(16.22)" xlink:href="#linear-gradient-20"/><linearGradient id="linear-gradient-52" x1="985.47" y1="924.49" x2="969.18" y2="1030.68" gradientTransform="matrix(1, 0, 0, 1, 0, 0)" xlink:href="#linear-gradient-20"/><linearGradient id="linear-gradient-53" x1="4498.06" y1="960.68" x2="4520.56" y2="960.68" gradientTransform="matrix(-1, -0.01, -0.01, 1, 5528.09, 54.7)" xlink:href="#linear-gradient-42"/><linearGradient id="linear-gradient-54" x1="1042.82" y1="851.7" x2="977.66" y2="941.6" gradientTransform="matrix(1, 0, 0, 1, 0, 0)" xlink:href="#linear-gradient-20"/><linearGradient id="linear-gradient-55" x1="4518.92" y1="964.75" x2="4545.75" y2="964.75" gradientTransform="matrix(-1, -0.01, -0.01, 1, 5528.09, 54.7)" xlink:href="#linear-gradient-42"/><linearGradient id="linear-gradient-56" x1="4530.83" y1="843.81" x2="4493.23" y2="1015.51" gradientTransform="matrix(-1, -0.01, -0.01, 1, 5528.09, 54.7)" xlink:href="#linear-gradient"/><linearGradient id="linear-gradient-57" x1="1030.71" y1="711.66" x2="1005.37" y2="809.4" gradientTransform="matrix(1, 0, 0, 1, 0, 0)" xlink:href="#linear-gradient-20"/><linearGradient id="linear-gradient-58" x1="1027.92" y1="778.43" x2="1059.14" y2="778.43" gradientUnits="userSpaceOnUse"><stop offset="0" stop-color="#dae3fe"/><stop offset="1" stop-color="#e9effd"/></linearGradient><linearGradient id="linear-gradient-59" x1="982.53" y1="674.98" x2="991.84" y2="674.98" gradientTransform="matrix(1, 0, 0, 1, 0, 0)" xlink:href="#linear-gradient-42"/><linearGradient id="linear-gradient-60" x1="1248.86" y1="959.78" x2="1285.49" y2="959.78" gradientTransform="translate(-1140.73)" xlink:href="#linear-gradient"/><linearGradient id="linear-gradient-61" x1="1248.86" y1="952.6" x2="1284.46" y2="952.6" gradientTransform="translate(-1140.73)" xlink:href="#linear-gradient"/><linearGradient id="linear-gradient-62" x1="1252.24" y1="942.58" x2="1262.56" y2="942.58" gradientTransform="translate(-1140.73)" xlink:href="#linear-gradient-20"/><linearGradient id="linear-gradient-63" x1="1175.82" y1="958.99" x2="1189.86" y2="958.99" gradientTransform="translate(-1140.73)" xlink:href="#linear-gradient"/><linearGradient id="linear-gradient-64" x1="1175.93" y1="948.18" x2="1196.53" y2="948.18" gradientTransform="translate(-1140.73)" xlink:href="#linear-gradient"/><linearGradient id="linear-gradient-65" x1="1186.64" y1="933.98" x2="1198.97" y2="933.98" gradientTransform="translate(-1140.73)" xlink:href="#linear-gradient-20"/><linearGradient id="linear-gradient-66" x1="45.5" y1="863.35" x2="142.87" y2="863.35" xlink:href="#linear-gradient"/><linearGradient id="linear-gradient-67" x1="1341.73" y1="676.54" x2="1059.01" y2="922.43" gradientTransform="translate(-1140.73)" xlink:href="#linear-gradient-13"/><linearGradient id="linear-gradient-68" x1="1228.2" y1="888.31" x2="1234.1" y2="876.49" gradientTransform="translate(-1140.73)" xlink:href="#linear-gradient"/><linearGradient id="linear-gradient-69" x1="1243.14" y1="754.22" x2="1199.24" y2="793.09" gradientTransform="translate(-1140.73)" xlink:href="#linear-gradient-13"/><linearGradient id="linear-gradient-70" x1="1318.16" y1="650.48" x2="1036.72" y2="895.26" gradientTransform="translate(-1140.73)" xlink:href="#linear-gradient-13"/><linearGradient id="linear-gradient-71" x1="1362.4" y1="701.35" x2="1080.96" y2="946.13" gradientTransform="translate(-1140.73)" xlink:href="#linear-gradient-13"/><linearGradient id="linear-gradient-72" x1="1325.44" y1="757.89" x2="1360.01" y2="757.89" gradientTransform="translate(-1140.73)" xlink:href="#linear-gradient-13"/><linearGradient id="linear-gradient-73" x1="1291.83" y1="665.5" x2="1291.45" y2="730.06" gradientTransform="translate(-1140.73)" xlink:href="#linear-gradient-13"/><linearGradient id="linear-gradient-74" x1="226.08" y1="702.94" x2="392.27" y2="702.94" xlink:href="#linear-gradient-58"/><linearGradient id="linear-gradient-75" x1="875.75" y1="2336.99" x2="843.97" y2="2379.04" gradientTransform="translate(-1028.41 -1532.98) rotate(-8.21)" xlink:href="#linear-gradient-20"/><linearGradient id="linear-gradient-76" x1="829.2" y1="2370.29" x2="854.69" y2="2344.14" gradientTransform="translate(-1028.41 -1532.98) rotate(-8.21)" xlink:href="#linear-gradient-20"/><linearGradient id="linear-gradient-77" x1="1260.47" y1="773.79" x2="1216.57" y2="812.67" gradientTransform="translate(-1140.73)" xlink:href="#linear-gradient-20"/><linearGradient id="linear-gradient-78" x1="1356.34" y1="753.83" x2="1368.72" y2="753.83" gradientTransform="translate(-1140.73)" xlink:href="#linear-gradient-20"/><linearGradient id="linear-gradient-79" x1="-5724.85" y1="-821.67" x2="-5754.34" y2="-782.05" gradientTransform="matrix(0.46, -0.89, -0.89, -0.46, 2095.24, -5200.12)" xlink:href="#linear-gradient-13"/><linearGradient id="linear-gradient-80" x1="-2875.55" y1="2460.61" x2="-2857.79" y2="2424.42" gradientTransform="matrix(-0.34, -0.94, -0.94, 0.34, 1539.38, -3220.93)" xlink:href="#linear-gradient-13"/><linearGradient id="linear-gradient-81" x1="-2782.77" y1="2462.3" x2="-2810.41" y2="2415.56" gradientTransform="matrix(-0.34, -0.94, -0.94, 0.34, 1539.38, -3220.93)" xlink:href="#linear-gradient-13"/><linearGradient id="linear-gradient-82" x1="267.38" y1="236.97" x2="302.92" y2="236.97" xlink:href="#linear-gradient-13"/><linearGradient id="linear-gradient-83" x1="2692.54" y1="5684.35" x2="2721.64" y2="5684.35" gradientTransform="matrix(-0.63, -0.77, -0.77, 0.63, 6362.07, -1270.96)" xlink:href="#linear-gradient-58"/><linearGradient id="linear-gradient-84" x1="-2842.95" y1="2377.51" x2="-2819.12" y2="2377.51" gradientTransform="matrix(-0.34, -0.94, -0.94, 0.34, 1539.38, -3220.93)" xlink:href="#linear-gradient-42"/><linearGradient id="linear-gradient-85" x1="2715.25" y1="5705.99" x2="2734.47" y2="5705.99" gradientTransform="matrix(-0.86, -0.51, -0.51, 0.86, 5496.89, -3236.85)" xlink:href="#linear-gradient-58"/><linearGradient id="linear-gradient-86" x1="-2839.05" y1="2405.64" x2="-2823.31" y2="2405.64" gradientTransform="matrix(-0.34, -0.94, -0.94, 0.34, 1539.38, -3220.93)" xlink:href="#linear-gradient-42"/></defs><title>Asset 4</title><g id="Layer_2" data-name="Layer 2"><g id="Layer_1-2" data-name="Layer 1"><path class="cls-1" d="M644.33,282.44,456.5,265.77A14.81,14.81,0,0,1,443,251.09l-.69-126.65a14.81,14.81,0,0,1,15.84-14.86l200,13.92a14.82,14.82,0,0,1,13.73,16.09L660.4,269A14.81,14.81,0,0,1,644.33,282.44Z"/><path class="cls-2" d="M453.31,136.7l-1.24,109.35a9.17,9.17,0,0,0,8.26,9.23l180.11,17.89a9.16,9.16,0,0,0,10-8.31l10.38-116.93a9.16,9.16,0,0,0-8.63-10L463,127.66A9.16,9.16,0,0,0,453.31,136.7Z"/><path class="cls-3" d="M538.7,232.24l101.93,6a1.87,1.87,0,0,1,1.74,2l-.15,1.64a1.84,1.84,0,0,1-2,1.68L538.45,236a1.87,1.87,0,0,1-1.71-2h0A1.85,1.85,0,0,1,538.7,232.24Z"/><rect class="cls-3" x="586.42" y="194.59" width="4.41" height="105.77" rx="1.86" transform="translate(290.09 811.93) rotate(-84.93)"/><path class="cls-3" d="M566,254.31l0,.3a1.87,1.87,0,0,0,1.69,2l70.8,6.28a1.86,1.86,0,0,0,2-1.68l.12-1.44a1.85,1.85,0,0,0-1.71-2L568,252.62A1.86,1.86,0,0,0,566,254.31Z"/><path class="cls-1" d="M628.59,237.2l-221.68-4.52a17.42,17.42,0,0,1-17-16.13L378.94,68a17.41,17.41,0,0,1,17.4-18.7l235.73.31a17.42,17.42,0,0,1,17.4,17.77l-3.11,152.71A17.43,17.43,0,0,1,628.59,237.2Z"/><path class="cls-2" d="M392.84,81.54l7.3,128.37a10.76,10.76,0,0,0,10.42,10.16l212.72,6.56a10.78,10.78,0,0,0,11.1-10.55l2.81-138a10.78,10.78,0,0,0-10.92-11L403.45,70.15A10.78,10.78,0,0,0,392.84,81.54Z"/><path class="cls-3" d="M500.65,186.77l120.05-1.14a2.17,2.17,0,0,1,2.2,2.22l0,1.93a2.17,2.17,0,0,1-2.19,2.14l-120-.78a2.18,2.18,0,0,1-2.17-2.23h0A2.18,2.18,0,0,1,500.65,186.77Z"/><rect class="cls-3" x="557.85" y="138.46" width="5.19" height="124.37" rx="2.18" transform="translate(348.46 756.9) rotate(-88.84)"/><path class="cls-3" d="M534.48,210.47v.36a2.18,2.18,0,0,0,2.14,2.22l83.56,1.7a2.18,2.18,0,0,0,2.23-2.13l0-1.7a2.18,2.18,0,0,0-2.17-2.23l-83.59-.36A2.17,2.17,0,0,0,534.48,210.47Z"/><path class="cls-1" d="M594.79,208.06H348.86a19.32,19.32,0,0,1-19.24-17.51L314.12,26.11A19.32,19.32,0,0,1,333,5L594.42,0a19.33,19.33,0,0,1,19.69,19.32V188.74A19.32,19.32,0,0,1,594.79,208.06Z"/><path class="cls-4" d="M329.84,40.77l11,142.19a11.94,11.94,0,0,0,11.79,11l236,2.47a12,12,0,0,0,12.08-12V31.43a12,12,0,0,0-12.36-11.94l-247,8.41A12,12,0,0,0,329.84,40.77Z"/><path class="cls-5" d="M455.85,39.47l133.11-4a2.42,2.42,0,0,1,2.49,2.42v2.14a2.42,2.42,0,0,1-2.39,2.42L456,44.31a2.42,2.42,0,0,1-2.45-2.42h0A2.42,2.42,0,0,1,455.85,39.47Z"/><rect class="cls-6" x="453.51" y="50.63" width="137.94" height="5.75" rx="2.42"/><path class="cls-7" d="M421,172.74a1.08,1.08,0,0,1-1.09-1.08V168.4a1.09,1.09,0,0,1,1.09-1.09h0a1.1,1.1,0,0,1,1.09,1.08v3.26a1.08,1.08,0,0,1-1.08,1.09Zm0-10.86a1.09,1.09,0,0,1-1.09-1.08v-3.26a1.08,1.08,0,0,1,1.08-1.09h0a1.09,1.09,0,0,1,1.09,1.08v3.26a1.09,1.09,0,0,1-1.09,1.09Zm0-10.86a1.08,1.08,0,0,1-1.08-1.08v-3.26a1.08,1.08,0,0,1,1.08-1.09h0a1.09,1.09,0,0,1,1.09,1.09v3.25A1.08,1.08,0,0,1,421,151Zm0-10.86a1.08,1.08,0,0,1-1.09-1.08v-3.26a1.08,1.08,0,0,1,1.08-1.09h0a1.08,1.08,0,0,1,1.08,1.09v3.25a1.08,1.08,0,0,1-1.08,1.09Z"/><path class="cls-8" d="M475.54,169.65a1.09,1.09,0,0,1-1.09-1.09V165.3a1.09,1.09,0,0,1,2.18,0v3.26A1.09,1.09,0,0,1,475.54,169.65Zm0-10.86a1.09,1.09,0,0,1-1.09-1.09v-3.26a1.09,1.09,0,0,1,2.18,0v3.26A1.09,1.09,0,0,1,475.54,158.79Zm0-10.86a1.09,1.09,0,0,1-1.09-1.09v-3.26a1.09,1.09,0,0,1,2.18,0v3.26A1.09,1.09,0,0,1,475.54,147.93Zm0-10.86a1.09,1.09,0,0,1-1.09-1.09v-3.26a1.09,1.09,0,0,1,2.18,0V136A1.09,1.09,0,0,1,475.54,137.07Zm0-10.86a1.09,1.09,0,0,1-1.09-1.09v-3.25a1.09,1.09,0,1,1,2.18,0v3.25A1.09,1.09,0,0,1,475.54,126.21Z"/><path class="cls-9" d="M517.14,178.62a1.08,1.08,0,0,1-1.09-1.05l-.06-1.95a1.1,1.1,0,0,1,1.06-1.12,1.06,1.06,0,0,1,1.11,1.06l.07,1.94a1.1,1.1,0,0,1-1.06,1.12Zm-.3-9.54a1.09,1.09,0,0,1-1.08-1.05l-.1-3.26a1.09,1.09,0,1,1,2.17-.07l.1,3.26a1.08,1.08,0,0,1-1,1.12Zm-.33-10.86a1.08,1.08,0,0,1-1.09-1.05l-.1-3.25a1.08,1.08,0,0,1,1-1.12,1.11,1.11,0,0,1,1.12,1l.1,3.25a1.08,1.08,0,0,1-1.05,1.12Zm-.34-10.85a1.09,1.09,0,0,1-1.09-1.05l-.1-3.26a1.1,1.1,0,0,1,1.06-1.12,1.08,1.08,0,0,1,1.11,1.05l.11,3.26a1.1,1.1,0,0,1-1.06,1.12Zm-.34-10.85a1.09,1.09,0,0,1-1.08-1.06l-.1-3.25a1.09,1.09,0,1,1,2.17-.07l.1,3.26a1.08,1.08,0,0,1-1,1.12Zm-.33-10.86a1.08,1.08,0,0,1-1.09-1l-.1-3.26a1.09,1.09,0,1,1,2.17-.07l.1,3.26a1.08,1.08,0,0,1-1.05,1.12Zm-.34-10.85a1.09,1.09,0,0,1-1.09-1l-.1-3.26a1.09,1.09,0,0,1,1-1.12,1.07,1.07,0,0,1,1.12,1.05l.11,3.26a1.1,1.1,0,0,1-1.06,1.12Z"/><path class="cls-10" d="M556.68,172.54a1.08,1.08,0,0,1-1.08-1.08V168.2a1.09,1.09,0,1,1,2.17,0v3.26A1.08,1.08,0,0,1,556.68,172.54Zm0-10.86a1.08,1.08,0,0,1-1.08-1.08v-3.26a1.09,1.09,0,1,1,2.17,0v3.26A1.08,1.08,0,0,1,556.68,161.68Zm0-10.86a1.08,1.08,0,0,1-1.08-1.08v-3.26a1.09,1.09,0,1,1,2.17,0v3.26A1.08,1.08,0,0,1,556.68,150.82Zm0-10.86a1.08,1.08,0,0,1-1.08-1.08v-3.26a1.09,1.09,0,1,1,2.17,0v3.26A1.08,1.08,0,0,1,556.68,140Zm0-10.86A1.08,1.08,0,0,1,555.6,128v-3.26a1.09,1.09,0,1,1,2.17,0V128A1.08,1.08,0,0,1,556.68,129.1Zm0-10.86a1.08,1.08,0,0,1-1.08-1.08V113.9a1.09,1.09,0,1,1,2.17,0v3.26A1.08,1.08,0,0,1,556.68,118.24Zm0-10.85a1.08,1.08,0,0,1-1.08-1.09V103a1.09,1.09,0,0,1,2.17,0v3.26A1.09,1.09,0,0,1,556.68,107.39Zm0-10.86a1.08,1.08,0,0,1-1.08-1.09V92.18a1.09,1.09,0,0,1,2.17,0v3.26A1.09,1.09,0,0,1,556.68,96.53Zm0-10.86a1.08,1.08,0,0,1-1.08-1.09V81.32a1.09,1.09,0,0,1,2.17,0v3.26A1.09,1.09,0,0,1,556.68,85.67Z"/><path class="cls-11" d="M362.61,185.36a1.63,1.63,0,0,1-1.62-1.49L349.86,52.4a1.62,1.62,0,0,1,1.49-1.76,1.65,1.65,0,0,1,1.76,1.48l11.13,131.47a1.64,1.64,0,0,1-1.49,1.77Z"/><polygon class="cls-12" points="346.53 59.19 351.56 53.22 357.53 58.26 357.14 53.59 351.17 48.55 346.13 54.52 346.53 59.19"/><path class="cls-13" d="M583.24,179.16H354.17a1.63,1.63,0,1,1,0-3.25H583.24a1.63,1.63,0,1,1,0,3.25Z"/><polygon class="cls-14" points="576.75 183.06 582.28 177.53 576.75 172.01 581.44 172.01 586.96 177.53 581.44 183.06 576.75 183.06"/><path class="cls-15" d="M372.14,141.39a1.63,1.63,0,0,1-.21-3.25c1.2-.16,121.14-16.58,186.8-65a1.63,1.63,0,1,1,1.93,2.62c-66.33,48.91-187.09,65.44-188.3,65.6Z"/><path class="cls-16" d="M560.2,83.12h-.13a1.63,1.63,0,0,1-1.5-1.75l.51-6.4-9-.54a1.63,1.63,0,1,1,.2-3.25l10.68.63a1.66,1.66,0,0,1,1.13.56,1.63,1.63,0,0,1,.39,1.2l-.63,8.05A1.62,1.62,0,0,1,560.2,83.12Z"/><path class="cls-17" d="M642.91,353.89c-.1,104.73-.9,466-7.16,593.83-.67,13.55-10.2,24.22-21.79,24.41-57.36.92-267.57,1.83-361.2-4.84-19.5-1.39-34.62-20.24-34.52-43.1.48-109.92,3-419,16.38-560.37,1.6-16.94,13.28-30.19,27.79-31.57,62.57-5.92,274-19.1,354.8-11.16C631.79,322.52,642.93,336.77,642.91,353.89Z"/><path class="cls-18" d="M616.63,385.44c1.21,84.56,4.72,365.85-.67,469.72-.79,15.18-11.29,27.24-24.28,27.84-53.49,2.47-235.88,6.5-314.06-2.57-14.07-1.64-24.85-15.23-25.24-31.78-2.06-86.28-7.67-348.25-2.43-451,.83-16.38,12-29.53,26-30.69,57.92-4.79,251.86-14.94,318.33-9.22C606.74,358.86,616.42,370.8,616.63,385.44Z"/><path class="cls-19" d="M595.63,410.94c1,77.56,3.92,335.55-.92,430.82-.71,13.93-10,25-21.53,25.55-47.37,2.31-208.89,6.13-278.11-2.14-12.46-1.48-22-13.94-22.33-29.12-1.77-79.14-6.55-319.41-1.84-413.62.75-15,10.64-27.09,23-28.16,51.29-4.44,223-13.88,281.9-8.68C586.89,386.56,595.45,397.52,595.63,410.94Z"/><path class="cls-20" d="M469.37,336.83h0c-.08,3.21-2.27,5.81-5,5.92-13.55.53-51.74,2-68.8,2.81-3.37.15-5.93-3.44-5.2-7.29l.12-.66a5.54,5.54,0,0,1,4.7-4.76c11.55-1,46.38-3.64,69.39-2.17C467.32,330.86,469.44,333.59,469.37,336.83Z"/><path class="cls-21" d="M419.81,522.27c0,6.34-5.69,11.47-12.72,11.47H298.41c-7,0-12.73-5.13-12.73-11.47V409.49c0-6.34,5.7-11.48,12.73-11.48H407.09c7,0,12.72,5.14,12.72,11.48Z"/><path class="cls-22" d="M581,522.27c0,6.34-5.7,11.47-12.73,11.47H459.56c-7,0-12.72-5.13-12.72-11.47V409.49c0-6.34,5.69-11.48,12.72-11.48H568.24c7,0,12.73,5.14,12.73,11.48Z"/><path class="cls-23" d="M419.81,682.3c0,6.34-5.69,11.48-12.72,11.48H298.41c-7,0-12.73-5.14-12.73-11.48V569.52c0-6.33,5.7-11.47,12.73-11.47H407.09c7,0,12.72,5.14,12.72,11.47Z"/><path class="cls-24" d="M581,682.3c0,6.34-5.7,11.48-12.73,11.48H459.56c-7,0-12.72-5.14-12.72-11.48V569.52c0-6.33,5.69-11.47,12.72-11.47H568.24c7,0,12.73,5.14,12.73,11.47Z"/><path class="cls-25" d="M419.81,842.33c0,6.34-5.69,11.48-12.72,11.48H298.41c-7,0-12.73-5.14-12.73-11.48V729.56c0-6.34,5.7-11.48,12.73-11.48H407.09c7,0,12.72,5.14,12.72,11.48Z"/><path class="cls-26" d="M581,842.33c0,6.34-5.7,11.48-12.73,11.48H459.56c-7,0-12.72-5.14-12.72-11.48V729.56c0-6.34,5.69-11.48,12.72-11.48H568.24c7,0,12.73,5.14,12.73,11.48Z"/><g class="cls-27"><path class="cls-28" d="M513.17,505.16a38.72,38.72,0,1,1,38.71-38.72A38.76,38.76,0,0,1,513.17,505.16Zm0-71a32.23,32.23,0,1,0,32.23,32.23A32.26,32.26,0,0,0,513.17,434.21Z"/><path class="cls-29" d="M501,481.35V453.51a3.84,3.84,0,0,1,5.79-3.3l23.46,13.92a3.84,3.84,0,0,1,0,6.6l-23.46,13.92A3.83,3.83,0,0,1,501,481.35Z"/></g><g class="cls-30"><path class="cls-28" d="M389.14,656.22H333.77a3.44,3.44,0,0,1-3.12-2.52l-15.92-53.8L298,597.66a3.28,3.28,0,0,1,.85-6.5l18.81,2.47a3.37,3.37,0,0,1,2.7,2.42l15.83,53.53h50.24l7.31-38.79a3.29,3.29,0,0,1,3.81-2.65,3.21,3.21,0,0,1,2.59,3.77l-7.81,41.49A3.42,3.42,0,0,1,389.14,656.22Z"/><path class="cls-28" d="M396.62,614H322.36a3,3,0,1,1,0-6h74.26a3,3,0,1,1,0,6Z"/><path class="cls-28" d="M347.47,652.59a3.31,3.31,0,0,1-3.32-3.26V611.55a3.32,3.32,0,0,1,6.64,0v37.78A3.31,3.31,0,0,1,347.47,652.59Z"/><path class="cls-28" d="M374,652.59c-1.8,0-2.72-1.46-2.72-3.26V611.55c0-1.8.92-3.25,2.72-3.25s2.71,1.45,2.71,3.25v37.78C376.73,651.13,375.82,652.59,374,652.59Z"/><path class="cls-28" d="M392.71,635.1H328.88a3.32,3.32,0,0,1,0-6.63h63.83a3.32,3.32,0,0,1,0,6.63Z"/><circle class="cls-28" cx="342.76" cy="668.34" r="6.54"/><circle class="cls-28" cx="382.65" cy="668.34" r="6.54"/></g><g class="cls-31"><path class="cls-28" d="M397.25,492.88a9.49,9.49,0,0,1-9.49,9.49H318a9.49,9.49,0,0,1-9.49-9.49V441.26a9.49,9.49,0,0,1,9.49-9.49h69.72a9.49,9.49,0,0,1,9.49,9.49Zm-6-51.84a3.23,3.23,0,0,0-3.23-3.23H317.82a3.23,3.23,0,0,0-3.23,3.23v51.45a3.24,3.24,0,0,0,3.23,3.24H388a3.24,3.24,0,0,0,3.23-3.24Z"/><path class="cls-28" d="M352.4,467.64a3.06,3.06,0,0,1-1.8-.58l-39.13-27.74a3.13,3.13,0,0,1,3.62-5.1l37.31,26.46,36.83-26.16a3.13,3.13,0,1,1,3.62,5.1l-38.63,27.44A3.2,3.2,0,0,1,352.4,467.64Z"/><path class="cls-28" d="M313.77,499.34l-.92-6.18.43,3.1-2.62-1.71c.72-1.16,14.83-25.84,24.14-42.15a3.13,3.13,0,0,1,5.43,3.1s-6,10.58-12.08,21.15c-3,5.29-6,10.58-8.33,14.55C315.28,499.1,315.28,499.1,313.77,499.34Z"/><path class="cls-28" d="M390.81,499.34c-1.51-.24-1.51-.24-6.05-8.14-2.28-4-5.31-9.26-8.33-14.55-6.05-10.57-12.09-21.15-12.09-21.15a3.13,3.13,0,0,1,5.43-3.1c9.31,16.31,23.42,41,24.15,42.15l-2.62,1.71Z"/></g><g class="cls-32"><path class="cls-28" d="M561.36,652.75a13.12,13.12,0,0,1-13.12,13.12H481.56a13.12,13.12,0,0,1-13.12-13.12V608.4a13.13,13.13,0,0,1,13.12-13.12h66.68a13.13,13.13,0,0,1,13.12,13.12Zm-4.83-44.14a7.29,7.29,0,0,0-7.3-7.29H483a7.29,7.29,0,0,0-7.3,7.29v43.33a7.3,7.3,0,0,0,7.3,7.3h66.25a7.3,7.3,0,0,0,7.3-7.3Z"/><rect class="cls-28" x="527.57" y="589.25" width="19.91" height="9.65" rx="4.54"/><rect class="cls-28" x="525.16" y="610.97" width="18.7" height="7.24" rx="3.36"/><path class="cls-28" d="M525.76,632.24A19.76,19.76,0,0,1,506,652h-1.51a19.76,19.76,0,0,1-19.76-19.76v-1.51A19.76,19.76,0,0,1,504.49,611H506a19.76,19.76,0,0,1,19.76,19.76Zm-6-2.5a13.94,13.94,0,0,0-13.94-13.94H504.1a13.94,13.94,0,0,0-13.94,13.94v1.68a13.94,13.94,0,0,0,13.94,13.94h1.69a13.94,13.94,0,0,0,13.94-13.94Z"/></g><g class="cls-27"><path class="cls-28" d="M350.26,825.51c-.69,0-1.37,0-2.06,0-23.55-1-41.93-19.79-41-41.8a38.36,38.36,0,0,1,13.82-27.74,44,44,0,0,1,30.63-10.29c23.55,1,41.93,19.79,41,41.79h0a38.4,38.4,0,0,1-13.82,27.74A43.88,43.88,0,0,1,350.26,825.51Zm-.63-74.29a38.26,38.26,0,0,0-24.92,9,32.84,32.84,0,0,0-11.85,23.7c-.82,18.91,15.14,35,35.59,35.92a38.47,38.47,0,0,0,26.73-9A32.84,32.84,0,0,0,387,787.18c.82-18.91-15.14-35-35.59-35.92C350.84,751.23,350.23,751.22,349.63,751.22Z"/><path class="cls-28" d="M360.15,785.72a112.72,112.72,0,0,1-1.61,19.58c-.29,1.61-.63,3.21-1,4.8a45.67,45.67,0,0,1-1.44,4.71,22.11,22.11,0,0,1-2.15,4.43,8.54,8.54,0,0,1-1.61,1.89,4.5,4.5,0,0,1-1.05.68,3.14,3.14,0,0,1-1.24.3,3.29,3.29,0,0,1-1.24-.23,4.56,4.56,0,0,1-1.08-.65,8.6,8.6,0,0,1-1.65-1.86,21.33,21.33,0,0,1-2.17-4.42,44.85,44.85,0,0,1-1.46-4.7c-.4-1.59-.75-3.19-1-4.8-.59-3.23-1-6.49-1.25-9.75s-.41-6.54-.42-9.82c0-1.64,0-3.28.09-4.92s.15-3.27.27-4.9c.24-3.27.61-6.53,1.14-9.76.27-1.62.58-3.23,1-4.82a48.21,48.21,0,0,1,1.36-4.73c.28-.77.58-1.54.92-2.28a16.19,16.19,0,0,1,1.17-2.17,8.22,8.22,0,0,1,1.61-1.87,4,4,0,0,1,1.07-.64,3,3,0,0,1,2.43.07,4.76,4.76,0,0,1,1,.66,9.27,9.27,0,0,1,1.65,1.83,22.58,22.58,0,0,1,2.25,4.37,44.81,44.81,0,0,1,1.55,4.67c.43,1.58.8,3.18,1.12,4.78A103.44,103.44,0,0,1,360.15,785.72Zm-.49,0c0-3.26-.11-6.52-.38-9.78a93.28,93.28,0,0,0-1.28-9.7c-.3-1.6-.65-3.2-1.06-4.77a44.31,44.31,0,0,0-1.49-4.66,22.12,22.12,0,0,0-2.18-4.35,8.91,8.91,0,0,0-1.6-1.81,4.09,4.09,0,0,0-1-.65,3,3,0,0,0-1.16-.28,2.61,2.61,0,0,0-1.16.22,4,4,0,0,0-1,.62,8.15,8.15,0,0,0-1.56,1.85,16.91,16.91,0,0,0-1.13,2.15c-.33.74-.62,1.5-.88,2.28a42,42,0,0,0-1.3,4.71c-.36,1.59-.66,3.19-.91,4.8-.5,3.23-.82,6.48-1,9.74s-.27,6.52-.27,9.79.1,6.53.34,9.78.62,6.5,1.18,9.72c.28,1.6.6,3.2,1,4.78a44.92,44.92,0,0,0,1.4,4.68,21.78,21.78,0,0,0,2.12,4.37,8,8,0,0,0,1.57,1.81,4,4,0,0,0,1,.61,2.7,2.7,0,0,0,2.27-.06,4.17,4.17,0,0,0,1-.65,8.32,8.32,0,0,0,1.55-1.84,22.35,22.35,0,0,0,2.08-4.39,46.64,46.64,0,0,0,1.39-4.68c.38-1.58.71-3.18,1-4.79.56-3.21.93-6.46,1.17-9.71S359.66,789,359.66,785.72Z"/><path class="cls-28" d="M349.93,823.06a4,4,0,0,1-1.51-.3,5.32,5.32,0,0,1-1.31-.78,9.26,9.26,0,0,1-1.84-2.07,22.08,22.08,0,0,1-2.28-4.62,45.76,45.76,0,0,1-1.49-4.8c-.39-1.53-.74-3.13-1.05-4.87a98.59,98.59,0,0,1-1.27-9.84c-.26-3.21-.41-6.54-.42-9.9,0-1.75,0-3.48.09-5,.06-1.66.16-3.33.28-4.94.26-3.55.63-6.77,1.14-9.85.29-1.75.61-3.35,1-4.88a45.66,45.66,0,0,1,1.39-4.82c.31-.88.62-1.65.94-2.37a18.57,18.57,0,0,1,1.24-2.29,9.11,9.11,0,0,1,1.81-2.09,5.08,5.08,0,0,1,1.32-.79,4,4,0,0,1,1.61-.28,4.16,4.16,0,0,1,1.55.36,5.64,5.64,0,0,1,1.27.79,9.92,9.92,0,0,1,1.82,2,22.64,22.64,0,0,1,2.36,4.56,43.71,43.71,0,0,1,1.58,4.77c.43,1.54.8,3.13,1.14,4.86a103,103,0,0,1,1.82,19.73h0a111.69,111.69,0,0,1-1.63,19.73c-.31,1.75-.65,3.34-1,4.88a45.93,45.93,0,0,1-1.47,4.8,23.28,23.28,0,0,1-2.24,4.63,9.81,9.81,0,0,1-1.8,2.09,5.16,5.16,0,0,1-1.27.82,4.11,4.11,0,0,1-1.61.38Zm-.49-72.39a1.82,1.82,0,0,0-.72.15,2.75,2.75,0,0,0-.78.48,7,7,0,0,0-1.36,1.62,15.25,15.25,0,0,0-1.06,2c-.29.66-.57,1.38-.85,2.2a44.62,44.62,0,0,0-1.28,4.61c-.33,1.49-.62,3-.89,4.74-.47,3-.8,6.18-1,9.65-.19,3-.27,6.15-.27,9.73,0,3.3.11,6.56.34,9.71.26,3.45.64,6.6,1.16,9.62.3,1.69.62,3.23,1,4.72a41.34,41.34,0,0,0,1.38,4.58,19.82,19.82,0,0,0,2,4.17,7.34,7.34,0,0,0,1.38,1.6,3.21,3.21,0,0,0,.76.47,2.38,2.38,0,0,0,.76.15,2,2,0,0,0,.76-.2,3,3,0,0,0,.76-.5,7.9,7.9,0,0,0,1.37-1.64,21.16,21.16,0,0,0,2-4.19,44.75,44.75,0,0,0,1.36-4.59c.37-1.47.68-3,1-4.72.51-3,.89-6.14,1.15-9.62.24-3.14.36-6.41.36-9.72h0c0-3.29-.12-6.55-.38-9.7a95.36,95.36,0,0,0-1.26-9.6c-.31-1.68-.66-3.22-1.05-4.71a46.33,46.33,0,0,0-1.45-4.55,21.11,21.11,0,0,0-2.09-4.16,7.79,7.79,0,0,0-1.41-1.62,3.44,3.44,0,0,0-.8-.51,2,2,0,0,0-.78-.2Z"/><path class="cls-28" d="M376.61,785.72a48.48,48.48,0,0,1-1.69,12.51,40.6,40.6,0,0,1-5.21,11.47,32.83,32.83,0,0,1-4,4.89,28.15,28.15,0,0,1-4.9,4,23.9,23.9,0,0,1-5.72,2.63,21.79,21.79,0,0,1-6.22.93,21.43,21.43,0,0,1-6.21-.93,23.38,23.38,0,0,1-5.73-2.62,27.81,27.81,0,0,1-4.9-3.95,32.86,32.86,0,0,1-4-4.9,40.25,40.25,0,0,1-5.23-11.47,46.65,46.65,0,0,1-1.26-6.2,46.59,46.59,0,0,1,0-12.63,45.14,45.14,0,0,1,1.27-6.2,40.19,40.19,0,0,1,5.23-11.46,33.53,33.53,0,0,1,4-4.89,28.25,28.25,0,0,1,4.91-4,23.12,23.12,0,0,1,5.72-2.61,21.17,21.17,0,0,1,12.41,0,23.62,23.62,0,0,1,5.71,2.62,27.81,27.81,0,0,1,4.9,4,33.35,33.35,0,0,1,4,4.89,40.17,40.17,0,0,1,5.22,11.46A48,48,0,0,1,376.61,785.72Zm-.56,0a47,47,0,0,0-1.62-12.37,40.22,40.22,0,0,0-5-11.39,33.19,33.19,0,0,0-3.89-4.88,27.32,27.32,0,0,0-4.82-4A23.35,23.35,0,0,0,355,750.5a21.72,21.72,0,0,0-6.15-.93,21.31,21.31,0,0,0-6.14.94,23.35,23.35,0,0,0-5.64,2.62,27.39,27.39,0,0,0-4.81,4,32.11,32.11,0,0,0-3.88,4.88,40,40,0,0,0-5,11.38,44,44,0,0,0-1.21,6.13,48.16,48.16,0,0,0-.41,6.23,50,50,0,0,0,.41,6.24,47.3,47.3,0,0,0,1.21,6.12,40,40,0,0,0,5,11.38,33.19,33.19,0,0,0,3.89,4.88,27.58,27.58,0,0,0,4.8,3.95,23.15,23.15,0,0,0,5.64,2.62,20.49,20.49,0,0,0,12.27,0,23.29,23.29,0,0,0,5.64-2.61,27.2,27.2,0,0,0,4.81-3.95,32.17,32.17,0,0,0,3.89-4.88,39.79,39.79,0,0,0,5.05-11.38A47.37,47.37,0,0,0,376.05,785.72Z"/><path class="cls-28" d="M348.89,823.06a22.47,22.47,0,0,1-6.49-1,24.71,24.71,0,0,1-5.95-2.73,29.11,29.11,0,0,1-5.08-4.09,34.64,34.64,0,0,1-4.1-5,41.21,41.21,0,0,1-5.35-11.74,46.43,46.43,0,0,1-1.3-6.33,52.76,52.76,0,0,1-.43-6.44,50.74,50.74,0,0,1,.44-6.45,47.64,47.64,0,0,1,1.29-6.33,41.51,41.51,0,0,1,5.36-11.74,34.48,34.48,0,0,1,4.11-5,28.89,28.89,0,0,1,5.07-4.08,25.1,25.1,0,0,1,6-2.72,22.24,22.24,0,0,1,13,0,24.71,24.71,0,0,1,5.95,2.72,28.9,28.9,0,0,1,5.06,4.09,33.28,33.28,0,0,1,4.1,5A41.15,41.15,0,0,1,375.83,773a49.12,49.12,0,0,1,1.73,12.76h0a49.12,49.12,0,0,1-1.73,12.76,41.17,41.17,0,0,1-5.33,11.74,34.64,34.64,0,0,1-4.1,5,29,29,0,0,1-5.07,4.09,24.71,24.71,0,0,1-5.95,2.73A22.38,22.38,0,0,1,348.89,823.06Zm0-72.54a20.23,20.23,0,0,0-5.86.9,22.28,22.28,0,0,0-5.41,2.52,26.72,26.72,0,0,0-4.64,3.82,33,33,0,0,0-3.77,4.74,38.93,38.93,0,0,0-4.91,11.12,45.68,45.68,0,0,0-1.18,6,46.87,46.87,0,0,0,0,12.22,44.55,44.55,0,0,0,1.19,6,39,39,0,0,0,4.92,11.11,31.57,31.57,0,0,0,3.77,4.73,26.58,26.58,0,0,0,4.63,3.82A22.4,22.4,0,0,0,343,820a19.39,19.39,0,0,0,11.71,0,22.23,22.23,0,0,0,5.41-2.5,26.27,26.27,0,0,0,4.64-3.82,32.27,32.27,0,0,0,3.78-4.73,39.31,39.31,0,0,0,4.93-11.11,47.13,47.13,0,0,0,0-24.24,39.31,39.31,0,0,0-4.93-11.11,31.16,31.16,0,0,0-3.77-4.74,26.41,26.41,0,0,0-4.65-3.82,21.87,21.87,0,0,0-5.41-2.51A20.29,20.29,0,0,0,348.89,750.52Z"/><path class="cls-28" d="M316.55,771.33l8.33-.07,8.32,0,16.64,0,16.65,0,8.32,0,8.33.07,0,0s0,0,0,0l-8.33.07-8.32,0-16.65,0-16.64,0-8.32,0-8.33-.07a0,0,0,0,1,0,0S316.53,771.33,316.55,771.33Z"/><polygon class="cls-28" points="349.85 772.49 324.87 772.42 316.15 772.35 315.57 771.77 315.57 771.34 315.59 770.41 316.55 770.37 333.19 770.27 349.84 770.24 374.82 770.31 384.09 770.39 384.11 772.32 383.13 772.34 366.49 772.46 349.85 772.49"/><path class="cls-28" d="M326.21,757.33c2,0,3.94,0,5.91-.06l5.91,0c2,0,3.94,0,5.9,0h5.91l11.82,0,5.91,0c2,0,3.94,0,5.91.08h0s0,0,0,0c-2,0-3.94.05-5.91.08l-5.91,0-11.82,0h-5.91c-2,0-3.93,0-5.9,0l-5.91,0c-2,0-3.94,0-5.91-.06a0,0,0,1,1,0-.08Z"/><path class="cls-28" d="M349.85,758.5l-7.45,0H338l-7.88-.06-3.95,0h-.93l0-1.94,1,0,3.82,0,8-.06h4.16l7.66,0,19.89.1,3.77,0,1,0,0,1.91-.94,0-3.93,0-7.88.06Z"/><path class="cls-28" d="M313.66,785.32l9-.07,9,0,18.09,0,18.1,0,9,0,9,.07s0,0,0,0l0,0-9,.08-9,0-18.1,0-18.09,0-9,0-9-.07s0,0,0,0A0,0,0,0,1,313.66,785.32Z"/><polygon class="cls-28" points="349.85 786.49 322.7 786.42 312.71 786.34 312.67 784.4 313.65 784.37 331.75 784.26 349.84 784.23 376.99 784.31 386.43 784.38 387.01 784.97 386.97 786.31 386.03 786.34 367.94 786.45 349.85 786.49"/><path class="cls-28" d="M316.55,799.32l8.33-.07,8.32,0,16.64,0,16.65,0,8.32,0,8.33.07h0s0,0,0,0l-8.33.07-8.32,0-16.65,0-16.64,0-8.32,0-8.33-.07s0,0,0,0A0,0,0,0,1,316.55,799.32Z"/><polygon class="cls-28" points="349.85 800.48 324.87 800.41 316.15 800.34 315.57 799.76 315.57 799.33 315.59 798.4 316.54 798.36 333.19 798.26 349.84 798.23 374.82 798.3 384.09 798.38 384.11 800.31 383.13 800.33 366.49 800.45 349.85 800.48"/><path class="cls-28" d="M374.67,813.47H327.4a.12.12,0,0,1-.13-.12.13.13,0,0,1,.13-.13h47.27a.13.13,0,0,1,.13.13A.12.12,0,0,1,374.67,813.47Z"/><path class="cls-28" d="M374.67,814.43H327.4a1.09,1.09,0,0,1,0-2.17h47.27a1.09,1.09,0,0,1,0,2.17Z"/></g><g class="cls-31"><path class="cls-28" d="M484.68,822.14H472c-2.79,0-5.36-2-5.36-4.85V792.92a5.4,5.4,0,0,1,5.36-5.17h12.69c2.75,0,4.28,2.3,4.28,5.17v24.37C489,820.16,487.43,822.14,484.68,822.14Zm-.55-4.76v0ZM472,793.18s.07-.32.07-.26v24.37a.24.24,0,0,1,0,.09h12.31s-.23-.06-.23-.09V792.92a2.57,2.57,0,0,1,.41.26Z"/><path class="cls-28" d="M508.29,822.14H496.38c-2.71,0-5.61-2-5.61-4.85V779.08c0-2.83,2.9-5.2,5.61-5.2h11.91c2.66,0,4.2,2.22,4.2,5.2v38.21C512.49,820.26,511,822.14,508.29,822.14Zm-11.77-4.82h11.32a2,2,0,0,0,.42,0V779.08s-.42-1-.42-1H496.52s-.32.94-.32,1v38.21S496.52,817.32,496.52,817.32Z"/><path class="cls-28" d="M537.83,817.62a5.13,5.13,0,0,1-5.13,5.13H519.42a5.13,5.13,0,0,1-5.12-5.13V766.93a5.12,5.12,0,0,1,5.12-5.12H532.7a5.13,5.13,0,0,1,5.13,5.12ZM533,766.12a.09.09,0,0,0-.09-.09H519.82a.09.09,0,0,0-.09.09v50.5a.09.09,0,0,0,.09.09h13.09a.09.09,0,0,0,.09-.09Z"/><path class="cls-28" d="M563.17,816.41a5.13,5.13,0,0,1-5.13,5.13H544.76a5.13,5.13,0,0,1-5.12-5.13V755.47a5.13,5.13,0,0,1,5.12-5.13H558a5.13,5.13,0,0,1,5.13,5.13Zm-5.43-61.75a.09.09,0,0,0-.09-.09H544.56a.1.1,0,0,0-.1.09v60.76a.1.1,0,0,0,.1.09h13.09a.09.09,0,0,0,.09-.09Z"/></g><rect class="cls-1" x="151.68" y="367.82" width="556.29" height="82.66" rx="15.1"/><path class="cls-4" d="M201.86,389.6a16.5,16.5,0,0,0-22.12,24.49,16.91,16.91,0,0,0,20.7,1.05l4.53,4.09a5.13,5.13,0,0,0,1.42,3.61l15.07,13.61c1.9,1.72,4.77,1.11,6.49-.79l.1-.12a4.14,4.14,0,0,0-.22-6.14l-15.07-13.61c-1-.93-2.53-1.12-3.16-1.69L205.08,410A16.82,16.82,0,0,0,201.86,389.6ZM182.8,411.83a12.63,12.63,0,1,1,17.84-.91A12.63,12.63,0,0,1,182.8,411.83Z"/><path class="cls-4" d="M185.74,407.77l-.12.13a1.3,1.3,0,0,1-1.83-.16,9.41,9.41,0,0,1,.21-12.35,1.3,1.3,0,1,1,1.92,1.74,6.82,6.82,0,0,0-.15,8.94A1.29,1.29,0,0,1,185.74,407.77Z"/><rect class="cls-4" x="251.84" y="384.71" width="439.24" height="48.27" rx="9.45"/><rect class="cls-3" x="265.11" y="393.76" width="4.22" height="30.77" rx="2.04"/><path class="cls-33" d="M828.3,964.06s1.16,6.57,1.73,13.07a4.48,4.48,0,0,1-4.29,4.85c-8.65.36-27.18,1.06-33.82.77a1.46,1.46,0,0,1-1.28-2h0A3.25,3.25,0,0,1,792.3,979l30.6-14.06Z"/><path class="cls-34" d="M829.25,960.2l-.93,7.85s-5.36,2.5-9-.31l2.22-8.75Z"/><path class="cls-35" d="M828.55,812.49c.4,2.06,2.16,102.39-8.56,147.35a1.51,1.51,0,0,0,.89,1.77,26.39,26.39,0,0,0,8.74,1.78,2.62,2.62,0,0,0,2.6-1.89c3.07-10.43,17.76-62.7,19.68-112.62,2.14-55.79,0-1.9,0-1.9l-1.26-34.49Z"/><path class="cls-36" d="M863.49,967.48s1.85,3.32,3.64,12.13a2.73,2.73,0,0,1-2.41,3.27c-2.86.29-7.26.65-10.78.62a2.72,2.72,0,0,1-2.7-3c.39-3.21,1.61-8.49,5.36-12.6Z"/><path class="cls-37" d="M865.11,957.38l-2.17,11.88s-2.16,1.6-6.42.44l1-12.78Z"/><path class="cls-38" d="M871,815.57c8.77,52.94-1.9,130.84-5.5,146.08a2.39,2.39,0,0,1-1.92,1.81,16,16,0,0,1-6.86-.27,2.18,2.18,0,0,1-1.57-2c-.48-12.33.39-88-7.79-117.91a6.78,6.78,0,0,0-2.62-3.74l-15.86-11.28L827.66,810Z"/><path class="cls-39" d="M815.11,715.27c26.28-.43,55.29,6.9,55.29,6.9,7.83,45.72,1.37,98.45,1.37,98.45-20.35,5.34-43.31-3.26-43.31-3.26-3.38-19.11-19.16-72.89-19.16-72.89a86.46,86.46,0,0,1-32.14-10.2c6.65-7.7,9.78-17.5,11.14-23.3A88.32,88.32,0,0,0,815.11,715.27Z"/><path class="cls-40" d="M737.46,676.55a5,5,0,0,1,5.85-1.64c3.87,16.34,24.15,29.59,45,36.06-1.36,5.8-4.49,15.6-11.14,23.3C742.58,714.83,737.46,676.55,737.46,676.55Z"/><path class="cls-41" d="M738.09,677.35c-.27.85,2.86,2.16,4.7-1.35.07-1.68,1.09-8.9.08-10.27-5.36-7.3-15.74-16.46-15.74-16.46a2.46,2.46,0,0,0-.31,3.43l5,5.25c-1.06,1.91-2.34,3.52-3,5.82a7.11,7.11,0,0,0,.71,5.2c.88,1.59,2.09,3.66,3.23,5.28A7,7,0,0,0,738.09,677.35Z"/><path class="cls-42" d="M734.06,661.36l4.59,3.89,1.45,3.88-4.1,4.54s-1.38-7.69-2.4-9.35S733.11,661.85,734.06,661.36Z"/><path class="cls-43" d="M860.32,747.62l10.08-25.45S895,738.85,899,760a55.8,55.8,0,0,0-20.68,5.79C874.58,757.41,860.32,747.62,860.32,747.62Z"/><path class="cls-44" d="M841.73,693.93l8.37,24.19a.88.88,0,0,1-.4,1c-2.28,1.26-10.49,4.9-20.39-1.37a4.1,4.1,0,0,1-1.89-2.94l-2.71-20.93Z"/><path class="cls-45" d="M823.53,671.53s-9.18,17.29-8,24.27,12.56,6.49,22.5.81L845,678Z"/><path class="cls-1" d="M837.59,687.45a.71.71,0,0,1-.31-1.05,18.64,18.64,0,0,0,2.55-5.42s1.65-1.06-4.2-2.46-14.58-3.58-16.42-8.56,2.91-17.07,10.41-7.34a.71.71,0,0,0,1.13,0c1.23-1.6,4.46-4.92,9-2.91,4.2,1.89,4.67,5,4.61,6.51a.71.71,0,0,0,.84.73c2.13-.41,7.22-.75,9.6,4.47,2,4.31.68,6.74-.48,7.94a.71.71,0,0,0,.31,1.18c1.39.42,3.19,1.61,3,4.87-.24,4.52-5.3,4.12-6.74,3.92a.74.74,0,0,0-.63.22c-1.23,1.37-6.79,7.16-12.8,7.86a.72.72,0,0,1-.76-.95l2.61-7.56a.72.72,0,0,0-.39-.89Z"/><path class="cls-46" d="M836.54,688.52s6.54-4.49,7-.71-5.89,5.48-9,4.07Z"/><path class="cls-47" d="M785.26,902.27a1.83,1.83,0,0,0,1.8-1.5l11.92-64a1.83,1.83,0,0,0-3.6-.67l-11.92,64a1.84,1.84,0,0,0,1.47,2.14Z"/><path class="cls-48" d="M700.66,904.64h98a3.66,3.66,0,1,0,0-7.32H703.06l-24.75-57.23H819.69a3.66,3.66,0,1,0,0-7.32h-147a3.66,3.66,0,0,0-3.36,5.11l27.93,64.56A3.65,3.65,0,0,0,700.66,904.64Z"/><path class="cls-49" d="M707.16,968.71h77.2A3.82,3.82,0,0,0,788,966l46-153.4H866.1a3.82,3.82,0,1,0,0-7.63h-35a3.82,3.82,0,0,0-3.66,2.72l-46,153.4H707.16a3.82,3.82,0,1,0,0,7.63Z"/><path class="cls-50" d="M769,902.56a1.84,1.84,0,0,0,1.83-1.79l1.27-63.39a1.84,1.84,0,0,0-1.8-1.87,1.81,1.81,0,0,0-1.86,1.8l-1.27,63.38a1.83,1.83,0,0,0,1.79,1.87Z"/><path class="cls-51" d="M750.37,902.27a1.83,1.83,0,0,0,1.83-1.83v-63.1a1.83,1.83,0,0,0-3.66,0v63.1A1.83,1.83,0,0,0,750.37,902.27Z"/><path class="cls-52" d="M728.56,902h0a1.83,1.83,0,0,0,1.82-1.85l-.43-62.8a1.84,1.84,0,0,0-1.83-1.82h0a1.83,1.83,0,0,0-1.81,1.85l.43,62.8A1.84,1.84,0,0,0,728.56,902Z"/><path class="cls-53" d="M714.39,901.44a2.07,2.07,0,0,0,.35,0,1.84,1.84,0,0,0,1.45-2.15l-11.9-61.35a1.83,1.83,0,1,0-3.6.7L712.59,900A1.84,1.84,0,0,0,714.39,901.44Z"/><path class="cls-54" d="M679.42,854H814.63a1.83,1.83,0,1,0,0-3.66H679.42a1.83,1.83,0,1,0,0,3.66Z"/><path class="cls-55" d="M687.56,872.61h121a1.83,1.83,0,1,0,0-3.66h-121a1.83,1.83,0,1,0,0,3.66Z"/><path class="cls-56" d="M695.7,889.77H803.87a1.84,1.84,0,0,0,0-3.67H695.7a1.84,1.84,0,0,0,0,3.67Z"/><circle class="cls-57" cx="784.2" cy="974.43" r="9.53" transform="translate(-145.96 138.2) rotate(-9.22)"/><path class="cls-58" d="M777.58,974.43a6.89,6.89,0,1,0,6.88-6.89A6.88,6.88,0,0,0,777.58,974.43Z"/><circle class="cls-59" cx="712.08" cy="974.43" r="9.53" transform="translate(-204.83 189.67) rotate(-13.28)"/><path class="cls-60" d="M705.46,974.43a6.89,6.89,0,1,0,6.89-6.89A6.88,6.88,0,0,0,705.46,974.43Z"/><path class="cls-61" d="M898.82,760.21S915.6,798.43,874.58,804l-5.6-4.66s20.52-11.19,9.33-33.57C878.31,765.8,890.43,755.55,898.82,760.21Z"/><path class="cls-62" d="M869,799.37H854.07s-9.32,12.12-8.39,14.91,10.14.58,10.14.58l4.77-8s14,.94,14-2.79S869,799.37,869,799.37Z"/><path class="cls-28" d="M823.41,670.74l-.09,0a5.06,5.06,0,0,1-2.2-3.61c-.31-3,2.08-5.72,2.18-5.84a.15.15,0,1,1,.22.2s-2.4,2.78-2.1,5.61a4.81,4.81,0,0,0,2.08,3.4.15.15,0,0,1,0,.21A.14.14,0,0,1,823.41,670.74Z"/><path class="cls-1" d="M979.42,683.51s-2.61-16.14,16.29-14.46,22.48,18.71,25.18,40.6c2.21,17.92,20.16,31.57,30.84,44.69,13.45,16.52,16.63,37.87,6,57.23-8.71,15.83-28.55,17.36-44.3,13.14-48.2-12.91-60.55-14.6-56.56-46S979.42,683.51,979.42,683.51Z"/><path class="cls-63" d="M919.64,702.27a1,1,0,0,1,1.85.2c.9,3.24,3.08,8.88,7.64,10.89.23.1.45.2.66.31a2.3,2.3,0,0,0-.29-2.1c-1.42-2.17,1.15-5.14,1.15-5.14a6.64,6.64,0,0,0,2.15,4.26,6.33,6.33,0,0,1,1.36,7.14c-2.47,9.6-6.17,22.3,8.24,31.57s34.72-17.5,34.72-17.5L967,763.84s-15.55,11.48-33.64-4.66-6.1-39.62-6.1-39.62S913.51,714,919.64,702.27Z"/><path class="cls-64" d="M978.46,728.39c4.32-1.29,16.87-3.68,28.81,7.34a7.37,7.37,0,0,1,2.13,7.37c-3.2,11.81-11.67,46.7-4.25,61.79,0,0-13.07,14.42-27.34,2.8,0,0-6.4-27.9-14.78-40.15-5.79-8.45,9.23-31.74,13-37.37A4.47,4.47,0,0,1,978.46,728.39Z"/><path class="cls-65" d="M990.37,704.93s6.38,18,6.86,26a13.65,13.65,0,0,1-13.69-2.21s-.7-18-1.71-21.24Z"/><path class="cls-66" d="M981.51,680.34s-16.68,23.34-6.71,30.12,21.85-9.81,21.85-9.81,3.87-12.78-.18-17.11S981.51,680.34,981.51,680.34Z"/><path class="cls-1" d="M989.23,674.76s-7.66,1.81-8.73,5.28,10.86,6.68,14.21,6.84l2.69,14s8-13.16,4.82-20.76S989.23,674.76,989.23,674.76Z"/><path class="cls-1" d="M993.41,698.93s6.5-7.52,9.08-2.61-5.85,8.58-8.76,6.17Z"/><path class="cls-67" d="M961.16,866.26c.05,1.26-2.18,11.31-3.39,16.67a8.9,8.9,0,0,0,1,6.33l41.91,70.53a9.43,9.43,0,0,1,1.1,2.74c.77,3.31,2.36,11.43,1.53,18.81l-2.17,4.5,9.38-2.13,2-25.18-2.66-1.62a12.69,12.69,0,0,1-5.1-6c-3.79-9.2-13.2-32.64-15.62-44.05-2.76-13-17.17-23.52-17.17-23.52l2.53-6Z"/><path class="cls-68" d="M1020.89,975.05s-5.06-8-5.66-11.16-2.25-8.64-5.38-7c0,0-1.47,15.18-1,21.11s-6.7,5.74-6.7,5.74a6.75,6.75,0,0,0-3.45,1.74,1.69,1.69,0,0,0,1.13,2.84,40.79,40.79,0,0,0,10-.57,3.07,3.07,0,0,0,2.48-2.84l1-17.47,6.38,8.07Z"/><path class="cls-69" d="M986.19,877.49s1.48,63.09,1.68,72-1.41,28.82-10.4,34.76l3.91,2.89A52.09,52.09,0,0,0,991,975.05c5.36-9,7-10.62,7-10.62l-1.78-3.64a8.06,8.06,0,0,1-.65-5.14c1.94-9.39,8.42-40.64,10.18-47.37,2.09-7.94,2.24-18.55-5-27.43S986.19,877.49,986.19,877.49Z"/><path class="cls-70" d="M994.49,990a.55.55,0,0,0,.55-.48c.3-2.1,1.55-10.53,2.57-12.72,1.16-2.5,5-13,0-13.92,0,0-12.37,18.09-14.75,20.53a4.68,4.68,0,0,1-5.38.85,8.94,8.94,0,0,0-4.06,2.91,1.65,1.65,0,0,0,1.29,2.64l8.34.08a5.87,5.87,0,0,0,5.5-3.7c1.47-3.66,4-9,6.93-11.43l-1.53,14.62a.57.57,0,0,0,.55.62Z"/><path class="cls-71" d="M975.84,800.88s1.88,6-1,15.86l-17.9,62.52a1.93,1.93,0,0,0,1.21,2.36c5.35,1.92,23,7.35,47,5.7a2.73,2.73,0,0,0,2.49-2.13c1.58-7.13,7-31.45,8.1-36.44,4.24-19,9-39.58-11.85-52C994.27,800.86,985.32,803.29,975.84,800.88Z"/><path class="cls-72" d="M1009,738.09s20.37,16.93,25.43,40.06-29.77,25.6-29.77,25.6-4.73-5.28-10.34-3.4-.43-9.21,6.13-9.19,3.53,5.23,12.82,1c9-4.1,14.64-16.78-8.45-36a10.47,10.47,0,0,1-3-4.16C997.27,740.74,1000.82,733.34,1009,738.09Z"/><path class="cls-73" d="M1031.86,820.38a24.73,24.73,0,0,1-3.81-.29.15.15,0,0,1-.12-.18.15.15,0,0,1,.17-.12,26.28,26.28,0,0,0,13.5-1.54c4.07-1.76,8.62-7,11.52-11.35,6.09-9.11,7.32-19.28,3.66-30.25-2.74-8.21-8.22-17-16.76-26.91-3.72-4.31-7.77-8.69-12-13a.15.15,0,0,1,.21-.21c4.28,4.32,8.35,8.7,12.07,13,8.56,9.92,14.06,18.75,16.81,27,3.7,11.06,2.45,21.33-3.69,30.52-2.93,4.36-7.52,9.67-11.65,11.46A26,26,0,0,1,1031.86,820.38Z"/><path class="cls-74" d="M982.69,677.65l-.07,0a.15.15,0,0,1-.07-.2s2.35-5.12,9.14-5.12a.15.15,0,0,1,.15.16.15.15,0,0,1-.15.15c-6.6,0-8.85,4.89-8.87,4.94A.15.15,0,0,1,982.69,677.65Z"/><path class="cls-75" d="M143.72,958c-6.27.54-17.16,1.43-25.75,1.8-5.16.23-8.13-.27-9.85-1,0,.19,0,.38,0,.55a1.77,1.77,0,0,0,1.69,1.67,300.92,300.92,0,0,0,33.72,0,1.26,1.26,0,0,0,1-1.9A9.49,9.49,0,0,0,143.72,958Z"/><path class="cls-76" d="M118,959.81c8.59-.37,19.48-1.26,25.75-1.8-6.17-7.57-25.75-12.67-25.75-12.67h-5.53a23.17,23.17,0,0,0-4.32,13.51C109.84,959.54,112.81,960,118,959.81Z"/><path class="cls-77" d="M111.51,936.31l.51,10.24a2.35,2.35,0,0,0,2,2.2,9.11,9.11,0,0,0,4.16-.34,2.79,2.79,0,0,0,1.86-2.13l1.79-10Z"/><path class="cls-78" d="M39.66,959.74c-2.72-.38-3.95-1.8-4.47-3.31v0a3.55,3.55,0,0,0,2.39,4,15.5,15.5,0,0,0,6.59,1,6.58,6.58,0,0,0,5-2.28l0,0C47.08,960.25,44.2,960.37,39.66,959.74Z"/><path class="cls-79" d="M52.49,936.24H47.93c-7-.14-11.31,14.52-12.74,20.19.52,1.51,1.75,2.93,4.47,3.31,4.54.63,7.42.51,9.47-.5,3.75-4.94,5.61-12.18,6.51-16.4A5.76,5.76,0,0,0,52.49,936.24Z"/><path class="cls-80" d="M48.52,926.74,46,936.81a2.74,2.74,0,0,0,1.43,3.1,9.67,9.67,0,0,0,5.24,1.27,2.28,2.28,0,0,0,1.87-1.52l3.72-10.6Z"/><path class="cls-81" d="M45.5,929.65c3.15,2.79,13.4,3.16,13.4,3.16,36.92-88.62,52-101.21,52-101.21-5.33,33.45-.86,107.51-.86,107.51,6.09,2.68,14,0,14,0a570.7,570.7,0,0,1,18.85-140.17c-25-.56-38.23-9.1-42.56-12.53C79.51,820,45.5,929.65,45.5,929.65Z"/><path class="cls-82" d="M106.65,684.49c-4.73,23.57-3,65.74-1.92,85,.31,5.41-3.46,12.9-6.51,18a1.6,1.6,0,0,0,.64,2.25c5.11,2.63,22.41,10.76,42.47,11.77a2.85,2.85,0,0,0,2.87-2.13c14.88-55.54,32.16-91,32.16-91C157.28,677.88,106.65,684.49,106.65,684.49Z"/><path class="cls-83" d="M113.45,829.5a1.16,1.16,0,0,1-.62-.17,1.17,1.17,0,0,1-.39-1.62A37,37,0,0,1,127.08,815a1.18,1.18,0,1,1,1,2.13,35.22,35.22,0,0,0-13.64,11.81A1.21,1.21,0,0,1,113.45,829.5Z"/><path class="cls-84" d="M77,752.12c1.52,11,6,22.94,15,35.66L95.4,785a105.09,105.09,0,0,1-1.7-34.08C88.17,749.84,81.63,751,77,752.12Z"/><path class="cls-85" d="M111.92,713.57l-5.27-29.08S71.4,711.44,77,752.12c4.61-1.17,11.15-2.28,16.68-1.2C95.31,737.86,100.12,723.69,111.92,713.57Z"/><path class="cls-86" d="M176.36,708.34l-13.61,29.3c2.2,17.69,11.7,25.34,21.95,28.28a62.29,62.29,0,0,1,4.57-19.09C176.18,733.31,176.36,708.34,176.36,708.34Z"/><path class="cls-87" d="M189.27,746.83a62.29,62.29,0,0,0-4.57,19.09c27.34,10.6,34.58-10,34.58-10l-5.06-.89C202.81,756.26,194.84,752.58,189.27,746.83Z"/><path class="cls-88" d="M163.82,672.16l-6.57,24.15a4.69,4.69,0,0,1-6.28,3.12,94.17,94.17,0,0,1-9.47-4.32,6.34,6.34,0,0,1-2.23-9.1l13.65-20.36Z"/><path class="cls-1" d="M231.81,739.79,63.48,801.06a12.88,12.88,0,0,0-7.32,17.44l.51,1.13a12,12,0,0,0,15.93,5.91l163.45-75.61Z"/><ellipse class="cls-89" cx="309.18" cy="702.94" rx="83.09" ry="81.59"/><path class="cls-1" d="M309.18,612.15c-51.07,0-92.46,40.65-92.46,90.79s41.39,90.79,92.46,90.79,92.46-40.65,92.46-90.79S360.24,612.15,309.18,612.15Zm0,168.25c-43.57,0-78.88-34.68-78.88-77.46s35.31-77.46,78.88-77.46,78.87,34.68,78.87,77.46S352.74,780.4,309.18,780.4Z"/><path class="cls-90" d="M223.75,714.12a.54.54,0,0,1-.55-.48c-.28-2.16-.47-4.34-.58-6.51a.56.56,0,0,1,.53-.58.54.54,0,0,1,.58.53c.1,2.13.29,4.29.57,6.42a.57.57,0,0,1-.48.62Zm.63-25.39h-.1a.56.56,0,0,1-.45-.64,84,84,0,0,1,5-17.06h0c13.32-32.31,44.86-53.19,80.36-53.19a87.53,87.53,0,0,1,46.53,13.3.55.55,0,0,1,.17.77.54.54,0,0,1-.76.17,86.4,86.4,0,0,0-45.94-13.13c-35.05,0-66.19,20.61-79.34,52.51h0a82.2,82.2,0,0,0-4.91,16.83A.57.57,0,0,1,224.38,688.73Z"/><path class="cls-91" d="M178.19,653.81c.06.41-5.48,27.56-5.48,27.56l-15.43-3.49,1.43-26.51S177.19,646.87,178.19,653.81Z"/><path class="cls-1" d="M162.18,657.28l-1.84,13.89a1.57,1.57,0,0,0,0,.53c.15,1.09,1,4.8,4.71,3.74,3.39-1,6.51-1.79,8.66-1.13a1.94,1.94,0,0,1,1.34,2.26,84,84,0,0,1-3.55,12.65,2,2,0,0,1-2.37,1.15,62.73,62.73,0,0,1-13.6-5.56,2,2,0,0,1-.95-1.77c.14-3.5.55-14.16.21-17.15-.33-2.81-3.77-4.49-5.26-5.09a2,2,0,0,1-1.08-1.08c-.69-1.73-1.64-5.75,3.42-7.4a2,2,0,0,0,1.24-2.53c-.75-2.09-1.07-5.27,2.85-7s6.95.34,8.56,2.06a2,2,0,0,0,2.49.3,1.55,1.55,0,0,1,1.77.06,1.93,1.93,0,0,0,2.73-.83A5.83,5.83,0,0,1,178.3,641c6.92,1.18,7.7,8.84,5.87,13.33s-9.24,2.78-13,.52c-2.83-1.72-6.5.08-8.1,1A1.92,1.92,0,0,0,162.18,657.28Z"/><path class="cls-92" d="M154.17,671s2.84-8-.08-9.91-7.25-.94-6.29,4.83C149,673,154.17,671,154.17,671Z"/><path class="cls-93" d="M94,784.52l15.91-1.3,6.89,6.35s-1.63,2.26-6.72,1A73.51,73.51,0,0,0,98,788.92s-7,3.17-7.12-2.76Z"/><path class="cls-94" d="M217.25,759.72c1.38,1.07,6.09-1.17,9-2.73a3.32,3.32,0,0,0,1.6-3.92c-.69-2.19-1.85-5-3.28-5.37C222.19,747.11,211.58,755.29,217.25,759.72Z"/><path class="cls-95" d="M66.8,823.12l-.18,0c-6.54-2.26-8.06-6.12-8.18-9a9.93,9.93,0,0,1,6.48-9.58l20.22-7.88a.54.54,0,0,1,.71.31.56.56,0,0,1-.31.72l-20.21,7.88a8.86,8.86,0,0,0-5.79,8.5c.16,3.63,2.67,6.31,7.44,8a.56.56,0,0,1,.35.7A.57.57,0,0,1,66.8,823.12Z"/><path class="cls-95" d="M91.56,795.31a.54.54,0,0,1-.51-.35.56.56,0,0,1,.31-.72l2.62-1a.55.55,0,0,1,.72.31.56.56,0,0,1-.31.72l-2.62,1A.52.52,0,0,1,91.56,795.31Z"/><path class="cls-28" d="M116.84,312l-3,1.34a.94.94,0,0,1-.77-1.71h0l3-1.33a.94.94,0,0,1,.76,1.71Z"/><path class="cls-28" d="M107,316.62l-2.91,1.53a1,1,0,1,1-.89-1.71h0l2.92-1.51a1,1,0,1,1,.88,1.69Z"/><path class="cls-28" d="M97.42,321.88l-2.82,1.69a1,1,0,1,1-1-1.68h0l2.82-1.69a1,1,0,0,1,1,1.68Z"/><path class="cls-28" d="M88.19,327.69l-2.72,1.86a1,1,0,0,1-1.13-1.66h0L87.06,326a1,1,0,0,1,1.13,1.65Z"/><path class="cls-28" d="M79.31,334l-2.6,2a1,1,0,1,1-1.25-1.63h0l2.61-2A1,1,0,0,1,79.31,334Z"/><path class="cls-28" d="M70.81,340.86,68.33,343A1,1,0,1,1,67,341.43h0l2.5-2.14a1,1,0,1,1,1.35,1.57Z"/><path class="cls-28" d="M62.71,348.16l-2.36,2.29a1.07,1.07,0,0,1-1.49-1.53h0l2.37-2.28a1.06,1.06,0,1,1,1.47,1.52Z"/><path class="cls-28" d="M55,355.91l-2.23,2.42a1.09,1.09,0,1,1-1.6-1.48h0l2.25-2.41A1.08,1.08,0,1,1,55,355.91Z"/><path class="cls-28" d="M47.77,364.07l-2.09,2.53A1.11,1.11,0,0,1,44,365.19h0l2.11-2.53a1.1,1.1,0,0,1,1.69,1.41Z"/><path class="cls-28" d="M41,372.61l-2,2.65a1.13,1.13,0,0,1-1.82-1.34h0l2-2.64A1.13,1.13,0,0,1,41,372.61Z"/><path class="cls-28" d="M34.68,381.51l-1.8,2.75a1.16,1.16,0,0,1-1.6.33A1.15,1.15,0,0,1,31,383h0l1.82-2.75a1.14,1.14,0,0,1,1.91,1.26Z"/><path class="cls-28" d="M28.87,390.75l-1.65,2.85a1.17,1.17,0,1,1-2-1.18h0l1.66-2.84a1.16,1.16,0,1,1,2,1.17Z"/><path class="cls-28" d="M23.59,400.29l-1.49,2.94A1.19,1.19,0,1,1,20,402.15h0l1.5-2.93a1.19,1.19,0,0,1,2.11,1.08Z"/><path class="cls-28" d="M18.85,410.11l-1.32,3a1.2,1.2,0,0,1-1.59.63,1.21,1.21,0,0,1-.63-1.6h0l1.34-3a1.2,1.2,0,1,1,2.2,1Z"/><path class="cls-28" d="M14.68,420.18l-1.14,3.08a1.23,1.23,0,1,1-2.31-.86h0l1.15-3.08a1.23,1.23,0,1,1,2.3.86Z"/><path class="cls-28" d="M11.1,430.46l-1,3.15a1.26,1.26,0,1,1-2.4-.74h0l1-3.14a1.24,1.24,0,1,1,2.38.73Z"/><path class="cls-28" d="M8.13,440.93l-.77,3.2a1.28,1.28,0,1,1-2.48-.6h0l.79-3.2a1.27,1.27,0,1,1,2.46.6Z"/><path class="cls-28" d="M5.8,451.57l-.58,3.24a1.3,1.3,0,0,1-2.56-.46h0l.59-3.24a1.29,1.29,0,0,1,2.54.46Z"/><path class="cls-28" d="M4.11,462.33l-.38,3.27a1.31,1.31,0,0,1-1.46,1.15,1.32,1.32,0,0,1-1.16-1.46h0l.4-3.27a1.31,1.31,0,1,1,2.6.31Z"/><path class="cls-28" d="M3.08,473.17l-.18,3.28a1.34,1.34,0,0,1-2.68-.15h0L.42,473a1.33,1.33,0,1,1,2.66.16Z"/><path class="cls-28" d="M2.69,484v3.29a1.35,1.35,0,1,1-2.69,0H0V484a1.35,1.35,0,0,1,2.69,0Z"/><path class="cls-28" d="M2.92,494.93l.2,3.28a1.35,1.35,0,0,1-2.7.16h0l-.19-3.29a1.35,1.35,0,1,1,2.69-.15Z"/><path class="cls-28" d="M3.79,505.78l.38,3.27a1.36,1.36,0,0,1-1.2,1.5,1.34,1.34,0,0,1-1.5-1.19h0l-.38-3.27a1.36,1.36,0,0,1,2.7-.31Z"/><path class="cls-28" d="M5.26,516.57l.56,3.24a1.37,1.37,0,1,1-2.69.47h0L2.57,517a1.36,1.36,0,0,1,2.69-.46Z"/><path class="cls-28" d="M7.34,527.26l.74,3.21a1.38,1.38,0,1,1-2.68.62h0l-.74-3.21a1.38,1.38,0,0,1,2.68-.62Z"/><path class="cls-28" d="M10,537.83l.92,3.16a1.38,1.38,0,0,1-2.65.77h0l-.92-3.16a1.38,1.38,0,0,1,2.65-.77Z"/><path class="cls-28" d="M13.25,548.23l1.09,3.11a1.39,1.39,0,1,1-2.62.92h0l-1.09-3.1a1.39,1.39,0,1,1,2.62-.92Z"/><path class="cls-28" d="M17.05,558.44l1.27,3a1.4,1.4,0,0,1-2.58,1.07h0l-1.26-3a1.4,1.4,0,0,1,.76-1.82A1.38,1.38,0,0,1,17.05,558.44Z"/><path class="cls-28" d="M21.42,568.42l1.43,3a1.4,1.4,0,1,1-2.53,1.22h0l-1.42-3a1.4,1.4,0,1,1,2.52-1.21Z"/><path class="cls-28" d="M26.33,578.14,27.92,581a1.41,1.41,0,0,1-2.47,1.36h0l-1.58-2.89a1.41,1.41,0,0,1,2.46-1.36Z"/><path class="cls-28" d="M31.78,587.58l1.75,2.78a1.42,1.42,0,1,1-2.4,1.51h0l-1.75-2.79a1.42,1.42,0,1,1,2.4-1.5Z"/><path class="cls-28" d="M37.75,596.68l1.9,2.68A1.42,1.42,0,1,1,37.33,601h0l-1.9-2.68a1.42,1.42,0,1,1,2.32-1.65Z"/><path class="cls-28" d="M44.22,605.42,46.28,608A1.43,1.43,0,0,1,44,609.78h0l-2-2.57a1.43,1.43,0,0,1,2.23-1.79Z"/><path class="cls-28" d="M51.19,613.77l2.21,2.44a1.44,1.44,0,0,1-2.14,1.93h0l-2.2-2.44a1.44,1.44,0,0,1,2.13-1.93Z"/><path class="cls-28" d="M58.65,621.69,61,624a1.45,1.45,0,1,1-2,2.06h0l-2.34-2.31a1.44,1.44,0,0,1,2-2.06Z"/><path class="cls-28" d="M66.57,629.15l2.48,2.15a1.45,1.45,0,0,1-1.9,2.2h0l-2.47-2.16a1.45,1.45,0,1,1,1.9-2.18Z"/><path class="cls-28" d="M74.92,636.13l2.6,2a1.46,1.46,0,1,1-1.79,2.31h0l-2.6-2a1.46,1.46,0,0,1,1.79-2.3Z"/><path class="cls-28" d="M83.66,642.63l2.7,1.86a1.47,1.47,0,1,1-1.66,2.42h0L82,645a1.47,1.47,0,0,1,1.67-2.41Z"/><path class="cls-28" d="M92.73,648.64l2.81,1.72A1.47,1.47,0,1,1,94,652.87h0l-2.81-1.72a1.47,1.47,0,0,1,1.54-2.51Z"/><path class="cls-28" d="M102.12,654.16l2.89,1.57a1.48,1.48,0,1,1-1.41,2.6h0l-2.89-1.57a1.48,1.48,0,0,1,1.41-2.6Z"/><path class="cls-28" d="M111.79,659.19l3,1.42a1.48,1.48,0,1,1-1.28,2.68h0l-3-1.42a1.49,1.49,0,1,1,1.29-2.68Z"/><path class="cls-28" d="M121.69,663.73l3,1.27a1.5,1.5,0,0,1-1.16,2.76h0l-3-1.28a1.49,1.49,0,1,1,1.16-2.75Z"/><path class="cls-28" d="M131.8,667.78l3.09,1.13a1.51,1.51,0,0,1-1,2.83h0l-3.09-1.14a1.5,1.5,0,0,1,1-2.82Z"/><path class="cls-28" d="M142.1,671.36l3.13,1a1.51,1.51,0,1,1-.9,2.88h0l-3.14-1a1.51,1.51,0,0,1,.91-2.88Z"/><path class="cls-28" d="M152.54,674.46l3.18.85a1.52,1.52,0,1,1-.78,2.93h0l-3.18-.85a1.5,1.5,0,0,1-1.07-1.85A1.52,1.52,0,0,1,152.54,674.46Z"/><path class="cls-28" d="M163.12,677.1l3.22.71a1.53,1.53,0,0,1-.65,3h0l-3.21-.71a1.53,1.53,0,0,1,.65-3Z"/><path class="cls-28" d="M173.81,679.28l3.25.57a1.52,1.52,0,0,1,1.24,1.77,1.54,1.54,0,0,1-1.77,1.25h0l-3.25-.58a1.53,1.53,0,1,1,.53-3Z"/><path class="cls-28" d="M184.58,681l3.27.43a1.54,1.54,0,0,1,1.32,1.73,1.53,1.53,0,0,1-1.72,1.32h0l-3.26-.43a1.54,1.54,0,0,1,.4-3Z"/><path class="cls-28" d="M195.42,682.27l3.28.3a1.53,1.53,0,0,1,1.4,1.67,1.56,1.56,0,0,1-1.68,1.41h0l-3.28-.3a1.55,1.55,0,0,1,.28-3.08Z"/><path class="cls-28" d="M206.3,683.09l3.29.16a1.55,1.55,0,1,1-.15,3.1h0l-3.29-.16a1.55,1.55,0,0,1,.15-3.1Z"/><path class="cls-28" d="M217.2,683.47l3.29,0a1.57,1.57,0,1,1,0,3.13h0l-3.29,0a1.56,1.56,0,0,1,0-3.11Z"/><path class="cls-28" d="M228.11,683.42l3.29-.09a1.57,1.57,0,0,1,.09,3.13h0l-3.28.09a1.57,1.57,0,1,1-.09-3.13Z"/><path class="cls-28" d="M239,683l3.29-.21a1.57,1.57,0,0,1,.2,3.14h0l-3.29.21A1.57,1.57,0,1,1,239,683Z"/><path class="cls-28" d="M249.89,682.14l3.28-.33a1.58,1.58,0,1,1,.31,3.15h0l-3.28.32a1.58,1.58,0,0,1-.31-3.14Z"/><path class="cls-28" d="M260.74,680.93l3.26-.44a1.59,1.59,0,0,1,.42,3.16h0l-3.26.43a1.59,1.59,0,0,1-.42-3.15Z"/><path class="cls-28" d="M271.55,679.36l3.24-.53a1.6,1.6,0,1,1,.53,3.15h0l-3.24.53a1.6,1.6,0,0,1-.52-3.15Z"/><path class="cls-28" d="M282.3,677.46l3.23-.64a1.61,1.61,0,0,1,.62,3.15h0l-3.23.63a1.6,1.6,0,1,1-.62-3.14Z"/><path class="cls-28" d="M293,675.23l3.21-.73a1.61,1.61,0,0,1,.71,3.14h0l-3.2.72a1.61,1.61,0,1,1-.72-3.14Z"/><path class="cls-28" d="M303.61,672.7l3.19-.82a1.62,1.62,0,1,1,.8,3.13h0l-3.18.82a1.62,1.62,0,0,1-.81-3.13Z"/><path class="cls-28" d="M314.16,669.88l3.16-.91a1.63,1.63,0,0,1,.9,3.13h0l-3.17.9a1.62,1.62,0,0,1-.89-3.12Z"/><path class="cls-28" d="M324.64,666.77l3.14-1a1.63,1.63,0,1,1,1,3.11h0l-3.15,1a1.63,1.63,0,1,1-1-3.11Z"/><path class="cls-28" d="M335,663.41l3.12-1.07a1.64,1.64,0,0,1,1.06,3.11h0l-3.12,1.06a1.64,1.64,0,0,1-1.06-3.1Z"/><path class="cls-28" d="M345.36,659.79l3.1-1.13a1.65,1.65,0,0,1,1.13,3.09h0l-3.09,1.13a1.65,1.65,0,0,1-1.14-3.09Z"/><path class="cls-28" d="M355.6,655.94l3.07-1.2a1.65,1.65,0,1,1,1.2,3.08h0L356.8,659a1.65,1.65,0,0,1-1.2-3.08Z"/><path class="cls-28" d="M365.75,651.87l3-1.27a1.66,1.66,0,0,1,1.28,3.07h0l-3,1.27a1.66,1.66,0,0,1-1.28-3.07Z"/><path class="cls-28" d="M375.82,647.59l3-1.32a1.67,1.67,0,1,1,1.34,3.05h0l-3,1.32a1.67,1.67,0,1,1-1.34-3Z"/><path class="cls-28" d="M385.81,643.13l3-1.38a1.68,1.68,0,0,1,1.4,3h0l-3,1.37a1.67,1.67,0,1,1-1.39-3Z"/><path class="cls-28" d="M395.73,638.5l3-1.41a1.68,1.68,0,1,1,1.45,3h0l-3,1.41a1.68,1.68,0,0,1-1.44-3Z"/><path class="cls-28" d="M405.6,633.75l2.95-1.45a1.69,1.69,0,0,1,1.49,3h0l-3,1.44a1.69,1.69,0,1,1-1.48-3Z"/><path class="cls-28" d="M415.42,628.9l2.95-1.48a1.7,1.7,0,1,1,1.52,3h0l-2.95,1.47a1.69,1.69,0,0,1-1.52-3Z"/><path class="cls-28" d="M425.22,624l2.94-1.49a1.7,1.7,0,1,1,1.54,3h0L426.76,627a1.7,1.7,0,0,1-1.54-3Z"/><path class="cls-28" d="M435,619l2.94-1.5a1.71,1.71,0,0,1,1.56,3h0L436.55,622a1.71,1.71,0,1,1-1.56-3Z"/><path class="cls-28" d="M444.77,614l2.93-1.5a1.72,1.72,0,1,1,1.56,3.06h0l-2.93,1.5a1.72,1.72,0,0,1-1.56-3.06Z"/><path class="cls-28" d="M454.55,609l2.94-1.49a1.73,1.73,0,1,1,1.56,3.08h0l-2.94,1.48a1.72,1.72,0,1,1-1.56-3.07Z"/><path class="cls-28" d="M464.36,604.08l2.94-1.47a1.73,1.73,0,1,1,1.55,3.1h0l-3,1.47a1.73,1.73,0,1,1-1.54-3.1Z"/><path class="cls-28" d="M474.2,599.2l3-1.45a1.74,1.74,0,0,1,1.52,3.13h0l-3,1.44a1.74,1.74,0,1,1-1.52-3.12Z"/><path class="cls-28" d="M484.1,594.42l3-1.4a1.72,1.72,0,0,1,1.48,3.11l-3,1.42a1.73,1.73,0,1,1-1.48-3.12Z"/><path class="cls-28" d="M494.07,589.77l3-1.36a1.71,1.71,0,0,1,1.42,3.11l-3,1.37a1.71,1.71,0,0,1-1.43-3.11Z"/><path class="cls-28" d="M504.1,585.27l3-1.31a1.69,1.69,0,0,1,1.35,3.1l-3,1.32a1.69,1.69,0,1,1-1.36-3.1Z"/><path class="cls-28" d="M514.21,581l3-1.25a1.68,1.68,0,0,1,1.28,3.1l-3,1.26a1.68,1.68,0,1,1-1.29-3.1Z"/><path class="cls-28" d="M524.42,576.84l3.07-1.18a1.66,1.66,0,1,1,1.2,3.09l-3.07,1.19a1.66,1.66,0,1,1-1.2-3.1Z"/><path class="cls-28" d="M534.73,573l3.1-1.1a1.64,1.64,0,0,1,1.11,3.09l-3.1,1.11a1.65,1.65,0,1,1-1.11-3.1Z"/><path class="cls-28" d="M545.15,569.39l3.14-1a1.63,1.63,0,0,1,1,3.1l-3.13,1a1.63,1.63,0,1,1-1-3.11Z"/><path class="cls-28" d="M555.68,566.13l3.16-.91a1.61,1.61,0,0,1,.9,3.1l-3.16.92a1.62,1.62,0,0,1-.91-3.11Z"/><path class="cls-28" d="M566.31,563.21l3.19-.8a1.59,1.59,0,1,1,.78,3.09l-3.19.82a1.6,1.6,0,0,1-.79-3.11Z"/><path class="cls-28" d="M577,560.66l3.22-.69a1.58,1.58,0,1,1,.67,3.08l-3.22.7a1.58,1.58,0,0,1-.67-3.09Z"/><path class="cls-28" d="M587.85,558.49l3.24-.57a1.56,1.56,0,0,1,.54,3.08l-3.24.58a1.57,1.57,0,1,1-.55-3.09Z"/><path class="cls-28" d="M598.74,556.74l3.26-.44a1.55,1.55,0,0,1,.41,3.07l-3.26.44a1.55,1.55,0,0,1-.42-3.07Z"/><path class="cls-28" d="M609.7,555.44l3.27-.3a1.53,1.53,0,1,1,.28,3.05l-3.27.31a1.54,1.54,0,1,1-.29-3.06Z"/><path class="cls-28" d="M620.7,554.62l3.29-.14a1.52,1.52,0,0,1,.14,3l-3.29.15a1.52,1.52,0,0,1-.14-3Z"/><path class="cls-28" d="M631.74,554.33l3.29,0a1.5,1.5,0,1,1,0,3h-3.29a1.51,1.51,0,1,1,0-3Z"/><path class="cls-28" d="M642.79,554.59l3.28.19a1.48,1.48,0,1,1-.16,3l-3.29-.18a1.49,1.49,0,0,1,.16-3Z"/><path class="cls-28" d="M653.81,555.44l3.27.38a1.47,1.47,0,0,1-.33,2.92l-3.27-.37a1.47,1.47,0,0,1,.32-2.93Z"/><path class="cls-28" d="M664.76,556.93l3.24.57a1.45,1.45,0,0,1-.49,2.86l-3.25-.56a1.46,1.46,0,0,1,.5-2.87Z"/><path class="cls-28" d="M675.61,559.08l3.2.77a1.43,1.43,0,1,1-.67,2.79l-3.2-.76a1.44,1.44,0,1,1,.67-2.81Z"/><path class="cls-28" d="M686.3,561.91l3.14,1a1.42,1.42,0,0,1-.83,2.71l-3.15-1a1.42,1.42,0,0,1,.84-2.72Z"/><path class="cls-28" d="M696.79,565.44l3.07,1.19a1.4,1.4,0,0,1-1,2.62l-3.07-1.18a1.41,1.41,0,0,1,1-2.63Z"/><path class="cls-28" d="M707,569.71l3,1.43a1.38,1.38,0,0,1-1.19,2.5l-3-1.42a1.39,1.39,0,0,1,1.19-2.51Z"/><path class="cls-28" d="M716.85,574.82l2.83,1.69a1.37,1.37,0,0,1-1.4,2.35l-2.83-1.67a1.38,1.38,0,1,1,1.4-2.37Z"/><path class="cls-28" d="M726.19,580.84l2.64,2a1.35,1.35,0,0,1-1.62,2.17l-2.65-2a1.36,1.36,0,1,1,1.62-2.18Z"/><path class="cls-28" d="M734.83,587.85l2.38,2.27a1.34,1.34,0,0,1-1.84,1.94L733,589.8a1.34,1.34,0,1,1,1.85-1.95Z"/><path class="cls-28" d="M742.52,595.92l2,2.58a1.29,1.29,0,0,1-.21,1.82,1.31,1.31,0,0,1-1.82-.2l-2.06-2.57a1.31,1.31,0,0,1,2-1.64Z"/><path class="cls-28" d="M749,605.05l1.6,2.87a1.25,1.25,0,0,1-2.17,1.23l-1.63-2.86a1.26,1.26,0,1,1,2.19-1.25Z"/><path class="cls-28" d="M753.79,615.14l1,3.12a1.2,1.2,0,0,1-2.28.77l-1.06-3.12a1.21,1.21,0,1,1,2.3-.78Z"/><path class="cls-28" d="M756.53,626l.39,3.26a1.16,1.16,0,0,1-2.3.29l-.42-3.27a1.17,1.17,0,1,1,2.33-.29Z"/><path class="cls-28" d="M757.09,637.15l-.25,3.28a1.11,1.11,0,0,1-2.21-.16l.22-3.28a1.12,1.12,0,1,1,2.24.15Z"/><path class="cls-28" d="M755.47,648.2l-.9,3.17a1.07,1.07,0,0,1-2.05-.58l.87-3.17a1.08,1.08,0,0,1,2.08.57Z"/><path class="cls-28" d="M751.57,658.69,750,661.57a1,1,0,1,1-1.78-1l1.56-2.89a1,1,0,0,1,1.82,1Z"/><path class="cls-28" d="M745.29,668,743,670.33a1,1,0,0,1-1.4-1.35l2.27-2.38a1,1,0,1,1,1.42,1.36Z"/><path class="cls-28" d="M736.74,675.17l-.82.5a1,1,0,0,1-1.29-.32.94.94,0,0,1,.32-1.28l.81-.5a.94.94,0,0,1,1,1.6Z"/><path class="cls-28" d="M131.77,301.6s.07-.39.23-1.09a.73.73,0,0,1,.88-.56.69.69,0,0,1,.42.26l.91-.63a.73.73,0,0,1,1,.2.74.74,0,0,1-.19,1c-1,.65-1.61,1.15-1.93,1.39l-.18.14-1.48,1.06Zm1.11-4.71c.31-1.19.66-2.39,1-3.58a.75.75,0,0,1,.93-.49.74.74,0,0,1,.49.92c-.36,1.18-.7,2.36-1,3.53a.75.75,0,0,1-.91.52l-.19-.08A.74.74,0,0,1,132.88,296.89Zm4.25,1.73a.73.73,0,0,1,.29-1,36.33,36.33,0,0,1,3.39-1.65.74.74,0,1,1,.58,1.36c-1.08.46-2.17,1-3.26,1.58a.73.73,0,0,1-1-.29Zm6.74-3a.75.75,0,0,1,.51-.92,26.21,26.21,0,0,1,3.73-.75.74.74,0,0,1,.18,1.47,21.85,21.85,0,0,0-3.51.71.78.78,0,0,1-.58-.08A.76.76,0,0,1,143.87,295.63Zm-8.81-5.86c.41-1.18.84-2.36,1.28-3.49a.74.74,0,0,1,1.38.53c-.44,1.12-.86,2.28-1.27,3.44a.74.74,0,0,1-.94.46l-.13-.07A.72.72,0,0,1,135.06,289.77Zm16.09,4.77a.73.73,0,0,1,.78-.68,17,17,0,0,1,2.71.4l1,.22a.74.74,0,0,1-.28,1.45c-.35-.07-.7-.14-1.07-.23a16.84,16.84,0,0,0-2.48-.37.75.75,0,0,1-.33-.1A.72.72,0,0,1,151.15,294.54Zm13.06,6.3a.73.73,0,0,1,.67-.43,5.51,5.51,0,0,1,2-.91.74.74,0,1,1,.36,1.43,3.27,3.27,0,0,0-2.07,1.26l-1.27-.73Zm-5.77-5.24a.74.74,0,0,1,.76-.72,13.47,13.47,0,0,0,3.46-.33A.74.74,0,1,1,163,296a14.67,14.67,0,0,1-3.85.38.75.75,0,0,1-.72-.76Zm-20.69-12.77c.5-1.14,1-2.28,1.55-3.38a.74.74,0,0,1,1-.34.72.72,0,0,1,.34,1c-.52,1.09-1,2.21-1.52,3.33a.74.74,0,0,1-1,.38l-.09,0A.74.74,0,0,1,137.75,282.83Zm28,14.64c.57-1.31,1.06-2.45,1.44-3.39a.74.74,0,0,1,1-.41.75.75,0,0,1,.41,1c-.39,1-.88,2.11-1.45,3.43a.75.75,0,0,1-1,.38l-.08,0A.75.75,0,0,1,165.71,297.47Zm4.3,2.29a.74.74,0,0,1,.64-.82c1.07-.13,2.25-.28,3.59-.56a.74.74,0,1,1,.29,1.45c-1.39.28-2.6.44-3.7.58a.74.74,0,0,1-.47-.1A.7.7,0,0,1,170,299.76Zm-4.43-5.57a.74.74,0,0,1,.16-1,9.35,9.35,0,0,0,1.93-2c.17-.22.3-.39.41-.51l.17-.15a.72.72,0,0,1,1,.12.77.77,0,0,1-.12,1.06c-.08.08-.18.22-.31.38a10.63,10.63,0,0,1-2.23,2.27.74.74,0,0,1-.82,0A.63.63,0,0,1,165.58,294.19ZM141,276.13c.53-1,1.08-1.94,1.64-2.87l.22-.36a.73.73,0,0,1,1-.25h0a.73.73,0,0,1,.25,1l-.22.36c-.54.91-1.08,1.85-1.6,2.81a.73.73,0,0,1-1,.3h0A.74.74,0,0,1,141,276.13Zm36.25,22.27a.73.73,0,0,1,.47-.93,34.31,34.31,0,0,0,3.38-1.29.74.74,0,0,1,.59,1.35,34.47,34.47,0,0,1-3.51,1.34.72.72,0,0,1-.61-.07A.68.68,0,0,1,177.25,298.4Zm6.8-2.83a.73.73,0,0,1,.29-1l.68-.38a25.8,25.8,0,0,0,2.36-1.53.74.74,0,0,1,.87,1.19,28,28,0,0,1-2.49,1.62l-.71.4a.75.75,0,0,1-1-.3Zm-39-24.78a.75.75,0,0,1-.19-1c.72-1,1.46-2.05,2.21-3a.74.74,0,0,1,1-.13.74.74,0,0,1,.12,1c-.73.93-1.45,1.92-2.15,2.94a.74.74,0,0,1-1,.21Zm45,20.58a.75.75,0,0,1,0-1,24.2,24.2,0,0,0,2.34-2.71.73.73,0,1,1,1.18.87,25.17,25.17,0,0,1-2.47,2.88.73.73,0,0,1-.9.11A.72.72,0,0,1,190.09,291.37Zm-40.54-26.45a.73.73,0,0,1-.05-1c.84-.94,1.72-1.84,2.61-2.69a.74.74,0,0,1,1,1.07c-.86.82-1.72,1.7-2.54,2.61a.73.73,0,0,1-.93.14Zm44.78,19.66a24.65,24.65,0,0,0,1.46-3.27.73.73,0,0,1,.94-.44.74.74,0,0,1,.45.94,27.76,27.76,0,0,1-1.55,3.47.74.74,0,0,1-1,.3l0,0A.74.74,0,0,1,194.33,284.58Zm-39.51-24.81a.74.74,0,0,1,.12-1c1-.79,2-1.53,3-2.2a.74.74,0,0,1,.81,1.23c-1,.65-2,1.36-2.93,2.12a.74.74,0,0,1-.84.06A.82.82,0,0,1,154.82,259.77Zm42,18.09a15.76,15.76,0,0,0,.43-3.31l-.35-1.6a.74.74,0,0,1,1.45-.31l.33,1.56h0a16,16,0,0,1-.4,4,.75.75,0,0,1-.88.57.73.73,0,0,1-.22-.09A.75.75,0,0,1,196.78,277.86Zm-35.86-22.23a.74.74,0,0,1,.31-1,35.1,35.1,0,0,1,3.44-1.54.74.74,0,0,1,1,.42.76.76,0,0,1-.43,1,32.08,32.08,0,0,0-3.29,1.47.71.71,0,0,1-.72,0A.75.75,0,0,1,160.92,255.63Zm6.81-2.8a.74.74,0,0,1,.53-.9,34.43,34.43,0,0,1,3.69-.75.73.73,0,0,1,.84.62.74.74,0,0,1-.63.84,32,32,0,0,0-3.53.72.75.75,0,0,1-.57-.08A.77.77,0,0,1,167.73,252.83Zm28.36,16.51-.78-3.6a.74.74,0,0,1,1.45-.32l.77,3.61a.74.74,0,0,1-1.1.79A.71.71,0,0,1,196.09,269.34ZM175,251.59a.73.73,0,0,1,.7-.77,36.33,36.33,0,0,1,3.76,0,.73.73,0,0,1,.7.77.74.74,0,0,1-.78.7c-1.22-.06-2.44-.07-3.61,0a.72.72,0,0,1-.41-.1A.73.73,0,0,1,175,251.59Zm19.55,10.54-.78-3.61a.74.74,0,0,1,.57-.88.73.73,0,0,1,.87.57l.78,3.61a.73.73,0,0,1-.57.87.69.69,0,0,1-.53-.09A.71.71,0,0,1,194.54,262.13Zm-12.19-10.3a.74.74,0,0,1,.83-.63c1.21.17,2.45.4,3.69.68a.74.74,0,1,1-.33,1.44c-1.2-.27-2.4-.49-3.56-.66a.62.62,0,0,1-.28-.09A.73.73,0,0,1,182.35,251.83Zm7.21,1.49a.75.75,0,0,1,.92-.5c1.14.34,2.3.73,3.46,1.15l.38.14.11.49a.73.73,0,0,1-.57.87.73.73,0,0,1-.69-.21c-1-.37-2.09-.72-3.11-1l-.17-.08A.75.75,0,0,1,189.56,253.32Z"/><path class="cls-96" d="M195.33,266.58s-2,16.24-14.1,16-24.21-3.4-28.32.53c0,0,9.91-30.41,40.59-22Z"/><path class="cls-97" d="M229.23,272.69s3.72,15.62-.34,19.25c-3.87,3.44-38.95,13-42.36,13.93a.3.3,0,0,1-.36-.2h0a4.09,4.09,0,0,1,.47-3.7c3.57-5.25,14.37-20.85,19.15-24.52C211.56,273,229.23,272.69,229.23,272.69Z"/><g class="cls-98"><path class="cls-28" d="M198.38,300.38a.36.36,0,0,0,.29,0c.19-.05,19.32-5.62,27.45-8.34a3.85,3.85,0,0,0,2.62-3.29,57.62,57.62,0,0,0,0-11.67.37.37,0,0,0-.74.09,56.93,56.93,0,0,1,0,11.51,3.13,3.13,0,0,1-2.12,2.66c-8.12,2.71-27.23,8.28-27.42,8.33a.38.38,0,0,0-.26.46A.36.36,0,0,0,198.38,300.38Z"/></g><path class="cls-99" d="M216.69,237.55s-7-14.45-12.45-14.68c-5.18-.22-38.38,14.6-41.61,16a.3.3,0,0,0-.16.38h0a4.14,4.14,0,0,0,2.71,2.57c6.09,1.8,24.33,7,30.35,6.85C202.8,248.49,216.69,237.55,216.69,237.55Z"/><g class="cls-98"><path class="cls-28" d="M175.43,236.09a.37.37,0,0,0,.34,0c.18-.08,18.49-7.87,26.5-10.92a3.12,3.12,0,0,1,3.32.72,56.62,56.62,0,0,1,7.26,8.93.37.37,0,0,0,.51.11.38.38,0,0,0,.12-.51,56.47,56.47,0,0,0-7.36-9,3.87,3.87,0,0,0-4.11-.89c-8,3.05-26.35,10.85-26.53,10.93a.36.36,0,0,0-.2.48A.32.32,0,0,0,175.43,236.09Z"/></g><path class="cls-1" d="M280,254.36a82.83,82.83,0,0,1-22.69,12.48C229.32,276.91,207,279.47,200.68,280a3.14,3.14,0,0,1-2.89-1.4,55.43,55.43,0,0,1-9.1-24.88,4.56,4.56,0,0,1,2-4.31,238.5,238.5,0,0,1,51.39-25.11,82.84,82.84,0,0,1,25.29-4.71C276.2,232.1,278.9,246.26,280,254.36Z"/><path class="cls-100" d="M267.38,219.62A86.16,86.16,0,0,1,302,225.7a1.55,1.55,0,0,1,.77,2.16A86.1,86.1,0,0,1,280,254.36C278.9,246.26,276.2,232.1,267.38,219.62Z"/><ellipse class="cls-101" cx="251.53" cy="244.95" rx="13.93" ry="14.95" transform="translate(-67.71 98.81) rotate(-19.64)"/><path class="cls-102" d="M247.75,233.21c-5.78,2.06-8.66,8.75-6.45,14.95s8.68,9.55,14.46,7.49,8.66-8.76,6.45-15S253.52,231.15,247.75,233.21Z"/><path class="cls-28" d="M256.5,251.59a.36.36,0,0,0,.41,0,9.31,9.31,0,0,0,3-10.57,9.63,9.63,0,0,0-1.47-2.69.37.37,0,0,0-.52-.06.36.36,0,0,0-.06.51,9,9,0,0,1,1.35,2.49,8.56,8.56,0,0,1-2.77,9.73.38.38,0,0,0-.07.52A.28.28,0,0,0,256.5,251.59Z"/><path class="cls-103" d="M221.84,245.06c-4.79,1.71-7.18,7.26-5.35,12.4s7.2,7.92,12,6.21,7.18-7.26,5.35-12.4S226.62,243.35,221.84,245.06Z"/><path class="cls-104" d="M222.66,246.61a7.89,7.89,0,1,0,9.55,4.94A7.61,7.61,0,0,0,222.66,246.61Z"/><path class="cls-28" d="M228.38,258.86a.38.38,0,0,0,.41,0,6.29,6.29,0,0,0,2-7.13,6.13,6.13,0,0,0-1-1.81.37.37,0,0,0-.58.45,6.15,6.15,0,0,1,.88,1.61,5.54,5.54,0,0,1-1.79,6.29.37.37,0,0,0-.08.51A.35.35,0,0,0,228.38,258.86Z"/></g></g></svg>