<svg xmlns="http://www.w3.org/2000/svg" xmlns:xlink="http://www.w3.org/1999/xlink" viewBox="0 0 748.85 666.64"><defs><style>.cls-1{fill:url(#linear-gradient);}.cls-2{fill:#fff;}.cls-3{fill:#ccc;}.cls-4{fill:url(#linear-gradient-2);}.cls-5{fill:url(#linear-gradient-3);}.cls-6{fill:#eb3d7b;}.cls-7{fill:#2f2e41;}.cls-8{fill:url(#linear-gradient-4);}.cls-9{fill:url(#linear-gradient-5);}.cls-10{fill:#3f3d56;}.cls-11{fill:url(#linear-gradient-6);}</style><linearGradient id="linear-gradient" x1="124.47" y1="335.73" x2="585.78" y2="335.73" gradientUnits="userSpaceOnUse"><stop offset="0" stop-color="#fa5"/><stop offset="0.29" stop-color="#fea051"/><stop offset="0.79" stop-color="#fb8646"/><stop offset="1" stop-color="#f97841"/></linearGradient><linearGradient id="linear-gradient-2" x1="207.99" y1="322.53" x2="469.98" y2="322.53" xlink:href="#linear-gradient"/><linearGradient id="linear-gradient-3" x1="511.87" y1="103.44" x2="585.35" y2="103.44" xlink:href="#linear-gradient"/><linearGradient id="linear-gradient-4" x1="9.93" y1="110.23" x2="230.39" y2="110.23" xlink:href="#linear-gradient"/><linearGradient id="linear-gradient-5" x1="528.14" y1="330.79" x2="748.85" y2="330.79" xlink:href="#linear-gradient"/><linearGradient id="linear-gradient-6" x1="0" y1="556.34" x2="220.63" y2="556.34" xlink:href="#linear-gradient"/></defs><title>Asset 5</title><g id="Layer_2" data-name="Layer 2"><g id="Layer_1-2" data-name="Layer 1"><path class="cls-1" d="M538.8,598.43H171.46a47,47,0,0,1-47-47V120a47,47,0,0,1,47-47H513.21l72.57,57.85V551.44A47,47,0,0,1,538.8,598.43Z"/><path class="cls-2" d="M171.46,86.56A33.5,33.5,0,0,0,138,120V551.44a33.49,33.49,0,0,0,33.46,33.46H538.8a33.5,33.5,0,0,0,33.46-33.46v-414L508.48,86.56Z"/><path class="cls-3" d="M462.15,212H215.83a7.83,7.83,0,1,1,0-15.65H462.15a7.83,7.83,0,1,1,0,15.65Z"/><path class="cls-3" d="M494.43,238.42H215.83a7.83,7.83,0,1,1,0-15.65h278.6a7.83,7.83,0,0,1,0,15.65Z"/><path class="cls-4" d="M462.15,330.35H215.83a7.83,7.83,0,1,1,0-15.65H462.15a7.83,7.83,0,1,1,0,15.65Z"/><path class="cls-3" d="M494.43,356.76H215.83a7.83,7.83,0,1,1,0-15.65h278.6a7.83,7.83,0,0,1,0,15.65Z"/><path class="cls-3" d="M462.15,448.7H215.83a7.83,7.83,0,1,1,0-15.65H462.15a7.83,7.83,0,1,1,0,15.65Z"/><path class="cls-3" d="M494.43,475.1H215.83a7.83,7.83,0,1,1,0-15.65h278.6a7.83,7.83,0,0,1,0,15.65Z"/><path class="cls-5" d="M584.37,132.75H527.52a15.65,15.65,0,0,1-15.65-15.65h0v-42a1,1,0,0,1,1-1,1,1,0,0,1,.61.21L585,131a1,1,0,0,1-.61,1.75Z"/><path class="cls-2" d="M227.47,110.14A107.4,107.4,0,1,1,120.07,2.74,107.4,107.4,0,0,1,227.47,110.14Z"/><path class="cls-6" d="M169.71,128.52c-1.18,68.68-103.35,68.67-104.51,0C66.37,59.83,168.54,59.84,169.71,128.52Z"/><path class="cls-7" d="M115.38,149.83l0-2c13.45,1.8,16.35-14.88,2.78-8.64l3.1-22.65,1.93.27-2.63,19.26C134.8,134,129.51,151.79,115.38,149.83Z"/><rect class="cls-7" x="132.71" y="118.52" width="10.52" height="1.95"/><rect class="cls-7" x="99.51" y="118.52" width="10.52" height="1.95"/><path class="cls-7" d="M134.39,201.57c2.05-13.83-14.14-11.1-22.72-11.24a9.31,9.31,0,0,0-9.06,11.23,50.77,50.77,0,0,0-18,10,107.82,107.82,0,0,0,68.76.76A50.53,50.53,0,0,0,134.39,201.57Z"/><path class="cls-7" d="M92.89,103.8c9.68-5.59,21.42-1.3,31.43,1,19,5.83,45.59-1.48,47.9-24.08,2.4-21-26.36-32.75-35.56-11.82l2.68-.35C109.53,24.29,57.67,26,58,86.89c-.11,1.88,2.82,1.87,2.93,0C59.84,51,83.6,26.45,117.18,49.52c7.68,5.61,13.9,13,19.63,20.56,3.5,3.92,4.26-13,21-8.54,18.42,7.14,12.41,33.52-4.06,39.31-20.34,10.39-42.38-9.76-62.34.42a1.47,1.47,0,0,0,1.48,2.53Z"/><path class="cls-8" d="M120.07,220.46a110.2,110.2,0,1,1,34.16-5.39A110.23,110.23,0,0,1,120.07,220.46Zm0-214.79a104.49,104.49,0,1,0,104.47,104.5v0A104.59,104.59,0,0,0,120.07,5.67Z"/><path class="cls-2" d="M745.89,330.79a107.42,107.42,0,0,1-74.14,102.14l-1.94.61c-2.79.86-5.62,1.59-8.5,2.21a105.77,105.77,0,0,1-15.83,2.2c-2.31.16-4.64.23-7,.23a107.07,107.07,0,0,1-35.51-6l-1-.35a107.41,107.41,0,1,1,143.89-101Z"/><circle class="cls-6" cx="635.93" cy="349.69" r="52.25"/><path class="cls-7" d="M639,377.84l0-1.95c-3.63-.1-6.83-.33-9.24-2.09a6,6,0,0,1-2.33-4.42,3.43,3.43,0,0,1,1.13-2.82c1.6-1.35,4.17-.92,6-.06l1.62.74-3.1-22.64-1.94.27,2.64,19.26c-2.55-.75-4.91-.43-6.52.94a5.33,5.33,0,0,0-1.82,4.38,8,8,0,0,0,3.13,5.93C631.73,377.64,635.75,377.75,639,377.84Z"/><rect class="cls-7" x="611.13" y="346.53" width="10.52" height="1.95"/><rect class="cls-7" x="644.32" y="346.53" width="10.52" height="1.95"/><path class="cls-7" d="M650.77,422.74a9.88,9.88,0,0,0,.22-1.95,9.3,9.3,0,0,0-9.28-9.28H628A9.28,9.28,0,0,0,619,422.75a52.2,52.2,0,0,0-14.46,7.16c-.86.59-1.71,1.24-2.52,1.91l1,.35a107.07,107.07,0,0,0,35.51,6c2.34,0,4.67-.07,7-.23a105.77,105.77,0,0,0,15.83-2.2c2.88-.62,5.71-1.35,8.5-2.21A52.79,52.79,0,0,0,650.77,422.74Z"/><path class="cls-7" d="M649,436.71a7.15,7.15,0,0,0-3.53,1.24,105.77,105.77,0,0,0,15.83-2.2Z"/><path class="cls-7" d="M683.32,337.28l-90.78-33.21a3.91,3.91,0,0,1-2.32-5l.3-1.45c7.09-19.38,30.59-31.57,50-24.49l27.93,10.22c19.38,7.09,27.8,30,20.71,49.42l-.81,2.19a3.9,3.9,0,0,1-5,2.33Z"/><path class="cls-7" d="M688.2,339.12c-126.51,4.67-137.57-11.23-99-36.23l8.18-15L691.09,322Z"/><ellipse class="cls-7" cx="655.45" cy="278.57" rx="4.39" ry="8.3" transform="translate(199.99 826.08) rotate(-73.27)"/><path class="cls-9" d="M638.5,441.11A109.72,109.72,0,0,1,602,434.93l-1-.36a110.32,110.32,0,1,1,71.66,1.15c-.7.22-1.35.43-2,.62-2.78.86-5.72,1.62-8.72,2.28a108.85,108.85,0,0,1-16.27,2.25C643.31,441,640.89,441.11,638.5,441.11Zm0-214.79A104.48,104.48,0,0,0,603,429.06l1,.35a104.32,104.32,0,0,0,34.53,5.85c2.26,0,4.54-.08,6.78-.23a104.06,104.06,0,0,0,15.41-2.14c2.84-.62,5.62-1.34,8.26-2.15l1.89-.59A104.48,104.48,0,0,0,638.5,226.32Z"/><path class="cls-2" d="M2.91,556.32a107.11,107.11,0,0,0,31.57,76.07c.84.83,1.7,1.66,2.57,2.47a107.51,107.51,0,0,0,17.05,13c1.17.72,2.34,1.42,3.54,2.09a106.77,106.77,0,0,0,19.41,8.52c1.16.38,2.35.75,3.53,1.08a107.82,107.82,0,0,0,65.24-1.84l1.22-.44A107.4,107.4,0,1,0,2.91,556.32Z"/><path class="cls-7" d="M87.63,609A33.3,33.3,0,0,1,79,631.49c-5.52,6.06-13.74,10.08-22,8.42-7.64-1.54-13.84-8.21-13.07-16.29a12.07,12.07,0,0,1,12.91-11.15,12.25,12.25,0,0,1,2,.32c7.25,1.88,10.14,12.34,4.1,17.25-1.45,1.18-3.54-.88-2.07-2.07,4-3.25,2.76-10.35-2.07-12.13-5.61-2.07-11.57,2.39-12,8.13-.48,6.81,4.74,11.94,11.13,13.15,6.92,1.3,13.79-2.24,18.47-7.13a30.22,30.22,0,0,0,8.28-21,1.47,1.47,0,0,1,2.93,0Z"/><circle class="cls-6" cx="116.23" cy="575.33" r="52.25"/><path class="cls-7" d="M113.55,597.62l0-2c3.63-.1,6.83-.33,9.24-2.09a6,6,0,0,0,2.33-4.42,3.43,3.43,0,0,0-1.13-2.82c-1.6-1.35-4.17-.92-6-.06l-1.62.74,3.1-22.64,1.94.27-2.64,19.26c2.55-.75,4.91-.43,6.52.93a5.35,5.35,0,0,1,1.82,4.39,8,8,0,0,1-3.13,5.93C120.8,597.42,116.78,597.53,113.55,597.62Z"/><rect class="cls-7" x="130.88" y="566.31" width="10.52" height="1.95"/><rect class="cls-7" x="97.69" y="566.31" width="10.52" height="1.95"/><path class="cls-7" d="M80.58,659.54a107.82,107.82,0,0,0,65.24-1.84l1.22-.44a52.15,52.15,0,0,0-16.55-8.55,8.42,8.42,0,0,0,0-4.59,9.24,9.24,0,0,0-8.94-6.48H108.8a9.2,9.2,0,0,0-8.91,6.47,8.36,8.36,0,0,0,0,4.6,52.08,52.08,0,0,0-14.76,7.23c-.91.64-1.79,1.3-2.64,2C81.83,658.45,81.19,659,80.58,659.54Z"/><path class="cls-10" d="M157.16,569.78c0,8.81,4.34,16.11,10,17.38a7.89,7.89,0,0,0,1.75.2c6.45,0,11.71-7.88,11.71-17.58,0-5.62-1.76-10.63-4.51-13.84a11.14,11.14,0,0,0-3.45-2.8,8,8,0,0,0-3.75-.93,8.53,8.53,0,0,0-5,1.68C159.91,556.7,157.16,562.76,157.16,569.78Z"/><path class="cls-10" d="M52.69,569.78c0,7.58,3.21,14,7.7,16.51a8.33,8.33,0,0,0,4,1.07,7.42,7.42,0,0,0,.94-.06c6-.71,10.78-8.29,10.78-17.52,0-7.39-3.06-13.72-7.38-16.31a8.31,8.31,0,0,0-4.34-1.26,8.08,8.08,0,0,0-3.76.93A11.33,11.33,0,0,0,57.19,556C54.46,559.16,52.69,564.17,52.69,569.78Z"/><path class="cls-10" d="M61.12,584.61a1.46,1.46,0,0,0,1.46-1.47,1.43,1.43,0,0,0-.07-.46,57.11,57.11,0,1,1,110-6.42,1.46,1.46,0,1,0,2.86.6,60,60,0,1,0-115.66,6.75A1.46,1.46,0,0,0,61.12,584.61Z"/><path class="cls-7" d="M142.48,541.47c2.06,2.83,1,6.63-1.14,9.07-2.83,3.17-7.36,3.37-11.28,2.78-4.41-.66-9.09-2.73-13.55-1.34-3.8,1.19-6.51,4.64-10.47,5.51-3.5.76-7.69-.25-8.92-4-.59-1.79,2.24-2.56,2.83-.78.79,2.42,4.22,2.37,6.19,1.7,3.15-1.07,5.58-3.68,8.67-4.92,3.65-1.47,7.61-.81,11.33,0,3.5.79,7.54,2,11,.48,2.58-1.09,4.63-4.52,2.78-7.06-1.12-1.52,1.42-3,2.53-1.48Z"/><path class="cls-11" d="M110.31,666.64a109.85,109.85,0,0,1-30.54-4.29c-1.17-.33-2.4-.7-3.63-1.1a110.54,110.54,0,0,1-19.93-8.76c-1.19-.66-2.39-1.37-3.65-2.15A110.6,110.6,0,0,1,35.05,637c-.88-.83-1.76-1.68-2.62-2.53A110.31,110.31,0,1,1,148,660l-1.24.44A109.82,109.82,0,0,1,110.31,666.64Zm0-214.79A104.48,104.48,0,0,0,36.55,630.31c.81.8,1.65,1.61,2.5,2.4a104.41,104.41,0,0,0,16.58,12.65c1.2.73,2.32,1.4,3.45,2A104.43,104.43,0,0,0,78,655.68c1.16.38,2.3.73,3.41,1a105,105,0,0,0,63.48-1.78l1.18-.43a104.48,104.48,0,0,0-35.72-202.66Z"/></g></g></svg>