<svg xmlns="http://www.w3.org/2000/svg" xmlns:xlink="http://www.w3.org/1999/xlink" viewBox="0 0 779.74 745.03"><defs><style>.cls-1{isolation:isolate;}.cls-2,.cls-3{fill:#f6c19d;}.cls-3{opacity:0.2;mix-blend-mode:multiply;}.cls-4{fill:#d33978;}.cls-5{fill:#eb3d7b;}.cls-6{fill:#f97841;}.cls-7{fill:#dd673e;}.cls-8{fill:#141414;}.cls-9{fill:url(#linear-gradient);}.cls-10{fill:#fff;}.cls-11,.cls-14{fill:#dae7f7;}.cls-12{fill:url(#linear-gradient-2);}.cls-13{fill:url(#linear-gradient-3);}.cls-14{opacity:0.3;}.cls-15{fill:#d0e1f5;}.cls-16{fill:#f19a5e;}.cls-17{fill:#ac8cce;}.cls-18{fill:#f3a875;}.cls-19{fill:#3a1f29;}.cls-20{fill:#8c4d6a;}.cls-21{fill:#a55978;}.cls-22{fill:#4d2835;}</style><linearGradient id="linear-gradient" x1="235.61" y1="304.07" x2="509.73" y2="304.07" gradientUnits="userSpaceOnUse"><stop offset="0" stop-color="#f97841"/><stop offset="1" stop-color="#eb3d7b"/></linearGradient><linearGradient id="linear-gradient-2" x1="320" y1="298.05" x2="425.34" y2="298.05" gradientUnits="userSpaceOnUse"><stop offset="0" stop-color="#fa5"/><stop offset="0.29" stop-color="#fea051"/><stop offset="0.79" stop-color="#fb8646"/><stop offset="1" stop-color="#f97841"/></linearGradient><linearGradient id="linear-gradient-3" x1="336.47" y1="253.42" x2="408.86" y2="253.42" xlink:href="#linear-gradient-2"/></defs><title>Asset 8</title><g class="cls-1"><g id="Layer_2" data-name="Layer 2"><g id="Layer_1-2" data-name="Layer 1"><path class="cls-2" d="M70.66,745H256.33l15.4-41.46a58.65,58.65,0,0,1,30.89-33c13.45-6.09,31.55-17.13,49.09-36.82A341.15,341.15,0,0,0,404,554.36L288.9,553.8S299.26,489.43,242.07,404a48.36,48.36,0,0,1-7.95-31.1l5.42-62.34s38.86-43.43,15-97.31c0,0-22.8-31.57-31.85-20,0,0-68.87,164-75.14,188.38s-14.63,39.72-6.27,116.36a464.65,464.65,0,0,1,3,51.12,181.35,181.35,0,0,1-17.44,77.21Z"/><path class="cls-3" d="M243.83,638.65c-17.23-19.14-41.17-16.12-66.35-24.84s-33.25-71.66-33.25-71.66h0c0,2.37.06,4.68.05,6.9a181.35,181.35,0,0,1-17.44,77.21L70.66,745H256.33l15.4-41.46a58.65,58.65,0,0,1,30.89-33A144.36,144.36,0,0,0,343.85,642C292.72,663.51,261.06,657.78,243.83,638.65Z"/><path class="cls-4" d="M161.73,2.05C204.41,69.4,309.62,129.42,309.62,129.42S226,122.63,184.48,68.58l15.05-12.46s-12,1.16-22,2.31C168.32,43.12,162.35,24.56,161.73,2.05Z"/><path class="cls-5" d="M273.73,29.91c-6.49,2.94-16.1,7.43-16.1,7.43l9.26-13.29A107.83,107.83,0,0,0,232.5,6.42c-4.76,6.93-10.36,14.69-10.36,14.69L221,3.41a164.21,164.21,0,0,0-59.3-1.36C204.41,69.4,309.62,129.42,309.62,129.42,309.14,79.94,294.07,49,273.73,29.91Z"/><path class="cls-6" d="M146.06,97.08a99.18,99.18,0,0,1,37.67-13c3.73,4.25,8.3,9.26,8.3,9.26l.26-10C239.86,81.07,280,111,280,111c-27.23,16.56-50.66,21.21-70,19.83-1.22-3.5-3-8.72-3-8.72l-3.23,8.07a87.91,87.91,0,0,1-24.59-7.3c1.71-4.19,3.51-9,3.51-9l-10.15,5.56C155.2,109.64,146.06,97.08,146.06,97.08Z"/><path class="cls-7" d="M210,130.86c-1.22-3.5-3-8.72-3-8.72l-3.23,8.07a87.91,87.91,0,0,1-24.59-7.3c1.71-4.19,3.51-9,3.51-9l-10.15,5.56c-17.41-9.86-26.55-22.42-26.55-22.42C201.41,90.76,280,111,280,111,252.75,127.59,229.32,132.24,210,130.86Z"/><path class="cls-7" d="M614.53,90.16l-4,30.25L632,104.72l65.76-33.59L646.9,75.78s-25.91,6.3-27.32,7.57S614.53,90.16,614.53,90.16Z"/><polygon class="cls-6" points="592.01 71.9 697.76 71.13 614.53 90.16 592.01 71.9"/><polygon class="cls-6" points="648.53 120.59 620.82 98.33 697.76 71.13 648.53 120.59"/><path class="cls-8" d="M603.63,105.92a31.87,31.87,0,0,1,7.06-1.85l-.2-1.88a33.63,33.63,0,0,0-7.53,2Z"/><path class="cls-8" d="M537,274.38a118.83,118.83,0,0,0,12.24-7.1l1,1.57a119.81,119.81,0,0,1-12.44,7.21Zm23.38-15.77a77.1,77.1,0,0,0,9.51-10.4l1.51,1.14A79,79,0,0,1,561.65,260Zm16.81-22.41c.92-1.95,1.77-4,2.53-6,.85-2.32,1.61-4.75,2.25-7.21l1.82.47a75.82,75.82,0,0,1-2.3,7.4c-.77,2.1-1.65,4.18-2.6,6.18Zm7.62-41.3,1.89-.05a121.42,121.42,0,0,1-.46,14.38l-1.88-.18A119.69,119.69,0,0,0,584.8,194.9Zm-2.68-28.31,1.87-.27c.79,5.53,1.35,10,1.77,14.21l-1.88.19C583.47,176.58,582.9,172.09,582.12,166.59ZM580,152.37a69.07,69.07,0,0,1-.71-14.34l1.88.12a68,68,0,0,0,.7,13.94l0,.11-1.87.26Zm2.38-28.53a34.39,34.39,0,0,1,8.19-12l1.3,1.37a32.47,32.47,0,0,0-7.75,11.39Z"/><path class="cls-8" d="M517.57,284.57c2.43-.84,4.82-1.73,7.12-2.63l-.69-1.76c-2.27.89-4.64,1.77-7,2.61Z"/><path class="cls-2" d="M507.78,83.84s39.32-26.32,48.3-9S505,153.56,505,153.56Z"/><path class="cls-2" d="M507.78,198.52s39.32-26.32,48.3-9S505,268.24,505,268.24Z"/><path class="cls-2" d="M507.78,276.66s39.32-26.32,48.3-9S505,346.38,505,346.38Z"/><path class="cls-9" d="M480.61,54.35H264.72a29.11,29.11,0,0,0-29.11,29.11V524.68a29.12,29.12,0,0,0,29.11,29.12H480.61a29.12,29.12,0,0,0,29.12-29.12V83.46A29.11,29.11,0,0,0,480.61,54.35Z"/><path class="cls-3" d="M255.28,425.34S216.23,520.93,220,539s27.49,42.25,85.63,34.19S404,554.36,404,554.36s2.43-129,0-135.55-107-53-111.08-53S255.28,425.34,255.28,425.34Z"/><rect class="cls-10" x="249.72" y="94.02" width="245.89" height="420.1"/><path class="cls-11" d="M331.19,189.85h82.95a34.28,34.28,0,0,1,34.28,34.28V346.31a34.27,34.27,0,0,1-34.27,34.27h-83a34.27,34.27,0,0,1-34.27-34.27V224.13A34.28,34.28,0,0,1,331.19,189.85Z"/><path class="cls-12" d="M320,267.09l12,57.61a5.33,5.33,0,0,0,5.16,4.3h71a5.31,5.31,0,0,0,5.16-4.3l12-57.61Zm21.17,56.33a2.91,2.91,0,0,1-2.91-2.91l-4-40.83a2.91,2.91,0,1,1,5.82,0l4,40.83A2.91,2.91,0,0,1,341.17,323.42Zm14.63,0h0a2.91,2.91,0,0,1-2.91-2.91l-1.62-40.83a2.91,2.91,0,1,1,5.82,0l1.61,40.83A2.9,2.9,0,0,1,355.8,323.42Zm19.77-2.91a2.91,2.91,0,1,1-5.81,0V279.68a2.91,2.91,0,1,1,5.81,0Zm16.88,0a2.91,2.91,0,1,1-5.82,0l1.61-40.83a2.91,2.91,0,0,1,5.82,0Zm14.62,0a2.91,2.91,0,1,1-5.82,0l4-40.83a2.91,2.91,0,1,1,5.81,0Z"/><path class="cls-7" d="M426.09,271.75H319.25a4.66,4.66,0,0,1-4.66-4.66h0a4.66,4.66,0,0,1,4.66-4.65H426.09a4.65,4.65,0,0,1,4.65,4.65h0A4.66,4.66,0,0,1,426.09,271.75Z"/><path class="cls-13" d="M341.68,262.79v-4a12.13,12.13,0,0,1,12.13-12.12h37.72a12.12,12.12,0,0,1,12.12,12.12v4a2.61,2.61,0,0,0,2.61,2.61h0a2.6,2.6,0,0,0,2.6-2.61v-4a17.33,17.33,0,0,0-17.33-17.33H353.81a17.33,17.33,0,0,0-17.34,17.33v4a2.61,2.61,0,0,0,2.61,2.61h0A2.6,2.6,0,0,0,341.68,262.79Z"/><path class="cls-10" d="M322.78,75.56H423a2.52,2.52,0,0,1,2.52,2.52v.21A2.53,2.53,0,0,1,423,80.82H322.78a2.53,2.53,0,0,1-2.53-2.53v-.21a2.53,2.53,0,0,1,2.53-2.53Z"/><path class="cls-2" d="M230.71,348.13s1.49,5.52,4.84,8.23l4-45.85s28.59-31.95,21.68-75a64.38,64.38,0,0,0-20.92-38.19c-6.41-5.63-13.44-9.39-17.59-4.09,0,0-32.38,77.12-54.76,133.45Z"/><path class="cls-14" d="M384.6,534.36a12.08,12.08,0,1,1-12.07-12.08A12.07,12.07,0,0,1,384.6,534.36Z"/><path class="cls-11" d="M376.13,539.39h-7.21a1.44,1.44,0,0,1-1.43-1.43v-7.2a1.44,1.44,0,0,1,1.43-1.43h7.21a1.43,1.43,0,0,1,1.43,1.43V538A1.43,1.43,0,0,1,376.13,539.39Zm-7.21-9.67a1,1,0,0,0-1,1V538a1,1,0,0,0,1,1h7.21a1,1,0,0,0,1-1v-7.2a1,1,0,0,0-1-1Z"/><rect class="cls-15" x="249.72" y="489.27" width="245.89" height="24.85"/><rect class="cls-15" x="249.72" y="94.02" width="245.89" height="22.29"/><path class="cls-16" d="M228.54,238.48c8.94-4.11,13.62-27.4,15.29-37.86-7.18-7.23-16.19-13.73-21.12-7.43,0,0-7.13,17-17,40.83C212.46,237.78,221.85,241.56,228.54,238.48Z"/><path class="cls-8" d="M124.16,635.47c19.64,12.08,82.89,48.17,148.29,55.86,3.83.45,6.52,4,5.39,7l-11.42,30.6a5.09,5.09,0,0,1-5.59,2.89c-19.28-2.34-98.8-14.31-154.75-57.59a5,5,0,0,1-2-5.62l11.66-31.23C116.84,634.44,121,633.51,124.16,635.47Z"/><path d="M118.42,664.74l-.22-.08a2.22,2.22,0,0,1-1.3-2.86l3.52-9.42a2.21,2.21,0,0,1,2.85-1.3l.21.08a2.23,2.23,0,0,1,1.31,2.85l-3.52,9.43A2.22,2.22,0,0,1,118.42,664.74Z"/><path d="M130.18,672l-.22-.08a2.23,2.23,0,0,1-1.3-2.86l3.52-9.42a2.22,2.22,0,0,1,2.85-1.3l.22.08a2.22,2.22,0,0,1,1.3,2.85L133,670.69A2.22,2.22,0,0,1,130.18,672Z"/><path d="M142,679.19l-.21-.08a2.23,2.23,0,0,1-1.31-2.86l3.52-9.42a2.22,2.22,0,0,1,2.85-1.3l.22.08a2.22,2.22,0,0,1,1.3,2.86l-3.52,9.42A2.21,2.21,0,0,1,142,679.19Z"/><rect x="149.27" y="675.88" width="14.49" height="4.66" rx="2.22" transform="translate(-533.54 587.11) rotate(-69.48)"/><path d="M166,691.85l-.22-.08a2.21,2.21,0,0,1-1.3-2.85L168,679.5a2.21,2.21,0,0,1,2.85-1.3l.21.08a2.22,2.22,0,0,1,1.31,2.85l-3.52,9.42A2.21,2.21,0,0,1,166,691.85Z"/><path d="M178.47,697.25l-.21-.08a2.23,2.23,0,0,1-1.31-2.85l3.52-9.42a2.22,2.22,0,0,1,2.85-1.31l.22.08a2.22,2.22,0,0,1,1.3,2.86L181.32,696A2.21,2.21,0,0,1,178.47,697.25Z"/><path d="M191.17,702l-.21-.08a2.23,2.23,0,0,1-1.31-2.85l3.52-9.42a2.23,2.23,0,0,1,2.85-1.31l.22.09a2.21,2.21,0,0,1,1.3,2.85L194,700.69A2.21,2.21,0,0,1,191.17,702Z"/><path d="M204.12,706.08l-.22-.09a2.21,2.21,0,0,1-1.3-2.85l3.52-9.42a2.21,2.21,0,0,1,2.85-1.3l.22.08a2.22,2.22,0,0,1,1.3,2.85L207,704.77A2.23,2.23,0,0,1,204.12,706.08Z"/><rect x="212.77" y="699.59" width="14.49" height="4.66" rx="2.22" transform="translate(-514.5 661.99) rotate(-69.48)"/><rect x="225.89" y="703.22" width="14.49" height="4.66" rx="2.22" transform="translate(-509.42 677.83) rotate(-69.58)"/><path d="M244.32,714.66l-.21-.08a2.21,2.21,0,0,1-1.3-2.85l3.51-9.42a2.22,2.22,0,0,1,2.86-1.3l.21.08a2.21,2.21,0,0,1,1.3,2.85l-3.51,9.42A2.22,2.22,0,0,1,244.32,714.66Z"/><path d="M258,716.89l-.22-.08a2.21,2.21,0,0,1-1.3-2.85l3.52-9.42a2.21,2.21,0,0,1,2.85-1.3l.22.08a2.21,2.21,0,0,1,1.3,2.85l-3.52,9.42A2.21,2.21,0,0,1,258,716.89Z"/><path class="cls-17" d="M163,706.33l.05-.14a2.67,2.67,0,0,1-.62-.15l-15.48-5.78a3.09,3.09,0,0,1-1.65-4l14-37.38a3.09,3.09,0,0,1,3.89-2l15.47,5.78a2.89,2.89,0,0,1,1.77,2l3.68,1.59A6.7,6.7,0,0,0,180,659l-15.48-5.78a6.86,6.86,0,0,0-8.63,4.35L141.9,695a6.85,6.85,0,0,0,3.67,8.94l15.48,5.78a6.49,6.49,0,0,0,6.68-1.44C166.15,707.63,164.56,707,163,706.33Z"/><path class="cls-10" d="M159.58,676.67l-6.73-2.51a2.53,2.53,0,0,0-1.77,4.72l6.74,2.51Z"/><path class="cls-18" d="M454,370.7s-33.21,2.79-34.37,11.61S421,406.7,452.4,409.72h32.47s-9.71-26.94-9.25-27.87S454,370.7,454,370.7Z"/><path class="cls-2" d="M400.74,502.35a9,9,0,0,0-3.51,12.48c15.28,26.36,76,131.11,81.53,139.63,6.27,9.75,21.59,32.74,72.45,44.59S623,745,623,745H779.74s-36.93-58.52-67.58-210.41c0,0-23.69-126.11-68.28-121.93,0,0-27.17-28.56-53.65-23,0,0-50.16-30-78.73-30l-68.61-81.09a19.86,19.86,0,0,0-27.11-3.21,13,13,0,0,0-5.3,8.36c-2.09,13.24,15.32,46.68,43.19,87.09s96.85,168.61,66.89,225A302.82,302.82,0,0,1,463.43,536C441.26,505.09,415.18,494.69,400.74,502.35Z"/><path class="cls-16" d="M511.76,359.77a287.42,287.42,0,0,1,25.69,25.13c10.89,11.85,24.63,29.41,32.7,43,10.17,16.77,16.89,31.47,20.06,49.94l-.2,0c-3.66-17.35-13.21-36-21.53-48.94-6.22-10.09-17.74-26.12-32.27-42.93-7.3-8.41-16.55-18.35-24.6-26.05Z"/><path class="cls-16" d="M589.78,389.48a77.38,77.38,0,0,1,19.86,15.06,96.24,96.24,0,0,1,15,20.07,98.48,98.48,0,0,1,9.42,23.24,94.89,94.89,0,0,1,3.15,24.71l-.21,0a121.8,121.8,0,0,0-4.52-24.26,110.32,110.32,0,0,0-9.66-22.69,107.39,107.39,0,0,0-14.44-20,92.5,92.5,0,0,0-18.74-16Z"/><path class="cls-16" d="M643.3,412.11c6.55,4.95,13.19,13.72,16.4,19.65a88.65,88.65,0,0,1,9.37,23.89,74,74,0,0,1,2.18,16.9l-.2,0a128,128,0,0,0-3.56-16.48A115.66,115.66,0,0,0,658,432.7a93.37,93.37,0,0,0-14.76-20.44Z"/><path class="cls-16" d="M432.38,534.79c1.39-7.06-6.83-18.24-14.29-26.68a17.36,17.36,0,0,0-18.48-5,9,9,0,0,0-2.38,11.76c4.1,7.08,11.49,19.83,20.22,34.84C424,546.35,431.09,541.32,432.38,534.79Z"/><path class="cls-16" d="M439,310.48c4-.8,21.94-6.77,20.84-10.05h0l-17.74-21a20.16,20.16,0,0,0-13.52-7.07h-.08c-.14,0-.47,0-.92,0-2.38,0-8.24.68-9.53,7.11s9.26,21.82,13.9,28.25A7,7,0,0,0,439,310.48Z"/><path class="cls-3" d="M623,745H779.74S755.53,706.66,730,611.42c-11.18,70.13-72.89,66.08-97.38,70-28.2,4.48-137.66-18.34-153-25.53,6.83,10.41,23,31.88,71.55,43.19C602.08,710.89,623,745,623,745Z"/><path class="cls-3" d="M462,383.6c30.74,49.39,85.88,162.84,58.6,212.33l18.11,17.88s45.75-50.69-27.06-162.47A744.58,744.58,0,0,0,462,383.6Z"/><path class="cls-10" d="M89.72,356.64a31.8,31.8,0,0,0-6-4.17l.83-1.7A33.74,33.74,0,0,1,91,355.21Z"/><path class="cls-10" d="M92.72,539A121.12,121.12,0,0,1,83.54,528l1.52-1.11a120.33,120.33,0,0,0,9,10.89Zm-16.8-23.3a79.43,79.43,0,0,1-5.46-13.35l1.81-.55a76.49,76.49,0,0,0,5.33,13Zm-8.23-27.53c-.2-2.2-.31-4.45-.31-6.7,0-2.53.14-5.14.4-7.73l1.87.19c-.25,2.53-.38,5.07-.38,7.54,0,2.19.1,4.39.3,6.53Zm4.52-28.12-1.82-.48A121,121,0,0,1,74.91,446l1.76.7A121.31,121.31,0,0,0,72.21,460.09Zm10.22-26.43-1.7-.83c1.84-3.76,3.92-7.81,6.58-12.72L89,421C86.33,425.9,84.25,429.92,82.43,433.66Zm13.39-25.19-1.67-.89,0-.1a66.72,66.72,0,0,0,5.47-12.84l1.81.55a69.45,69.45,0,0,1-5.62,13.2Zm5.77-27.6a32.5,32.5,0,0,0-3.33-13.36l1.69-.84a34.37,34.37,0,0,1,3.53,14.13Z"/><path class="cls-10" d="M108.81,554c-2-1.63-3.93-3.29-5.77-4.93l1.25-1.41c1.82,1.62,3.75,3.27,5.72,4.88Z"/><path class="cls-4" d="M77.29,324.7l-2.5,30.41-17.66-19.9L0,288.43l48.72,15.34S72.7,315.43,73.8,317,77.29,324.7,77.29,324.7Z"/><polygon class="cls-5" points="103.18 311.63 0 288.43 77.29 324.7 103.18 311.63"/><polygon class="cls-5" points="37.61 347.22 69.41 331.35 0 288.43 37.61 347.22"/><path class="cls-19" d="M392.32,143.64h39.22a0,0,0,0,1,0,0V159a18.82,18.82,0,0,1-18.82,18.82h-1.59A18.82,18.82,0,0,1,392.32,159V143.64A0,0,0,0,1,392.32,143.64Z"/><path class="cls-20" d="M353.1,143.64h39.23a0,0,0,0,1,0,0V159a18.82,18.82,0,0,1-18.82,18.82h-1.59A18.82,18.82,0,0,1,353.1,159V143.64a0,0,0,0,1,0,0Z"/><path class="cls-19" d="M313.87,143.64H353.1a0,0,0,0,1,0,0V159a18.82,18.82,0,0,1-18.82,18.82h-1.59A18.82,18.82,0,0,1,313.87,159V143.64a0,0,0,0,1,0,0Z"/><path class="cls-20" d="M274.65,143.64h39.22a0,0,0,0,1,0,0V159a18.82,18.82,0,0,1-18.82,18.82h-1.59A18.82,18.82,0,0,1,274.65,159V143.64a0,0,0,0,1,0,0Z"/><path class="cls-19" d="M235.42,143.64h39.23a0,0,0,0,1,0,0V159a18.82,18.82,0,0,1-18.82,18.82h-1.59A18.82,18.82,0,0,1,235.42,159V143.64A0,0,0,0,1,235.42,143.64Z"/><path class="cls-20" d="M509.91,143.64h39.23a0,0,0,0,1,0,0V159a18.82,18.82,0,0,1-18.82,18.82h-1.59A18.82,18.82,0,0,1,509.91,159V143.64A0,0,0,0,1,509.91,143.64Z"/><path class="cls-19" d="M470.68,143.64h39.22a0,0,0,0,1,0,0V159a18.82,18.82,0,0,1-18.82,18.82H489.5A18.82,18.82,0,0,1,470.68,159V143.64A0,0,0,0,1,470.68,143.64Z"/><path class="cls-20" d="M431.55,143.64h39.23a0,0,0,0,1,0,0V159A18.82,18.82,0,0,1,452,177.78h-1.59A18.82,18.82,0,0,1,431.55,159V143.64A0,0,0,0,1,431.55,143.64Z"/><path class="cls-20" d="M196.2,143.64h39.23a0,0,0,0,1,0,0V159a18.82,18.82,0,0,1-18.82,18.82H215A18.82,18.82,0,0,1,196.2,159V143.64A0,0,0,0,1,196.2,143.64Z"/><polygon class="cls-21" points="386.66 94.02 358.77 94.02 353.1 143.64 392.32 143.64 386.66 94.02"/><polygon class="cls-22" points="358.77 94.02 330.88 94.02 313.88 143.64 353.1 143.64 358.77 94.02"/><polygon class="cls-21" points="330.88 94.02 302.99 94.02 274.65 143.64 313.88 143.64 330.88 94.02"/><polygon class="cls-22" points="302.99 94.02 275.1 94.02 235.43 143.64 274.65 143.64 302.99 94.02"/><polygon class="cls-21" points="275.1 94.02 247.21 94.02 196.2 143.64 235.43 143.64 275.1 94.02"/><polygon class="cls-21" points="498.03 94.02 470.14 94.02 509.91 143.64 549.13 143.64 498.03 94.02"/><polygon class="cls-22" points="470.28 94.02 442.39 94.02 470.68 143.64 509.91 143.64 470.28 94.02"/><polygon class="cls-21" points="442.39 94.02 414.5 94.02 431.55 143.64 470.77 143.64 442.39 94.02"/><polygon class="cls-22" points="414.5 94.02 386.61 94.02 392.32 143.64 431.55 143.64 414.5 94.02"/><rect class="cls-5" x="281.81" y="406.16" width="181.72" height="34.35" rx="16.48"/><path class="cls-10" d="M336,426a4.42,4.42,0,0,1-.18,1.29,3.64,3.64,0,0,1-.5,1.05,3.53,3.53,0,0,1-.77.82,4.42,4.42,0,0,1-1,.6,5.86,5.86,0,0,1-1.21.36,8.21,8.21,0,0,1-1.48.12H327a.83.83,0,0,1-.5-.18.74.74,0,0,1-.23-.62V416.27a.76.76,0,0,1,.23-.62.83.83,0,0,1,.5-.18h3.36a7.71,7.71,0,0,1,2.17.26,3.77,3.77,0,0,1,1.41.73,3,3,0,0,1,.85,1.17,4.16,4.16,0,0,1,.28,1.58,4.09,4.09,0,0,1-.12,1,3.71,3.71,0,0,1-.37.89,3,3,0,0,1-.62.72,3.49,3.49,0,0,1-.85.53,3.48,3.48,0,0,1,1.13.41,3.4,3.4,0,0,1,.92.77,3.69,3.69,0,0,1,.62,1.1A4.08,4.08,0,0,1,336,426Zm-3-6.61a3,3,0,0,0-.15-1,1.89,1.89,0,0,0-.46-.74,2.18,2.18,0,0,0-.84-.46,4.88,4.88,0,0,0-1.35-.16h-2v4.79h2.23a3.22,3.22,0,0,0,1.23-.2,2.36,2.36,0,0,0,.78-.54,2.2,2.2,0,0,0,.45-.79A3.22,3.22,0,0,0,333,419.4Zm.89,6.73a3,3,0,0,0-.21-1.17,2.15,2.15,0,0,0-.61-.84,2.59,2.59,0,0,0-1-.52,5.48,5.48,0,0,0-1.53-.18h-2.35v5.21H331a4,4,0,0,0,1.17-.16,2.73,2.73,0,0,0,.89-.48,2.33,2.33,0,0,0,.6-.78A2.6,2.6,0,0,0,333.9,426.13Z"/><path class="cls-10" d="M350.06,424.79a6.64,6.64,0,0,1-.4,2.4,4.82,4.82,0,0,1-1.12,1.79,4.72,4.72,0,0,1-1.78,1.11,7.1,7.1,0,0,1-2.39.37,6.5,6.5,0,0,1-2.22-.35,4.79,4.79,0,0,1-1.73-1,4.69,4.69,0,0,1-1.11-1.73,6.87,6.87,0,0,1-.38-2.4v-9.17a.29.29,0,0,1,0-.16.29.29,0,0,1,.16-.11l.3-.07a3,3,0,0,1,.48,0,3.18,3.18,0,0,1,.47,0,2.28,2.28,0,0,1,.3.07.3.3,0,0,1,.15.11.3.3,0,0,1,.05.16v8.93a5.69,5.69,0,0,0,.25,1.79,3.41,3.41,0,0,0,.72,1.27,3,3,0,0,0,1.15.77,4.14,4.14,0,0,0,1.5.26,4.21,4.21,0,0,0,1.52-.26,2.74,2.74,0,0,0,1.13-.75,3.28,3.28,0,0,0,.71-1.24,5.7,5.7,0,0,0,.25-1.74v-9a.29.29,0,0,1,0-.16.33.33,0,0,1,.16-.11l.3-.07a3.23,3.23,0,0,1,.48,0,3,3,0,0,1,.46,0,2.75,2.75,0,0,1,.3.07.38.38,0,0,1,.16.11.3.3,0,0,1,.05.16Z"/><path class="cls-10" d="M362.17,429.44c0,.13,0,.25,0,.36a.82.82,0,0,1-.08.25.39.39,0,0,1-.13.15.34.34,0,0,1-.17.05h-7.09a.78.78,0,0,1-.49-.18.72.72,0,0,1-.24-.62V416.27a.73.73,0,0,1,.24-.62.78.78,0,0,1,.49-.18h7a.34.34,0,0,1,.17,0,.31.31,0,0,1,.12.15,1.26,1.26,0,0,1,.07.25,2.21,2.21,0,0,1,0,.39,2,2,0,0,1,0,.36,1.26,1.26,0,0,1-.07.25.33.33,0,0,1-.12.14.34.34,0,0,1-.17.05h-5.78v4.63h5a.34.34,0,0,1,.17.05.44.44,0,0,1,.12.15.67.67,0,0,1,.08.25c0,.1,0,.23,0,.37a3.53,3.53,0,0,1,0,.36.67.67,0,0,1-.08.24.3.3,0,0,1-.12.13.33.33,0,0,1-.17,0h-5v5.28h5.86a.34.34,0,0,1,.17.05.44.44,0,0,1,.13.14.82.82,0,0,1,.08.25C362.16,429.16,362.17,429.28,362.17,429.44Z"/><path class="cls-10" d="M381.82,429.44a.8.8,0,0,1-.08.39.79.79,0,0,1-.47.41,1.15,1.15,0,0,1-.31,0h-.65a2.23,2.23,0,0,1-.54-.06,1.13,1.13,0,0,1-.43-.23,2.31,2.31,0,0,1-.42-.45,6.06,6.06,0,0,1-.44-.73l-4.5-8.4c-.24-.44-.48-.89-.72-1.37s-.46-.94-.66-1.39h0c0,.55,0,1.11,0,1.68s0,1.14,0,1.7V430a.33.33,0,0,1-.05.16.41.41,0,0,1-.16.11,1.67,1.67,0,0,1-.3.07,3.86,3.86,0,0,1-1,0,1.37,1.37,0,0,1-.29-.07.5.5,0,0,1-.16-.11.32.32,0,0,1,0-.16V416.32a.76.76,0,0,1,.25-.65,1,1,0,0,1,.57-.2h1a2.37,2.37,0,0,1,.57.06,1.18,1.18,0,0,1,.41.19,1.72,1.72,0,0,1,.35.36,4.36,4.36,0,0,1,.36.59l3.47,6.49.62,1.16c.19.37.39.74.57,1.11s.36.72.55,1.08.35.71.53,1.07h0c0-.6,0-1.23,0-1.88v-9.9a.19.19,0,0,1,.05-.14.3.3,0,0,1,.16-.12,1,1,0,0,1,.3-.08l.49,0,.46,0a1.08,1.08,0,0,1,.3.08.31.31,0,0,1,.15.12.19.19,0,0,1,.05.14Z"/><path class="cls-10" d="M398.13,422.69a11.53,11.53,0,0,1-.43,3.23,6.69,6.69,0,0,1-1.26,2.45,5.5,5.5,0,0,1-2.11,1.55,7.47,7.47,0,0,1-2.95.54,7.67,7.67,0,0,1-2.89-.49,4.91,4.91,0,0,1-2-1.45,6.13,6.13,0,0,1-1.19-2.35,12.08,12.08,0,0,1-.38-3.23,11.21,11.21,0,0,1,.42-3.17,6.47,6.47,0,0,1,1.27-2.43,5.48,5.48,0,0,1,2.11-1.54,8.43,8.43,0,0,1,5.8-.05,5,5,0,0,1,2,1.43,6.06,6.06,0,0,1,1.2,2.33A11.71,11.71,0,0,1,398.13,422.69Zm-2.08.14a11.46,11.46,0,0,0-.23-2.34,5.13,5.13,0,0,0-.74-1.87,3.52,3.52,0,0,0-1.38-1.24,4.62,4.62,0,0,0-2.15-.45,4.37,4.37,0,0,0-2.14.48,4,4,0,0,0-1.41,1.28,5.31,5.31,0,0,0-.77,1.87,10.19,10.19,0,0,0-.24,2.24,12.73,12.73,0,0,0,.22,2.4,5.33,5.33,0,0,0,.73,1.89,3.46,3.46,0,0,0,1.37,1.23,4.67,4.67,0,0,0,2.16.44,4.46,4.46,0,0,0,2.17-.48,3.81,3.81,0,0,0,1.41-1.29,5.49,5.49,0,0,0,.77-1.89A11.06,11.06,0,0,0,396.05,422.83Z"/><path class="cls-10" d="M415.13,429.81a.71.71,0,0,1-.14.26.76.76,0,0,1-.25.15,1.93,1.93,0,0,1-.4.07,4.45,4.45,0,0,1-.57,0,5,5,0,0,1-.6,0,1.92,1.92,0,0,1-.41-.07.5.5,0,0,1-.36-.41l-3.1-11.15h0l-2.85,11.15a.7.7,0,0,1-.12.26.57.57,0,0,1-.23.15,1.62,1.62,0,0,1-.38.07,5,5,0,0,1-.6,0,5.53,5.53,0,0,1-.63,0,2,2,0,0,1-.41-.07.62.62,0,0,1-.24-.15.49.49,0,0,1-.12-.26l-3.91-13.64a2.17,2.17,0,0,1-.07-.41.24.24,0,0,1,.09-.23.56.56,0,0,1,.31-.1,4.58,4.58,0,0,1,.59,0l.55,0a1.07,1.07,0,0,1,.32.06.32.32,0,0,1,.15.13.76.76,0,0,1,.06.21l3.32,12.37h0l3.16-12.35a.84.84,0,0,1,.08-.21.33.33,0,0,1,.17-.13,1,1,0,0,1,.32-.07,4.17,4.17,0,0,1,.56,0,3.25,3.25,0,0,1,.5,0,1.1,1.1,0,0,1,.31.07.3.3,0,0,1,.16.13.58.58,0,0,1,.09.21l3.39,12.35h0l3.26-12.36a1.67,1.67,0,0,1,.06-.2.25.25,0,0,1,.15-.13,1,1,0,0,1,.3-.07,3.85,3.85,0,0,1,.54,0,4,4,0,0,1,.54,0,.61.61,0,0,1,.29.11.26.26,0,0,1,.08.23,1.91,1.91,0,0,1-.06.41Z"/></g></g></g></svg>