<svg xmlns="http://www.w3.org/2000/svg" xmlns:xlink="http://www.w3.org/1999/xlink" viewBox="0 0 799.15 649.66"><defs><style>.cls-1{fill:url(#linear-gradient);}.cls-2{fill:#fff;}.cls-3{fill:url(#linear-gradient-2);}.cls-4{fill:#f08533;}.cls-5{fill:url(#linear-gradient-3);}.cls-6{fill:url(#linear-gradient-4);}.cls-7{fill:url(#linear-gradient-5);}.cls-8{fill:#323657;}.cls-9{fill:url(#linear-gradient-6);}.cls-10{fill:url(#linear-gradient-7);}.cls-11{fill:#3a7d8d;}.cls-12{fill:#deccc5;}.cls-13{fill:#f97841;}.cls-14{fill:#c5d2de;}.cls-15{fill:url(#linear-gradient-8);}.cls-16{fill:#292929;}.cls-17{fill:#828282;}.cls-18{fill:url(#linear-gradient-9);}.cls-19{fill:#e2d2ca;}.cls-20{fill:#706865;}.cls-21{fill:#ccbdb7;}.cls-22{fill:url(#linear-gradient-10);}.cls-23{fill:#b59074;}.cls-24{fill:#ffb755;}.cls-25{fill:#ead8cf;}.cls-26{fill:#da9b5b;}.cls-27{fill:#424773;}.cls-28{fill:#292c47;}.cls-29{fill:#eea886;}.cls-30{fill:#3a3f47;}.cls-31{fill:#736a67;}.cls-32{fill:#5e5854;}.cls-33{fill:#bfb2ac;}.cls-34{fill:url(#linear-gradient-11);}.cls-35{fill:#f5f7ff;}.cls-36{fill:#ffc655;}.cls-37{fill:#eb3d7b;}.cls-38{fill:#918783;}.cls-39{fill:#dfe1e8;}.cls-40{fill:#36572b;}.cls-41{fill:#45613c;}.cls-42{fill:#925e2e;}.cls-43{fill:#48753a;}.cls-44{fill:#538742;}.cls-45{fill:#877670;}.cls-46{fill:#876455;}.cls-47{fill:#715346;}.cls-48{fill:#9e633a;}.cls-49{fill:#97a43c;}.cls-50{fill:#82522f;}.cls-51{fill:#c67b47;}.cls-52{fill:url(#linear-gradient-12);}.cls-53{fill:#434343;}.cls-54{fill:#a77860;}.cls-55{fill:#6e6760;}.cls-56{fill:#c98462;}.cls-57{fill:#cfbfb8;}.cls-58{fill:#25354d;}.cls-59{fill:#2f4563;}.cls-60{fill:#eddad3;}.cls-61{fill:#c4c4c4;}.cls-62{fill:#de9673;}.cls-63{fill:#1e2d40;}.cls-64{fill:#3c4145;}.cls-65{fill:#eea987;}.cls-66{fill:#23344a;}.cls-67{fill:#464240;}</style><linearGradient id="linear-gradient" x1="223.37" y1="601.76" x2="589.76" y2="601.76" gradientUnits="userSpaceOnUse"><stop offset="0" stop-color="#fa5"/><stop offset="0.29" stop-color="#fea051"/><stop offset="0.79" stop-color="#fb8646"/><stop offset="1" stop-color="#f97841"/></linearGradient><linearGradient id="linear-gradient-2" x1="53.55" y1="647.13" x2="419.94" y2="647.13" gradientUnits="userSpaceOnUse"><stop offset="0" stop-color="#e37e30"/><stop offset="1" stop-color="#e8a12e"/></linearGradient><linearGradient id="linear-gradient-3" x1="176.82" y1="273.11" x2="660.54" y2="273.11" gradientTransform="translate(815.32 546.23) rotate(-180)" xlink:href="#linear-gradient"/><linearGradient id="linear-gradient-4" x1="205.35" y1="252.72" x2="609.21" y2="252.72" gradientUnits="userSpaceOnUse"><stop offset="0" stop-color="#fff"/><stop offset="0.39" stop-color="#fbfbfb"/><stop offset="0.81" stop-color="#eee"/><stop offset="1" stop-color="#e5e5e5"/></linearGradient><linearGradient id="linear-gradient-5" x1="294.24" y1="510.25" x2="521.09" y2="510.25" gradientUnits="userSpaceOnUse"><stop offset="0" stop-color="#ff9f55"/><stop offset="1" stop-color="#ffd255"/></linearGradient><linearGradient id="linear-gradient-6" x1="191.03" y1="39.96" x2="282.12" y2="39.96" gradientUnits="userSpaceOnUse"><stop offset="0" stop-color="#fa5"/><stop offset="0.27" stop-color="#fea653"/><stop offset="0.57" stop-color="#fd994e"/><stop offset="0.87" stop-color="#fa8345"/><stop offset="1" stop-color="#f97841"/></linearGradient><linearGradient id="linear-gradient-7" x1="635.08" y1="539.12" x2="635.08" y2="435.85" gradientUnits="userSpaceOnUse"><stop offset="0" stop-color="#3076a1"/><stop offset="1" stop-color="#639c38"/></linearGradient><linearGradient id="linear-gradient-8" x1="667.38" y1="420.49" x2="667.38" y2="359.82" xlink:href="#linear-gradient-7"/><linearGradient id="linear-gradient-9" x1="510.85" y1="127.21" x2="636.92" y2="127.21" gradientUnits="userSpaceOnUse"><stop offset="0" stop-color="#eb3d7b"/><stop offset="0.21" stop-color="#ed4383"/><stop offset="0.54" stop-color="#f35598"/><stop offset="0.94" stop-color="#fd71bb"/><stop offset="1" stop-color="#ff76c1"/></linearGradient><linearGradient id="linear-gradient-10" x1="142.38" y1="410.22" x2="142.38" y2="431.58" gradientUnits="userSpaceOnUse"><stop offset="0.08" stop-color="#bcd7e8"/><stop offset="1" stop-color="#e6e7e8"/></linearGradient><linearGradient id="linear-gradient-11" x1="-3634.06" y1="367.83" x2="-3519.11" y2="367.83" gradientTransform="matrix(-1, 0, 0, 1, -3434.21, 0)" xlink:href="#linear-gradient-10"/><linearGradient id="linear-gradient-12" x1="235.98" y1="216.42" x2="474.24" y2="216.42" gradientUnits="userSpaceOnUse"><stop offset="0" stop-color="#eb3d7b"/><stop offset="1" stop-color="#eb3d7b"/></linearGradient></defs><title>Asset 7</title><g id="Layer_2" data-name="Layer 2"><g id="Layer_1-2" data-name="Layer 1"><polygon class="cls-1" points="566.84 558.92 406.56 558.92 246.29 558.92 223.37 644.61 406.56 644.61 589.76 644.61 566.84 558.92"/><path class="cls-2" d="M248.82,581.68h21a1.27,1.27,0,0,1,1.38,1.41l-2,9.13a1.35,1.35,0,0,1-1.37,1H246.43a1.26,1.26,0,0,1-1.37-1.46l2.39-9.12A1.38,1.38,0,0,1,248.82,581.68Z"/><polygon class="cls-2" points="279.41 581.68 295.26 581.68 293.15 593.19 277 593.19 279.41 581.68"/><polygon class="cls-2" points="303.19 581.68 319.05 581.68 317.39 593.19 301.23 593.2 303.19 581.68"/><polygon class="cls-2" points="326.98 581.68 342.83 581.68 341.63 593.19 325.47 593.19 326.98 581.68"/><polygon class="cls-2" points="350.76 581.68 366.61 581.68 365.86 593.19 349.7 593.19 350.76 581.68"/><polygon class="cls-2" points="374.54 581.68 390.4 581.68 390.1 593.19 373.94 593.2 374.54 581.68"/><polygon class="cls-2" points="564.86 581.68 541.08 581.68 543.64 593.19 567.87 593.19 564.86 581.68"/><polygon class="cls-2" points="533.15 581.68 517.29 581.68 519.4 593.19 535.56 593.19 533.15 581.68"/><polygon class="cls-2" points="509.37 581.68 493.51 581.68 495.17 593.19 511.33 593.2 509.37 581.68"/><polygon class="cls-2" points="485.58 581.68 469.73 581.68 470.93 593.19 487.09 593.19 485.58 581.68"/><polygon class="cls-2" points="461.8 581.68 445.94 581.68 446.7 593.19 462.86 593.19 461.8 581.68"/><polygon class="cls-2" points="438.02 581.68 422.16 581.68 422.46 593.19 438.62 593.2 438.02 581.68"/><polygon class="cls-2" points="398.32 581.68 414.18 581.68 414.44 593.19 398.32 593.19 398.32 581.68"/><polygon class="cls-2" points="241.84 601.76 274.97 601.76 273.09 613.64 239.33 613.64 241.84 601.76"/><polygon class="cls-2" points="570.03 601.76 529.08 601.76 531.41 613.64 573.14 613.64 570.03 601.76"/><polygon class="cls-2" points="520.89 601.76 504.51 601.76 506.37 613.64 523.07 613.64 520.89 601.76"/><polygon class="cls-2" points="496.32 601.76 479.93 601.76 481.33 613.64 498.03 613.64 496.32 601.76"/><polygon class="cls-2" points="471.74 601.76 455.36 601.76 456.3 613.64 472.99 613.64 471.74 601.76"/><polygon class="cls-2" points="447.17 601.76 430.79 601.76 431.26 613.64 447.95 613.64 447.17 601.76"/><polygon class="cls-2" points="236.89 622.93 270.76 622.93 268.29 634.72 233.8 634.72 236.89 622.93"/><polygon class="cls-2" points="279.23 622.93 296.17 622.93 294.16 634.72 276.92 634.72 279.23 622.93"/><polygon class="cls-2" points="304.64 622.93 321.57 622.93 431.65 622.93 432.12 634.72 302.78 634.72 304.64 622.93"/><polygon class="cls-2" points="440.13 622.93 457.06 622.93 457.99 634.72 440.74 634.72 440.13 622.93"/><polygon class="cls-2" points="465.53 622.93 482.46 622.93 483.85 634.72 466.61 634.72 465.53 622.93"/><polygon class="cls-2" points="490.93 622.93 507.87 622.93 509.72 634.72 492.48 634.72 490.93 622.93"/><polygon class="cls-2" points="516.34 622.93 533.27 622.93 535.59 634.72 518.34 634.72 516.34 622.93"/><polygon class="cls-2" points="541.74 622.93 575.61 622.93 578.7 634.72 544.21 634.72 541.74 622.93"/><polygon class="cls-2" points="422.63 601.76 406.38 601.76 406.38 613.64 422.94 613.64 422.63 601.76"/><polygon class="cls-2" points="398.06 601.76 381.68 601.76 381.21 613.64 397.91 613.64 398.06 601.76"/><polygon class="cls-2" points="373.49 601.76 357.11 601.76 356.18 613.64 372.87 613.64 373.49 601.76"/><polygon class="cls-2" points="348.92 601.76 332.54 601.76 331.14 613.64 347.83 613.64 348.92 601.76"/><polygon class="cls-2" points="324.35 601.76 307.96 601.76 306.1 613.64 322.79 613.64 324.35 601.76"/><polygon class="cls-2" points="299.77 601.76 283.39 601.76 281.06 613.64 297.75 613.64 299.77 601.76"/><polygon class="cls-2" points="249.59 574.45 252.28 564.17 259.98 564.17 257.47 574.45 249.59 574.45"/><polygon class="cls-2" points="267.68 564.17 283.08 564.17 280.93 574.45 265.26 574.45 267.68 564.17"/><polygon class="cls-2" points="290.78 564.17 306.17 564.17 304.42 574.45 288.76 574.45 290.78 564.17"/><polygon class="cls-2" points="313.87 564.17 329.27 564.17 327.92 574.45 312.26 574.45 313.87 564.17"/><polygon class="cls-2" points="336.97 564.17 352.36 564.17 351.42 574.45 335.76 574.45 336.97 564.17"/><polygon class="cls-2" points="360.06 564.17 375.46 564.17 374.92 574.45 359.25 574.45 360.06 564.17"/><polygon class="cls-2" points="383.16 564.17 398.55 564.17 398.42 574.45 382.75 574.45 383.16 564.17"/><polygon class="cls-2" points="406.25 564.17 421.65 564.17 421.92 574.45 406.25 574.45 406.25 564.17"/><polygon class="cls-2" points="429.35 564.17 444.74 564.17 445.42 574.45 429.75 574.45 429.35 564.17"/><polygon class="cls-2" points="452.44 564.17 467.84 564.17 468.92 574.45 453.25 574.45 452.44 564.17"/><polygon class="cls-2" points="475.54 564.17 490.94 564.17 492.42 574.45 476.75 574.45 475.54 564.17"/><polygon class="cls-2" points="498.63 564.17 514.03 564.17 515.91 574.45 500.25 574.45 498.63 564.17"/><polygon class="cls-2" points="521.73 564.17 537.13 564.17 539.41 574.45 523.75 574.45 521.73 564.17"/><polygon class="cls-2" points="544.82 564.17 560.22 564.17 562.91 574.45 547.25 574.45 544.82 564.17"/><rect class="cls-3" x="223.37" y="644.6" width="366.39" height="5.06"/><rect class="cls-4" x="382.45" y="357.09" width="50.42" height="153.16" transform="translate(815.32 867.34) rotate(180)"/><rect class="cls-5" x="189.95" y="119.53" width="435.42" height="307.16" rx="42.19" transform="translate(815.32 546.23) rotate(180)"/><rect class="cls-6" x="205.35" y="134.57" width="403.86" height="236.29"/><rect class="cls-7" x="294.24" y="504.47" width="226.85" height="11.56"/><path class="cls-8" d="M222.82,345.62h0C222.89,345.65,222.9,345.66,222.82,345.62Z"/><polygon class="cls-9" points="191.03 0 282.12 0 282.12 66.02 282.12 79.93 268.21 66.02 191.03 66.02 191.03 0"/><rect class="cls-2" x="212.53" y="18.46" width="48.09" height="4.99" rx="1.72"/><rect class="cls-2" x="212.53" y="28.31" width="43.44" height="4.99" rx="1.72"/><rect class="cls-2" x="212.53" y="38.43" width="33.38" height="4.99" rx="1.72"/><path class="cls-10" d="M566.85,466.29H724.66a0,0,0,0,1,0,0v62a0,0,0,0,1,0,0H566.85A21.35,21.35,0,0,1,545.5,506.9V487.64a21.35,21.35,0,0,1,21.35-21.35Z"/><path class="cls-11" d="M753.33,472.67v49.2h2.93v6.38H634.67a11.62,11.62,0,0,1-11.62-11.62V477.91a11.62,11.62,0,0,1,11.62-11.62H756.26v6.38Z"/><path class="cls-2" d="M648.94,472.67H753.33a0,0,0,0,1,0,0v49.21a0,0,0,0,1,0,0H648.94a17,17,0,0,1-17-17v-15.3a17,17,0,0,1,17-17Z"/><rect class="cls-12" x="686.58" y="497.02" width="47.28" height="1.22"/><rect class="cls-12" x="664.41" y="500.72" width="50.49" height="1.22"/><path class="cls-13" d="M558.88,418.64H721.56a0,0,0,0,1,0,0v47.84a0,0,0,0,1,0,0H558.89A16.48,16.48,0,0,1,542.4,450V435.12a16.48,16.48,0,0,1,16.48-16.48Z" transform="translate(1263.97 885.11) rotate(-180)"/><path class="cls-13" d="M513.73,423.56v38H510.8v4.93H631.94A12.07,12.07,0,0,0,644,454.4V430.71a12.06,12.06,0,0,0-12.07-12.07H510.8v4.92Z"/><path class="cls-2" d="M526.82,423.56H637.29a0,0,0,0,1,0,0v38a0,0,0,0,1,0,0H526.82a13.09,13.09,0,0,1-13.09-13.09V436.65A13.09,13.09,0,0,1,526.82,423.56Z" transform="translate(1151.02 885.11) rotate(-180)"/><rect class="cls-14" x="562.49" y="435.09" width="36.63" height="0.73" transform="translate(1161.61 870.91) rotate(180)"/><rect class="cls-14" x="577.18" y="437.3" width="39.12" height="0.73" transform="translate(1193.47 875.34) rotate(180)"/><path class="cls-15" d="M578.64,385.5H767.55a0,0,0,0,1,0,0v33.14a0,0,0,0,1,0,0H578.64a11.42,11.42,0,0,1-11.42-11.42v-10.3A11.42,11.42,0,0,1,578.64,385.5Z"/><path class="cls-11" d="M796.22,388.91v26.32h2.93v3.41H673.21a7.26,7.26,0,0,1-7.27-7.27v-18.6a7.26,7.26,0,0,1,7.27-7.27H799.15v3.41Z"/><path class="cls-2" d="M680.86,388.91H796.22a0,0,0,0,1,0,0v26.32a0,0,0,0,1,0,0H680.86a9.07,9.07,0,0,1-9.07-9.07V398A9.07,9.07,0,0,1,680.86,388.91Z"/><rect class="cls-12" x="729.47" y="394.53" width="47.28" height="0.94"/><rect class="cls-12" x="707.3" y="403.92" width="50.49" height="0.65"/><path class="cls-13" d="M562.14,352.36H696.45a0,0,0,0,1,0,0V385.5a0,0,0,0,1,0,0H562.14a11.42,11.42,0,0,1-11.42-11.42v-10.3a11.42,11.42,0,0,1,11.42-11.42Z"/><path class="cls-13" d="M717.31,355.77v26.32h2.13v3.41H629.81a7.28,7.28,0,0,1-7.28-7.28V359.64a7.28,7.28,0,0,1,7.28-7.28h89.63v3.41Z"/><path class="cls-2" d="M635.86,355.77H717.3a0,0,0,0,1,0,0v26.32a0,0,0,0,1,0,0H635.85a9.07,9.07,0,0,1-9.07-9.07v-8.18A9.07,9.07,0,0,1,635.86,355.77Z"/><rect class="cls-14" x="668.74" y="361.39" width="34.4" height="0.94"/><rect class="cls-14" x="652.62" y="370.78" width="36.73" height="0.65"/><rect class="cls-16" x="624.03" y="155.23" width="59.97" height="2.41" transform="translate(494.7 809.75) rotate(-89.75)"/><path class="cls-16" d="M653.85,184.52h.07c5.69.29,4.9,29.55,4.9,29.55l-5,0h-.08l-5,0S648.16,184.76,653.85,184.52Z"/><polygon class="cls-17" points="512.66 104.19 457.43 71.46 573.33 40.06 701.36 132.81 631.54 147.22 512.66 104.19"/><path class="cls-18" d="M510.85,119.53s55.2-.4,114.52,38.53l11.55-20.31S597.16,86.31,512.5,98.11Z"/><rect class="cls-19" x="82.14" y="426.33" width="50.57" height="3"/><rect class="cls-20" x="88.92" y="437.14" width="4.43" height="136.53" transform="translate(182.27 1010.82) rotate(180)"/><rect class="cls-21" x="124.8" y="425.48" width="35.15" height="4.29"/><rect class="cls-22" x="135.72" y="388.9" width="13.31" height="40.43"/><rect class="cls-23" x="64" y="429.38" width="194.77" height="7.76"/><path class="cls-24" d="M26.62,382.39s-2.13,29.88,3.71,33.45c3.65,2.24,18.23,9.8,17.8,11.21s-8.23,12.61-8.23,12.61-28-18.44-28.91-24.25,1.38-43.75,5.23-45.5c2.88-1.31,4.4-.23,8,2.47C29.35,376.17,26.62,382.39,26.62,382.39Z"/><path class="cls-25" d="M77.66,390.92l2.47-.91s-3.08-7.23-4.43-7.05a33.59,33.59,0,0,0-3.48.71Z"/><path class="cls-26" d="M78.22,392.17c-.31-.24-5.25-9.7-5.25-9.7l-10.53,1.44,5.69,11.2Z"/><path class="cls-27" d="M61.07,555s-.87,6.05-1,7-9.68-.53-9.68-.53l-.78-7.2S59.88,554.18,61.07,555Z"/><path class="cls-28" d="M60.2,561.22a25.81,25.81,0,0,0,6,5.23c2.93,1.58,7.54,2.21,9.28,3.86,1.25,1.18,4.56,6.29-7.63,6.19s-18.07.72-19.37-1.24,1.89-14.45,1.89-14.45S53.23,561.85,60.2,561.22Z"/><path class="cls-27" d="M122.44,555.09s-.87,6-1,6.95-9.68-.53-9.68-.53l-.78-7.2S121.25,554.24,122.44,555.09Z"/><path class="cls-28" d="M121.57,561.27a25.56,25.56,0,0,0,6,5.23c2.93,1.59,13.73,2.89,15.47,4.54,1.25,1.18,3.34,6-13.82,5.51-12.19-.31-18.07.72-19.37-1.23s1.89-14.46,1.89-14.46S114.43,562,121.57,561.27Z"/><path class="cls-28" d="M30.18,450.62s34.82,5.89,42.69,7.13,50.51,11.84,55.84,15.08c4.25,2.57-2.22,64.39-3.73,88h-16.8L107,490.06c-20.16.5-34.54-4.72-49.22-2.49S30.82,493,21.5,480.46C21.5,480.46,21.15,453.35,30.18,450.62Z"/><path class="cls-28" d="M64.5,560.86l-16.37-1-1.59-69.79c-8.68.21-11.65-.34-18.68-1.19L14.65,458.15c11.58,2.32,48.69,11.68,53.64,14.68C72.54,475.4,66,537.28,64.5,560.86Z"/><path class="cls-29" d="M46.21,320.08s12.77-3.52,17.64,6.39,2.66,28.69-3.77,30.46-15.69-.27-18.36-6.43-4.8-14.94-4.16-20.61S42.82,321.44,46.21,320.08Z"/><path class="cls-29" d="M56.74,355s-.14,7.54.69,9.15-17.78,1.2-17.78,1.2,2.94-9.05,1.27-16.76S56.74,355,56.74,355Z"/><path class="cls-30" d="M39.92,345.69s1,2,5.81,1.69,11.17-6.14,13.21-6.65S61.11,339,61.11,339L62.19,341l2.1.31s-1.43-5.82,1.68-7.87-1.4-18.56-17.11-14.58c0,0-12,2.19-12.14,8.89S37.59,342.14,39.92,345.69Z"/><path class="cls-19" d="M58.41,363.9s0-3.07-1.45-3.36-14.62-2.12-16.33-1.44l-.73,4S43.19,365.17,58.41,363.9Z"/><path class="cls-29" d="M62.24,337.67c-.36-2.52-3.22-5.41-4.86-1.49s1.11,9.63,2.95,9.32S62.72,341.08,62.24,337.67Z"/><path class="cls-8" d="M113.84,400.17h0C113.92,400.21,113.93,400.22,113.84,400.17Z"/><path class="cls-30" d="M42.49,321.88s-15.57-.73-2.72,23.57Z"/><polygon class="cls-31" points="7.81 569.14 8.96 572.4 57.89 557.24 55.54 550.64 7.81 569.14"/><rect class="cls-31" x="54" y="501.73" width="5.56" height="53.19"/><rect class="cls-32" x="40.39" y="498.9" width="32.8" height="3.13"/><polygon class="cls-31" points="106.19 569.14 105.04 572.4 56.11 557.24 58.26 550.23 106.19 569.14"/><polygon class="cls-31" points="71.72 572.05 71.72 575.84 56.11 557.24 58.26 550.23 71.72 572.05"/><circle class="cls-33" cx="106.19" cy="573.67" r="4.57"/><path class="cls-33" d="M72.11,573.67a4.57,4.57,0,1,1-4.57-4.57A4.57,4.57,0,0,1,72.11,573.67Z"/><path class="cls-33" d="M12.38,573.67a4.58,4.58,0,1,1-4.57-4.57A4.58,4.58,0,0,1,12.38,573.67Z"/><rect class="cls-31" x="18.15" y="487.03" width="77.7" height="11.87" rx="4.09"/><rect class="cls-20" x="229.42" y="437.14" width="4.43" height="136.53"/><rect class="cls-34" x="84.9" y="327.28" width="114.95" height="81.09" rx="16.09"/><rect class="cls-35" x="89.41" y="331.67" width="105.94" height="64"/><path class="cls-36" d="M166.17,429.48V428s-2-9-16.37-9-14.06,10.41-14.06,10.41Z"/><path class="cls-29" d="M135.56,420.4s3.12-.24,4.26-.93,8-5.29,9.58-4.55,12.29,4,11.92,5.57-1.36,1.41-2.12,1.13-8.51-1.9-9.19-1.63c0,0,7.62,2.78,7.65,4.81s-1.6,2.52-2.32,3.29-1.59,2.67-3.55,2.82-11.54-3.19-13.52-3.34-5.62.12-5.87-.2S135.56,420.4,135.56,420.4Z"/><path class="cls-37" d="M78.81,368.16c-9.94-1.75-20.4-4.26-20.4-4.26l-18.51-.75s-17,3.74-23.68,6.76c-.64.29-.64,15.16-2.38,19.06l5.55,11.7s3.2,23.18,3.86,33.49c.31,4.73-.86,45.74-.86,45.74s1.66.82,14.3,2.22,44.2-.51,44.4-2-6.12-55.56-6.4-58.36c-.43-4.3,1.25-24.16,1.25-24.16,2.38,3.2,8.44,17.64,14.77,24.51,3.72,4,22.14,6.52,25.62,6.63,7.55.26,21.34,1.76,21.75,1,.32-.45,1.2-12.24.33-12.53s-26.36-1.73-32.92-5.21c-2.4-1.27-9.57-16.92-9.57-16.92S84.29,370.62,78.81,368.16Z"/><rect class="cls-31" y="404.51" width="53.58" height="74.21" rx="18.46"/><path class="cls-38" d="M44.09,496c-7.9,0-14.31-2.65-19.05-7.89-10.71-11.82-8.78-32.61-8.7-33.49a3,3,0,0,1,5.94.59c0,.23-1.73,19.08,7.19,28.91,3.61,4,8.39,5.92,14.62,5.92a3,3,0,1,1,0,6Z"/><path class="cls-39" d="M98.08,336.77h28.7a1.16,1.16,0,0,1,1.16,1.16V339a1.17,1.17,0,0,1-1.17,1.17H98.08A1.16,1.16,0,0,1,96.92,339v-1.05a1.17,1.17,0,0,1,1.17-1.17Z"/><rect class="cls-39" x="96.92" y="344.02" width="31.03" height="3.38" rx="1.16"/><rect class="cls-39" x="96.92" y="352.34" width="31.03" height="38.23" rx="7.76"/><rect class="cls-39" x="134.22" y="336.77" width="55.27" height="53.8" rx="12.28"/><path class="cls-40" d="M234.87,386.21a12.53,12.53,0,1,1,10.73-6A12.53,12.53,0,0,1,234.87,386.21Z"/><path class="cls-41" d="M222.13,385.09a8.78,8.78,0,0,1-8.77-8.78c0-.27,0-.55,0-.82a8.78,8.78,0,1,1,8.74,9.6Z"/><path class="cls-42" d="M235.07,374.33s.7,5.83.93,13.75S230,396,230,396v29h-4.37s.1-29.59-2.07-32-2.18-13.67-2.18-13.67l1.25-.73S220.71,392,229.2,394s5.28-19.05,5.28-19.05Z"/><path class="cls-43" d="M238,375.69c-7.2-1.34-11.94-4.45-14.5-7.25a12.54,12.54,0,1,1,22.13,11.73C245.25,378.47,243.38,376.7,238,375.69Z"/><path class="cls-44" d="M219.57,378.72a14.68,14.68,0,0,1-6.18-3.23,8.78,8.78,0,1,1,13.55,8.17C226.05,382,224,380,219.57,378.72Z"/><polygon class="cls-45" points="214.63 411.53 244.14 411.53 242.62 417 216.45 417 214.63 411.53"/><polygon class="cls-46" points="218.31 417 240.22 417 237.17 429.39 220.44 429.39 218.31 417"/><path class="cls-44" d="M221.33,368.64l-.75.23s-1.19-3.23-1.27-3.67A34.3,34.3,0,0,1,221.33,368.64Z"/><path class="cls-44" d="M214.18,368.87l3.76,1.14s0,.34-.52.34A20.63,20.63,0,0,1,214.18,368.87Z"/><path class="cls-44" d="M215.48,376.74h1a5.05,5.05,0,0,1-1,2.33C214.7,380,215.48,376.74,215.48,376.74Z"/><path class="cls-43" d="M238.52,358.78c.39.28-1.37,4.58-1.37,4.58h-.88S238.13,358.49,238.52,358.78Z"/><path class="cls-43" d="M234.43,362.3a7.62,7.62,0,0,1,.75-3.13v2.95S234.58,363.46,234.43,362.3Z"/><path class="cls-43" d="M241.37,379.23c-.55-.44-.57-4.35-.57-4.35l.85.31S241.91,379.68,241.37,379.23Z"/><path class="cls-47" d="M225.57,417h14.65l-3.05,12.39h-4.79C235.09,419.42,225.57,417,225.57,417Z"/><path class="cls-48" d="M236.4,429.39c-1.2-.5-3.14-6.17-4.07-9.11-.33-1-.54-1.74-.54-1.74h11a33.3,33.3,0,0,1-3.25,10.85Z"/><path class="cls-49" d="M235.52,415.16c0-.4-1.76-2.05-2.64-3.13s.34-3.13.34-3.13c3.93,1.63,3.25,6.26,3.25,6.26S235.52,415.55,235.52,415.16Z"/><path class="cls-49" d="M237.76,415.33h-.47s-.34-8,2.57-9.07,2.92-3.26,2.92-3.26.88,3-.54,4.55-3.05,3.39-2.78,4.88S237.76,415.33,237.76,415.33Z"/><path class="cls-50" d="M232.33,420.28c-.33-1-.54-1.74-.54-1.74h11a33.3,33.3,0,0,1-3.25,10.85h-.72C238.94,423,234.76,421,232.33,420.28Z"/><polygon class="cls-51" points="231.79 415.16 242.86 415.16 243.49 418.54 231.34 418.54 231.79 415.16"/><path class="cls-29" d="M466.33,291.1s3.9,8.88,7.63,7.77,9.27-.79,11-.6c2.33.26,9.89-1.51,9.44,1.31s-12.34,3.49-14.83,4.11,6.46,6.94,7.08,9.37-11.86,16.53-17.45,11.48-7.88-14.12-9.06-14.81-6.3-7.92-6.3-7.92Z"/><path class="cls-29" d="M485.65,311.58s16,16.58,16,18.58-1,2.82-2.54,1.33-15.93-15.57-15.93-15.57,15.3,22.82,15.72,24.43c.24.95-1.66,2.64-2.58,1.92s-17.47-22.44-17.47-22.44,14.24,21.33,14.17,22.8a1.93,1.93,0,0,1-3.37.93c-1.18-1.51-15.6-20.54-15.6-20.54s9.31,16.19,8.49,17.44c-.51.75-2.09,2.29-4.35-2s-8.73-13.72-8.73-13.72Z"/><path class="cls-28" d="M388.06,370.86H338.79c-1.08-5.71-2.06-9.17-2.76-9.09s-2.11,3.52-3.88,9.09H277.83c2.5-21.28,5.7-45,8.19-63.89.16-1.17.31-2.31.46-3.4.86-6.44,1.5-11.19,1.81-13.46l.2-1.52c1.19-.54,2.42-1,3.71-1.49,30.78-11.06,90.12.64,90.12.64s0,.29.1.84.2,1.71.37,3.06c.34,2.92.85,7.29,1.43,12.33,0,0,0,.08,0,.11s0,.32.05.46c2.07,18,3.09,27.87,4.72,47.06C389.1,352.71,388.7,360.19,388.06,370.86Z"/><path class="cls-52" d="M354.64,118.27S405,129,409.25,143s12.35,46.9,23.7,82.68c6.79,21.4,41.29,70.15,41.29,70.15s-19.74,14.55-19.74,12.59-46.48-64-47-71.56-14.65-46.24-14.65-46.24-6.67,74.37-6.67,85.85.76,34.74.76,34.74-18.68,7.16-54.94,5.27c0,0-57.72-2-47.87-19.58,7.45-13.3,2.88-102.79,1.76-103.35s-21.24,24.65-19.28,29.5,54,22.25,54,22.25,1.52,5.61-6.57,18.32c0,0-77.78-22.73-78.06-27.5S268.33,138.85,279,134c15.34-7,55.46-17.93,55.46-17.93Z"/><path class="cls-29" d="M353.83,100.74s-2.08,11.38,1.49,19.15c0,0,3.64,18.12-14.91,18.93s-19-15.8-19-15.8,4.44-6,1.48-22.17S353.83,100.74,353.83,100.74Z"/><path class="cls-29" d="M342.55,34.92s23.73,3.83,20.12,41.85-24.56,34.9-26,34.86-21,.7-22.55-45.72C314.16,65.91,313.49,31.58,342.55,34.92Z"/><path class="cls-29" d="M363,66s2.6-2.84,3.56,0-3.39,15.27-3.71,16.31c0,0-.47,1.12-1.1.51S363,66,363,66Z"/><path class="cls-29" d="M314.73,65.55s-2.54-2.9-3.55,0,3.19,15.9,3.4,16.38c0,0,.45,1.13,1.09.53S314.73,65.55,314.73,65.55Z"/><path class="cls-53" d="M363,71.86l-3.39,4.65s.09-10.2-.45-11.79.64-7.17.19-8.32-16.23,3.13-42.1.5c0,0,2.87,9.18,1.19,9.83s-.86,12-.86,12l-2.8-3.23S311.65,56.16,312,52.94c.4-4.28-1-24.29,35.35-20.85a22,22,0,0,1,11.5,4.51c3.74,2.92,7.59,7.48,7.24,13.74C365.58,58.61,363,71.86,363,71.86Z"/><path class="cls-54" d="M325.9,106.6s9.79,11.43,25.33,0c0,0-4.35,8.67-13.49,8.87S325.9,106.6,325.9,106.6Z"/><rect class="cls-55" x="263.57" y="171.19" width="76.35" height="114.98" transform="translate(75.72 -75.06) rotate(16.19)"/><path class="cls-56" d="M334.27,244.48s4.78-.13,6.25-.34.5,2.9-1.2,3.49S334.27,244.48,334.27,244.48Z"/><path class="cls-29" d="M337.06,267.34a9.84,9.84,0,0,1-3.11.29s-1.83-.55-3.15-.87a9.93,9.93,0,0,0-1-.19,17.79,17.79,0,0,1-5.64-.95c-2.37-.93-10.41-5.05-10.41-5.05l2.3-7.47,1.73-5.91s13.58-3.62,15.89-3a6,6,0,0,1,.64.21c1.91.71,3,2,4,2.51.35.18,3.72,2.2,3.89,3.36a3.84,3.84,0,0,1-1.06,3.57s.34,3.17-.84,5a5.7,5.7,0,0,1-1.69,4.74S338.65,266.53,337.06,267.34Z"/><path class="cls-37" d="M320.61,245.27A28.14,28.14,0,0,1,314,263.59s-57.12-17.83-63.92-20.5,24.72-86.44,24.72-86.44L298,164.54l-12.46,23.57s-6.17,13.2-19,34.91C266.57,223,274.47,230.52,320.61,245.27Z"/><path class="cls-37" d="M360.83,131.48l-5.28-16.61s-8.48,3.95-33.06,1.21L316.91,132S338,150.36,360.83,131.48Z"/><path class="cls-57" d="M594.32,349.52a16,16,0,0,1-2-4.11A4.92,4.92,0,0,0,591.2,343s-6.47-.94-9-3.25-7.75-8.58-10.23-6.7,1.8,9.8,4.34,12.2,6,6.58,9.08,6.27S592.81,349.76,594.32,349.52Z"/><path class="cls-58" d="M594.32,349.12,591.2,343s14.92-2.73,19.29-5.36l3.2-1.95a56.46,56.46,0,0,0,4.89-3.23c2.15-1.83,10.79-7.95,13.13-10.2s5.08-.87,8.72-.84,16.82,3.69,20.76,4.21,18.18,3.17,18.18,3.17C676.86,335.68,594.32,349.12,594.32,349.12Z"/><path class="cls-59" d="M680.2,328.61s-8,1.16-10.1,1.31-14.07,1.13-19.84,1.68-17.1.22-19.34,1.21-15.24,5.39-19.49,6.77S579.54,346,579.54,346a9.33,9.33,0,0,0,2,6.61s12.17-1.08,18.6-.14,17.65-.49,24.47-3.58,17.61-.27,23.64,1.85,29.12,3.82,32,3.17A28.52,28.52,0,0,0,693,346C697.17,341.46,680.2,328.61,680.2,328.61Z"/><path class="cls-60" d="M581.52,352.62a16.13,16.13,0,0,1-.94-4.46,4,4,0,0,0-.37-2.27s-6.19-2.79-8.05-5.63-5.44-10.2-8.3-9-.63,10,1.26,12.88,3,10.75,6.14,11.2S580,352.5,581.52,352.62Z"/><path class="cls-59" d="M698.26,323.47s10.15,23-5.61,28.62c-12.57,4.46-35.74.35-35.74.35L671.17,330Z"/><path class="cls-8" d="M672.13,236.54c3.86.86,1.56,10.56,4.15,24.13s10.77,15.69,10.77,15.69-3.63-6-3.24-12.31c.32-4.91,6.27-18.32.38-27.09-4.54-6.77-12.56-.62-12.56-.62Z"/><path class="cls-29" d="M678,264.79l-7.52,7.73a16.57,16.57,0,0,0-1.13-4.59c-.26-.7-.53-1.34-.74-1.83-.29-.65-.49-1.06-.49-1.06l6.71-7.09Z"/><path class="cls-37" d="M669,271.76a18.56,18.56,0,0,1-2.32,7.15c-2,3.43-5.37,9.13-4.9,12.83a9.11,9.11,0,0,0,3.48,6.39c1.42,1.33,5.33,10.95,5.8,14.66a70.72,70.72,0,0,1-.13,17s26.36,3.06,29-1.54c0,0-3.27-14.81-4.81-18.52s-4.78-25.91-6.16-29.69-4.65-7.42-6.65-10c-1.78-2.34-5-6.69-5-6.69Z"/><path class="cls-29" d="M665.7,237.32a11.81,11.81,0,0,0-11.07,12.17A28.11,28.11,0,0,0,656,253.8c.82,1.87-.26,7.8.23,8a12.58,12.58,0,0,0,2.4.37s2.74,6,4.93,5.72,10.31-3,13.32-11.22S679.75,236.39,665.7,237.32Z"/><path class="cls-8" d="M654.63,249.49s6.06,3.18,11.72,3.31,10.3,9.2,10.3,9.2,6.86-15.38-1-23.18S652.18,239,654.63,249.49Z"/><path class="cls-29" d="M667.67,252.74a1.73,1.73,0,0,1,2.86-1.57c1.94,1.27.15,6.67-1.35,6.34S667.77,253.86,667.67,252.74Z"/><path class="cls-54" d="M673.93,261.79c-.1.18-2.86,4.7-4.63,6.14-.26-.7-.53-1.34-.74-1.83C668.56,266.1,672.5,263.75,673.93,261.79Z"/><rect class="cls-61" x="617.17" y="330.67" width="37.48" height="3.26" transform="translate(1322.43 540.86) rotate(169.31)"/><rect class="cls-61" x="589.79" y="319.37" width="37.48" height="3.26" transform="translate(687.92 1004.42) rotate(-124.44)"/><path class="cls-29" d="M624.84,332.73c-.18-.82,0-2.18,2.58-3.56s8.14-4.52,10.1-4.6,5.81.23,6.6.23-1.24,4.66-1.24,4.66Z"/><path class="cls-29" d="M643.22,325.16s10.75-4.23,12.49-5.07,9.88-3.58,10.6-3.94,4.13-20.68,4.43-25.79.6-15.95,6.38-15.47,7.16,4.27,6.43,11.74-5,34.17-6.79,35.07-22.53,5.54-33.46,7.72C632.85,331.5,643.22,325.16,643.22,325.16Z"/><path class="cls-60" d="M670.15,292s8.32,1.55,13.12,2c0,0,6-17-2.16-19.73C671.48,271,669.32,284.22,670.15,292Z"/><path class="cls-62" d="M605.77,478.48s-6,.36-7.66,1.29-13-2.63-13.2-3.46a1.83,1.83,0,0,1,0-1.22h22.21Z"/><path class="cls-62" d="M632.64,452.08s1.91,15,0,17c-7.29,7.51-34.33,6.92-34.33,6.92l0,3s41.08,5.13,44.9-2.84C647.82,466.6,646,451,646,451Z"/><polygon class="cls-59" points="646.2 610.18 643.76 607.4 648.16 602.79 651.89 605.4 646.2 610.18"/><path class="cls-63" d="M651.89,605.4s-5,3.79-6.43,3.94-2.06.77-1.89,2.91-2.05,11.1-3.59,11.25-6.78.17-7.73,3.62,16.63,2.73,17.72-.1,8.66-16.57,7.76-17.68S654.47,605.75,651.89,605.4Z"/><path class="cls-64" d="M619.62,498s-32.86,57.23-19.52,69.07c5.23,4.64,10.26,8.84,17.5,15.06a178.52,178.52,0,0,1,14,12.86l.23.24c3.92,4.09,7.16,7.55,8.16,8.62l.1.1.11.12,3.66,3.49,5.36-4.72A158.3,158.3,0,0,1,639.71,588c-4.81-9.07-12.9-19.73-16.64-22.71-6.41-5.09-8.17-6.09-8.17-11,0-5.23,30.11-34.42,30.11-34.42s4.37-18.27-6.07-23.05C628.77,492.18,619.62,498,619.62,498Z"/><path class="cls-65" d="M644.67,619.05a16.08,16.08,0,0,0-.24-4.32c-.44-1.69,6.81-.72,6.81-.72s.93,7,.66,8.65S644.67,619.05,644.67,619.05Z"/><path class="cls-64" d="M643.32,614.73l9.77,1.77s.71-12.47.58-22c-.14-10.26.38-18.34-2.76-26.51-2.93-7.65-2.26-10.56-2.52-15.78s2.51-32.09,2.51-32.09,3.33-12-4.39-20.52c-7.53-8.27-27,0-27,0s4.06,36.72,13.8,59.43c2.76,6.42,1.27,10.33,4.78,20.26C638.08,579.22,643.42,600.88,643.32,614.73Z"/><path class="cls-65" d="M634.81,426.94a11.39,11.39,0,0,1,1.16,3.14,27,27,0,0,1,.54,3.36,40.24,40.24,0,0,1,.19,4.27s13-2.84,10.9-5.88-.88-12.25-.88-12.25S633.12,424.1,634.81,426.94Z"/><path class="cls-29" d="M627.48,401.83s-3.34,2.9-1.85,11.25c0,0-.73,6.65-1.75,7.81s2.73,1.59,3.13,2.42,1.14,4.75,3.75,7.1,15.56-4.74,16.19-8.76,9.61-21.21-4.59-22S627.48,401.83,627.48,401.83Z"/><path class="cls-37" d="M618.55,463.43c.26.84-.74,13.68-.65,14.79.5,6.08-1.07,15.31-1.68,18.62-.15.78-.23,1.18-.23,1.18,14.07,6.88,33.65,6.28,33.65,6.28-.07-.53-2.8-7.15-2.87-7.65-1.16-8.27-2.87-12-2.41-17.63h0a35.1,35.1,0,0,1,2.71-10.49c4.78-11.74,4.52-19.56,3.74-26a31.58,31.58,0,0,0-2.71-10.13l-11.89,1.27c-2.52,2.8-4.77,4.29-11.94,10.66C616.63,451.09,615.3,453.15,618.55,463.43Z"/><path class="cls-66" d="M652.34,620.83s-6.88-2-7.09-2.15-.24-.61-1.19-.23-1.35,1.82-2.28,2.28-6.6,2.11-9.71,3.64c-1.13.56-5.88,2.37-6.57,3.88s-.47,3.79,7.7,3.25,17.11.62,18.9-.28S652.81,623.2,652.34,620.83Z"/><path class="cls-67" d="M625.28,410.08s-1.6-17.34,15.21-14.24,8.14,22,5.88,28.22c0,0,.27-9.6-7.82-9.91S628.79,412,625.28,410.08Z"/><path class="cls-65" d="M639.87,411.72c1-1.76,4.48-.82,4.08,1.86s-3.18,5.35-4.1,4.06S638.38,414.3,639.87,411.72Z"/><path class="cls-65" d="M639.48,445.78s1.39,14.85-.52,16.81c-7.29,7.52-36.07,7.66-36.07,7.66l-1.37,4.32s42.77,2.91,46.59-5.06c4.58-9.58,2.8-25.19,2.8-25.19Z"/><path class="cls-67" d="M645.82,400.11s6.47-6.21,11.07.82-5.47,16.84-9.55,11A13,13,0,0,1,645.82,400.11Z"/><path class="cls-54" d="M636,430.08a27,27,0,0,1,.54,3.36c4.33-2,7.57-8,7.57-8a33.16,33.16,0,0,1-8.11,4.65Z"/><rect class="cls-61" x="574.1" y="474.57" width="40.8" height="2.28" transform="translate(1188.99 951.41) rotate(180)"/><rect class="cls-61" x="545.53" y="456.98" width="40.8" height="2.28" transform="translate(411.87 1169.74) rotate(-116.78)"/><path class="cls-65" d="M608.9,470.25s-6-.46-7.66-1.65S588.24,472,588,473a3,3,0,0,0,0,1.57h22.22Z"/><polygon class="cls-24" points="648.1 432.39 647.26 430.11 635.84 432.39 635.84 434.41 648.1 432.39"/><path class="cls-65" d="M639.5,446s-1.22-8.61,4.77-9.36,6.65,7.74,6.65,7.74Z"/></g></g></svg>