<svg xmlns="http://www.w3.org/2000/svg" xmlns:xlink="http://www.w3.org/1999/xlink" viewBox="0 0 749.92 954.01"><defs><style>.cls-1{fill:url(#linear-gradient);}.cls-2{fill:#bdd0fb;}.cls-3{fill:#4f4f4f;}.cls-4{fill:#898989;}.cls-5{fill:url(#linear-gradient-2);}.cls-6{fill:url(#linear-gradient-3);}.cls-7,.cls-8{fill:#fff;}.cls-8{opacity:0.6;}.cls-9{fill:url(#linear-gradient-4);}.cls-10{fill:#eb3d7b;}.cls-11{fill:url(#linear-gradient-5);}.cls-12{fill:url(#linear-gradient-6);}.cls-13{fill:url(#linear-gradient-7);}.cls-14{fill:url(#linear-gradient-8);}.cls-15{fill:#f27a38;}.cls-16{fill:url(#linear-gradient-9);}.cls-17{fill:url(#linear-gradient-10);}.cls-18{fill:url(#linear-gradient-11);}.cls-19{fill:url(#linear-gradient-12);}.cls-20{fill:url(#linear-gradient-13);}.cls-21{fill:url(#linear-gradient-14);}.cls-22{fill:url(#linear-gradient-15);}.cls-23{fill:url(#linear-gradient-16);}.cls-24{fill:url(#linear-gradient-17);}.cls-25{fill:url(#linear-gradient-18);}.cls-26{fill:url(#linear-gradient-19);}.cls-27{fill:url(#linear-gradient-20);}.cls-28{fill:url(#linear-gradient-21);}.cls-29{fill:url(#linear-gradient-22);}.cls-30{fill:url(#linear-gradient-23);}.cls-31{fill:url(#linear-gradient-24);}.cls-32{fill:url(#linear-gradient-25);}.cls-33{fill:url(#linear-gradient-26);}.cls-34{fill:url(#linear-gradient-27);}.cls-35{fill:url(#linear-gradient-28);}.cls-36{fill:#ffdab8;}.cls-37{fill:url(#linear-gradient-29);}</style><linearGradient id="linear-gradient" x1="1218.06" y1="-522.26" x2="-119.52" y2="1050.79" gradientUnits="userSpaceOnUse"><stop offset="0" stop-color="#fa5"/><stop offset="0.29" stop-color="#fea051"/><stop offset="0.79" stop-color="#fb8646"/><stop offset="1" stop-color="#f97841"/></linearGradient><linearGradient id="linear-gradient-2" x1="130.82" y1="198.85" x2="560.62" y2="198.85" gradientUnits="userSpaceOnUse"><stop offset="0" stop-color="#dae3fe"/><stop offset="1" stop-color="#e9effd"/></linearGradient><linearGradient id="linear-gradient-3" x1="130.05" y1="226.65" x2="559.85" y2="226.65" xlink:href="#linear-gradient-2"/><linearGradient id="linear-gradient-4" x1="244.1" y1="433.76" x2="541.33" y2="433.76" xlink:href="#linear-gradient-2"/><linearGradient id="linear-gradient-5" x1="248.72" y1="308.35" x2="545.95" y2="308.35" xlink:href="#linear-gradient-2"/><linearGradient id="linear-gradient-6" x1="244.65" y1="553.51" x2="541.87" y2="553.51" xlink:href="#linear-gradient-2"/><linearGradient id="linear-gradient-7" x1="239.94" y1="668.53" x2="537.17" y2="668.53" xlink:href="#linear-gradient-2"/><linearGradient id="linear-gradient-8" x1="234.14" y1="787.14" x2="531.36" y2="787.14" xlink:href="#linear-gradient-2"/><linearGradient id="linear-gradient-9" x1="-1622.02" y1="1346.56" x2="-1640.83" y2="1422.2" gradientTransform="matrix(-1, 0, 0, 1, -948.32, 0)" gradientUnits="userSpaceOnUse"><stop offset="0" stop-color="#4042e2"/><stop offset="1" stop-color="#4f52ff"/></linearGradient><linearGradient id="linear-gradient-10" x1="-1544.94" y1="943.66" x2="-1503.78" y2="943.66" gradientTransform="matrix(-1, 0, 0, 1, -948.32, 0)" gradientUnits="userSpaceOnUse"><stop offset="0" stop-color="#09005d"/><stop offset="1" stop-color="#1a0f91"/></linearGradient><linearGradient id="linear-gradient-11" x1="-1541.03" y1="932.07" x2="-1529.1" y2="932.07" gradientTransform="matrix(-1, 0, 0, 1, -948.32, 0)" gradientUnits="userSpaceOnUse"><stop offset="0" stop-color="#f9b776"/><stop offset="1" stop-color="#f47960"/></linearGradient><linearGradient id="linear-gradient-12" x1="-1714.21" y1="1323.63" x2="-1733.02" y2="1399.27" xlink:href="#linear-gradient-9"/><linearGradient id="linear-gradient-13" x1="-1629.26" y1="938.55" x2="-1605.43" y2="938.55" xlink:href="#linear-gradient-10"/><linearGradient id="linear-gradient-14" x1="-1616.88" y1="922.13" x2="-1602.62" y2="922.13" xlink:href="#linear-gradient-11"/><linearGradient id="linear-gradient-15" x1="-1506.63" y1="790.76" x2="-1664.46" y2="1020.77" xlink:href="#linear-gradient-10"/><linearGradient id="linear-gradient-16" x1="-1103.16" y1="76.76" x2="-1209.13" y2="233.42" xlink:href="#linear-gradient-9"/><linearGradient id="linear-gradient-17" x1="-1568.83" y1="869.32" x2="-1562" y2="855.66" gradientTransform="matrix(-1, 0, 0, 1, -948.32, 0)" gradientUnits="userSpaceOnUse"><stop offset="0" stop-color="#53d8ff"/><stop offset="1" stop-color="#3840f7"/></linearGradient><linearGradient id="linear-gradient-18" x1="-1929.07" y1="1405.41" x2="-1954.67" y2="1453.53" gradientTransform="matrix(-1, 0, 0, 1, -948.32, 0)" gradientUnits="userSpaceOnUse"><stop offset="0" stop-color="#ff928e"/><stop offset="1" stop-color="#feb3b1"/></linearGradient><linearGradient id="linear-gradient-19" x1="-1138" y1="53.2" x2="-1243.97" y2="209.85" xlink:href="#linear-gradient-10"/><linearGradient id="linear-gradient-20" x1="-1062.11" y1="104.54" x2="-1168.08" y2="261.19" xlink:href="#linear-gradient-10"/><linearGradient id="linear-gradient-21" x1="-1456.4" y1="718.55" x2="-1416.43" y2="718.55" xlink:href="#linear-gradient-18"/><linearGradient id="linear-gradient-22" x1="-1495.26" y1="611.72" x2="-1495.69" y2="686.37" xlink:href="#linear-gradient-18"/><linearGradient id="linear-gradient-23" x1="-1889.19" y1="2067.29" x2="-1925.94" y2="2115.9" gradientTransform="matrix(-0.99, -0.14, -0.14, 0.99, -1051.81, -1716.33)" xlink:href="#linear-gradient-18"/><linearGradient id="linear-gradient-24" x1="-1917.25" y1="2079.02" x2="-1873.36" y2="2079.02" gradientTransform="matrix(-0.99, -0.14, -0.14, 0.99, -1051.81, -1716.33)" xlink:href="#linear-gradient-10"/><linearGradient id="linear-gradient-25" x1="-1943.01" y1="2105.79" x2="-1913.54" y2="2075.55" gradientTransform="matrix(-0.99, -0.14, -0.14, 0.99, -1051.81, -1716.33)" xlink:href="#linear-gradient-18"/><linearGradient id="linear-gradient-26" x1="-1420.68" y1="713.85" x2="-1406.36" y2="713.85" xlink:href="#linear-gradient-11"/><linearGradient id="linear-gradient-27" x1="220.27" y1="649.33" x2="241" y2="335.99" gradientUnits="userSpaceOnUse"><stop offset="0" stop-color="#fe7062"/><stop offset="1" stop-color="#ff928e"/></linearGradient><linearGradient id="linear-gradient-28" x1="239.89" y1="675.7" x2="322.79" y2="675.7" gradientTransform="matrix(1, 0, 0, 1, 0, 0)" xlink:href="#linear-gradient-18"/><linearGradient id="linear-gradient-29" x1="-1903.93" y1="1418.77" x2="-1929.53" y2="1466.9" xlink:href="#linear-gradient-18"/></defs><title>Asset 3</title><g id="Layer_2" data-name="Layer 2"><g id="Layer_1-2" data-name="Layer 1"><path class="cls-1" d="M80.15,102.11l496.29,13.81a51.43,51.43,0,0,1,50,50.23L643,886.69a37.93,37.93,0,0,1-38.29,38.8L35.66,920A36,36,0,0,1,0,883L20.17,158.84A58.37,58.37,0,0,1,80.15,102.11Z"/><path class="cls-2" d="M119.11,910.35h0l-63.62-2.6a39.52,39.52,0,0,1-37.76-40.44l2.67-96.09a1.62,1.62,0,1,1,3.24.09L21,867.4a36.27,36.27,0,0,0,34.65,37.11l63.62,2.6a1.62,1.62,0,0,1-.12,3.24Z"/><path class="cls-2" d="M22.78,743.12a1.63,1.63,0,0,1-1.56-1.67l.43-15.56a1.63,1.63,0,0,1,1.67-1.58h0A1.64,1.64,0,0,1,24.9,726l-.44,15.56a1.62,1.62,0,0,1-1.66,1.58Z"/><path class="cls-3" d="M80.64,121.68c67.52,10.91,298.81,27.54,491.9,18.39,8.81-.42,17,15.43,17.23,24.08l18.9,719.06a17.83,17.83,0,0,1-17.46,18.15c-81.17,2.45-415.43,11.36-534.13-4.19a14.14,14.14,0,0,1-12.4-14.24L61,137.74A16.86,16.86,0,0,1,80.64,121.68Z"/><path class="cls-4" d="M85.45,134.4c65,10.49,291.37,34.26,476.26,13.72,14.56-1.62,13.7,27.14,13.92,35.47l18,683.66a17.16,17.16,0,0,1-16.81,17.46c-78.11,2.36-399.78,10.93-514-4A13.6,13.6,0,0,1,50.85,867L66.5,149.85A16.21,16.21,0,0,1,85.45,134.4Z"/><path class="cls-5" d="M557.67,211.46a2.85,2.85,0,0,0,3-3l-.15-3.88a3.37,3.37,0,0,0-3.19-3.18L132.56,186.24c-1.69-.06-2.24,1-1.23,2.35l6.61,8.78a7.27,7.27,0,0,0,4.92,2.55Z"/><path class="cls-6" d="M131.78,214c-1.68-.06-2.23,1-1.22,2.34l6.61,8.79a7.18,7.18,0,0,0,4.91,2.54l414.81,11.55a2.86,2.86,0,0,0,3-3l-.15-3.88a3.37,3.37,0,0,0-3.19-3.18Z"/><path class="cls-7" d="M199.17,468.75H199l-55.87-.28c-8.06,0-14.73-5.55-15.52-12.82l-5.13-46.86A10.34,10.34,0,0,1,124.9,401a12.41,12.41,0,0,1,8.62-4.3c4.71-.34,11.2-.93,18.34-1.57,15.54-1.39,33.16-3,43.52-3.15h.23c7.4,0,13.8,4.45,15.59,11,3,10.77,2.81,31.15,2.35,52.86C213.4,463,207,468.72,199.17,468.75Zm-65.32-67.49a7.81,7.81,0,0,0-5.45,2.67,5.79,5.79,0,0,0-1.38,4.36l5.13,46.86c.54,5,5.28,8.73,11,8.76l55.88.28h.11c5.34,0,9.75-3.8,9.84-8.46.45-21.36.62-41.38-2.18-51.56-1.24-4.5-6.12-7.83-11.35-7.62-10.19.17-28.49,1.82-43.19,3.13C145.1,400.33,138.58,400.91,133.85,401.26Z"/><path class="cls-8" d="M139.87,405.93c11.74-.85,37.24-3.56,49.34-3.76,5.12-.09,9.63,3,10.86,7.43,2.37,8.62,2.14,25.83,1.81,41.72-.1,4.76-4.46,8.57-9.79,8.55l-44.65-.23c-5.5,0-10.07-3.75-10.6-8.62l-4.1-37.45C132.32,409.7,135.52,406.25,139.87,405.93Z"/><path class="cls-9" d="M246.48,419.85a2.2,2.2,0,0,0-2.28,2.91l5.9,21.95a4.22,4.22,0,0,0,3.87,3l284.37-1.3a3,3,0,0,0,3-3.08l-.39-14.7a3.25,3.25,0,0,0-3.15-3.13Z"/><path class="cls-10" d="M142.28,413.28a8.57,8.57,0,0,1,11.85,3.16l11.11,19.71a2.76,2.76,0,0,0,4.92-.24l27.05-61a3.05,3.05,0,0,1,5.84,1.29c-.19,18.62-5,54-34.58,83.78,0,0-16.42-6.3-29.75-35.22A9,9,0,0,1,142.28,413.28Z"/><path class="cls-7" d="M203.79,343.34h-.16l-55.87-.29c-8,0-14.73-5.55-15.52-12.82l-5.13-46.86a10.3,10.3,0,0,1,2.41-7.77,12.38,12.38,0,0,1,8.62-4.31c4.71-.34,11.2-.92,18.34-1.56,15.55-1.4,33.16-3,43.52-3.16h.23c7.4,0,13.8,4.45,15.6,11,3,10.77,2.8,31.15,2.34,52.87C218,337.54,211.58,343.31,203.79,343.34Zm-65.32-67.49a7.78,7.78,0,0,0-5.45,2.68,5.75,5.75,0,0,0-1.37,4.35l5.12,46.86c.54,5,5.28,8.74,11,8.76l55.88.29h.11c5.34,0,9.75-3.81,9.85-8.47.44-21.36.61-41.38-2.19-51.56-1.24-4.5-6.12-7.83-11.35-7.62-10.19.17-28.49,1.82-43.19,3.14C149.72,274.92,143.2,275.5,138.47,275.85Z"/><path class="cls-8" d="M144.49,280.53c11.74-.86,37.24-3.57,49.34-3.77,5.12-.09,9.63,3,10.86,7.43,2.37,8.62,2.14,25.83,1.81,41.72-.1,4.76-4.45,8.58-9.79,8.55l-44.65-.23c-5.49,0-10.07-3.75-10.6-8.62l-4.1-37.45C136.94,284.29,140.14,280.84,144.49,280.53Z"/><path class="cls-11" d="M251.1,294.44a2.2,2.2,0,0,0-2.28,2.91l5.9,22a4.21,4.21,0,0,0,3.87,2.95L543,321a3,3,0,0,0,3-3.08l-.39-14.7a3.25,3.25,0,0,0-3.15-3.13Z"/><path class="cls-10" d="M146.91,287.87A8.57,8.57,0,0,1,158.75,291l11.11,19.71a2.76,2.76,0,0,0,4.92-.24l27.05-61a3.05,3.05,0,0,1,5.84,1.29c-.19,18.62-5,54-34.57,83.78,0,0-16.42-6.3-29.76-35.22A9,9,0,0,1,146.91,287.87Z"/><path class="cls-7" d="M199.71,588.5h-.15l-55.88-.29c-8.05,0-14.72-5.55-15.52-12.82L123,528.54a10.29,10.29,0,0,1,2.4-7.77,12.38,12.38,0,0,1,8.62-4.31c4.72-.34,11.2-.92,18.34-1.56,15.55-1.4,33.17-3,43.52-3.16h.23c7.41,0,13.8,4.45,15.6,11,3,10.76,2.8,31.14,2.35,52.86C214,582.7,207.51,588.47,199.71,588.5ZM134.4,521a7.83,7.83,0,0,0-5.46,2.67,5.82,5.82,0,0,0-1.37,4.36l5.13,46.86c.54,5,5.27,8.73,11,8.76l55.87.29h.11c5.34,0,9.75-3.81,9.85-8.47.45-21.36.62-41.38-2.19-51.56-1.24-4.5-6.11-7.78-11.35-7.62-10.19.17-28.49,1.82-43.19,3.14C145.64,520.08,139.13,520.66,134.4,521Z"/><path class="cls-8" d="M140.42,525.69c11.73-.86,37.23-3.56,49.33-3.77,5.13-.09,9.64,3,10.86,7.43,2.38,8.62,2.14,25.84,1.81,41.72-.1,4.76-4.45,8.58-9.79,8.55L148,579.39c-5.49,0-10.07-3.75-10.6-8.62l-4.09-37.45C132.86,529.45,136.07,526,140.42,525.69Z"/><path class="cls-12" d="M247,539.6a2.19,2.19,0,0,0-2.27,2.91l5.9,22a4.2,4.2,0,0,0,3.86,2.95l284.37-1.3a3,3,0,0,0,3-3.08l-.39-14.7a3.25,3.25,0,0,0-3.15-3.13Z"/><path class="cls-10" d="M142.83,533a8.57,8.57,0,0,1,11.84,3.16l11.11,19.71a2.76,2.76,0,0,0,4.92-.24l27.06-61A3.05,3.05,0,0,1,203.6,496c-.2,18.62-5,54-34.58,83.78,0,0-16.42-6.3-29.75-35.22A9,9,0,0,1,142.83,533Z"/><path class="cls-7" d="M195,703.52h-.15L139,703.24c-8,0-14.73-5.56-15.52-12.83l-5.13-46.85a10.37,10.37,0,0,1,2.4-7.78,12.45,12.45,0,0,1,8.63-4.3c4.71-.35,11.19-.93,18.32-1.57,14.78-1.33,33.18-3,43.54-3.15,7.35-.07,14,4.38,15.83,11,3,10.77,2.8,31.15,2.34,52.86C209.24,697.71,202.8,703.48,195,703.52ZM129.69,636a7.82,7.82,0,0,0-5.45,2.68,5.78,5.78,0,0,0-1.37,4.36L128,689.92c.54,5,5.28,8.73,11,8.76l55.88.28c5.26-.12,9.85-3.77,10-8.47.45-21.36.62-41.37-2.18-51.55-1.24-4.51-6.12-7.72-11.35-7.62-10.2.17-28.5,1.81-43.21,3.13C140.93,635.09,134.42,635.68,129.69,636Z"/><path class="cls-8" d="M135.71,640.7c11.74-.85,37.24-3.56,49.34-3.77,5.12-.08,9.63,3,10.86,7.43,2.37,8.63,2.14,25.84,1.81,41.73-.1,4.75-4.46,8.57-9.79,8.54l-44.65-.22c-5.49,0-10.07-3.75-10.6-8.63l-4.1-37.44C128.16,644.47,131.36,641,135.71,640.7Z"/><path class="cls-13" d="M242.32,654.62a2.19,2.19,0,0,0-2.28,2.91l5.9,22a4.21,4.21,0,0,0,3.87,2.95l284.37-1.29a3,3,0,0,0,3-3.09l-.39-14.7a3.26,3.26,0,0,0-3.15-3.13Z"/><path class="cls-10" d="M138.13,648A8.58,8.58,0,0,1,150,651.21l11.11,19.7a2.75,2.75,0,0,0,4.92-.23l27.05-61a3.05,3.05,0,0,1,5.84,1.29c-.19,18.62-5,54-34.58,83.77,0,0-16.41-6.29-29.75-35.22A9,9,0,0,1,138.13,648Z"/><path class="cls-7" d="M189.2,822.13h-.15l-55.88-.28c-8,0-14.72-5.55-15.52-12.82l-5.12-46.86a10.25,10.25,0,0,1,2.4-7.77,12.38,12.38,0,0,1,8.62-4.31c4.71-.34,11.2-.92,18.34-1.57,15.55-1.39,33.17-3,43.52-3.15,7.59.07,14,4.38,15.83,11,3,10.77,2.8,31.15,2.34,52.87C203.43,816.33,197,822.1,189.2,822.13Zm-65.32-67.49a7.81,7.81,0,0,0-5.45,2.67,5.82,5.82,0,0,0-1.37,4.36l5.12,46.86c.55,5,5.28,8.73,11,8.76l55.88.28h.11c5.34,0,9.75-3.8,9.85-8.46.45-21.36.61-41.38-2.19-51.56-1.24-4.51-6.11-7.66-11.35-7.62-10.19.17-28.49,1.82-43.19,3.13C135.13,753.71,128.61,754.29,123.88,754.64Z"/><path class="cls-8" d="M129.91,759.32c11.73-.86,37.23-3.57,49.33-3.77,5.13-.09,9.64,3,10.86,7.43,2.37,8.62,2.14,25.83,1.81,41.72-.1,4.76-4.45,8.58-9.79,8.55L137.47,813c-5.49,0-10.07-3.75-10.6-8.62L122.77,767C122.35,763.08,125.56,759.63,129.91,759.32Z"/><path class="cls-14" d="M236.51,773.23a2.19,2.19,0,0,0-2.27,2.91l5.9,22a4.2,4.2,0,0,0,3.86,3l284.37-1.3a3,3,0,0,0,3-3.08L531,782a3.25,3.25,0,0,0-3.15-3.13Z"/><path class="cls-10" d="M132.32,766.66a8.56,8.56,0,0,1,11.84,3.16l11.11,19.71a2.76,2.76,0,0,0,4.92-.24l27.06-61a3.05,3.05,0,0,1,5.84,1.29c-.2,18.62-5,54-34.58,83.78,0,0-16.42-6.3-29.75-35.22A9,9,0,0,1,132.32,766.66Z"/><path class="cls-15" d="M361.8,11.76c-17.58-13-33.17-13.15-44.23-10.22a21.9,21.9,0,0,0-16.19,22.58l3.3,51.78,56.17,6.56S396.28,37.2,361.8,11.76Zm-25.92,41a14.05,14.05,0,1,1,14.43-13.66A14.06,14.06,0,0,1,335.88,52.75Z"/><path class="cls-2" d="M309.91,55.56a2.77,2.77,0,0,1-1.75-2.41l-.52-8.25a2.79,2.79,0,1,1,5.56-.35l.53,8.25a2.8,2.8,0,0,1-3.82,2.76Zm-1-16.16A2.78,2.78,0,0,1,307.13,37l-.4-6.26a22.35,22.35,0,0,1,16.49-23,43.57,43.57,0,0,1,21.29-.28,2.79,2.79,0,0,1-1.27,5.44,38,38,0,0,0-18.59.24A16.74,16.74,0,0,0,312.3,30.37l.4,6.27a2.78,2.78,0,0,1-2.61,3A2.69,2.69,0,0,1,308.89,39.4Z"/><path class="cls-15" d="M226.89,107.14l.73-26a15.86,15.86,0,0,1,16.83-15.38L423.32,76.91A15.42,15.42,0,0,1,437.77,91.8l.8,25Z"/><path class="cls-2" d="M286.82,77a1.64,1.64,0,0,1-1.56-1.67,1.62,1.62,0,0,1,1.67-1.57l7.7.21a1.59,1.59,0,0,1,1.57,1.66,1.61,1.61,0,0,1-1.66,1.58l-7.7-.21Z"/><path class="cls-2" d="M235.82,100.49a2.8,2.8,0,0,1-1.76-2.67l.29-10.51A16.17,16.17,0,0,1,251,71.61l28.31.79A2.79,2.79,0,0,1,279.1,78l-28.3-.79a10.59,10.59,0,0,0-10.87,10.28L239.64,98a2.79,2.79,0,0,1-2.87,2.71A2.73,2.73,0,0,1,235.82,100.49Z"/><path class="cls-15" d="M171.06,96.08l313.08,8.7a23.14,23.14,0,0,1,22.27,19.83l.23,1.54a19.88,19.88,0,0,1-20.23,22.71L165.2,139.93A12.93,12.93,0,0,1,152.67,126l1.09-14.36A16.88,16.88,0,0,1,171.06,96.08Z"/><path class="cls-16" d="M555.46,949.91c7.25.63,19.85,1.65,29.78,2.09,6,.26,9.4-.32,11.38-1.12,0,.23,0,.44,0,.63a2.06,2.06,0,0,1-2,1.94,348.92,348.92,0,0,1-39,0,1.46,1.46,0,0,1-1.19-2.19A12.28,12.28,0,0,1,555.46,949.91Z"/><path class="cls-17" d="M585.24,952c-9.93-.44-22.53-1.46-29.78-2.09,7.13-8.75,29.78-14.65,29.78-14.65h6.39a26.81,26.81,0,0,1,5,15.62C594.64,951.68,591.2,952.26,585.24,952Z"/><path class="cls-18" d="M592.71,924.82l-.6,11.85a2.71,2.71,0,0,1-2.31,2.54,10.6,10.6,0,0,1-4.8-.4,3.21,3.21,0,0,1-2.16-2.46l-2.06-11.53Z"/><path class="cls-19" d="M675.77,951.91c3.15-.44,4.57-2.07,5.17-3.82v0c.46,1.85-.61,3.76-2.76,4.67a18,18,0,0,1-7.63,1.19,7.57,7.57,0,0,1-5.72-2.64v0C667.2,952.5,670.52,952.64,675.77,951.91Z"/><path class="cls-20" d="M660.94,924.75h5.27c8-.17,13.08,16.78,14.73,23.34-.6,1.75-2,3.38-5.17,3.82-5.25.73-8.57.59-10.94-.58-4.34-5.71-6.5-14.08-7.53-19A6.64,6.64,0,0,1,660.94,924.75Z"/><path class="cls-21" d="M665.53,913.75l2.93,11.65a3.17,3.17,0,0,1-1.64,3.59,11.21,11.21,0,0,1-6.07,1.46,2.63,2.63,0,0,1-2.15-1.76l-4.3-12.25Z"/><path class="cls-22" d="M669,917.12c-3.64,3.23-15.49,3.66-15.49,3.66-42.69-102.46-60.15-117-60.15-117,6.16,38.67,1,124.28,1,124.28-7,3.11-16.13,0-16.13,0a659.6,659.6,0,0,0-21.8-162c28.86-.65,44.2-10.52,49.21-14.49C629.7,790.29,669,917.12,669,917.12Z"/><path class="cls-23" d="M598.32,633.68c5.47,27.25,3.51,76,2.22,98.24-.36,6.25,4,14.92,7.53,20.83a1.86,1.86,0,0,1-.75,2.61c-5.9,3-25.91,12.44-49.09,13.61a3.32,3.32,0,0,1-3.33-2.47c-17.19-64.22-37.17-105.25-37.17-105.25C539.78,626,598.32,633.68,598.32,633.68Z"/><path class="cls-24" d="M590.46,801.34a1.39,1.39,0,0,0,.71-.2,1.37,1.37,0,0,0,.46-1.88,42.85,42.85,0,0,0-16.93-14.69,1.36,1.36,0,1,0-1.18,2.46,41.12,41.12,0,0,1,15.78,13.65A1.33,1.33,0,0,0,590.46,801.34Z"/><path class="cls-25" d="M632.58,711.87c-1.75,12.69-6.94,26.53-17.31,41.23l-3.94-3.21a121.81,121.81,0,0,0,2-39.41C619.69,709.23,627.25,710.52,632.58,711.87Z"/><path class="cls-26" d="M592.22,667.3l6.1-33.62s40.76,31.16,34.26,78.19c-5.33-1.35-12.89-2.64-19.28-1.39C611.43,695.39,605.87,679,592.22,667.3Z"/><path class="cls-27" d="M517.73,661.25l15.73,33.88c-2.54,20.46-13.53,29.3-25.38,32.69a71.86,71.86,0,0,0-5.28-22.06C517.94,690.13,517.73,661.25,517.73,661.25Z"/><path class="cls-28" d="M502.8,705.76a71.86,71.86,0,0,1,5.28,22.06c-31.61,12.27-40-11.52-40-11.52l5.84-1C487.14,716.66,496.36,712.41,502.8,705.76Z"/><path class="cls-29" d="M532.22,619.42l7.6,27.92a5.43,5.43,0,0,0,7.26,3.62A112.21,112.21,0,0,0,558,646a7.32,7.32,0,0,0,2.58-10.52l-15.79-23.55Z"/><path class="cls-30" d="M515.61,598.21c-.07.48,6.33,31.86,6.33,31.86l17.84-4-1.65-30.64S516.77,590.18,515.61,598.21Z"/><path class="cls-31" d="M534.12,602.22l2.13,16.06a2.15,2.15,0,0,1,0,.62c-.18,1.26-1.12,5.54-5.44,4.32-3.93-1.12-7.53-2.07-10-1.31a2.25,2.25,0,0,0-1.55,2.61,97.3,97.3,0,0,0,4.1,14.63,2.25,2.25,0,0,0,2.74,1.33c3.39-1,10.47-3.27,15.73-6.43a2.27,2.27,0,0,0,1.1-2c-.17-4.06-.64-16.38-.24-19.84.37-3.24,4.35-5.19,6.08-5.88a2.25,2.25,0,0,0,1.24-1.24c.8-2,1.9-6.66-4-8.56a2.26,2.26,0,0,1-1.43-2.93c.86-2.41,1.23-6.1-3.3-8.12s-8,.39-9.89,2.38a2.26,2.26,0,0,1-2.89.34,1.81,1.81,0,0,0-2,.07,2.22,2.22,0,0,1-3.15-1c-1.11-2.26-3.35-4.68-7.86-3.91-8,1.37-8.9,10.23-6.79,15.42s10.69,3.21,15,.6c3.27-2,7.52.09,9.37,1.21A2.24,2.24,0,0,1,534.12,602.22Z"/><path class="cls-32" d="M543.38,618s-3.28-9.21.09-11.46,8.38-1.08,7.28,5.58C549.38,620.45,543.38,618,543.38,618Z"/><path class="cls-33" d="M470.45,720.65c-1.59,1.25-7-1.35-10.38-3.14a3.85,3.85,0,0,1-1.85-4.54c.8-2.53,2.14-5.8,3.79-6.21C464.74,706.08,477,715.53,470.45,720.65Z"/><path class="cls-10" d="M738.85,797.53l-416.25-148-22,61.17L716.69,862.84a19.4,19.4,0,0,0,23.43-8.48c4.87-8.36,9.52-21.41,9.8-41A16.63,16.63,0,0,0,738.85,797.53Z"/><path class="cls-34" d="M193.82,633.68l57.5,7.06c-.06,7.91-2.65,18.15-11.43,29.9l-48-31.68A2.89,2.89,0,0,1,193.82,633.68Z"/><path class="cls-35" d="M322.6,649.49c2.63,38.34-22,61.17-22,61.17l-60.68-40c8.78-11.75,11.37-22,11.43-29.9Z"/><path class="cls-36" d="M733.69,816.29a1.23,1.23,0,0,0,.41-2.38L335.85,673.17a1.22,1.22,0,0,0-.81,2.31L733.28,816.22A1.18,1.18,0,0,0,733.69,816.29Z"/><path class="cls-36" d="M726.82,840.29a1.23,1.23,0,0,0,.41-2.38L329,697.17a1.22,1.22,0,0,0-.81,2.31L726.41,840.22A1.18,1.18,0,0,0,726.82,840.29Z"/><path class="cls-37" d="M613,749.33l-18.4-1.5-8,7.34s1.89,2.61,7.78,1.11a83.85,83.85,0,0,1,14-1.86s8.13,3.66,8.23-3.2Z"/></g></g></svg>