<svg width="1579" height="1054" viewBox="0 0 1579 1054" fill="none" xmlns="http://www.w3.org/2000/svg">
<rect x="-1" y="175.5" width="157.9" height="175.5" fill="#131314" fill-opacity="0.8"/>
<rect x="315" width="157.9" height="175.5" fill="#131314" fill-opacity="0.8"/>
<rect x="157" width="157.9" height="175.5" fill="#131314" fill-opacity="0.8"/>
<rect x="473" width="157.9" height="175.5" fill="#131314" fill-opacity="0.8"/>
<rect x="631" width="157.9" height="175.5" fill="#131314" fill-opacity="0.8"/>
<rect x="156.9" y="351" width="157.9" height="175.5" fill="#131314" fill-opacity="0.8"/>
<rect x="315" y="175.5" width="157.9" height="175.5" fill="#131314" fill-opacity="0.8"/>
<rect x="157" y="175.5" width="157.9" height="175.5" fill="#131314" fill-opacity="0.8"/>
<rect x="473" y="175.5" width="157.9" height="175.5" fill="#131314" fill-opacity="0.8"/>
<rect x="631" y="175.5" width="157.9" height="175.5" fill="#131314" fill-opacity="0.8"/>
<rect x="-1" width="157.9" height="175.5" fill="#131314" fill-opacity="0.8"/>
<rect x="315" y="351" width="157.9" height="175.5" fill="#131314" fill-opacity="0.8"/>
<rect x="-1" y="351" width="157.9" height="175.5" fill="#131314" fill-opacity="0.8"/>
<rect x="473" y="351" width="157.9" height="175.5" fill="#131314" fill-opacity="0.8"/>
<rect x="631" y="351" width="157.9" height="175.5" fill="#131314" fill-opacity="0.8"/>
<rect x="-1" y="702.5" width="157.9" height="175.5" fill="#131314" fill-opacity="0.8"/>
<rect x="315" y="527" width="157.9" height="175.5" fill="#131314" fill-opacity="0.8"/>
<rect x="157" y="527" width="157.9" height="175.5" fill="#131314" fill-opacity="0.8"/>
<rect x="473" y="527" width="157.9" height="175.5" fill="#131314" fill-opacity="0.8"/>
<rect x="631" y="527" width="157.9" height="175.5" fill="#131314" fill-opacity="0.8"/>
<rect x="156.9" y="878" width="157.9" height="175.5" fill="#131314" fill-opacity="0.8"/>
<rect x="315" y="702.5" width="157.9" height="175.5" fill="#131314" fill-opacity="0.8"/>
<rect x="157" y="702.5" width="157.9" height="175.5" fill="#131314" fill-opacity="0.8"/>
<rect x="473" y="702.5" width="157.9" height="175.5" fill="#131314" fill-opacity="0.8"/>
<rect x="631" y="702.5" width="157.9" height="175.5" fill="#131314" fill-opacity="0.8"/>
<rect x="-1" y="527" width="157.9" height="175.5" fill="#131314" fill-opacity="0.8"/>
<rect x="315" y="878" width="157.9" height="175.5" fill="#131314" fill-opacity="0.8"/>
<rect x="-1" y="878" width="157.9" height="175.5" fill="#131314" fill-opacity="0.8"/>
<rect x="473" y="878" width="157.9" height="175.5" fill="#131314" fill-opacity="0.8"/>
<rect x="631" y="878" width="157.9" height="175.5" fill="#131314" fill-opacity="0.8"/>
<rect x="788.9" y="175.5" width="157.9" height="175.5" fill="#131314" fill-opacity="0.8"/>
<rect x="1104.9" width="157.9" height="175.5" fill="#131314" fill-opacity="0.8"/>
<rect x="946.9" width="157.9" height="175.5" fill="#131314" fill-opacity="0.8"/>
<rect x="1262.9" width="157.9" height="175.5" fill="#131314" fill-opacity="0.8"/>
<rect x="1420.9" width="157.9" height="175.5" fill="#131314" fill-opacity="0.8"/>
<rect x="946.8" y="351" width="157.9" height="175.5" fill="#131314" fill-opacity="0.8"/>
<rect x="1104.9" y="175.5" width="157.9" height="175.5" fill="#131314" fill-opacity="0.8"/>
<rect x="946.9" y="175.5" width="157.9" height="175.5" fill="#131314" fill-opacity="0.8"/>
<rect x="1262.9" y="175.5" width="157.9" height="175.5" fill="#131314" fill-opacity="0.8"/>
<rect x="1420.9" y="175.5" width="157.9" height="175.5" fill="#131314" fill-opacity="0.8"/>
<rect x="788.9" width="157.9" height="175.5" fill="#131314" fill-opacity="0.8"/>
<rect x="1104.9" y="351" width="157.9" height="175.5" fill="#131314" fill-opacity="0.8"/>
<rect x="788.9" y="351" width="157.9" height="175.5" fill="#131314" fill-opacity="0.8"/>
<rect x="1262.9" y="351" width="157.9" height="175.5" fill="#131314" fill-opacity="0.8"/>
<rect x="1420.9" y="351" width="157.9" height="175.5" fill="#131314" fill-opacity="0.8"/>
<rect x="788.9" y="702.5" width="157.9" height="175.5" fill="#131314" fill-opacity="0.8"/>
<rect x="1104.9" y="527" width="157.9" height="175.5" fill="#131314" fill-opacity="0.8"/>
<rect x="946.9" y="527" width="157.9" height="175.5" fill="#131314" fill-opacity="0.8"/>
<rect x="1262.9" y="527" width="157.9" height="175.5" fill="#131314" fill-opacity="0.8"/>
<rect x="1420.9" y="527" width="157.9" height="175.5" fill="#131314" fill-opacity="0.8"/>
<rect x="946.8" y="878" width="157.9" height="175.5" fill="#131314" fill-opacity="0.8"/>
<rect x="1104.9" y="702.5" width="157.9" height="175.5" fill="#131314" fill-opacity="0.8"/>
<rect x="946.9" y="702.5" width="157.9" height="175.5" fill="#131314" fill-opacity="0.8"/>
<rect x="1262.9" y="702.5" width="157.9" height="175.5" fill="#131314" fill-opacity="0.8"/>
<rect x="1420.9" y="702.5" width="157.9" height="175.5" fill="#131314" fill-opacity="0.8"/>
<rect x="788.9" y="527" width="157.9" height="175.5" fill="#131314" fill-opacity="0.8"/>
<rect x="1104.9" y="878" width="157.9" height="175.5" fill="#131314" fill-opacity="0.8"/>
<rect x="788.9" y="878" width="157.9" height="175.5" fill="#131314" fill-opacity="0.8"/>
<rect x="1262.9" y="878" width="157.9" height="175.5" fill="#131314" fill-opacity="0.8"/>
<rect x="1420.9" y="878" width="157.9" height="175.5" fill="#131314" fill-opacity="0.8"/>
</svg>
