<svg xmlns="http://www.w3.org/2000/svg" xmlns:xlink="http://www.w3.org/1999/xlink" width="175" height="101" fill="none" xmlns:v="https://vecta.io/nano"><style><![CDATA[.B{fill-rule:evenodd}.C{fill:#333}.D{fill-opacity:.3}]]></style><g opacity=".15"><mask id="A" mask-type="alpha" maskUnits="userSpaceOnUse" x="15" y="0" width="20" height="20"><path d="M15.014 9.889A9.83 9.83 0 0 1 24.841.062h9.827v19.654h-9.827a9.83 9.83 0 0 1-9.827-9.827z" fill="url(#c)"/></mask><g mask="url(#A)" class="B"><use xlink:href="#AY" class="C D"/><use xlink:href="#AY" fill="url(#d)"/></g><mask id="B" mask-type="alpha" maskUnits="userSpaceOnUse" x="15" y="26" width="20" height="21"><path d="M15.014 36.229a9.83 9.83 0 0 1 9.827-9.827h9.827v19.654h-9.827a9.83 9.83 0 0 1-9.827-9.827z" fill="url(#e)"/></mask><g mask="url(#B)" class="B"><use xlink:href="#AZ" class="C D"/><use xlink:href="#AZ" fill="url(#f)"/></g><mask id="C" mask-type="alpha" maskUnits="userSpaceOnUse" x="98" y="0" width="21" height="20"><path d="M98.618 9.889a9.83 9.83 0 0 1 9.827-9.827h9.827v19.654h-9.827a9.83 9.83 0 0 1-9.827-9.827z" fill="url(#g)"/></mask><g mask="url(#C)" class="B"><use xlink:href="#Aa" class="C D"/><use xlink:href="#Aa" fill="url(#h)"/></g><mask id="D" mask-type="alpha" maskUnits="userSpaceOnUse" x="98" y="26" width="21" height="21"><path d="M98.618 36.229a9.83 9.83 0 0 1 9.827-9.827h9.827v19.654h-9.827a9.83 9.83 0 0 1-9.827-9.827z" fill="url(#i)"/></mask><g mask="url(#D)" class="B"><use xlink:href="#Ab" class="C D"/><use xlink:href="#Ab" fill="url(#j)"/></g><mask id="E" mask-type="alpha" maskUnits="userSpaceOnUse" x="42" y="0" width="21" height="20"><path d="M42.882 9.889A9.83 9.83 0 0 1 52.709.062h9.827v19.654h-9.827a9.83 9.83 0 0 1-9.827-9.827z" fill="url(#k)"/></mask><g mask="url(#E)" class="B"><use xlink:href="#Ac" class="C D"/><use xlink:href="#Ac" fill="url(#l)"/></g><mask id="F" mask-type="alpha" maskUnits="userSpaceOnUse" x="42" y="26" width="21" height="21"><path d="M42.882 36.229a9.83 9.83 0 0 1 9.827-9.827h9.827v19.654h-9.827a9.83 9.83 0 0 1-9.827-9.827z" fill="url(#m)"/></mask><g mask="url(#F)" class="B"><use xlink:href="#Ad" class="C D"/><use xlink:href="#Ad" fill="url(#n)"/></g><mask id="G" mask-type="alpha" maskUnits="userSpaceOnUse" x="126" y="0" width="21" height="20"><path d="M126.486 9.889a9.83 9.83 0 0 1 9.827-9.827h9.827v19.654h-9.827a9.83 9.83 0 0 1-9.827-9.827z" fill="url(#o)"/></mask><g mask="url(#G)" class="B"><use xlink:href="#Aa" x="27.868" class="C D"/><use xlink:href="#Aa" x="27.868" fill="url(#h)"/></g><mask id="H" mask-type="alpha" maskUnits="userSpaceOnUse" x="126" y="26" width="21" height="21"><path d="M126.486 36.229a9.83 9.83 0 0 1 9.827-9.827h9.827v19.654h-9.827a9.83 9.83 0 0 1-9.827-9.827z" fill="url(#p)"/></mask><g mask="url(#H)" class="B"><use xlink:href="#Ab" x="27.868" class="C D"/><use xlink:href="#Ab" x="27.868" fill="url(#j)"/></g><mask id="I" mask-type="alpha" maskUnits="userSpaceOnUse" x="70" y="0" width="21" height="20"><path d="M70.75 9.889A9.83 9.83 0 0 1 80.577.062h9.827v19.654h-9.827a9.83 9.83 0 0 1-9.827-9.827z" fill="url(#q)"/></mask><g mask="url(#I)" class="B"><use xlink:href="#Ae" class="C D"/><use xlink:href="#Ae" fill="url(#r)"/></g><mask id="J" mask-type="alpha" maskUnits="userSpaceOnUse" x="70" y="26" width="21" height="21"><path d="M70.75 36.229a9.83 9.83 0 0 1 9.827-9.827h9.827v19.654h-9.827a9.83 9.83 0 0 1-9.827-9.827z" fill="url(#s)"/></mask><g mask="url(#J)" class="B"><use xlink:href="#Af" class="C D"/><use xlink:href="#Af" fill="url(#t)"/></g><mask id="K" mask-type="alpha" maskUnits="userSpaceOnUse" x="-13" y="0" width="20" height="20"><path d="M-12.854 9.889A9.83 9.83 0 0 1-3.027.062H6.8v19.654h-9.827a9.83 9.83 0 0 1-9.827-9.827z" fill="url(#u)"/></mask><g mask="url(#K)" class="B"><use xlink:href="#Ag" class="C D"/><use xlink:href="#Ag" fill="url(#v)"/></g><mask id="L" mask-type="alpha" maskUnits="userSpaceOnUse" x="-13" y="26" width="20" height="21"><path d="M-12.854 36.229a9.83 9.83 0 0 1 9.827-9.827H6.8v19.654h-9.827a9.83 9.83 0 0 1-9.827-9.827z" fill="url(#w)"/></mask><g mask="url(#L)" class="B"><use xlink:href="#Ah" class="C D"/><use xlink:href="#Ah" fill="url(#x)"/></g><mask id="M" mask-type="alpha" maskUnits="userSpaceOnUse" x="154" y="0" width="21" height="20"><path d="M154.354 9.889a9.83 9.83 0 0 1 9.827-9.827h9.827v19.654h-9.827a9.83 9.83 0 0 1-9.827-9.827z" fill="url(#y)"/></mask><g mask="url(#M)" class="B"><use xlink:href="#Aa" x="55.736" class="C D"/><use xlink:href="#Aa" x="55.736" fill="url(#h)"/></g><mask id="N" mask-type="alpha" maskUnits="userSpaceOnUse" x="154" y="26" width="21" height="21"><path d="M154.354 36.229a9.83 9.83 0 0 1 9.827-9.827h9.827v19.654h-9.827a9.83 9.83 0 0 1-9.827-9.827z" fill="url(#z)"/></mask><g mask="url(#N)" class="B"><use xlink:href="#Ab" x="55.736" class="C D"/><use xlink:href="#Ab" x="55.736" fill="url(#j)"/></g><mask id="O" mask-type="alpha" maskUnits="userSpaceOnUse" x="15" y="54" width="20" height="20"><path d="M15.014 64.143a9.83 9.83 0 0 1 9.827-9.827h9.827V73.97h-9.827a9.83 9.83 0 0 1-9.827-9.827z" fill="url(#AA)"/></mask><g mask="url(#O)" class="B"><use xlink:href="#Ai" class="C D"/><use xlink:href="#Ai" fill="url(#AB)"/></g><mask id="P" mask-type="alpha" maskUnits="userSpaceOnUse" x="15" y="80" width="20" height="21"><path d="M15.014 90.483a9.83 9.83 0 0 1 9.827-9.827h9.827v19.653h-9.827a9.83 9.83 0 0 1-9.827-9.826z" fill="url(#AC)"/></mask><g mask="url(#P)" class="B"><use xlink:href="#Ai" y="26.34" class="C D"/><use xlink:href="#Ai" y="26.34" fill="url(#AD)"/></g><mask id="Q" mask-type="alpha" maskUnits="userSpaceOnUse" x="98" y="54" width="21" height="20"><path d="M98.618 64.143a9.83 9.83 0 0 1 9.827-9.827h9.827V73.97h-9.827a9.83 9.83 0 0 1-9.827-9.827z" fill="url(#AE)"/></mask><g mask="url(#Q)" class="B"><use xlink:href="#Aj" class="C D"/><use xlink:href="#Aj" fill="url(#AF)"/></g><mask id="R" mask-type="alpha" maskUnits="userSpaceOnUse" x="98" y="80" width="21" height="21"><path d="M98.618 90.483a9.83 9.83 0 0 1 9.827-9.827h9.827v19.653h-9.827a9.83 9.83 0 0 1-9.827-9.826z" fill="url(#AG)"/></mask><g mask="url(#R)" class="B"><use xlink:href="#Aj" y="26.34" class="C D"/><use xlink:href="#Aj" y="26.34" fill="url(#AH)"/></g><mask id="S" mask-type="alpha" maskUnits="userSpaceOnUse" x="42" y="54" width="21" height="20"><path d="M42.882 64.143a9.83 9.83 0 0 1 9.827-9.827h9.827V73.97h-9.827a9.83 9.83 0 0 1-9.827-9.827z" fill="url(#AI)"/></mask><g mask="url(#S)" class="B"><use xlink:href="#Ak" class="C D"/><use xlink:href="#Ak" fill="url(#AJ)"/></g><mask id="T" mask-type="alpha" maskUnits="userSpaceOnUse" x="42" y="80" width="21" height="21"><path d="M42.882 90.483a9.83 9.83 0 0 1 9.827-9.827h9.827v19.653h-9.827a9.83 9.83 0 0 1-9.827-9.826z" fill="url(#AK)"/></mask><g mask="url(#T)" class="B"><use xlink:href="#Ak" y="26.34" class="C D"/><use xlink:href="#Ak" y="26.34" fill="url(#AL)"/></g><mask id="U" mask-type="alpha" maskUnits="userSpaceOnUse" x="126" y="54" width="21" height="20"><path d="M126.486 64.143a9.83 9.83 0 0 1 9.827-9.827h9.827V73.97h-9.827a9.83 9.83 0 0 1-9.827-9.827z" fill="url(#AM)"/></mask><g mask="url(#U)" class="B"><use xlink:href="#Aj" x="27.868" class="C D"/><use xlink:href="#Aj" x="27.868" fill="url(#AF)"/></g><mask id="V" mask-type="alpha" maskUnits="userSpaceOnUse" x="126" y="80" width="21" height="21"><path d="M126.486 90.483a9.83 9.83 0 0 1 9.827-9.827h9.827v19.653h-9.827a9.83 9.83 0 0 1-9.827-9.826z" fill="url(#AN)"/></mask><g mask="url(#V)" class="B"><use xlink:href="#Aj" x="27.868" y="26.34" class="C D"/><use xlink:href="#Aj" x="27.868" y="26.34" fill="url(#AH)"/></g><mask id="W" mask-type="alpha" maskUnits="userSpaceOnUse" x="70" y="54" width="21" height="20"><path d="M70.75 64.143a9.83 9.83 0 0 1 9.827-9.827h9.827V73.97h-9.827a9.83 9.83 0 0 1-9.827-9.827z" fill="url(#AO)"/></mask><g mask="url(#W)" class="B"><use xlink:href="#Al" class="C D"/><use xlink:href="#Al" fill="url(#AP)"/></g><mask id="X" mask-type="alpha" maskUnits="userSpaceOnUse" x="70" y="80" width="21" height="21"><path d="M70.75 90.483a9.83 9.83 0 0 1 9.827-9.827h9.827v19.653h-9.827a9.83 9.83 0 0 1-9.827-9.826z" fill="url(#AQ)"/></mask><g mask="url(#X)" class="B"><use xlink:href="#Al" y="26.34" class="C D"/><use xlink:href="#Al" y="26.34" fill="url(#AR)"/></g><mask id="Y" mask-type="alpha" maskUnits="userSpaceOnUse" x="-13" y="54" width="20" height="20"><path d="M-12.854 64.143a9.83 9.83 0 0 1 9.827-9.827H6.8V73.97h-9.827a9.83 9.83 0 0 1-9.827-9.827z" fill="url(#AS)"/></mask><g mask="url(#Y)" class="B"><use xlink:href="#Am" class="C D"/><use xlink:href="#Am" fill="url(#AT)"/></g><mask id="Z" mask-type="alpha" maskUnits="userSpaceOnUse" x="-13" y="80" width="20" height="21"><path d="M-12.854 90.483a9.83 9.83 0 0 1 9.827-9.827H6.8v19.653h-9.827a9.83 9.83 0 0 1-9.827-9.826z" fill="url(#AU)"/></mask><g mask="url(#Z)" class="B"><use xlink:href="#An" class="C D"/><use xlink:href="#An" fill="url(#AV)"/></g><mask id="a" mask-type="alpha" maskUnits="userSpaceOnUse" x="154" y="54" width="21" height="20"><path d="M154.354 64.143a9.83 9.83 0 0 1 9.827-9.827h9.827V73.97h-9.827a9.83 9.83 0 0 1-9.827-9.827z" fill="url(#AW)"/></mask><g mask="url(#a)" class="B"><use xlink:href="#Aj" x="55.736" class="C D"/><use xlink:href="#Aj" x="55.736" fill="url(#AF)"/></g><mask id="b" mask-type="alpha" maskUnits="userSpaceOnUse" x="154" y="80" width="21" height="21"><path d="M154.354 90.483a9.83 9.83 0 0 1 9.827-9.827h9.827v19.653h-9.827a9.83 9.83 0 0 1-9.827-9.826z" fill="url(#AX)"/></mask><g mask="url(#b)" class="B"><use xlink:href="#Aj" x="55.736" y="26.34" class="C D"/><use xlink:href="#Aj" x="55.736" y="26.34" fill="url(#AH)"/></g></g><defs><linearGradient id="c" x1="24.841" y1=".062" x2="24.841" y2="19.716" xlink:href="#Ao"><stop stop-color="#066d66"/><stop offset="1" stop-color="#004945"/></linearGradient><linearGradient id="d" x1="35.011" y1="6.644" x2="21.413" y2="19.716" xlink:href="#Ao"><stop stop-color="#fb651e"/><stop offset="1" stop-color="#f1a17b"/></linearGradient><linearGradient id="e" x1="24.841" y1="26.402" x2="24.841" y2="46.056" xlink:href="#Ao"><stop stop-color="#066d66"/><stop offset="1" stop-color="#004945"/></linearGradient><linearGradient id="f" x1="35.011" y1="32.983" x2="21.413" y2="46.056" xlink:href="#Ao"><stop stop-color="#fb651e"/><stop offset="1" stop-color="#f1a17b"/></linearGradient><linearGradient id="g" x1="108.445" y1=".062" x2="108.445" y2="19.716" xlink:href="#Ao"><stop stop-color="#066d66"/><stop offset="1" stop-color="#004945"/></linearGradient><linearGradient id="h" x1="118.615" y1="6.644" x2="105.017" y2="19.716" xlink:href="#Ao"><stop stop-color="#fb651e"/><stop offset="1" stop-color="#f1a17b"/></linearGradient><linearGradient id="i" x1="108.445" y1="26.402" x2="108.445" y2="46.056" xlink:href="#Ao"><stop stop-color="#066d66"/><stop offset="1" stop-color="#004945"/></linearGradient><linearGradient id="j" x1="118.615" y1="32.983" x2="105.017" y2="46.056" xlink:href="#Ao"><stop stop-color="#fb651e"/><stop offset="1" stop-color="#f1a17b"/></linearGradient><linearGradient id="k" x1="52.709" y1=".062" x2="52.709" y2="19.716" xlink:href="#Ao"><stop stop-color="#066d66"/><stop offset="1" stop-color="#004945"/></linearGradient><linearGradient id="l" x1="62.879" y1="6.644" x2="49.281" y2="19.716" xlink:href="#Ao"><stop stop-color="#fb651e"/><stop offset="1" stop-color="#f1a17b"/></linearGradient><linearGradient id="m" x1="52.709" y1="26.402" x2="52.709" y2="46.056" xlink:href="#Ao"><stop stop-color="#066d66"/><stop offset="1" stop-color="#004945"/></linearGradient><linearGradient id="n" x1="62.879" y1="32.983" x2="49.281" y2="46.056" xlink:href="#Ao"><stop stop-color="#fb651e"/><stop offset="1" stop-color="#f1a17b"/></linearGradient><linearGradient id="o" x1="136.313" y1=".062" x2="136.313" y2="19.716" xlink:href="#Ao"><stop stop-color="#066d66"/><stop offset="1" stop-color="#004945"/></linearGradient><linearGradient id="p" x1="136.313" y1="26.402" x2="136.313" y2="46.056" xlink:href="#Ao"><stop stop-color="#066d66"/><stop offset="1" stop-color="#004945"/></linearGradient><linearGradient id="q" x1="80.577" y1=".062" x2="80.577" y2="19.716" xlink:href="#Ao"><stop stop-color="#066d66"/><stop offset="1" stop-color="#004945"/></linearGradient><linearGradient id="r" x1="90.747" y1="6.644" x2="77.149" y2="19.716" xlink:href="#Ao"><stop stop-color="#fb651e"/><stop offset="1" stop-color="#f1a17b"/></linearGradient><linearGradient id="s" x1="80.577" y1="26.402" x2="80.577" y2="46.056" xlink:href="#Ao"><stop stop-color="#066d66"/><stop offset="1" stop-color="#004945"/></linearGradient><linearGradient id="t" x1="90.747" y1="32.983" x2="77.149" y2="46.056" xlink:href="#Ao"><stop stop-color="#fb651e"/><stop offset="1" stop-color="#f1a17b"/></linearGradient><linearGradient id="u" x1="-3.027" y1=".062" x2="-3.027" y2="19.716" xlink:href="#Ao"><stop stop-color="#066d66"/><stop offset="1" stop-color="#004945"/></linearGradient><linearGradient id="v" x1="7.142" y1="6.644" x2="-6.455" y2="19.716" xlink:href="#Ao"><stop stop-color="#fb651e"/><stop offset="1" stop-color="#f1a17b"/></linearGradient><linearGradient id="w" x1="-3.027" y1="26.402" x2="-3.027" y2="46.056" xlink:href="#Ao"><stop stop-color="#066d66"/><stop offset="1" stop-color="#004945"/></linearGradient><linearGradient id="x" x1="7.142" y1="32.983" x2="-6.455" y2="46.056" xlink:href="#Ao"><stop stop-color="#fb651e"/><stop offset="1" stop-color="#f1a17b"/></linearGradient><linearGradient id="y" x1="164.181" y1=".062" x2="164.181" y2="19.716" xlink:href="#Ao"><stop stop-color="#066d66"/><stop offset="1" stop-color="#004945"/></linearGradient><linearGradient id="z" x1="164.181" y1="26.402" x2="164.181" y2="46.056" xlink:href="#Ao"><stop stop-color="#066d66"/><stop offset="1" stop-color="#004945"/></linearGradient><linearGradient id="AA" x1="24.841" y1="54.316" x2="24.841" y2="73.97" xlink:href="#Ao"><stop stop-color="#066d66"/><stop offset="1" stop-color="#004945"/></linearGradient><linearGradient id="AB" x1="35.011" y1="60.897" x2="21.413" y2="73.97" xlink:href="#Ao"><stop stop-color="#fb651e"/><stop offset="1" stop-color="#f1a17b"/></linearGradient><linearGradient id="AC" x1="24.841" y1="80.656" x2="24.841" y2="100.309" xlink:href="#Ao"><stop stop-color="#066d66"/><stop offset="1" stop-color="#004945"/></linearGradient><linearGradient id="AD" x1="35.011" y1="60.897" x2="21.413" y2="73.969" xlink:href="#Ao"><stop stop-color="#fb651e"/><stop offset="1" stop-color="#f1a17b"/></linearGradient><linearGradient id="AE" x1="108.445" y1="54.316" x2="108.445" y2="73.97" xlink:href="#Ao"><stop stop-color="#066d66"/><stop offset="1" stop-color="#004945"/></linearGradient><linearGradient id="AF" x1="118.615" y1="60.897" x2="105.017" y2="73.97" xlink:href="#Ao"><stop stop-color="#fb651e"/><stop offset="1" stop-color="#f1a17b"/></linearGradient><linearGradient id="AG" x1="108.445" y1="80.656" x2="108.445" y2="100.309" xlink:href="#Ao"><stop stop-color="#066d66"/><stop offset="1" stop-color="#004945"/></linearGradient><linearGradient id="AH" x1="118.615" y1="60.897" x2="105.017" y2="73.969" xlink:href="#Ao"><stop stop-color="#fb651e"/><stop offset="1" stop-color="#f1a17b"/></linearGradient><linearGradient id="AI" x1="52.709" y1="54.316" x2="52.709" y2="73.97" xlink:href="#Ao"><stop stop-color="#066d66"/><stop offset="1" stop-color="#004945"/></linearGradient><linearGradient id="AJ" x1="62.879" y1="60.897" x2="49.281" y2="73.97" xlink:href="#Ao"><stop stop-color="#fb651e"/><stop offset="1" stop-color="#f1a17b"/></linearGradient><linearGradient id="AK" x1="52.709" y1="80.656" x2="52.709" y2="100.309" xlink:href="#Ao"><stop stop-color="#066d66"/><stop offset="1" stop-color="#004945"/></linearGradient><linearGradient id="AL" x1="62.879" y1="60.897" x2="49.281" y2="73.969" xlink:href="#Ao"><stop stop-color="#fb651e"/><stop offset="1" stop-color="#f1a17b"/></linearGradient><linearGradient id="AM" x1="136.313" y1="54.316" x2="136.313" y2="73.97" xlink:href="#Ao"><stop stop-color="#066d66"/><stop offset="1" stop-color="#004945"/></linearGradient><linearGradient id="AN" x1="136.313" y1="80.656" x2="136.313" y2="100.309" xlink:href="#Ao"><stop stop-color="#066d66"/><stop offset="1" stop-color="#004945"/></linearGradient><linearGradient id="AO" x1="80.577" y1="54.316" x2="80.577" y2="73.97" xlink:href="#Ao"><stop stop-color="#066d66"/><stop offset="1" stop-color="#004945"/></linearGradient><linearGradient id="AP" x1="90.747" y1="60.897" x2="77.149" y2="73.97" xlink:href="#Ao"><stop stop-color="#fb651e"/><stop offset="1" stop-color="#f1a17b"/></linearGradient><linearGradient id="AQ" x1="80.577" y1="80.656" x2="80.577" y2="100.309" xlink:href="#Ao"><stop stop-color="#066d66"/><stop offset="1" stop-color="#004945"/></linearGradient><linearGradient id="AR" x1="90.747" y1="60.897" x2="77.149" y2="73.969" xlink:href="#Ao"><stop stop-color="#fb651e"/><stop offset="1" stop-color="#f1a17b"/></linearGradient><linearGradient id="AS" x1="-3.027" y1="54.316" x2="-3.027" y2="73.97" xlink:href="#Ao"><stop stop-color="#066d66"/><stop offset="1" stop-color="#004945"/></linearGradient><linearGradient id="AT" x1="7.142" y1="60.897" x2="-6.455" y2="73.97" xlink:href="#Ao"><stop stop-color="#fb651e"/><stop offset="1" stop-color="#f1a17b"/></linearGradient><linearGradient id="AU" x1="-3.027" y1="80.656" x2="-3.027" y2="100.309" xlink:href="#Ao"><stop stop-color="#066d66"/><stop offset="1" stop-color="#004945"/></linearGradient><linearGradient id="AV" x1="7.142" y1="87.237" x2="-6.455" y2="100.309" xlink:href="#Ao"><stop stop-color="#fb651e"/><stop offset="1" stop-color="#f1a17b"/></linearGradient><linearGradient id="AW" x1="164.181" y1="54.316" x2="164.181" y2="73.97" xlink:href="#Ao"><stop stop-color="#066d66"/><stop offset="1" stop-color="#004945"/></linearGradient><linearGradient id="AX" x1="164.181" y1="80.656" x2="164.181" y2="100.309" xlink:href="#Ao"><stop stop-color="#066d66"/><stop offset="1" stop-color="#004945"/></linearGradient><path id="AY" d="M23.683 6.36h11.086v11.041h-3.286V11.97l-8.908 8.908-2.324-2.324 8.908-8.908h-5.476V6.36z"/><path id="AZ" d="M23.683 32.7h11.086v11.041h-3.286V38.31l-8.908 8.908-2.324-2.324 8.908-8.908h-5.476V32.7z"/><path id="Aa" d="M107.287 6.36h11.085v11.041h-3.286V11.97l-8.907 8.908-2.324-2.324 8.908-8.908h-5.476V6.36z"/><path id="Ab" d="M107.287 32.7h11.085v11.041h-3.286V38.31l-8.907 8.908-2.324-2.324 8.908-8.908h-5.476V32.7z"/><path id="Ac" d="M51.551 6.36h11.086v11.041H59.35V11.97l-8.908 8.908-2.324-2.324 8.908-8.908h-5.476V6.36z"/><path id="Ad" d="M51.551 32.7h11.086v11.041H59.35V38.31l-8.908 8.908-2.324-2.324 8.908-8.908h-5.476V32.7z"/><path id="Ae" d="M79.419 6.36h11.086v11.041h-3.286V11.97l-8.908 8.908-2.323-2.324 8.907-8.908h-5.476V6.36z"/><path id="Af" d="M79.419 32.7h11.086v11.041h-3.286V38.31l-8.908 8.908-2.323-2.324 8.907-8.908h-5.476V32.7z"/><path id="Ag" d="M-4.185 6.36H6.9v11.041H3.614V11.97l-8.908 8.908-2.324-2.324 8.908-8.908h-5.476V6.36z"/><path id="Ah" d="M-4.185 32.7H6.9v11.041H3.614V38.31l-8.908 8.908-2.324-2.324 8.908-8.908h-5.476V32.7z"/><path id="Ai" d="M23.683 60.614h11.086v11.041h-3.286v-5.432l-8.908 8.907-2.324-2.323 8.908-8.908h-5.476v-3.286z"/><path id="Aj" d="M107.287 60.614h11.085v11.041h-3.286v-5.432l-8.907 8.907-2.324-2.323 8.908-8.908h-5.476v-3.286z"/><path id="Ak" d="M51.551 60.614h11.086v11.041H59.35v-5.432l-8.908 8.907-2.324-2.323 8.908-8.908h-5.476v-3.286z"/><path id="Al" d="M79.419 60.614h11.086v11.041h-3.286v-5.432l-8.908 8.907-2.323-2.323 8.907-8.908h-5.476v-3.286z"/><path id="Am" d="M-4.185 60.614H6.9v11.041H3.614v-5.432l-8.908 8.907-2.324-2.323L1.291 63.9h-5.476v-3.286z"/><path id="An" d="M-4.185 86.954H6.9v11.041H3.614v-5.432l-8.908 8.907-2.324-2.323 8.908-8.908h-5.476v-3.286z"/><linearGradient id="Ao" gradientUnits="userSpaceOnUse"/></defs></svg>