<svg xmlns="http://www.w3.org/2000/svg" xmlns:xlink="http://www.w3.org/1999/xlink" width="208" height="102" fill="none" xmlns:v="https://vecta.io/nano"><style><![CDATA[.B{fill-rule:evenodd}.C{fill:#333}.D{fill-opacity:.3}]]></style><g opacity=".15"><mask id="A" mask-type="alpha" maskUnits="userSpaceOnUse" x="0" y="0" width="21" height="21"><path d="M.431 10.821A9.83 9.83 0 0 1 10.258.994h9.827v19.654h-9.827a9.83 9.83 0 0 1-9.827-9.827z" fill="url(#g)"/></mask><g mask="url(#A)" class="B"><use xlink:href="#Ac" class="C D"/><use xlink:href="#Ac" fill="url(#h)"/></g><mask id="B" mask-type="alpha" maskUnits="userSpaceOnUse" x="0" y="27" width="21" height="20"><path d="M.431 37.16a9.83 9.83 0 0 1 9.827-9.827h9.827v19.654h-9.827A9.83 9.83 0 0 1 .431 37.16z" fill="url(#i)"/></mask><g mask="url(#B)" class="B"><use xlink:href="#Ad" class="C D"/><use xlink:href="#Ad" fill="url(#j)"/></g><mask id="C" mask-type="alpha" maskUnits="userSpaceOnUse" x="167" y="0" width="21" height="21"><path d="M167.639 10.821a9.83 9.83 0 0 1 9.827-9.827h9.827v19.654h-9.827a9.83 9.83 0 0 1-9.827-9.827z" fill="url(#k)"/></mask><g mask="url(#C)" class="B"><use xlink:href="#Ae" class="C D"/><use xlink:href="#Ae" fill="url(#l)"/></g><mask id="D" mask-type="alpha" maskUnits="userSpaceOnUse" x="167" y="27" width="21" height="20"><path d="M167.639 37.16a9.83 9.83 0 0 1 9.827-9.827h9.827v19.654h-9.827a9.83 9.83 0 0 1-9.827-9.827z" fill="url(#m)"/></mask><g mask="url(#D)" class="B"><use xlink:href="#Af" class="C D"/><use xlink:href="#Af" fill="url(#n)"/></g><mask id="E" mask-type="alpha" maskUnits="userSpaceOnUse" x="84" y="0" width="20" height="21"><path d="M84.035 10.821A9.83 9.83 0 0 1 93.862.994h9.827v19.654h-9.827a9.83 9.83 0 0 1-9.827-9.827z" fill="url(#o)"/></mask><g mask="url(#E)" class="B"><use xlink:href="#Ag" class="C D"/><use xlink:href="#Ag" fill="url(#p)"/></g><mask id="F" mask-type="alpha" maskUnits="userSpaceOnUse" x="84" y="27" width="20" height="20"><path d="M84.035 37.16a9.83 9.83 0 0 1 9.827-9.827h9.827v19.654h-9.827a9.83 9.83 0 0 1-9.827-9.827z" fill="url(#q)"/></mask><g mask="url(#F)" class="B"><use xlink:href="#Ah" class="C D"/><use xlink:href="#Ah" fill="url(#r)"/></g><mask id="G" mask-type="alpha" maskUnits="userSpaceOnUse" x="28" y="0" width="20" height="21"><path d="M28.299 10.821A9.83 9.83 0 0 1 38.126.994h9.827v19.654h-9.827a9.83 9.83 0 0 1-9.827-9.827z" fill="url(#s)"/></mask><g mask="url(#G)" class="B"><use xlink:href="#Ai" class="C D"/><use xlink:href="#Ai" fill="url(#t)"/></g><mask id="H" mask-type="alpha" maskUnits="userSpaceOnUse" x="28" y="27" width="20" height="20"><path d="M28.299 37.16a9.83 9.83 0 0 1 9.827-9.827h9.827v19.654h-9.827a9.83 9.83 0 0 1-9.827-9.827z" fill="url(#u)"/></mask><g mask="url(#H)" class="B"><use xlink:href="#Aj" class="C D"/><use xlink:href="#Aj" fill="url(#v)"/></g><mask id="I" mask-type="alpha" maskUnits="userSpaceOnUse" x="195" y="0" width="21" height="21"><path d="M195.507 10.821a9.83 9.83 0 0 1 9.827-9.827h9.827v19.654h-9.827a9.83 9.83 0 0 1-9.827-9.827z" fill="url(#w)"/></mask><g mask="url(#I)" class="B"><use xlink:href="#Ae" x="27.868" class="C D"/><use xlink:href="#Ae" x="27.868" fill="url(#l)"/></g><mask id="J" mask-type="alpha" maskUnits="userSpaceOnUse" x="195" y="27" width="21" height="20"><path d="M195.507 37.16a9.83 9.83 0 0 1 9.827-9.827h9.827v19.654h-9.827a9.83 9.83 0 0 1-9.827-9.827z" fill="url(#x)"/></mask><g mask="url(#J)" class="B"><use xlink:href="#Af" x="27.868" class="C D"/><use xlink:href="#Af" x="27.868" fill="url(#n)"/></g><mask id="K" mask-type="alpha" maskUnits="userSpaceOnUse" x="111" y="0" width="21" height="21"><path d="M111.903 10.821A9.83 9.83 0 0 1 121.73.994h9.827v19.654h-9.827a9.83 9.83 0 0 1-9.827-9.827z" fill="url(#y)"/></mask><g mask="url(#K)" class="B"><use xlink:href="#Ag" x="27.868" class="C D"/><use xlink:href="#Ag" x="27.868" fill="url(#p)"/></g><mask id="L" mask-type="alpha" maskUnits="userSpaceOnUse" x="111" y="27" width="21" height="20"><path d="M111.903 37.16a9.83 9.83 0 0 1 9.827-9.827h9.827v19.654h-9.827a9.83 9.83 0 0 1-9.827-9.827z" fill="url(#z)"/></mask><g mask="url(#L)" class="B"><use xlink:href="#Ah" x="27.868" class="C D"/><use xlink:href="#Ah" x="27.868" fill="url(#r)"/></g><mask id="M" mask-type="alpha" maskUnits="userSpaceOnUse" x="56" y="0" width="20" height="21"><path d="M56.167 10.821A9.83 9.83 0 0 1 65.994.994h9.827v19.654h-9.827a9.83 9.83 0 0 1-9.827-9.827z" fill="url(#AA)"/></mask><g mask="url(#M)" class="B"><use xlink:href="#Ai" x="27.868" class="C D"/><use xlink:href="#Ai" x="27.868" fill="url(#t)"/></g><mask id="N" mask-type="alpha" maskUnits="userSpaceOnUse" x="56" y="27" width="20" height="20"><path d="M56.167 37.16a9.83 9.83 0 0 1 9.827-9.827h9.827v19.654h-9.827a9.83 9.83 0 0 1-9.827-9.827z" fill="url(#AB)"/></mask><g mask="url(#N)" class="B"><use xlink:href="#Aj" x="27.868" class="C D"/><use xlink:href="#Aj" x="27.868" fill="url(#v)"/></g><mask id="O" mask-type="alpha" maskUnits="userSpaceOnUse" x="139" y="0" width="21" height="21"><path d="M139.771 10.821a9.83 9.83 0 0 1 9.827-9.827h9.827v19.654h-9.827a9.83 9.83 0 0 1-9.827-9.827z" fill="url(#AC)"/></mask><g mask="url(#O)" class="B"><use xlink:href="#Ag" x="55.736" class="C D"/><use xlink:href="#Ag" x="55.736" fill="url(#p)"/></g><mask id="P" mask-type="alpha" maskUnits="userSpaceOnUse" x="139" y="27" width="21" height="20"><path d="M139.771 37.16a9.83 9.83 0 0 1 9.827-9.827h9.827v19.654h-9.827a9.83 9.83 0 0 1-9.827-9.827z" fill="url(#AD)"/></mask><g mask="url(#P)" class="B"><use xlink:href="#Ah" x="55.736" class="C D"/><use xlink:href="#Ah" x="55.736" fill="url(#r)"/></g><mask id="Q" mask-type="alpha" maskUnits="userSpaceOnUse" x="0" y="55" width="21" height="20"><path d="M.431 65.075a9.83 9.83 0 0 1 9.827-9.827h9.827v19.654h-9.827a9.83 9.83 0 0 1-9.827-9.827z" fill="url(#AE)"/></mask><g mask="url(#Q)" class="B"><use xlink:href="#Ak" class="C D"/><use xlink:href="#Ak" fill="url(#AF)"/></g><mask id="R" mask-type="alpha" maskUnits="userSpaceOnUse" x="0" y="81" width="21" height="21"><path d="M.431 91.414a9.83 9.83 0 0 1 9.827-9.827h9.827v19.654h-9.827a9.83 9.83 0 0 1-9.827-9.827z" fill="url(#AG)"/></mask><g mask="url(#R)" class="B"><use xlink:href="#Al" class="C D"/><use xlink:href="#Al" fill="url(#AH)"/></g><mask id="S" mask-type="alpha" maskUnits="userSpaceOnUse" x="167" y="55" width="21" height="20"><path d="M167.639 65.075a9.83 9.83 0 0 1 9.827-9.827h9.827v19.654h-9.827a9.83 9.83 0 0 1-9.827-9.827z" fill="url(#AI)"/></mask><g mask="url(#S)" class="B"><use xlink:href="#Am" class="C D"/><use xlink:href="#Am" fill="url(#AJ)"/></g><mask id="T" mask-type="alpha" maskUnits="userSpaceOnUse" x="167" y="81" width="21" height="21"><path d="M167.639 91.414a9.83 9.83 0 0 1 9.827-9.827h9.827v19.654h-9.827a9.83 9.83 0 0 1-9.827-9.827z" fill="url(#AK)"/></mask><g mask="url(#T)" class="B"><use xlink:href="#An" class="C D"/><use xlink:href="#An" fill="url(#AL)"/></g><mask id="U" mask-type="alpha" maskUnits="userSpaceOnUse" x="84" y="55" width="20" height="20"><path d="M84.035 65.075a9.83 9.83 0 0 1 9.827-9.827h9.827v19.654h-9.827a9.83 9.83 0 0 1-9.827-9.827z" fill="url(#AM)"/></mask><g mask="url(#U)" class="B"><use xlink:href="#Ao" class="C D"/><use xlink:href="#Ao" fill="url(#AN)"/></g><mask id="V" mask-type="alpha" maskUnits="userSpaceOnUse" x="84" y="81" width="20" height="21"><path d="M84.035 91.414a9.83 9.83 0 0 1 9.827-9.827h9.827v19.654h-9.827a9.83 9.83 0 0 1-9.827-9.827z" fill="url(#AO)"/></mask><g mask="url(#V)" class="B"><use xlink:href="#Ap" class="C D"/><use xlink:href="#Ap" fill="url(#AP)"/></g><mask id="W" mask-type="alpha" maskUnits="userSpaceOnUse" x="28" y="55" width="20" height="20"><path d="M28.299 65.075a9.83 9.83 0 0 1 9.827-9.827h9.827v19.654h-9.827a9.83 9.83 0 0 1-9.827-9.827z" fill="url(#AQ)"/></mask><g mask="url(#W)" class="B"><use xlink:href="#Aq" class="C D"/><use xlink:href="#Aq" fill="url(#AR)"/></g><mask id="X" mask-type="alpha" maskUnits="userSpaceOnUse" x="28" y="81" width="20" height="21"><path d="M28.299 91.414a9.83 9.83 0 0 1 9.827-9.827h9.827v19.654h-9.827a9.83 9.83 0 0 1-9.827-9.827z" fill="url(#AS)"/></mask><g mask="url(#X)" class="B"><use xlink:href="#Ar" class="C D"/><use xlink:href="#Ar" fill="url(#AT)"/></g><mask id="Y" mask-type="alpha" maskUnits="userSpaceOnUse" x="195" y="55" width="21" height="20"><path d="M195.507 65.075a9.83 9.83 0 0 1 9.827-9.827h9.827v19.654h-9.827a9.83 9.83 0 0 1-9.827-9.827z" fill="url(#AU)"/></mask><g mask="url(#Y)" class="B"><use xlink:href="#Am" x="27.868" class="C D"/><use xlink:href="#Am" x="27.868" fill="url(#AJ)"/></g><mask id="Z" mask-type="alpha" maskUnits="userSpaceOnUse" x="195" y="81" width="21" height="21"><path d="M195.507 91.414a9.83 9.83 0 0 1 9.827-9.827h9.827v19.654h-9.827a9.83 9.83 0 0 1-9.827-9.827z" fill="url(#AV)"/></mask><g mask="url(#Z)" class="B"><use xlink:href="#An" x="27.868" class="C D"/><use xlink:href="#An" x="27.868" fill="url(#AL)"/></g><mask id="a" mask-type="alpha" maskUnits="userSpaceOnUse" x="111" y="55" width="21" height="20"><path d="M111.903 65.075a9.83 9.83 0 0 1 9.827-9.827h9.827v19.654h-9.827a9.83 9.83 0 0 1-9.827-9.827z" fill="url(#AW)"/></mask><g mask="url(#a)" class="B"><use xlink:href="#Ao" x="27.868" class="C D"/><use xlink:href="#Ao" x="27.868" fill="url(#AN)"/></g><mask id="b" mask-type="alpha" maskUnits="userSpaceOnUse" x="111" y="81" width="21" height="21"><path d="M111.903 91.414a9.83 9.83 0 0 1 9.827-9.827h9.827v19.654h-9.827a9.83 9.83 0 0 1-9.827-9.827z" fill="url(#AX)"/></mask><g mask="url(#b)" class="B"><use xlink:href="#Ap" x="27.868" class="C D"/><use xlink:href="#Ap" x="27.868" fill="url(#AP)"/></g><mask id="c" mask-type="alpha" maskUnits="userSpaceOnUse" x="56" y="55" width="20" height="20"><path d="M56.167 65.075a9.83 9.83 0 0 1 9.827-9.827h9.827v19.654h-9.827a9.83 9.83 0 0 1-9.827-9.827z" fill="url(#AY)"/></mask><g mask="url(#c)" class="B"><use xlink:href="#Aq" x="27.868" class="C D"/><use xlink:href="#Aq" x="27.868" fill="url(#AR)"/></g><mask id="d" mask-type="alpha" maskUnits="userSpaceOnUse" x="56" y="81" width="20" height="21"><path d="M56.167 91.414a9.83 9.83 0 0 1 9.827-9.827h9.827v19.654h-9.827a9.83 9.83 0 0 1-9.827-9.827z" fill="url(#AZ)"/></mask><g mask="url(#d)" class="B"><use xlink:href="#Ar" x="27.868" class="C D"/><use xlink:href="#Ar" x="27.868" fill="url(#AT)"/></g><mask id="e" mask-type="alpha" maskUnits="userSpaceOnUse" x="139" y="55" width="21" height="20"><path d="M139.771 65.075a9.83 9.83 0 0 1 9.827-9.827h9.827v19.654h-9.827a9.83 9.83 0 0 1-9.827-9.827z" fill="url(#Aa)"/></mask><g mask="url(#e)" class="B"><use xlink:href="#Ao" x="55.736" class="C D"/><use xlink:href="#Ao" x="55.736" fill="url(#AN)"/></g><mask id="f" mask-type="alpha" maskUnits="userSpaceOnUse" x="139" y="81" width="21" height="21"><path d="M139.771 91.414a9.83 9.83 0 0 1 9.827-9.827h9.827v19.654h-9.827a9.83 9.83 0 0 1-9.827-9.827z" fill="url(#Ab)"/></mask><g mask="url(#f)" class="B"><use xlink:href="#Ap" x="55.736" class="C D"/><use xlink:href="#Ap" x="55.736" fill="url(#AP)"/></g></g><defs><linearGradient id="g" x1="10.258" y1=".994" x2="10.258" y2="20.648" xlink:href="#As"><stop stop-color="#066d66"/><stop offset="1" stop-color="#004945"/></linearGradient><linearGradient id="h" x1="20.428" y1="7.575" x2="6.83" y2="20.648" xlink:href="#As"><stop stop-color="#fb651e"/><stop offset="1" stop-color="#f1a17b"/></linearGradient><linearGradient id="i" x1="10.258" y1="27.334" x2="10.258" y2="46.987" xlink:href="#As"><stop stop-color="#066d66"/><stop offset="1" stop-color="#004945"/></linearGradient><linearGradient id="j" x1="20.428" y1="33.915" x2="6.83" y2="46.987" xlink:href="#As"><stop stop-color="#fb651e"/><stop offset="1" stop-color="#f1a17b"/></linearGradient><linearGradient id="k" x1="177.466" y1=".994" x2="177.466" y2="20.648" xlink:href="#As"><stop stop-color="#066d66"/><stop offset="1" stop-color="#004945"/></linearGradient><linearGradient id="l" x1="187.636" y1="7.575" x2="174.038" y2="20.648" xlink:href="#As"><stop stop-color="#fb651e"/><stop offset="1" stop-color="#f1a17b"/></linearGradient><linearGradient id="m" x1="177.466" y1="27.334" x2="177.466" y2="46.987" xlink:href="#As"><stop stop-color="#066d66"/><stop offset="1" stop-color="#004945"/></linearGradient><linearGradient id="n" x1="187.636" y1="33.915" x2="174.038" y2="46.987" xlink:href="#As"><stop stop-color="#fb651e"/><stop offset="1" stop-color="#f1a17b"/></linearGradient><linearGradient id="o" x1="93.862" y1=".994" x2="93.862" y2="20.648" xlink:href="#As"><stop stop-color="#066d66"/><stop offset="1" stop-color="#004945"/></linearGradient><linearGradient id="p" x1="104.032" y1="7.575" x2="90.434" y2="20.648" xlink:href="#As"><stop stop-color="#fb651e"/><stop offset="1" stop-color="#f1a17b"/></linearGradient><linearGradient id="q" x1="93.862" y1="27.334" x2="93.862" y2="46.987" xlink:href="#As"><stop stop-color="#066d66"/><stop offset="1" stop-color="#004945"/></linearGradient><linearGradient id="r" x1="104.032" y1="33.915" x2="90.434" y2="46.987" xlink:href="#As"><stop stop-color="#fb651e"/><stop offset="1" stop-color="#f1a17b"/></linearGradient><linearGradient id="s" x1="38.126" y1=".994" x2="38.126" y2="20.648" xlink:href="#As"><stop stop-color="#066d66"/><stop offset="1" stop-color="#004945"/></linearGradient><linearGradient id="t" x1="48.296" y1="7.575" x2="34.698" y2="20.648" xlink:href="#As"><stop stop-color="#fb651e"/><stop offset="1" stop-color="#f1a17b"/></linearGradient><linearGradient id="u" x1="38.126" y1="27.334" x2="38.126" y2="46.987" xlink:href="#As"><stop stop-color="#066d66"/><stop offset="1" stop-color="#004945"/></linearGradient><linearGradient id="v" x1="48.296" y1="33.915" x2="34.698" y2="46.987" xlink:href="#As"><stop stop-color="#fb651e"/><stop offset="1" stop-color="#f1a17b"/></linearGradient><linearGradient id="w" x1="205.334" y1=".994" x2="205.334" y2="20.648" xlink:href="#As"><stop stop-color="#066d66"/><stop offset="1" stop-color="#004945"/></linearGradient><linearGradient id="x" x1="205.334" y1="27.334" x2="205.334" y2="46.987" xlink:href="#As"><stop stop-color="#066d66"/><stop offset="1" stop-color="#004945"/></linearGradient><linearGradient id="y" x1="121.73" y1=".994" x2="121.73" y2="20.648" xlink:href="#As"><stop stop-color="#066d66"/><stop offset="1" stop-color="#004945"/></linearGradient><linearGradient id="z" x1="121.73" y1="27.334" x2="121.73" y2="46.987" xlink:href="#As"><stop stop-color="#066d66"/><stop offset="1" stop-color="#004945"/></linearGradient><linearGradient id="AA" x1="65.994" y1=".994" x2="65.994" y2="20.648" xlink:href="#As"><stop stop-color="#066d66"/><stop offset="1" stop-color="#004945"/></linearGradient><linearGradient id="AB" x1="65.994" y1="27.334" x2="65.994" y2="46.987" xlink:href="#As"><stop stop-color="#066d66"/><stop offset="1" stop-color="#004945"/></linearGradient><linearGradient id="AC" x1="149.598" y1=".994" x2="149.598" y2="20.648" xlink:href="#As"><stop stop-color="#066d66"/><stop offset="1" stop-color="#004945"/></linearGradient><linearGradient id="AD" x1="149.598" y1="27.334" x2="149.598" y2="46.987" xlink:href="#As"><stop stop-color="#066d66"/><stop offset="1" stop-color="#004945"/></linearGradient><linearGradient id="AE" x1="10.258" y1="55.248" x2="10.258" y2="74.901" xlink:href="#As"><stop stop-color="#066d66"/><stop offset="1" stop-color="#004945"/></linearGradient><linearGradient id="AF" x1="20.428" y1="61.829" x2="6.83" y2="74.902" xlink:href="#As"><stop stop-color="#fb651e"/><stop offset="1" stop-color="#f1a17b"/></linearGradient><linearGradient id="AG" x1="10.258" y1="81.587" x2="10.258" y2="101.241" xlink:href="#As"><stop stop-color="#066d66"/><stop offset="1" stop-color="#004945"/></linearGradient><linearGradient id="AH" x1="20.428" y1="88.169" x2="6.83" y2="101.241" xlink:href="#As"><stop stop-color="#fb651e"/><stop offset="1" stop-color="#f1a17b"/></linearGradient><linearGradient id="AI" x1="177.466" y1="55.248" x2="177.466" y2="74.901" xlink:href="#As"><stop stop-color="#066d66"/><stop offset="1" stop-color="#004945"/></linearGradient><linearGradient id="AJ" x1="187.636" y1="61.829" x2="174.038" y2="74.902" xlink:href="#As"><stop stop-color="#fb651e"/><stop offset="1" stop-color="#f1a17b"/></linearGradient><linearGradient id="AK" x1="177.466" y1="81.587" x2="177.466" y2="101.241" xlink:href="#As"><stop stop-color="#066d66"/><stop offset="1" stop-color="#004945"/></linearGradient><linearGradient id="AL" x1="187.636" y1="88.169" x2="174.038" y2="101.241" xlink:href="#As"><stop stop-color="#fb651e"/><stop offset="1" stop-color="#f1a17b"/></linearGradient><linearGradient id="AM" x1="93.862" y1="55.248" x2="93.862" y2="74.901" xlink:href="#As"><stop stop-color="#066d66"/><stop offset="1" stop-color="#004945"/></linearGradient><linearGradient id="AN" x1="104.032" y1="61.829" x2="90.434" y2="74.902" xlink:href="#As"><stop stop-color="#fb651e"/><stop offset="1" stop-color="#f1a17b"/></linearGradient><linearGradient id="AO" x1="93.862" y1="81.587" x2="93.862" y2="101.241" xlink:href="#As"><stop stop-color="#066d66"/><stop offset="1" stop-color="#004945"/></linearGradient><linearGradient id="AP" x1="104.032" y1="88.169" x2="90.434" y2="101.241" xlink:href="#As"><stop stop-color="#fb651e"/><stop offset="1" stop-color="#f1a17b"/></linearGradient><linearGradient id="AQ" x1="38.126" y1="55.248" x2="38.126" y2="74.901" xlink:href="#As"><stop stop-color="#066d66"/><stop offset="1" stop-color="#004945"/></linearGradient><linearGradient id="AR" x1="48.296" y1="61.829" x2="34.698" y2="74.902" xlink:href="#As"><stop stop-color="#fb651e"/><stop offset="1" stop-color="#f1a17b"/></linearGradient><linearGradient id="AS" x1="38.126" y1="81.587" x2="38.126" y2="101.241" xlink:href="#As"><stop stop-color="#066d66"/><stop offset="1" stop-color="#004945"/></linearGradient><linearGradient id="AT" x1="48.296" y1="88.169" x2="34.698" y2="101.241" xlink:href="#As"><stop stop-color="#fb651e"/><stop offset="1" stop-color="#f1a17b"/></linearGradient><linearGradient id="AU" x1="205.334" y1="55.248" x2="205.334" y2="74.901" xlink:href="#As"><stop stop-color="#066d66"/><stop offset="1" stop-color="#004945"/></linearGradient><linearGradient id="AV" x1="205.334" y1="81.587" x2="205.334" y2="101.241" xlink:href="#As"><stop stop-color="#066d66"/><stop offset="1" stop-color="#004945"/></linearGradient><linearGradient id="AW" x1="121.73" y1="55.248" x2="121.73" y2="74.901" xlink:href="#As"><stop stop-color="#066d66"/><stop offset="1" stop-color="#004945"/></linearGradient><linearGradient id="AX" x1="121.73" y1="81.587" x2="121.73" y2="101.241" xlink:href="#As"><stop stop-color="#066d66"/><stop offset="1" stop-color="#004945"/></linearGradient><linearGradient id="AY" x1="65.994" y1="55.248" x2="65.994" y2="74.901" xlink:href="#As"><stop stop-color="#066d66"/><stop offset="1" stop-color="#004945"/></linearGradient><linearGradient id="AZ" x1="65.994" y1="81.587" x2="65.994" y2="101.241" xlink:href="#As"><stop stop-color="#066d66"/><stop offset="1" stop-color="#004945"/></linearGradient><linearGradient id="Aa" x1="149.598" y1="55.248" x2="149.598" y2="74.901" xlink:href="#As"><stop stop-color="#066d66"/><stop offset="1" stop-color="#004945"/></linearGradient><linearGradient id="Ab" x1="149.598" y1="81.587" x2="149.598" y2="101.241" xlink:href="#As"><stop stop-color="#066d66"/><stop offset="1" stop-color="#004945"/></linearGradient><path id="Ac" d="M9.1 7.292h11.086v11.041h-3.286v-5.432l-8.908 8.908-2.324-2.324 8.908-8.908H9.1V7.292z"/><path id="Ad" d="M9.1 33.632h11.086v11.041h-3.286v-5.432l-8.908 8.908-2.324-2.324 8.908-8.907H9.1v-3.286z"/><path id="Ae" d="M176.308 7.292h11.086v11.041h-3.287v-5.432l-8.907 8.908-2.324-2.324 8.908-8.908h-5.476V7.292z"/><path id="Af" d="M176.308 33.632h11.086v11.041h-3.287v-5.432l-8.907 8.908-2.324-2.324 8.908-8.907h-5.476v-3.286z"/><path id="Ag" d="M92.704 7.292h11.085v11.041h-3.286v-5.432l-8.907 8.908-2.324-2.324 8.908-8.908h-5.476V7.292z"/><path id="Ah" d="M92.704 33.632h11.085v11.041h-3.286v-5.432l-8.907 8.908-2.324-2.324 8.908-8.907h-5.476v-3.286z"/><path id="Ai" d="M36.968 7.292h11.086v11.041h-3.286v-5.432l-8.908 8.908-2.324-2.324 8.908-8.908h-5.476V7.292z"/><path id="Aj" d="M36.968 33.632h11.086v11.041h-3.286v-5.432l-8.908 8.908-2.324-2.324 8.908-8.907h-5.476v-3.286z"/><path id="Ak" d="M9.1 61.546h11.086v11.041h-3.286v-5.432l-8.908 8.908-2.324-2.324 8.908-8.908H9.1v-3.286z"/><path id="Al" d="M9.1 87.886h11.086v11.041h-3.286v-5.432l-8.908 8.907-2.324-2.323 8.908-8.908H9.1v-3.286z"/><path id="Am" d="M176.308 61.546h11.086v11.041h-3.287v-5.432l-8.907 8.908-2.324-2.324 8.908-8.908h-5.476v-3.286z"/><path id="An" d="M176.308 87.886h11.086v11.041h-3.287v-5.432l-8.907 8.907-2.324-2.323 8.908-8.908h-5.476v-3.286z"/><path id="Ao" d="M92.704 61.546h11.085v11.041h-3.286v-5.432l-8.907 8.908-2.324-2.324 8.908-8.908h-5.476v-3.286z"/><path id="Ap" d="M92.704 87.886h11.085v11.041h-3.286v-5.432l-8.907 8.907-2.324-2.323 8.908-8.908h-5.476v-3.286z"/><path id="Aq" d="M36.968 61.546h11.086v11.041h-3.286v-5.432l-8.908 8.908-2.324-2.324 8.908-8.908h-5.476v-3.286z"/><path id="Ar" d="M36.968 87.886h11.086v11.041h-3.286v-5.432l-8.908 8.907-2.324-2.323 8.908-8.908h-5.476v-3.286z"/><linearGradient id="As" gradientUnits="userSpaceOnUse"/></defs></svg>