<svg width="542" height="597" viewBox="0 0 542 597" fill="none" xmlns="http://www.w3.org/2000/svg">
<path d="M252.114 593.595C229.089 585.363 224.149 574.172 214.708 508.596C203.723 432.37 201.33 385.188 207.685 370.241C216.123 350.432 239.019 339.19 271.048 339.061C302.82 338.932 325.922 350.278 334.412 370.241C340.792 385.162 338.399 432.37 327.414 508.596C319.953 561.849 315.837 575.304 305.547 584.36C291.397 596.888 271.331 600.361 252.294 593.621L252.114 593.595ZM153.763 515.388C74.269 476.284 23.3313 410.117 4.80847 322.082C0.177766 299.366 -0.594012 245.161 3.77943 224.322C15.3562 168.368 37.4806 124.608 74.269 85.9159C127.265 30.0387 195.439 0.505127 271.331 0.505127C346.451 0.505127 414.368 29.4985 466.078 83.7034C505.439 124.608 527.563 167.905 538.883 224.94C542.742 243.926 542.742 295.687 539.14 317.039C527.306 384.545 489.746 446.03 434.949 487.346C415.397 502.113 367.547 527.891 359.829 527.891C356.999 527.891 356.742 524.958 358.028 513.098C360.344 494.061 362.659 490.099 373.464 485.571C390.7 478.368 420.028 457.478 438.036 439.419C469.165 408.547 492.061 368.157 502.609 325.709C509.298 299.211 508.526 240.298 501.065 213.029C477.655 126.332 406.908 58.9292 320.211 40.9209C294.999 35.7757 249.207 35.7757 223.738 40.9209C136.012 58.9292 63.464 129.676 41.3396 218.688C35.4226 242.871 35.4226 301.784 41.3396 325.966C56.0035 384.879 94.0781 438.904 143.987 471.062C153.763 477.493 165.597 484.182 170.485 486.24C181.29 490.871 183.605 494.73 185.663 513.767C186.949 525.344 186.692 528.688 183.862 528.688C182.061 528.688 168.941 523.029 155.049 516.34L153.763 515.388ZM154.792 410.734C128.037 389.381 104.369 351.512 94.5927 314.364C88.6756 291.931 88.6756 249.277 94.8499 226.895C111.057 166.49 155.564 119.669 217.306 97.6727C238.402 90.2122 285.223 88.54 311.207 94.2769C400.734 114.215 464.277 203.87 451.929 292.805C447.041 328.642 434.692 358.073 412.825 385.419C402.02 399.234 375.779 422.414 371.149 422.414C370.377 422.414 369.605 413.667 369.605 403.016V383.567L382.983 367.617C433.406 307.212 429.804 222.83 374.75 167.468C353.397 145.909 328.7 133.252 296.8 127.412C276.219 123.605 271.846 123.605 250.236 127.155C217.435 132.506 192.017 145.215 169.456 167.545C114.144 222.342 110.543 307.161 160.966 367.617L174.241 383.567V403.119C174.241 413.924 173.392 422.671 172.337 422.671C171.308 422.671 163.847 417.526 155.872 411.094L154.792 410.734ZM244.061 305.694C221.165 295.044 208.817 274.952 208.559 248.762C208.559 225.223 221.68 204.693 244.319 192.679C258.725 185.116 284.194 185.116 298.601 192.731C314.294 200.886 327.157 216.708 332.045 233.224C346.966 283.956 293.198 328.41 244.576 305.694H244.061Z" fill="white" fill-opacity="0.1"/>
</svg>
