<svg xmlns="http://www.w3.org/2000/svg" xmlns:xlink="http://www.w3.org/1999/xlink" width="392" height="102" fill="none" xmlns:v="https://vecta.io/nano"><style><![CDATA[.B{fill-rule:evenodd}.C{fill:#000}.D{fill-opacity:.3}]]></style><g opacity=".1"><mask id="A" mask-type="alpha" maskUnits="userSpaceOnUse" x="65" y="0" width="21" height="21"><path d="M65.798 10.612A9.83 9.83 0 0 1 75.625.785h9.827v19.654h-9.827a9.83 9.83 0 0 1-9.827-9.827z" fill="url(#AI)"/></mask><g mask="url(#A)" class="B"><use xlink:href="#Bw" class="C D"/><use xlink:href="#Bw" fill="url(#AJ)"/></g><mask id="B" mask-type="alpha" maskUnits="userSpaceOnUse" x="65" y="27" width="21" height="20"><path d="M65.798 36.952a9.83 9.83 0 0 1 9.827-9.827h9.827v19.654h-9.827a9.83 9.83 0 0 1-9.827-9.827z" fill="url(#AK)"/></mask><g mask="url(#B)" class="B"><use xlink:href="#Bx" class="C D"/><use xlink:href="#Bx" fill="url(#AL)"/></g><mask id="C" mask-type="alpha" maskUnits="userSpaceOnUse" x="233" y="0" width="20" height="21"><path d="M233.006 10.612a9.83 9.83 0 0 1 9.827-9.827h9.827v19.654h-9.827a9.83 9.83 0 0 1-9.827-9.827z" fill="url(#AM)"/></mask><g mask="url(#C)" class="B"><use xlink:href="#By" class="C D"/><use xlink:href="#By" fill="url(#AN)"/></g><mask id="D" mask-type="alpha" maskUnits="userSpaceOnUse" x="233" y="27" width="20" height="20"><path d="M233.006 36.952a9.83 9.83 0 0 1 9.827-9.827h9.827v19.654h-9.827a9.83 9.83 0 0 1-9.827-9.827z" fill="url(#AO)"/></mask><g mask="url(#D)" class="B"><use xlink:href="#Bz" class="C D"/><use xlink:href="#Bz" fill="url(#AP)"/></g><mask id="E" mask-type="alpha" maskUnits="userSpaceOnUse" x="149" y="0" width="21" height="21"><path d="M149.402 10.612a9.83 9.83 0 0 1 9.827-9.827h9.827v19.654h-9.827a9.83 9.83 0 0 1-9.827-9.827z" fill="url(#AQ)"/></mask><g mask="url(#E)" class="B"><use xlink:href="#CA" class="C D"/><use xlink:href="#CA" fill="url(#AR)"/></g><mask id="F" mask-type="alpha" maskUnits="userSpaceOnUse" x="149" y="27" width="21" height="20"><path d="M149.402 36.952a9.83 9.83 0 0 1 9.827-9.827h9.827v19.654h-9.827a9.83 9.83 0 0 1-9.827-9.827z" fill="url(#AS)"/></mask><g mask="url(#F)" class="B"><use xlink:href="#CB" class="C D"/><use xlink:href="#CB" fill="url(#AT)"/></g><mask id="G" mask-type="alpha" maskUnits="userSpaceOnUse" x="316" y="0" width="21" height="21"><path d="M316.61 10.612a9.83 9.83 0 0 1 9.827-9.827h9.827v19.654h-9.827a9.83 9.83 0 0 1-9.827-9.827z" fill="url(#AU)"/></mask><g mask="url(#G)" class="B"><use xlink:href="#By" x="83.604" class="C D"/><use xlink:href="#By" x="83.604" fill="url(#AV)"/></g><mask id="H" mask-type="alpha" maskUnits="userSpaceOnUse" x="316" y="27" width="21" height="20"><path d="M316.61 36.952a9.83 9.83 0 0 1 9.827-9.827h9.827v19.654h-9.827a9.83 9.83 0 0 1-9.827-9.827z" fill="url(#AW)"/></mask><g mask="url(#H)" class="B"><use xlink:href="#Bz" x="83.604" class="C D"/><use xlink:href="#Bz" x="83.604" fill="url(#AX)"/></g><mask id="I" mask-type="alpha" maskUnits="userSpaceOnUse" x="93" y="0" width="21" height="21"><path d="M93.666 10.612a9.83 9.83 0 0 1 9.827-9.827h9.827v19.654h-9.827a9.83 9.83 0 0 1-9.827-9.827z" fill="url(#AY)"/></mask><g mask="url(#I)" class="B"><use xlink:href="#CC" class="C D"/><use xlink:href="#CC" fill="url(#AZ)"/></g><mask id="J" mask-type="alpha" maskUnits="userSpaceOnUse" x="93" y="27" width="21" height="20"><path d="M93.666 36.952a9.83 9.83 0 0 1 9.827-9.827h9.827v19.654h-9.827a9.83 9.83 0 0 1-9.827-9.827z" fill="url(#Aa)"/></mask><g mask="url(#J)" class="B"><use xlink:href="#CD" class="C D"/><use xlink:href="#CD" fill="url(#Ab)"/></g><mask id="K" mask-type="alpha" maskUnits="userSpaceOnUse" x="260" y="0" width="21" height="21"><path d="M260.874 10.612a9.83 9.83 0 0 1 9.827-9.827h9.827v19.654h-9.827a9.83 9.83 0 0 1-9.827-9.827z" fill="url(#Ac)"/></mask><g mask="url(#K)" class="B"><use xlink:href="#By" x="27.868" class="C D"/><use xlink:href="#By" x="27.868" fill="url(#AV)"/></g><mask id="L" mask-type="alpha" maskUnits="userSpaceOnUse" x="260" y="27" width="21" height="20"><path d="M260.874 36.952a9.83 9.83 0 0 1 9.827-9.827h9.827v19.654h-9.827a9.83 9.83 0 0 1-9.827-9.827z" fill="url(#Ad)"/></mask><g mask="url(#L)" class="B"><use xlink:href="#Bz" x="27.868" class="C D"/><use xlink:href="#Bz" x="27.868" fill="url(#AX)"/></g><mask id="M" mask-type="alpha" maskUnits="userSpaceOnUse" x="177" y="0" width="20" height="21"><path d="M177.27 10.612a9.83 9.83 0 0 1 9.827-9.827h9.827v19.654h-9.827a9.83 9.83 0 0 1-9.827-9.827z" fill="url(#Ae)"/></mask><g mask="url(#M)" class="B"><use xlink:href="#By" x="-55.736" class="C D"/><use xlink:href="#By" x="-55.736" fill="url(#AV)"/></g><mask id="N" mask-type="alpha" maskUnits="userSpaceOnUse" x="177" y="27" width="20" height="20"><path d="M177.27 36.952a9.83 9.83 0 0 1 9.827-9.827h9.827v19.654h-9.827a9.83 9.83 0 0 1-9.827-9.827z" fill="url(#Af)"/></mask><g mask="url(#N)" class="B"><use xlink:href="#Bz" x="-55.736" class="C D"/><use xlink:href="#Bz" x="-55.736" fill="url(#AX)"/></g><mask id="O" mask-type="alpha" maskUnits="userSpaceOnUse" x="344" y="0" width="21" height="21"><path d="M344.478 10.612a9.83 9.83 0 0 1 9.827-9.827h9.827v19.654h-9.827a9.83 9.83 0 0 1-9.827-9.827z" fill="url(#Ag)"/></mask><g mask="url(#O)" class="B"><use xlink:href="#By" x="111.472" class="C D"/><use xlink:href="#By" x="111.472" fill="url(#AV)"/></g><mask id="P" mask-type="alpha" maskUnits="userSpaceOnUse" x="344" y="27" width="21" height="20"><path d="M344.478 36.952a9.83 9.83 0 0 1 9.827-9.827h9.827v19.654h-9.827a9.83 9.83 0 0 1-9.827-9.827z" fill="url(#Ah)"/></mask><g mask="url(#P)" class="B"><use xlink:href="#Bz" x="111.472" class="C D"/><use xlink:href="#Bz" x="111.472" fill="url(#AX)"/></g><mask id="Q" mask-type="alpha" maskUnits="userSpaceOnUse" x="121" y="0" width="21" height="21"><path d="M121.534 10.612a9.83 9.83 0 0 1 9.827-9.827h9.827v19.654h-9.827a9.83 9.83 0 0 1-9.827-9.827z" fill="url(#Ai)"/></mask><g mask="url(#Q)" class="B"><use xlink:href="#CA" x="-27.868" class="C D"/><use xlink:href="#CA" x="-27.868" fill="url(#AR)"/></g><mask id="R" mask-type="alpha" maskUnits="userSpaceOnUse" x="121" y="27" width="21" height="20"><path d="M121.534 36.952a9.83 9.83 0 0 1 9.827-9.827h9.827v19.654h-9.827a9.83 9.83 0 0 1-9.827-9.827z" fill="url(#Aj)"/></mask><g mask="url(#R)" class="B"><use xlink:href="#CB" x="-27.868" class="C D"/><use xlink:href="#CB" x="-27.868" fill="url(#AT)"/></g><mask id="S" mask-type="alpha" maskUnits="userSpaceOnUse" x="288" y="0" width="21" height="21"><path d="M288.742 10.612a9.83 9.83 0 0 1 9.827-9.827h9.827v19.654h-9.827a9.83 9.83 0 0 1-9.827-9.827z" fill="url(#Ak)"/></mask><g mask="url(#S)" class="B"><use xlink:href="#By" x="55.736" class="C D"/><use xlink:href="#By" x="55.736" fill="url(#AV)"/></g><mask id="T" mask-type="alpha" maskUnits="userSpaceOnUse" x="288" y="27" width="21" height="20"><path d="M288.742 36.952a9.83 9.83 0 0 1 9.827-9.827h9.827v19.654h-9.827a9.83 9.83 0 0 1-9.827-9.827z" fill="url(#Al)"/></mask><g mask="url(#T)" class="B"><use xlink:href="#Bz" x="55.736" class="C D"/><use xlink:href="#Bz" x="55.736" fill="url(#AX)"/></g><mask id="U" mask-type="alpha" maskUnits="userSpaceOnUse" x="205" y="0" width="20" height="21"><path d="M205.138 10.612a9.83 9.83 0 0 1 9.827-9.827h9.827v19.654h-9.827a9.83 9.83 0 0 1-9.827-9.827z" fill="url(#Am)"/></mask><g mask="url(#U)" class="B"><use xlink:href="#By" x="-27.868" class="C D"/><use xlink:href="#By" x="-27.868" fill="url(#AN)"/></g><mask id="V" mask-type="alpha" maskUnits="userSpaceOnUse" x="205" y="27" width="20" height="20"><path d="M205.138 36.952a9.83 9.83 0 0 1 9.827-9.827h9.827v19.654h-9.827a9.83 9.83 0 0 1-9.827-9.827z" fill="url(#An)"/></mask><g mask="url(#V)" class="B"><use xlink:href="#Bz" x="-27.868" class="C D"/><use xlink:href="#Bz" x="-27.868" fill="url(#AP)"/></g><mask id="W" mask-type="alpha" maskUnits="userSpaceOnUse" x="372" y="0" width="20" height="21"><path d="M372.346 10.612a9.83 9.83 0 0 1 9.827-9.827H392v19.654h-9.827a9.83 9.83 0 0 1-9.827-9.827z" fill="url(#Ao)"/></mask><g mask="url(#W)" class="B"><use xlink:href="#CE" class="C D"/><use xlink:href="#CE" fill="url(#Ap)"/></g><mask id="X" mask-type="alpha" maskUnits="userSpaceOnUse" x="372" y="27" width="20" height="20"><path d="M372.346 36.952a9.83 9.83 0 0 1 9.827-9.827H392v19.654h-9.827a9.83 9.83 0 0 1-9.827-9.827z" fill="url(#Aq)"/></mask><g mask="url(#X)" class="B"><use xlink:href="#CF" class="C D"/><use xlink:href="#CF" fill="url(#Ar)"/></g><mask id="Y" mask-type="alpha" maskUnits="userSpaceOnUse" x="65" y="55" width="21" height="20"><path d="M65.798 64.866a9.83 9.83 0 0 1 9.827-9.827h9.827v19.654h-9.827a9.83 9.83 0 0 1-9.827-9.827z" fill="url(#As)"/></mask><g mask="url(#Y)" class="B"><use xlink:href="#CG" class="C D"/><use xlink:href="#CG" fill="url(#At)"/></g><mask id="Z" mask-type="alpha" maskUnits="userSpaceOnUse" x="65" y="81" width="21" height="21"><path d="M65.798 91.206a9.83 9.83 0 0 1 9.827-9.827h9.827v19.654h-9.827a9.83 9.83 0 0 1-9.827-9.827z" fill="url(#Au)"/></mask><g mask="url(#Z)" class="B"><use xlink:href="#CH" class="C D"/><use xlink:href="#CH" fill="url(#Av)"/></g><mask id="a" mask-type="alpha" maskUnits="userSpaceOnUse" x="233" y="55" width="20" height="20"><path d="M233.006 64.866a9.83 9.83 0 0 1 9.827-9.827h9.827v19.654h-9.827a9.83 9.83 0 0 1-9.827-9.827z" fill="url(#Aw)"/></mask><g mask="url(#a)" class="B"><use xlink:href="#CI" class="C D"/><use xlink:href="#CI" fill="url(#Ax)"/></g><mask id="b" mask-type="alpha" maskUnits="userSpaceOnUse" x="233" y="81" width="20" height="21"><path d="M233.006 91.206a9.83 9.83 0 0 1 9.827-9.827h9.827v19.654h-9.827a9.83 9.83 0 0 1-9.827-9.827z" fill="url(#Ay)"/></mask><g mask="url(#b)" class="B"><use xlink:href="#CJ" class="C D"/><use xlink:href="#CJ" fill="url(#Az)"/></g><mask id="c" mask-type="alpha" maskUnits="userSpaceOnUse" x="149" y="55" width="21" height="20"><path d="M149.402 64.866a9.83 9.83 0 0 1 9.827-9.827h9.827v19.654h-9.827a9.83 9.83 0 0 1-9.827-9.827z" fill="url(#BA)"/></mask><g mask="url(#c)" class="B"><use xlink:href="#CK" class="C D"/><use xlink:href="#CK" fill="url(#BB)"/></g><mask id="d" mask-type="alpha" maskUnits="userSpaceOnUse" x="149" y="81" width="21" height="21"><path d="M149.402 91.206a9.83 9.83 0 0 1 9.827-9.827h9.827v19.654h-9.827a9.83 9.83 0 0 1-9.827-9.827z" fill="url(#BC)"/></mask><g mask="url(#d)" class="B"><use xlink:href="#CL" class="C D"/><use xlink:href="#CL" fill="url(#BD)"/></g><mask id="e" mask-type="alpha" maskUnits="userSpaceOnUse" x="316" y="55" width="21" height="20"><path d="M316.61 64.866a9.83 9.83 0 0 1 9.827-9.827h9.827v19.654h-9.827a9.83 9.83 0 0 1-9.827-9.827z" fill="url(#BE)"/></mask><g mask="url(#e)" class="B"><use xlink:href="#CI" x="83.604" class="C D"/><use xlink:href="#CI" x="83.604" fill="url(#BF)"/></g><mask id="f" mask-type="alpha" maskUnits="userSpaceOnUse" x="316" y="81" width="21" height="21"><path d="M316.61 91.206a9.83 9.83 0 0 1 9.827-9.827h9.827v19.654h-9.827a9.83 9.83 0 0 1-9.827-9.827z" fill="url(#BG)"/></mask><g mask="url(#f)" class="B"><use xlink:href="#CJ" x="83.604" class="C D"/><use xlink:href="#CJ" x="83.604" fill="url(#BH)"/></g><mask id="g" mask-type="alpha" maskUnits="userSpaceOnUse" x="93" y="55" width="21" height="20"><path d="M93.666 64.866a9.83 9.83 0 0 1 9.827-9.827h9.827v19.654h-9.827a9.83 9.83 0 0 1-9.827-9.827z" fill="url(#BI)"/></mask><g mask="url(#g)" class="B"><use xlink:href="#CM" class="C D"/><use xlink:href="#CM" fill="url(#BJ)"/></g><mask id="h" mask-type="alpha" maskUnits="userSpaceOnUse" x="93" y="81" width="21" height="21"><path d="M93.666 91.206a9.83 9.83 0 0 1 9.827-9.827h9.827v19.654h-9.827a9.83 9.83 0 0 1-9.827-9.827z" fill="url(#BK)"/></mask><g mask="url(#h)" class="B"><use xlink:href="#CN" class="C D"/><use xlink:href="#CN" fill="url(#BL)"/></g><mask id="i" mask-type="alpha" maskUnits="userSpaceOnUse" x="260" y="55" width="21" height="20"><path d="M260.874 64.866a9.83 9.83 0 0 1 9.827-9.827h9.827v19.654h-9.827a9.83 9.83 0 0 1-9.827-9.827z" fill="url(#BM)"/></mask><g mask="url(#i)" class="B"><use xlink:href="#CI" x="27.868" class="C D"/><use xlink:href="#CI" x="27.868" fill="url(#BF)"/></g><mask id="j" mask-type="alpha" maskUnits="userSpaceOnUse" x="260" y="81" width="21" height="21"><path d="M260.874 91.206a9.83 9.83 0 0 1 9.827-9.827h9.827v19.654h-9.827a9.83 9.83 0 0 1-9.827-9.827z" fill="url(#BN)"/></mask><g mask="url(#j)" class="B"><use xlink:href="#CJ" x="27.868" class="C D"/><use xlink:href="#CJ" x="27.868" fill="url(#BH)"/></g><mask id="k" mask-type="alpha" maskUnits="userSpaceOnUse" x="177" y="55" width="20" height="20"><path d="M177.27 64.866a9.83 9.83 0 0 1 9.827-9.827h9.827v19.654h-9.827a9.83 9.83 0 0 1-9.827-9.827z" fill="url(#BO)"/></mask><g mask="url(#k)" class="B"><use xlink:href="#CI" x="-55.736" class="C D"/><use xlink:href="#CI" x="-55.736" fill="url(#BF)"/></g><mask id="l" mask-type="alpha" maskUnits="userSpaceOnUse" x="177" y="81" width="20" height="21"><path d="M177.27 91.206a9.83 9.83 0 0 1 9.827-9.827h9.827v19.654h-9.827a9.83 9.83 0 0 1-9.827-9.827z" fill="url(#BP)"/></mask><g mask="url(#l)" class="B"><use xlink:href="#CJ" x="-55.736" class="C D"/><use xlink:href="#CJ" x="-55.736" fill="url(#BH)"/></g><mask id="m" mask-type="alpha" maskUnits="userSpaceOnUse" x="344" y="55" width="21" height="20"><path d="M344.478 64.866a9.83 9.83 0 0 1 9.827-9.827h9.827v19.654h-9.827a9.83 9.83 0 0 1-9.827-9.827z" fill="url(#BQ)"/></mask><g mask="url(#m)" class="B"><use xlink:href="#CI" x="111.472" class="C D"/><use xlink:href="#CI" x="111.472" fill="url(#BF)"/></g><mask id="n" mask-type="alpha" maskUnits="userSpaceOnUse" x="344" y="81" width="21" height="21"><path d="M344.478 91.206a9.83 9.83 0 0 1 9.827-9.827h9.827v19.654h-9.827a9.83 9.83 0 0 1-9.827-9.827z" fill="url(#BR)"/></mask><g mask="url(#n)" class="B"><use xlink:href="#CJ" x="111.472" class="C D"/><use xlink:href="#CJ" x="111.472" fill="url(#BH)"/></g><mask id="o" mask-type="alpha" maskUnits="userSpaceOnUse" x="121" y="55" width="21" height="20"><path d="M121.534 64.866a9.83 9.83 0 0 1 9.827-9.827h9.827v19.654h-9.827a9.83 9.83 0 0 1-9.827-9.827z" fill="url(#BS)"/></mask><g mask="url(#o)" class="B"><use xlink:href="#CK" x="-27.868" class="C D"/><use xlink:href="#CK" x="-27.868" fill="url(#BB)"/></g><mask id="p" mask-type="alpha" maskUnits="userSpaceOnUse" x="121" y="81" width="21" height="21"><path d="M121.534 91.206a9.83 9.83 0 0 1 9.827-9.827h9.827v19.654h-9.827a9.83 9.83 0 0 1-9.827-9.827z" fill="url(#BT)"/></mask><g mask="url(#p)" class="B"><use xlink:href="#CL" x="-27.868" class="C D"/><use xlink:href="#CL" x="-27.868" fill="url(#BD)"/></g><mask id="q" mask-type="alpha" maskUnits="userSpaceOnUse" x="288" y="55" width="21" height="20"><path d="M288.742 64.866a9.83 9.83 0 0 1 9.827-9.827h9.827v19.654h-9.827a9.83 9.83 0 0 1-9.827-9.827z" fill="url(#BU)"/></mask><g mask="url(#q)" class="B"><use xlink:href="#CI" x="55.736" class="C D"/><use xlink:href="#CI" x="55.736" fill="url(#BF)"/></g><mask id="r" mask-type="alpha" maskUnits="userSpaceOnUse" x="288" y="81" width="21" height="21"><path d="M288.742 91.206a9.83 9.83 0 0 1 9.827-9.827h9.827v19.654h-9.827a9.83 9.83 0 0 1-9.827-9.827z" fill="url(#BV)"/></mask><g mask="url(#r)" class="B"><use xlink:href="#CJ" x="55.736" class="C D"/><use xlink:href="#CJ" x="55.736" fill="url(#BH)"/></g><mask id="s" mask-type="alpha" maskUnits="userSpaceOnUse" x="205" y="55" width="20" height="20"><path d="M205.138 64.866a9.83 9.83 0 0 1 9.827-9.827h9.827v19.654h-9.827a9.83 9.83 0 0 1-9.827-9.827z" fill="url(#BW)"/></mask><g mask="url(#s)" class="B"><use xlink:href="#CI" x="-27.868" class="C D"/><use xlink:href="#CI" x="-27.868" fill="url(#Ax)"/></g><mask id="t" mask-type="alpha" maskUnits="userSpaceOnUse" x="205" y="81" width="20" height="21"><path d="M205.138 91.206a9.83 9.83 0 0 1 9.827-9.827h9.827v19.654h-9.827a9.83 9.83 0 0 1-9.827-9.827z" fill="url(#BX)"/></mask><g mask="url(#t)" class="B"><use xlink:href="#CJ" x="-27.868" class="C D"/><use xlink:href="#CJ" x="-27.868" fill="url(#Az)"/></g><mask id="u" mask-type="alpha" maskUnits="userSpaceOnUse" x="372" y="55" width="20" height="20"><path d="M372.346 64.866a9.83 9.83 0 0 1 9.827-9.827H392v19.654h-9.827a9.83 9.83 0 0 1-9.827-9.827z" fill="url(#BY)"/></mask><g mask="url(#u)" class="B"><use xlink:href="#CO" class="C D"/><use xlink:href="#CO" fill="url(#BZ)"/></g><mask id="v" mask-type="alpha" maskUnits="userSpaceOnUse" x="372" y="81" width="20" height="21"><path d="M372.346 91.206a9.83 9.83 0 0 1 9.827-9.827H392v19.654h-9.827a9.83 9.83 0 0 1-9.827-9.827z" fill="url(#Ba)"/></mask><g mask="url(#v)" class="B"><use xlink:href="#CP" class="C D"/><use xlink:href="#CP" fill="url(#Bb)"/></g><mask id="w" mask-type="alpha" maskUnits="userSpaceOnUse" x="-18" y="0" width="20" height="21"><path d="M-17.806 10.612A9.83 9.83 0 0 1-7.979.785h9.827v19.654h-9.827a9.83 9.83 0 0 1-9.827-9.827z" fill="url(#Bc)"/></mask><g mask="url(#w)" class="B"><use xlink:href="#CQ" class="C D"/><use xlink:href="#CQ" fill="url(#Bd)"/></g><mask id="x" mask-type="alpha" maskUnits="userSpaceOnUse" x="-18" y="27" width="20" height="20"><path d="M-17.806 36.952a9.83 9.83 0 0 1 9.827-9.827h9.827v19.654h-9.827a9.83 9.83 0 0 1-9.827-9.827z" fill="url(#Be)"/></mask><g mask="url(#x)" class="B"><use xlink:href="#CR" class="C D"/><use xlink:href="#CR" fill="url(#Bf)"/></g><mask id="y" mask-type="alpha" maskUnits="userSpaceOnUse" x="10" y="0" width="20" height="21"><path d="M10.062 10.612A9.83 9.83 0 0 1 19.889.785h9.827v19.654h-9.827a9.83 9.83 0 0 1-9.827-9.827z" fill="url(#Bg)"/></mask><g mask="url(#y)" class="B"><use xlink:href="#CS" class="C D"/><use xlink:href="#CS" fill="url(#Bh)"/></g><mask id="z" mask-type="alpha" maskUnits="userSpaceOnUse" x="10" y="27" width="20" height="20"><path d="M10.062 36.952a9.83 9.83 0 0 1 9.827-9.827h9.827v19.654h-9.827a9.83 9.83 0 0 1-9.827-9.827z" fill="url(#Bi)"/></mask><g mask="url(#z)" class="B"><use xlink:href="#CT" class="C D"/><use xlink:href="#CT" fill="url(#Bj)"/></g><mask id="AA" mask-type="alpha" maskUnits="userSpaceOnUse" x="37" y="0" width="21" height="21"><path d="M37.93 10.612A9.83 9.83 0 0 1 47.757.785h9.827v19.654h-9.827a9.83 9.83 0 0 1-9.827-9.827z" fill="url(#Bk)"/></mask><g mask="url(#AA)" class="B"><use xlink:href="#Bw" x="-27.868" class="C D"/><use xlink:href="#Bw" x="-27.868" fill="url(#AJ)"/></g><mask id="AB" mask-type="alpha" maskUnits="userSpaceOnUse" x="37" y="27" width="21" height="20"><path d="M37.93 36.952a9.83 9.83 0 0 1 9.827-9.827h9.827v19.654h-9.827a9.83 9.83 0 0 1-9.827-9.827z" fill="url(#Bl)"/></mask><g mask="url(#AB)" class="B"><use xlink:href="#Bx" x="-27.868" class="C D"/><use xlink:href="#Bx" x="-27.868" fill="url(#AL)"/></g><mask id="AC" mask-type="alpha" maskUnits="userSpaceOnUse" x="-18" y="55" width="20" height="20"><path d="M-17.806 64.866a9.83 9.83 0 0 1 9.827-9.827h9.827v19.654h-9.827a9.83 9.83 0 0 1-9.827-9.827z" fill="url(#Bm)"/></mask><g mask="url(#AC)" class="B"><use xlink:href="#CU" class="C D"/><use xlink:href="#CU" fill="url(#Bn)"/></g><mask id="AD" mask-type="alpha" maskUnits="userSpaceOnUse" x="-18" y="81" width="20" height="21"><path d="M-17.806 91.206a9.83 9.83 0 0 1 9.827-9.827h9.827v19.654h-9.827a9.83 9.83 0 0 1-9.827-9.827z" fill="url(#Bo)"/></mask><g mask="url(#AD)" class="B"><use xlink:href="#CV" class="C D"/><use xlink:href="#CV" fill="url(#Bp)"/></g><mask id="AE" mask-type="alpha" maskUnits="userSpaceOnUse" x="10" y="55" width="20" height="20"><path d="M10.062 64.866a9.83 9.83 0 0 1 9.827-9.827h9.827v19.654h-9.827a9.83 9.83 0 0 1-9.827-9.827z" fill="url(#Bq)"/></mask><g mask="url(#AE)" class="B"><use xlink:href="#CW" class="C D"/><use xlink:href="#CW" fill="url(#Br)"/></g><mask id="AF" mask-type="alpha" maskUnits="userSpaceOnUse" x="10" y="81" width="20" height="21"><path d="M10.062 91.206a9.83 9.83 0 0 1 9.827-9.827h9.827v19.654h-9.827a9.83 9.83 0 0 1-9.827-9.827z" fill="url(#Bs)"/></mask><g mask="url(#AF)" class="B"><use xlink:href="#CX" class="C D"/><use xlink:href="#CX" fill="url(#Bt)"/></g><mask id="AG" mask-type="alpha" maskUnits="userSpaceOnUse" x="37" y="55" width="21" height="20"><path d="M37.93 64.866a9.83 9.83 0 0 1 9.827-9.827h9.827v19.654h-9.827a9.83 9.83 0 0 1-9.827-9.827z" fill="url(#Bu)"/></mask><g mask="url(#AG)" class="B"><use xlink:href="#CG" x="-27.868" class="C D"/><use xlink:href="#CG" x="-27.868" fill="url(#At)"/></g><mask id="AH" mask-type="alpha" maskUnits="userSpaceOnUse" x="37" y="81" width="21" height="21"><path d="M37.93 91.206a9.83 9.83 0 0 1 9.827-9.827h9.827v19.654h-9.827a9.83 9.83 0 0 1-9.827-9.827z" fill="url(#Bv)"/></mask><g mask="url(#AH)" class="B"><use xlink:href="#CH" x="-27.868" class="C D"/><use xlink:href="#CH" x="-27.868" fill="url(#Av)"/></g></g><defs><linearGradient id="AI" x1="75.625" y1=".785" x2="75.625" y2="20.439" xlink:href="#CY"><stop stop-color="#066d66"/><stop offset="1" stop-color="#004945"/></linearGradient><linearGradient id="AJ" x1="85.794" y1="7.367" x2="72.197" y2="20.439" xlink:href="#CY"><stop stop-color="#3ce888"/><stop offset="1" stop-color="#21bdd3"/></linearGradient><linearGradient id="AK" x1="75.625" y1="27.125" x2="75.625" y2="46.779" xlink:href="#CY"><stop stop-color="#066d66"/><stop offset="1" stop-color="#004945"/></linearGradient><linearGradient id="AL" x1="85.794" y1="33.707" x2="72.197" y2="46.779" xlink:href="#CY"><stop stop-color="#3ce888"/><stop offset="1" stop-color="#21bdd3"/></linearGradient><linearGradient id="AM" x1="242.833" y1=".785" x2="242.833" y2="20.439" xlink:href="#CY"><stop stop-color="#066d66"/><stop offset="1" stop-color="#004945"/></linearGradient><linearGradient id="AN" x1="253.002" y1="7.367" x2="239.405" y2="20.439" xlink:href="#CY"><stop stop-color="#3ce888"/><stop offset="1" stop-color="#21bdd3"/></linearGradient><linearGradient id="AO" x1="242.833" y1="27.125" x2="242.833" y2="46.779" xlink:href="#CY"><stop stop-color="#066d66"/><stop offset="1" stop-color="#004945"/></linearGradient><linearGradient id="AP" x1="253.002" y1="33.707" x2="239.405" y2="46.779" xlink:href="#CY"><stop stop-color="#3ce888"/><stop offset="1" stop-color="#21bdd3"/></linearGradient><linearGradient id="AQ" x1="159.229" y1=".785" x2="159.229" y2="20.439" xlink:href="#CY"><stop stop-color="#066d66"/><stop offset="1" stop-color="#004945"/></linearGradient><linearGradient id="AR" x1="169.398" y1="7.367" x2="155.801" y2="20.439" xlink:href="#CY"><stop stop-color="#3ce888"/><stop offset="1" stop-color="#21bdd3"/></linearGradient><linearGradient id="AS" x1="159.229" y1="27.125" x2="159.229" y2="46.779" xlink:href="#CY"><stop stop-color="#066d66"/><stop offset="1" stop-color="#004945"/></linearGradient><linearGradient id="AT" x1="169.398" y1="33.707" x2="155.801" y2="46.779" xlink:href="#CY"><stop stop-color="#3ce888"/><stop offset="1" stop-color="#21bdd3"/></linearGradient><linearGradient id="AU" x1="326.437" y1=".785" x2="326.437" y2="20.439" xlink:href="#CY"><stop stop-color="#066d66"/><stop offset="1" stop-color="#004945"/></linearGradient><linearGradient id="AV" x1="253.003" y1="7.367" x2="239.405" y2="20.439" xlink:href="#CY"><stop stop-color="#3ce888"/><stop offset="1" stop-color="#21bdd3"/></linearGradient><linearGradient id="AW" x1="326.437" y1="27.125" x2="326.437" y2="46.779" xlink:href="#CY"><stop stop-color="#066d66"/><stop offset="1" stop-color="#004945"/></linearGradient><linearGradient id="AX" x1="253.003" y1="33.707" x2="239.405" y2="46.779" xlink:href="#CY"><stop stop-color="#3ce888"/><stop offset="1" stop-color="#21bdd3"/></linearGradient><linearGradient id="AY" x1="103.493" y1=".785" x2="103.493" y2="20.439" xlink:href="#CY"><stop stop-color="#066d66"/><stop offset="1" stop-color="#004945"/></linearGradient><linearGradient id="AZ" x1="113.662" y1="7.367" x2="100.065" y2="20.439" xlink:href="#CY"><stop stop-color="#3ce888"/><stop offset="1" stop-color="#21bdd3"/></linearGradient><linearGradient id="Aa" x1="103.493" y1="27.125" x2="103.493" y2="46.779" xlink:href="#CY"><stop stop-color="#066d66"/><stop offset="1" stop-color="#004945"/></linearGradient><linearGradient id="Ab" x1="113.662" y1="33.707" x2="100.065" y2="46.779" xlink:href="#CY"><stop stop-color="#3ce888"/><stop offset="1" stop-color="#21bdd3"/></linearGradient><linearGradient id="Ac" x1="270.701" y1=".785" x2="270.701" y2="20.439" xlink:href="#CY"><stop stop-color="#066d66"/><stop offset="1" stop-color="#004945"/></linearGradient><linearGradient id="Ad" x1="270.701" y1="27.125" x2="270.701" y2="46.779" xlink:href="#CY"><stop stop-color="#066d66"/><stop offset="1" stop-color="#004945"/></linearGradient><linearGradient id="Ae" x1="187.097" y1=".785" x2="187.097" y2="20.439" xlink:href="#CY"><stop stop-color="#066d66"/><stop offset="1" stop-color="#004945"/></linearGradient><linearGradient id="Af" x1="187.097" y1="27.125" x2="187.097" y2="46.779" xlink:href="#CY"><stop stop-color="#066d66"/><stop offset="1" stop-color="#004945"/></linearGradient><linearGradient id="Ag" x1="354.305" y1=".785" x2="354.305" y2="20.439" xlink:href="#CY"><stop stop-color="#066d66"/><stop offset="1" stop-color="#004945"/></linearGradient><linearGradient id="Ah" x1="354.305" y1="27.125" x2="354.305" y2="46.779" xlink:href="#CY"><stop stop-color="#066d66"/><stop offset="1" stop-color="#004945"/></linearGradient><linearGradient id="Ai" x1="131.361" y1=".785" x2="131.361" y2="20.439" xlink:href="#CY"><stop stop-color="#066d66"/><stop offset="1" stop-color="#004945"/></linearGradient><linearGradient id="Aj" x1="131.361" y1="27.125" x2="131.361" y2="46.779" xlink:href="#CY"><stop stop-color="#066d66"/><stop offset="1" stop-color="#004945"/></linearGradient><linearGradient id="Ak" x1="298.569" y1=".785" x2="298.569" y2="20.439" xlink:href="#CY"><stop stop-color="#066d66"/><stop offset="1" stop-color="#004945"/></linearGradient><linearGradient id="Al" x1="298.569" y1="27.125" x2="298.569" y2="46.779" xlink:href="#CY"><stop stop-color="#066d66"/><stop offset="1" stop-color="#004945"/></linearGradient><linearGradient id="Am" x1="214.965" y1=".785" x2="214.965" y2="20.439" xlink:href="#CY"><stop stop-color="#066d66"/><stop offset="1" stop-color="#004945"/></linearGradient><linearGradient id="An" x1="214.965" y1="27.125" x2="214.965" y2="46.779" xlink:href="#CY"><stop stop-color="#066d66"/><stop offset="1" stop-color="#004945"/></linearGradient><linearGradient id="Ao" x1="382.173" y1=".785" x2="382.173" y2="20.439" xlink:href="#CY"><stop stop-color="#066d66"/><stop offset="1" stop-color="#004945"/></linearGradient><linearGradient id="Ap" x1="392.343" y1="7.367" x2="378.745" y2="20.439" xlink:href="#CY"><stop stop-color="#3ce888"/><stop offset="1" stop-color="#21bdd3"/></linearGradient><linearGradient id="Aq" x1="382.173" y1="27.125" x2="382.173" y2="46.779" xlink:href="#CY"><stop stop-color="#066d66"/><stop offset="1" stop-color="#004945"/></linearGradient><linearGradient id="Ar" x1="392.343" y1="33.707" x2="378.745" y2="46.779" xlink:href="#CY"><stop stop-color="#3ce888"/><stop offset="1" stop-color="#21bdd3"/></linearGradient><linearGradient id="As" x1="75.625" y1="55.039" x2="75.625" y2="74.693" xlink:href="#CY"><stop stop-color="#066d66"/><stop offset="1" stop-color="#004945"/></linearGradient><linearGradient id="At" x1="85.794" y1="61.621" x2="72.197" y2="74.693" xlink:href="#CY"><stop stop-color="#3ce888"/><stop offset="1" stop-color="#21bdd3"/></linearGradient><linearGradient id="Au" x1="75.625" y1="81.379" x2="75.625" y2="101.033" xlink:href="#CY"><stop stop-color="#066d66"/><stop offset="1" stop-color="#004945"/></linearGradient><linearGradient id="Av" x1="85.794" y1="87.96" x2="72.197" y2="101.033" xlink:href="#CY"><stop stop-color="#3ce888"/><stop offset="1" stop-color="#21bdd3"/></linearGradient><linearGradient id="Aw" x1="242.833" y1="55.039" x2="242.833" y2="74.693" xlink:href="#CY"><stop stop-color="#066d66"/><stop offset="1" stop-color="#004945"/></linearGradient><linearGradient id="Ax" x1="253.002" y1="61.621" x2="239.405" y2="74.693" xlink:href="#CY"><stop stop-color="#3ce888"/><stop offset="1" stop-color="#21bdd3"/></linearGradient><linearGradient id="Ay" x1="242.833" y1="81.379" x2="242.833" y2="101.033" xlink:href="#CY"><stop stop-color="#066d66"/><stop offset="1" stop-color="#004945"/></linearGradient><linearGradient id="Az" x1="253.002" y1="87.96" x2="239.405" y2="101.033" xlink:href="#CY"><stop stop-color="#3ce888"/><stop offset="1" stop-color="#21bdd3"/></linearGradient><linearGradient id="BA" x1="159.229" y1="55.039" x2="159.229" y2="74.693" xlink:href="#CY"><stop stop-color="#066d66"/><stop offset="1" stop-color="#004945"/></linearGradient><linearGradient id="BB" x1="169.398" y1="61.621" x2="155.801" y2="74.693" xlink:href="#CY"><stop stop-color="#3ce888"/><stop offset="1" stop-color="#21bdd3"/></linearGradient><linearGradient id="BC" x1="159.229" y1="81.379" x2="159.229" y2="101.033" xlink:href="#CY"><stop stop-color="#066d66"/><stop offset="1" stop-color="#004945"/></linearGradient><linearGradient id="BD" x1="169.398" y1="87.96" x2="155.801" y2="101.033" xlink:href="#CY"><stop stop-color="#3ce888"/><stop offset="1" stop-color="#21bdd3"/></linearGradient><linearGradient id="BE" x1="326.437" y1="55.039" x2="326.437" y2="74.693" xlink:href="#CY"><stop stop-color="#066d66"/><stop offset="1" stop-color="#004945"/></linearGradient><linearGradient id="BF" x1="253.003" y1="61.621" x2="239.405" y2="74.693" xlink:href="#CY"><stop stop-color="#3ce888"/><stop offset="1" stop-color="#21bdd3"/></linearGradient><linearGradient id="BG" x1="326.437" y1="81.379" x2="326.437" y2="101.033" xlink:href="#CY"><stop stop-color="#066d66"/><stop offset="1" stop-color="#004945"/></linearGradient><linearGradient id="BH" x1="253.003" y1="87.96" x2="239.405" y2="101.033" xlink:href="#CY"><stop stop-color="#3ce888"/><stop offset="1" stop-color="#21bdd3"/></linearGradient><linearGradient id="BI" x1="103.493" y1="55.039" x2="103.493" y2="74.693" xlink:href="#CY"><stop stop-color="#066d66"/><stop offset="1" stop-color="#004945"/></linearGradient><linearGradient id="BJ" x1="113.662" y1="61.621" x2="100.065" y2="74.693" xlink:href="#CY"><stop stop-color="#3ce888"/><stop offset="1" stop-color="#21bdd3"/></linearGradient><linearGradient id="BK" x1="103.493" y1="81.379" x2="103.493" y2="101.033" xlink:href="#CY"><stop stop-color="#066d66"/><stop offset="1" stop-color="#004945"/></linearGradient><linearGradient id="BL" x1="113.662" y1="87.96" x2="100.065" y2="101.033" xlink:href="#CY"><stop stop-color="#3ce888"/><stop offset="1" stop-color="#21bdd3"/></linearGradient><linearGradient id="BM" x1="270.701" y1="55.039" x2="270.701" y2="74.693" xlink:href="#CY"><stop stop-color="#066d66"/><stop offset="1" stop-color="#004945"/></linearGradient><linearGradient id="BN" x1="270.701" y1="81.379" x2="270.701" y2="101.033" xlink:href="#CY"><stop stop-color="#066d66"/><stop offset="1" stop-color="#004945"/></linearGradient><linearGradient id="BO" x1="187.097" y1="55.039" x2="187.097" y2="74.693" xlink:href="#CY"><stop stop-color="#066d66"/><stop offset="1" stop-color="#004945"/></linearGradient><linearGradient id="BP" x1="187.097" y1="81.379" x2="187.097" y2="101.033" xlink:href="#CY"><stop stop-color="#066d66"/><stop offset="1" stop-color="#004945"/></linearGradient><linearGradient id="BQ" x1="354.305" y1="55.039" x2="354.305" y2="74.693" xlink:href="#CY"><stop stop-color="#066d66"/><stop offset="1" stop-color="#004945"/></linearGradient><linearGradient id="BR" x1="354.305" y1="81.379" x2="354.305" y2="101.033" xlink:href="#CY"><stop stop-color="#066d66"/><stop offset="1" stop-color="#004945"/></linearGradient><linearGradient id="BS" x1="131.361" y1="55.039" x2="131.361" y2="74.693" xlink:href="#CY"><stop stop-color="#066d66"/><stop offset="1" stop-color="#004945"/></linearGradient><linearGradient id="BT" x1="131.361" y1="81.379" x2="131.361" y2="101.033" xlink:href="#CY"><stop stop-color="#066d66"/><stop offset="1" stop-color="#004945"/></linearGradient><linearGradient id="BU" x1="298.569" y1="55.039" x2="298.569" y2="74.693" xlink:href="#CY"><stop stop-color="#066d66"/><stop offset="1" stop-color="#004945"/></linearGradient><linearGradient id="BV" x1="298.569" y1="81.379" x2="298.569" y2="101.033" xlink:href="#CY"><stop stop-color="#066d66"/><stop offset="1" stop-color="#004945"/></linearGradient><linearGradient id="BW" x1="214.965" y1="55.039" x2="214.965" y2="74.693" xlink:href="#CY"><stop stop-color="#066d66"/><stop offset="1" stop-color="#004945"/></linearGradient><linearGradient id="BX" x1="214.965" y1="81.379" x2="214.965" y2="101.033" xlink:href="#CY"><stop stop-color="#066d66"/><stop offset="1" stop-color="#004945"/></linearGradient><linearGradient id="BY" x1="382.173" y1="55.039" x2="382.173" y2="74.693" xlink:href="#CY"><stop stop-color="#066d66"/><stop offset="1" stop-color="#004945"/></linearGradient><linearGradient id="BZ" x1="392.343" y1="61.621" x2="378.745" y2="74.693" xlink:href="#CY"><stop stop-color="#3ce888"/><stop offset="1" stop-color="#21bdd3"/></linearGradient><linearGradient id="Ba" x1="382.173" y1="81.379" x2="382.173" y2="101.033" xlink:href="#CY"><stop stop-color="#066d66"/><stop offset="1" stop-color="#004945"/></linearGradient><linearGradient id="Bb" x1="392.343" y1="87.96" x2="378.745" y2="101.033" xlink:href="#CY"><stop stop-color="#3ce888"/><stop offset="1" stop-color="#21bdd3"/></linearGradient><linearGradient id="Bc" x1="-7.979" y1=".785" x2="-7.979" y2="20.439" xlink:href="#CY"><stop stop-color="#066d66"/><stop offset="1" stop-color="#004945"/></linearGradient><linearGradient id="Bd" x1="2.19" y1="7.367" x2="-11.407" y2="20.439" xlink:href="#CY"><stop stop-color="#3ce888"/><stop offset="1" stop-color="#21bdd3"/></linearGradient><linearGradient id="Be" x1="-7.979" y1="27.125" x2="-7.979" y2="46.779" xlink:href="#CY"><stop stop-color="#066d66"/><stop offset="1" stop-color="#004945"/></linearGradient><linearGradient id="Bf" x1="2.19" y1="33.707" x2="-11.407" y2="46.779" xlink:href="#CY"><stop stop-color="#3ce888"/><stop offset="1" stop-color="#21bdd3"/></linearGradient><linearGradient id="Bg" x1="19.889" y1=".785" x2="19.889" y2="20.439" xlink:href="#CY"><stop stop-color="#066d66"/><stop offset="1" stop-color="#004945"/></linearGradient><linearGradient id="Bh" x1="30.058" y1="7.367" x2="16.461" y2="20.439" xlink:href="#CY"><stop stop-color="#3ce888"/><stop offset="1" stop-color="#21bdd3"/></linearGradient><linearGradient id="Bi" x1="19.889" y1="27.125" x2="19.889" y2="46.779" xlink:href="#CY"><stop stop-color="#066d66"/><stop offset="1" stop-color="#004945"/></linearGradient><linearGradient id="Bj" x1="30.058" y1="33.707" x2="16.461" y2="46.779" xlink:href="#CY"><stop stop-color="#3ce888"/><stop offset="1" stop-color="#21bdd3"/></linearGradient><linearGradient id="Bk" x1="47.757" y1=".785" x2="47.757" y2="20.439" xlink:href="#CY"><stop stop-color="#066d66"/><stop offset="1" stop-color="#004945"/></linearGradient><linearGradient id="Bl" x1="47.757" y1="27.125" x2="47.757" y2="46.779" xlink:href="#CY"><stop stop-color="#066d66"/><stop offset="1" stop-color="#004945"/></linearGradient><linearGradient id="Bm" x1="-7.979" y1="55.039" x2="-7.979" y2="74.693" xlink:href="#CY"><stop stop-color="#066d66"/><stop offset="1" stop-color="#004945"/></linearGradient><linearGradient id="Bn" x1="2.19" y1="61.621" x2="-11.407" y2="74.693" xlink:href="#CY"><stop stop-color="#3ce888"/><stop offset="1" stop-color="#21bdd3"/></linearGradient><linearGradient id="Bo" x1="-7.979" y1="81.379" x2="-7.979" y2="101.033" xlink:href="#CY"><stop stop-color="#066d66"/><stop offset="1" stop-color="#004945"/></linearGradient><linearGradient id="Bp" x1="2.19" y1="87.96" x2="-11.407" y2="101.033" xlink:href="#CY"><stop stop-color="#3ce888"/><stop offset="1" stop-color="#21bdd3"/></linearGradient><linearGradient id="Bq" x1="19.889" y1="55.039" x2="19.889" y2="74.693" xlink:href="#CY"><stop stop-color="#066d66"/><stop offset="1" stop-color="#004945"/></linearGradient><linearGradient id="Br" x1="30.058" y1="61.621" x2="16.461" y2="74.693" xlink:href="#CY"><stop stop-color="#3ce888"/><stop offset="1" stop-color="#21bdd3"/></linearGradient><linearGradient id="Bs" x1="19.889" y1="81.379" x2="19.889" y2="101.033" xlink:href="#CY"><stop stop-color="#066d66"/><stop offset="1" stop-color="#004945"/></linearGradient><linearGradient id="Bt" x1="30.058" y1="87.96" x2="16.461" y2="101.033" xlink:href="#CY"><stop stop-color="#3ce888"/><stop offset="1" stop-color="#21bdd3"/></linearGradient><linearGradient id="Bu" x1="47.757" y1="55.039" x2="47.757" y2="74.693" xlink:href="#CY"><stop stop-color="#066d66"/><stop offset="1" stop-color="#004945"/></linearGradient><linearGradient id="Bv" x1="47.757" y1="81.379" x2="47.757" y2="101.033" xlink:href="#CY"><stop stop-color="#066d66"/><stop offset="1" stop-color="#004945"/></linearGradient><path id="Bw" d="M74.466 7.084h11.086v11.041h-3.286v-5.432l-8.908 8.908-2.324-2.324 8.908-8.908h-5.476V7.084z"/><path id="Bx" d="M74.466 33.423h11.086v11.041h-3.286v-5.432l-8.908 8.907-2.324-2.324 8.908-8.907h-5.476v-3.286z"/><path id="By" d="M241.675 7.084h11.085v11.041h-3.286v-5.432l-8.907 8.908-2.324-2.324 8.908-8.908h-5.476V7.084z"/><path id="Bz" d="M241.675 33.423h11.085v11.041h-3.286v-5.432l-8.907 8.907-2.324-2.324 8.908-8.907h-5.476v-3.286z"/><path id="CA" d="M158.071 7.084h11.085v11.041h-3.286v-5.432l-8.908 8.908-2.323-2.324 8.907-8.908h-5.475V7.084z"/><path id="CB" d="M158.071 33.423h11.085v11.041h-3.286v-5.432l-8.908 8.907-2.323-2.324 8.907-8.907h-5.475v-3.286z"/><path id="CC" d="M102.334 7.084h11.086v11.041h-3.286v-5.432l-8.908 8.908-2.323-2.324 8.907-8.908h-5.476V7.084z"/><path id="CD" d="M102.334 33.423h11.086v11.041h-3.286v-5.432l-8.908 8.907-2.323-2.324 8.907-8.907h-5.476v-3.286z"/><path id="CE" d="M381.015 7.084H392.1v11.041h-3.286v-5.432l-8.907 8.908-2.324-2.324 8.908-8.908h-5.476V7.084z"/><path id="CF" d="M381.015 33.423H392.1v11.041h-3.286v-5.432l-8.907 8.907-2.324-2.324 8.908-8.907h-5.476v-3.286z"/><path id="CG" d="M74.466 61.337h11.086v11.041h-3.286v-5.432l-8.908 8.908-2.324-2.324 8.908-8.908h-5.476v-3.286z"/><path id="CH" d="M74.466 87.677h11.086v11.041h-3.286v-5.432l-8.908 8.907-2.324-2.323 8.908-8.908h-5.476v-3.286z"/><path id="CI" d="M241.675 61.337h11.085v11.041h-3.286v-5.432l-8.907 8.908-2.324-2.324 8.908-8.908h-5.476v-3.286z"/><path id="CJ" d="M241.675 87.677h11.085v11.041h-3.286v-5.432l-8.907 8.907-2.324-2.323 8.908-8.908h-5.476v-3.286z"/><path id="CK" d="M158.071 61.337h11.085v11.041h-3.286v-5.432l-8.908 8.908-2.323-2.324 8.907-8.908h-5.475v-3.286z"/><path id="CL" d="M158.071 87.677h11.085v11.041h-3.286v-5.432l-8.908 8.907-2.323-2.323 8.907-8.908h-5.475v-3.286z"/><path id="CM" d="M102.334 61.337h11.086v11.041h-3.286v-5.432l-8.908 8.908-2.323-2.324 8.907-8.908h-5.476v-3.286z"/><path id="CN" d="M102.334 87.677h11.086v11.041h-3.286v-5.432l-8.908 8.907-2.323-2.323 8.907-8.908h-5.476v-3.286z"/><path id="CO" d="M381.015 61.337H392.1v11.041h-3.286v-5.432l-8.907 8.908-2.324-2.324 8.908-8.908h-5.476v-3.286z"/><path id="CP" d="M381.015 87.677H392.1v11.041h-3.286v-5.432l-8.907 8.907-2.324-2.323 8.908-8.908h-5.476v-3.286z"/><path id="CQ" d="M-9.138 7.084H1.948v11.041h-3.286v-5.432l-8.908 8.908-2.324-2.324 8.908-8.908h-5.476V7.084z"/><path id="CR" d="M-9.138 33.423H1.948v11.041h-3.286v-5.432l-8.908 8.907-2.324-2.324 8.908-8.907h-5.476v-3.286z"/><path id="CS" d="M18.73 7.084h11.086v11.041H26.53v-5.432l-8.908 8.908-2.324-2.324 8.908-8.908H18.73V7.084z"/><path id="CT" d="M18.73 33.423h11.086v11.041H26.53v-5.432l-8.908 8.907-2.324-2.324 8.908-8.907H18.73v-3.286z"/><path id="CU" d="M-9.138 61.337H1.948v11.041h-3.286v-5.432l-8.908 8.908-2.324-2.324 8.908-8.908h-5.476v-3.286z"/><path id="CV" d="M-9.138 87.677H1.948v11.041h-3.286v-5.432l-8.908 8.907-2.324-2.323 8.908-8.908h-5.476v-3.286z"/><path id="CW" d="M18.73 61.337h11.086v11.041H26.53v-5.432l-8.908 8.908-2.324-2.324 8.908-8.908H18.73v-3.286z"/><path id="CX" d="M18.73 87.677h11.086v11.041H26.53v-5.432l-8.908 8.907-2.324-2.323 8.908-8.908H18.73v-3.286z"/><linearGradient id="CY" gradientUnits="userSpaceOnUse"/></defs></svg>