<svg xmlns="http://www.w3.org/2000/svg" xmlns:xlink="http://www.w3.org/1999/xlink" width="156" height="101" fill="none" xmlns:v="https://vecta.io/nano"><style><![CDATA[.B{fill-rule:evenodd}.C{fill:#000}.D{fill-opacity:.3}]]></style><g opacity=".3"><mask id="A" mask-type="alpha" maskUnits="userSpaceOnUse" x="0" y="0" width="20" height="20"><path d="M.306 10.023A9.83 9.83 0 0 1 10.133.196h9.827V19.85h-9.827a9.83 9.83 0 0 1-9.827-9.827z" fill="url(#Y)"/></mask><g mask="url(#A)" class="B"><use xlink:href="#AU" class="C D"/><use xlink:href="#AU" fill="url(#Z)"/></g><mask id="B" mask-type="alpha" maskUnits="userSpaceOnUse" x="0" y="26" width="20" height="21"><path d="M.306 36.362a9.83 9.83 0 0 1 9.827-9.827h9.827v19.654h-9.827a9.83 9.83 0 0 1-9.827-9.827z" fill="url(#a)"/></mask><g mask="url(#B)" class="B"><use xlink:href="#AV" class="C D"/><use xlink:href="#AV" fill="url(#b)"/></g><mask id="C" mask-type="alpha" maskUnits="userSpaceOnUse" x="83" y="0" width="21" height="20"><path d="M83.91 10.023A9.83 9.83 0 0 1 93.737.196h9.826V19.85h-9.826a9.83 9.83 0 0 1-9.827-9.827z" fill="url(#c)"/></mask><g mask="url(#C)" class="B"><use xlink:href="#AW" class="C D"/><use xlink:href="#AW" fill="url(#d)"/></g><mask id="D" mask-type="alpha" maskUnits="userSpaceOnUse" x="83" y="26" width="21" height="21"><path d="M83.91 36.362a9.83 9.83 0 0 1 9.827-9.827h9.826v19.654h-9.826a9.83 9.83 0 0 1-9.827-9.827z" fill="url(#e)"/></mask><g mask="url(#D)" class="B"><use xlink:href="#AX" class="C D"/><use xlink:href="#AX" fill="url(#f)"/></g><mask id="E" mask-type="alpha" maskUnits="userSpaceOnUse" x="28" y="0" width="20" height="20"><path d="M28.174 10.023A9.83 9.83 0 0 1 38.001.196h9.827V19.85h-9.827a9.83 9.83 0 0 1-9.827-9.827z" fill="url(#g)"/></mask><g mask="url(#E)" class="B"><use xlink:href="#AW" x="-55.735" class="C D"/><use xlink:href="#AW" x="-55.735" fill="url(#h)"/></g><mask id="F" mask-type="alpha" maskUnits="userSpaceOnUse" x="28" y="26" width="20" height="21"><path d="M28.174 36.362a9.83 9.83 0 0 1 9.827-9.827h9.827v19.654h-9.827a9.83 9.83 0 0 1-9.827-9.827z" fill="url(#i)"/></mask><g mask="url(#F)" class="B"><use xlink:href="#AX" x="-55.735" class="C D"/><use xlink:href="#AX" x="-55.735" fill="url(#j)"/></g><mask id="G" mask-type="alpha" maskUnits="userSpaceOnUse" x="111" y="0" width="21" height="20"><path d="M111.778 10.023a9.83 9.83 0 0 1 9.827-9.827h9.827V19.85h-9.827a9.83 9.83 0 0 1-9.827-9.827z" fill="url(#k)"/></mask><g mask="url(#G)" class="B"><use xlink:href="#AY" class="C D"/><use xlink:href="#AY" fill="url(#l)"/></g><mask id="H" mask-type="alpha" maskUnits="userSpaceOnUse" x="111" y="26" width="21" height="21"><path d="M111.778 36.362a9.83 9.83 0 0 1 9.827-9.827h9.827v19.654h-9.827a9.83 9.83 0 0 1-9.827-9.827z" fill="url(#m)"/></mask><g mask="url(#H)" class="B"><use xlink:href="#AZ" class="C D"/><use xlink:href="#AZ" fill="url(#n)"/></g><mask id="I" mask-type="alpha" maskUnits="userSpaceOnUse" x="56" y="0" width="20" height="20"><path d="M56.042 10.023A9.83 9.83 0 0 1 65.869.196h9.827V19.85h-9.827a9.83 9.83 0 0 1-9.827-9.827z" fill="url(#o)"/></mask><g mask="url(#I)" class="B"><use xlink:href="#Aa" class="C D"/><use xlink:href="#Aa" fill="url(#p)"/></g><mask id="J" mask-type="alpha" maskUnits="userSpaceOnUse" x="56" y="26" width="20" height="21"><path d="M56.042 36.362a9.83 9.83 0 0 1 9.827-9.827h9.827v19.654h-9.827a9.83 9.83 0 0 1-9.827-9.827z" fill="url(#q)"/></mask><g mask="url(#J)" class="B"><use xlink:href="#Ab" class="C D"/><use xlink:href="#Ab" fill="url(#r)"/></g><mask id="K" mask-type="alpha" maskUnits="userSpaceOnUse" x="139" y="0" width="21" height="20"><path d="M139.646 10.023a9.83 9.83 0 0 1 9.827-9.827h9.827V19.85h-9.827a9.83 9.83 0 0 1-9.827-9.827z" fill="url(#s)"/></mask><g mask="url(#K)" class="B"><use xlink:href="#Ac" class="C D"/><use xlink:href="#Ac" fill="url(#t)"/></g><mask id="L" mask-type="alpha" maskUnits="userSpaceOnUse" x="139" y="26" width="21" height="21"><path d="M139.646 36.362a9.83 9.83 0 0 1 9.827-9.827h9.827v19.654h-9.827a9.83 9.83 0 0 1-9.827-9.827z" fill="url(#u)"/></mask><g mask="url(#L)" class="B"><use xlink:href="#Ad" class="C D"/><use xlink:href="#Ad" fill="url(#v)"/></g><mask id="M" mask-type="alpha" maskUnits="userSpaceOnUse" x="0" y="54" width="20" height="21"><path d="M.306 64.277a9.83 9.83 0 0 1 9.827-9.827h9.827v19.654h-9.827a9.83 9.83 0 0 1-9.827-9.827z" fill="url(#w)"/></mask><g mask="url(#M)" class="B"><use xlink:href="#Ae" class="C D"/><use xlink:href="#Ae" fill="url(#x)"/></g><mask id="N" mask-type="alpha" maskUnits="userSpaceOnUse" x="0" y="80" width="20" height="21"><path d="M.306 90.616a9.83 9.83 0 0 1 9.827-9.827h9.827v19.654h-9.827a9.83 9.83 0 0 1-9.827-9.827z" fill="url(#y)"/></mask><g mask="url(#N)" class="B"><use xlink:href="#Af" class="C D"/><use xlink:href="#Af" fill="url(#z)"/></g><mask id="O" mask-type="alpha" maskUnits="userSpaceOnUse" x="83" y="54" width="21" height="21"><path d="M83.91 64.277a9.83 9.83 0 0 1 9.827-9.827h9.826v19.654h-9.826a9.83 9.83 0 0 1-9.827-9.827z" fill="url(#AA)"/></mask><g mask="url(#O)" class="B"><use xlink:href="#Ag" class="C D"/><use xlink:href="#Ag" fill="url(#AB)"/></g><mask id="P" mask-type="alpha" maskUnits="userSpaceOnUse" x="83" y="80" width="21" height="21"><path d="M83.91 90.616a9.83 9.83 0 0 1 9.827-9.827h9.826v19.654h-9.826a9.83 9.83 0 0 1-9.827-9.827z" fill="url(#AC)"/></mask><g mask="url(#P)" class="B"><use xlink:href="#Ah" class="C D"/><use xlink:href="#Ah" fill="url(#AD)"/></g><mask id="Q" mask-type="alpha" maskUnits="userSpaceOnUse" x="28" y="54" width="20" height="21"><path d="M28.174 64.277a9.83 9.83 0 0 1 9.827-9.827h9.827v19.654h-9.827a9.83 9.83 0 0 1-9.827-9.827z" fill="url(#AE)"/></mask><g mask="url(#Q)" class="B"><use xlink:href="#Ag" x="-55.735" class="C D"/><use xlink:href="#Ag" x="-55.735" fill="url(#AF)"/></g><mask id="R" mask-type="alpha" maskUnits="userSpaceOnUse" x="28" y="80" width="20" height="21"><path d="M28.174 90.616a9.83 9.83 0 0 1 9.827-9.827h9.827v19.654h-9.827a9.83 9.83 0 0 1-9.827-9.827z" fill="url(#AG)"/></mask><g mask="url(#R)" class="B"><use xlink:href="#Ah" x="-55.735" class="C D"/><use xlink:href="#Ah" x="-55.735" fill="url(#AH)"/></g><mask id="S" mask-type="alpha" maskUnits="userSpaceOnUse" x="111" y="54" width="21" height="21"><path d="M111.778 64.277a9.83 9.83 0 0 1 9.827-9.827h9.827v19.654h-9.827a9.83 9.83 0 0 1-9.827-9.827z" fill="url(#AI)"/></mask><g mask="url(#S)" class="B"><use xlink:href="#Ai" class="C D"/><use xlink:href="#Ai" fill="url(#AJ)"/></g><mask id="T" mask-type="alpha" maskUnits="userSpaceOnUse" x="111" y="80" width="21" height="21"><path d="M111.778 90.616a9.83 9.83 0 0 1 9.827-9.827h9.827v19.654h-9.827a9.83 9.83 0 0 1-9.827-9.827z" fill="url(#AK)"/></mask><g mask="url(#T)" class="B"><use xlink:href="#Aj" class="C D"/><use xlink:href="#Aj" fill="url(#AL)"/></g><mask id="U" mask-type="alpha" maskUnits="userSpaceOnUse" x="56" y="54" width="20" height="21"><path d="M56.042 64.277a9.83 9.83 0 0 1 9.827-9.827h9.827v19.654h-9.827a9.83 9.83 0 0 1-9.827-9.827z" fill="url(#AM)"/></mask><g mask="url(#U)" class="B"><use xlink:href="#Ak" class="C D"/><use xlink:href="#Ak" fill="url(#AN)"/></g><mask id="V" mask-type="alpha" maskUnits="userSpaceOnUse" x="56" y="80" width="20" height="21"><path d="M56.042 90.616a9.83 9.83 0 0 1 9.827-9.827h9.827v19.654h-9.827a9.83 9.83 0 0 1-9.827-9.827z" fill="url(#AO)"/></mask><g mask="url(#V)" class="B"><use xlink:href="#Al" class="C D"/><use xlink:href="#Al" fill="url(#AP)"/></g><mask id="W" mask-type="alpha" maskUnits="userSpaceOnUse" x="139" y="54" width="21" height="21"><path d="M139.646 64.277a9.83 9.83 0 0 1 9.827-9.827h9.827v19.654h-9.827a9.83 9.83 0 0 1-9.827-9.827z" fill="url(#AQ)"/></mask><g mask="url(#W)" class="B"><use xlink:href="#Am" class="C D"/><use xlink:href="#Am" fill="url(#AR)"/></g><mask id="X" mask-type="alpha" maskUnits="userSpaceOnUse" x="139" y="80" width="21" height="21"><path d="M139.646 90.616a9.83 9.83 0 0 1 9.827-9.827h9.827v19.654h-9.827a9.83 9.83 0 0 1-9.827-9.827z" fill="url(#AS)"/></mask><g mask="url(#X)" class="B"><use xlink:href="#An" class="C D"/><use xlink:href="#An" fill="url(#AT)"/></g></g><defs><linearGradient id="Y" x1="10.133" y1=".196" x2="10.133" y2="19.85" xlink:href="#Ao"><stop stop-color="#066d66"/><stop offset="1" stop-color="#004945"/></linearGradient><linearGradient id="Z" x1="20.302" y1="6.777" x2="6.705" y2="19.85" xlink:href="#Ao"><stop stop-color="#3ce888"/><stop offset="1" stop-color="#21bdd3"/></linearGradient><linearGradient id="a" x1="10.133" y1="26.536" x2="10.133" y2="46.189" xlink:href="#Ao"><stop stop-color="#066d66"/><stop offset="1" stop-color="#004945"/></linearGradient><linearGradient id="b" x1="20.302" y1="33.117" x2="6.705" y2="46.189" xlink:href="#Ao"><stop stop-color="#3ce888"/><stop offset="1" stop-color="#21bdd3"/></linearGradient><linearGradient id="c" x1="93.737" y1=".196" x2="93.737" y2="19.85" xlink:href="#Ao"><stop stop-color="#066d66"/><stop offset="1" stop-color="#004945"/></linearGradient><linearGradient id="d" x1="103.906" y1="6.777" x2="90.309" y2="19.85" xlink:href="#Ao"><stop stop-color="#3ce888"/><stop offset="1" stop-color="#21bdd3"/></linearGradient><linearGradient id="e" x1="93.737" y1="26.536" x2="93.737" y2="46.189" xlink:href="#Ao"><stop stop-color="#066d66"/><stop offset="1" stop-color="#004945"/></linearGradient><linearGradient id="f" x1="103.906" y1="33.117" x2="90.309" y2="46.189" xlink:href="#Ao"><stop stop-color="#3ce888"/><stop offset="1" stop-color="#21bdd3"/></linearGradient><linearGradient id="g" x1="38.001" y1=".196" x2="38.001" y2="19.85" xlink:href="#Ao"><stop stop-color="#066d66"/><stop offset="1" stop-color="#004945"/></linearGradient><linearGradient id="h" x1="103.905" y1="6.777" x2="90.308" y2="19.85" xlink:href="#Ao"><stop stop-color="#3ce888"/><stop offset="1" stop-color="#21bdd3"/></linearGradient><linearGradient id="i" x1="38.001" y1="26.536" x2="38.001" y2="46.189" xlink:href="#Ao"><stop stop-color="#066d66"/><stop offset="1" stop-color="#004945"/></linearGradient><linearGradient id="j" x1="103.905" y1="33.117" x2="90.308" y2="46.189" xlink:href="#Ao"><stop stop-color="#3ce888"/><stop offset="1" stop-color="#21bdd3"/></linearGradient><linearGradient id="k" x1="121.605" y1=".196" x2="121.605" y2="19.85" xlink:href="#Ao"><stop stop-color="#066d66"/><stop offset="1" stop-color="#004945"/></linearGradient><linearGradient id="l" x1="131.774" y1="6.777" x2="118.177" y2="19.85" xlink:href="#Ao"><stop stop-color="#3ce888"/><stop offset="1" stop-color="#21bdd3"/></linearGradient><linearGradient id="m" x1="121.605" y1="26.536" x2="121.605" y2="46.189" xlink:href="#Ao"><stop stop-color="#066d66"/><stop offset="1" stop-color="#004945"/></linearGradient><linearGradient id="n" x1="131.774" y1="33.117" x2="118.177" y2="46.189" xlink:href="#Ao"><stop stop-color="#3ce888"/><stop offset="1" stop-color="#21bdd3"/></linearGradient><linearGradient id="o" x1="65.869" y1=".196" x2="65.869" y2="19.85" xlink:href="#Ao"><stop stop-color="#066d66"/><stop offset="1" stop-color="#004945"/></linearGradient><linearGradient id="p" x1="76.038" y1="6.777" x2="62.441" y2="19.85" xlink:href="#Ao"><stop stop-color="#3ce888"/><stop offset="1" stop-color="#21bdd3"/></linearGradient><linearGradient id="q" x1="65.869" y1="26.536" x2="65.869" y2="46.189" xlink:href="#Ao"><stop stop-color="#066d66"/><stop offset="1" stop-color="#004945"/></linearGradient><linearGradient id="r" x1="76.038" y1="33.117" x2="62.441" y2="46.189" xlink:href="#Ao"><stop stop-color="#3ce888"/><stop offset="1" stop-color="#21bdd3"/></linearGradient><linearGradient id="s" x1="149.473" y1=".196" x2="149.473" y2="19.85" xlink:href="#Ao"><stop stop-color="#066d66"/><stop offset="1" stop-color="#004945"/></linearGradient><linearGradient id="t" x1="159.643" y1="6.777" x2="146.045" y2="19.85" xlink:href="#Ao"><stop stop-color="#3ce888"/><stop offset="1" stop-color="#21bdd3"/></linearGradient><linearGradient id="u" x1="149.473" y1="26.536" x2="149.473" y2="46.189" xlink:href="#Ao"><stop stop-color="#066d66"/><stop offset="1" stop-color="#004945"/></linearGradient><linearGradient id="v" x1="159.643" y1="33.117" x2="146.045" y2="46.189" xlink:href="#Ao"><stop stop-color="#3ce888"/><stop offset="1" stop-color="#21bdd3"/></linearGradient><linearGradient id="w" x1="10.133" y1="54.45" x2="10.133" y2="74.103" xlink:href="#Ao"><stop stop-color="#066d66"/><stop offset="1" stop-color="#004945"/></linearGradient><linearGradient id="x" x1="20.302" y1="61.031" x2="6.705" y2="74.104" xlink:href="#Ao"><stop stop-color="#3ce888"/><stop offset="1" stop-color="#21bdd3"/></linearGradient><linearGradient id="y" x1="10.133" y1="80.789" x2="10.133" y2="100.443" xlink:href="#Ao"><stop stop-color="#066d66"/><stop offset="1" stop-color="#004945"/></linearGradient><linearGradient id="z" x1="20.302" y1="87.371" x2="6.705" y2="100.443" xlink:href="#Ao"><stop stop-color="#3ce888"/><stop offset="1" stop-color="#21bdd3"/></linearGradient><linearGradient id="AA" x1="93.737" y1="54.45" x2="93.737" y2="74.103" xlink:href="#Ao"><stop stop-color="#066d66"/><stop offset="1" stop-color="#004945"/></linearGradient><linearGradient id="AB" x1="103.906" y1="61.031" x2="90.309" y2="74.104" xlink:href="#Ao"><stop stop-color="#3ce888"/><stop offset="1" stop-color="#21bdd3"/></linearGradient><linearGradient id="AC" x1="93.737" y1="80.789" x2="93.737" y2="100.443" xlink:href="#Ao"><stop stop-color="#066d66"/><stop offset="1" stop-color="#004945"/></linearGradient><linearGradient id="AD" x1="103.906" y1="87.371" x2="90.309" y2="100.443" xlink:href="#Ao"><stop stop-color="#3ce888"/><stop offset="1" stop-color="#21bdd3"/></linearGradient><linearGradient id="AE" x1="38.001" y1="54.45" x2="38.001" y2="74.103" xlink:href="#Ao"><stop stop-color="#066d66"/><stop offset="1" stop-color="#004945"/></linearGradient><linearGradient id="AF" x1="103.905" y1="61.031" x2="90.308" y2="74.104" xlink:href="#Ao"><stop stop-color="#3ce888"/><stop offset="1" stop-color="#21bdd3"/></linearGradient><linearGradient id="AG" x1="38.001" y1="80.789" x2="38.001" y2="100.443" xlink:href="#Ao"><stop stop-color="#066d66"/><stop offset="1" stop-color="#004945"/></linearGradient><linearGradient id="AH" x1="103.905" y1="87.371" x2="90.308" y2="100.443" xlink:href="#Ao"><stop stop-color="#3ce888"/><stop offset="1" stop-color="#21bdd3"/></linearGradient><linearGradient id="AI" x1="121.605" y1="54.45" x2="121.605" y2="74.103" xlink:href="#Ao"><stop stop-color="#066d66"/><stop offset="1" stop-color="#004945"/></linearGradient><linearGradient id="AJ" x1="131.774" y1="61.031" x2="118.177" y2="74.104" xlink:href="#Ao"><stop stop-color="#3ce888"/><stop offset="1" stop-color="#21bdd3"/></linearGradient><linearGradient id="AK" x1="121.605" y1="80.789" x2="121.605" y2="100.443" xlink:href="#Ao"><stop stop-color="#066d66"/><stop offset="1" stop-color="#004945"/></linearGradient><linearGradient id="AL" x1="131.774" y1="87.371" x2="118.177" y2="100.443" xlink:href="#Ao"><stop stop-color="#3ce888"/><stop offset="1" stop-color="#21bdd3"/></linearGradient><linearGradient id="AM" x1="65.869" y1="54.45" x2="65.869" y2="74.103" xlink:href="#Ao"><stop stop-color="#066d66"/><stop offset="1" stop-color="#004945"/></linearGradient><linearGradient id="AN" x1="76.038" y1="61.031" x2="62.441" y2="74.104" xlink:href="#Ao"><stop stop-color="#3ce888"/><stop offset="1" stop-color="#21bdd3"/></linearGradient><linearGradient id="AO" x1="65.869" y1="80.789" x2="65.869" y2="100.443" xlink:href="#Ao"><stop stop-color="#066d66"/><stop offset="1" stop-color="#004945"/></linearGradient><linearGradient id="AP" x1="76.038" y1="87.371" x2="62.441" y2="100.443" xlink:href="#Ao"><stop stop-color="#3ce888"/><stop offset="1" stop-color="#21bdd3"/></linearGradient><linearGradient id="AQ" x1="149.473" y1="54.45" x2="149.473" y2="74.103" xlink:href="#Ao"><stop stop-color="#066d66"/><stop offset="1" stop-color="#004945"/></linearGradient><linearGradient id="AR" x1="159.643" y1="61.031" x2="146.045" y2="74.104" xlink:href="#Ao"><stop stop-color="#3ce888"/><stop offset="1" stop-color="#21bdd3"/></linearGradient><linearGradient id="AS" x1="149.473" y1="80.789" x2="149.473" y2="100.443" xlink:href="#Ao"><stop stop-color="#066d66"/><stop offset="1" stop-color="#004945"/></linearGradient><linearGradient id="AT" x1="159.643" y1="87.371" x2="146.045" y2="100.443" xlink:href="#Ao"><stop stop-color="#3ce888"/><stop offset="1" stop-color="#21bdd3"/></linearGradient><path id="AU" d="M8.974 6.494H20.06v11.041h-3.286v-5.432l-8.908 8.908-2.324-2.324L14.45 9.78H8.974V6.494z"/><path id="AV" d="M8.974 32.834H20.06v11.041h-3.286v-5.432l-8.908 8.908-2.324-2.324 8.908-8.907H8.974v-3.286z"/><path id="AW" d="M92.578 6.494h11.086v11.041h-3.286v-5.432l-8.908 8.908-2.324-2.324 8.908-8.908h-5.476V6.494z"/><path id="AX" d="M92.578 32.834h11.086v11.041h-3.286v-5.432l-8.908 8.908-2.324-2.324 8.908-8.907h-5.476v-3.286z"/><path id="AY" d="M120.447 6.494h11.085v11.041h-3.286v-5.432l-8.908 8.908-2.323-2.324 8.907-8.908h-5.475V6.494z"/><path id="AZ" d="M120.447 32.834h11.085v11.041h-3.286v-5.432l-8.908 8.908-2.323-2.324 8.907-8.907h-5.475v-3.286z"/><path id="Aa" d="M64.71 6.494h11.086v11.041H72.51v-5.432l-8.908 8.908-2.324-2.324 8.908-8.908H64.71V6.494z"/><path id="Ab" d="M64.71 32.834h11.086v11.041H72.51v-5.432l-8.908 8.908-2.324-2.324 8.908-8.907H64.71v-3.286z"/><path id="Ac" d="M148.315 6.494H159.4v11.041h-3.286v-5.432l-8.907 8.908-2.324-2.324 8.908-8.908h-5.476V6.494z"/><path id="Ad" d="M148.315 32.834H159.4v11.041h-3.286v-5.432l-8.907 8.908-2.324-2.324 8.908-8.907h-5.476v-3.286z"/><path id="Ae" d="M8.974 60.748H20.06v11.041h-3.286v-5.432l-8.908 8.908-2.324-2.324 8.908-8.908H8.974v-3.286z"/><path id="Af" d="M8.974 87.088H20.06v11.041h-3.286v-5.432l-8.908 8.907-2.324-2.324 8.908-8.907H8.974v-3.286z"/><path id="Ag" d="M92.578 60.748h11.086v11.041h-3.286v-5.432l-8.908 8.908-2.324-2.324 8.908-8.908h-5.476v-3.286z"/><path id="Ah" d="M92.578 87.088h11.086v11.041h-3.286v-5.432l-8.908 8.907-2.324-2.324 8.908-8.907h-5.476v-3.286z"/><path id="Ai" d="M120.447 60.748h11.085v11.041h-3.286v-5.432l-8.908 8.908-2.323-2.324 8.907-8.908h-5.475v-3.286z"/><path id="Aj" d="M120.447 87.088h11.085v11.041h-3.286v-5.432l-8.908 8.907-2.323-2.324 8.907-8.907h-5.475v-3.286z"/><path id="Ak" d="M64.71 60.748h11.086v11.041H72.51v-5.432l-8.908 8.908-2.324-2.324 8.908-8.908H64.71v-3.286z"/><path id="Al" d="M64.71 87.088h11.086v11.041H72.51v-5.432l-8.908 8.907-2.324-2.324 8.908-8.907H64.71v-3.286z"/><path id="Am" d="M148.315 60.748H159.4v11.041h-3.286v-5.432l-8.907 8.908-2.324-2.324 8.908-8.908h-5.476v-3.286z"/><path id="An" d="M148.315 87.088H159.4v11.041h-3.286v-5.432l-8.907 8.907-2.324-2.324 8.908-8.907h-5.476v-3.286z"/><linearGradient id="Ao" gradientUnits="userSpaceOnUse"/></defs></svg>