<svg xmlns="http://www.w3.org/2000/svg" xmlns:xlink="http://www.w3.org/1999/xlink" width="159" height="101" fill="none" xmlns:v="https://vecta.io/nano"><style><![CDATA[.B{fill-rule:evenodd}.C{fill:#000}.D{fill-opacity:.3}]]></style><g opacity=".3"><mask id="A" mask-type="alpha" maskUnits="userSpaceOnUse" x="-1" y="0" width="20" height="20"><path d="M-.932 9.875A9.83 9.83 0 0 1 8.895.048h9.827v19.654H8.895A9.83 9.83 0 0 1-.932 9.875z" fill="url(#Y)"/></mask><g mask="url(#A)" class="B"><use xlink:href="#AU" class="C D"/><use xlink:href="#AU" fill="url(#Z)"/></g><mask id="B" mask-type="alpha" maskUnits="userSpaceOnUse" x="-1" y="26" width="20" height="21"><path d="M-.932 36.214a9.83 9.83 0 0 1 9.827-9.827h9.827v19.654H8.895a9.83 9.83 0 0 1-9.827-9.827z" fill="url(#a)"/></mask><g mask="url(#B)" class="B"><use xlink:href="#AV" class="C D"/><use xlink:href="#AV" fill="url(#b)"/></g><mask id="C" mask-type="alpha" maskUnits="userSpaceOnUse" x="82" y="0" width="21" height="20"><path d="M82.672 9.875A9.83 9.83 0 0 1 92.499.048h9.827v19.654h-9.827a9.83 9.83 0 0 1-9.827-9.827z" fill="url(#c)"/></mask><g mask="url(#C)" class="B"><use xlink:href="#AW" class="C D"/><use xlink:href="#AW" fill="url(#d)"/></g><mask id="D" mask-type="alpha" maskUnits="userSpaceOnUse" x="82" y="26" width="21" height="21"><path d="M82.672 36.214a9.83 9.83 0 0 1 9.827-9.827h9.827v19.654h-9.827a9.83 9.83 0 0 1-9.827-9.827z" fill="url(#e)"/></mask><g mask="url(#D)" class="B"><use xlink:href="#AX" class="C D"/><use xlink:href="#AX" fill="url(#f)"/></g><mask id="E" mask-type="alpha" maskUnits="userSpaceOnUse" x="26" y="0" width="21" height="20"><path d="M26.936 9.875A9.83 9.83 0 0 1 36.763.048h9.827v19.654h-9.827a9.83 9.83 0 0 1-9.827-9.827z" fill="url(#g)"/></mask><g mask="url(#E)" class="B"><use xlink:href="#AY" class="C D"/><use xlink:href="#AY" fill="url(#h)"/></g><mask id="F" mask-type="alpha" maskUnits="userSpaceOnUse" x="26" y="26" width="21" height="21"><path d="M26.936 36.214a9.83 9.83 0 0 1 9.827-9.827h9.827v19.654h-9.827a9.83 9.83 0 0 1-9.827-9.827z" fill="url(#i)"/></mask><g mask="url(#F)" class="B"><use xlink:href="#AZ" class="C D"/><use xlink:href="#AZ" fill="url(#j)"/></g><mask id="G" mask-type="alpha" maskUnits="userSpaceOnUse" x="110" y="0" width="21" height="20"><path d="M110.54 9.875a9.83 9.83 0 0 1 9.827-9.827h9.827v19.654h-9.827a9.83 9.83 0 0 1-9.827-9.827z" fill="url(#k)"/></mask><g mask="url(#G)" class="B"><use xlink:href="#Aa" class="C D"/><use xlink:href="#Aa" fill="url(#l)"/></g><mask id="H" mask-type="alpha" maskUnits="userSpaceOnUse" x="110" y="26" width="21" height="21"><path d="M110.54 36.214a9.83 9.83 0 0 1 9.827-9.827h9.827v19.654h-9.827a9.83 9.83 0 0 1-9.827-9.827z" fill="url(#m)"/></mask><g mask="url(#H)" class="B"><use xlink:href="#Ab" class="C D"/><use xlink:href="#Ab" fill="url(#n)"/></g><mask id="I" mask-type="alpha" maskUnits="userSpaceOnUse" x="54" y="0" width="21" height="20"><path d="M54.804 9.875A9.83 9.83 0 0 1 64.631.048h9.827v19.654h-9.827a9.83 9.83 0 0 1-9.827-9.827z" fill="url(#o)"/></mask><g mask="url(#I)" class="B"><use xlink:href="#Ac" class="C D"/><use xlink:href="#Ac" fill="url(#p)"/></g><mask id="J" mask-type="alpha" maskUnits="userSpaceOnUse" x="54" y="26" width="21" height="21"><path d="M54.804 36.214a9.83 9.83 0 0 1 9.827-9.827h9.827v19.654h-9.827a9.83 9.83 0 0 1-9.827-9.827z" fill="url(#q)"/></mask><g mask="url(#J)" class="B"><use xlink:href="#Ad" class="C D"/><use xlink:href="#Ad" fill="url(#r)"/></g><mask id="K" mask-type="alpha" maskUnits="userSpaceOnUse" x="138" y="0" width="21" height="20"><path d="M138.408 9.875a9.83 9.83 0 0 1 9.827-9.827h9.827v19.654h-9.827a9.83 9.83 0 0 1-9.827-9.827z" fill="url(#s)"/></mask><g mask="url(#K)" class="B"><use xlink:href="#Ae" class="C D"/><use xlink:href="#Ae" fill="url(#t)"/></g><mask id="L" mask-type="alpha" maskUnits="userSpaceOnUse" x="138" y="26" width="21" height="21"><path d="M138.408 36.214a9.83 9.83 0 0 1 9.827-9.827h9.827v19.654h-9.827a9.83 9.83 0 0 1-9.827-9.827z" fill="url(#u)"/></mask><g mask="url(#L)" class="B"><use xlink:href="#Af" class="C D"/><use xlink:href="#Af" fill="url(#v)"/></g><mask id="M" mask-type="alpha" maskUnits="userSpaceOnUse" x="-1" y="54" width="20" height="20"><path d="M-.932 64.129a9.83 9.83 0 0 1 9.827-9.827h9.827v19.654H8.895a9.83 9.83 0 0 1-9.827-9.827z" fill="url(#w)"/></mask><g mask="url(#M)" class="B"><use xlink:href="#Ag" class="C D"/><use xlink:href="#Ag" fill="url(#x)"/></g><mask id="N" mask-type="alpha" maskUnits="userSpaceOnUse" x="-1" y="80" width="20" height="21"><path d="M-.932 90.468a9.83 9.83 0 0 1 9.827-9.827h9.827v19.654H8.895a9.83 9.83 0 0 1-9.827-9.827z" fill="url(#y)"/></mask><g mask="url(#N)" class="B"><use xlink:href="#Ah" class="C D"/><use xlink:href="#Ah" fill="url(#z)"/></g><mask id="O" mask-type="alpha" maskUnits="userSpaceOnUse" x="82" y="54" width="21" height="20"><path d="M82.672 64.129a9.83 9.83 0 0 1 9.827-9.827h9.827v19.654h-9.827a9.83 9.83 0 0 1-9.827-9.827z" fill="url(#AA)"/></mask><g mask="url(#O)" class="B"><use xlink:href="#Ai" class="C D"/><use xlink:href="#Ai" fill="url(#AB)"/></g><mask id="P" mask-type="alpha" maskUnits="userSpaceOnUse" x="82" y="80" width="21" height="21"><path d="M82.672 90.468a9.83 9.83 0 0 1 9.827-9.827h9.827v19.654h-9.827a9.83 9.83 0 0 1-9.827-9.827z" fill="url(#AC)"/></mask><g mask="url(#P)" class="B"><use xlink:href="#Aj" class="C D"/><use xlink:href="#Aj" fill="url(#AD)"/></g><mask id="Q" mask-type="alpha" maskUnits="userSpaceOnUse" x="26" y="54" width="21" height="20"><path d="M26.936 64.129a9.83 9.83 0 0 1 9.827-9.827h9.827v19.654h-9.827a9.83 9.83 0 0 1-9.827-9.827z" fill="url(#AE)"/></mask><g mask="url(#Q)" class="B"><use xlink:href="#Ak" class="C D"/><use xlink:href="#Ak" fill="url(#AF)"/></g><mask id="R" mask-type="alpha" maskUnits="userSpaceOnUse" x="26" y="80" width="21" height="21"><path d="M26.936 90.468a9.83 9.83 0 0 1 9.827-9.827h9.827v19.654h-9.827a9.83 9.83 0 0 1-9.827-9.827z" fill="url(#AG)"/></mask><g mask="url(#R)" class="B"><use xlink:href="#Al" class="C D"/><use xlink:href="#Al" fill="url(#AH)"/></g><mask id="S" mask-type="alpha" maskUnits="userSpaceOnUse" x="110" y="54" width="21" height="20"><path d="M110.54 64.129a9.83 9.83 0 0 1 9.827-9.827h9.827v19.654h-9.827a9.83 9.83 0 0 1-9.827-9.827z" fill="url(#AI)"/></mask><g mask="url(#S)" class="B"><use xlink:href="#Am" class="C D"/><use xlink:href="#Am" fill="url(#AJ)"/></g><mask id="T" mask-type="alpha" maskUnits="userSpaceOnUse" x="110" y="80" width="21" height="21"><path d="M110.54 90.468a9.83 9.83 0 0 1 9.827-9.827h9.827v19.654h-9.827a9.83 9.83 0 0 1-9.827-9.827z" fill="url(#AK)"/></mask><g mask="url(#T)" class="B"><use xlink:href="#An" class="C D"/><use xlink:href="#An" fill="url(#AL)"/></g><mask id="U" mask-type="alpha" maskUnits="userSpaceOnUse" x="54" y="54" width="21" height="20"><path d="M54.804 64.129a9.83 9.83 0 0 1 9.827-9.827h9.827v19.654h-9.827a9.83 9.83 0 0 1-9.827-9.827z" fill="url(#AM)"/></mask><g mask="url(#U)" class="B"><use xlink:href="#Ao" class="C D"/><use xlink:href="#Ao" fill="url(#AN)"/></g><mask id="V" mask-type="alpha" maskUnits="userSpaceOnUse" x="54" y="80" width="21" height="21"><path d="M54.804 90.468a9.83 9.83 0 0 1 9.827-9.827h9.827v19.654h-9.827a9.83 9.83 0 0 1-9.827-9.827z" fill="url(#AO)"/></mask><g mask="url(#V)" class="B"><use xlink:href="#Ap" class="C D"/><use xlink:href="#Ap" fill="url(#AP)"/></g><mask id="W" mask-type="alpha" maskUnits="userSpaceOnUse" x="138" y="54" width="21" height="20"><path d="M138.408 64.129a9.83 9.83 0 0 1 9.827-9.827h9.827v19.654h-9.827a9.83 9.83 0 0 1-9.827-9.827z" fill="url(#AQ)"/></mask><g mask="url(#W)" class="B"><use xlink:href="#Aq" class="C D"/><use xlink:href="#Aq" fill="url(#AR)"/></g><mask id="X" mask-type="alpha" maskUnits="userSpaceOnUse" x="138" y="80" width="21" height="21"><path d="M138.408 90.468a9.83 9.83 0 0 1 9.827-9.827h9.827v19.654h-9.827a9.83 9.83 0 0 1-9.827-9.827z" fill="url(#AS)"/></mask><g mask="url(#X)" class="B"><use xlink:href="#Ar" class="C D"/><use xlink:href="#Ar" fill="url(#AT)"/></g></g><defs><linearGradient id="Y" x1="8.895" y1=".048" x2="8.895" y2="19.702" xlink:href="#As"><stop stop-color="#066d66"/><stop offset="1" stop-color="#004945"/></linearGradient><linearGradient id="Z" x1="19.064" y1="6.629" x2="5.466" y2="19.702" xlink:href="#As"><stop stop-color="#3ce888"/><stop offset="1" stop-color="#21bdd3"/></linearGradient><linearGradient id="a" x1="8.895" y1="26.388" x2="8.895" y2="46.041" xlink:href="#As"><stop stop-color="#066d66"/><stop offset="1" stop-color="#004945"/></linearGradient><linearGradient id="b" x1="19.064" y1="32.969" x2="5.466" y2="46.041" xlink:href="#As"><stop stop-color="#3ce888"/><stop offset="1" stop-color="#21bdd3"/></linearGradient><linearGradient id="c" x1="92.499" y1=".048" x2="92.499" y2="19.702" xlink:href="#As"><stop stop-color="#066d66"/><stop offset="1" stop-color="#004945"/></linearGradient><linearGradient id="d" x1="102.668" y1="6.629" x2="89.071" y2="19.702" xlink:href="#As"><stop stop-color="#3ce888"/><stop offset="1" stop-color="#21bdd3"/></linearGradient><linearGradient id="e" x1="92.499" y1="26.388" x2="92.499" y2="46.041" xlink:href="#As"><stop stop-color="#066d66"/><stop offset="1" stop-color="#004945"/></linearGradient><linearGradient id="f" x1="102.668" y1="32.969" x2="89.071" y2="46.041" xlink:href="#As"><stop stop-color="#3ce888"/><stop offset="1" stop-color="#21bdd3"/></linearGradient><linearGradient id="g" x1="36.763" y1=".048" x2="36.763" y2="19.702" xlink:href="#As"><stop stop-color="#066d66"/><stop offset="1" stop-color="#004945"/></linearGradient><linearGradient id="h" x1="46.932" y1="6.629" x2="33.335" y2="19.702" xlink:href="#As"><stop stop-color="#3ce888"/><stop offset="1" stop-color="#21bdd3"/></linearGradient><linearGradient id="i" x1="36.763" y1="26.388" x2="36.763" y2="46.041" xlink:href="#As"><stop stop-color="#066d66"/><stop offset="1" stop-color="#004945"/></linearGradient><linearGradient id="j" x1="46.932" y1="32.969" x2="33.335" y2="46.041" xlink:href="#As"><stop stop-color="#3ce888"/><stop offset="1" stop-color="#21bdd3"/></linearGradient><linearGradient id="k" x1="120.367" y1=".048" x2="120.367" y2="19.702" xlink:href="#As"><stop stop-color="#066d66"/><stop offset="1" stop-color="#004945"/></linearGradient><linearGradient id="l" x1="130.536" y1="6.629" x2="116.939" y2="19.702" xlink:href="#As"><stop stop-color="#3ce888"/><stop offset="1" stop-color="#21bdd3"/></linearGradient><linearGradient id="m" x1="120.367" y1="26.388" x2="120.367" y2="46.041" xlink:href="#As"><stop stop-color="#066d66"/><stop offset="1" stop-color="#004945"/></linearGradient><linearGradient id="n" x1="130.536" y1="32.969" x2="116.939" y2="46.041" xlink:href="#As"><stop stop-color="#3ce888"/><stop offset="1" stop-color="#21bdd3"/></linearGradient><linearGradient id="o" x1="64.631" y1=".048" x2="64.631" y2="19.702" xlink:href="#As"><stop stop-color="#066d66"/><stop offset="1" stop-color="#004945"/></linearGradient><linearGradient id="p" x1="74.8" y1="6.629" x2="61.203" y2="19.702" xlink:href="#As"><stop stop-color="#3ce888"/><stop offset="1" stop-color="#21bdd3"/></linearGradient><linearGradient id="q" x1="64.631" y1="26.388" x2="64.631" y2="46.041" xlink:href="#As"><stop stop-color="#066d66"/><stop offset="1" stop-color="#004945"/></linearGradient><linearGradient id="r" x1="74.8" y1="32.969" x2="61.203" y2="46.041" xlink:href="#As"><stop stop-color="#3ce888"/><stop offset="1" stop-color="#21bdd3"/></linearGradient><linearGradient id="s" x1="148.235" y1=".048" x2="148.235" y2="19.702" xlink:href="#As"><stop stop-color="#066d66"/><stop offset="1" stop-color="#004945"/></linearGradient><linearGradient id="t" x1="158.404" y1="6.629" x2="144.807" y2="19.702" xlink:href="#As"><stop stop-color="#3ce888"/><stop offset="1" stop-color="#21bdd3"/></linearGradient><linearGradient id="u" x1="148.235" y1="26.388" x2="148.235" y2="46.041" xlink:href="#As"><stop stop-color="#066d66"/><stop offset="1" stop-color="#004945"/></linearGradient><linearGradient id="v" x1="158.404" y1="32.969" x2="144.807" y2="46.041" xlink:href="#As"><stop stop-color="#3ce888"/><stop offset="1" stop-color="#21bdd3"/></linearGradient><linearGradient id="w" x1="8.895" y1="54.302" x2="8.895" y2="73.955" xlink:href="#As"><stop stop-color="#066d66"/><stop offset="1" stop-color="#004945"/></linearGradient><linearGradient id="x" x1="19.064" y1="60.883" x2="5.466" y2="73.956" xlink:href="#As"><stop stop-color="#3ce888"/><stop offset="1" stop-color="#21bdd3"/></linearGradient><linearGradient id="y" x1="8.895" y1="80.641" x2="8.895" y2="100.295" xlink:href="#As"><stop stop-color="#066d66"/><stop offset="1" stop-color="#004945"/></linearGradient><linearGradient id="z" x1="19.064" y1="87.223" x2="5.466" y2="100.295" xlink:href="#As"><stop stop-color="#3ce888"/><stop offset="1" stop-color="#21bdd3"/></linearGradient><linearGradient id="AA" x1="92.499" y1="54.302" x2="92.499" y2="73.955" xlink:href="#As"><stop stop-color="#066d66"/><stop offset="1" stop-color="#004945"/></linearGradient><linearGradient id="AB" x1="102.668" y1="60.883" x2="89.071" y2="73.956" xlink:href="#As"><stop stop-color="#3ce888"/><stop offset="1" stop-color="#21bdd3"/></linearGradient><linearGradient id="AC" x1="92.499" y1="80.641" x2="92.499" y2="100.295" xlink:href="#As"><stop stop-color="#066d66"/><stop offset="1" stop-color="#004945"/></linearGradient><linearGradient id="AD" x1="102.668" y1="87.223" x2="89.071" y2="100.295" xlink:href="#As"><stop stop-color="#3ce888"/><stop offset="1" stop-color="#21bdd3"/></linearGradient><linearGradient id="AE" x1="36.763" y1="54.302" x2="36.763" y2="73.955" xlink:href="#As"><stop stop-color="#066d66"/><stop offset="1" stop-color="#004945"/></linearGradient><linearGradient id="AF" x1="46.932" y1="60.883" x2="33.335" y2="73.956" xlink:href="#As"><stop stop-color="#3ce888"/><stop offset="1" stop-color="#21bdd3"/></linearGradient><linearGradient id="AG" x1="36.763" y1="80.641" x2="36.763" y2="100.295" xlink:href="#As"><stop stop-color="#066d66"/><stop offset="1" stop-color="#004945"/></linearGradient><linearGradient id="AH" x1="46.932" y1="87.223" x2="33.335" y2="100.295" xlink:href="#As"><stop stop-color="#3ce888"/><stop offset="1" stop-color="#21bdd3"/></linearGradient><linearGradient id="AI" x1="120.367" y1="54.302" x2="120.367" y2="73.955" xlink:href="#As"><stop stop-color="#066d66"/><stop offset="1" stop-color="#004945"/></linearGradient><linearGradient id="AJ" x1="130.536" y1="60.883" x2="116.939" y2="73.956" xlink:href="#As"><stop stop-color="#3ce888"/><stop offset="1" stop-color="#21bdd3"/></linearGradient><linearGradient id="AK" x1="120.367" y1="80.641" x2="120.367" y2="100.295" xlink:href="#As"><stop stop-color="#066d66"/><stop offset="1" stop-color="#004945"/></linearGradient><linearGradient id="AL" x1="130.536" y1="87.223" x2="116.939" y2="100.295" xlink:href="#As"><stop stop-color="#3ce888"/><stop offset="1" stop-color="#21bdd3"/></linearGradient><linearGradient id="AM" x1="64.631" y1="54.302" x2="64.631" y2="73.955" xlink:href="#As"><stop stop-color="#066d66"/><stop offset="1" stop-color="#004945"/></linearGradient><linearGradient id="AN" x1="74.8" y1="60.883" x2="61.203" y2="73.956" xlink:href="#As"><stop stop-color="#3ce888"/><stop offset="1" stop-color="#21bdd3"/></linearGradient><linearGradient id="AO" x1="64.631" y1="80.641" x2="64.631" y2="100.295" xlink:href="#As"><stop stop-color="#066d66"/><stop offset="1" stop-color="#004945"/></linearGradient><linearGradient id="AP" x1="74.8" y1="87.223" x2="61.203" y2="100.295" xlink:href="#As"><stop stop-color="#3ce888"/><stop offset="1" stop-color="#21bdd3"/></linearGradient><linearGradient id="AQ" x1="148.235" y1="54.302" x2="148.235" y2="73.955" xlink:href="#As"><stop stop-color="#066d66"/><stop offset="1" stop-color="#004945"/></linearGradient><linearGradient id="AR" x1="158.404" y1="60.883" x2="144.807" y2="73.956" xlink:href="#As"><stop stop-color="#3ce888"/><stop offset="1" stop-color="#21bdd3"/></linearGradient><linearGradient id="AS" x1="148.235" y1="80.641" x2="148.235" y2="100.295" xlink:href="#As"><stop stop-color="#066d66"/><stop offset="1" stop-color="#004945"/></linearGradient><linearGradient id="AT" x1="158.404" y1="87.223" x2="144.807" y2="100.295" xlink:href="#As"><stop stop-color="#3ce888"/><stop offset="1" stop-color="#21bdd3"/></linearGradient><path id="AU" d="M7.736 6.346h11.086v11.041h-3.286v-5.432l-8.908 8.908-2.324-2.324 8.908-8.908H7.736V6.346z"/><path id="AV" d="M7.736 32.686h11.086v11.041h-3.286v-5.432l-8.908 8.908-2.324-2.324 8.908-8.908H7.736v-3.286z"/><path id="AW" d="M91.34 6.346h11.086v11.041H99.14v-5.432l-8.908 8.908-2.324-2.324 8.908-8.908H91.34V6.346z"/><path id="AX" d="M91.34 32.686h11.086v11.041H99.14v-5.432l-8.908 8.908-2.324-2.324 8.908-8.908H91.34v-3.286z"/><path id="AY" d="M35.604 6.346H46.69v11.041h-3.286v-5.432l-8.908 8.908-2.324-2.324 8.908-8.908h-5.476V6.346z"/><path id="AZ" d="M35.604 32.686H46.69v11.041h-3.286v-5.432l-8.908 8.908-2.324-2.324 8.908-8.908h-5.476v-3.286z"/><path id="Aa" d="M119.208 6.346h11.086v11.041h-3.286v-5.432l-8.908 8.908-2.323-2.324 8.907-8.908h-5.476V6.346z"/><path id="Ab" d="M119.208 32.686h11.086v11.041h-3.286v-5.432l-8.908 8.908-2.323-2.324 8.907-8.908h-5.476v-3.286z"/><path id="Ac" d="M63.472 6.346h11.086v11.041h-3.286v-5.432l-8.907 8.908-2.324-2.324 8.908-8.908h-5.476V6.346z"/><path id="Ad" d="M63.472 32.686h11.086v11.041h-3.286v-5.432l-8.907 8.908-2.324-2.324 8.908-8.908h-5.476v-3.286z"/><path id="Ae" d="M147.077 6.346h11.085v11.041h-3.286v-5.432l-8.908 8.908-2.323-2.324 8.907-8.908h-5.475V6.346z"/><path id="Af" d="M147.077 32.686h11.085v11.041h-3.286v-5.432l-8.908 8.908-2.323-2.324 8.907-8.908h-5.475v-3.286z"/><path id="Ag" d="M7.736 60.6h11.086v11.041h-3.286V66.21l-8.908 8.908-2.324-2.324 8.908-8.908H7.736V60.6z"/><path id="Ah" d="M7.736 86.94h11.086v11.041h-3.286V92.55l-8.908 8.907-2.324-2.323 8.908-8.907H7.736V86.94z"/><path id="Ai" d="M91.34 60.6h11.086v11.041H99.14V66.21l-8.908 8.908-2.324-2.324 8.908-8.908H91.34V60.6z"/><path id="Aj" d="M91.34 86.94h11.086v11.041H99.14V92.55l-8.908 8.907-2.324-2.323 8.908-8.907H91.34V86.94z"/><path id="Ak" d="M35.604 60.6H46.69v11.041h-3.286V66.21l-8.908 8.908-2.324-2.324 8.908-8.908h-5.476V60.6z"/><path id="Al" d="M35.604 86.94H46.69v11.041h-3.286V92.55l-8.908 8.907-2.324-2.323 8.908-8.907h-5.476V86.94z"/><path id="Am" d="M119.208 60.6h11.086v11.041h-3.286V66.21l-8.908 8.908-2.323-2.324 8.907-8.908h-5.476V60.6z"/><path id="An" d="M119.208 86.94h11.086v11.041h-3.286V92.55l-8.908 8.907-2.323-2.323 8.907-8.907h-5.476V86.94z"/><path id="Ao" d="M63.472 60.6h11.086v11.041h-3.286V66.21l-8.907 8.908-2.324-2.324 8.908-8.908h-5.476V60.6z"/><path id="Ap" d="M63.472 86.94h11.086v11.041h-3.286V92.55l-8.907 8.907-2.324-2.323 8.908-8.907h-5.476V86.94z"/><path id="Aq" d="M147.077 60.6h11.085v11.041h-3.286V66.21l-8.908 8.908-2.323-2.324 8.907-8.908h-5.475V60.6z"/><path id="Ar" d="M147.077 86.94h11.085v11.041h-3.286V92.55l-8.908 8.907-2.323-2.323 8.907-8.907h-5.475V86.94z"/><linearGradient id="As" gradientUnits="userSpaceOnUse"/></defs></svg>