<svg xmlns="http://www.w3.org/2000/svg" width="32" height="33" fill="none"  xmlns:v="https://vecta.io/nano"><path d="M14.323 1.251a2 2 0 0 1 3.27 0l.787 1.116a2 2 0 0 0 2.475.663l1.239-.574a2 2 0 0 1 2.832 1.635l.123 1.36a2 2 0 0 0 1.812 1.812l1.36.123a2 2 0 0 1 1.635 2.832l-.574 1.239a2 2 0 0 0 .663 2.475l1.117.787a2 2 0 0 1 0 3.27l-1.117.787a2 2 0 0 0-.663 2.475l.574 1.239a2 2 0 0 1-1.635 2.832l-1.36.123a2 2 0 0 0-1.812 1.812l-.123 1.36a2 2 0 0 1-2.832 1.635l-1.239-.574a2 2 0 0 0-2.475.663l-.787 1.116a2 2 0 0 1-3.27 0l-.787-1.116a2 2 0 0 0-2.475-.663l-1.239.574a2 2 0 0 1-2.832-1.635l-.123-1.36a2 2 0 0 0-1.812-1.812l-1.36-.123a2 2 0 0 1-1.635-2.832l.574-1.239a2 2 0 0 0-.663-2.475L.854 17.99a2 2 0 0 1 0-3.27l1.116-.787a2 2 0 0 0 .663-2.475l-.574-1.239a2 2 0 0 1 1.635-2.832l1.36-.123a2 2 0 0 0 1.812-1.812l.123-1.36a2 2 0 0 1 2.832-1.635l1.239.574a2 2 0 0 0 2.475-.663l.787-1.116z" fill="#fff"/></svg>