<svg xmlns="http://www.w3.org/2000/svg" width="129" height="129" fill="none"  xmlns:v="https://vecta.io/nano"><path d="M49.792 45.754A23.33 23.33 0 1 0 78.51 82.621a23.33 23.33 0 1 0-28.718-36.866zm23.694 30.417c-6.594 5.136-16.17 3.961-21.319-2.648a15.21 15.21 0 0 1 2.649-21.319 15.21 15.21 0 0 1 21.319 2.649c5.149 6.61 3.945 16.183-2.649 21.319zm-.795-49.467c1.862 2.39 1.424 5.799-.95 7.649-2.39 1.862-5.799 1.424-7.649-.95a5.45 5.45 0 0 1 8.599-6.699zm15.608-5.147c-4.759-5.547-10.049-9.624-17.542-10.54-7.477-.929-13.604 1.73-19.588 5.927-6.198 4.287-23.99 18.146-29.663 23.107-5.531 4.747-9.608 10.036-10.553 17.526s1.73 13.604 5.927 19.588c4.287 6.198 18.146 23.99 23.107 29.663 4.759 5.547 10.049 9.624 17.542 10.541s13.604-1.73 19.588-5.928c6.198-4.287 23.989-18.146 29.663-23.107 5.546-4.759 9.623-10.049 10.54-17.542.929-7.477-1.73-13.604-5.928-19.588-4.287-6.198-18.133-23.974-23.094-29.647zm20.387 41.99c1.198 4.119.663 8.429-1.51 12.158-3.271 5.564-14.838 13.878-20.068 17.953s-16.151 13.251-22.317 15.065c-4.119 1.198-8.429.662-12.158-1.511-5.564-3.27-13.879-14.838-17.952-20.067S21.429 70.994 19.616 64.827c-1.198-4.119-.663-8.429 1.51-12.158 3.27-5.564 14.838-13.879 20.068-17.952s16.151-13.252 22.317-15.065c4.119-1.198 8.429-.663 12.158 1.51C81.233 24.433 89.548 36 93.622 41.23s13.267 16.138 15.064 22.317z" fill="#065f85" fill-opacity=".1"/></svg>