<svg xmlns="http://www.w3.org/2000/svg" width="266" height="121" fill="none"  xmlns:v="https://vecta.io/nano"><path d="M63.04 119.838c-1.015-.38-1.299-.752-1.058-1.386.112-.294.326-.534.477-.534s.809.346 1.464.769 1.455.866 1.779.984l.589.213-.724.016c-.398.009-.983.053-1.299.099s-.868-.027-1.228-.161h0zm-2.303-1.95a1.03 1.03 0 0 0-.708-.08c-.25.08-.443-.038-.627-.384-.147-.274-.41-.547-.584-.607-.401-.138-1.241-1.499-1.709-2.769-.236-.641-.554-1.084-.931-1.298-.669-.381-.717-.553-.199-.718.593-.188.703-1.232.204-1.933-.238-.334-.363-.726-.291-.913.085-.221-.149-.608-.715-1.184-.714-.728-.846-.992-.878-1.758-.021-.497-.141-1.028-.268-1.181-.16-.192-.193-.884-.106-2.252.094-1.482.039-2.397-.219-3.672-.383-1.893-.579-5.422-.479-8.64.021-.687-.068-1.629-.198-2.095-.317-1.134-1.773-2.565-3.574-3.511-1.288-.677-1.469-.85-1.972-1.89-.305-.629-.888-1.57-1.295-2.091s-.85-1.284-.984-1.698c-.425-1.313-1.174-2.632-1.685-2.966-.272-.178-.582-.641-.689-1.029-.173-.628-.128-.803.415-1.591.588-.855.595-.89.198-.994-.977-.255-.566-1.561 1.187-3.773 1.165-1.471 1.507-2.591 1.184-3.885l-.245-1.146c-.012-.137-.099-.25-.195-.25s-.077-.18.041-.4c.182-.339.136-.436-.301-.635-.636-.29-1.596-.003-1.6.477-.005.576-.258.619-1.094.183-.448-.233-.913-.424-1.033-.424s-.59-.319-1.043-.709l-1.073-.907c-.137-.109-.25-.405-.25-.658s-.176-.62-.392-.815-.495-.667-.621-1.048c-.165-.501-.289-.633-.447-.475-.329.329-.816.267-1.999-.256-.618-.273-1.263-.74-1.52-1.102-.246-.345-.715-.766-1.043-.935-.541-.28-.676-.278-1.465.023l-.869.332-2.665-1.291c-1.639-.794-2.911-1.552-3.305-1.969-.611-.646-.631-.716-.427-1.517.186-.734.155-.961-.25-1.797a8.98 8.98 0 0 0-1.238-1.798c-.426-.462-.726-.918-.667-1.014s-.241-.74-.667-1.433c-.484-.787-.825-1.629-.91-2.246-.109-.791-.235-1.032-.636-1.215-.425-.194-.544-.169-.787.164-.343.468-.245.963.513 2.601.308.666.626 1.652.707 2.193a6.83 6.83 0 0 0 .532 1.736c.501.982.177.965-.613-.033-.466-.588-.592-.911-.499-1.28.099-.394.002-.584-.483-.942-.735-.543-.89-.893-.62-1.398.157-.294.085-.616-.314-1.405-.406-.801-.491-1.189-.39-1.783.164-.972-.272-1.852-1.085-2.189-.469-.194-.631-.412-.727-.977l-.288-1.375c-.094-.37-.088-.696.016-.76s.034-.336-.145-.609c-.264-.403-.282-.593-.095-1.004.127-.278.175-.597.106-.707s.102-.441.378-.734a5.08 5.08 0 0 0 .818-1.3c.173-.421.708-1.203 1.188-1.736s1.088-1.468 1.352-2.077c.366-.845.58-1.108.906-1.11.235-.002.415.109.4.246-.064.572.389.396.897-.35.3-.44.461-.829.359-.866s-.186-.202-.186-.367-.414-.703-.919-1.194c-.838-.815-.892-.923-.613-1.231.226-.249.252-.433.102-.702-.265-.473.153-1.532.606-1.537.187-.002.24-.066.126-.15-.258-.189-.374-.619-.338-1.245.058-1-.161-1.419-.905-1.73a7.43 7.43 0 0 1-1.36-.786c-.347-.265-.787-.481-.978-.481s-1.06-.182-1.93-.404c-1.4-.357-1.646-.371-2.131-.122-1.005.517-2.069.728-2.503.496-.325-.174-.681-.067-1.919.581-.836.437-1.835.863-2.219.946s-1.121.363-1.636.622c-1.461.736-3.553 1.478-4.132 1.465-.374-.008-.121-.172.873-.566 1.689-.67 3.425-1.542 3.585-1.802.198-.32-.231-.435-.747-.2-.38.173-.614.157-1.052-.073l-.563-.295.613-.317c.693-.358.911-.764.751-1.398-.154-.614.696-1.065 2.527-1.341.984-.148 1.732-.395 2.235-.738.888-.604.735-1.061-.222-.665-.453.188-.783.19-1.454.009-.816-.22-.845-.251-.48-.518.61-.446 1.873-.715 2.703-.575.525.089.955.027 1.396-.202l.638-.33-.42-.447c-.231-.246-.42-.5-.42-.564 0-.185 1.203-.556 1.804-.556.3 0 1.123-.217 1.829-.483s2.333-.628 3.617-.806c2.082-.288 2.523-.291 4.085-.033l2.949.423a20.48 20.48 0 0 1 2.593.515c1.781.489 2.941.483 4.931-.025.879-.224 1.767-.354 1.974-.289s.558.022.781-.098c.307-.164.545-.144.983.082.396.205.885.263 1.55.185.702-.082 1.317.003 2.214.306.683.231 1.442.42 1.686.42.433 0 .434.007.056.285-.37.273-.372.292-.024.426.2.078.895.085 1.545.018 1.173-.123 1.183-.119 1.51.513l.329.637.427-.536c.246-.308.829-.657 1.372-.82.821-.247 1.07-.246 1.894.006.582.178 1.278.243 1.8.168.664-.096.972-.036 1.406.272.547.389.562.39 1.047.014.271-.21.828-.475 1.238-.589.982-.274 1.315-.857.725-1.27-.417-.292-.399-.314.697-.852.818-.401 1.186-.492 1.345-.333s.158.335-.006.64c-.279.521.068 1.309.503 1.142.156-.06.416-.059.576.003.252.097.248.179-.03.603-.768 1.172.954.84 2.12-.409.474-.508 1.208-.662 1.897-.398.445.171.403.31-.333 1.117-.877.962-1.326 1.159-2.644 1.159-.637 0-1.389.138-1.739.319-.485.251-.721.272-1.104.097-.713-.325-.961-.054-.45.49l.437.465-.871.247a8.88 8.88 0 0 1-1.77.276c-.717.023-.899.101-.9.385-.001.242-.35.498-1.099.804-2.427.992-4.486 2.781-3.74 3.25.14.088.361.404.493.704.151.345.443.585.795.655.306.061 1.096.377 1.755.702s1.468.649 1.798.721c.907.198.915.219.493 1.291-.362.917-.369 1.048-.089 1.59.168.325.415.587.55.583.655-.019 1.268-.623 1.65-1.624.363-.954.529-1.132 1.572-1.689 1.54-.822 2.18-1.633 2.01-2.542-.111-.593-.053-.732.454-1.093.319-.228.743-.772.94-1.21.442-.979 1.151-1.319 2.348-1.123 1.061.174 2.316.847 2.468 1.325.062.196.011.548-.115.782-.19.355-.154.505.215.897l.443.471.723-.375c.398-.206 1.035-.608 1.416-.894l.693-.519.163.44c.09.242.115.565.056.718s-.013.452.101.665c.128.24.138.511.026.712-.127.226-.042.569.28 1.135.461.811.461.812.056 1.095-.532.373-.191.768.394.455s1.244-.27 1.654.101c.605.548.102 1.204-1.505 1.96-1.748.823-2.527.985-4.809 1.006-1.685.015-1.908.069-3.546.854-.961.461-1.748.917-1.748 1.014 0 .412.303.376 1.465-.174.685-.324 1.568-.583 1.988-.583.718 0 .744.022.52.441-.13.243-.41.582-.623.754-.334.271-.354.385-.145.844.314.689 1.133 1.02 2.113.854l.774-.131-.595.411c-.328.226-.867.469-1.199.541s-1.014.337-1.515.59c-.509.257-1.021.392-1.158.307-.316-.195.018-.489 1.045-.918.914-.382.767-.787-.217-.603-.383.072-1.627.54-2.763 1.041-1.774.781-2.083.988-2.187 1.458-.127.578-.56.851-2.082 1.314-.486.148-1.115.505-1.398.794s-.826.721-1.206.96-.744.659-.808.933c-.107.451-.131.461-.265.114-.25-.651-.627-.015-.648 1.095-.022 1.136-.598 1.912-1.862 2.505-1.295.609-3.139 2.047-3.512 2.74-.33.612-.343.851-.14 2.424.19 1.468.178 1.836-.071 2.319-.186.36-.404.532-.584.463-.429-.164-.953-1.928-.806-2.712.102-.544.035-.75-.371-1.131-.327-.307-.628-.424-.885-.342-.214.068-.819-.061-1.345-.287-.806-.346-1.063-.375-1.639-.185-.39.129-.778.434-.905.713-.189.415-.314.468-.836.356a5.68 5.68 0 0 1-1.153-.408c-.731-.373-1.14-.347-1.961.125l-1.736.936c-.657.339-1.109.724-1.227 1.048l-.818 2.44-.631 1.928.322 1.244c.592 2.286 1.417 2.971 3.134 2.602 1.295-.278 2.072-.84 2.358-1.706.181-.55.377-.732.963-.895.882-.245 1.25-.254 1.589-.039.279.177.181.469-1.071 3.179-.859 1.859-.797 2.026.675 1.813 1.34-.193 2.566-.045 2.709.328.056.145-.035 1.127-.202 2.181-.298 1.885-.296 1.928.133 2.622.24.388.69.837 1 .998.495.256.65.255 1.273-.005.989-.413 1.527-.37 2.214.18.55.44.627.452 1.059.169.256-.168.606-.584.777-.925.386-.768 1.036-1.309 1.581-1.314.228-.002.626-.229.884-.504.524-.558 1.447-.74.996-.196-.379.456-.595 1.923-.351 2.379.203.38.219.377.589-.079.263-.325.316-.533.172-.677-.343-.343-.24-.628.399-1.1.663-.49 1.176-.44 1.748.171.419.448 2.659 1.054 3.301.893.977-.245 3.618 1.36 4.611 2.803.472.687 1.982 1.378 2.646 1.212 1.365-.343 3.237 1.025 3.675 2.685.13.495.327.955.437 1.024.291.182-.145.899-1.099 1.807-.61.58-.755.83-.584 1.001s.454.021 1.131-.603c.985-.908 1.313-1 1.807-.507.3.3.291.361-.121.799-.245.261-.587.48-.76.487-.182.007-.109.095.175.208.39.156.594.112.999-.215 1.055-.852 1.303-.893 2.24-.37.609.34.853.599.822.873-.085.762.094.93.623.584.42-.275.708-.288 2.112-.096 1.494.204 1.69.286 2.406 1.003.532.532 1.131.882 1.883 1.101 1.01.294 1.119.383 1.302 1.063.265.986-.046 2.08-.887 3.119-.359.444-.8 1.096-.979 1.448a5.5 5.5 0 0 1-.846 1.161c-.484.484-.511.606-.391 1.756.236 2.248-.863 6.441-1.924 7.338-.345.292-.641.361-1.188.276-.45-.07-.783-.025-.871.117-.078.127-.515.394-.969.594s-1.132.624-1.505.943c-.645.551-.667.612-.45 1.27.25.759.082 1.657-.455 2.423a1.94 1.94 0 0 0-.315.936c0 .267-.208.764-.463 1.104s-.746 1.118-1.092 1.729c-.851 1.504-1.363 1.765-2.596 1.322-1.071-.383-1.642-.429-1.642-.131 0 .112.213.301.474.42s.667.603.903 1.075c.352.704.389.948.206 1.35-.284.623-1.369 1.146-2.377 1.146-.893 0-1.115.218-.806.795.191.356.062.928-.306 1.367-.03.036-.343-.084-.695-.266-.841-.436-1.139-.158-.714.664.173.334.502.667.731.74.394.125.398.153.078.506-.186.206-.283.519-.215.696.073.19-.09.601-.399 1.006-.502.658-.509.703-.187 1.195.184.281.471.563.638.627.602.231.701 1.019.243 1.919s-.53 1.804-.174 2.232c.323.39-.765 1.149-1.254.875h0zM46.013 31.363c.534-1.116 1.527-1.946 2.327-1.946.576 0 .583.093.055.764l-.415.527.425.344c.343.277.52.302.91.123.267-.122.54-.395.607-.607.092-.289.241-.357.593-.268.326.082.529.012.663-.228.406-.725-.627-1.653-1.388-1.246-.544.291-1.255-.288-1.103-.899.056-.226-.059-.621-.26-.885-.413-.545-1.041-.602-2.416-.221-.495.137-1.058.243-1.253.236s-.302.071-.238.174.043.19-.046.192-.385.176-.659.386l-.497.382.558.212c.436.166.694.142 1.178-.108.57-.295.675-.294 1.297.002.375.179.886.27 1.145.205s.523-.028.591.081-.213.255-.643.328c-1.169.198-1.777.684-2.625 2.104-.708 1.186-.749 1.329-.467 1.642.277.307.353.312.733.047.233-.163.649-.766.924-1.34h0zm3.63 1.233c.711-.363.78-.454.529-.705s-.409-.234-1.224.126c-.957.423-1.261.995-.529.995.224 0 .775-.187 1.224-.417zm3.542-1.51c.416-.292.432-.349.138-.513-.432-.242-1.716.175-1.716.557 0 .394.993.366 1.578-.044zm15.003 86.273c0-.088.108-.268.24-.4s.164-.24.072-.24-.276.148-.407.328c-.189.259-.32.281-.621.106-.215-.125-.268-.224-.12-.228s.206-.096.138-.206c-.13-.211.212-.268 1.199-.201.88.06.969.189.425.617-.507.399-.924.5-.924.224h0zm166.841-5.014c-.572-.362.619-1.162 3.57-2.398.824-.346 2.079-1.068 2.79-1.605 1.209-.913 1.309-.953 1.548-.611.364.519.15.895-.738 1.295-.425.191-.958.562-1.186.824s-.594.477-.814.477-.738.302-1.15.672c-1.412 1.267-3.2 1.866-4.02 1.346zm-13.981-2.595c-.208-.132-.22-.267-.05-.584.121-.226.22-.693.22-1.037 0-.563.045-.61.45-.468.247.087.764.17 1.148.184l.854.055c.331.062-.554 1.07-1.349 1.536-.947.555-.908.545-1.273.314h0zm23.085-1.747c-.07-.07.095-.301.365-.514.408-.321.456-.456.277-.789-.258-.482.126-.999 1.013-1.367.687-.284.86-.862.676-2.256-.127-.96-.111-1.019.198-.764.242.201.302.454.215.915-.094.505-.009.768.412 1.269.456.541.591.6.946.411s.394-.172.283.118c-.072.186-.13.374-.13.417s-.292.228-.65.411-1.053.667-1.548 1.075c-.804.664-1.631 1.2-1.851 1.2-.044 0-.137-.057-.206-.126h0zm-21.126-2.581c-.421-.447-.498-.465-.903-.2-.515.338-1.482.14-2.258-.46-.414-.32-.443-.424-.229-.822a.91.91 0 0 0 .023-.94c-.121-.266-.22-.659-.22-.874 0-.484-.314-.507-.574-.042-.107.191-.252.291-.322.221s.161-.456.514-.858c.868-.989.529-1.257-.617-.489-.495.331-.931.692-.97.803s-.277-.231-.528-.76c-.272-.575-.742-1.151-1.165-1.43-.635-.418-.85-.453-2.069-.331-1.788.178-3.514.619-4.643 1.187-.513.258-1.515.522-2.288.603-.756.079-1.958.364-2.671.632-1.091.411-1.402.454-1.954.272-.742-.245-1.05-.749-.57-.934.173-.066.489-.525.7-1.018.339-.79.358-1.036.157-2.057-.166-.845-.171-1.645-.017-2.945.116-.982.16-1.979.099-2.215s.034-.815.214-1.286c.317-.83.394-.884 2.537-1.792 1.216-.515 2.46-.936 2.765-.936.826 0 1.848-.786 2.412-1.853.348-.66.59-.911.799-.83.584.225.699.181.654-.251-.029-.278.091-.481.328-.556.206-.065.586-.429.845-.808a3.17 3.17 0 0 1 1.247-1.001c.729-.293.802-.288 1.199.072.732.665 1.25.86 1.498.561.121-.145.162-.321.092-.391-.229-.229.818-1.542 1.329-1.668.275-.068.839-.293 1.253-.501.647-.324.874-.345 1.599-.151 1.562.419 1.613.488 1.032 1.366-.747 1.129-.549 1.57 1.284 2.86.846.596 1.645 1.047 1.775 1.004s.542-.499.914-1.013c.508-.7.705-1.21.787-2.033.115-1.17.675-2.797.962-2.797.095 0 .312.481.483 1.069s.529 1.274.796 1.525c.624.586.986 2.224.706 3.192-.186.642-.15.744.486 1.398.378.388.975 1.335 1.327 2.104s.988 1.858 1.412 2.418l.771 1.02-.219 1.576c-.159 1.143-.406 1.905-.897 2.776-.753 1.334-1.879 2.606-2.472 2.795-.214.067-.708.568-1.099 1.112s-.798.989-.906.989-.564.467-1.016 1.038c-.752.951-.89 1.038-1.674 1.053-.602.011-1.062.175-1.556.551l-.702.535-.46-.49h0zm-97.415-4.2c-.423-.423-.494-.639-.4-1.222.089-.548.005-.871-.375-1.43-.27-.397-.491-.82-.491-.939s-.353-.691-.785-1.269c-.667-.895-.805-1.252-.915-2.383-.194-1.997-.831-4.158-1.688-5.725-.422-.77-.826-1.77-.9-2.222-.156-.962.235-2.393 1.126-4.128l.594-1.154-.334-1.004c-.186-.561-.277-1.226-.206-1.508.082-.33-.007-.723-.258-1.139-.212-.349-.526-1.129-.698-1.734-.23-.807-.551-1.332-1.21-1.978-1.266-1.242-1.43-1.731-1.037-3.083.8-2.752-.065-4.357-2.176-4.04-.822.123-.853.108-.969-.473-.089-.446-.331-.708-.937-1.017-.788-.402-1.126-.403-2.093-.009-.22.09-1.119.4-1.998.689-1.322.435-1.718.492-2.294.325-.545-.158-1.004-.117-2.119.189-1.153.316-1.571.35-2.193.178-1.3-.359-3.532-2.371-3.85-3.47-.246-.85-1.774-2.832-2.294-2.974-.331-.091-.371-.161-.169-.292s.168-.198-.15-.281c-.505-.132-.555-.545-.067-.549.299-.003.306-.031.05-.197-.189-.122-.21-.195-.057-.197.159-.002.098-.248-.174-.71-.383-.649-.391-.735-.098-1.059.894-.988 1.09-3.114.41-4.454-.324-.639-.116-1.523.576-2.441.261-.346.769-1.187 1.131-1.87.632-1.194 2.041-2.854 2.422-2.854.422 0 1.783-1.463 1.783-1.917 0-1.024.612-2.045 1.611-2.686.536-.344 1.164-.933 1.396-1.308.475-.767.542-.792 1.094-.407.217.151.755.335 1.197.409.673.113.995.032 1.997-.505 1.725-.922 2.791-1.153 4.765-1.03 1.302.081 1.888.029 2.519-.223.929-.372 1.733-.152 1.515.415-.065.17-.025.422.089.56.143.173.142.421-.004.805-.183.483-.143.627.312 1.101.288.3.803.602 1.145.67 1.606.321 2.062.529 2.394 1.09.243.411.561.622 1.088.721.409.077 1.003.274 1.321.438.538.279.608.268 1.057-.154.302-.284.439-.584.368-.807-.062-.196-.015-.539.105-.763.309-.578 1.187-.521 2.557.165 1.493.747 4.324 1.281 5.328 1.003.482-.133.947-.135 1.369-.005 1.381.424 2.087.092 2.276-1.069.062-.386.169-.701.237-.701.129 0 .197-.58.216-1.848.006-.412.103-.749.216-.749.135 0 .128-.145-.019-.42-.246-.459-.744-.449-1.936.041-.566.232-.723.222-1.23-.077-.657-.388-1.331-.446-1.525-.132-.145.234-1.166.07-1.72-.276-.398-.248-.77-.988-.77-1.532 0-.208-.203-.521-.45-.695-.382-.27-.405-.346-.15-.513.165-.108.504-.148.754-.089.318.075.611-.051.98-.42.348-.348.771-.54 1.245-.565.394-.021.966-.202 1.27-.402.66-.435 2.159-.314 3.322.268 1.568.785 2.961.739 3.521-.117.292-.445.293-.538.017-.961-.169-.257-.979-.85-1.8-1.317l-1.493-.85.279-.541c.154-.298.23-.591.168-.653s-.038-.23.052-.375a1.66 1.66 0 0 0 .204-.521c.046-.303-.277-.219-1.865.483-.923.408-1.06.533-.855.779.134.162.435.298.669.302.328.007.25.101-.34.412-.716.378-.796.383-1.262.078-.398-.261-.45-.382-.262-.61s.16-.313-.136-.424c-.205-.077-.469-.268-.586-.425-.573-.763-2.388 1.244-2.916 3.222-.248.929-.24.977.227 1.329l.484.365-.888.183c-.489.101-1.147.113-1.463.026-.584-.159-1.323.081-1.323.43 0 .103-.136.134-.303.07a.66.66 0 0 0-.586.12c-.242.201-.215.366.187 1.122.435.819.448.93.177 1.475-.34.682-.656.631-1.137-.182-.335-.567-.333-.58.11-.643.56-.079.596-.435.053-.522-1.237-.198-1.898-.85-1.898-1.875 0-.8-.741-1.682-1.64-1.951-.468-.14-.976-.434-1.129-.653s-.603-.534-.999-.7-.839-.471-.985-.679c-.209-.298-.346-.334-.652-.171-.214.114-.388.336-.388.493 0 .519 2.546 2.865 3.791 3.494 1.32.666 1.526.904.609.703-.818-.179-1.04 0-.761.614.197.431.165.562-.231.942l-.459.441.105-.595c.166-.945-1.08-2.302-2.113-2.302-.378 0-1.833-1.411-2.214-2.148-.407-.787-.86-.94-1.502-.504-.967.656-1.692.877-2.451.749-1.007-.17-1.641.181-1.48.821.083.334.037.483-.152.483-.149 0-.533.225-.852.499s-.65.499-.734.5c-.247 0-.944 1.262-.945 1.711-.001.429-.782 1.274-1.536 1.661-.24.123-.799.224-1.241.224-.61 0-.859.1-1.026.413-.219.409-.226.408-.738-.104-.48-.48-.757-.601-1.726-.751-.51-.079-.596-1.232-.215-2.874.163-.702.243-1.489.178-1.748-.189-.754.403-1.199 1.395-1.047 2.289.352 3.628.371 3.942.057.431-.431.625-1.854.362-2.651-.171-.52-.408-.733-1.112-1.002-1.036-.396-1.058-.778-.045-.788.386-.004.943-.165 1.237-.358s.62-.299.724-.235c.282.175 1.352-.442 1.707-.984.171-.262.509-.527.751-.588s.888-.531 1.438-1.042c.779-.726 1.187-.953 1.855-1.033.828-.099 1.66-.779 1.269-1.038-.243-.161-.446-1.128-.31-1.48.064-.167.347-.455.628-.639l.512-.335-.131.822c-.114.713-.085.814.22.763.194-.032.555-.171.804-.307.379-.208.472-.198.572.062.171.446-.305.971-.633.698-.182-.151-.297-.145-.398.019-.105.169-.187.16-.307-.035-.09-.146-.21-.219-.266-.163s.104.36.355.675c.424.531.504.556 1.108.346.517-.18.765-.168 1.205.06.497.257.665.245 1.62-.118.837-.318 1.167-.359 1.537-.19a.92.92 0 0 0 .909-.012c.899-.464 1.148-.814 1.036-1.457-.165-.953.138-1.265.936-.963.542.205.701.197.946-.049.26-.26.238-.356-.188-.809-.41-.436-.438-.544-.189-.713.162-.109.769-.148 1.349-.087 1.061.112 2.383-.302 2.153-.675-.202-.326-1.42-.421-2.451-.19-.916.205-1.156.188-1.857-.128-1.089-.491-1.218-1.066-.471-2.107.962-1.34 1.138-1.767.864-2.097-.406-.489-.804-.329-1.731.692-.489.54-1.157 1.092-1.482 1.227s-.729.509-.896.832c-.272.525-.271.635.004 1.055.169.258.489.527.712.598.613.195.492.559-.385 1.159-.269.184-.629.706-.799 1.16a2.27 2.27 0 0 1-1.041 1.247c-.712.411-.745.412-1.138.057a2.03 2.03 0 0 1-.525-.913c-.066-.301-.366-.842-.667-1.202l-.546-.655-.693.422c-.381.232-.873.421-1.093.419-.634-.006-1.368-.691-1.417-1.322-.024-.314-.106-.725-.181-.913-.179-.447.715-1.287 1.645-1.543s2.826-1.584 3.148-2.206c.144-.277.63-.834 1.08-1.238s.819-.824.819-.932.427-.35.949-.536l1.948-.75c.675-.278 1.518-.425 2.597-.453 1.886-.048 3.119.202 4.137.838.51.319.913.428 1.299.351.689-.138 4.366 1.002 4.519 1.401s-.9.78-1.807.649l-1.91-.356c-.855-.183-1.213-.188-1.379-.022s-.083.289.32.473c.3.137.675.5.834.807.404.782 1.7 1.42 2.368 1.166.642-.244.638-.321-.04-.689-.627-.34-.337-.413.45-.114.628.239 1.34-.058 1.174-.49-.078-.202.141-.349.757-.506 1.318-.338 1.414-.386 1.305-.653-.414-1.011-.419-.982.182-.913.321.037.556.174.529.31s.141.345.372.468c.347.186.62.12 1.574-.38 1.398-.733 2.487-.972 2.892-.635.227.188.602.189 1.688.006.769-.13 1.485-.182 1.591-.116s.253.025.325-.092c.158-.255-.278-.833-.516-.685-.288.178-1.233-.141-1.027-.346s5.766 1.089 6.099 1.421c.224.224.935-.075.935-.394 0-.107-.397-.388-.882-.623-1.502-.73-1.599-1.899-.185-2.254.82-.206 1.174.032 2.309 1.546 1.472 1.966 1.435 1.866.954 2.542-.357.5-.378.617-.131.712.468.18 1.471-.449 1.612-1.011.165-.659-.143-1.22-.881-1.601-.579-.3-.998-.849-.998-1.308 0-.156.217-.195.649-.117.647.118 1.183-.117 2.65-1.162.335-.239.902-.397 1.474-.41 1.16-.026 1.535-.221 1.201-.623-.131-.158-.196-.328-.145-.379.255-.255 3.544-.715 4.301-.601.729.109.955.05 1.554-.407.386-.294.702-.614.702-.711 0-.244-1.746-.222-1.898.024-.209.339-.481.221-.404-.176.064-.335-.105-.389-1.56-.502-3.974-.309-4.297-.382-3.82-.859.419-.419 1.447-.411 2.308.018.352.176.936.32 1.297.32s.713.09.78.2.418.2.778.2c.996 0 2.923.43 2.802.626-.059.095.127.173.414.173s.809.155 1.161.344c.473.254 1.133.346 2.537.352 1.509.006 2.01.084 2.447.378.302.204.548.428.547.497s-.463.381-1.025.691c-1.357.749-1.07 1.075.571.65 1.064-.276 1.308-.277 2.188-.016.722.214 1.173.242 1.663.102s.991-.11 1.843.111c.888.23 1.349.254 1.912.097 1.285-.357 2.866-.256 3.784.241l1.868 1.017c1.013.553 1.058.559 1.761.244.588-.264.916-.286 1.784-.12.862.165 1.176.145 1.662-.106.475-.246.552-.367.371-.585-.351-.423.893-.58 2.423-.306l1.972.278c.385.028 1.136.247 1.67.487.814.366 1.428.449 3.81.515 2.26.062 2.979.153 3.524.443.554.295 1.184.37 3.282.39 1.931.019 2.795.11 3.368.356.924.397 1.294.252.791-.312-.362-.405-.36-.406 1.036-.267 2.338.232 5.143.744 6.093 1.112a10.62 10.62 0 0 0 2.094.494c.657.08 1.617.36 2.132.621.781.396 1.035.44 1.537.265.687-.239 1.132-.067 2.18.843l.651.566-.49.123c-.493.124-1.801-.2-2.252-.557-.132-.105-.318-.143-.413-.085s-.562-.028-1.038-.192c-1.116-.385-1.612-.24-1.103.322.347.384.339.392-.323.345-1.239-.087-.898.279.921.989l1.892.792c.187.181-.431.406-.881.32-.494-.094-1.711.436-1.711.745 0 .103-.192.366-.427.585-.393.366-.474.374-.999.102-.491-.254-.648-.257-1.121-.019a6.41 6.41 0 0 1-1.147.421c-.329.079-.711.237-.847.35-.402.334.307 1.305 1.305 1.788.544.263.937.616 1.055.945a8.09 8.09 0 0 0 .484 1.053c.266.474.264.541-.023.651-.209.081-.271.242-.18.471.077.191.163.573.192.847s.118.649.196.831c.102.238.018.371-.297.471-.351.111-.587-.023-1.163-.66-.398-.44-1.062-1.045-1.475-1.346s-1.153-1.081-1.645-1.735c-.867-1.154-.885-1.206-.597-1.763.163-.316.3-.78.304-1.033s.13-.683.281-.956c.289-.521.178-.937-.439-1.645-.405-.465-1.126-.116-.944.456.167.527-.346.698-.937.312-.256-.168-.846-.365-1.31-.44-.798-.127-.857-.103-1.064.439-.12.316-.171.815-.112 1.109.091.459.028.553-.444.656-.321.07-.871-.013-1.319-.2-.492-.206-.956-.268-1.29-.173-.286.081-1.255.155-2.153.164-1.422.014-1.695.076-2.128.482-.272.256-.6.886-.728 1.398s-.362 1.133-.52 1.377c-.274.423-.248.465.535.865.85.434 1.776.548 2.479.306.541-.187 2.194 1.102 2.71 2.113.212.414.561.848.777.963.816.437.981 3.302.299 5.175-.472 1.297-1.001 1.721-1.778 1.426l-.606-.205c-.036 0-.259.369-.494.82-.308.592-.368.89-.216 1.073.291.351.076.807-.507 1.072-.268.122-.488.31-.488.416s.625.624 1.389 1.149c.972.669 1.491 1.183 1.729 1.711.188.415.304.788.26.828s-.453.261-.908.49l-.826.416-.497-1.141c-.557-1.277-1.034-1.791-1.875-2.017-.423-.114-.571-.276-.571-.625 0-.321-.207-.593-.647-.851-.641-.376-.654-.375-1.337.047s-.691.422-.9.03c-.117-.218-.212-.533-.212-.701s-.168-.396-.373-.505c-.305-.163-.498-.065-1.059.542-.377.408-.861.841-1.074.963-.331.188-.349.268-.121.543.148.177.656.539 1.129.804.754.421.898.445 1.152.191.242-.242.438-.25 1.167-.053l.877.238-.489.327c-.906.606-1.191.924-1.321 1.47-.106.449-.043.584.36.767.269.122.677.611.908 1.086s.691 1.024 1.024 1.22c.731.432.943.891.521 1.127-.394.22-.206.55.314.55.622 0 .625.371.024 2.513-.728 2.594-1.386 3.46-3.106 4.089-.677.248-1.501.465-1.831.484-.766.042-1.36.367-1.879 1.026l-.411.523-.192-.505c-.251-.658-.825-.824-1.649-.475-.755.32-1.253.829-1.454 1.488-.179.59.457 1.627 1.511 2.461.864.685 1.835 2.404 2.063 3.655.198 1.088-.153 1.802-1.095 2.227-.43.194-.831.511-.893.705-.148.467-1.035 1.048-1.198.785-.067-.11-.07-.366-.006-.569a1.22 1.22 0 0 0-.007-.694c-.098-.257-.207-.28-.523-.111-.328.176-.455.131-.72-.253-.652-.945-2.542-2.465-3.066-2.465-.184 0-.255.222-.224.699.025.385-.053 1.134-.174 1.666-.197.867-.177 1.025.195 1.528.228.309.471.787.541 1.063s.648.921 1.309 1.451c1.101.883 1.217 1.058 1.681 2.525l.497 1.766c0 .339-.417.201-1.288-.424-.9-.647-1.475-1.669-1.955-3.478-.208-.785-.436-1.122-1.084-1.598-.795-.584-.819-.636-.755-1.603l.2-1.73c.104-.567.018-.972-.38-1.798-.282-.587-.617-1.487-.742-2.002-.282-1.149-.679-1.342-1.381-.669-.29.278-.584.506-.652.506-.318 0-.755-.677-.65-1.007.19-.6-.98-2.69-1.665-2.974-.375-.155-.718-.532-.947-1.04-.398-.883-.845-1.221-1.292-.977-.162.089-.81.267-1.441.396-1.156.237-1.57.587-1.412 1.192.058.223-.144.438-.629.669-.393.188-.817.565-.942.838s-.398.552-.609.619-.536.373-.722.68-.743.868-1.235 1.246c-.674.518-.885.808-.851 1.172.196 2.13-.105 3.913-.839 4.971-.715 1.032-.765 1.061-1.371.785-.333-.152-.538-.448-.623-.901-.069-.371-.472-1.417-.894-2.323-2.555-5.487-2.932-6.533-2.715-7.524.147-.67-.205-1.68-.546-1.565-.137.046-.251.21-.254.366-.017.912-1.042 1.052-1.842.252l-.53-.53.456-.169c.513-.19.466-.702-.056-.608-.185.033-.61-.169-.943-.45s-.683-.51-.778-.51-.228-.181-.298-.402c-.184-.58-1.244-1.085-1.775-.845-.478.215-4.814.17-5.54-.058-.262-.082-.745-.458-1.075-.835-.596-.682-.605-.684-1.498-.444-.847.228-.97.207-2.11-.369-.986-.498-1.281-.766-1.585-1.44-.388-.861-1.25-1.484-1.774-1.283-.165.063-.358.378-.429.699-.101.461.002.761.492 1.427.341.464.713 1.187.826 1.607.243.902.723 1.171 1.12.627.24-.328.305-.34.468-.082.103.164.159.389.124.498-.111.345 1.042.914 1.58.779.272-.068.852-.531 1.29-1.029.691-.784.932-.837.814-.179-.08.443.269.963.846 1.261.892.461 2.133 1.488 2.133 1.764 0 .127-.233.449-.518.716s-.697.83-.913 1.252c-.527 1.027-2.052 2.528-2.569 2.528-.597 0-1.485.504-1.839 1.044-.167.256-.607.616-.978.801-1.899.948-4.185 1.909-4.829 2.03-.687.129-.743.098-1.108-.621-.211-.416-.45-1.251-.532-1.855-.106-.786-.312-1.286-.723-1.755-.316-.361-.574-.743-.574-.849s-.361-.564-.801-1.018c-.549-.565-.904-1.179-1.126-1.948-.179-.617-.542-1.392-.807-1.722-1.834-2.277-2.377-3.08-2.65-3.918-.362-1.111-.668-1.291-.81-.474l-.1.579-.676-.853c-1.041-1.315-1.173-.717-.195.888l1.639 2.979c.439.879 1.007 1.876 1.264 2.216.264.35.466.897.466 1.262 0 .753.225 1.223 1.107 2.315.355.44.705 1.081.779 1.426.094.442.48.904 1.309 1.569 1.26 1.011 2.076 2.065 2.279 2.944.076.33.364.669.73.858.557.288.753.28 2.514-.101 1.05-.228 2.163-.545 2.472-.705l.563-.291.134.791c.121.719-.01 1.065-1.432 3.792-1.529 2.933-1.601 3.03-3.121 4.23-.856.676-1.752 1.503-1.99 1.838s-1.003 1.241-1.698 2.013c-2.028 2.252-2.304 4.233-.959 6.887.342.674.475 1.185.394 1.507-.067.268-.024.946.096 1.506.189.882.168 1.118-.159 1.759-.473.925-.849 1.258-2.169 1.92-.577.289-1.049.611-1.049.715s-.404.645-.899 1.202-.899 1.103-.899 1.213.186.564.412 1.008c.679 1.331.223 2.296-1.405 2.97-.686.284-.912.865-.742 1.911.089.548.032.731-.278.897-.215.115-.602.542-.862.949-.818 1.286-3.173 3.562-4.242 4.101-.892.451-1.121.49-1.776.309-.578-.159-1.045-.134-2.014.109-1.57.395-1.403.411-2.011-.197h0zm26.313-63.719c.516-.267.59-.413.59-1.174 0-.545-.117-.966-.313-1.129-.172-.143-.451-.526-.62-.853-.279-.54-.278-.582.013-.47.385.147.92-.03.92-.305 0-.109-.186-.459-.413-.778-.343-.48-.48-.545-.8-.373-.258.138-.386.14-.386.004 0-.111-.356-.385-.792-.607-.964-.492-1.308-1.037-1.007-1.599.228-.425 1.041-.723 1.388-.509.469.29.607-.137.22-.68-.937-1.316-2.241-1.229-3.859.256-1.044.959-1.135 1.213-.545 1.529.22.118.4.348.4.511s.355.683.79 1.154c1 1.085 1.183 1.581 1.06 2.865l-.1 1.034 1.373.704 1.432.714c.033.005.325-.127.649-.295h0zm-5.504 55.804c-.564-.32-.644-.489-.791-1.668-.118-.942-.069-1.147.495-2.063.573-.931.614-1.11.488-2.122-.183-1.46.128-2.228.977-2.414.799-.175 2.529-1.703 2.944-2.599l.317-.685.22.483c.554 1.216.498 1.75-.466 4.417l-1.23 3.793c-.514 2.11-.805 2.619-1.647 2.871-.896.268-.809.269-1.307-.013h0zm98.411-3.473c-.638-.697-1.019-1.296-1.019-1.598 0-.67.107-.612.684.372.276.47.774 1.117 1.107 1.436s.606.654.606.743c0 .384-.425.09-1.378-.952h0zm-89.121-.284a.2.2 0 0 1 .4 0 .2.2 0 0 1-.4 0zm105.205-.364c-.071-.114-.031-.267.088-.341.297-.184.402-.038.204.283-.107.172-.209.192-.292.058h0zm-103.807-.323c0-.049.09-.144.2-.212s.2-.028.2.088-.09.212-.2.212-.2-.04-.2-.088zm98.611-2.028c-.194-.507.053-.685.603-.434.476.217.486.25.155.492-.463.339-.61.328-.758-.058zm1.266-.888c-.39-.241-.12-.434.501-.357.487.06.498.082.15.296-.222.137-.488.162-.651.061h0zm-9.327-.733c-.411-.883-.267-1.223.157-.372.442.885.45.914.242.912-.082-.001-.262-.244-.399-.539h0zm.765-.142c-.009-.21.038-.328.104-.262s.074.239.016.383c-.064.159-.111.112-.121-.121h.001zm16.263-1.918c-.182-.296-.009-.447.418-.364.312.061.315.093.033.327-.225.186-.352.197-.451.037h0zm-118.066-.995c-.068-.11-.028-.2.088-.2s.212.09.212.2-.04.2-.088.2-.144-.09-.212-.2zm87.702-1.877c-1.264-.399-1.837-.769-2.335-1.509-.568-.845-1.608-1.484-2.14-1.316-.214.068-.576.439-.803.824-.386.655-.461.691-1.163.566-.413-.073-.989-.356-1.281-.628-.371-.346-.655-.455-.945-.363-.228.072-.558.051-.734-.047-.274-.154-.247-.226.192-.514.509-.333.509-.338.168-1.054-.274-.575-.652-.875-1.889-1.496-.851-.428-1.812-.778-2.137-.778-.743 0-1.05-.685-.49-1.094.333-.243.284-.304-.584-.726-.923-.448-.936-.467-.495-.712a2.28 2.28 0 0 1 .89-.258c.468-.008 1.061.668 1.061 1.209 0 .18.194.575.431.877.426.541.437.543.749.153.175-.218.732-.634 1.239-.924l.921-.528 1.276.576 2.215.914c.516.186 1.549.739 2.294 1.229 1.424.935 2.042 1.724 1.688 2.151-.289.349.846 1.936 2.022 2.826 1.293.979 1.271 1.069-.15.621h0zm8.695-.016c-.158-.19-.173-.304-.041-.304.242 0 .523.379.385.518-.05.05-.205-.046-.344-.213h0zm-33.567-.813c-.29-.16-.373-.278-.2-.28.357-.005.928.328.793.462-.052.052-.319-.03-.593-.182zm3.378-.264c.566-.796 1.453-1.136 2.273-.873.597.192.606.208.132.227-.281.011-.936.29-1.455.62-1.187.752-1.473.76-.95.026h0zm28.986.273c-.27-.325-.205-.366.283-.178.174.067.316.202.316.3 0 .276-.323.211-.599-.121h0zm.936-.176c-.075-.196-.131-.506-.124-.689.008-.221.078-.17.205.149.106.265.162.575.124.689s-.13.047-.205-.149zm15.446.188c0-.048.09-.144.2-.212s.199-.028.199.088-.09.212-.199.212-.2-.04-.2-.088zm-51.094-.839c-.139-.058-.201-.188-.139-.289.153-.247 1.434-.233 1.588.017.068.11.006.201-.138.203s-.441.041-.661.089-.512.038-.65-.02h0zm2.965-.15c-.363-.437.056-.571.997-.317.948.255.945.295-.038.473-.51.092-.791.047-.959-.156h0zm29.995-.121c-.138-.221-.162-.4-.055-.4s.291.18.409.4.142.4.055.4-.271-.18-.409-.4h0zm1.252-.201c-.535-.59-.249-.683.301-.098.258.274.377.499.265.499s-.367-.18-.566-.401h0zm-37.458-.035c-.714-.099-1.721-.319-2.237-.488s-1.126-.249-1.353-.177c-.457.145-2.403-.427-2.403-.706 0-.639 1.791-.687 2.743-.074.355.229.635.244 1.386.076.833-.186 1.006-.164 1.495.198.304.225.643.409.754.409.395 0 1.594.668 1.493.832-.057.092-.21.154-.341.139l-1.537-.208h0zm35.86-.963c-.198-.22-.271-.4-.161-.4s.362.18.561.4.272.4.162.4-.363-.18-.562-.4zm-1.259-.253c-.114-.137-.265-.518-.335-.847-.114-.53-.101-.553.111-.199.133.22.369.548.526.729.165.192.205.379.094.447-.105.065-.283.006-.396-.131zm-4.231-.635l-.497-.275.77-.144c.423-.079 1.073-.411 1.445-.738.406-.356.675-.485.673-.323-.005.406-.25.719-.997 1.27-.78.575-.743.57-1.394.21h0zm-37.476-.778c-.734-.418-2.057-2.036-2.488-3.041-.233-.542-.766-1.436-1.184-1.985s-.9-1.269-1.068-1.598-.682-.959-1.139-1.398c-.965-.927-1.558-1.9-1.154-1.894.524.009 1.874.759 2.452 1.364 1.597 1.667 1.924 1.963 2.678 2.428.727.448 1.072.915 1.106 1.498.007.11.214.424.46.699l1.033 1.148c.322.357.643.913.714 1.237.233 1.059-.62 1.992-1.41 1.543h0zm-40.241-.132a.2.2 0 0 1 .4 0 .2.2 0 0 1-.4 0zm52.84-.002c-.068-.111-.069-.376-.002-.59s-.014-.599-.184-.857c-.278-.425-.275-.514.029-.947.184-.263.402-.97.483-1.571.101-.741.299-1.243.618-1.562.436-.436.546-.455 1.526-.269.841.16 1.172.14 1.631-.097.767-.397.823-.379.568.18-.324.711-.971.938-1.653.58-1.218-.638-2.835.31-1.982 1.163.313.314.487.342 1.067.175.996-.285 1.388-.233.77.103-.7.38-.832.802-.472 1.499.164.317.298.809.298 1.093 0 .455-.047.491-.399.302-.22-.118-.538-.543-.706-.944-.302-.725-.308-.728-.695-.34-.34.34-.363.491-.177 1.165.168.609.157.81-.053.943-.353.224-.517.217-.668-.026h.001zm27.41-1.065c-.189-.287-.62-.666-.959-.841s-.571-.363-.516-.418c.311-.311 2.044 1.1 1.897 1.543-.046.136-.227.014-.422-.284zm-31.373-.665c-.301-.158-.707-.236-.902-.175-.497.158-2.471-.244-2.667-.543-.155-.238-.613-1.701-.858-2.745-.067-.287 0-.659.157-.874.229-.312.347-.336.709-.142.383.204.464.169.673-.29.131-.288.567-.691.97-.896.425-.217.835-.624.98-.974.167-.404.472-.675.93-.826.374-.124.915-.532 1.201-.908s.628-.683.758-.683.524.297.876.659l.639.66-.512.689c-.582.783-.552 1.456.108 2.382l.399.561-.498.326c-.273.179-.497.436-.496.571.002.458-1.279 3.095-1.6 3.296-.223.139-.483.113-.867-.088h0zm11.606-.004c-.414-.108-.471-.462-.075-.462.151 0 .574.06.939.133.563.113.606.156.275.286-.434.17-.627.177-1.139.043h0zm31.814-2.547c0-.048.09-.144.2-.212s.2-.028.2.088-.09.212-.2.212-.2-.04-.2-.088zm-32.514-.542c-.16-.16-.169-.345-.031-.603.11-.205.147-.459.081-.565-.18-.292.272-.999.638-.999.294 0 .292.034-.013.372-.264.292-.293.485-.137.897.318.834-.027 1.409-.538.898h0zm-100.338-.657c0-.048.09-.144.2-.212s.2-.028.2.088-.09.212-.2.212-.2-.04-.2-.088zm138.546-.511c-.068-.11-.028-.2.088-.2s.212.09.212.2-.04.2-.088.2-.144-.09-.212-.2zm-137.347-1.886c0-.048.09-.144.2-.212s.2-.028.2.088-.09.212-.2.212-.2-.04-.2-.088zm96.095-3.004c-.381-.889-.432-.929-1.018-.8s-.605.113-.386-.296c.181-.339.349-.406.779-.312.414.091.679-.001 1.085-.377.295-.274.539-.659.541-.857.006-.504.748 1.187.918 2.091.128.687.112.724-.2.465-.464-.384-.91.014-.529.473.151.183.171.308.047.308-.114 0-.349.054-.522.121-.232.089-.419-.124-.715-.815h0zm-36.425.353c-.224-.363-.351-1.991-.189-2.423.171-.458.184-.453.693.3.61.901.805 1.48.604 1.788-.193.295-.985.535-1.108.335zm44.614-1.033c0-.11.09-.255.2-.323s.199-.034.199.076a.44.44 0 0 1-.199.323c-.11.068-.2.034-.2-.076zm31.365-.024c0-.11.039-.2.088-.2s.144.09.212.2.028.2-.089.2-.211-.09-.211-.2zm-45.35-1.154c0-.085.401-.602.89-1.149.718-.801.892-.914.899-.583.005.226-.295.743-.667 1.149-.631.688-1.122.944-1.122.583h0zm4.327-.533c-.072-.19-.058-.478.033-.64.141-.252.2-.254.397-.016.176.213.169.364-.033.64-.248.339-.273.34-.397.016h0zm-152.987-.778c.122-.148.163-.327.091-.4s.055-.132.283-.132c.316 0 .389.095.31.4-.061.232-.273.4-.505.4-.313 0-.352-.059-.178-.268zm154.328-.053l-.216-.528c-.045-.082.003-.15.107-.15.199 0 .48.82.332.969-.048.048-.149-.083-.223-.291h0zm-2.025-.521c-.28-.338-.007-.819.413-.726.263.059.273.142.062.533-.204.377-.292.413-.475.193h0zm2.362-.687c-.229-.291-.383-.563-.342-.604.162-.162.724.195 1.023.651.459.701-.124.661-.681-.047zm-3.284-.773c-.178-.178-.323-.427-.323-.553s.197-.033.438.209.387.49.324.553-.261-.031-.439-.209zM53.338 59.25a.55.55 0 0 1-.133-.34c0-.125.093-.113.236.03.13.13.19.283.133.34s-.163.043-.236-.03h0zm-1.132-.266c0-.11.04-.2.088-.2s.144.09.212.2.028.2-.088.2-.212-.09-.212-.2zm9.389-.399c0-.11.04-.2.088-.2s.144.09.212.2.028.2-.088.2-.212-.09-.212-.2zm150.568-.03c-.201-.113-.58-.151-.844-.085-.387.097-.654-.059-1.378-.804-1.023-1.053-1.222-1.496-.921-2.057.116-.217.21-.664.21-.995 0-1.084.727-1.041 1.259.076.295.619.297.751.02 1.415-.299.714-.293.746.24 1.302.384.401.673.538.977.461.256-.064.533.015.685.198.359.434.202.743-.248.489h0zM60.397 57.297c0-.048.09-.144.2-.212s.2-.028.2.088-.09.212-.2.212-.2-.04-.2-.088h0zm31.365-.711a.2.2 0 0 1 .2-.2.2.2 0 0 1 .2.2.2.2 0 0 1-.2.2.2.2 0 0 1-.2-.2zm-31.964-.776c0-.11.09-.255.2-.323s.2-.034.2.076-.09.255-.2.323-.2.034-.2-.076zm-1.697-.82c-.07-.113.01-.147.188-.078.346.133.409.276.122.276-.103 0-.243-.089-.31-.198zm31.763-.002c-.068-.11-.028-.2.088-.2s.212.09.212.2-.04.2-.088.2-.144-.09-.212-.2h0zm-30.966-.4c-.068-.11-.028-.2.088-.2s.212.09.212.2-.04.2-.088.2-.144-.09-.212-.2zm.899 0c0-.11.04-.2.088-.2s.144.09.212.2.028.2-.088.2-.212-.09-.212-.2zm-13.735-.532c-.137-.055-.25-.183-.25-.284 0-.288.882-.214 1.31.11.368.279.358.293-.212.284-.33-.005-.712-.055-.849-.11h0zm5.055-.113c-.179-.1-.575-.128-.88-.061s-.773.034-1.041-.073c-.431-.172-.393-.193.33-.176 1.062.025 1.346-.148 1.074-.655-.193-.36-.135-.387.818-.387.922 0 2.252.423 2.477.788.15.242-2.421.765-2.779.565zm3.832.126c-.237-.237.058-.48.581-.48.314 0 .473.094.422.25-.092.28-.793.441-1.003.23zm144.535-.318c-.529-.529-.006-1.161.961-1.161.429 0 .429.004.062.633-.429.734-.685.866-1.023.528zm-142.884-.041c0-.043.135-.13.3-.194s.3-.028.3.078-.135.194-.3.194-.3-.035-.3-.078h0zm-8.636-1.432c-.062-.062-.483-.117-.937-.123-.626-.009-.776-.07-.623-.255.148-.179-.065-.417-.799-.893-1.44-.933-2.244-1.115-3.211-.728-.907.363-.977.373-.977.145 0-.418 1.59-.878 2.735-.791 1.095.083 1.708.316 3.858 1.466 1.767.945 1.769.947 1.199 1.11-.648.185-1.104.21-1.244.07h0zm1.444-1.686c.387-.25.599-.25.599 0 0 .11-.202.198-.45.197-.364-.002-.392-.04-.15-.197zm159.103-.354c-.121-.08-.329-.352-.462-.605-.201-.381-.18-.566.122-1.083.466-.798.781-.897.932-.295.159.634-.301 2.175-.592 1.982h0zm-157.791-.266c.133-.216.886-.24.886-.029 0 .082-.224.163-.498.179s-.448-.052-.388-.15h0zm-3.95-1.925c-.32-.367-.273-.85.082-.85.114 0 .16.175.105.39s.001.427.127.472.175.14.111.211-.255-.029-.423-.222h0zm1.16-1.569c-.071-.185-.084-.382-.029-.437s.158.052.229.237.084.382.029.437-.158-.052-.229-.237zm-1.252-.18c0-.165.171-.3.38-.3.338 0 .347.033.081.3-.165.165-.336.3-.381.3s-.081-.135-.081-.3h0zm167.547-4.38c0-.156-.218-.544-.485-.861-.633-.752-.409-1.255.341-.763.539.353.821 1.075.622 1.593-.151.393-.478.414-.478.031h0zM59.199 40.716c0-.048.09-.144.2-.212s.2-.028.2.088-.09.212-.2.212-.2-.04-.2-.088zm156.14-.245c-.129-.338.176-.657.635-.662.317-.004.323.443.01.756-.326.326-.493.301-.645-.094zm1.825-.729c-.387-.592-.935-.673-2.19-.325-.51.142-.861.143-1.098.005-.192-.112-.244-.206-.115-.209s.505-.234.836-.513c.427-.359.74-.472 1.078-.387.357.09.743-.082 1.555-.692 1.581-1.188 1.723-1.562 1.08-2.831-.617-1.218-.445-1.61.47-1.07.665.393 1.292 1.519 1.11 1.994-.065.171.032.707.218 1.192.261.686.286.974.112 1.301-.257.48-.971.8-1.783.8-.455 0-.591.117-.74.635l-.182.635-.351-.535h0zm-80.931-.682c-.239-.238-.112-.453.268-.453.213 0 .443-.09.511-.2.186-.3.502-.24.382.073-.123.321-.988.753-1.161.58zm-6.813-.346l-.599-.274.799-.014c.995-.017 1.729.17 1.584.403-.16.26-1.096.2-1.784-.115h0zm-8.07-1.993c-.8-.409-.837-.46-.42-.57.5-.131 1.607.032 1.584.233-.008.069-.075.274-.15.456-.123.299-.22.288-1.014-.119h0zm-4.004-2.161c-.173-.496-.16-.686.065-.91.406-.406.722-.121.722.653 0 .914-.501 1.078-.787.258h0zm-4.685.166c.142-.369.75-.432.627-.064-.045.137-.232.279-.415.314-.232.045-.296-.031-.212-.25h0zm104.384-2.28c-.365-.514-.376-.608-.105-.994.265-.379.264-.492-.009-1.021-.45-.869-.387-.922.393-.327.385.294 1.145.666 1.689.828 1.124.334 1.395.596.809.782-.221.07-.402.258-.402.418 0 .217-.138.255-.549.149-1.054-.27-1.354-.204-1.286.283.083.596-.052.567-.54-.118h0zm-99.378.235c-.232-.232-.145-.619.166-.738.217-.083.3.022.3.378 0 .48-.196.631-.466.36zm98.111-4.212c-.17-.192-.578-.889-.908-1.549s-1.202-1.87-1.938-2.691c-.822-.917-1.24-1.525-1.084-1.577.14-.047.44.162.667.464.55.732 1.226 1.367 2.294 2.155.886.652 1.323 1.256.752 1.037-.658-.253-.494.347.358 1.307l.904 1.11c0 .243-.772.054-1.045-.256zm-146.191-.35c0-.165.087-.3.194-.3s.142.135.078.3-.15.3-.194.3-.078-.135-.078-.3zm-1.044-.645l-.744-.078 1.4-1.387c.77-.763 1.501-1.387 1.624-1.387.13 0 .091.147-.093.35-.416.459-.132.976.628 1.143.332.073.663.327.79.608.205.45.17.496-.522.688-.726.202-1.593.219-3.084.063h0zm-48.68-1.433c-.692-.646-.769-.919-.31-1.095.411-.158 1.17.356 1.457.988.302.662.296.687-.148.687-.208 0-.658-.261-.999-.58zm87.98-1.015c.22-.108.653-.288.961-.4.681-.245.568-.507-.293-.679-.59-.118-.611-.148-.273-.395.201-.147.307-.362.235-.478s.133-.302.469-.419c.33-.115.599-.298.599-.406 0-.461-.416-1.238-.647-1.207-.534.07-.781-.024-.695-.264.05-.137.009-.407-.09-.599-.257-.5.334-1.534.883-1.545.082-.002.127.107.1.242s.161.277.419.316l.469.071-.448.477-.448.477.505.192c.542.206 1.064.878 1.596 2.052.255.563.423.71.72.632.611-.16.683.254.111.629-.388.254-.462.398-.292.567s-.165.284-1.327.452l-2.254.354c-.535.099-.605.083-.3-.068h0zm-3.369-1.104c-.068-.178.01-.583.174-.899.187-.363.224-.621.098-.698-.346-.214-.216-.487.292-.615.27-.068.596-.249.724-.403.266-.321 1.497-.38 1.682-.081.067.11-.017.399-.188.644s-.312.683-.312.976c0 .445-.137.579-.849.826l-1.173.435c-.208.09-.368.025-.448-.184h0zm3.669-1.985c0-.048.09-.144.2-.212s.2-.028.2.088-.09.211-.2.211-.2-.04-.2-.088zm-88.661-.963c-.196-.236-.183-.346.062-.55.406-.337.607-.108.371.421-.163.365-.222.383-.433.128h0zm-.312-1.502c-.067-.109.011-.31.175-.445.325-.269.393-.058.12.373-.104.165-.22.193-.294.073zm-12.913-.127c0-.141.606-.386 1.465-.595.326-.079.518-.06.454.045s-.362.232-.666.294-.711.172-.903.247-.35.078-.35.009h0zm118.717-2.246c-.368-.149-.303-.378.117-.41.201-.015.366.101.366.257 0 .297-.069.319-.483.152zm-43.901-1.021c-1.264-.689-1.869-1.749-1.502-2.633.173-.418.179-.682.02-.979-.331-.618.101-1.343 1.205-2.022.524-.323 1.048-.763 1.163-.979.32-.598.035-1.623-.522-1.876-.282-.128-.435-.331-.373-.494.142-.37-.523-1.632-1.186-2.25-.488-.455-.697-.501-2.367-.511-2.273-.015-2.697-.141-2.659-.794.016-.271.076-.493.133-.493s.867-.094 1.798-.208c1.189-.146 2.255-.448 3.58-1.013 2.052-.875 2.208-.892 7.103-.777 1.546.036 2.968-.078 4.795-.386 1.701-.286 2.953-.394 3.629-.313.574.069 1.406.024 1.875-.103 1.09-.293 3.92.06 5.034.628.658.336 1.006.38 2.117.27 1.2-.119 1.29-.104.93.161-.22.161-.894.359-1.499.438-1.311.173-2.516 1.107-2.197 1.704.138.257.039.477-.406.904-.324.31-.636.713-.694.895-.139.438-1.905 1.254-2.781 1.284-.973.034-1.074.241-.322.655a11.38 11.38 0 0 1 1.153.741l.507.385-.458.169c-.351.13-.636.046-1.22-.359-.793-.549-1.646-.552-1.191-.004.177.214.135.297-.197.384-.742.194-.217.578.602.44.521-.088.814-.042.977.155.194.234-.059.342-1.514.648-.961.202-2.241.375-2.846.384-1.123.017-1.932.339-3.122 1.244-.388.295-1.213.587-2.178.772-2.017.386-2.699.832-3.914 2.563-.976 1.39-1.565 1.908-2.174 1.913-.165.001-.749-.243-1.298-.542h0zm-14.165-1.336c-.429-.264-.955-.755-1.168-1.093-.417-.659-.801-.742-1.927-.419-.381.109-.809.12-.98.024-.592-.331.477-.657 1.667-.508.905.113 1.106.081 1.212-.194.212-.553 1.183-.949 1.722-.703.332.151.634.147 1.058-.015.571-.218.579-.237.206-.511-.213-.157-.457-.285-.541-.285s-.388-.401-.676-.892-.826-1.079-1.197-1.309c-.631-.39-.714-.397-1.278-.105-.493.255-.778.273-1.558.098-.525-.118-1.258-.158-1.629-.088-.644.12-1.823-.195-1.823-.487 0-.537 1.692-1.742 2.697-1.92l.799-.142-.571.609c-.788.84-.492 1.226.364.475.363-.319.99-.641 1.394-.717.617-.116.881-.04 1.656.473 1.031.683 1.11.701 1.691.39.35-.187.48-.136.86.341.263.33.85.689 1.423.87.913.289.975.352.975.981 0 .472.136.77.457.999 1.341.959 1.311.919 1.021 1.384-.398.637-.712.683-1.592.234-.612-.312-.88-.355-1.188-.19-.377.202-.381.245-.078.832.249.482.272.725.103 1.097-.209.458-.242.465-.809.172-1.114-.576-1.864-.197-.825.417.326.192.547.423.491.513-.194.313-1.182.147-1.956-.329h0zm41.035.259c0-.091.135-.166.3-.166s.3.075.3.166-.135.167-.3.167-.3-.075-.3-.167zm-48.567-1.074c-.394-.207-.7-.225-1.251-.073-.938.259-1.266.07-.79-.456.609-.673 1.022-.806 1.757-.563.827.273 1.194.679.971 1.073-.142.252-.239.254-.687.019h0zm39.678-.091c-.33-.217-.749-.347-.932-.289-.252.08-.308.011-.231-.286.119-.455 1.874-1.11 2.467-.922.207.066.736.012 1.175-.12.69-.207.873-.191 1.339.115l.54.354-.481.375c-.406.316-1.159.591-2.978 1.086-.165.045-.569-.096-.899-.312h0zm-54.24-3.729c-.275-.043-.944-.278-1.487-.522l-.988-.443 1.387-.1c.763-.055 1.387-.19 1.387-.3s-.539-.248-1.199-.307c-.87-.078-1.035-.132-.599-.2.729-.113.781-.428.1-.6-.491-.124-.487-.131.203-.429 1.196-.515 2.47-.614 3.599-.279.927.275 1.071.274 1.508-.012.309-.202.492-.236.508-.094l.05.456c.046.433.445.377.92-.129.44-.469 1.203-.693 1.202-.353 0 .082-.178.441-.395.796l-.394.647.645.336.645.336-1.059.483c-.955.436-1.151.461-2.007.256-.83-.199-1.068-.176-1.905.182-.945.405-1.144.431-2.122.276h0zm8.012-.141c-.18-.217-.106-.324.36-.518.325-.134.79-.179 1.04-.1.433.137.423.159-.235.509-.839.447-.881.451-1.165.108h0zm55.117-.925c.388-.25.6-.25.6 0 0 .11-.203.198-.45.197-.363-.002-.392-.04-.15-.197h0zm36.659-.554c-1.021-.403-1-.381-.703-.739.139-.167.174-.307.079-.311s.005-.142.225-.308.401-.365.403-.443c.007-.295.82-1.075 1.395-1.337.329-.15 1.184-.319 1.898-.376l2.126-.231c.484-.075.879-.044.951.074.142.229-.128.327-1.679.605-1.538.276-2.463.707-3.072 1.431-.642.763-.664 1.244-.074 1.655l.449.314-.599-.009c-.33-.005-.959-.151-1.399-.325h0zM39.971 7.906c-.322-.322-.249-.392 1.297-1.239 1.811-.991 2.721-1.123 4.346-.629l.899.274-1.199.238c-.98.194-3.058.889-4.698 1.571-.167.07-.456-.027-.645-.215h0zm14.433-.259c0-.106-.247-.335-.549-.509l-.549-.315.736.116c.523.082.783.033.899-.169.138-.241 1.41-.722 1.917-.726.085-.001.016.268-.155.598-.401.775-2.298 1.606-2.298 1.006h0zm3.11-.583c-.286-.463 1.669-1.18 2.499-.916.605.192.201.522-.855.698-.472.079-1.007.206-1.188.283s-.386.048-.456-.064zm6.379-1.471l-2.452-.241c-.179-.166.267-.705.746-.904.471-.195.689-.169 1.334.159.629.32 1.035.373 2.203.289.788-.057 1.687-.039 1.998.04l.565.143-.699.374c-.385.205-.834.364-.999.352l-2.697-.212zm57.492-.816c-.982-.502-1.076-.73-.305-.735.302-.002.684-.1.849-.219.259-.186.255-.202-.026-.112a.61.61 0 0 1-.558-.129c-.176-.177-.268-.174-.384.013-.107.173-.326.193-.741.069-1.053-.315-1.288-.456-1.288-.768 0-.265.264-.289 1.898-.174 1.244.087 1.898.063 1.898-.07 0-.393.554-.199.701.246l.149.45.088-.449c.049-.247.217-.449.374-.449s.286-.108.286-.24c0-.186.053-.186.24 0 .139.139.808.24 1.598.24 1.428 0 1.764.255.811.618-.495.188-1.356.135-2.299-.142-.193-.056-.349-.029-.349.061.002.184 1.124.863 1.428.863.109 0 .324.126.478.28.241.24.238.296-.014.393-.162.062-.295.016-.295-.103 0-.139-.254-.168-.719-.081-.503.094-.678.069-.582-.086.075-.122.028-.352-.104-.512-.257-.309-.992-.403-.992-.127 0 .09-.292.487-.649.881l-.65.718-.843-.432h0zm-52.997-.439c-.346-.203-.836-.262-1.598-.192-.712.066-1.26.009-1.556-.161-.409-.234-.309-.26.939-.25 1.56.013 2.245-.321 1.4-.683-.401-.172-.343-.187.345-.092.898.124 1.248-.116.758-.522-.522-.433.052-.568 1.909-.447 1.149.074 1.871.033 2.166-.125.566-.303.344-.688-.303-.526-.447.112-3.547-.072-3.416-.203.094-.094 4.485-.5 7.369-.682l3.696-.293.976-.121-1.612.774c-1.511.726-3.968 1.433-4.977 1.433-.246 0-.952.27-1.57.599s-1.247.599-1.398.599-.805.269-1.452.597l-1.177.592a21.91 21.91 0 0 0-.499-.298h0zm-3.896-1.825c-.968-.214-1.004-.295-.292-.664 1.037-.538 2.018-.675 2.465-.346.353.261.333.301-.361.71-.723.427-1.017.475-1.811.299h0z" fill="#065f85" fill-opacity=".1"/></svg>