<svg xmlns="http://www.w3.org/2000/svg" width="213" height="213" fill="none"  xmlns:v="https://vecta.io/nano"><path d="M51.245 129.59l3.918-3.918c2.165-2.164 5.68-2.156 7.855.019l11.811 11.811c18.405 18.405 48.965 17.381 65.819-3.134 14.687-17.881 11.906-44.518-4.533-60.957l-10.408-10.408c-2.175-2.175-2.184-5.69-.019-7.855l3.918-3.918c2.165-2.165 5.68-2.156 7.855.019l9.882 9.882c22.056 22.056 26.053 57.384 7.484 81.927l8.403 8.403 13.713-13.713c2.164-2.165 5.68-2.157 7.855.019l3.936 3.936c2.176 2.176 2.184 5.691.019 7.855l-39.18 39.181c-2.165 2.164-5.68 2.156-7.855-.019l-3.937-3.937c-2.175-2.175-2.183-5.69-.019-7.855l13.714-13.713-8.31-8.309C119.283 173 84.948 171.13 63.074 149.256l-11.811-11.811c-2.175-2.175-2.184-5.69-.019-7.855zm78.55.189c-12.984 12.983-34.084 12.933-47.13-.113l20.895-20.896c1.443-1.442 1.732-3.493.645-4.581l-3.937-3.937c-1.088-1.087-3.139-.798-4.581.645L74.79 121.792l-7.874-7.874 20.895-20.895c1.442-1.442 1.732-3.494.644-4.581l-3.937-3.937c-1.087-1.088-3.139-.798-4.581.644l-20.895 20.896-7.874-7.874 20.895-20.895c1.442-1.442 1.732-3.494.644-4.581l-3.937-3.937c-1.088-1.088-3.139-.798-4.581.644L43.296 90.297c-13.046-13.046-13.096-34.146-.113-47.129s34.084-12.933 47.129.113L129.68 82.65c13.046 13.046 13.097 34.146.114 47.129z" fill="#065f85" fill-opacity=".1"/></svg>