<svg xmlns="http://www.w3.org/2000/svg" width="133" height="121" fill="none"  xmlns:v="https://vecta.io/nano"><path d="M97.044 36.53c-5.229 3.019-11.915 1.259-14.908-3.925S80.961 20.75 86.19 17.731s11.915-1.259 14.908 3.925 1.175 11.854-4.054 14.873zM30.677 74.847c-5.229 3.019-11.915 1.259-14.908-3.925s-1.175-11.854 4.054-14.873 11.915-1.259 14.908 3.925 1.175 11.854-4.054 14.873zm-2.027 7.437l9.481-5.474c2.607-1.505 5.565-1.823 8.258-1.126-4.096 6.693-4.95 14.999-1.849 22.49l-9.777 5.645c-2.622 1.513-5.953.636-7.454-1.963l-2.713-4.7c-2.993-5.184-1.175-11.854 4.054-14.873zm37.924-21.896c-9.17 5.294-20.84 2.221-26.088-6.869S38.41 32.784 47.58 27.49s20.84-2.221 26.088 6.869 2.075 20.734-7.095 26.028zM57.91 71.656l1.23-.71c3.929-.31 7.86-1.405 11.504-3.509s6.543-4.952 8.791-8.209l1.23-.71c9.422-5.44 21.441-2.275 26.834 7.066l2.442 4.23c2.247 3.892.885 8.888-3.041 11.155l-42.665 24.632c-3.926 2.267-8.934.948-11.181-2.944l-2.442-4.229c-5.393-9.341-2.124-21.332 7.298-26.772zm32.003-21.101c.743-2.681 2.497-5.084 5.104-6.589l9.481-5.474c5.23-3.019 11.915-1.259 14.908 3.925l2.713 4.7c1.501 2.6.595 5.923-2.027 7.437l-9.762 5.636c-4.953-6.422-12.573-9.836-20.417-9.635z" fill="#065f85" fill-opacity=".1"/></svg>