<svg width="133" height="107" viewBox="0 0 133 107" fill="none" xmlns="http://www.w3.org/2000/svg">
<path d="M112.207 89.1604L91.2617 83.4214L76.6095 96.6923L73.3446 75.843L54.2264 64.6361L73.1527 57.4916L76.0065 37.293L90.9849 53.7186L111.854 52.443L102.173 69.7433L112.207 89.1604Z" fill="#068585" fill-opacity="0.1"/>
<path d="M64.9693 52.2244L46.286 47.1089L33.214 58.9433L30.3019 40.3487L13.2514 30.3553L30.1336 23.9784L32.6659 5.96716L46.0125 20.6227L64.6303 19.4884L55.9957 34.9163L64.9693 52.2244Z" fill="#068585" fill-opacity="0.1"/>
<path d="M131.28 35.1298L112.597 30.0143L99.5251 41.8487L96.6131 23.2541L79.5627 13.2608L96.4449 6.88384L98.9758 -11.131L112.322 3.5244L130.94 2.39009L122.306 17.8179L131.28 35.1298Z" fill="#068585" fill-opacity="0.1"/>
</svg>
