<svg width="105" height="102" viewBox="0 0 105 102" fill="none" xmlns="http://www.w3.org/2000/svg">
<path d="M97.2919 17.6141C92.0625 20.6333 85.3774 18.873 82.3842 13.6887C79.3911 8.50443 81.2092 1.83476 86.4386 -1.18442C91.6679 -4.2036 98.3531 -2.4433 101.346 2.74099C104.339 7.92528 102.521 14.595 97.2919 17.6141ZM30.9248 55.9312C25.6955 58.9504 19.0103 57.1901 16.0172 52.0058C13.024 46.8215 14.8421 40.1518 20.0715 37.1326C25.3009 34.1135 31.986 35.8738 34.9792 41.058C37.9723 46.2423 36.1542 52.912 30.9248 55.9312ZM28.8977 63.3677L38.3787 57.8939C40.986 56.3886 43.9434 56.0714 46.637 56.7682C42.5408 63.4607 41.6871 71.7667 44.7878 79.2583L35.0105 84.9032C32.3884 86.4171 29.0575 85.54 27.5567 82.9405L24.8433 78.2409C21.8502 73.0566 23.6683 66.3869 28.8977 63.3677ZM66.8217 41.4723C57.6518 46.7665 45.9819 43.6937 40.7333 34.6028C35.4847 25.512 38.6584 13.8691 47.8283 8.57483C56.9983 3.28057 68.6682 6.35343 73.9168 15.4443C79.1654 24.5352 75.9916 36.178 66.8217 41.4723ZM58.1578 52.7406L59.3874 52.0307C63.3167 51.7203 67.2475 50.6258 70.8917 48.5218C74.536 46.4177 77.4345 43.5694 79.6827 40.3132L80.9123 39.6033C90.334 34.1636 102.353 37.3285 107.746 46.669L110.188 50.8987C112.435 54.7906 111.073 59.787 107.147 62.0536L64.4828 86.686C60.5571 88.9525 55.549 87.6338 53.302 83.7419L50.86 79.5122C45.4673 70.1717 48.7361 58.1802 58.1578 52.7406ZM90.1607 31.6397C90.904 28.9587 92.6575 26.556 95.2647 25.0507L104.746 19.5768C109.975 16.5577 116.66 18.318 119.653 23.5022L122.367 28.2019C123.868 30.8014 122.962 34.1246 120.34 35.6385L110.577 41.2748C105.625 34.8523 98.0047 31.4386 90.1607 31.6397Z" fill="#068585" fill-opacity="0.1"/>
</svg>
