<svg width="86" height="87" viewBox="0 0 86 87" fill="none" xmlns="http://www.w3.org/2000/svg">
<path d="M43.0078 86.0352V86.0352C19.3074 86.0352 0.0941154 66.8221 0.0941143 43.1215V43.1215L43.0078 43.1215L43.0078 86.0352Z" fill="#FF743C"/>
<path d="M85.9215 43.1215V43.1215C85.9215 66.8221 66.7082 86.0352 43.0078 86.0352V86.0352L43.0078 43.1215L85.9215 43.1215Z" fill="#D5E155"/>
<path d="M64.9086 43.1207V43.1207C64.9086 55.2162 55.1035 65.0215 43.0078 65.0215V65.0215L43.0078 43.1207L64.9086 43.1207Z" fill="#2D3652"/>
<path d="M85.9214 0.207412L43.0077 0.207414C19.3073 0.207415 0.0940231 19.4207 0.0940242 43.1211V43.1211L43.0077 43.1211C66.7081 43.1211 85.9214 23.9078 85.9214 0.207412V0.207412Z" fill="#F0F1F1"/>
<path d="M42.8596 21.6643L21.5849 21.6643C9.71585 21.6643 0.0939177 31.2709 0.0939183 43.1211V43.1211L21.3687 43.1211C33.2381 43.1211 42.8596 33.5144 42.8596 21.6643V21.6643Z" fill="#FFC700"/>
</svg>
