<svg width="1428" height="325" viewBox="0 0 1428 325" fill="none" xmlns="http://www.w3.org/2000/svg">
<g clip-path="url(#clip0)">
<g opacity="0.6">
<path d="M0.244748 65.1928C53.7573 22.0887 277.611 -33.7396 744.927 87.7795C1212.24 209.299 1411.15 189.157 1452.19 163.897" stroke="#FFC000"/>
<path d="M-1.99341 76.9662C51.5192 33.8621 275.373 -21.9662 742.689 99.553C1210 221.072 1408.92 200.931 1449.96 175.67" stroke="#FFC000"/>
<path d="M-4.23133 88.7382C49.2812 45.6341 273.135 -10.1942 740.451 111.325C1207.77 232.844 1406.68 212.703 1447.72 187.442" stroke="#FFC000"/>
<path d="M-6.46936 100.512C47.0432 57.4076 270.897 1.5792 738.213 123.098C1205.53 244.618 1404.44 224.476 1445.48 199.216" stroke="#FFC000"/>
<path d="M-8.70703 112.286C44.8055 69.1815 268.66 13.3531 735.975 134.872C1203.29 256.391 1402.2 236.25 1443.24 210.989" stroke="#FFC000"/>
<path d="M-10.9453 124.059C42.5673 80.9544 266.421 25.1261 733.737 146.645C1201.05 268.164 1399.96 248.023 1441 222.762" stroke="#FFC000"/>
<path d="M-13.1721 135.833C40.3405 92.7288 264.195 36.9005 731.51 158.42C1198.83 279.939 1397.74 259.797 1438.78 234.537" stroke="#FFC000"/>
<path d="M-15.41 147.605C38.1025 104.501 261.957 48.6725 729.272 170.192C1196.59 291.711 1395.5 271.569 1436.54 246.309" stroke="#FFC000"/>
<path d="M-17.6481 159.379C35.8645 116.275 259.719 60.4464 727.034 181.966C1194.35 303.485 1393.26 283.343 1434.3 258.083" stroke="#FFC000"/>
<path d="M-19.8861 171.152C33.6265 128.048 257.481 72.2193 724.796 193.739C1192.11 315.258 1391.02 295.116 1432.06 269.856" stroke="#FFC000"/>
<path d="M-22.124 182.924C31.3885 139.82 255.243 83.9918 722.558 205.511C1189.87 327.03 1388.78 306.889 1429.83 281.628" stroke="#FFC000"/>
<path d="M-24.3623 194.698C29.1503 151.594 253.004 95.7652 720.32 217.284C1187.64 338.804 1386.55 318.662 1427.59 293.402" stroke="#FFC000"/>
</g>
</g>
<defs>
<clipPath id="clip0">
<rect width="1428" height="325" fill="white"/>
</clipPath>
</defs>
</svg>
