<svg width="380" height="377" viewBox="0 0 380 377" fill="none" xmlns="http://www.w3.org/2000/svg">
<g opacity="0.09">
<path d="M188.41 0.270875V0.270875C292.575 0.270884 377.018 84.7147 377.018 188.879V188.879L188.41 188.879L188.41 0.270875Z" fill="#FFC700"/>
<path d="M191.239 300.16L285.543 300.16C337.626 300.16 379.847 257.938 379.847 205.855V205.855L285.543 205.855C233.461 205.855 191.239 248.077 191.239 300.16V300.16Z" fill="#2D3652"/>
<path d="M2.63039 282.243L96.9346 282.243C149.017 282.243 191.239 240.022 191.239 187.939V187.939L96.9346 187.939C44.8523 187.939 2.63039 230.16 2.63039 282.243V282.243Z" fill="#FFC700"/>
<path d="M2.6304 282.241L96.9346 282.241C149.017 282.241 191.239 324.463 191.239 376.545V376.545L96.9346 376.545C44.8523 376.545 2.63039 334.324 2.6304 282.241V282.241Z" fill="#FF743C"/>
<path d="M356.207 329.035C356.207 344.66 343.54 357.327 327.916 357.327V357.327C312.291 357.327 299.624 344.66 299.624 329.035V329.035C299.624 313.411 312.291 300.744 327.916 300.744V300.744C343.54 300.744 356.207 313.411 356.207 329.035V329.035Z" fill="#6ED47C"/>
<path d="M265.154 329.035C265.154 344.66 252.487 357.327 236.863 357.327V357.327C221.239 357.327 208.572 344.66 208.572 329.035V329.035C208.572 313.411 221.239 300.744 236.863 300.744V300.744C252.487 300.744 265.154 313.411 265.154 329.035V329.035Z" fill="#D5E155"/>
<path d="M189.06 0.270908C189.06 104.436 104.617 188.879 0.451965 188.879L0.451982 0.270891L189.06 0.270908Z" fill="#FF743C"/>
</g>
</svg>
