<svg width="89" height="89" viewBox="0 0 89 89" fill="none" xmlns="http://www.w3.org/2000/svg">
<path d="M44.8956 88.3266V88.3266C20.516 88.3266 0.752075 68.5627 0.752075 44.1831V44.1831H44.8956V88.3266Z" fill="#FFC700"/>
<path d="M44.2335 18.1382H22.1617C9.97193 18.1382 0.0899658 28.0202 0.0899658 40.2099V40.2099H22.1617C34.3515 40.2099 44.2335 30.328 44.2335 18.1382V18.1382Z" fill="#2D3652"/>
<path d="M88.3769 22.3315H66.3052C54.1154 22.3315 44.2334 32.2134 44.2334 44.4033V44.4033H66.3052C78.4949 44.4033 88.3769 34.5214 88.3769 22.3315V22.3315Z" fill="#FFC700"/>
<path d="M88.3769 22.332H66.3052C54.1154 22.332 44.2334 12.4501 44.2334 0.260254V0.260254L66.3052 0.260256C78.4949 0.260257 88.3769 10.1421 88.3769 22.332V22.332Z" fill="#FF743C"/>
<path d="M5.62292 11.3798C5.62292 7.72298 8.5876 4.7583 12.2445 4.7583V4.7583C15.9013 4.7583 18.866 7.72298 18.866 11.3798V11.3798C18.866 15.0367 15.9013 18.0014 12.2445 18.0014V18.0014C8.5876 18.0014 5.62292 15.0367 5.62292 11.3798V11.3798Z" fill="#6ED47C"/>
<path d="M26.9337 11.3798C26.9337 7.72298 29.8984 4.7583 33.5552 4.7583V4.7583C37.2121 4.7583 40.1768 7.72298 40.1768 11.3798V11.3798C40.1768 15.0367 37.2121 18.0014 33.5552 18.0014V18.0014C29.8984 18.0014 26.9337 15.0367 26.9337 11.3798V11.3798Z" fill="#D5E155"/>
<path d="M44.7433 88.3266C44.7433 63.947 64.5073 44.1831 88.8868 44.1831V88.3266H44.7433Z" fill="#FF743C"/>
</svg>
