<svg width="112" height="56" viewBox="0 0 112 56" fill="none" xmlns="http://www.w3.org/2000/svg">
<path d="M28.203 0.728374C12.9482 0.728373 0.581545 13.095 0.581544 28.3498V28.3498C0.581544 43.6045 12.9482 55.9712 28.203 55.9712V55.9712C43.4577 55.9712 55.8244 43.6045 55.8244 28.3498L55.8244 0.728375L28.203 0.728374Z" fill="#FFC700"/>
<path d="M41.5371 0.728376C33.647 0.728376 27.2505 7.12484 27.2505 15.0156V15.0156C27.2505 22.9058 33.647 29.3022 41.5371 29.3022V29.3022C49.4279 29.3022 55.8244 22.9058 55.8244 15.0156L55.8244 0.728377L41.5371 0.728376Z" fill="#FF743C"/>
<path d="M111.343 28.1594C111.343 43.4141 98.9766 55.7808 83.7219 55.7808V55.7808C68.4671 55.7808 56.1004 43.4141 56.1004 28.1594V28.1594C56.1004 12.9046 68.4671 0.537941 83.7219 0.537942V0.537942C98.9766 0.537943 111.343 12.9046 111.343 28.1594V28.1594Z" fill="#FF743C"/>
<path d="M98.9614 28.4451C98.9614 36.914 92.0957 43.7798 83.6268 43.7798C75.1579 43.7798 68.2921 36.914 68.2921 28.4451C68.2921 19.9763 75.1579 13.1105 83.6268 13.1105C92.0957 13.1105 98.9614 19.9763 98.9614 28.4451Z" fill="#2D3652"/>
</svg>
