<svg width="687" height="382" viewBox="0 0 687 382" fill="none" xmlns="http://www.w3.org/2000/svg">
<g style="mix-blend-mode:overlay" opacity="0.2">
<mask id="mask0" style="mask-type:alpha" maskUnits="userSpaceOnUse" x="0" y="0" width="687" height="382">
<path fill-rule="evenodd" clip-rule="evenodd" d="M364.869 330.971L462.55 83.2622L463.811 83.5491L366.131 331.258L364.869 330.971Z" fill="black"/>
<path fill-rule="evenodd" clip-rule="evenodd" d="M145.138 280.989L242.818 33.2798L244.08 33.5667L146.399 281.276L145.138 280.989Z" fill="black"/>
<path fill-rule="evenodd" clip-rule="evenodd" d="M519.009 366.033L616.69 118.324L617.951 118.611L520.271 366.32L519.009 366.033Z" fill="black"/>
<path fill-rule="evenodd" clip-rule="evenodd" d="M299.278 316.051L396.958 68.3418L398.22 68.6287L300.539 316.338L299.278 316.051Z" fill="black"/>
<path fill-rule="evenodd" clip-rule="evenodd" d="M30.3528 254.879L128.033 7.16943L129.295 7.45634L31.6141 255.166L30.3528 254.879Z" fill="black"/>
<path fill-rule="evenodd" clip-rule="evenodd" d="M404.224 339.923L501.905 92.2139L503.166 92.5008L405.486 340.21L404.224 339.923Z" fill="black"/>
<path fill-rule="evenodd" clip-rule="evenodd" d="M184.493 289.941L282.173 42.2319L283.435 42.5188L185.754 290.228L184.493 289.941Z" fill="black"/>
<path fill-rule="evenodd" clip-rule="evenodd" d="M558.364 374.986L656.045 127.276L657.306 127.563L559.626 375.273L558.364 374.986Z" fill="black"/>
<path fill-rule="evenodd" clip-rule="evenodd" d="M338.633 325.003L436.313 77.2939L437.575 77.5809L339.894 325.29L338.633 325.003Z" fill="black"/>
<path fill-rule="evenodd" clip-rule="evenodd" d="M105.783 272.037L203.463 24.3276L204.725 24.6145L107.044 272.324L105.783 272.037Z" fill="black"/>
<path fill-rule="evenodd" clip-rule="evenodd" d="M479.655 357.081L577.335 109.372L578.596 109.659L480.916 357.368L479.655 357.081Z" fill="black"/>
<path fill-rule="evenodd" clip-rule="evenodd" d="M259.923 307.099L357.603 59.3896L358.865 59.6766L261.184 307.386L259.923 307.099Z" fill="black"/>
<path fill-rule="evenodd" clip-rule="evenodd" d="M10.6752 250.403L108.356 2.69336L109.617 2.98027L11.9365 250.69L10.6752 250.403Z" fill="black"/>
<path fill-rule="evenodd" clip-rule="evenodd" d="M384.547 335.447L482.227 87.7378L483.489 88.0247L385.808 335.734L384.547 335.447Z" fill="black"/>
<path fill-rule="evenodd" clip-rule="evenodd" d="M164.815 285.465L262.496 37.7559L263.757 38.0428L166.077 285.752L164.815 285.465Z" fill="black"/>
<path fill-rule="evenodd" clip-rule="evenodd" d="M538.687 370.51L636.367 122.8L637.629 123.087L539.948 370.796L538.687 370.51Z" fill="black"/>
<path fill-rule="evenodd" clip-rule="evenodd" d="M318.955 320.527L416.636 72.8179L417.897 73.1048L320.217 320.814L318.955 320.527Z" fill="black"/>
<path fill-rule="evenodd" clip-rule="evenodd" d="M86.1055 267.561L183.786 19.8516L185.047 20.1385L87.3668 267.848L86.1055 267.561Z" fill="black"/>
<path fill-rule="evenodd" clip-rule="evenodd" d="M459.977 352.605L557.658 104.896L558.919 105.183L461.238 352.892L459.977 352.605Z" fill="black"/>
<path fill-rule="evenodd" clip-rule="evenodd" d="M240.246 302.623L337.926 54.9141L339.187 55.201L241.507 302.91L240.246 302.623Z" fill="black"/>
<path fill-rule="evenodd" clip-rule="evenodd" d="M50.0302 259.355L147.711 11.6455L148.972 11.9324L51.2915 259.642L50.0302 259.355Z" fill="black"/>
<path fill-rule="evenodd" clip-rule="evenodd" d="M423.902 344.399L521.582 96.6899L522.844 96.9768L425.163 344.686L423.902 344.399Z" fill="black"/>
<path fill-rule="evenodd" clip-rule="evenodd" d="M204.17 294.417L301.851 46.708L303.112 46.9949L205.432 294.704L204.17 294.417Z" fill="black"/>
<path fill-rule="evenodd" clip-rule="evenodd" d="M578.042 379.462L675.722 131.752L676.984 132.039L579.303 379.749L578.042 379.462Z" fill="black"/>
<path fill-rule="evenodd" clip-rule="evenodd" d="M358.31 329.479L455.991 81.77L457.252 82.0569L359.572 329.766L358.31 329.479Z" fill="black"/>
<path fill-rule="evenodd" clip-rule="evenodd" d="M125.461 276.513L223.141 28.8037L224.402 29.0906L126.722 276.8L125.461 276.513Z" fill="black"/>
<path fill-rule="evenodd" clip-rule="evenodd" d="M499.332 361.557L597.012 113.848L598.274 114.135L500.593 361.844L499.332 361.557Z" fill="black"/>
<path fill-rule="evenodd" clip-rule="evenodd" d="M279.6 311.575L377.281 63.8657L378.542 64.1526L280.862 311.862L279.6 311.575Z" fill="black"/>
<path fill-rule="evenodd" clip-rule="evenodd" d="M0.836519 248.165L98.517 0.455566L99.7783 0.742473L2.09782 248.452L0.836519 248.165Z" fill="black"/>
<path fill-rule="evenodd" clip-rule="evenodd" d="M374.708 333.209L472.389 85.5L473.65 85.7869L375.969 333.496L374.708 333.209Z" fill="black"/>
<path fill-rule="evenodd" clip-rule="evenodd" d="M154.977 283.227L252.657 35.5176L253.918 35.8045L156.238 283.514L154.977 283.227Z" fill="black"/>
<path fill-rule="evenodd" clip-rule="evenodd" d="M528.848 368.271L626.529 120.562L627.79 120.849L530.11 368.558L528.848 368.271Z" fill="black"/>
<path fill-rule="evenodd" clip-rule="evenodd" d="M309.117 318.289L406.797 70.5801L408.058 70.867L310.378 318.576L309.117 318.289Z" fill="black"/>
<path fill-rule="evenodd" clip-rule="evenodd" d="M76.2668 265.323L173.947 17.6138L175.209 17.9007L77.5281 265.61L76.2668 265.323Z" fill="black"/>
<path fill-rule="evenodd" clip-rule="evenodd" d="M450.138 350.367L547.819 102.658L549.08 102.945L451.4 350.654L450.138 350.367Z" fill="black"/>
<path fill-rule="evenodd" clip-rule="evenodd" d="M230.407 300.385L328.087 52.6758L329.349 52.9627L231.668 300.672L230.407 300.385Z" fill="black"/>
<path fill-rule="evenodd" clip-rule="evenodd" d="M40.1915 257.117L137.872 9.40771L139.133 9.69462L41.4528 257.404L40.1915 257.117Z" fill="black"/>
<path fill-rule="evenodd" clip-rule="evenodd" d="M414.063 342.161L511.744 94.4521L513.005 94.7391L415.324 342.448L414.063 342.161Z" fill="black"/>
<path fill-rule="evenodd" clip-rule="evenodd" d="M194.332 292.179L292.012 44.4697L293.273 44.7566L195.593 292.466L194.332 292.179Z" fill="black"/>
<path fill-rule="evenodd" clip-rule="evenodd" d="M568.203 377.223L665.884 129.514L667.145 129.801L569.464 377.51L568.203 377.223Z" fill="black"/>
<path fill-rule="evenodd" clip-rule="evenodd" d="M348.472 327.241L446.152 79.5322L447.413 79.8191L349.733 327.528L348.472 327.241Z" fill="black"/>
<path fill-rule="evenodd" clip-rule="evenodd" d="M115.622 274.275L213.302 26.5659L214.564 26.8528L116.883 274.562L115.622 274.275Z" fill="black"/>
<path fill-rule="evenodd" clip-rule="evenodd" d="M489.493 359.32L587.174 111.61L588.435 111.897L490.755 359.607L489.493 359.32Z" fill="black"/>
<path fill-rule="evenodd" clip-rule="evenodd" d="M269.762 309.337L367.442 61.6279L368.703 61.9148L271.023 309.624L269.762 309.337Z" fill="black"/>
<path fill-rule="evenodd" clip-rule="evenodd" d="M20.514 252.641L118.194 4.93164L119.456 5.21855L21.7753 252.928L20.514 252.641Z" fill="black"/>
<path fill-rule="evenodd" clip-rule="evenodd" d="M394.386 337.685L492.066 89.9761L493.327 90.263L395.647 337.972L394.386 337.685Z" fill="black"/>
<path fill-rule="evenodd" clip-rule="evenodd" d="M174.654 287.703L272.335 39.9937L273.596 40.2806L175.915 287.99L174.654 287.703Z" fill="black"/>
<path fill-rule="evenodd" clip-rule="evenodd" d="M548.526 372.747L646.206 125.038L647.467 125.325L549.787 373.034L548.526 372.747Z" fill="black"/>
<path fill-rule="evenodd" clip-rule="evenodd" d="M328.794 322.765L426.475 75.0562L427.736 75.3431L330.055 323.052L328.794 322.765Z" fill="black"/>
<path fill-rule="evenodd" clip-rule="evenodd" d="M95.9443 269.799L193.625 22.0898L194.886 22.3768L97.2056 270.086L95.9443 269.799Z" fill="black"/>
<path fill-rule="evenodd" clip-rule="evenodd" d="M469.816 354.844L567.496 107.134L568.758 107.421L471.077 355.13L469.816 354.844Z" fill="black"/>
<path fill-rule="evenodd" clip-rule="evenodd" d="M250.084 304.861L347.765 57.1519L349.026 57.4388L251.346 305.148L250.084 304.861Z" fill="black"/>
<path fill-rule="evenodd" clip-rule="evenodd" d="M59.8689 261.593L157.549 13.8838L158.811 14.1707L61.1302 261.88L59.8689 261.593Z" fill="black"/>
<path fill-rule="evenodd" clip-rule="evenodd" d="M433.741 346.637L531.421 98.9282L532.682 99.2151L435.002 346.924L433.741 346.637Z" fill="black"/>
<path fill-rule="evenodd" clip-rule="evenodd" d="M214.009 296.655L311.689 48.9458L312.951 49.2327L215.27 296.942L214.009 296.655Z" fill="black"/>
<path fill-rule="evenodd" clip-rule="evenodd" d="M587.881 381.7L685.561 133.99L686.822 134.277L589.142 381.986L587.881 381.7Z" fill="black"/>
<path fill-rule="evenodd" clip-rule="evenodd" d="M135.299 278.751L232.98 31.0415L234.241 31.3284L136.561 279.038L135.299 278.751Z" fill="black"/>
<path fill-rule="evenodd" clip-rule="evenodd" d="M509.171 363.795L606.851 116.086L608.113 116.373L510.432 364.082L509.171 363.795Z" fill="black"/>
<path fill-rule="evenodd" clip-rule="evenodd" d="M289.439 313.813L387.12 66.104L388.381 66.3909L290.7 314.1L289.439 313.813Z" fill="black"/>
<path fill-rule="evenodd" clip-rule="evenodd" d="M368.149 331.717L465.829 84.0078L467.091 84.2947L369.41 332.004L368.149 331.717Z" fill="black"/>
<path fill-rule="evenodd" clip-rule="evenodd" d="M148.418 281.735L246.098 34.0259L247.359 34.3128L149.679 282.022L148.418 281.735Z" fill="black"/>
<path fill-rule="evenodd" clip-rule="evenodd" d="M522.289 366.78L619.97 119.07L621.231 119.357L523.55 367.066L522.289 366.78Z" fill="black"/>
<path fill-rule="evenodd" clip-rule="evenodd" d="M302.557 316.797L400.238 69.0879L401.499 69.3748L303.819 317.084L302.557 316.797Z" fill="black"/>
<path fill-rule="evenodd" clip-rule="evenodd" d="M69.7076 263.831L167.388 16.1216L168.649 16.4085L70.9689 264.118L69.7076 263.831Z" fill="black"/>
<path fill-rule="evenodd" clip-rule="evenodd" d="M443.579 348.875L541.26 101.166L542.521 101.453L444.841 349.162L443.579 348.875Z" fill="black"/>
<path fill-rule="evenodd" clip-rule="evenodd" d="M223.848 298.893L321.528 51.1836L322.789 51.4705L225.109 299.18L223.848 298.893Z" fill="black"/>
<path fill-rule="evenodd" clip-rule="evenodd" d="M33.6324 255.625L131.313 7.91553L132.574 8.20243L34.8937 255.912L33.6324 255.625Z" fill="black"/>
<path fill-rule="evenodd" clip-rule="evenodd" d="M407.504 340.669L505.184 92.96L506.446 93.2469L408.765 340.956L407.504 340.669Z" fill="black"/>
<path fill-rule="evenodd" clip-rule="evenodd" d="M187.772 290.687L285.453 42.9775L286.714 43.2644L189.034 290.974L187.772 290.687Z" fill="black"/>
<path fill-rule="evenodd" clip-rule="evenodd" d="M561.644 375.732L659.324 128.022L660.586 128.309L562.905 376.019L561.644 375.732Z" fill="black"/>
<path fill-rule="evenodd" clip-rule="evenodd" d="M341.912 325.749L439.593 78.04L440.854 78.3269L343.174 326.036L341.912 325.749Z" fill="black"/>
<path fill-rule="evenodd" clip-rule="evenodd" d="M109.063 272.783L206.743 25.0737L208.004 25.3606L110.324 273.07L109.063 272.783Z" fill="black"/>
<path fill-rule="evenodd" clip-rule="evenodd" d="M482.934 357.827L580.615 110.118L581.876 110.405L484.195 358.114L482.934 357.827Z" fill="black"/>
<path fill-rule="evenodd" clip-rule="evenodd" d="M263.203 307.845L360.883 60.1357L362.144 60.4226L264.464 308.132L263.203 307.845Z" fill="black"/>
<path fill-rule="evenodd" clip-rule="evenodd" d="M13.9548 251.149L111.635 3.43945L112.897 3.72636L15.2161 251.436L13.9548 251.149Z" fill="black"/>
<path fill-rule="evenodd" clip-rule="evenodd" d="M387.826 336.193L485.507 88.4839L486.768 88.7708L389.088 336.48L387.826 336.193Z" fill="black"/>
<path fill-rule="evenodd" clip-rule="evenodd" d="M168.095 286.211L265.776 38.502L267.037 38.7889L169.356 286.498L168.095 286.211Z" fill="black"/>
<path fill-rule="evenodd" clip-rule="evenodd" d="M541.967 371.256L639.647 123.546L640.908 123.833L543.228 371.543L541.967 371.256Z" fill="black"/>
<path fill-rule="evenodd" clip-rule="evenodd" d="M322.235 321.273L419.915 73.564L421.177 73.8509L323.496 321.56L322.235 321.273Z" fill="black"/>
<path fill-rule="evenodd" clip-rule="evenodd" d="M89.3851 268.307L187.066 20.5977L188.327 20.8846L90.6464 268.594L89.3851 268.307Z" fill="black"/>
<path fill-rule="evenodd" clip-rule="evenodd" d="M463.257 353.351L560.937 105.642L562.199 105.929L464.518 353.638L463.257 353.351Z" fill="black"/>
<path fill-rule="evenodd" clip-rule="evenodd" d="M243.525 303.369L341.206 55.6597L342.467 55.9466L244.786 303.656L243.525 303.369Z" fill="black"/>
<path fill-rule="evenodd" clip-rule="evenodd" d="M53.3098 260.101L150.99 12.3916L152.252 12.6785L54.5711 260.388L53.3098 260.101Z" fill="black"/>
<path fill-rule="evenodd" clip-rule="evenodd" d="M427.181 345.145L524.862 97.436L526.123 97.7229L428.443 345.432L427.181 345.145Z" fill="black"/>
<path fill-rule="evenodd" clip-rule="evenodd" d="M207.45 295.163L305.13 47.4536L306.392 47.7405L208.711 295.45L207.45 295.163Z" fill="black"/>
<path fill-rule="evenodd" clip-rule="evenodd" d="M581.321 380.207L679.002 132.498L680.263 132.785L582.583 380.494L581.321 380.207Z" fill="black"/>
<path fill-rule="evenodd" clip-rule="evenodd" d="M361.59 330.225L459.27 82.5161L460.532 82.803L362.851 330.512L361.59 330.225Z" fill="black"/>
<path fill-rule="evenodd" clip-rule="evenodd" d="M128.74 277.259L226.421 29.5498L227.682 29.8367L130.001 277.546L128.74 277.259Z" fill="black"/>
<path fill-rule="evenodd" clip-rule="evenodd" d="M502.612 362.304L600.292 114.594L601.553 114.881L503.873 362.59L502.612 362.304Z" fill="black"/>
<path fill-rule="evenodd" clip-rule="evenodd" d="M282.88 312.321L380.561 64.6118L381.822 64.8987L284.141 312.608L282.88 312.321Z" fill="black"/>
<path fill-rule="evenodd" clip-rule="evenodd" d="M4.11612 248.911L101.797 1.20166L103.058 1.48857L5.37742 249.198L4.11612 248.911Z" fill="black"/>
<path fill-rule="evenodd" clip-rule="evenodd" d="M377.988 333.955L475.668 86.2461L476.93 86.533L379.249 334.242L377.988 333.955Z" fill="black"/>
<path fill-rule="evenodd" clip-rule="evenodd" d="M158.256 283.973L255.937 36.2637L257.198 36.5506L159.518 284.26L158.256 283.973Z" fill="black"/>
<path fill-rule="evenodd" clip-rule="evenodd" d="M532.128 369.017L629.808 121.308L631.07 121.595L533.389 369.304L532.128 369.017Z" fill="black"/>
<path fill-rule="evenodd" clip-rule="evenodd" d="M312.396 319.035L410.077 71.3262L411.338 71.6131L313.658 319.322L312.396 319.035Z" fill="black"/>
<path fill-rule="evenodd" clip-rule="evenodd" d="M79.5464 266.069L177.227 18.3599L178.488 18.6468L80.8077 266.356L79.5464 266.069Z" fill="black"/>
<path fill-rule="evenodd" clip-rule="evenodd" d="M453.418 351.114L551.099 103.404L552.36 103.691L454.679 351.4L453.418 351.114Z" fill="black"/>
<path fill-rule="evenodd" clip-rule="evenodd" d="M233.686 301.131L331.367 53.4219L332.628 53.7088L234.948 301.418L233.686 301.131Z" fill="black"/>
<path fill-rule="evenodd" clip-rule="evenodd" d="M43.4711 257.863L141.152 10.1538L142.413 10.4407L44.7324 258.15L43.4711 257.863Z" fill="black"/>
<path fill-rule="evenodd" clip-rule="evenodd" d="M417.343 342.908L515.023 95.1982L516.284 95.4851L418.604 343.194L417.343 342.908Z" fill="black"/>
<path fill-rule="evenodd" clip-rule="evenodd" d="M197.611 292.925L295.292 45.2158L296.553 45.5027L198.873 293.212L197.611 292.925Z" fill="black"/>
<path fill-rule="evenodd" clip-rule="evenodd" d="M571.483 377.97L669.163 130.26L670.425 130.547L572.744 378.256L571.483 377.97Z" fill="black"/>
<path fill-rule="evenodd" clip-rule="evenodd" d="M351.751 327.987L449.432 80.2778L450.693 80.5647L353.012 328.274L351.751 327.987Z" fill="black"/>
<path fill-rule="evenodd" clip-rule="evenodd" d="M118.901 275.021L216.582 27.3115L217.843 27.5984L120.163 275.308L118.901 275.021Z" fill="black"/>
<path fill-rule="evenodd" clip-rule="evenodd" d="M492.773 360.065L590.453 112.356L591.715 112.643L494.034 360.352L492.773 360.065Z" fill="black"/>
<path fill-rule="evenodd" clip-rule="evenodd" d="M273.041 310.083L370.722 62.374L371.983 62.6609L274.303 310.37L273.041 310.083Z" fill="black"/>
<path fill-rule="evenodd" clip-rule="evenodd" d="M23.7935 253.387L121.474 5.67773L122.735 5.96464L25.0548 253.674L23.7935 253.387Z" fill="black"/>
<path fill-rule="evenodd" clip-rule="evenodd" d="M397.665 338.431L495.346 90.7222L496.607 91.0091L398.927 338.718L397.665 338.431Z" fill="black"/>
<path fill-rule="evenodd" clip-rule="evenodd" d="M177.934 288.449L275.614 40.7397L276.875 41.0267L179.195 288.736L177.934 288.449Z" fill="black"/>
<path fill-rule="evenodd" clip-rule="evenodd" d="M551.805 373.493L649.486 125.784L650.747 126.071L553.066 373.78L551.805 373.493Z" fill="black"/>
<path fill-rule="evenodd" clip-rule="evenodd" d="M332.074 323.511L429.754 75.8018L431.015 76.0887L333.335 323.798L332.074 323.511Z" fill="black"/>
<path fill-rule="evenodd" clip-rule="evenodd" d="M99.2238 270.545L196.904 22.8359L198.166 23.1228L100.485 270.832L99.2238 270.545Z" fill="black"/>
<path fill-rule="evenodd" clip-rule="evenodd" d="M473.095 355.589L570.776 107.88L572.037 108.167L474.357 355.876L473.095 355.589Z" fill="black"/>
<path fill-rule="evenodd" clip-rule="evenodd" d="M253.364 305.607L351.044 57.8979L352.306 58.1849L254.625 305.894L253.364 305.607Z" fill="black"/>
<path fill-rule="evenodd" clip-rule="evenodd" d="M63.1485 262.339L160.829 14.6299L162.09 14.9168L64.4098 262.626L63.1485 262.339Z" fill="black"/>
<path fill-rule="evenodd" clip-rule="evenodd" d="M437.02 347.383L534.701 99.6738L535.962 99.9607L438.281 347.67L437.02 347.383Z" fill="black"/>
<path fill-rule="evenodd" clip-rule="evenodd" d="M217.289 297.401L314.969 49.6919L316.23 49.9788L218.55 297.688L217.289 297.401Z" fill="black"/>
<path fill-rule="evenodd" clip-rule="evenodd" d="M138.579 279.497L236.259 31.7876L237.521 32.0745L139.84 279.784L138.579 279.497Z" fill="black"/>
<path fill-rule="evenodd" clip-rule="evenodd" d="M512.45 364.541L610.131 116.832L611.392 117.119L513.712 364.828L512.45 364.541Z" fill="black"/>
<path fill-rule="evenodd" clip-rule="evenodd" d="M292.719 314.559L390.399 66.8501L391.661 67.137L293.98 314.846L292.719 314.559Z" fill="black"/>
<path fill-rule="evenodd" clip-rule="evenodd" d="M371.429 332.463L469.109 84.7539L470.37 85.0408L372.69 332.75L371.429 332.463Z" fill="black"/>
<path fill-rule="evenodd" clip-rule="evenodd" d="M151.697 282.481L249.378 34.772L250.639 35.0589L152.958 282.768L151.697 282.481Z" fill="black"/>
<path fill-rule="evenodd" clip-rule="evenodd" d="M525.569 367.526L623.249 119.816L624.51 120.103L526.83 367.813L525.569 367.526Z" fill="black"/>
<path fill-rule="evenodd" clip-rule="evenodd" d="M305.837 317.543L403.518 69.834L404.779 70.1209L307.098 317.83L305.837 317.543Z" fill="black"/>
<path fill-rule="evenodd" clip-rule="evenodd" d="M72.9872 264.577L170.668 16.8677L171.929 17.1546L74.2485 264.864L72.9872 264.577Z" fill="black"/>
<path fill-rule="evenodd" clip-rule="evenodd" d="M446.859 349.621L544.539 101.912L545.801 102.199L448.12 349.908L446.859 349.621Z" fill="black"/>
<path fill-rule="evenodd" clip-rule="evenodd" d="M227.127 299.639L324.808 51.9297L326.069 52.2166L228.389 299.926L227.127 299.639Z" fill="black"/>
<path fill-rule="evenodd" clip-rule="evenodd" d="M36.9119 256.371L134.592 8.66162L135.854 8.94853L38.1732 256.658L36.9119 256.371Z" fill="black"/>
<path fill-rule="evenodd" clip-rule="evenodd" d="M410.784 341.415L508.464 93.7061L509.725 93.993L412.045 341.702L410.784 341.415Z" fill="black"/>
<path fill-rule="evenodd" clip-rule="evenodd" d="M191.052 291.433L288.733 43.7236L289.994 44.0105L192.313 291.72L191.052 291.433Z" fill="black"/>
<path fill-rule="evenodd" clip-rule="evenodd" d="M564.924 376.477L662.604 128.768L663.865 129.055L566.185 376.764L564.924 376.477Z" fill="black"/>
<path fill-rule="evenodd" clip-rule="evenodd" d="M345.192 326.495L442.872 78.7861L444.134 79.073L346.453 326.782L345.192 326.495Z" fill="black"/>
<path fill-rule="evenodd" clip-rule="evenodd" d="M112.342 273.529L210.023 25.8198L211.284 26.1067L113.603 273.816L112.342 273.529Z" fill="black"/>
<path fill-rule="evenodd" clip-rule="evenodd" d="M486.214 358.574L583.894 110.864L585.155 111.151L487.475 358.86L486.214 358.574Z" fill="black"/>
<path fill-rule="evenodd" clip-rule="evenodd" d="M266.482 308.591L364.163 60.8818L365.424 61.1687L267.743 308.878L266.482 308.591Z" fill="black"/>
<path fill-rule="evenodd" clip-rule="evenodd" d="M17.2344 251.895L114.915 4.18555L116.176 4.47245L18.4957 252.182L17.2344 251.895Z" fill="black"/>
<path fill-rule="evenodd" clip-rule="evenodd" d="M391.106 336.939L488.787 89.23L490.048 89.5169L392.367 337.226L391.106 336.939Z" fill="black"/>
<path fill-rule="evenodd" clip-rule="evenodd" d="M171.375 286.957L269.055 39.2476L270.316 39.5345L172.636 287.244L171.375 286.957Z" fill="black"/>
<path fill-rule="evenodd" clip-rule="evenodd" d="M545.246 372.001L642.927 124.292L644.188 124.579L546.507 372.288L545.246 372.001Z" fill="black"/>
<path fill-rule="evenodd" clip-rule="evenodd" d="M325.515 322.019L423.195 74.3101L424.456 74.597L326.776 322.306L325.515 322.019Z" fill="black"/>
<path fill-rule="evenodd" clip-rule="evenodd" d="M92.6647 269.053L190.345 21.3438L191.606 21.6307L93.926 269.34L92.6647 269.053Z" fill="black"/>
<path fill-rule="evenodd" clip-rule="evenodd" d="M466.536 354.097L564.217 106.388L565.478 106.675L467.798 354.384L466.536 354.097Z" fill="black"/>
<path fill-rule="evenodd" clip-rule="evenodd" d="M246.805 304.115L344.485 56.4058L345.746 56.6927L248.066 304.402L246.805 304.115Z" fill="black"/>
<path fill-rule="evenodd" clip-rule="evenodd" d="M56.5894 260.847L154.27 13.1377L155.531 13.4246L57.8507 261.134L56.5894 260.847Z" fill="black"/>
<path fill-rule="evenodd" clip-rule="evenodd" d="M430.461 345.891L528.141 98.1821L529.403 98.469L431.722 346.178L430.461 345.891Z" fill="black"/>
<path fill-rule="evenodd" clip-rule="evenodd" d="M210.729 295.909L308.41 48.1997L309.671 48.4866L211.991 296.196L210.729 295.909Z" fill="black"/>
<path fill-rule="evenodd" clip-rule="evenodd" d="M584.601 380.953L682.281 133.244L683.543 133.531L585.862 381.24L584.601 380.953Z" fill="black"/>
<path fill-rule="evenodd" clip-rule="evenodd" d="M132.02 278.005L229.7 30.2959L230.961 30.5828L133.281 278.292L132.02 278.005Z" fill="black"/>
<path fill-rule="evenodd" clip-rule="evenodd" d="M505.891 363.05L603.572 115.34L604.833 115.627L507.152 363.337L505.891 363.05Z" fill="black"/>
<path fill-rule="evenodd" clip-rule="evenodd" d="M286.16 313.067L383.84 65.3579L385.101 65.6448L287.421 313.354L286.16 313.067Z" fill="black"/>
<path fill-rule="evenodd" clip-rule="evenodd" d="M7.39566 249.657L105.076 1.94775L106.337 2.23466L8.65696 249.944L7.39566 249.657Z" fill="black"/>
<path fill-rule="evenodd" clip-rule="evenodd" d="M381.267 334.701L478.948 86.9922L480.209 87.2791L382.529 334.988L381.267 334.701Z" fill="black"/>
<path fill-rule="evenodd" clip-rule="evenodd" d="M161.536 284.719L259.216 37.0098L260.478 37.2967L162.797 285.006L161.536 284.719Z" fill="black"/>
<path fill-rule="evenodd" clip-rule="evenodd" d="M535.407 369.763L633.088 122.054L634.349 122.341L536.669 370.05L535.407 369.763Z" fill="black"/>
<path fill-rule="evenodd" clip-rule="evenodd" d="M315.676 319.781L413.356 72.0718L414.618 72.3587L316.937 320.068L315.676 319.781Z" fill="black"/>
<path fill-rule="evenodd" clip-rule="evenodd" d="M82.8259 266.815L180.506 19.1055L181.768 19.3924L84.0872 267.102L82.8259 266.815Z" fill="black"/>
<path fill-rule="evenodd" clip-rule="evenodd" d="M456.698 351.859L554.378 104.15L555.639 104.437L457.959 352.146L456.698 351.859Z" fill="black"/>
<path fill-rule="evenodd" clip-rule="evenodd" d="M236.966 301.877L334.646 54.168L335.908 54.4549L238.227 302.164L236.966 301.877Z" fill="black"/>
<path fill-rule="evenodd" clip-rule="evenodd" d="M46.7506 258.609L144.431 10.8994L145.692 11.1863L48.0119 258.896L46.7506 258.609Z" fill="black"/>
<path fill-rule="evenodd" clip-rule="evenodd" d="M420.622 343.653L518.303 95.9438L519.564 96.2308L421.884 343.94L420.622 343.653Z" fill="black"/>
<path fill-rule="evenodd" clip-rule="evenodd" d="M200.891 293.671L298.571 45.9619L299.833 46.2488L202.152 293.958L200.891 293.671Z" fill="black"/>
<path fill-rule="evenodd" clip-rule="evenodd" d="M574.762 378.716L672.443 131.006L673.704 131.293L576.024 379.003L574.762 378.716Z" fill="black"/>
<path fill-rule="evenodd" clip-rule="evenodd" d="M355.031 328.733L452.711 81.0239L453.973 81.3108L356.292 329.02L355.031 328.733Z" fill="black"/>
<path fill-rule="evenodd" clip-rule="evenodd" d="M122.181 275.767L219.861 28.0576L221.123 28.3445L123.442 276.054L122.181 275.767Z" fill="black"/>
<path fill-rule="evenodd" clip-rule="evenodd" d="M496.052 360.811L593.733 113.102L594.994 113.389L497.314 361.098L496.052 360.811Z" fill="black"/>
<path fill-rule="evenodd" clip-rule="evenodd" d="M276.321 310.829L374.001 63.1201L375.263 63.407L277.582 311.116L276.321 310.829Z" fill="black"/>
<path fill-rule="evenodd" clip-rule="evenodd" d="M27.0732 254.133L124.754 6.42383L126.015 6.71074L28.3344 254.42L27.0732 254.133Z" fill="black"/>
<path fill-rule="evenodd" clip-rule="evenodd" d="M400.945 339.177L498.625 91.4678L499.887 91.7547L402.206 339.464L400.945 339.177Z" fill="black"/>
<path fill-rule="evenodd" clip-rule="evenodd" d="M181.213 289.195L278.894 41.4858L280.155 41.7727L182.475 289.482L181.213 289.195Z" fill="black"/>
<path fill-rule="evenodd" clip-rule="evenodd" d="M555.085 374.24L652.765 126.53L654.027 126.817L556.346 374.526L555.085 374.24Z" fill="black"/>
<path fill-rule="evenodd" clip-rule="evenodd" d="M335.353 324.257L433.034 76.5479L434.295 76.8348L336.615 324.544L335.353 324.257Z" fill="black"/>
<path fill-rule="evenodd" clip-rule="evenodd" d="M102.503 271.291L200.184 23.5815L201.445 23.8685L103.765 271.578L102.503 271.291Z" fill="black"/>
<path fill-rule="evenodd" clip-rule="evenodd" d="M476.375 356.335L574.056 108.626L575.317 108.913L477.636 356.622L476.375 356.335Z" fill="black"/>
<path fill-rule="evenodd" clip-rule="evenodd" d="M256.643 306.353L354.324 58.644L355.585 58.931L257.905 306.64L256.643 306.353Z" fill="black"/>
<path fill-rule="evenodd" clip-rule="evenodd" d="M66.428 263.085L164.108 15.3755L165.37 15.6624L67.6893 263.372L66.428 263.085Z" fill="black"/>
<path fill-rule="evenodd" clip-rule="evenodd" d="M440.3 348.129L537.98 100.42L539.241 100.707L441.561 348.416L440.3 348.129Z" fill="black"/>
<path fill-rule="evenodd" clip-rule="evenodd" d="M220.568 298.147L318.249 50.438L319.51 50.7249L221.829 298.434L220.568 298.147Z" fill="black"/>
<path fill-rule="evenodd" clip-rule="evenodd" d="M141.858 280.243L239.539 32.5337L240.8 32.8206L143.12 280.53L141.858 280.243Z" fill="black"/>
<path fill-rule="evenodd" clip-rule="evenodd" d="M515.73 365.287L613.41 117.578L614.672 117.865L516.991 365.574L515.73 365.287Z" fill="black"/>
<path fill-rule="evenodd" clip-rule="evenodd" d="M295.998 315.305L393.679 67.5957L394.94 67.8826L297.26 315.592L295.998 315.305Z" fill="black"/>
</mask>
<g mask="url(#mask0)">
<rect x="38.222" y="148.688" width="682.486" height="72" rx="5" fill="black"/>
</g>
</g>
</svg>
