<svg width="24" height="24" viewBox="0 0 24 24" fill="none" xmlns="http://www.w3.org/2000/svg">
<path d="M11.275 1.77148C11.493 0.705151 13.0166 0.705152 13.2345 1.77148L14.7196 9.03732C14.7998 9.42984 15.1066 9.73659 15.4991 9.81682L22.7649 11.3019C23.8313 11.5198 23.8313 13.0434 22.7649 13.2614L15.4991 14.7465C15.1066 14.8267 14.7998 15.1334 14.7196 15.526L13.2345 22.7918C13.0166 23.8581 11.493 23.8581 11.275 22.7918L9.78996 15.526C9.70973 15.1334 9.40299 14.8267 9.01047 14.7465L1.74463 13.2614C0.678296 13.0434 0.678296 11.5198 1.74463 11.3019L9.01047 9.81682C9.40299 9.73659 9.70973 9.42984 9.78996 9.03732L11.275 1.77148Z" fill="white"/>
</svg>
