<svg width="150" height="458" viewBox="0 0 150 458" fill="none" xmlns="http://www.w3.org/2000/svg">
<g opacity="0.2">
<path d="M0.795166 399.069H135.697V457.557H7.54064C3.81522 457.557 0.795166 454.285 0.795166 450.248V399.069Z" fill="black" fill-opacity="0.1"/>
<path fill-rule="evenodd" clip-rule="evenodd" d="M26.2256 441.64C33.7876 441.64 39.9178 435.51 39.9178 427.948C39.9178 420.386 33.7876 414.256 26.2256 414.256C18.6637 414.256 12.5334 420.386 12.5334 427.948C12.5334 435.51 18.6637 441.64 26.2256 441.64Z" fill="white" fill-opacity="0.1"/>
<path fill-rule="evenodd" clip-rule="evenodd" d="M12.1227 427.948C12.1227 420.159 18.4368 413.845 26.2256 413.845C34.0145 413.845 40.3286 420.159 40.3286 427.948C40.3286 435.737 34.0145 442.051 26.2256 442.051C18.4368 442.051 12.1227 435.737 12.1227 427.948ZM26.2256 414.667C18.8905 414.667 12.9442 420.613 12.9442 427.948C12.9442 435.283 18.8905 441.23 26.2256 441.23C33.5608 441.23 39.5071 435.283 39.5071 427.948C39.5071 420.613 33.5608 414.667 26.2256 414.667Z" fill="white" fill-opacity="0.3"/>
<g clip-path="url(#clip0)">
<g clip-path="url(#clip1)">
<path d="M26.2218 421.102L19.3757 427.948L26.2218 434.794L33.0679 427.948L26.2218 421.102Z" fill="#00CFFD"/>
<path fill-rule="evenodd" clip-rule="evenodd" d="M19.0853 428.238C18.9248 428.078 18.9248 427.818 19.0853 427.657L25.9314 420.811C26.0918 420.651 26.3518 420.651 26.5123 420.811L33.3584 427.657C33.5188 427.818 33.5188 428.078 33.3584 428.238L26.5123 435.084C26.3518 435.245 26.0918 435.245 25.9314 435.084L19.0853 428.238ZM19.9566 427.948L26.2218 434.213L32.487 427.948L26.2218 421.683L19.9566 427.948Z" fill="black"/>
<path fill-rule="evenodd" clip-rule="evenodd" d="M24.5091 428.35C24.3487 428.19 24.0886 428.19 23.9282 428.35C23.7678 428.51 23.7678 428.771 23.9282 428.931L26.0029 431.006C26.0799 431.083 26.1844 431.126 26.2933 431.126C26.4023 431.126 26.5068 431.083 26.5838 431.006L28.6585 428.931C28.8189 428.771 28.8189 428.51 28.6585 428.35C28.4981 428.19 28.238 428.19 28.0776 428.35L26.706 429.722L26.706 424.836C26.706 424.609 26.5221 424.425 26.2952 424.425C26.0684 424.425 25.8845 424.609 25.8845 424.836L25.8845 429.725L24.5091 428.35Z" fill="black"/>
</g>
</g>
<g clip-path="url(#clip2)">
<path d="M47.1747 415.006C47.1747 413.797 48.1545 412.817 49.3632 412.817H90.3982C91.6069 412.817 92.5867 413.797 92.5867 415.006V415.006C92.5867 416.215 91.6069 417.194 90.3982 417.194H49.3632C48.1545 417.194 47.1747 416.215 47.1747 415.006V415.006Z" fill="white" fill-opacity="0.6"/>
<path d="M47.1747 423.852C47.1747 423.247 47.6646 422.757 48.2689 422.757H77.8142C78.4185 422.757 78.9084 423.247 78.9084 423.852V423.852C78.9084 424.456 78.4185 424.946 77.8142 424.946H48.2689C47.6646 424.946 47.1747 424.456 47.1747 423.852V423.852Z" fill="white" fill-opacity="0.3"/>
<g clip-path="url(#clip3)">
<rect x="47.1747" y="430.509" width="75.3071" height="12.5701" rx="5.47688" fill="black" fill-opacity="0.2"/>
<path d="M47.8593 432.22C47.8593 431.653 48.319 431.193 48.8862 431.193H96.1243C96.6914 431.193 97.1512 431.653 97.1512 432.22V432.22C97.1512 432.787 96.6914 433.247 96.1243 433.247H48.8862C48.319 433.247 47.8593 432.787 47.8593 432.22V432.22Z" fill="#00CFFD"/>
<path fill-rule="evenodd" clip-rule="evenodd" d="M47.8593 441.244C47.8593 440.608 48.3743 440.093 49.0097 440.093H96.2478C96.8832 440.093 97.3983 440.608 97.3983 441.244C97.3983 441.879 96.8832 442.394 96.2478 442.394H49.0097C48.3743 442.394 47.8593 441.879 47.8593 441.244ZM49.0097 440.34C48.5108 440.34 48.1064 440.745 48.1064 441.244C48.1064 441.743 48.5108 442.147 49.0097 442.147H96.2478C96.7467 442.147 97.1512 441.743 97.1512 441.244C97.1512 440.745 96.7467 440.34 96.2478 440.34H49.0097Z" fill="#00CFFD"/>
</g>
</g>
<g clip-path="url(#clip4)">
<rect x="6.6311" y="43.3184" width="123.23" height="16.5807" rx="3.42305" fill="black" fill-opacity="0.2"/>
<path d="M15.5281 54.2659C16.219 54.2659 16.8665 54.0573 17.4054 53.7009L19.3088 55.6087C19.4348 55.7304 19.5956 55.7912 19.7694 55.7912C20.1301 55.7912 20.3952 55.5087 20.3952 55.1524C20.3952 54.9872 20.3387 54.8265 20.2171 54.7048L18.3267 52.8057C18.7178 52.2538 18.9481 51.5759 18.9481 50.8458C18.9481 48.9641 17.4097 47.4258 15.5281 47.4258C13.6507 47.4258 12.108 48.9641 12.108 50.8458C12.108 52.7275 13.6464 54.2659 15.5281 54.2659ZM15.5281 53.3533C14.1505 53.3533 13.0206 52.2234 13.0206 50.8458C13.0206 49.4726 14.1505 48.3384 15.5281 48.3384C16.9057 48.3384 18.0355 49.4726 18.0355 50.8458C18.0355 52.2234 16.9057 53.3533 15.5281 53.3533Z" fill="white"/>
<path d="M6.6311 69.209C6.6311 68.6047 7.12102 68.1147 7.72537 68.1147H37.2706C37.8749 68.1147 38.3648 68.6047 38.3648 69.209V69.209C38.3648 69.8134 37.8749 70.3033 37.2706 70.3033H7.72537C7.12102 70.3033 6.6311 69.8134 6.6311 69.209V69.209Z" fill="white" fill-opacity="0.3"/>
<rect x="6.6311" y="75.7803" width="123.23" height="19.1691" rx="3.42305" fill="white" fill-opacity="0.1"/>
<g clip-path="url(#clip5)">
<path fill-rule="evenodd" clip-rule="evenodd" d="M15.5328 79.614C15.3831 79.614 15.2589 79.7382 15.2589 79.8879V90.8416C15.2589 90.9913 15.3831 91.1155 15.5328 91.1155H21.2835V79.614H15.5328ZM14.4374 79.8879C14.4374 79.2845 14.9294 78.7925 15.5328 78.7925H21.6942C21.9211 78.7925 22.105 78.9764 22.105 79.2032V91.5262C22.105 91.7531 21.9211 91.937 21.6942 91.937H15.5328C14.9294 91.937 14.4374 91.445 14.4374 90.8416V79.8879Z" fill="white" fill-opacity="0.6"/>
<path fill-rule="evenodd" clip-rule="evenodd" d="M21.2836 79.2037C21.2836 78.9769 21.4675 78.793 21.6943 78.793H27.8558C28.4592 78.793 28.9512 79.2849 28.9512 79.8883V90.8421C28.9512 91.4455 28.4592 91.9375 27.8558 91.9375H21.6943C21.4675 91.9375 21.2836 91.7536 21.2836 91.5267V79.2037ZM22.1051 79.6145V91.1159H27.8558C28.0055 91.1159 28.1297 90.9918 28.1297 90.8421V79.8883C28.1297 79.7387 28.0055 79.6145 27.8558 79.6145H22.1051Z" fill="white" fill-opacity="0.6"/>
<path fill-rule="evenodd" clip-rule="evenodd" d="M20.3259 85.7761H16.2183V84.9546H20.3259V85.7761Z" fill="white" fill-opacity="0.6"/>
<path fill-rule="evenodd" clip-rule="evenodd" d="M20.3259 83.0378H16.2183V82.2163H20.3259V83.0378Z" fill="white" fill-opacity="0.6"/>
<path fill-rule="evenodd" clip-rule="evenodd" d="M20.3259 88.5144H16.2183V87.6929H20.3259V88.5144Z" fill="white" fill-opacity="0.6"/>
<path fill-rule="evenodd" clip-rule="evenodd" d="M27.1697 85.7761H23.062V84.9546H27.1697V85.7761Z" fill="white" fill-opacity="0.6"/>
<path fill-rule="evenodd" clip-rule="evenodd" d="M27.1697 83.0378H23.062V82.2163H27.1697V83.0378Z" fill="white" fill-opacity="0.6"/>
<path d="M36.754 85.3648C36.754 84.7604 37.2439 84.2705 37.8483 84.2705H67.3935C67.9978 84.2705 68.4878 84.7604 68.4878 85.3648V85.3648C68.4878 85.9691 67.9978 86.459 67.3935 86.459H37.8483C37.2439 86.459 36.754 85.9691 36.754 85.3648V85.3648Z" fill="white" fill-opacity="0.3"/>
</g>
<g clip-path="url(#clip6)">
<path fill-rule="evenodd" clip-rule="evenodd" d="M18.3191 103.834C19.1043 103.079 20.1154 102.751 21.0112 102.751C21.2381 102.751 21.422 102.935 21.422 103.162C21.422 103.389 21.2381 103.573 21.0112 103.573C20.3051 103.573 19.5053 103.833 18.8887 104.426C18.28 105.012 17.8186 105.952 17.8346 107.374C17.8356 107.467 17.8055 107.557 17.749 107.63L15.4277 110.638L16.9081 111.372C17.0294 111.432 17.1133 111.548 17.1323 111.682C17.2134 112.256 17.5004 113.868 17.6835 114.83C17.723 114.835 17.7702 114.84 17.8253 114.844C18.0762 114.863 18.4163 114.863 18.7676 114.853C19.116 114.844 19.4638 114.826 19.7252 114.81C19.8557 114.802 19.9643 114.795 20.04 114.789L20.1276 114.783L20.1503 114.781L20.1574 114.781C20.1574 114.781 20.1574 114.781 20.1574 114.781C20.3248 114.768 20.4836 114.858 20.558 115.008L21.3795 116.672C21.48 116.875 21.3965 117.122 21.1931 117.222C20.9897 117.323 20.7433 117.239 20.6429 117.036L19.9435 115.619C19.8927 115.623 19.8362 115.626 19.775 115.63C19.5083 115.646 19.1505 115.665 18.7894 115.675C18.4313 115.684 18.0582 115.685 17.7654 115.664C17.6219 115.653 17.4777 115.636 17.3586 115.605C17.3007 115.59 17.2254 115.566 17.1541 115.523C17.0904 115.486 16.9587 115.391 16.9195 115.208L16.9178 115.2C16.7567 114.37 16.4713 112.783 16.3511 112.013L14.9083 111.297C14.7622 111.269 14.6263 111.188 14.5363 111.06C14.4122 110.883 14.395 110.629 14.5527 110.427L17.0129 107.239C17.027 105.696 17.5499 104.575 18.3191 103.834Z" fill="white" fill-opacity="0.6"/>
<path fill-rule="evenodd" clip-rule="evenodd" d="M24.3297 103.3C24.4061 103.087 24.2949 102.852 24.0814 102.775C23.8678 102.699 23.6326 102.81 23.5562 103.023L22.8579 104.975C22.7815 105.188 22.8926 105.423 23.1062 105.5C23.3198 105.576 23.5549 105.465 23.6314 105.251L24.3297 103.3ZM28.5729 105.367C28.7545 105.231 28.7915 104.974 28.6556 104.792C28.5197 104.611 28.2622 104.574 28.0806 104.71L25.7392 106.462C25.5576 106.598 25.5206 106.856 25.6565 107.037C25.7925 107.219 26.0499 107.256 26.2315 107.12L28.5729 105.367ZM25.8935 109.888C25.9101 109.662 26.107 109.492 26.3333 109.509L28.5719 109.673C28.7982 109.69 28.9681 109.887 28.9515 110.113C28.9349 110.339 28.7381 110.509 28.5118 110.492L26.2731 110.328C26.0469 110.311 25.8769 110.115 25.8935 109.888ZM21.5049 113.644C21.278 113.644 21.0941 113.827 21.0941 114.054C21.0941 114.281 21.278 114.465 21.5049 114.465H23.3054C23.5322 114.465 23.7161 114.281 23.7161 114.054C23.7161 113.827 23.5322 113.644 23.3054 113.644H21.5049ZM21.0941 112.288C21.0941 112.061 21.278 111.877 21.5049 111.877H21.6132C20.7101 111.119 19.4734 109.455 20.4839 108.125C21.4698 106.831 23.3387 106.831 24.3246 108.125C25.334 109.454 24.1058 111.12 23.2005 111.877H23.3054C23.5322 111.877 23.7161 112.061 23.7161 112.288C23.7161 112.514 23.5322 112.698 23.3054 112.698H21.5049C21.278 112.698 21.0941 112.514 21.0941 112.288ZM22.8209 111.877V110.126C23.0102 109.989 23.1334 109.767 23.1334 109.515C23.1334 109.099 22.7963 108.762 22.3803 108.762C21.9644 108.762 21.6273 109.099 21.6273 109.515C21.6273 109.792 21.7767 110.034 21.9994 110.165V111.877H22.8209ZM22.3656 109.448C22.3715 109.448 22.3774 109.447 22.3833 109.447L22.3803 109.447C22.3753 109.447 22.3704 109.447 22.3656 109.448Z" fill="white" fill-opacity="0.6"/>
<path d="M36.754 110.011C36.754 109.243 37.3767 108.62 38.1448 108.62H81.2579C82.026 108.62 82.6486 109.243 82.6486 110.011V110.011C82.6486 110.779 82.026 111.402 81.2579 111.402H38.1448C37.3767 111.402 36.754 110.779 36.754 110.011V110.011Z" fill="white" fill-opacity="0.3"/>
</g>
<g clip-path="url(#clip7)">
<path fill-rule="evenodd" clip-rule="evenodd" d="M14.5593 134.947C14.3988 134.787 14.3988 134.527 14.5593 134.366L21.4054 127.52C21.5658 127.36 21.8258 127.36 21.9863 127.52L28.8324 134.366C28.9928 134.527 28.9928 134.787 28.8324 134.947L21.9863 141.793C21.8258 141.954 21.5658 141.954 21.4054 141.793L14.5593 134.947ZM15.4306 134.657L21.6958 140.922L27.961 134.657L21.6958 128.392L15.4306 134.657Z" fill="white" fill-opacity="0.6"/>
<path fill-rule="evenodd" clip-rule="evenodd" d="M19.983 135.061C19.8225 134.9 19.5625 134.9 19.402 135.061C19.2416 135.221 19.2416 135.481 19.402 135.641L21.4768 137.716C21.5538 137.793 21.6583 137.836 21.7672 137.836C21.8761 137.836 21.9806 137.793 22.0577 137.716L24.1324 135.641C24.2928 135.481 24.2928 135.221 24.1324 135.061C23.9719 134.9 23.7119 134.9 23.5515 135.061L22.1799 136.432L22.1799 131.547C22.1799 131.32 21.996 131.136 21.7691 131.136C21.5423 131.136 21.3583 131.32 21.3583 131.547L21.3583 136.436L19.983 135.061Z" fill="white" fill-opacity="0.6"/>
<path d="M36.754 134.656C36.754 133.888 37.3767 133.266 38.1448 133.266H81.2579C82.026 133.266 82.6486 133.888 82.6486 134.656V134.656C82.6486 135.424 82.026 136.047 81.2579 136.047H38.1448C37.3767 136.047 36.754 135.424 36.754 134.656V134.656Z" fill="white" fill-opacity="0.3"/>
</g>
<path d="M9.29065 165.379C10.6264 165.379 11.5852 164.605 11.7376 163.446V163.418H10.7227L10.7187 163.438C10.5703 164.076 10.0247 164.485 9.29065 164.485C8.30385 164.485 7.69011 163.663 7.69011 162.343V162.335C7.69011 161.019 8.30385 160.197 9.28664 160.197C10.0167 160.197 10.5703 160.65 10.7187 161.336L10.7227 161.352H11.7376V161.32C11.6012 160.137 10.6024 159.302 9.28664 159.302C7.64598 159.302 6.6311 160.462 6.6311 162.339V162.347C6.6311 164.216 7.65 165.379 9.29065 165.379Z" fill="white" fill-opacity="0.6"/>
<path d="M14.682 165.323C15.9937 165.323 16.7919 164.465 16.7919 163.045V163.037C16.7919 161.625 15.9897 160.766 14.682 160.766C13.3783 160.766 12.572 161.629 12.572 163.037V163.045C12.572 164.465 13.3662 165.323 14.682 165.323ZM14.682 164.513C13.988 164.513 13.5909 163.972 13.5909 163.049V163.041C13.5909 162.118 13.988 161.573 14.682 161.573C15.3719 161.573 15.769 162.118 15.769 163.041V163.049C15.769 163.972 15.3759 164.513 14.682 164.513Z" fill="white" fill-opacity="0.6"/>
<path d="M19.2469 165.323C19.8807 165.323 20.326 165.039 20.5306 164.569H20.5988V165.235H21.5976V160.851H20.5988V163.406C20.5988 164.064 20.2538 164.481 19.6079 164.481C19.0062 164.481 18.7535 164.136 18.7535 163.458V160.851H17.7547V163.687C17.7547 164.73 18.2601 165.323 19.2469 165.323Z" fill="white" fill-opacity="0.6"/>
<path d="M22.8171 165.235H23.8159V162.688C23.8159 162.062 24.2531 161.665 24.919 161.665C25.0915 161.665 25.256 161.689 25.4164 161.721V160.827C25.3202 160.798 25.1637 160.778 25.0113 160.778C24.4336 160.778 24.0325 161.055 23.8841 161.525H23.8159V160.851H22.8171V165.235Z" fill="white" fill-opacity="0.6"/>
<path d="M27.7952 165.323C28.8742 165.323 29.6565 164.766 29.6565 163.931V163.923C29.6565 163.286 29.2513 162.921 28.3929 162.728L27.6829 162.572C27.2095 162.463 27.025 162.307 27.025 162.05V162.046C27.025 161.717 27.3459 161.5 27.7912 161.5C28.2605 161.5 28.5493 161.725 28.6215 162.002L28.6255 162.014H29.5642V162.006C29.5 161.296 28.8622 160.766 27.7952 160.766C26.7602 160.766 26.0382 161.312 26.0382 162.102V162.106C26.0382 162.752 26.4353 163.145 27.2697 163.33L27.9797 163.49C28.4611 163.598 28.6536 163.767 28.6536 164.024V164.032C28.6536 164.361 28.3086 164.585 27.8112 164.585C27.3138 164.585 27.021 164.373 26.9167 164.068L26.9127 164.06H25.9219V164.068C26.0061 164.81 26.68 165.323 27.7952 165.323Z" fill="white" fill-opacity="0.6"/>
<path d="M32.5407 165.323C33.732 165.323 34.3177 164.637 34.4581 164.072L34.4701 164.036H33.5194L33.5074 164.064C33.4111 164.264 33.1023 164.537 32.5607 164.537C31.8828 164.537 31.4576 164.08 31.4455 163.294H34.5102V162.965C34.5102 161.641 33.7401 160.766 32.4925 160.766C31.245 160.766 30.4467 161.669 30.4467 163.049V163.053C30.4467 164.449 31.237 165.323 32.5407 165.323ZM32.5046 161.549C33.0621 161.549 33.4673 161.906 33.5355 162.624H31.4536C31.5298 161.926 31.947 161.549 32.5046 161.549Z" fill="white" fill-opacity="0.6"/>
<path d="M37.1658 165.323C38.2448 165.323 39.0271 164.766 39.0271 163.931V163.923C39.0271 163.286 38.6219 162.921 37.7635 162.728L37.0535 162.572C36.5801 162.463 36.3956 162.307 36.3956 162.05V162.046C36.3956 161.717 36.7165 161.5 37.1618 161.5C37.6311 161.5 37.9199 161.725 37.9921 162.002L37.9961 162.014H38.9348V162.006C38.8706 161.296 38.2328 160.766 37.1658 160.766C36.1308 160.766 35.4088 161.312 35.4088 162.102V162.106C35.4088 162.752 35.8059 163.145 36.6403 163.33L37.3503 163.49C37.8317 163.598 38.0242 163.767 38.0242 164.024V164.032C38.0242 164.361 37.6792 164.585 37.1818 164.585C36.6844 164.585 36.3916 164.373 36.2873 164.068L36.2833 164.06H35.2925V164.068C35.3767 164.81 36.0506 165.323 37.1658 165.323Z" fill="white" fill-opacity="0.6"/>
<g clip-path="url(#clip8)">
<g clip-path="url(#clip9)">
<path fill-rule="evenodd" clip-rule="evenodd" d="M21.6926 186.602C25.8517 186.602 29.2233 183.231 29.2233 179.072C29.2233 174.913 25.8517 171.541 21.6926 171.541C17.5335 171.541 14.1619 174.913 14.1619 179.072C14.1619 183.231 17.5335 186.602 21.6926 186.602ZM29.9079 179.072C29.9079 183.609 26.2298 187.287 21.6926 187.287C17.1554 187.287 13.4773 183.609 13.4773 179.072C13.4773 174.535 17.1554 170.856 21.6926 170.856C26.2298 170.856 29.9079 174.535 29.9079 179.072Z" fill="white" fill-opacity="0.2"/>
<g filter="url(#filter0_d)">
<path d="M23.6355 182.141C22.6136 182.74 21.2085 182.801 19.7949 182.187C18.6503 181.693 17.7006 180.828 17.0918 179.84C17.384 180.087 17.725 180.284 18.0902 180.457C19.5501 181.151 21.0097 181.104 22.0368 180.459C22.0362 180.458 22.0357 180.458 22.0353 180.457C20.5742 179.321 19.3322 177.838 18.4069 176.628C18.212 176.43 18.0658 176.183 17.9197 175.961C19.0399 176.999 20.8177 178.308 21.4507 178.679C20.1116 177.246 18.9182 175.467 18.9668 175.516C21.0855 177.69 23.0582 178.926 23.0582 178.926C23.1234 178.963 23.1738 178.994 23.2143 179.022C23.257 178.912 23.2944 178.797 23.3259 178.679C23.6669 177.419 23.2773 175.986 22.4249 174.8C24.3973 176.01 25.5664 178.283 25.0792 180.186C25.0665 180.237 25.0527 180.288 25.0378 180.337C25.0435 180.344 25.0492 180.351 25.0549 180.359C26.0288 181.594 25.7611 182.903 25.6393 182.656C25.1109 181.607 24.1328 181.928 23.6356 182.141L23.6355 182.141Z" fill="white"/>
</g>
</g>
<path d="M36.754 179.072C36.754 178.467 37.2439 177.978 37.8483 177.978H67.3935C67.9978 177.978 68.4878 178.467 68.4878 179.072V179.072C68.4878 179.676 67.9978 180.166 67.3935 180.166H37.8483C37.2439 180.166 36.754 179.676 36.754 179.072V179.072Z" fill="white" fill-opacity="0.3"/>
</g>
<g clip-path="url(#clip10)">
<path fill-rule="evenodd" clip-rule="evenodd" d="M21.6926 209.879C25.8517 209.879 29.2233 206.507 29.2233 202.348C29.2233 198.189 25.8517 194.817 21.6926 194.817C17.5335 194.817 14.1619 198.189 14.1619 202.348C14.1619 206.507 17.5335 209.879 21.6926 209.879ZM29.9079 202.348C29.9079 206.885 26.2298 210.563 21.6926 210.563C17.1554 210.563 13.4773 206.885 13.4773 202.348C13.4773 197.811 17.1554 194.133 21.6926 194.133C26.2298 194.133 29.9079 197.811 29.9079 202.348Z" fill="white" fill-opacity="0.2"/>
<g clip-path="url(#clip11)">
<path d="M24.23 201.949L21.2964 204.883L22.4978 206.084L25.4314 203.151L24.23 201.949Z" fill="white"/>
<path fill-rule="evenodd" clip-rule="evenodd" d="M18.0973 199.33L20.4336 201.666L20.4334 201.68C20.4334 202.01 20.7009 202.278 21.0309 202.278C21.3609 202.278 21.6284 202.01 21.6284 201.68C21.6284 201.35 21.3609 201.083 21.0309 201.083L21.0123 201.083L18.682 198.753L22.8952 199.55H22.899L23.6981 202.485L21.831 204.353L18.8959 203.55L18.0973 199.33Z" fill="white"/>
</g>
<path d="M36.754 202.348C36.754 201.58 37.3767 200.958 38.1448 200.958H72.9134C73.6815 200.958 74.3041 201.58 74.3041 202.348V202.348C74.3041 203.116 73.6815 203.739 72.9134 203.739H38.1448C37.3767 203.739 36.754 203.116 36.754 202.348V202.348Z" fill="white" fill-opacity="0.3"/>
</g>
<g clip-path="url(#clip12)">
<g clip-path="url(#clip13)">
<path fill-rule="evenodd" clip-rule="evenodd" d="M21.6926 233.156C25.8517 233.156 29.2233 229.784 29.2233 225.625C29.2233 221.466 25.8517 218.094 21.6926 218.094C17.5335 218.094 14.1619 221.466 14.1619 225.625C14.1619 229.784 17.5335 233.156 21.6926 233.156ZM29.9079 225.625C29.9079 230.162 26.2298 233.84 21.6926 233.84C17.1554 233.84 13.4773 230.162 13.4773 225.625C13.4773 221.088 17.1554 217.41 21.6926 217.41C26.2298 217.41 29.9079 221.088 29.9079 225.625Z" fill="white" fill-opacity="0.2"/>
<g filter="url(#filter1_d)">
<path d="M23.6355 228.693C22.6136 229.292 21.2085 229.354 19.7949 228.739C18.6503 228.245 17.7006 227.38 17.0918 226.392C17.384 226.639 17.725 226.837 18.0902 227.009C19.5501 227.704 21.0097 227.656 22.0368 227.011C22.0362 227.011 22.0357 227.01 22.0353 227.009C20.5742 225.873 19.3322 224.391 18.4069 223.18C18.212 222.983 18.0658 222.736 17.9197 222.513C19.0399 223.551 20.8177 224.86 21.4507 225.231C20.1116 223.798 18.9182 222.019 18.9668 222.068C21.0855 224.243 23.0582 225.478 23.0582 225.478C23.1234 225.515 23.1738 225.546 23.2143 225.574C23.257 225.464 23.2944 225.349 23.3259 225.231C23.6669 223.971 23.2773 222.538 22.4249 221.352C24.3973 222.563 25.5664 224.835 25.0792 226.738C25.0665 226.789 25.0527 226.84 25.0378 226.89C25.0435 226.896 25.0492 226.904 25.0549 226.911C26.0288 228.146 25.7611 229.456 25.6393 229.208C25.1109 228.16 24.1328 228.48 23.6356 228.693L23.6355 228.693Z" fill="white"/>
</g>
</g>
<path d="M36.754 225.625C36.754 224.857 37.3767 224.234 38.1448 224.234H77.0856C77.8537 224.234 78.4764 224.857 78.4764 225.625V225.625C78.4764 226.393 77.8537 227.016 77.0856 227.016H38.1448C37.3767 227.016 36.754 226.393 36.754 225.625V225.625Z" fill="white" fill-opacity="0.3"/>
</g>
<path d="M8.41216 260.677H9.4471V255.759H11.2322V254.888H6.6311V255.759H8.41216V260.677Z" fill="white" fill-opacity="0.6"/>
<path d="M13.1737 260.765C13.8075 260.765 14.2527 260.48 14.4573 260.011H14.5255V260.677H15.5243V256.292H14.5255V258.848C14.5255 259.505 14.1805 259.923 13.5347 259.923C12.933 259.923 12.6803 259.578 12.6803 258.9V256.292H11.6814V259.128C11.6814 260.171 12.1869 260.765 13.1737 260.765Z" fill="white" fill-opacity="0.6"/>
<path d="M18.4687 260.697C18.6613 260.697 18.8458 260.681 18.9902 260.653V259.883C18.8698 259.895 18.7936 259.899 18.6532 259.899C18.236 259.899 18.0636 259.714 18.0636 259.277V257.067H18.9902V256.292H18.0636V255.217H17.0487V256.292H16.3667V257.067H17.0487V259.513C17.0487 260.36 17.4618 260.697 18.4687 260.697Z" fill="white" fill-opacity="0.6"/>
<path d="M21.8383 260.765C23.15 260.765 23.9483 259.907 23.9483 258.487V258.479C23.9483 257.067 23.146 256.208 21.8383 256.208C20.5346 256.208 19.7283 257.071 19.7283 258.479V258.487C19.7283 259.907 20.5225 260.765 21.8383 260.765ZM21.8383 259.955C21.1443 259.955 20.7472 259.413 20.7472 258.491V258.483C20.7472 257.56 21.1443 257.014 21.8383 257.014C22.5282 257.014 22.9254 257.56 22.9254 258.483V258.491C22.9254 259.413 22.5322 259.955 21.8383 259.955Z" fill="white" fill-opacity="0.6"/>
<path d="M24.9511 260.677H25.9499V258.13C25.9499 257.504 26.3872 257.107 27.0531 257.107C27.2256 257.107 27.39 257.131 27.5505 257.163V256.268C27.4542 256.24 27.2978 256.22 27.1453 256.22C26.5677 256.22 26.1666 256.497 26.0181 256.966H25.9499V256.292H24.9511V260.677Z" fill="white" fill-opacity="0.6"/>
<path d="M28.8823 255.558C29.2072 255.558 29.476 255.298 29.476 254.969C29.476 254.644 29.2072 254.379 28.8823 254.379C28.5533 254.379 28.2846 254.644 28.2846 254.969C28.2846 255.298 28.5533 255.558 28.8823 255.558ZM28.3808 260.677H29.3797V256.292H28.3808V260.677Z" fill="white" fill-opacity="0.6"/>
<path d="M31.8026 260.749C32.3802 260.749 32.8455 260.5 33.0862 260.075H33.1544V260.677H34.1412V257.68C34.1412 256.754 33.5074 256.208 32.3802 256.208C31.3372 256.208 30.6312 256.697 30.535 257.436L30.531 257.472H31.4736L31.4776 257.456C31.5779 257.167 31.8748 257.002 32.3321 257.002C32.8696 257.002 33.1544 257.243 33.1544 257.68V258.057L32.0272 258.126C30.9602 258.19 30.3625 258.647 30.3625 259.429V259.437C30.3625 260.236 30.9682 260.749 31.8026 260.749ZM31.3493 259.389V259.381C31.3493 259.02 31.61 258.816 32.1676 258.779L33.1544 258.715V259.068C33.1544 259.59 32.7091 259.983 32.1074 259.983C31.6662 259.983 31.3493 259.762 31.3493 259.389Z" fill="white" fill-opacity="0.6"/>
<path d="M35.3807 260.677H36.3796V254.596H35.3807V260.677Z" fill="white" fill-opacity="0.6"/>
<path d="M39.2998 260.765C40.3789 260.765 41.1611 260.207 41.1611 259.373V259.365C41.1611 258.727 40.756 258.362 39.8975 258.17L39.1875 258.013C38.7142 257.905 38.5297 257.748 38.5297 257.492V257.488C38.5297 257.159 38.8506 256.942 39.2958 256.942C39.7652 256.942 40.054 257.167 40.1262 257.444L40.1302 257.456H41.0689V257.448C41.0047 256.738 40.3669 256.208 39.2998 256.208C38.2649 256.208 37.5429 256.754 37.5429 257.544V257.548C37.5429 258.194 37.94 258.587 38.7744 258.771L39.4844 258.932C39.9657 259.04 40.1583 259.209 40.1583 259.465V259.473C40.1583 259.802 39.8133 260.027 39.3159 260.027C38.8185 260.027 38.5256 259.814 38.4214 259.509L38.4173 259.501H37.4265V259.509C37.5108 260.252 38.1847 260.765 39.2998 260.765Z" fill="white" fill-opacity="0.6"/>
<g clip-path="url(#clip14)">
<g clip-path="url(#clip15)">
<path fill-rule="evenodd" clip-rule="evenodd" d="M21.6926 281.988C25.8517 281.988 29.2233 278.617 29.2233 274.458C29.2233 270.298 25.8517 266.927 21.6926 266.927C17.5335 266.927 14.1619 270.298 14.1619 274.458C14.1619 278.617 17.5335 281.988 21.6926 281.988ZM29.9079 274.458C29.9079 278.995 26.2298 282.673 21.6926 282.673C17.1554 282.673 13.4773 278.995 13.4773 274.458C13.4773 269.92 17.1554 266.242 21.6926 266.242C26.2298 266.242 29.9079 269.92 29.9079 274.458Z" fill="white" fill-opacity="0.2"/>
<g filter="url(#filter2_d)">
<path d="M23.6355 277.528C22.6136 278.127 21.2085 278.188 19.7949 277.574C18.6503 277.08 17.7006 276.215 17.0918 275.227C17.384 275.474 17.725 275.672 18.0902 275.844C19.5501 276.539 21.0097 276.491 22.0368 275.846C22.0362 275.846 22.0357 275.845 22.0353 275.844C20.5742 274.708 19.3322 273.226 18.4069 272.015C18.212 271.818 18.0658 271.57 17.9197 271.348C19.0399 272.386 20.8177 273.695 21.4507 274.066C20.1116 272.633 18.9182 270.854 18.9668 270.903C21.0855 273.077 23.0582 274.313 23.0582 274.313C23.1234 274.35 23.1738 274.381 23.2143 274.409C23.257 274.299 23.2944 274.184 23.3259 274.066C23.6669 272.806 23.2773 271.373 22.4249 270.187C24.3973 271.398 25.5664 273.67 25.0792 275.573C25.0665 275.624 25.0527 275.675 25.0378 275.725C25.0435 275.731 25.0492 275.739 25.0549 275.746C26.0288 276.981 25.7611 278.29 25.6393 278.043C25.1109 276.994 24.1328 277.315 23.6356 277.528L23.6355 277.528Z" fill="white"/>
</g>
</g>
<path d="M36.754 274.458C36.754 273.69 37.3767 273.067 38.1448 273.067H59.006C59.774 273.067 60.3967 273.69 60.3967 274.458V274.458C60.3967 275.226 59.774 275.848 59.006 275.848H38.1448C37.3767 275.848 36.754 275.226 36.754 274.458V274.458Z" fill="white" fill-opacity="0.3"/>
</g>
<g clip-path="url(#clip16)">
<path fill-rule="evenodd" clip-rule="evenodd" d="M21.6926 305.265C25.8517 305.265 29.2233 301.893 29.2233 297.734C29.2233 293.575 25.8517 290.203 21.6926 290.203C17.5335 290.203 14.1619 293.575 14.1619 297.734C14.1619 301.893 17.5335 305.265 21.6926 305.265ZM29.9079 297.734C29.9079 302.271 26.2298 305.949 21.6926 305.949C17.1554 305.949 13.4773 302.271 13.4773 297.734C13.4773 293.197 17.1554 289.519 21.6926 289.519C26.2298 289.519 29.9079 293.197 29.9079 297.734Z" fill="white" fill-opacity="0.2"/>
<path d="M24.23 297.334L21.2964 300.268L22.4978 301.469L25.4314 298.536L24.23 297.334Z" fill="white"/>
<path fill-rule="evenodd" clip-rule="evenodd" d="M18.0985 294.716L20.4348 297.052L20.4346 297.066C20.4346 297.396 20.7021 297.663 21.0321 297.663C21.3621 297.663 21.6296 297.396 21.6296 297.066C21.6296 296.736 21.3621 296.468 21.0321 296.468L21.0134 296.469L18.683 294.138L22.8964 294.936H22.9001L23.6993 297.871L21.8322 299.738L18.897 298.935L18.0985 294.716Z" fill="white"/>
<path d="M36.754 297.734C36.754 297.13 37.2439 296.64 37.8483 296.64H67.3935C67.9978 296.64 68.4878 297.13 68.4878 297.734V297.734C68.4878 298.338 67.9978 298.828 67.3935 298.828H37.8483C37.2439 298.828 36.754 298.338 36.754 297.734V297.734Z" fill="white" fill-opacity="0.3"/>
</g>
<g clip-path="url(#clip17)">
<path fill-rule="evenodd" clip-rule="evenodd" d="M21.6926 328.541C25.8517 328.541 29.2233 325.17 29.2233 321.011C29.2233 316.852 25.8517 313.48 21.6926 313.48C17.5335 313.48 14.1619 316.852 14.1619 321.011C14.1619 325.17 17.5335 328.541 21.6926 328.541ZM29.9079 321.011C29.9079 325.548 26.2298 329.226 21.6926 329.226C17.1554 329.226 13.4773 325.548 13.4773 321.011C13.4773 316.474 17.1554 312.795 21.6926 312.795C26.2298 312.795 29.9079 316.474 29.9079 321.011Z" fill="white" fill-opacity="0.2"/>
<path d="M20.187 325.494C21.0033 325.494 21.6658 324.825 21.6658 324V322.506H20.187C19.3707 322.506 18.7083 323.176 18.7083 324C18.7083 324.825 19.3707 325.494 20.187 325.494Z" fill="white"/>
<path d="M18.7083 321.013C18.7083 320.189 19.3707 319.52 20.187 319.52H21.6658V322.507H20.187C19.3707 322.507 18.7083 321.838 18.7083 321.013Z" fill="white"/>
<path d="M18.7104 318.025C18.7104 317.201 19.3729 316.532 20.1892 316.532H21.668V319.519H20.1892C19.3729 319.519 18.7104 318.85 18.7104 318.025Z" fill="white"/>
<path d="M21.6663 316.531H23.145C23.9613 316.531 24.6238 317.2 24.6238 318.025C24.6238 318.849 23.9613 319.519 23.145 319.519H21.6663V316.531Z" fill="white"/>
<path d="M24.6238 321.013C24.6238 321.838 23.9613 322.507 23.145 322.507C22.3287 322.507 21.6663 321.838 21.6663 321.013C21.6663 320.189 22.3287 319.52 23.145 319.52C23.9613 319.52 24.6238 320.189 24.6238 321.013Z" fill="white"/>
<path d="M36.754 321.011C36.754 320.243 37.3767 319.62 38.1448 319.62H86.8209C87.5889 319.62 88.2116 320.243 88.2116 321.011V321.011C88.2116 321.779 87.5889 322.402 86.8209 322.402H38.1448C37.3767 322.402 36.754 321.779 36.754 321.011V321.011Z" fill="white" fill-opacity="0.3"/>
</g>
</g>
<g clip-path="url(#clip18)">
<path d="M14.2861 19.6301C14.2861 17.3615 16.1252 15.5225 18.3938 15.5225V15.5225C20.6624 15.5225 22.5015 17.3615 22.5015 19.6301V19.6301C22.5015 21.8987 20.6624 23.7378 18.3938 23.7378V23.7378C16.1252 23.7378 14.2861 21.8987 14.2861 19.6301V19.6301Z" fill="white"/>
<path d="M28.663 19.6301C28.663 17.3615 30.502 15.5225 32.7706 15.5225V15.5225C35.0392 15.5225 36.8783 17.3615 36.8783 19.6301V19.6301C36.8783 21.8987 35.0392 23.7378 32.7706 23.7378V23.7378C30.502 23.7378 28.663 21.8987 28.663 19.6301V19.6301Z" fill="white"/>
<path d="M43.0398 19.6301C43.0398 17.3615 44.8789 15.5225 47.1475 15.5225V15.5225C49.4161 15.5225 51.2551 17.3615 51.2551 19.6301V19.6301C51.2551 21.8987 49.4161 23.7378 47.1475 23.7378V23.7378C44.8789 23.7378 43.0398 21.8987 43.0398 19.6301V19.6301Z" fill="white"/>
</g>
<path d="M135.696 0.621582H684.746C688.471 0.621582 691.491 3.89391 691.491 7.93052V450.248C691.491 454.284 688.471 457.557 684.746 457.557H135.696V0.621582Z" fill="#1A164A" fill-opacity="0.63"/>
<mask id="mask0" mask-type="alpha" maskUnits="userSpaceOnUse" x="135" y="0" width="557" height="458">
<path d="M135.696 0.621582H684.746C688.471 0.621582 691.491 3.89391 691.491 7.93052V450.248C691.491 454.284 688.471 457.557 684.746 457.557H135.696V0.621582Z" fill="#1A164A"/>
</mask>
<g mask="url(#mask0)">
<path fill-rule="evenodd" clip-rule="evenodd" d="M641.734 167.8C667.572 99.3066 710.297 -18.5063 599.793 -87.0441C489.289 -155.582 437.882 -111.695 389.592 -91.483C341.303 -71.2705 221.851 -58.1095 239.818 23.5925C257.784 105.294 261.775 248.174 347.609 248.176C433.442 248.179 421.931 209.455 477.057 202.6C532.183 195.746 615.896 236.294 641.734 167.8Z" fill="url(#paint0_linear)"/>
<path fill-rule="evenodd" clip-rule="evenodd" d="M641.734 167.8C667.572 99.3066 710.297 -18.5063 599.793 -87.0441C489.289 -155.582 437.882 -111.695 389.592 -91.483C341.303 -71.2705 221.851 -58.1095 239.818 23.5925C257.784 105.294 261.775 248.174 347.609 248.176C433.442 248.179 421.931 209.455 477.057 202.6C532.183 195.746 615.896 236.294 641.734 167.8Z" fill="#14BEFD"/>
<path fill-rule="evenodd" clip-rule="evenodd" d="M258.29 -57.9011C234.05 19.0936 194.242 151.408 319.638 218.823C445.033 286.238 498.814 234.443 550.595 208.85C602.376 183.257 732.681 160.378 708.052 71.9806C683.423 -16.4166 670.455 -172.941 576.254 -166.883C482.054 -160.824 497.014 -119.138 436.927 -107.723C376.84 -96.3075 282.53 -134.896 258.29 -57.9011Z" fill="url(#paint1_linear)"/>
<path opacity="0.5" fill-rule="evenodd" clip-rule="evenodd" d="M707.088 99.2049C705.342 98.5605 704.408 96.5038 705.002 94.6111C708.317 84.0542 708.644 71.9529 704.716 57.8537C701.963 47.9731 699.364 37.255 696.79 26.0531C696.344 24.1129 697.434 22.1486 699.224 21.6656C701.014 21.1827 702.827 22.364 703.273 24.3042C705.837 35.4609 708.405 46.0473 711.111 55.7616C715.397 71.1438 715.139 84.8027 711.326 96.9446C710.732 98.8373 708.835 99.8493 707.088 99.2049ZM689.444 125.012C690.632 126.542 690.451 128.826 689.039 130.113C671.658 145.965 647.41 157.642 623.573 167.247C621.844 167.944 619.921 166.989 619.278 165.115C618.635 163.241 619.515 161.157 621.244 160.46C644.988 150.893 668.298 139.566 684.737 124.573C686.149 123.286 688.256 123.482 689.444 125.012ZM693.672 -3.19324C691.879 -2.72269 690.073 -3.91653 689.639 -5.85977C684.945 -26.8538 679.94 -48.4491 673.887 -68.914C673.324 -70.8181 674.292 -72.8562 676.048 -73.4663C677.805 -74.0764 679.686 -73.0274 680.249 -71.1233C686.382 -50.3866 691.436 -28.5683 696.131 -7.56382C696.566 -5.62058 695.465 -3.6638 693.672 -3.19324ZM591.074 175.751C591.67 177.644 590.738 179.701 588.992 180.347C575.93 185.177 564.228 189.62 555.122 194.121C548.268 197.509 541.492 201.306 534.433 205.261C529.663 207.934 524.763 210.68 519.623 213.42C517.968 214.302 515.966 213.563 515.151 211.769C514.337 209.975 515.018 207.805 516.673 206.923C521.532 204.332 526.342 201.639 531.096 198.977C538.317 194.934 545.409 190.963 552.349 187.533C561.808 182.858 573.826 178.304 586.834 173.494C588.58 172.848 590.478 173.859 591.074 175.751ZM667.969 -97.478C666.27 -96.7008 664.31 -97.5642 663.593 -99.4064C655.15 -121.089 644.921 -139.756 631.904 -152.936C630.556 -154.301 630.484 -156.591 631.743 -158.052C633.002 -159.513 635.116 -159.591 636.464 -158.226C650.449 -144.066 661.128 -124.359 669.748 -102.221C670.465 -100.378 669.669 -98.2551 667.969 -97.478ZM484.453 225.236C484.97 227.155 483.953 229.165 482.181 229.725C459.84 236.781 433.899 239.68 401.83 232.997C400.019 232.62 398.832 230.722 399.18 228.759C399.528 226.795 401.279 225.51 403.091 225.887C434.059 232.341 458.927 229.528 480.311 222.773C482.082 222.214 483.937 223.316 484.453 225.236ZM611.817 -171.556C611.196 -169.674 609.285 -168.693 607.548 -169.367C599.093 -172.643 589.66 -174.15 579.059 -173.468C557.981 -172.113 542.682 -168.926 530.9 -164.753C529.147 -164.132 527.261 -165.17 526.687 -167.07C526.114 -168.971 527.071 -171.015 528.824 -171.636C541.279 -176.047 557.167 -179.314 578.662 -180.696C590.102 -181.432 600.44 -179.811 609.796 -176.184C611.534 -175.511 612.438 -173.439 611.817 -171.556ZM367.318 218.991C366.686 220.87 364.769 221.837 363.036 221.153C351.438 216.57 339.154 210.852 326.103 203.835C315.695 198.24 306.409 192.182 298.147 185.725C296.651 184.555 296.313 182.293 297.391 180.671C298.47 179.049 300.558 178.683 302.055 179.852C309.997 186.06 318.966 191.916 329.071 197.349C341.922 204.258 353.979 209.868 365.323 214.35C367.056 215.035 367.949 217.113 367.318 218.991ZM489.958 -143.196C491.086 -141.614 490.818 -139.341 489.359 -138.118C478.137 -128.714 465.905 -119.937 443.011 -115.588C432.774 -113.643 421.639 -113.153 410.181 -113.28C408.337 -113.3 406.856 -114.937 406.875 -116.937C406.893 -118.936 408.404 -120.54 410.248 -120.52C421.528 -120.395 432.201 -120.885 441.857 -122.72C463.333 -126.8 474.575 -134.882 485.272 -143.846C486.731 -145.069 488.829 -144.778 489.958 -143.196ZM278.493 162.486C277.122 163.824 275.01 163.705 273.775 162.219C257.911 143.137 248.442 121.948 243.476 99.9732C243.037 98.0311 244.134 96.0714 245.926 95.596C247.718 95.1207 249.526 96.3097 249.965 98.2518C254.691 119.162 263.673 139.252 278.738 157.373C279.973 158.859 279.863 161.148 278.493 162.486ZM381.223 -118.04C381.138 -116.043 379.574 -114.499 377.732 -114.592C355.065 -115.734 332.931 -116.428 314.286 -111.432C312.495 -110.952 310.684 -112.136 310.241 -114.077C309.798 -116.018 310.89 -117.981 312.681 -118.461C332.422 -123.75 355.528 -122.959 378.041 -121.825C379.884 -121.732 381.308 -120.037 381.223 -118.04ZM242.565 68.4305C240.722 68.5045 239.172 66.9448 239.103 64.9468C238.291 41.2959 241.365 17.5574 246.034 -4.74605C246.443 -6.6958 248.232 -7.91752 250.031 -7.47477C251.83 -7.03206 252.958 -5.09257 252.549 -3.14279C247.959 18.7798 244.996 41.8572 245.779 64.6786C245.848 66.6767 244.409 68.3564 242.565 68.4305ZM256.61 -33.9733C254.845 -34.5554 253.85 -36.578 254.386 -38.4907C257.705 -50.3145 261.174 -61.4359 264.355 -71.539C268.511 -84.7407 274.739 -94.7616 282.587 -102.261C283.971 -103.583 286.082 -103.439 287.302 -101.94C288.522 -100.44 288.39 -98.1522 287.006 -96.83C280.109 -90.2391 274.494 -81.3213 270.678 -69.2C267.499 -59.1034 264.062 -48.0809 260.778 -36.3825C260.241 -34.4697 258.375 -33.3911 256.61 -33.9733Z" fill="url(#paint2_linear)"/>
<path fill-rule="evenodd" clip-rule="evenodd" d="M717.082 79.0106C714.462 78.044 713.061 74.9589 713.953 72.1198C717.261 61.5821 717.616 49.4423 713.641 35.1742C710.785 24.9265 708.093 13.8217 705.431 2.23711C704.762 -0.673205 706.397 -3.61973 709.082 -4.34415C711.767 -5.06858 714.486 -3.29657 715.155 -0.386263C717.802 11.1305 720.448 22.0378 723.234 32.0361C727.745 48.2288 727.495 62.7049 723.439 75.6202C722.548 78.4592 719.702 79.9772 717.082 79.0106ZM700.547 102.988C702.329 105.282 702.057 108.708 699.94 110.639C681.762 127.218 656.489 139.365 631.839 149.297C629.245 150.343 626.36 148.911 625.396 146.1C624.431 143.289 625.752 140.163 628.345 139.117C652.855 129.241 676.721 117.62 693.487 102.329C695.604 100.398 698.765 100.693 700.547 102.988ZM704.089 -26.7466C701.4 -26.0408 698.691 -27.8316 698.04 -30.7464C693.191 -52.4355 688.031 -74.6962 681.795 -95.7775C680.951 -98.6336 682.402 -101.691 685.037 -102.606C687.672 -103.521 690.493 -101.948 691.338 -99.0915C697.694 -77.6024 702.926 -55.0072 707.779 -33.3025C708.431 -30.3876 706.779 -27.4525 704.089 -26.7466ZM599.192 155.955C600.086 158.793 598.687 161.879 596.068 162.848C582.56 167.843 570.543 172.408 561.216 177.018C554.155 180.508 547.226 184.391 539.97 188.458C535.039 191.222 529.957 194.07 524.58 196.937C522.097 198.26 519.094 197.152 517.872 194.461C516.65 191.77 517.672 188.515 520.155 187.191C525.111 184.549 530.059 181.779 534.966 179.032C542.464 174.834 549.867 170.69 557.057 167.136C566.912 162.265 579.404 157.534 592.831 152.569C595.45 151.6 598.298 153.116 599.192 155.955ZM677.772 -124.249C675.223 -123.083 672.284 -124.378 671.208 -127.142C662.526 -149.439 652.061 -168.482 638.838 -181.871C636.816 -183.919 636.708 -187.355 638.597 -189.546C640.486 -191.738 643.656 -191.854 645.679 -189.807C660.354 -174.948 671.492 -154.344 680.44 -131.363C681.516 -128.6 680.322 -125.415 677.772 -124.249ZM489.05 207.156C489.825 210.035 488.299 213.05 485.642 213.889C462.335 221.251 435.282 224.266 401.891 217.308C399.174 216.741 397.394 213.895 397.916 210.95C398.438 208.004 401.065 206.076 403.782 206.642C435.523 213.257 460.966 210.37 482.837 203.462C485.494 202.623 488.275 204.277 489.05 207.156ZM620.617 -201.776C619.685 -198.952 616.818 -197.482 614.212 -198.492C605.688 -201.796 596.152 -203.326 585.394 -202.634C575.941 -202.026 567.628 -201.06 560.262 -199.811C557.528 -199.348 554.965 -201.374 554.537 -204.337C554.109 -207.3 555.978 -210.078 558.712 -210.542C566.434 -211.851 575.068 -212.85 584.799 -213.475C596.815 -214.248 607.708 -212.546 617.585 -208.718C620.191 -207.708 621.548 -204.6 620.617 -201.776ZM367.991 201.756C367.044 204.573 364.168 206.025 361.568 204.997C349.526 200.239 336.781 194.306 323.25 187.031C312.426 181.212 302.757 174.905 294.146 168.176C291.902 166.421 291.394 163.027 293.012 160.595C294.631 158.162 297.762 157.613 300.007 159.367C308.139 165.722 317.332 171.727 327.702 177.302C340.933 184.415 353.338 190.186 364.999 194.794C367.599 195.821 368.939 198.938 367.991 201.756ZM539.233 -200.558C540.093 -197.708 538.658 -194.642 536.028 -193.71C518.108 -187.364 508.051 -178.785 497.724 -169.977C496.353 -168.806 494.976 -167.632 493.576 -166.459C491.387 -164.624 488.24 -165.061 486.547 -167.433C484.854 -169.806 485.256 -173.217 487.445 -175.051C488.788 -176.177 490.132 -177.324 491.491 -178.486C501.883 -187.365 513.234 -197.064 532.914 -204.034C535.544 -204.965 538.373 -203.409 539.233 -200.558ZM473.331 -158.284C474.461 -155.546 473.329 -152.334 470.802 -151.11C463.683 -147.662 455.351 -144.819 445.004 -142.853C434.291 -140.818 422.678 -140.312 410.798 -140.443C408.031 -140.473 405.81 -142.929 405.838 -145.928C405.866 -148.927 408.132 -151.334 410.899 -151.303C422.512 -151.175 433.431 -151.681 443.272 -153.551C452.879 -155.376 460.411 -157.974 466.712 -161.026C469.238 -162.25 472.202 -161.022 473.331 -158.284ZM275.794 144.05C273.739 146.057 270.571 145.878 268.718 143.65C252.141 123.709 242.243 101.559 237.056 78.6064C236.398 75.6933 238.043 72.7537 240.731 72.0407C243.419 71.3276 246.131 73.1112 246.79 76.0243C251.616 97.381 260.784 117.882 276.162 136.381C278.015 138.609 277.85 142.043 275.794 144.05ZM382.451 -146.973C382.323 -143.977 379.978 -141.661 377.214 -141.8C353.759 -142.983 331.116 -143.677 312.107 -138.583C309.421 -137.863 306.704 -139.64 306.04 -142.551C305.375 -145.463 307.014 -148.406 309.7 -149.126C330.352 -154.66 354.452 -153.82 377.678 -152.649C380.442 -152.51 382.579 -149.969 382.451 -146.973ZM237.687 47.3028C234.922 47.4138 232.597 45.0743 232.494 42.0773C231.648 17.4471 234.85 -7.2344 239.693 -30.3676C240.306 -33.2923 242.99 -35.1248 245.688 -34.4607C248.387 -33.7967 250.078 -30.8874 249.466 -27.9627C244.742 -5.4007 241.705 18.289 242.508 41.675C242.611 44.6721 240.453 47.1917 237.687 47.3028ZM251.687 -58.575C249.04 -59.4482 247.546 -62.4821 248.352 -65.3512C251.789 -77.597 255.38 -89.111 258.667 -99.5513C263.041 -113.444 269.619 -124.055 277.95 -132.016C280.025 -133.999 283.191 -133.783 285.022 -131.533C286.852 -129.284 286.653 -125.852 284.578 -123.869C277.673 -117.271 272.015 -108.315 268.152 -96.0427C264.868 -85.6123 261.323 -74.2467 257.939 -62.1888C257.134 -59.3197 254.334 -57.7017 251.687 -58.575Z" fill="url(#paint3_linear)"/>
</g>
<path d="M135.696 37.1777H691.491V37.5432H135.696V37.1777Z" fill="white" fill-opacity="0.2"/>
<path d="M0.795166 398.337H135.697V399.068H0.795166V398.337Z" fill="white" fill-opacity="0.05"/>
<rect x="143.792" y="8.66357" width="24.9568" height="17.4419" rx="2.73844" fill="black" fill-opacity="0.2"/>
</g>
<defs>
<filter id="filter0_d" x="-16.6808" y="141.027" width="76.2205" height="75.4318" filterUnits="userSpaceOnUse" color-interpolation-filters="sRGB">
<feFlood flood-opacity="0" result="BackgroundImageFix"/>
<feColorMatrix in="SourceAlpha" type="matrix" values="0 0 0 0 0 0 0 0 0 0 0 0 0 0 0 0 0 0 127 0"/>
<feOffset/>
<feGaussianBlur stdDeviation="16.8863"/>
<feColorMatrix type="matrix" values="0 0 0 0 0.250017 0 0 0 0 0.215353 0 0 0 0 0.847968 0 0 0 0.610768 0"/>
<feBlend mode="normal" in2="BackgroundImageFix" result="effect1_dropShadow"/>
<feBlend mode="normal" in="SourceGraphic" in2="effect1_dropShadow" result="shape"/>
</filter>
<filter id="filter1_d" x="-16.6808" y="187.579" width="76.2205" height="75.4318" filterUnits="userSpaceOnUse" color-interpolation-filters="sRGB">
<feFlood flood-opacity="0" result="BackgroundImageFix"/>
<feColorMatrix in="SourceAlpha" type="matrix" values="0 0 0 0 0 0 0 0 0 0 0 0 0 0 0 0 0 0 127 0"/>
<feOffset/>
<feGaussianBlur stdDeviation="16.8863"/>
<feColorMatrix type="matrix" values="0 0 0 0 0.250017 0 0 0 0 0.215353 0 0 0 0 0.847968 0 0 0 0.610768 0"/>
<feBlend mode="normal" in2="BackgroundImageFix" result="effect1_dropShadow"/>
<feBlend mode="normal" in="SourceGraphic" in2="effect1_dropShadow" result="shape"/>
</filter>
<filter id="filter2_d" x="-16.6808" y="236.414" width="76.2205" height="75.4318" filterUnits="userSpaceOnUse" color-interpolation-filters="sRGB">
<feFlood flood-opacity="0" result="BackgroundImageFix"/>
<feColorMatrix in="SourceAlpha" type="matrix" values="0 0 0 0 0 0 0 0 0 0 0 0 0 0 0 0 0 0 127 0"/>
<feOffset/>
<feGaussianBlur stdDeviation="16.8863"/>
<feColorMatrix type="matrix" values="0 0 0 0 0.250017 0 0 0 0 0.215353 0 0 0 0 0.847968 0 0 0 0.610768 0"/>
<feBlend mode="normal" in2="BackgroundImageFix" result="effect1_dropShadow"/>
<feBlend mode="normal" in="SourceGraphic" in2="effect1_dropShadow" result="shape"/>
</filter>
<linearGradient id="paint0_linear" x1="156.61" y1="130.978" x2="534.92" y2="352.456" gradientUnits="userSpaceOnUse">
<stop stop-color="#E1467C"/>
<stop offset="1" stop-color="#FF9CE3"/>
</linearGradient>
<linearGradient id="paint1_linear" x1="684.315" y1="160.609" x2="256.944" y2="-57.9505" gradientUnits="userSpaceOnUse">
<stop stop-color="#E0695B"/>
<stop offset="1" stop-color="#3913B8"/>
</linearGradient>
<linearGradient id="paint2_linear" x1="684.671" y1="143.591" x2="266.199" y2="-70.418" gradientUnits="userSpaceOnUse">
<stop stop-color="#FF5A3D"/>
<stop offset="1" stop-color="#2FB8FF"/>
</linearGradient>
<linearGradient id="paint3_linear" x1="694.422" y1="123.271" x2="262.048" y2="-97.8471" gradientUnits="userSpaceOnUse">
<stop stop-color="#FF6C6C"/>
<stop offset="1" stop-color="#2FB8FF"/>
</linearGradient>
<clipPath id="clip0">
<rect width="16.4306" height="16.4306" fill="white" transform="translate(18.0092 419.732)"/>
</clipPath>
<clipPath id="clip1">
<rect width="16.4306" height="16.4306" fill="white" transform="translate(18.0092 419.732)"/>
</clipPath>
<clipPath id="clip2">
<rect width="75.3071" height="30.2617" fill="white" transform="translate(47.1747 412.817)"/>
</clipPath>
<clipPath id="clip3">
<rect x="47.1747" y="430.509" width="75.3071" height="12.5701" rx="5.47688" fill="white"/>
</clipPath>
<clipPath id="clip4">
<rect x="0.795166" y="43.3184" width="134.902" height="318.393" fill="white"/>
</clipPath>
<clipPath id="clip5">
<rect width="55.0105" height="16.4306" fill="white" transform="translate(13.4773 77.1494)"/>
</clipPath>
<clipPath id="clip6">
<rect width="69.1713" height="16.4306" fill="white" transform="translate(13.4773 101.795)"/>
</clipPath>
<clipPath id="clip7">
<rect width="69.1713" height="16.4306" fill="white" transform="translate(13.4773 126.441)"/>
</clipPath>
<clipPath id="clip8">
<rect width="55.0105" height="16.4306" fill="white" transform="translate(13.4773 170.856)"/>
</clipPath>
<clipPath id="clip9">
<rect width="16.4306" height="16.4306" fill="white" transform="translate(13.4773 170.856)"/>
</clipPath>
<clipPath id="clip10">
<rect width="60.8269" height="16.4306" fill="white" transform="translate(13.4773 194.133)"/>
</clipPath>
<clipPath id="clip11">
<rect width="8.96217" height="8.96217" fill="white" transform="translate(17.2155 197.866)"/>
</clipPath>
<clipPath id="clip12">
<rect width="64.9991" height="16.4306" fill="white" transform="translate(13.4773 217.41)"/>
</clipPath>
<clipPath id="clip13">
<rect width="16.4306" height="16.4306" fill="white" transform="translate(13.4773 217.41)"/>
</clipPath>
<clipPath id="clip14">
<rect width="46.9194" height="16.4306" fill="white" transform="translate(13.4773 266.242)"/>
</clipPath>
<clipPath id="clip15">
<rect width="16.4306" height="16.4306" fill="white" transform="translate(13.4773 266.242)"/>
</clipPath>
<clipPath id="clip16">
<rect width="55.0105" height="16.4306" fill="white" transform="translate(13.4773 289.519)"/>
</clipPath>
<clipPath id="clip17">
<rect width="74.7343" height="16.4306" fill="white" transform="translate(13.4773 312.795)"/>
</clipPath>
<clipPath id="clip18">
<rect x="14.2861" y="15.2437" width="36.4255" height="8.77316" fill="white"/>
</clipPath>
</defs>
</svg>
