<svg width="372" height="240" viewBox="0 0 372 240" fill="none" xmlns="http://www.w3.org/2000/svg">
<g filter="url(#filter0_d_286_27)">
<path fill-rule="evenodd" clip-rule="evenodd" d="M69.0298 30C69.0298 47.1374 55.1373 61.0299 38 61.0299V170.403C55.1373 170.403 69.0298 184.296 69.0298 201.433H310.97C310.97 184.296 324.863 170.403 342 170.403V61.0299C324.863 61.0299 310.97 47.1374 310.97 30L69.0298 30C69.0298 30 69.0298 30 69.0298 30Z" fill="#2C3E40"/>
</g>
<path d="M337.485 64.2079C315.191 64.2079 307.907 43.9186 307.051 33.7739H72.3793C72.3793 56.9478 52.09 63.719 41.9453 64.2079V166.51C65.1191 166.51 71.8904 186.799 72.3793 196.944H307.051C307.051 173.77 327.34 166.999 337.485 166.51V64.2079Z" stroke="url(#paint0_linear_286_27)" stroke-dasharray="5 5"/>
<defs>
<filter id="filter0_d_286_27" x="0" y="0" width="372" height="239.433" filterUnits="userSpaceOnUse" color-interpolation-filters="sRGB">
<feFlood flood-opacity="0" result="BackgroundImageFix"/>
<feColorMatrix in="SourceAlpha" type="matrix" values="0 0 0 0 0 0 0 0 0 0 0 0 0 0 0 0 0 0 127 0" result="hardAlpha"/>
<feOffset dx="-4" dy="4"/>
<feGaussianBlur stdDeviation="17"/>
<feColorMatrix type="matrix" values="0 0 0 0 0 0 0 0 0 0 0 0 0 0 0 0 0 0 0.05 0"/>
<feBlend mode="normal" in2="BackgroundImageFix" result="effect1_dropShadow_286_27"/>
<feBlend mode="normal" in="SourceGraphic" in2="effect1_dropShadow_286_27" result="shape"/>
</filter>
<linearGradient id="paint0_linear_286_27" x1="189.715" y1="33.7739" x2="189.715" y2="196.944" gradientUnits="userSpaceOnUse">
<stop stop-color="#00DCF9"/>
<stop offset="1" stop-color="#36D6C5"/>
</linearGradient>
</defs>
</svg>
