<svg width="130" height="111" viewBox="0 0 130 111" fill="none" xmlns="http://www.w3.org/2000/svg">
<path fill-rule="evenodd" clip-rule="evenodd" d="M66.167 0.161735C63.7673 0.541361 61.6101 1.24898 59.2299 2.43754C52.8897 5.6034 48.5676 11.1926 46.887 18.3983C46.5603 19.7988 46.5011 21.6568 46.4213 33.0185C46.3227 47.0187 46.4334 49.3899 47.3292 52.487C49.6266 60.4318 55.823 66.498 63.8338 68.6448C65.69 69.1422 66.3445 69.2072 69.4999 69.2072C72.6552 69.2072 73.3097 69.1422 75.1659 68.6448C84.5486 66.1303 91.3374 58.2649 92.4033 48.6734C92.7099 45.9149 92.7099 23.376 92.4033 20.6175C91.8094 15.2735 89.4663 10.4023 85.6785 6.63772C82.7808 3.75755 79.1474 1.69412 75.1659 0.667397C72.7999 0.0571753 68.3927 -0.190558 66.167 0.161735ZM31.0524 41.8226C30.0596 42.1254 28.5041 43.7417 28.2211 44.765C27.9284 45.8225 27.9264 47.4471 28.2146 50.2956C29.8855 66.8056 41.1566 80.7924 56.8515 85.8323C58.9529 86.5071 61.8417 87.1714 63.9324 87.4608L64.9594 87.6028V94.6257V101.649L59.7163 101.717C54.833 101.78 54.4138 101.817 53.6084 102.252C51.9418 103.152 51.1219 104.536 51.1219 106.451C51.1219 108.27 52.2577 109.946 53.9798 110.668C54.6803 110.961 56.6818 111.004 69.547 111C83.4556 110.995 84.3605 110.972 85.1752 110.593C86.8408 109.819 87.8778 108.188 87.8778 106.341C87.8778 104.537 87.024 103.133 85.3914 102.252C84.586 101.817 84.1667 101.78 79.2834 101.717L74.0403 101.649V94.6422V87.6356L75.7159 87.3738C94.4718 84.4428 108.87 69.2198 110.785 50.2956C111.243 45.772 111.023 44.4099 109.604 42.9844C107.502 40.8722 103.951 41.3128 102.457 43.8712C101.955 44.7303 101.868 45.1873 101.703 47.8452C101.388 52.8818 100.314 56.8698 98.142 61.0679C96.5241 64.1942 94.8409 66.4826 92.202 69.1439C82.4779 78.9511 67.4787 81.3954 55.1519 75.1819C49.9525 72.5612 45.6559 68.7539 42.5773 64.0393C39.3372 59.0771 37.6812 53.9981 37.2972 47.8452C37.1314 45.1873 37.0447 44.7303 36.5429 43.8712C35.5139 42.1095 33.0841 41.203 31.0524 41.8226Z" fill="#81CFDD" fill-opacity="0.2"/>
<path fill-rule="evenodd" clip-rule="evenodd" d="M4.37355 42.0427C4.29072 42.0958 4.348 41.939 3.7553 43.7358C3.50134 44.5057 3.28546 45.1469 3.27556 45.1607C3.26336 45.1778 2.76521 45.1956 1.73206 45.2159C0.581209 45.2385 0.189222 45.2534 0.13594 45.2764C0.0200806 45.3265 -0.0327581 45.4757 0.0212341 45.6003C0.0364069 45.6354 0.545229 46.0551 1.28375 46.6419C2.48926 47.5996 2.52034 47.6263 2.50128 47.6867C2.34745 48.1736 1.63734 50.6994 1.63734 50.7597C1.63734 50.9127 1.76294 51.0246 1.90191 50.9953C1.9536 50.9845 3.01885 50.2219 4.32642 49.2598L4.3926 49.2111C4.45528 49.1649 4.54055 49.1645 4.6037 49.21V49.21C4.66195 49.2519 5.23211 49.6678 5.8707 50.1341C6.50929 50.6003 7.06074 50.9879 7.09615 50.9954C7.2343 51.0245 7.36043 50.9126 7.36043 50.7611C7.36043 50.7168 7.16578 50.0058 6.92789 49.1811C6.68998 48.3563 6.49285 47.6681 6.48979 47.6518C6.48673 47.6354 7.03324 47.1859 7.70426 46.6529C8.37528 46.1199 8.94171 45.6549 8.963 45.6197C9.01098 45.5402 9.0122 45.4692 8.9672 45.3776C8.90265 45.2463 8.91733 45.2477 7.2717 45.2164C6.2202 45.1964 5.74472 45.1795 5.72793 45.1615C5.71458 45.1473 5.49601 44.5057 5.2422 43.7358C4.98839 42.9659 4.76124 42.28 4.73741 42.2117C4.66896 42.0154 4.52231 41.9473 4.37355 42.0427Z" fill="#81CFDD" fill-opacity="0.2"/>
<path fill-rule="evenodd" clip-rule="evenodd" d="M125.374 70.0427C125.291 70.0958 125.348 69.939 124.755 71.7358C124.501 72.5057 124.285 73.1469 124.276 73.1607C124.263 73.1778 123.765 73.1956 122.732 73.2159C121.581 73.2385 121.189 73.2534 121.136 73.2764C121.02 73.3265 120.967 73.4757 121.021 73.6003C121.036 73.6354 121.545 74.0551 122.284 74.6419C123.489 75.5996 123.52 75.6263 123.501 75.6867C123.347 76.1736 122.637 78.6994 122.637 78.7597C122.637 78.9127 122.763 79.0246 122.902 78.9953C122.954 78.9845 124.019 78.2219 125.326 77.2598L125.393 77.2111C125.455 77.1649 125.541 77.1645 125.604 77.21V77.21C125.662 77.2519 126.232 77.6678 126.871 78.1341C127.509 78.6003 128.061 78.9879 128.096 78.9954C128.234 79.0245 128.36 78.9126 128.36 78.7611C128.36 78.7168 128.166 78.0058 127.928 77.1811C127.69 76.3563 127.493 75.6681 127.49 75.6518C127.487 75.6354 128.033 75.1859 128.704 74.6529C129.375 74.1199 129.942 73.6549 129.963 73.6197C130.011 73.5402 130.012 73.4692 129.967 73.3776C129.903 73.2463 129.917 73.2477 128.272 73.2164C127.22 73.1964 126.745 73.1795 126.728 73.1615C126.715 73.1473 126.496 72.5057 126.242 71.7358C125.988 70.9659 125.761 70.28 125.737 70.2117C125.669 70.0154 125.522 69.9473 125.374 70.0427Z" fill="#81CFDD" fill-opacity="0.2"/>
<path fill-rule="evenodd" clip-rule="evenodd" d="M125.374 4.04266C125.291 4.09578 125.348 3.93896 124.755 5.73578C124.501 6.50568 124.285 7.14691 124.276 7.16075C124.263 7.17778 123.765 7.19558 122.732 7.2159C121.581 7.23851 121.189 7.25337 121.136 7.2764C121.02 7.32646 120.967 7.47566 121.021 7.60034C121.036 7.63536 121.545 8.05511 122.284 8.64187C123.489 9.59964 123.52 9.62633 123.501 9.68667C123.347 10.1736 122.637 12.6994 122.637 12.7597C122.637 12.9127 122.763 13.0246 122.902 12.9953C122.954 12.9845 124.019 12.2219 125.326 11.2598L125.393 11.2111C125.455 11.1649 125.541 11.1645 125.604 11.21V11.21C125.662 11.2519 126.232 11.6678 126.871 12.1341C127.509 12.6003 128.061 12.9879 128.096 12.9954C128.234 13.0245 128.36 12.9126 128.36 12.7611C128.36 12.7168 128.166 12.0058 127.928 11.1811C127.69 10.3563 127.493 9.66814 127.49 9.65179C127.487 9.63541 128.033 9.18591 128.704 8.65288C129.375 8.11985 129.942 7.65491 129.963 7.61965C130.011 7.54017 130.012 7.46915 129.967 7.37758C129.903 7.2463 129.917 7.2477 128.272 7.21637C127.22 7.19637 126.745 7.17948 126.728 7.16154C126.715 7.14726 126.496 6.50568 126.242 5.73578C125.988 4.96589 125.761 4.28005 125.737 4.21171C125.669 4.01539 125.522 3.94726 125.374 4.04266Z" fill="#81CFDD" fill-opacity="0.2"/>
</svg>
