<svg width="210" height="78" viewBox="0 0 210 78" fill="none" xmlns="http://www.w3.org/2000/svg">
<path d="M5.3182 1.00586V0.79859H5.11093V1.00586H5.3182ZM5.3182 6.79694H5.11093V7.00421H5.3182V6.79694ZM15.9627 6.79694L16.107 6.94573L16.4742 6.58967H15.9627V6.79694ZM3.71543 18.6745L3.85973 18.8233L3.85973 18.8233L3.71543 18.6745ZM1.11719 21.1943L0.97289 21.0455L0.824099 21.1898L0.968397 21.3386L1.11719 21.1943ZM6.15679 26.3908L6.008 26.5351L6.1523 26.6839L6.30109 26.5396L6.15679 26.3908ZM8.75503 23.871L8.89933 24.0198L8.75503 23.871ZM21.2924 11.7121H21.4997V11.2224L21.1481 11.5633L21.2924 11.7121ZM21.2924 20.8805H21.0851V21.0878H21.2924V20.8805ZM27.0835 20.8805V21.0878H27.2907V20.8805H27.0835ZM27.0835 1.00586H27.2907V0.79859H27.0835V1.00586ZM5.3182 1.21313H8.21375V0.79859H5.3182V1.21313ZM5.52547 6.79694V1.00586H5.11093V6.79694H5.52547ZM8.21375 6.58967H5.3182V7.00421H8.21375V6.58967ZM15.9627 6.58967H8.21375V7.00421H15.9627V6.58967ZM3.85973 18.8233L16.107 6.94573L15.8184 6.64815L3.57113 18.5257L3.85973 18.8233ZM1.26149 21.3431L3.85973 18.8233L3.57113 18.5257L0.97289 21.0455L1.26149 21.3431ZM6.30558 26.2465L1.26598 21.05L0.968397 21.3386L6.008 26.5351L6.30558 26.2465ZM8.61073 23.7222L6.01249 26.242L6.30109 26.5396L8.89933 24.0198L8.61073 23.7222ZM21.1481 11.5633L8.61073 23.7222L8.89933 24.0198L21.4367 11.8609L21.1481 11.5633ZM21.4997 17.985V11.7121H21.0851V17.985H21.4997ZM21.4997 20.8805V17.985H21.0851V20.8805H21.4997ZM27.0835 20.6732H21.2924V21.0878H27.0835V20.6732ZM26.8762 17.985V20.8805H27.2907V17.985H26.8762ZM26.8762 3.9014V17.985H27.2907V3.9014H26.8762ZM26.8762 1.00586V3.9014H27.2907V1.00586H26.8762ZM24.1879 1.21313H27.0835V0.79859H24.1879V1.21313ZM17.1405 1.21313H24.1879V0.79859H17.1405V1.21313ZM8.21375 1.21313H17.1405V0.79859H8.21375V1.21313Z" fill="#066D66"/>
<path d="M5.3182 26.209V26.0017H5.11093V26.209H5.3182ZM5.3182 32.0001H5.11093V32.2073H5.3182V32.0001ZM15.9627 32.0001L16.107 32.1489L16.4742 31.7928H15.9627V32.0001ZM3.71543 43.8776L3.85973 44.0264L3.85973 44.0264L3.71543 43.8776ZM1.11719 46.3974L0.97289 46.2486L0.824099 46.3929L0.968397 46.5417L1.11719 46.3974ZM6.15679 51.5939L6.008 51.7382L6.1523 51.887L6.30109 51.7427L6.15679 51.5939ZM8.75503 49.0741L8.89933 49.2229L8.75503 49.0741ZM21.2924 36.9153H21.4997V36.4255L21.1481 36.7665L21.2924 36.9153ZM21.2924 46.0836H21.0851V46.2909H21.2924V46.0836ZM27.0835 46.0836V46.2909H27.2907V46.0836H27.0835ZM27.0835 26.209H27.2907V26.0017H27.0835V26.209ZM5.3182 26.4163H8.21375V26.0017H5.3182V26.4163ZM5.52547 32.0001V26.209H5.11093V32.0001H5.52547ZM8.21375 31.7928H5.3182V32.2073H8.21375V31.7928ZM15.9627 31.7928H8.21375V32.2073H15.9627V31.7928ZM3.85973 44.0264L16.107 32.1489L15.8184 31.8513L3.57113 43.7288L3.85973 44.0264ZM1.26149 46.5462L3.85973 44.0264L3.57113 43.7288L0.97289 46.2486L1.26149 46.5462ZM6.30558 51.4496L1.26598 46.2531L0.968397 46.5417L6.008 51.7382L6.30558 51.4496ZM8.61073 48.9253L6.01249 51.4451L6.30109 51.7427L8.89933 49.2229L8.61073 48.9253ZM21.1481 36.7665L8.61073 48.9253L8.89933 49.2229L21.4367 37.064L21.1481 36.7665ZM21.4997 43.1881V36.9153H21.0851V43.1881H21.4997ZM21.4997 46.0836V43.1881H21.0851V46.0836H21.4997ZM27.0835 45.8764H21.2924V46.2909H27.0835V45.8764ZM26.8762 43.1881V46.0836H27.2907V43.1881H26.8762ZM26.8762 29.1045V43.1881H27.2907V29.1045H26.8762ZM26.8762 26.209V29.1045H27.2907V26.209H26.8762ZM24.1879 26.4163H27.0835V26.0017H24.1879V26.4163ZM17.1405 26.4163H24.1879V26.0017H17.1405V26.4163ZM8.21375 26.4163H17.1405V26.0017H8.21375V26.4163Z" fill="#066D66"/>
<path fill-rule="evenodd" clip-rule="evenodd" d="M8.21375 51.415H5.3182V57.2061H8.21375H15.9622L3.71543 69.0832L1.11719 71.603L6.15679 76.7995L8.75503 74.2797L21.2924 62.1208V68.3941V71.2897H27.0835V68.3941V54.3106V51.415H24.1879H17.1405H8.21375Z" fill="#066D66"/>
<path d="M31.3045 1.00586V0.79859H31.0973V1.00586H31.3045ZM31.3045 6.79694H31.0973V7.00421H31.3045V6.79694ZM41.9491 6.79694L42.0934 6.94573L42.4605 6.58967H41.9491V6.79694ZM29.7018 18.6745L29.8461 18.8233L29.8461 18.8233L29.7018 18.6745ZM27.1035 21.1943L26.9592 21.0455L26.8104 21.1898L26.9547 21.3386L27.1035 21.1943ZM32.1431 26.3908L31.9943 26.5351L32.1386 26.6839L32.2874 26.5396L32.1431 26.3908ZM34.7414 23.871L34.8857 24.0198L34.7414 23.871ZM47.2787 11.7121H47.486V11.2224L47.1344 11.5633L47.2787 11.7121ZM47.2787 20.8805H47.0714V21.0878H47.2787V20.8805ZM53.0698 20.8805V21.0878H53.2771V20.8805H53.0698ZM53.0698 1.00586H53.2771V0.79859H53.0698V1.00586ZM31.3045 1.21313H34.2001V0.79859H31.3045V1.21313ZM31.5118 6.79694V1.00586H31.0973V6.79694H31.5118ZM34.2001 6.58967H31.3045V7.00421H34.2001V6.58967ZM41.9491 6.58967H34.2001V7.00421H41.9491V6.58967ZM29.8461 18.8233L42.0934 6.94573L41.8048 6.64815L29.5575 18.5257L29.8461 18.8233ZM27.2478 21.3431L29.8461 18.8233L29.5575 18.5257L26.9592 21.0455L27.2478 21.3431ZM32.2919 26.2465L27.2523 21.05L26.9547 21.3386L31.9943 26.5351L32.2919 26.2465ZM34.5971 23.7222L31.9988 26.242L32.2874 26.5396L34.8857 24.0198L34.5971 23.7222ZM47.1344 11.5633L34.5971 23.7222L34.8857 24.0198L47.423 11.8609L47.1344 11.5633ZM47.486 17.985V11.7121H47.0714V17.985H47.486ZM47.486 20.8805V17.985H47.0714V20.8805H47.486ZM53.0698 20.6732H47.2787V21.0878H53.0698V20.6732ZM52.8625 17.985V20.8805H53.2771V17.985H52.8625ZM52.8625 3.9014V17.985H53.2771V3.9014H52.8625ZM52.8625 1.00586V3.9014H53.2771V1.00586H52.8625ZM50.1743 1.21313H53.0698V0.79859H50.1743V1.21313ZM43.1268 1.21313H50.1743V0.79859H43.1268V1.21313ZM34.2001 1.21313H43.1268V0.79859H34.2001V1.21313Z" fill="#066D66"/>
<path d="M31.3045 26.209V26.0017H31.0973V26.209H31.3045ZM31.3045 32.0001H31.0973V32.2073H31.3045V32.0001ZM41.9491 32.0001L42.0934 32.1489L42.4605 31.7928H41.9491V32.0001ZM29.7018 43.8776L29.8461 44.0264L29.8461 44.0264L29.7018 43.8776ZM27.1035 46.3974L26.9592 46.2486L26.8104 46.3929L26.9547 46.5417L27.1035 46.3974ZM32.1431 51.5939L31.9943 51.7382L32.1386 51.887L32.2874 51.7427L32.1431 51.5939ZM34.7414 49.0741L34.8857 49.2229L34.7414 49.0741ZM47.2787 36.9153H47.486V36.4255L47.1344 36.7665L47.2787 36.9153ZM47.2787 46.0836H47.0714V46.2909H47.2787V46.0836ZM53.0698 46.0836V46.2909H53.2771V46.0836H53.0698ZM53.0698 26.209H53.2771V26.0017H53.0698V26.209ZM31.3045 26.4163H34.2001V26.0017H31.3045V26.4163ZM31.5118 32.0001V26.209H31.0973V32.0001H31.5118ZM34.2001 31.7928H31.3045V32.2073H34.2001V31.7928ZM41.9491 31.7928H34.2001V32.2073H41.9491V31.7928ZM29.8461 44.0264L42.0934 32.1489L41.8048 31.8513L29.5575 43.7288L29.8461 44.0264ZM27.2478 46.5462L29.8461 44.0264L29.5575 43.7288L26.9592 46.2486L27.2478 46.5462ZM32.2919 51.4496L27.2523 46.2531L26.9547 46.5417L31.9943 51.7382L32.2919 51.4496ZM34.5971 48.9253L31.9988 51.4451L32.2874 51.7427L34.8857 49.2229L34.5971 48.9253ZM47.1344 36.7665L34.5971 48.9253L34.8857 49.2229L47.423 37.064L47.1344 36.7665ZM47.486 43.1881V36.9153H47.0714V43.1881H47.486ZM47.486 46.0836V43.1881H47.0714V46.0836H47.486ZM53.0698 45.8764H47.2787V46.2909H53.0698V45.8764ZM52.8625 43.1881V46.0836H53.2771V43.1881H52.8625ZM52.8625 29.1045V43.1881H53.2771V29.1045H52.8625ZM52.8625 26.209V29.1045H53.2771V26.209H52.8625ZM50.1743 26.4163H53.0698V26.0017H50.1743V26.4163ZM43.1268 26.4163H50.1743V26.0017H43.1268V26.4163ZM34.2001 26.4163H43.1268V26.0017H34.2001V26.4163Z" fill="#066D66"/>
<path d="M31.3045 51.415V51.2078H31.0973V51.415H31.3045ZM31.3045 57.2061H31.0973V57.4134H31.3045V57.2061ZM41.9491 57.2061L42.0934 57.3549L42.4605 56.9989H41.9491V57.2061ZM29.7018 69.0837L29.8461 69.2325L29.8461 69.2325L29.7018 69.0837ZM27.1035 71.6035L26.9592 71.4547L26.8104 71.599L26.9547 71.7478L27.1035 71.6035ZM32.1431 76.8L31.9943 76.9443L32.1386 77.0931L32.2874 76.9488L32.1431 76.8ZM34.7414 74.2802L34.8857 74.429L34.7414 74.2802ZM47.2787 62.1213H47.486V61.6316L47.1344 61.9725L47.2787 62.1213ZM47.2787 71.2897H47.0714V71.497H47.2787V71.2897ZM53.0698 71.2897V71.497H53.2771V71.2897H53.0698ZM53.0698 51.415H53.2771V51.2078H53.0698V51.415ZM31.3045 51.6223H34.2001V51.2078H31.3045V51.6223ZM31.5118 57.2061V51.415H31.0973V57.2061H31.5118ZM34.2001 56.9989H31.3045V57.4134H34.2001V56.9989ZM41.9491 56.9989H34.2001V57.4134H41.9491V56.9989ZM29.8461 69.2325L42.0934 57.3549L41.8048 57.0573L29.5575 68.9349L29.8461 69.2325ZM27.2478 71.7523L29.8461 69.2325L29.5575 68.9349L26.9592 71.4547L27.2478 71.7523ZM32.2919 76.6557L27.2523 71.4592L26.9547 71.7478L31.9943 76.9443L32.2919 76.6557ZM34.5971 74.1314L31.9988 76.6512L32.2874 76.9488L34.8857 74.429L34.5971 74.1314ZM47.1344 61.9725L34.5971 74.1314L34.8857 74.429L47.423 62.2701L47.1344 61.9725ZM47.486 68.3941V62.1213H47.0714V68.3941H47.486ZM47.486 71.2897V68.3941H47.0714V71.2897H47.486ZM53.0698 71.0824H47.2787V71.497H53.0698V71.0824ZM52.8625 68.3941V71.2897H53.2771V68.3941H52.8625ZM52.8625 54.3106V68.3941H53.2771V54.3106H52.8625ZM52.8625 51.415V54.3106H53.2771V51.415H52.8625ZM50.1743 51.6223H53.0698V51.2078H50.1743V51.6223ZM43.1268 51.6223H50.1743V51.2078H43.1268V51.6223ZM34.2001 51.6223H43.1268V51.2078H34.2001V51.6223Z" fill="#066D66"/>
<path fill-rule="evenodd" clip-rule="evenodd" d="M60.1903 1.00586H57.2948V6.79694H60.1903H67.9393L55.692 18.6745L53.0938 21.1943L58.1334 26.3908L60.7316 23.871L73.269 11.7121V17.985V20.8805H79.06V17.985V3.9014V1.00586H76.1645H69.1171H60.1903Z" fill="#066D66"/>
<path d="M57.2948 26.209V26.0017H57.0875V26.209H57.2948ZM57.2948 32.0001H57.0875V32.2073H57.2948V32.0001ZM67.9393 32.0001L68.0836 32.1489L68.4507 31.7928H67.9393V32.0001ZM55.692 43.8776L55.8363 44.0264L55.8363 44.0264L55.692 43.8776ZM53.0938 46.3974L52.9495 46.2486L52.8007 46.3929L52.945 46.5417L53.0938 46.3974ZM58.1334 51.5939L57.9846 51.7382L58.1289 51.887L58.2776 51.7427L58.1334 51.5939ZM60.7316 49.0741L60.8759 49.2229L60.7316 49.0741ZM73.269 36.9153H73.4762V36.4255L73.1247 36.7665L73.269 36.9153ZM73.269 46.0836H73.0617V46.2909H73.269V46.0836ZM79.06 46.0836V46.2909H79.2673V46.0836H79.06ZM79.06 26.209H79.2673V26.0017H79.06V26.209ZM57.2948 26.4163H60.1903V26.0017H57.2948V26.4163ZM57.502 32.0001V26.209H57.0875V32.0001H57.502ZM60.1903 31.7928H57.2948V32.2073H60.1903V31.7928ZM67.9393 31.7928H60.1903V32.2073H67.9393V31.7928ZM55.8363 44.0264L68.0836 32.1489L67.795 31.8513L55.5477 43.7288L55.8363 44.0264ZM53.238 46.5462L55.8363 44.0264L55.5477 43.7288L52.9495 46.2486L53.238 46.5462ZM58.2821 51.4496L53.2425 46.2531L52.945 46.5417L57.9846 51.7382L58.2821 51.4496ZM60.5873 48.9253L57.9891 51.4451L58.2776 51.7427L60.8759 49.2229L60.5873 48.9253ZM73.1247 36.7665L60.5873 48.9253L60.8759 49.2229L73.4132 37.064L73.1247 36.7665ZM73.4762 43.1881V36.9153H73.0617V43.1881H73.4762ZM73.4762 46.0836V43.1881H73.0617V46.0836H73.4762ZM79.06 45.8764H73.269V46.2909H79.06V45.8764ZM78.8528 43.1881V46.0836H79.2673V43.1881H78.8528ZM78.8528 29.1045V43.1881H79.2673V29.1045H78.8528ZM78.8528 26.209V29.1045H79.2673V26.209H78.8528ZM76.1645 26.4163H79.06V26.0017H76.1645V26.4163ZM69.1171 26.4163H76.1645V26.0017H69.1171V26.4163ZM60.1903 26.4163H69.1171V26.0017H60.1903V26.4163Z" fill="#066D66"/>
<path d="M57.2948 51.415V51.2078H57.0875V51.415H57.2948ZM57.2948 57.2061H57.0875V57.4134H57.2948V57.2061ZM67.9388 57.2061L68.0831 57.3549L68.4502 56.9989H67.9388V57.2061ZM55.692 69.0832L55.8363 69.232L55.8363 69.232L55.692 69.0832ZM53.0938 71.603L52.9495 71.4542L52.8007 71.5985L52.945 71.7473L53.0938 71.603ZM58.1334 76.7995L57.9846 76.9438L58.1289 77.0926L58.2776 76.9483L58.1334 76.7995ZM60.7316 74.2797L60.8759 74.4285L60.7316 74.2797ZM73.269 62.1208H73.4762V61.6311L73.1247 61.972L73.269 62.1208ZM73.269 71.2897H73.0617V71.497H73.269V71.2897ZM79.06 71.2897V71.497H79.2673V71.2897H79.06ZM79.06 51.415H79.2673V51.2078H79.06V51.415ZM57.2948 51.6223H60.1903V51.2078H57.2948V51.6223ZM57.502 57.2061V51.415H57.0875V57.2061H57.502ZM60.1903 56.9989H57.2948V57.4134H60.1903V56.9989ZM67.9388 56.9989H60.1903V57.4134H67.9388V56.9989ZM55.8363 69.232L68.0831 57.3549L67.7945 57.0573L55.5477 68.9344L55.8363 69.232ZM53.238 71.7518L55.8363 69.232L55.5477 68.9344L52.9495 71.4542L53.238 71.7518ZM58.2821 76.6552L53.2425 71.4587L52.945 71.7473L57.9846 76.9438L58.2821 76.6552ZM60.5873 74.1309L57.9891 76.6507L58.2776 76.9483L60.8759 74.4285L60.5873 74.1309ZM73.1247 61.972L60.5873 74.1309L60.8759 74.4285L73.4132 62.2696L73.1247 61.972ZM73.4762 68.3941V62.1208H73.0617V68.3941H73.4762ZM73.4762 71.2897V68.3941H73.0617V71.2897H73.4762ZM79.06 71.0824H73.269V71.497H79.06V71.0824ZM78.8528 68.3941V71.2897H79.2673V68.3941H78.8528ZM78.8528 54.3106V68.3941H79.2673V54.3106H78.8528ZM78.8528 51.415V54.3106H79.2673V51.415H78.8528ZM76.1645 51.6223H79.06V51.2078H76.1645V51.6223ZM69.1171 51.6223H76.1645V51.2078H69.1171V51.6223ZM60.1903 51.6223H69.1171V51.2078H60.1903V51.6223Z" fill="#066D66"/>
<path d="M83.2791 1.00586V0.79859H83.0719V1.00586H83.2791ZM83.2791 6.79694H83.0719V7.00421H83.2791V6.79694ZM93.9237 6.79694L94.068 6.94573L94.4351 6.58967H93.9237V6.79694ZM81.6764 18.6745L81.8207 18.8233L81.8207 18.8233L81.6764 18.6745ZM79.0781 21.1943L78.9338 21.0455L78.785 21.1898L78.9293 21.3386L79.0781 21.1943ZM84.1177 26.3908L83.9689 26.5351L84.1132 26.6839L84.262 26.5396L84.1177 26.3908ZM86.716 23.871L86.8603 24.0198L86.716 23.871ZM99.2533 11.7121H99.4606V11.2224L99.109 11.5633L99.2533 11.7121ZM99.2533 20.8805H99.0461V21.0878H99.2533V20.8805ZM105.044 20.8805V21.0878H105.252V20.8805H105.044ZM105.044 1.00586H105.252V0.79859H105.044V1.00586ZM83.2791 1.21313H86.1747V0.79859H83.2791V1.21313ZM83.4864 6.79694V1.00586H83.0719V6.79694H83.4864ZM86.1747 6.58967H83.2791V7.00421H86.1747V6.58967ZM93.9237 6.58967H86.1747V7.00421H93.9237V6.58967ZM81.8207 18.8233L94.068 6.94573L93.7794 6.64815L81.5321 18.5257L81.8207 18.8233ZM79.2224 21.3431L81.8207 18.8233L81.5321 18.5257L78.9338 21.0455L79.2224 21.3431ZM84.2665 26.2465L79.2269 21.05L78.9293 21.3386L83.9689 26.5351L84.2665 26.2465ZM86.5717 23.7222L83.9734 26.242L84.262 26.5396L86.8603 24.0198L86.5717 23.7222ZM99.109 11.5633L86.5717 23.7222L86.8603 24.0198L99.3976 11.8609L99.109 11.5633ZM99.4606 17.985V11.7121H99.0461V17.985H99.4606ZM99.4606 20.8805V17.985H99.0461V20.8805H99.4606ZM105.044 20.6732H99.2533V21.0878H105.044V20.6732ZM104.837 17.985V20.8805H105.252V17.985H104.837ZM104.837 3.9014V17.985H105.252V3.9014H104.837ZM104.837 1.00586V3.9014H105.252V1.00586H104.837ZM102.149 1.21313H105.044V0.79859H102.149V1.21313ZM95.1014 1.21313H102.149V0.79859H95.1014V1.21313ZM86.1747 1.21313H95.1014V0.79859H86.1747V1.21313Z" fill="#066D66"/>
<path d="M83.2791 26.209V26.0017H83.0719V26.209H83.2791ZM83.2791 32.0001H83.0719V32.2073H83.2791V32.0001ZM93.9237 32.0001L94.068 32.1489L94.4351 31.7928H93.9237V32.0001ZM81.6764 43.8776L81.8207 44.0264L81.8207 44.0264L81.6764 43.8776ZM79.0781 46.3974L78.9338 46.2486L78.785 46.3929L78.9293 46.5417L79.0781 46.3974ZM84.1177 51.5939L83.9689 51.7382L84.1132 51.887L84.262 51.7427L84.1177 51.5939ZM86.716 49.0741L86.8603 49.2229L86.716 49.0741ZM99.2533 36.9153H99.4606V36.4255L99.109 36.7665L99.2533 36.9153ZM99.2533 46.0836H99.0461V46.2909H99.2533V46.0836ZM105.044 46.0836V46.2909H105.252V46.0836H105.044ZM105.044 26.209H105.252V26.0017H105.044V26.209ZM83.2791 26.4163H86.1747V26.0017H83.2791V26.4163ZM83.4864 32.0001V26.209H83.0719V32.0001H83.4864ZM86.1747 31.7928H83.2791V32.2073H86.1747V31.7928ZM93.9237 31.7928H86.1747V32.2073H93.9237V31.7928ZM81.8207 44.0264L94.068 32.1489L93.7794 31.8513L81.5321 43.7288L81.8207 44.0264ZM79.2224 46.5462L81.8207 44.0264L81.5321 43.7288L78.9338 46.2486L79.2224 46.5462ZM84.2665 51.4496L79.2269 46.2531L78.9293 46.5417L83.9689 51.7382L84.2665 51.4496ZM86.5717 48.9253L83.9734 51.4451L84.262 51.7427L86.8603 49.2229L86.5717 48.9253ZM99.109 36.7665L86.5717 48.9253L86.8603 49.2229L99.3976 37.064L99.109 36.7665ZM99.4606 43.1881V36.9153H99.0461V43.1881H99.4606ZM99.4606 46.0836V43.1881H99.0461V46.0836H99.4606ZM105.044 45.8764H99.2533V46.2909H105.044V45.8764ZM104.837 43.1881V46.0836H105.252V43.1881H104.837ZM104.837 29.1045V43.1881H105.252V29.1045H104.837ZM104.837 26.209V29.1045H105.252V26.209H104.837ZM102.149 26.4163H105.044V26.0017H102.149V26.4163ZM95.1014 26.4163H102.149V26.0017H95.1014V26.4163ZM86.1747 26.4163H95.1014V26.0017H86.1747V26.4163Z" fill="#066D66"/>
<path d="M83.2791 51.415V51.2078H83.0719V51.415H83.2791ZM83.2791 57.2061H83.0719V57.4134H83.2791V57.2061ZM93.9232 57.2061L94.0675 57.3549L94.4346 56.9989H93.9232V57.2061ZM81.6764 69.0832L81.8207 69.232L81.8207 69.232L81.6764 69.0832ZM79.0781 71.603L78.9338 71.4542L78.785 71.5985L78.9293 71.7473L79.0781 71.603ZM84.1177 76.7995L83.9689 76.9438L84.1132 77.0926L84.262 76.9483L84.1177 76.7995ZM86.716 74.2797L86.8603 74.4285L86.716 74.2797ZM99.2533 62.1208H99.4606V61.6311L99.109 61.972L99.2533 62.1208ZM99.2533 71.2897H99.0461V71.497H99.2533V71.2897ZM105.044 71.2897V71.497H105.252V71.2897H105.044ZM105.044 51.415H105.252V51.2078H105.044V51.415ZM83.2791 51.6223H86.1747V51.2078H83.2791V51.6223ZM83.4864 57.2061V51.415H83.0719V57.2061H83.4864ZM86.1747 56.9989H83.2791V57.4134H86.1747V56.9989ZM93.9232 56.9989H86.1747V57.4134H93.9232V56.9989ZM81.8207 69.232L94.0675 57.3549L93.7789 57.0573L81.5321 68.9344L81.8207 69.232ZM79.2224 71.7518L81.8207 69.232L81.5321 68.9344L78.9338 71.4542L79.2224 71.7518ZM84.2665 76.6552L79.2269 71.4587L78.9293 71.7473L83.9689 76.9438L84.2665 76.6552ZM86.5717 74.1309L83.9734 76.6507L84.262 76.9483L86.8603 74.4285L86.5717 74.1309ZM99.109 61.972L86.5717 74.1309L86.8603 74.4285L99.3976 62.2696L99.109 61.972ZM99.4606 68.3941V62.1208H99.0461V68.3941H99.4606ZM99.4606 71.2897V68.3941H99.0461V71.2897H99.4606ZM105.044 71.0824H99.2533V71.497H105.044V71.0824ZM104.837 68.3941V71.2897H105.252V68.3941H104.837ZM104.837 54.3106V68.3941H105.252V54.3106H104.837ZM104.837 51.415V54.3106H105.252V51.415H104.837ZM102.149 51.6223H105.044V51.2078H102.149V51.6223ZM95.1014 51.6223H102.149V51.2078H95.1014V51.6223ZM86.1747 51.6223H95.1014V51.2078H86.1747V51.6223Z" fill="#066D66"/>
<path d="M109.264 1.00586V0.79859H109.056V1.00586H109.264ZM109.264 6.79694H109.056V7.00421H109.264V6.79694ZM119.908 6.79694L120.052 6.94573L120.419 6.58967H119.908V6.79694ZM107.661 18.6745L107.805 18.8233L107.805 18.8233L107.661 18.6745ZM105.062 21.1943L104.918 21.0455L104.769 21.1898L104.914 21.3386L105.062 21.1943ZM110.102 26.3908L109.953 26.5351L110.098 26.6839L110.246 26.5396L110.102 26.3908ZM112.7 23.871L112.845 24.0198L112.7 23.871ZM125.238 11.7121H125.445V11.2224L125.093 11.5633L125.238 11.7121ZM125.238 20.8805H125.03V21.0878H125.238V20.8805ZM131.029 20.8805V21.0878H131.236V20.8805H131.029ZM131.029 1.00586H131.236V0.79859H131.029V1.00586ZM109.264 1.21313H112.159V0.79859H109.264V1.21313ZM109.471 6.79694V1.00586H109.056V6.79694H109.471ZM112.159 6.58967H109.264V7.00421H112.159V6.58967ZM119.908 6.58967H112.159V7.00421H119.908V6.58967ZM107.805 18.8233L120.052 6.94573L119.764 6.64815L107.516 18.5257L107.805 18.8233ZM105.207 21.3431L107.805 18.8233L107.516 18.5257L104.918 21.0455L105.207 21.3431ZM110.251 26.2465L105.211 21.05L104.914 21.3386L109.953 26.5351L110.251 26.2465ZM112.556 23.7222L109.958 26.242L110.246 26.5396L112.845 24.0198L112.556 23.7222ZM125.093 11.5633L112.556 23.7222L112.845 24.0198L125.382 11.8609L125.093 11.5633ZM125.445 17.985V11.7121H125.03V17.985H125.445ZM125.445 20.8805V17.985H125.03V20.8805H125.445ZM131.029 20.6732H125.238V21.0878H131.029V20.6732ZM130.822 17.985V20.8805H131.236V17.985H130.822ZM130.822 3.9014V17.985H131.236V3.9014H130.822ZM130.822 1.00586V3.9014H131.236V1.00586H130.822ZM128.133 1.21313H131.029V0.79859H128.133V1.21313ZM121.086 1.21313H128.133V0.79859H121.086V1.21313ZM112.159 1.21313H121.086V0.79859H112.159V1.21313Z" fill="#066D66"/>
<path d="M109.262 26.209V26.0017H109.054V26.209H109.262ZM109.262 32.0001H109.054V32.2073H109.262V32.0001ZM119.906 32.0001L120.05 32.1489L120.418 31.7928H119.906V32.0001ZM107.659 43.8776L107.803 44.0264L107.803 44.0264L107.659 43.8776ZM105.061 46.3974L104.916 46.2486L104.767 46.3929L104.912 46.5417L105.061 46.3974ZM110.1 51.5939L109.951 51.7382L110.096 51.887L110.244 51.7427L110.1 51.5939ZM112.698 49.0741L112.843 49.2229L112.698 49.0741ZM125.236 36.9153H125.443V36.4255L125.091 36.7665L125.236 36.9153ZM125.236 46.0836H125.028V46.2909H125.236V46.0836ZM131.027 46.0836V46.2909H131.234V46.0836H131.027ZM131.027 26.209H131.234V26.0017H131.027V26.209ZM109.262 26.4163H112.157V26.0017H109.262V26.4163ZM109.469 32.0001V26.209H109.054V32.0001H109.469ZM112.157 31.7928H109.262V32.2073H112.157V31.7928ZM119.906 31.7928H112.157V32.2073H119.906V31.7928ZM107.803 44.0264L120.05 32.1489L119.762 31.8513L107.514 43.7288L107.803 44.0264ZM105.205 46.5462L107.803 44.0264L107.514 43.7288L104.916 46.2486L105.205 46.5462ZM110.249 51.4496L105.209 46.2531L104.912 46.5417L109.951 51.7382L110.249 51.4496ZM112.554 48.9253L109.956 51.4451L110.244 51.7427L112.843 49.2229L112.554 48.9253ZM125.091 36.7665L112.554 48.9253L112.843 49.2229L125.38 37.064L125.091 36.7665ZM125.443 43.1881V36.9153H125.028V43.1881H125.443ZM125.443 46.0836V43.1881H125.028V46.0836H125.443ZM131.027 45.8764H125.236V46.2909H131.027V45.8764ZM130.82 43.1881V46.0836H131.234V43.1881H130.82ZM130.82 29.1045V43.1881H131.234V29.1045H130.82ZM130.82 26.209V29.1045H131.234V26.209H130.82ZM128.131 26.4163H131.027V26.0017H128.131V26.4163ZM121.084 26.4163H128.131V26.0017H121.084V26.4163ZM112.157 26.4163H121.084V26.0017H112.157V26.4163Z" fill="#066D66"/>
<path d="M109.262 51.415V51.2078H109.054V51.415H109.262ZM109.262 57.2061H109.054V57.4134H109.262V57.2061ZM119.906 57.2061L120.05 57.3549L120.417 56.9989H119.906V57.2061ZM107.659 69.0832L107.803 69.232L107.803 69.232L107.659 69.0832ZM105.061 71.603L104.916 71.4542L104.767 71.5985L104.912 71.7473L105.061 71.603ZM110.1 76.7995L109.951 76.9438L110.096 77.0926L110.244 76.9483L110.1 76.7995ZM112.698 74.2797L112.843 74.4285L112.698 74.2797ZM125.236 62.1208H125.443V61.6311L125.091 61.972L125.236 62.1208ZM125.236 71.2897H125.028V71.497H125.236V71.2897ZM131.027 71.2897V71.497H131.234V71.2897H131.027ZM131.027 51.415H131.234V51.2078H131.027V51.415ZM109.262 51.6223H112.157V51.2078H109.262V51.6223ZM109.469 57.2061V51.415H109.054V57.2061H109.469ZM112.157 56.9989H109.262V57.4134H112.157V56.9989ZM119.906 56.9989H112.157V57.4134H119.906V56.9989ZM107.803 69.232L120.05 57.3549L119.761 57.0573L107.514 68.9344L107.803 69.232ZM105.205 71.7518L107.803 69.232L107.514 68.9344L104.916 71.4542L105.205 71.7518ZM110.249 76.6552L105.209 71.4587L104.912 71.7473L109.951 76.9438L110.249 76.6552ZM112.554 74.1309L109.956 76.6507L110.244 76.9483L112.843 74.4285L112.554 74.1309ZM125.091 61.972L112.554 74.1309L112.843 74.4285L125.38 62.2696L125.091 61.972ZM125.443 68.3941V62.1208H125.028V68.3941H125.443ZM125.443 71.2897V68.3941H125.028V71.2897H125.443ZM131.027 71.0824H125.236V71.497H131.027V71.0824ZM130.82 68.3941V71.2897H131.234V68.3941H130.82ZM130.82 54.3106V68.3941H131.234V54.3106H130.82ZM130.82 51.415V54.3106H131.234V51.415H130.82ZM128.131 51.6223H131.027V51.2078H128.131V51.6223ZM121.084 51.6223H128.131V51.2078H121.084V51.6223ZM112.157 51.6223H121.084V51.2078H112.157V51.6223Z" fill="#066D66"/>
<path d="M135.254 1.00586V0.79859H135.046V1.00586H135.254ZM135.254 6.79694H135.046V7.00421H135.254V6.79694ZM145.898 6.79694L146.043 6.94573L146.41 6.58967H145.898V6.79694ZM133.651 18.6745L133.795 18.8233L133.795 18.8233L133.651 18.6745ZM131.053 21.1943L130.908 21.0455L130.76 21.1898L130.904 21.3386L131.053 21.1943ZM136.092 26.3908L135.944 26.5351L136.088 26.6839L136.237 26.5396L136.092 26.3908ZM138.691 23.871L138.835 24.0198L138.691 23.871ZM151.228 11.7121H151.435V11.2224L151.084 11.5633L151.228 11.7121ZM151.228 20.8805H151.021V21.0878H151.228V20.8805ZM157.019 20.8805V21.0878H157.226V20.8805H157.019ZM157.019 1.00586H157.226V0.79859H157.019V1.00586ZM135.254 1.21313H138.149V0.79859H135.254V1.21313ZM135.461 6.79694V1.00586H135.046V6.79694H135.461ZM138.149 6.58967H135.254V7.00421H138.149V6.58967ZM145.898 6.58967H138.149V7.00421H145.898V6.58967ZM133.795 18.8233L146.043 6.94573L145.754 6.64815L133.507 18.5257L133.795 18.8233ZM131.197 21.3431L133.795 18.8233L133.507 18.5257L130.908 21.0455L131.197 21.3431ZM136.241 26.2465L131.202 21.05L130.904 21.3386L135.944 26.5351L136.241 26.2465ZM138.546 23.7222L135.948 26.242L136.237 26.5396L138.835 24.0198L138.546 23.7222ZM151.084 11.5633L138.546 23.7222L138.835 24.0198L151.372 11.8609L151.084 11.5633ZM151.435 17.985V11.7121H151.021V17.985H151.435ZM151.435 20.8805V17.985H151.021V20.8805H151.435ZM157.019 20.6732H151.228V21.0878H157.019V20.6732ZM156.812 17.985V20.8805H157.226V17.985H156.812ZM156.812 3.9014V17.985H157.226V3.9014H156.812ZM156.812 1.00586V3.9014H157.226V1.00586H156.812ZM154.123 1.21313H157.019V0.79859H154.123V1.21313ZM147.076 1.21313H154.123V0.79859H147.076V1.21313ZM138.149 1.21313H147.076V0.79859H138.149V1.21313Z" fill="#066D66"/>
<path fill-rule="evenodd" clip-rule="evenodd" d="M138.149 26.209H135.254V32.0001H138.149H145.898L133.651 43.8776L131.053 46.3974L136.092 51.5939L138.691 49.0741L151.228 36.9153V43.1881V46.0836H157.019V43.1881V29.1045V26.209H154.123H147.076H138.149Z" fill="#066D66"/>
<path d="M135.254 51.415V51.2078H135.046V51.415H135.254ZM135.254 57.2061H135.046V57.4134H135.254V57.2061ZM145.898 57.2061L146.043 57.3549L146.41 56.9989H145.898V57.2061ZM133.651 69.0837L133.795 69.2325L133.795 69.2325L133.651 69.0837ZM131.053 71.6035L130.908 71.4547L130.76 71.599L130.904 71.7478L131.053 71.6035ZM136.092 76.8L135.944 76.9443L136.088 77.0931L136.237 76.9488L136.092 76.8ZM138.691 74.2802L138.835 74.429L138.691 74.2802ZM151.228 62.1213H151.435V61.6316L151.084 61.9725L151.228 62.1213ZM151.228 71.2897H151.021V71.497H151.228V71.2897ZM157.019 71.2897V71.497H157.226V71.2897H157.019ZM157.019 51.415H157.226V51.2078H157.019V51.415ZM135.254 51.6223H138.149V51.2078H135.254V51.6223ZM135.461 57.2061V51.415H135.046V57.2061H135.461ZM138.149 56.9989H135.254V57.4134H138.149V56.9989ZM145.898 56.9989H138.149V57.4134H145.898V56.9989ZM133.795 69.2325L146.043 57.3549L145.754 57.0573L133.507 68.9349L133.795 69.2325ZM131.197 71.7523L133.795 69.2325L133.507 68.9349L130.908 71.4547L131.197 71.7523ZM136.241 76.6557L131.202 71.4592L130.904 71.7478L135.944 76.9443L136.241 76.6557ZM138.546 74.1314L135.948 76.6512L136.237 76.9488L138.835 74.429L138.546 74.1314ZM151.084 61.9725L138.546 74.1314L138.835 74.429L151.372 62.2701L151.084 61.9725ZM151.435 68.3941V62.1213H151.021V68.3941H151.435ZM151.435 71.2897V68.3941H151.021V71.2897H151.435ZM157.019 71.0824H151.228V71.497H157.019V71.0824ZM156.812 68.3941V71.2897H157.226V68.3941H156.812ZM156.812 54.3106V68.3941H157.226V54.3106H156.812ZM156.812 51.415V54.3106H157.226V51.415H156.812ZM154.123 51.6223H157.019V51.2078H154.123V51.6223ZM147.076 51.6223H154.123V51.2078H147.076V51.6223ZM138.149 51.6223H147.076V51.2078H138.149V51.6223Z" fill="#066D66"/>
<path d="M161.244 1.00586V0.79859H161.037V1.00586H161.244ZM161.244 6.79694H161.037V7.00421H161.244V6.79694ZM171.889 6.79694L172.033 6.94573L172.4 6.58967H171.889V6.79694ZM159.641 18.6745L159.786 18.8233L159.786 18.8233L159.641 18.6745ZM157.043 21.1943L156.899 21.0455L156.75 21.1898L156.894 21.3386L157.043 21.1943ZM162.083 26.3908L161.934 26.5351L162.078 26.6839L162.227 26.5396L162.083 26.3908ZM164.681 23.871L164.825 24.0198L164.681 23.871ZM177.218 11.7121H177.425V11.2224L177.074 11.5633L177.218 11.7121ZM177.218 20.8805H177.011V21.0878H177.218V20.8805ZM183.009 20.8805V21.0878H183.217V20.8805H183.009ZM183.009 1.00586H183.217V0.79859H183.009V1.00586ZM161.244 1.21313H164.14V0.79859H161.244V1.21313ZM161.451 6.79694V1.00586H161.037V6.79694H161.451ZM164.14 6.58967H161.244V7.00421H164.14V6.58967ZM171.889 6.58967H164.14V7.00421H171.889V6.58967ZM159.786 18.8233L172.033 6.94573L171.744 6.64815L159.497 18.5257L159.786 18.8233ZM157.187 21.3431L159.786 18.8233L159.497 18.5257L156.899 21.0455L157.187 21.3431ZM162.231 26.2465L157.192 21.05L156.894 21.3386L161.934 26.5351L162.231 26.2465ZM164.537 23.7222L161.938 26.242L162.227 26.5396L164.825 24.0198L164.537 23.7222ZM177.074 11.5633L164.537 23.7222L164.825 24.0198L177.362 11.8609L177.074 11.5633ZM177.425 17.985V11.7121H177.011V17.985H177.425ZM177.425 20.8805V17.985H177.011V20.8805H177.425ZM183.009 20.6732H177.218V21.0878H183.009V20.6732ZM182.802 17.985V20.8805H183.217V17.985H182.802ZM182.802 3.9014V17.985H183.217V3.9014H182.802ZM182.802 1.00586V3.9014H183.217V1.00586H182.802ZM180.114 1.21313H183.009V0.79859H180.114V1.21313ZM173.066 1.21313H180.114V0.79859H173.066V1.21313ZM164.14 1.21313H173.066V0.79859H164.14V1.21313Z" fill="#066D66"/>
<path d="M161.244 26.209V26.0011H161.036V26.209H161.244ZM161.244 32.0001H161.036V32.208H161.244V32.0001ZM171.889 32.0001L172.033 32.1493L172.402 31.7922H171.889V32.0001ZM159.641 43.8776L159.786 44.0269L159.786 44.0269L159.641 43.8776ZM157.043 46.3974L156.898 46.2482L156.749 46.3929L156.894 46.5422L157.043 46.3974ZM162.083 51.5939L161.933 51.7386L162.078 51.8879L162.227 51.7432L162.083 51.5939ZM164.681 49.0741L164.826 49.2234L164.681 49.0741ZM177.218 36.9153H177.426V36.424L177.073 36.766L177.218 36.9153ZM177.218 46.0836H177.01V46.2915H177.218V46.0836ZM183.009 46.0836V46.2915H183.217V46.0836H183.009ZM183.009 26.209H183.217V26.0011H183.009V26.209ZM161.244 26.4169H164.14V26.0011H161.244V26.4169ZM161.452 32.0001V26.209H161.036V32.0001H161.452ZM164.14 31.7922H161.244V32.208H164.14V31.7922ZM171.889 31.7922H164.14V32.208H171.889V31.7922ZM159.786 44.0269L172.033 32.1493L171.744 31.8508L159.496 43.7284L159.786 44.0269ZM157.188 46.5467L159.786 44.0269L159.496 43.7284L156.898 46.2482L157.188 46.5467ZM162.232 51.4492L157.192 46.2527L156.894 46.5422L161.933 51.7386L162.232 51.4492ZM164.536 48.9249L161.938 51.4447L162.227 51.7432L164.826 49.2234L164.536 48.9249ZM177.073 36.766L164.536 48.9249L164.826 49.2234L177.363 37.0645L177.073 36.766ZM177.426 43.1881V36.9153H177.01V43.1881H177.426ZM177.426 46.0836V43.1881H177.01V46.0836H177.426ZM183.009 45.8757H177.218V46.2915H183.009V45.8757ZM182.801 43.1881V46.0836H183.217V43.1881H182.801ZM182.801 29.1045V43.1881H183.217V29.1045H182.801ZM182.801 26.209V29.1045H183.217V26.209H182.801ZM180.114 26.4169H183.009V26.0011H180.114V26.4169ZM173.066 26.4169H180.114V26.0011H173.066V26.4169ZM164.14 26.4169H173.066V26.0011H164.14V26.4169Z" fill="#066D66"/>
<path d="M161.244 51.415V51.2078H161.037V51.415H161.244ZM161.244 57.2061H161.037V57.4134H161.244V57.2061ZM171.888 57.2061L172.032 57.3549L172.399 56.9989H171.888V57.2061ZM159.641 69.0832L159.786 69.232L159.786 69.232L159.641 69.0832ZM157.043 71.603L156.899 71.4542L156.75 71.5985L156.894 71.7473L157.043 71.603ZM162.083 76.7995L161.934 76.9438L162.078 77.0926L162.227 76.9483L162.083 76.7995ZM164.681 74.2797L164.825 74.4285L164.681 74.2797ZM177.218 62.1208H177.425V61.6311L177.074 61.972L177.218 62.1208ZM177.218 71.2897H177.011V71.497H177.218V71.2897ZM183.009 71.2897V71.497H183.217V71.2897H183.009ZM183.009 51.415H183.217V51.2078H183.009V51.415ZM161.244 51.6223H164.14V51.2078H161.244V51.6223ZM161.451 57.2061V51.415H161.037V57.2061H161.451ZM164.14 56.9989H161.244V57.4134H164.14V56.9989ZM171.888 56.9989H164.14V57.4134H171.888V56.9989ZM159.786 69.232L172.032 57.3549L171.744 57.0573L159.497 68.9344L159.786 69.232ZM157.187 71.7518L159.786 69.232L159.497 68.9344L156.899 71.4542L157.187 71.7518ZM162.231 76.6552L157.192 71.4587L156.894 71.7473L161.934 76.9438L162.231 76.6552ZM164.537 74.1309L161.938 76.6507L162.227 76.9483L164.825 74.4285L164.537 74.1309ZM177.074 61.972L164.537 74.1309L164.825 74.4285L177.362 62.2696L177.074 61.972ZM177.425 68.3941V62.1208H177.011V68.3941H177.425ZM177.425 71.2897V68.3941H177.011V71.2897H177.425ZM183.009 71.0824H177.218V71.497H183.009V71.0824ZM182.802 68.3941V71.2897H183.217V68.3941H182.802ZM182.802 54.3106V68.3941H183.217V54.3106H182.802ZM182.802 51.415V54.3106H183.217V51.415H182.802ZM180.114 51.6223H183.009V51.2078H180.114V51.6223ZM173.066 51.6223H180.114V51.2078H173.066V51.6223ZM164.14 51.6223H173.066V51.2078H164.14V51.6223Z" fill="#066D66"/>
<path d="M187.232 1.00586V0.79859H187.025V1.00586H187.232ZM187.232 6.79694H187.025V7.00421H187.232V6.79694ZM197.877 6.79694L198.021 6.94573L198.388 6.58967H197.877V6.79694ZM185.629 18.6745L185.774 18.8233L185.774 18.8233L185.629 18.6745ZM183.031 21.1943L182.887 21.0455L182.738 21.1898L182.882 21.3386L183.031 21.1943ZM188.071 26.3908L187.922 26.5351L188.066 26.6839L188.215 26.5396L188.071 26.3908ZM190.669 23.871L190.813 24.0198L190.669 23.871ZM203.206 11.7121H203.414V11.2224L203.062 11.5633L203.206 11.7121ZM203.206 20.8805H202.999V21.0878H203.206V20.8805ZM208.998 20.8805V21.0878H209.205V20.8805H208.998ZM208.447 6.62969L208.303 6.4809L208.205 6.57543L208.253 6.70254L208.447 6.62969ZM208.757 6.32872L208.902 6.47751L209.051 6.33321L208.906 6.18442L208.757 6.32872ZM207.892 5.43586L207.711 5.53738L207.724 5.56084L207.743 5.58016L207.892 5.43586ZM204.798 2.24606L204.649 2.39036L204.668 2.40966L204.691 2.42355L204.798 2.24606ZM203.718 1.13224L203.867 0.987938L203.722 0.839148L203.574 0.983446L203.718 1.13224ZM203.306 1.53132L203.235 1.72597L203.357 1.77066L203.451 1.68011L203.306 1.53132ZM187.232 1.21313H190.128V0.79859H187.232V1.21313ZM187.44 6.79694V1.00586H187.025V6.79694H187.44ZM190.128 6.58967H187.232V7.00421H190.128V6.58967ZM197.877 6.58967H190.128V7.00421H197.877V6.58967ZM185.774 18.8233L198.021 6.94573L197.733 6.64815L185.485 18.5257L185.774 18.8233ZM183.176 21.3431L185.774 18.8233L185.485 18.5257L182.887 21.0455L183.176 21.3431ZM188.22 26.2465L183.18 21.05L182.882 21.3386L187.922 26.5351L188.22 26.2465ZM190.525 23.7222L187.927 26.242L188.215 26.5396L190.813 24.0198L190.525 23.7222ZM203.062 11.5633L190.525 23.7222L190.813 24.0198L203.351 11.8609L203.062 11.5633ZM203.414 17.985V11.7121H202.999V17.985H203.414ZM203.414 20.8805V17.985H202.999V20.8805H203.414ZM208.998 20.6732H203.206V21.0878H208.998V20.6732ZM208.79 17.985V20.8805H209.205V17.985H208.79ZM208.79 10.9432V17.985H209.205V10.9432H208.79ZM208.79 9.67648V10.9432H209.205V9.67648H208.79ZM208.253 6.70254C208.6 7.62748 208.79 8.62955 208.79 9.67648H209.205C209.205 8.57904 209.006 7.52766 208.641 6.55685L208.253 6.70254ZM208.613 6.17993L208.303 6.4809L208.591 6.77848L208.902 6.47751L208.613 6.17993ZM207.743 5.58016L208.609 6.47302L208.906 6.18442L208.04 5.29156L207.743 5.58016ZM204.691 2.42355C205.947 3.18122 206.991 4.25621 207.711 5.53738L208.072 5.33434C207.317 3.99052 206.223 2.86322 204.905 2.06857L204.691 2.42355ZM203.569 1.27653L204.649 2.39036L204.947 2.10176L203.867 0.987938L203.569 1.27653ZM203.451 1.68011L203.862 1.28103L203.574 0.983446L203.162 1.38253L203.451 1.68011ZM200.327 1.21313C201.349 1.21313 202.329 1.39425 203.235 1.72597L203.378 1.33667C202.426 0.9885 201.398 0.79859 200.327 0.79859V1.21313ZM199.055 1.21313H200.327V0.79859H199.055V1.21313ZM190.128 1.21313H199.055V0.79859H190.128V1.21313Z" fill="#066D66"/>
<path d="M187.232 26.209V26.0017H187.025V26.209H187.232ZM187.232 32.0001H187.025V32.2073H187.232V32.0001ZM197.877 32.0001L198.021 32.1489L198.388 31.7928H197.877V32.0001ZM185.629 43.8776L185.774 44.0264L185.774 44.0264L185.629 43.8776ZM183.031 46.3974L182.887 46.2486L182.738 46.3929L182.882 46.5417L183.031 46.3974ZM188.071 51.5939L187.922 51.7382L188.066 51.887L188.215 51.7427L188.071 51.5939ZM190.669 49.0741L190.813 49.2229L190.669 49.0741ZM203.206 36.9153H203.414V36.4255L203.062 36.7665L203.206 36.9153ZM203.206 46.0836H202.999V46.2909H203.206V46.0836ZM208.998 46.0836V46.2909H209.205V46.0836H208.998ZM208.998 26.209H209.205V26.0017H208.998V26.209ZM187.232 26.4163H190.128V26.0017H187.232V26.4163ZM187.44 32.0001V26.209H187.025V32.0001H187.44ZM190.128 31.7928H187.232V32.2073H190.128V31.7928ZM197.877 31.7928H190.128V32.2073H197.877V31.7928ZM185.774 44.0264L198.021 32.1489L197.733 31.8513L185.485 43.7288L185.774 44.0264ZM183.176 46.5462L185.774 44.0264L185.485 43.7288L182.887 46.2486L183.176 46.5462ZM188.22 51.4496L183.18 46.2531L182.882 46.5417L187.922 51.7382L188.22 51.4496ZM190.525 48.9253L187.927 51.4451L188.215 51.7427L190.813 49.2229L190.525 48.9253ZM203.062 36.7665L190.525 48.9253L190.813 49.2229L203.351 37.064L203.062 36.7665ZM203.414 43.1881V36.9153H202.999V43.1881H203.414ZM203.414 46.0836V43.1881H202.999V46.0836H203.414ZM208.998 45.8764H203.206V46.2909H208.998V45.8764ZM208.79 43.1881V46.0836H209.205V43.1881H208.79ZM208.79 29.1045V43.1881H209.205V29.1045H208.79ZM208.79 26.209V29.1045H209.205V26.209H208.79ZM206.102 26.4163H208.998V26.0017H206.102V26.4163ZM199.055 26.4163H206.102V26.0017H199.055V26.4163ZM190.128 26.4163H199.055V26.0017H190.128V26.4163Z" fill="#066D66"/>
<path d="M187.232 51.415V51.2078H187.025V51.415H187.232ZM187.232 57.2061H187.025V57.4134H187.232V57.2061ZM197.876 57.2061L198.021 57.3549L198.388 56.9989H197.876V57.2061ZM185.629 69.0832L185.774 69.232L185.774 69.232L185.629 69.0832ZM183.031 71.603L182.887 71.4542L182.738 71.5985L182.882 71.7473L183.031 71.603ZM188.071 76.7995L187.922 76.9438L188.066 77.0926L188.215 76.9483L188.071 76.7995ZM190.669 74.2797L190.813 74.4285L190.669 74.2797ZM203.206 62.1208H203.414V61.6311L203.062 61.972L203.206 62.1208ZM203.206 71.2897H202.999V71.497H203.206V71.2897ZM208.998 71.2897V71.497H209.205V71.2897H208.998ZM208.998 51.415H209.205V51.2078H208.998V51.415ZM187.232 51.6223H190.128V51.2078H187.232V51.6223ZM187.44 57.2061V51.415H187.025V57.2061H187.44ZM190.128 56.9989H187.232V57.4134H190.128V56.9989ZM197.876 56.9989H190.128V57.4134H197.876V56.9989ZM185.774 69.232L198.021 57.3549L197.732 57.0573L185.485 68.9344L185.774 69.232ZM183.176 71.7518L185.774 69.232L185.485 68.9344L182.887 71.4542L183.176 71.7518ZM188.22 76.6552L183.18 71.4587L182.882 71.7473L187.922 76.9438L188.22 76.6552ZM190.525 74.1309L187.927 76.6507L188.215 76.9483L190.813 74.4285L190.525 74.1309ZM203.062 61.972L190.525 74.1309L190.813 74.4285L203.351 62.2696L203.062 61.972ZM203.414 68.3941V62.1208H202.999V68.3941H203.414ZM203.414 71.2897V68.3941H202.999V71.2897H203.414ZM208.998 71.0824H203.206V71.497H208.998V71.0824ZM208.79 68.3941V71.2897H209.205V68.3941H208.79ZM208.79 54.3106V68.3941H209.205V54.3106H208.79ZM208.79 51.415V54.3106H209.205V51.415H208.79ZM206.102 51.6223H208.998V51.2078H206.102V51.6223ZM199.055 51.6223H206.102V51.2078H199.055V51.6223ZM190.128 51.6223H199.055V51.2078H190.128V51.6223Z" fill="#066D66"/>
</svg>
