<svg width="293" height="31" viewBox="0 0 293 31" fill="none" xmlns="http://www.w3.org/2000/svg">
<path d="M66.04 3.45166C66.087 3.37482 66.146 3.30126 66.2161 3.2321C66.5286 3.21302 66.8439 3.23717 67.1407 3.30292L67.658 3.04087L67.8891 2.92755C68.1989 2.99006 68.522 3.02112 68.8467 3.01962C69.3215 2.93294 69.7882 2.82889 70.2446 2.70799V2.70799V2.83548C70.2446 2.97005 70.6188 2.99838 70.993 2.89922C71.7701 2.87149 72.5495 2.90239 73.3154 2.99129C73.7887 2.99129 75.1205 2.68675 75.3957 2.70091C75.6708 2.71508 76.3973 2.9063 76.6284 2.92755C76.9728 2.88789 77.3065 2.81632 77.619 2.71507C77.7731 2.71507 78.1583 2.71507 78.1693 2.538C78.1803 2.36094 79.0389 2.64425 79.27 2.64425L79.4461 2.58051C79.8974 2.41761 79.9634 2.50967 80.1065 2.73632L80.2056 2.91338C80.4917 2.69382 80.866 2.57342 81.0531 2.64425C81.5055 2.7215 81.9782 2.73598 82.4399 2.68674L82.7261 2.57342L82.9902 2.47426C83.2678 2.49175 83.5435 2.52013 83.8157 2.55925L83.9258 2.623C84.1129 2.72216 84.234 2.86381 84.4211 2.96296C84.5055 2.94773 84.58 2.91537 84.6335 2.87071C84.6871 2.82605 84.7168 2.77147 84.7183 2.71507C84.7183 2.623 85.2576 2.46718 85.6648 2.41052L86.0171 2.57342L86.0941 2.61591C86.2662 2.66825 86.4541 2.6954 86.6445 2.6954C86.8348 2.6954 87.0227 2.66825 87.1948 2.61591L87.4369 2.54509L87.58 2.5026C87.7781 2.5026 87.9322 2.57342 87.9102 2.67257V2.81422C87.9102 2.87088 88.0423 2.92046 88.2184 2.91338L88.2844 2.87089C88.4275 2.77881 88.4826 2.65132 88.6147 2.55925L88.7797 2.43177C89.0092 2.48363 89.2525 2.5053 89.4952 2.49551C90.0193 2.48678 90.5335 2.58878 90.9591 2.7859L91.6855 2.51676C91.8411 2.47729 92.0142 2.47729 92.1698 2.51676L92.478 2.81422C92.8207 2.71458 93.1456 2.59109 93.4465 2.44594C93.5676 2.36095 94.0299 2.21221 94.129 2.33261C94.228 2.45302 94.7233 2.70799 94.9655 2.57342H95.2076L95.6369 2.50968L96.6825 2.47426L97.53 2.35386C97.8602 2.31137 99.0599 2.58759 99.181 2.48843L99.3351 2.43177L99.4672 2.38219C99.6763 2.38219 99.7533 2.38219 99.6653 2.49551V2.55925C99.6653 2.62299 99.8414 2.67966 99.9515 2.72924L100.227 2.84256C100.269 2.70826 100.336 2.57756 100.425 2.45302C100.783 2.30384 101.213 2.24343 101.635 2.28303L102.087 2.33969H102.175C102.274 2.4176 102.318 2.48135 102.274 2.47426C102.125 2.58343 102.012 2.71122 101.944 2.84964C101.823 3.04795 100.656 2.97713 100.568 3.00546V3.04795V3.09044C100.895 3.27858 101.266 3.43164 101.669 3.54374L102.34 3.36667L102.626 3.28877C102.978 3.23919 102.978 3.14002 102.626 3.0692C102.274 2.99837 102.692 2.41052 103.044 2.31845H103.463C104.235 2.38322 105.02 2.35197 105.774 2.22638C105.921 2.20844 106.071 2.20985 106.217 2.23055C106.363 2.25125 106.5 2.2908 106.621 2.34678L106.831 2.43885C106.919 2.63716 107.095 2.70799 107.205 2.59467C107.326 2.4916 107.478 2.40525 107.652 2.34076C107.826 2.27628 108.018 2.23497 108.217 2.21929C108.548 2.21929 109.604 2.16972 109.857 1.95724L110.133 2.09181L110.21 2.12722C110.37 2.23508 110.52 2.34857 110.661 2.46719L111.024 2.33969H111.123C111.221 2.34003 111.316 2.35734 111.399 2.38976C111.483 2.42218 111.551 2.46852 111.597 2.52385C111.597 2.60884 111.828 2.84256 111.905 2.70091V2.63008C111.905 2.5805 111.905 2.51676 111.905 2.47426C112.048 2.31845 112.235 2.34678 112.477 2.43177C113.06 2.63716 112.609 2.23346 112.895 2.23346H113.071C113.394 2.19402 113.726 2.20618 114.04 2.26887L114.337 2.12014C114.453 2.07599 114.589 2.05851 114.722 2.07056L115.372 2.47426C115.79 2.15555 116.362 2.0139 116.649 2.16263C116.935 2.31136 118.222 2.16263 118.443 2.24054C118.663 2.31845 119.664 2.08472 120.16 2.10597L120.578 1.97141H120.644C120.776 1.97141 121.249 2.08472 121.679 2.15555L122.383 2.07764L122.889 2.02806C122.966 2.21929 123.209 2.2972 123.44 2.19804C123.671 2.09889 124.54 2.19804 124.661 2.19804C124.979 2.13902 125.292 2.06807 125.597 1.98556L125.993 2.04223L126.444 2.10597C126.806 2.04894 127.184 2.04894 127.545 2.10597C127.612 2.13459 127.69 2.14988 127.771 2.14988C127.851 2.14988 127.93 2.13459 127.996 2.10597C128.139 2.02806 128.8 1.80143 128.91 1.8935C129.12 2.02883 129.366 2.13913 129.636 2.21929C130.162 2.23226 130.687 2.18673 131.188 2.08472C131.787 2.02772 132.395 2.02772 132.993 2.08472C133.236 2.08472 133.94 1.95724 134.094 2.0139C134.385 2.0919 134.687 2.15121 134.997 2.19097V2.19097L135.338 2.02098C135.8 2.02098 136.273 2.06347 136.439 2.06347C136.604 2.06347 137.143 1.98557 137.462 1.96432C137.781 1.94307 138.563 1.96432 138.563 1.73059L139.201 1.97141L139.322 2.0139C139.578 2.05099 139.841 2.06528 140.104 2.05639C140.651 2.08826 141.202 2.07397 141.744 2.0139C142.246 1.9032 142.767 1.83186 143.296 1.80142L143.417 1.85099C143.681 1.95723 143.868 2.10597 144.286 2.08472H144.649C144.803 1.96117 144.999 1.86187 145.222 1.79434H145.354H145.772L147.181 1.55353L147.423 1.78725C147.485 1.84115 147.563 1.88636 147.652 1.92007C147.742 1.95379 147.842 1.9753 147.945 1.98326C148.048 1.99123 148.153 1.98549 148.252 1.96639C148.352 1.9473 148.444 1.91526 148.524 1.87225L150.538 1.72351H151.121C151.649 1.74905 152.179 1.74905 152.706 1.72351C152.937 1.72351 153.466 1.92183 153.499 1.81559C153.532 1.70935 153.774 1.61728 153.972 1.81559C154.17 2.0139 155.568 1.81559 156.052 1.81559C156.713 1.78546 157.368 1.71911 158.012 1.61728L158.815 1.96432C159.487 1.91138 160.164 1.89007 160.84 1.90058C160.958 1.80331 161.126 1.7363 161.313 1.71163C161.501 1.68695 161.696 1.70623 161.864 1.76601L162.106 1.83684C162.606 1.73328 163.118 1.65281 163.636 1.59603H164.527C164.945 1.59844 165.359 1.64881 165.749 1.74476C165.848 1.80142 166.189 1.91474 166.233 1.85099C166.412 1.72712 166.647 1.64283 166.905 1.61019C167.379 1.56331 167.862 1.56331 168.336 1.61019V1.68102V1.98556C168.721 1.94307 169.359 1.84392 169.756 1.7731L170.152 1.90766C170.264 1.94122 170.386 1.95862 170.51 1.95862C170.633 1.95862 170.755 1.94122 170.867 1.90766C171.208 1.73767 171.583 1.78726 171.968 1.75893H172.331L173.366 1.58186C173.553 1.54645 174.125 1.75184 174.466 1.72351C174.808 1.69518 175.699 1.63853 175.864 1.63853C176.029 1.63853 176.415 1.5252 176.514 1.57477C176.613 1.62435 177.361 1.92183 177.956 2.12722L178.022 1.54645C178.181 1.52331 178.346 1.52331 178.506 1.54645L179.342 1.72351C180.068 1.6247 180.804 1.56078 181.544 1.53228H182.369C182.457 1.70934 183.25 1.75185 184.13 1.63853H184.956C185.154 1.63853 185.121 1.85099 184.879 1.9289L184.769 1.97141C184.571 1.97141 184.549 2.03515 184.769 2.07764C184.989 2.12014 185.407 2.1343 185.407 1.99973C185.407 1.86516 185.671 1.43313 185.979 1.4048C186.288 1.37647 187.399 1.57478 187.751 1.53937H188.214C188.586 1.52663 188.959 1.55782 189.314 1.63144L189.865 1.78017C190.34 1.6804 190.806 1.56456 191.263 1.43313C191.505 1.3623 191.89 1.73059 191.934 1.73059C192.109 1.69334 192.276 1.64092 192.429 1.57477L192.671 1.6881C193.046 1.85808 193.266 1.84392 193.31 1.54645V1.46854C193.417 1.43026 193.541 1.4171 193.662 1.43131C193.782 1.44552 193.891 1.48622 193.97 1.54645C194.113 1.67394 194.95 1.59603 195.401 1.54645C195.852 1.49687 197.206 1.47562 197.404 1.48979L197.492 1.35522C197.565 1.33535 197.644 1.32512 197.723 1.32512C197.803 1.32512 197.881 1.33535 197.955 1.35522C198.12 1.44729 198.043 1.70935 198.461 1.60311L198.637 1.55353C198.637 1.34105 199.154 1.27731 199.661 1.41188L200.134 1.53937C200.585 1.54659 201.036 1.51804 201.477 1.45437C201.796 1.29147 202.104 1.12858 202.225 1.5252L202.798 1.61019C203.103 1.64687 203.417 1.64687 203.722 1.61019C203.843 1.52927 203.957 1.44415 204.063 1.35522C204.266 1.26639 204.494 1.20385 204.735 1.17107C205.032 1.17107 205.835 1.29148 205.901 1.24898C206.116 1.19192 206.358 1.19192 206.573 1.24898C206.727 1.33397 207.354 1.54645 207.508 1.48271C207.662 1.41897 208.114 1.29148 208.224 1.34106C208.334 1.39064 208.708 1.49687 208.741 1.41188C208.76 1.38141 208.791 1.35471 208.831 1.33453C208.871 1.31436 208.919 1.30144 208.969 1.29711C209.02 1.29278 209.071 1.2972 209.118 1.3099C209.165 1.32261 209.206 1.34314 209.236 1.36938H209.446H209.875C210.007 1.53937 210.249 1.58894 210.414 1.47562C210.579 1.3623 211.052 1.07192 211.097 1.13566C211.147 1.18272 211.217 1.21964 211.299 1.24218C211.381 1.26473 211.471 1.272 211.559 1.26315C211.735 1.21357 212.263 1.12149 212.307 1.17815V1.23481C212.406 1.41896 212.781 1.41896 212.814 1.31272C212.968 0.958594 213.331 0.972756 213.749 1.12149L214.079 1.2419L215.389 1.00109L215.686 1.19232C215.823 1.28918 216.01 1.35107 216.212 1.36667C216.414 1.38228 216.618 1.35055 216.787 1.27731C216.879 1.27543 216.97 1.29562 217.04 1.33397L217.392 1.55353L217.866 1.22065H218.449C218.966 1.26314 219.462 1.29148 219.55 1.29148L220.21 1.18524C220.43 1.18524 221.234 1.44729 221.498 1.35522C221.762 1.26314 222.598 1.16398 222.664 1.3198C222.731 1.47562 223.765 1.19232 224.26 1.17107C224.756 1.14983 225.912 1.33398 225.945 1.2419C225.978 1.14983 226.143 0.92318 226.231 1.00109V1.05067V1.09316C226.452 1.17977 226.709 1.2217 226.968 1.21357C227.331 1.21357 228.069 1.44021 227.937 1.53228C227.805 1.62435 225.251 1.65268 224.734 1.70934C224.216 1.76601 224.26 1.95015 224.58 1.88641L224.91 1.95724C225.124 1.84534 225.361 1.75244 225.614 1.68102C225.911 1.59603 226.33 2.09181 226.451 2.11306C226.572 2.1343 226.737 1.94307 226.726 1.85808V1.78725C226.869 1.50395 226.836 1.56061 226.495 1.49687L226.088 1.41188C225.806 1.45474 225.53 1.51157 225.262 1.58186H225.196L224.8 1.70934C225.329 1.63732 225.881 1.68484 226.363 1.84392C226.873 1.97411 227.424 2.02272 227.97 1.98556C228.223 1.94307 229.136 2.04931 229.368 1.98556C229.599 1.92182 229.577 1.63144 229.5 1.56062C229.342 1.44174 229.13 1.35754 228.894 1.3198C228.696 1.3198 228.421 1.25607 228.696 1.18524C229.059 1.08145 229.405 0.955764 229.731 0.809866C229.731 0.753206 230.314 0.809866 230.391 0.809866C230.6 0.930033 230.799 1.05772 230.986 1.19232C231.151 1.30564 232.086 1.56061 232.086 1.61019C232.086 1.65977 232.273 1.43313 232.24 1.34106H232.152L231.822 1.25606C231.459 1.18524 231.25 1.04359 231.349 0.930269C231.217 0.82403 231.151 0.703623 231.426 0.760283L231.888 0.845271C232.384 0.884439 232.877 0.94119 233.363 1.01526C233.967 1.00228 234.566 0.940417 235.146 0.831113C235.333 0.788618 235.74 0.746114 235.994 0.689453L236.236 0.746115C236.236 0.746115 236.357 0.746115 236.379 0.746115L236.544 0.845271C236.606 0.898879 236.696 0.935813 236.798 0.9489C236.9 0.961988 237.005 0.950299 237.094 0.916101C237.362 0.845262 237.663 0.845262 237.931 0.916101C238.162 0.979844 239.031 0.845277 239.373 0.951516L239.67 1.07192C239.67 1.07192 239.549 1.20649 239.527 1.2844V1.35522C239.527 1.43312 239.681 1.35522 239.791 1.2419C239.901 1.12858 240.638 0.979843 240.605 0.937347C240.572 0.894852 240.671 0.767362 240.914 0.767362C241.482 0.828641 242.042 0.921049 242.587 1.04358C243.155 1.06118 243.725 1.03023 244.282 0.951516C244.37 0.951516 244.568 1.0365 244.524 1.079C244.384 1.169 244.224 1.24537 244.05 1.30564C243.907 1.3623 244.282 1.851 244.909 1.90766L245.162 1.60311L245.36 1.35522C244.986 1.0365 245.03 0.739038 245.448 0.696543L245.569 0.753204C245.822 0.873608 245.889 1.08609 246.329 1.10733C246.33 1.12384 246.33 1.1404 246.329 1.15691C246.406 1.51103 246.417 1.50395 247.066 1.55353H247.396C247.837 1.63852 248.189 1.55353 248.189 1.41188C248.189 1.27023 248.343 0.866525 248.53 0.85236L248.783 0.979841C249.036 1.12858 249.036 1.27731 248.783 1.30564C248.53 1.33397 248.585 1.73059 248.783 1.74476C248.981 1.75893 249.532 1.51104 249.62 1.56062C249.708 1.6102 250.027 1.75185 250.126 1.73768H250.203C250.325 1.6707 250.454 1.60917 250.588 1.55353C250.72 1.49687 251.293 1.78726 251.403 1.69519C251.513 1.60311 251.931 1.44729 252.129 1.50396C252.452 1.58205 252.797 1.61583 253.142 1.60311C253.274 1.60311 253.626 1.39771 253.67 1.49687C253.714 1.59602 253.956 1.83683 254.133 1.82267H254.243L254.969 1.61019C255.64 1.8085 256.268 2.00681 256.378 2.04223C256.488 2.07764 256.785 2.15555 256.818 2.1343C256.885 2.03792 256.94 1.93849 256.983 1.83684C256.983 1.72352 257.666 1.83684 257.831 1.83684C257.996 1.83684 258.458 1.83683 258.48 1.9289C258.502 2.02098 259.108 1.88642 259.295 1.79434C259.482 1.70227 260.395 1.63852 260.395 1.57477L260.858 1.54645C260.932 1.51468 261.014 1.49077 261.1 1.47562L261.804 1.85808C261.881 1.53229 262.222 1.30565 262.575 1.36231C262.927 1.41897 263.422 1.91474 263.466 1.84392C263.516 1.74827 263.586 1.65765 263.675 1.57477V1.57477C263.938 1.6847 264.182 1.81297 264.402 1.95724C264.402 1.99973 264.27 2.12722 264.237 2.21929V2.30429C264.253 2.35764 264.297 2.40596 264.361 2.4418C264.424 2.47764 264.504 2.49901 264.589 2.5026L264.655 2.4601C265.106 2.23345 265.304 2.31137 265.403 2.60176C265.667 2.60176 265.888 2.52385 265.899 2.44594C265.91 2.36803 265.899 2.19804 265.756 2.1768C265.612 2.15555 265.844 1.89349 266.064 1.86516C266.284 1.83683 266.713 2.19805 266.779 2.40344V2.59467C266.779 2.67257 266.504 2.79298 266.361 2.7859H265.767C265.106 2.72924 264.589 2.78589 264.611 2.89213C264.633 2.99837 265.612 3.0692 265.711 3.19669C265.818 3.33477 265.888 3.48309 265.921 3.6358C265.891 3.82635 265.772 4.00659 265.579 4.15283L265.381 4.25907C265.15 4.39364 264.897 4.52113 264.644 4.64862C264.644 4.64862 264.578 4.52113 264.589 4.36531C264.6 4.20949 264.149 3.7987 263.95 3.87661C263.752 3.95452 263.257 4.22366 263.378 4.31574L263.466 4.35823L263.587 4.41489C263.741 4.46447 263.785 4.54238 263.697 4.57779C263.609 4.6132 263.477 4.7761 263.576 4.83984C263.675 4.90358 265.667 5.06648 265.524 5.09481C265.381 5.12314 265.26 5.20105 265.524 5.19397C265.789 5.18689 266.075 5.56227 266.163 5.55519C266.251 5.5481 266.471 5.49853 266.438 5.45603C266.405 5.41354 266.438 5.33562 266.669 5.36395H266.834C267.395 5.5481 267.649 5.70392 267.418 5.71808C267.186 5.73225 266.493 5.85265 266.493 5.95181C266.493 6.05096 266.757 6.27052 266.933 6.40509C267.269 6.52374 267.651 6.57782 268.034 6.56091C268.25 6.47939 268.506 6.45405 268.749 6.49008C268.991 6.54674 269.553 6.58215 269.388 6.43342C269.223 6.28468 270.004 5.72516 270.323 5.46311H271.193C271.347 5.27188 271.49 5.19398 271.512 5.27897C271.534 5.36396 271.721 5.61892 271.831 5.52685C271.94 5.46189 272.076 5.41865 272.223 5.40231C272.369 5.38597 272.52 5.39725 272.657 5.43478C273.073 5.61505 273.554 5.72468 274.055 5.7535C274.33 5.711 275.1 5.39937 275.673 5.49852L276.19 5.57643C276.19 5.57643 276.19 5.49144 276.311 5.45603C276.432 5.42062 276.553 5.29312 276.663 5.29312H277.037C276.946 5.45109 276.824 5.60102 276.674 5.73933C276.629 5.87423 276.663 6.01521 276.771 6.13449C276.879 6.25378 277.053 6.34274 277.257 6.38385L277.577 5.94473C277.643 5.83849 278.028 5.78182 278.281 5.74641C278.357 5.74831 278.431 5.76145 278.498 5.78478C278.565 5.80812 278.622 5.84103 278.666 5.88098C278.743 5.98013 278.732 6.08638 278.985 5.96598C279.239 5.84557 279.426 5.83849 279.569 5.96598C279.712 6.09346 279.778 6.22803 279.712 6.32718C279.533 6.5037 279.331 6.66961 279.107 6.82296L278.897 6.98586C279.15 7.20344 279.499 7.36647 279.899 7.45331C280.4 7.53306 280.913 7.57584 281.429 7.5808C282.038 7.70011 282.604 7.89767 283.091 8.16157C283.267 8.31738 284.192 8.40238 284.247 8.44488C284.307 8.66275 284.307 8.88568 284.247 9.10355L284.588 9.3656L284.709 9.45768C284.797 9.59225 284.621 9.76224 284.324 9.84014L284.115 9.96055C283.784 10.1589 283.817 10.173 283.564 10.0668C283.525 10.0501 283.488 10.0311 283.454 10.0101L283.036 9.8543C282.86 10.0597 282.629 10.1093 282.519 9.96762C282.409 9.82597 281.418 9.79056 281.165 9.81889C280.912 9.84722 280.141 10.0172 280.493 10.088C280.846 10.1589 281.528 10.4138 281.396 10.5484L281.671 10.6334L282.133 10.7821C282.453 10.5555 282.728 10.3997 282.739 10.4492C282.858 10.5443 283.026 10.6094 283.212 10.6334C283.421 10.6334 283.212 11.0371 282.838 11.0796L282.662 11.1929L282.464 11.3204C282.298 11.547 282.265 11.7595 282.398 11.7949C282.53 11.8303 282.585 12.0782 282.243 12.2765C281.902 12.4749 281.143 12.9848 281.22 13.0202C281.297 13.0556 281.55 13.1902 281.396 13.2964H281.011C280.865 13.3303 280.733 13.3848 280.624 13.4559C280.516 13.527 280.433 13.6129 280.383 13.7072L280.67 13.856C280.604 14.1894 280.44 14.5116 280.185 14.805L279.888 14.9254C279.558 15.0458 279.294 15.2229 279.283 15.315C279.272 15.407 278.875 15.7258 278.787 15.8462L278.655 15.9382L278.347 16.1507C278.572 16.3885 278.701 16.6588 278.721 16.9369L278.655 17.1352L278.545 17.4185C278.941 17.4539 279.096 17.5601 278.908 17.6522C278.491 17.8289 278.023 17.9516 277.533 18.0134H277.18H276.674C276.381 18.1662 276.063 18.2991 275.728 18.41V18.41C275.43 18.1267 275.122 18.5375 274.781 18.41C274.461 18.3012 274.115 18.2271 273.757 18.1905V18.1905C273.724 18.234 273.677 18.2726 273.619 18.3039C273.562 18.3352 273.495 18.3586 273.422 18.3725C273.35 18.3865 273.274 18.3907 273.199 18.385C273.124 18.3793 273.052 18.3637 272.987 18.3392C272.701 18.2472 271.886 18.5021 271.886 18.5092C271.644 18.3676 271.292 18.5092 271.138 18.4525L270.686 18.3038C270.23 18.4202 269.723 18.4202 269.267 18.3038L268.859 18.5021H268.793C268.617 18.5021 267.957 18.3746 267.329 18.2542L266.746 18.488H266.647C266.406 18.4708 266.162 18.4708 265.921 18.488C265.545 18.4678 265.174 18.4154 264.82 18.3321C264.494 18.3099 264.164 18.3416 263.862 18.4242C263.331 18.4426 262.798 18.4426 262.266 18.4242H261.881C261.694 18.4431 261.503 18.4258 261.331 18.3746L261.056 18.2401C260.792 18.3109 260.23 18.4313 259.812 18.5092L259.427 18.5871C259.317 18.5871 259.251 18.6792 259.174 18.7288L258.953 18.8563C258.854 18.7217 258.656 18.6367 258.524 18.665C258.374 18.7412 258.249 18.8365 258.158 18.9449C258.067 19.0533 258.012 19.1726 257.996 19.2954V19.5503V19.5928C257.428 19.5816 256.859 19.6101 256.301 19.6778L256.411 19.6282L257.126 19.2812C257.126 19.5858 257.269 19.8124 257.467 19.7841C257.666 19.7557 257.677 19.4229 257.677 19.2954C257.598 19.104 257.451 18.927 257.247 18.7783C257.159 18.7358 256.653 18.9483 256.444 19.0616C256.235 19.175 257.424 19.7132 258.337 19.8691L258.59 19.7345L258.887 19.5858C259 19.4668 259.164 19.3718 259.36 19.3126C259.556 19.2534 259.774 19.2326 259.988 19.2529C260.351 19.3308 261.243 19.5787 261.221 19.4016L261.287 19.2954V19.2529C261.529 19.2529 261.705 19.2529 261.672 19.3095C261.639 19.3662 261.672 19.4937 261.815 19.5078C261.958 19.522 262.343 19.5999 262.31 19.6637H261.892C261.529 19.8266 261.474 19.9965 261.76 20.0461L261.859 19.9965L262.277 19.8053C262.729 19.8075 263.179 19.8408 263.62 19.9045C263.862 19.954 264.457 19.6991 264.567 19.6778H264.633L264.897 19.7557C265.193 19.8446 265.527 19.8646 265.844 19.8124L266.108 19.9399C266.196 19.9399 266.438 19.9399 266.603 19.9399H266.702C266.731 19.9408 266.759 19.9454 266.786 19.9533C266.812 19.9613 266.835 19.9725 266.855 19.9863C266.874 20.0001 266.889 20.0163 266.899 20.0338C266.908 20.0514 266.913 20.07 266.911 20.0886V20.2728C266.853 20.4676 266.721 20.6502 266.526 20.804H266.075H265.59C264.919 20.804 265.007 21.0448 265.767 21.321L266.581 21.2856H266.922C267.115 21.1486 267.362 21.0482 267.638 20.9952L267.726 21.0377L267.979 21.1581C267.996 21.3817 268.11 21.5977 268.309 21.7814H268.529C268.606 21.7814 268.705 21.661 268.683 21.6043V21.5547C268.458 21.509 268.216 21.509 267.99 21.5547L267.682 21.5051C267.495 21.4697 267.274 21.6185 266.856 21.5547L266.306 21.4626C265.652 21.5311 265.035 21.704 264.512 21.9655L264.842 22.1638L264.93 22.2134C265.394 22.1629 265.826 22.0277 266.174 21.8239L266.867 21.9797L267.968 22.3763L268.474 22.0505C268.349 21.9619 268.265 21.8529 268.23 21.7355C268.195 21.6181 268.211 21.4967 268.276 21.3847C268.43 21.2572 269.013 21.0164 269.377 21.2147L269.531 21.3635C269.531 21.4272 269.531 21.5476 269.432 21.6185L269.322 21.7105C269.19 22.0717 269.377 22.3338 269.74 22.2984C270.103 22.263 270.675 22.7658 270.51 22.8367C270.345 22.9075 269.872 23.1908 270.169 23.1554C270.466 23.12 273.405 22.8862 273.856 22.78C274.308 22.6738 273.702 22.5958 273.097 22.6454L272.591 22.78H272.437C272.249 22.78 272.117 22.78 272.139 22.7375C272.147 22.6894 272.129 22.6411 272.089 22.6001C272.049 22.5592 271.99 22.5278 271.919 22.5109V22.5109C271.71 22.6383 271.556 22.7871 271.369 22.9216L271.226 23.0208C271.448 23.1867 271.738 23.3093 272.062 23.3749C272.359 23.4316 272.965 23.0279 273.042 22.9854C273.119 22.9429 273.405 22.9854 273.46 23.2474L274.022 23.0987L274.341 23.0137C273.569 22.9619 272.804 22.8744 272.051 22.7517C271.963 22.7469 271.878 22.7272 271.805 22.6947C271.732 22.6621 271.674 22.6178 271.636 22.5661C271.598 22.5145 271.582 22.4573 271.589 22.4004C271.596 22.3434 271.627 22.2887 271.677 22.2417C271.858 22.1257 272.053 22.0191 272.26 21.923V21.923C272.337 22.0576 272.337 22.2771 272.492 22.3125L272.943 22.4259C272.947 22.2555 273.023 22.089 273.163 21.9443C273.942 21.9499 274.718 22.0141 275.474 22.1355L276.311 21.8805L276.608 21.7955C276.576 21.8595 276.571 21.9277 276.592 21.9935C276.613 22.0592 276.66 22.1203 276.729 22.1709C276.839 22.2276 277.29 22.3338 277.324 22.2276C277.391 22.14 277.504 22.0699 277.642 22.0287C277.78 21.9876 277.935 21.9778 278.083 22.0009C278.446 22.0647 278.083 22.6242 278.314 22.7092C278.991 22.8429 279.719 22.8203 280.372 22.6454L281.132 22.4967H281.22C281.462 22.6596 281.726 22.7658 281.803 22.7304C281.88 22.695 282.078 22.5817 282.089 22.5463L281.792 22.433C281.495 22.3283 281.171 22.261 280.835 22.2346H280.658C280.556 22.2453 280.452 22.2453 280.35 22.2346C279.679 22.0222 279.767 22.2771 279.745 22.4896V22.5321C279.679 22.5817 279.613 22.5321 279.602 22.4188C279.591 22.3055 278.941 22.2488 278.853 22.178V22.1213C278.886 22.0898 278.931 22.0637 278.982 22.0452C279.034 22.0268 279.092 22.0164 279.151 22.0151C279.525 22.093 279.855 21.7672 280.251 22.0151C280.681 21.8593 281.088 21.8168 281.154 21.923L281.297 21.9867H281.374L282.122 21.7459C282.309 21.6822 282.97 21.5547 283.047 21.668C283.124 21.7814 283.41 22.0647 283.465 22.0505H283.564L284.126 21.9584C284.694 21.8529 285.292 21.8311 285.876 21.8947V21.8947C285.876 22.1638 286.14 22.4613 285.622 22.695C285.622 22.695 285.622 22.8508 285.744 22.8862C285.803 22.9022 285.866 22.9104 285.931 22.9104C285.995 22.9104 286.059 22.9022 286.118 22.8862C286.26 22.7632 286.392 22.6355 286.514 22.5038L286.591 22.433C286.712 22.3621 286.844 22.3763 286.888 22.4684C286.995 22.6128 287.154 22.7389 287.351 22.8367C287.483 22.8367 287.934 22.8367 288.044 22.8367C288.154 22.8367 288.517 23.0066 288.55 22.9571C288.583 22.9075 288.781 22.8083 288.891 22.8933C289.04 22.9668 289.222 23.0067 289.409 23.0067C289.596 23.0067 289.778 22.9668 289.926 22.8933L290.256 22.7587C290.465 22.8791 290.553 23.0279 290.454 23.0845C290.355 23.1412 290.146 23.3466 290.311 23.3608C290.476 23.3749 290.95 23.4883 290.884 23.5732C290.818 23.6582 290.796 23.9557 291.016 23.9769C291.236 23.9982 291.456 24.1823 290.895 24.3523L290.443 24.5011C290.289 24.5535 290.16 24.6318 290.069 24.7277C290.029 24.7729 290.007 24.8242 290.007 24.8764C290.007 24.9287 290.029 24.9799 290.069 25.0252C290.145 25.0565 290.23 25.0776 290.319 25.0874C290.408 25.0971 290.499 25.0952 290.586 25.0818L290.906 25.0181C290.897 24.8616 290.958 24.7068 291.082 24.5719H291.203C291.566 24.4798 292.623 24.7348 292.667 24.926V24.9827L291.929 25.2801C291.646 25.4143 291.388 25.5688 291.159 25.7405C291.159 25.7759 290.961 25.7759 290.785 25.6201H290.609H290.443C290.168 25.7405 290.058 25.8892 290.212 25.9459C290.582 26.1975 290.811 26.5217 290.862 26.8666V27.2491V27.674C290.245 27.9149 289.761 28.0565 289.684 27.9786C289.607 27.9007 289.453 27.7449 289.299 27.8086C289.145 27.8724 289.233 28.2407 289.079 28.2548C288.924 28.269 288.55 28.4248 288.748 28.5664H288.902C289.163 28.5306 289.42 28.4857 289.673 28.4319C289.871 28.4319 290.223 28.3611 290.223 28.5664C290.223 28.7718 290.157 28.8498 290.025 28.8781L289.563 28.9772C289.459 28.9949 289.351 28.9955 289.247 28.979C289.143 28.9626 289.047 28.9295 288.968 28.883C288.889 28.8364 288.83 28.7779 288.795 28.7126C288.76 28.6474 288.752 28.5777 288.77 28.5098L288.055 28.5948L287.483 28.6585C287.714 28.9347 287.692 29.1756 287.428 29.1826C287.163 29.1897 286.415 29.1826 286.393 29.0622C286.371 28.9418 286.151 28.8356 285.975 28.956C285.799 29.0764 285.259 29.3526 285.226 29.2535C285.193 29.1543 284.984 28.9206 284.852 29.0056C284.398 29.1957 283.864 29.292 283.322 29.2818L282.926 29.4093L282.497 29.5438C281.98 29.5261 281.462 29.5261 280.945 29.5438H280.394C280.027 29.5699 279.655 29.5579 279.294 29.5084C278.831 29.4589 277.522 29.6359 277.412 29.6076C277.123 29.5585 276.828 29.5277 276.531 29.5155C276.14 29.5301 275.748 29.5111 275.364 29.4589C275.166 29.381 274.319 29.7209 273.911 29.8201L273.845 29.4518V29.3314L272.998 29.5509C272.811 29.5934 272.47 29.7563 272.36 29.6572C272.249 29.558 271.369 29.6572 271.127 29.7067C270.755 29.7009 270.386 29.6676 270.026 29.6076C269.883 29.6076 269.454 29.7634 269.355 29.813C269.256 29.8626 268.815 29.7705 268.694 29.7422C268.297 29.7381 267.903 29.7888 267.539 29.8909C267.153 29.9971 265.756 29.6997 265.337 29.6855C264.76 29.7588 264.195 29.8704 263.653 30.0184C263.466 30.0184 262.773 29.983 262.498 30.1459L261.991 29.9405C261.782 29.8484 261.254 29.9901 260.891 29.9901C260.527 29.9901 260.241 29.9121 259.922 29.9051C259.675 29.9186 259.432 29.9495 259.196 29.9971L258.656 30.0892C258.656 29.8767 258.656 29.8201 258.656 29.9546C258.656 30.0892 257.776 29.9546 257.456 30.0042H257.159L255.96 29.9405C254.639 29.898 253.186 29.8767 252.658 29.8909C252.041 29.9424 251.431 30.0205 250.831 30.1246C250.505 30.176 250.174 30.2115 249.84 30.2309L249.719 30.1529C249.334 29.9192 248.904 30.1529 248.618 30.0963L248.178 29.9688C247.75 30.0017 247.318 30.0017 246.89 29.9688C246.279 30.0342 245.672 30.1193 245.074 30.2238L244.535 30.0467L244.227 29.9546C243.81 30.0245 243.377 30.0437 242.95 30.0113C242.774 29.9688 242.333 30.0963 242.223 30.0113C242.113 29.9263 241.662 29.7917 241.431 29.8626C241.017 29.9809 240.586 30.0711 240.143 30.1317C239.796 30.1292 239.451 30.0934 239.119 30.0255C238.504 30.0575 237.895 30.1311 237.303 30.245C236.687 30.33 234.97 30.1175 234.838 30.1884C234.706 30.2592 234.144 30.0821 234.012 30.0609C233.88 30.0396 233.495 30.1105 233.44 30.0609C233.385 30.0113 233.176 29.9051 233.121 29.9688C233.022 30.0203 232.902 30.0529 232.776 30.0629C232.649 30.0729 232.521 30.0599 232.405 30.0255C232.13 29.9334 231.173 30.1813 230.942 30.1954L230.798 30.1459C230.586 30.0557 230.337 30.0076 230.083 30.0076C229.829 30.0076 229.58 30.0557 229.368 30.1459C228.938 30.3017 228.476 29.9263 228.201 30.0325C228.022 30.1067 227.82 30.1552 227.609 30.1747C227.398 30.1943 227.183 30.1844 226.979 30.1459C226.875 30.1162 226.763 30.1009 226.649 30.1009C226.535 30.1009 226.423 30.1162 226.319 30.1459C226.154 30.1813 225.757 30.0467 225.735 30.068C225.515 30.2875 225.251 29.9759 225.086 30.068C224.921 30.16 224.833 30.1246 224.646 30.068L224.294 29.9334L222.092 30.1175C221.344 30.1742 218.79 30.1175 218.46 30.1671H217.359C216.668 30.1365 215.973 30.1772 215.301 30.2875C214.702 30.309 214.101 30.2732 213.518 30.1813H213.1C212.604 30.1813 212.098 30.1813 211.603 30.1813H211.328C211.218 30.0467 211.074 29.9476 211.019 29.9476C210.854 29.9659 210.694 30.0018 210.546 30.0538C210.392 30.1105 209.919 30.2663 209.765 30.2025C209.611 30.1388 208.543 30.3088 207.795 30.2946C207.046 30.2804 204.878 30.153 204.614 30.1317C204.349 30.1105 203.513 30.2521 203.304 30.1317C203.095 30.0113 202.203 30.245 201.906 30.2592C201.609 30.2733 200.684 30.3159 200.343 30.3442C200.002 30.3725 199.044 30.1742 198.802 30.2167C198.35 30.2662 197.889 30.2662 197.437 30.2167C197.195 30.1671 196.061 30.2592 195.566 30.2167L195.093 30.1388L194.719 30.0821C193.879 30.1987 193.024 30.2604 192.165 30.2663C191.373 30.2663 188.797 30.3088 188.203 30.3725L188.027 29.9688V29.9334C187.619 29.9334 187.333 29.99 187.388 30.0396C187.404 30.0647 187.409 30.0919 187.403 30.1187C187.397 30.1454 187.381 30.1707 187.356 30.1922C187.33 30.2136 187.296 30.2304 187.258 30.2409C187.219 30.2514 187.177 30.2553 187.135 30.2521C186.601 30.2693 186.07 30.3191 185.55 30.4008L185.132 30.2734L184.901 30.2096C184.759 30.1164 184.58 30.0503 184.383 30.0184C184.273 30.075 184.174 30.2309 184.119 30.2238L182.931 30.1105C182.151 30.2547 181.33 30.2813 180.531 30.1884C180.531 30.0892 180.223 29.8626 179.948 29.9263H179.717C179.221 29.9263 179.419 30.153 179.21 30.2096C178.978 30.2353 178.742 30.2495 178.506 30.2521C178.231 30.2521 177.978 30.3513 177.713 30.3725H177.559L176.745 30.2379C176.372 30.2244 175.999 30.2556 175.644 30.33C175.49 30.3654 174.753 30.2804 174.543 30.33C174.334 30.3796 173.124 30.4008 172.452 30.5L171.858 30.2521C171.745 30.2207 171.623 30.2045 171.5 30.2045C171.377 30.2045 171.255 30.2207 171.142 30.2521L170.647 30.4504C170.131 30.3504 169.605 30.2724 169.073 30.2167V30.2663C168.765 30.6062 168.347 30.16 167.973 30.3229L167.631 30.4788C167.118 30.3293 166.578 30.2199 166.024 30.1529L165.551 30.3371L165.21 30.4646C165.074 30.3645 164.904 30.2867 164.713 30.2374C164.521 30.1881 164.314 30.1689 164.109 30.1813L163.999 30.2734C163.746 30.4929 163.548 30.1742 163.35 30.2734L163.284 30.3088C162.966 30.3283 162.646 30.3115 162.337 30.2592C161.343 30.2651 160.351 30.3101 159.365 30.3938V30.3938C159.238 30.3046 159.066 30.2466 158.879 30.2299C158.692 30.2131 158.503 30.2385 158.342 30.3017C157.945 30.5 157.857 30.1388 157.472 30.2238L157.186 30.2875C156.509 30.181 155.807 30.157 155.117 30.2167H154.467C154.082 30.2167 153.444 30.2663 153.367 30.1671L153.092 29.9051C152.873 30.0015 152.626 30.0667 152.365 30.0963C152.266 30.0963 151.826 30.0963 151.507 30.0963H151.231C150.967 30.1221 150.709 30.1672 150.461 30.2309V30.2309C150.359 30.1248 150.229 30.0312 150.076 29.9546C149.944 29.9051 149.646 30.1317 149.547 30.245H149.25H148.887C148.491 30.245 147.786 30.2804 147.346 30.3088L146.917 30.2663L146.488 30.2309C146.003 30.2309 145.585 30.1884 145.552 30.1034C145.528 29.9955 145.48 29.8905 145.409 29.7917C145.333 29.8337 145.283 29.8913 145.266 29.9546C145.266 30.0396 144.969 30.2734 144.76 30.2521L144.682 30.2025C144.286 29.9334 144.297 29.9334 143.747 30.1671H143.681C143.318 30.2149 142.95 30.2457 142.58 30.2592C142.008 30.2946 140.544 29.9901 140.379 30.0467C140.214 30.1034 139.873 29.983 140.038 29.898C140.203 29.813 140.489 29.5722 140.192 29.6218C139.783 29.7221 139.408 29.8737 139.091 30.068H138.992C138.772 30.068 138.563 29.9759 138.343 29.9688C138.123 29.9617 137.946 30.0609 137.748 30.075C137.513 30.1109 137.268 30.1109 137.033 30.075L136.339 29.8909C135.741 29.9824 135.134 30.0509 134.523 30.0963H134.314C133.846 29.9994 133.352 29.9633 132.861 29.9901L132.212 30.1317C131.618 29.9688 131.111 29.9192 130.968 30.0113C130.178 30.0629 129.381 30.0629 128.591 30.0113H127.204C126.465 29.9968 125.727 30.0372 125.003 30.1317L124.463 30.0255C124.166 29.9617 123.363 29.8342 123.153 29.7563C122.998 29.7296 122.835 29.7296 122.68 29.7563C122.581 30.0609 122.35 30.1105 121.932 29.8838C121.56 29.9221 121.193 29.9741 120.831 30.0396L120.391 29.9759C120.161 29.9095 119.91 29.8782 119.658 29.8843C119.406 29.8905 119.16 29.9339 118.938 30.0113C118.817 30.068 118.487 30.0113 118.256 29.9759H118.079C117.838 29.939 117.584 29.9591 117.364 30.0325C116.892 30.0579 116.416 30.034 115.955 29.9617C115.312 29.936 114.667 29.9502 114.029 30.0042L113.622 29.7634C113.622 29.7634 113.501 29.813 113.424 29.8201L112.191 29.9546C111.53 29.8555 110.892 29.7776 110.782 29.7705C110.672 29.7634 109.813 29.813 108.999 29.813L108.261 29.8767H107.865C107.722 29.7138 107.568 29.6643 107.513 29.7705C106.857 29.9151 106.17 29.9962 105.477 30.0113L104.882 29.7351H104.827C104.469 29.8009 104.099 29.8342 103.727 29.8342L103.342 29.7563C103.022 29.6926 102.769 30.0821 102.34 29.813C102.274 29.7705 102.021 29.813 101.856 29.813C101.691 29.813 101.635 29.8555 101.536 29.8484H101.36C101.015 29.8328 100.669 29.8567 100.337 29.9192L100.106 29.7351C99.7864 29.473 99.5442 29.898 99.148 29.7351C98.7517 29.5722 98.9719 29.3314 98.7298 29.1968C98.6234 29.1682 98.5093 29.1534 98.394 29.1534C98.2788 29.1534 98.1647 29.1682 98.0583 29.1968L97.7061 29.296C97.3539 29.4589 97.1448 29.6005 97.2328 29.6218C97.3209 29.643 97.2328 29.728 96.8586 29.7776L96.4844 29.7351C96.2693 29.6909 96.0482 29.6601 95.824 29.643H95.1416C94.7343 29.388 94.4041 29.2535 94.4041 29.3526C94.4041 29.4518 94.0739 29.8201 93.6777 29.813C93.2814 29.8059 92.3789 29.5014 92.3239 29.5438L92.2688 29.5863L92.1698 29.6501C91.8623 29.7283 91.5281 29.7528 91.2012 29.7209C90.6054 29.684 90.0183 29.6032 89.4511 29.4801C89.308 29.4093 88.9008 29.4022 88.8788 29.4801C88.8568 29.558 88.2734 29.5863 88.2404 29.5863C88.1433 29.4429 88.0874 29.2893 88.0753 29.1331L87.448 29.3739C87.1264 29.4731 86.7859 29.5445 86.4353 29.5863H86.2482C85.962 29.5863 85.7199 29.4518 85.7199 29.3172V29.1968C85.7199 29.0622 85.7199 28.9206 85.3677 28.9418C85.0155 28.9631 85.1696 29.1401 85.1255 29.2464V29.296C85.0485 29.388 84.9164 29.4022 84.8284 29.296C84.7812 29.2647 84.7247 29.2398 84.6623 29.2229C84.5999 29.2059 84.5329 29.1971 84.4651 29.1971C84.3974 29.1971 84.3303 29.2059 84.268 29.2229C84.2056 29.2398 84.1491 29.2647 84.1019 29.296L83.9478 29.4164C83.8629 29.4726 83.7499 29.5077 83.6286 29.5155H83.5296C83.4116 29.4093 83.3189 29.2923 83.2544 29.1685C83.1884 29.041 82.605 28.9843 82.7371 29.0268C82.8692 29.0693 82.7371 29.3739 82.1097 29.6218L81.5704 29.3101L81.3613 29.1897C81.1043 29.26 80.8543 29.3404 80.6128 29.4305C80.4037 29.5013 79.358 29.2464 79.27 29.2251H79.0939C79.0058 29.2251 78.9618 29.303 79.0058 29.3314C79.0499 29.3597 78.6646 29.5368 78.0153 29.6147L77.674 29.5014L77.1347 29.3385C76.6174 29.4022 76.2432 29.388 76.2982 29.3385C76.2389 29.1877 76.1308 29.0466 75.981 28.9246C75.8311 28.8025 75.6429 28.7022 75.4287 28.6302L74.6142 28.9064L74.1189 29.0764C73.3044 28.9277 72.8201 28.8143 73.0182 28.8214L73.2494 28.5027L74.35 28.6444C74.4271 28.6444 74.4821 28.3965 73.9428 28.4248L73.6456 28.3115L72.9962 28.0565C72.7981 28.3044 72.622 28.4673 72.6 28.4177C72.5673 28.3649 72.5183 28.317 72.4558 28.2768C72.3934 28.2366 72.3188 28.205 72.2368 28.184C72.0717 28.184 71.7084 28.3611 71.6754 28.4106C71.4772 28.5556 71.2517 28.6841 71.004 28.7931C70.7509 28.9206 70.3656 29.5014 70.3326 29.3951C70.2996 29.2889 70.0464 28.9843 69.8813 28.9914C69.5925 28.984 69.3052 28.9603 69.0228 28.9206C68.8907 28.9206 68.5936 28.9631 68.7587 29.0127C68.9888 29.0887 69.1972 29.1893 69.375 29.3101V29.3597C69.3518 29.3771 69.3231 29.3911 69.2909 29.4009C69.2586 29.4107 69.2235 29.4159 69.1879 29.4164L68.8797 29.3668C68.4945 29.2818 68.1643 29.1331 68.1643 29.041C68.1643 28.9489 68.0212 28.6869 67.8341 28.7223C67.647 28.7577 67.5149 29.126 67.4489 29.2251C67.3828 29.3243 66.7004 29.2818 66.6344 29.2676C66.5609 29.1936 66.5218 29.1076 66.5218 29.0197C66.5218 28.9319 66.5609 28.8459 66.6344 28.7719C66.8325 28.5381 66.9206 28.0636 66.6344 28.3044C66.3482 28.5452 65.4126 29.0127 65.2255 28.9631C65.0384 28.9135 64.5981 29.1472 64.5211 29.2464C64.444 29.3455 63.6846 29.3739 63.5745 29.2464C63.4645 29.1189 64.411 28.9135 64.6752 28.8498C65.0354 28.7743 65.3852 28.6795 65.7208 28.5664C65.7855 28.4582 65.8118 28.3421 65.7979 28.2265H65.7429C65.6218 28.2265 65.4126 28.2265 65.3576 28.2265L65.1485 28.3611C64.9614 28.5169 64.7523 28.6444 64.6752 28.6373C64.6097 28.6217 64.5502 28.5972 64.5008 28.5654C64.4514 28.5336 64.4133 28.4953 64.389 28.4531C64.2934 28.2971 64.1556 28.1532 63.9818 28.0282C63.8827 27.9503 63.5525 27.7732 63.4755 27.8015C63.2262 27.9068 62.9939 28.0278 62.7821 28.1627H63.0352H63.6076C63.7729 28.3001 63.9237 28.4444 64.0588 28.5948C64.0134 28.6436 63.951 28.6851 63.8765 28.7158C63.802 28.7465 63.7175 28.7657 63.6296 28.7719H63.4094H63.2223C63.0564 28.8011 62.8944 28.839 62.738 28.8852C62.65 28.8852 62.3528 28.8002 62.2317 28.8852C62.1107 28.9702 61.7694 28.9772 61.6594 28.8852C61.5493 28.7931 60.988 28.5027 60.6798 28.6373L60.4707 28.7364L60.2505 28.8356C59.9483 28.7159 59.636 28.6071 59.315 28.5098L59.1058 28.3398L58.9077 28.1698L57.9942 28.4602L57.8951 28.531L57.719 28.6656C57.6215 28.7591 57.481 28.8305 57.3171 28.8699C57.1532 28.9093 56.9743 28.9146 56.8054 28.8852C56.4752 28.8143 55.9029 28.531 55.7048 28.4956C55.5066 28.4602 54.9783 28.4319 55.0664 28.5877L54.9893 28.6302C54.8463 28.7152 54.5821 28.7364 54.406 28.8073C54.494 28.9135 54.483 29.0197 54.406 29.0481C54.3289 29.0764 54.0428 28.9772 53.9547 28.871C53.5348 28.6359 52.9921 28.5119 52.4358 28.524V28.9702C52.4358 29.0976 51.7424 29.1543 51.6213 29.0339C51.5002 28.9135 51.5333 28.8002 51.8855 28.7719C51.9956 28.7719 52.1827 28.6089 52.1386 28.5664L51.9955 28.3894C51.8717 28.4586 51.7255 28.5092 51.5674 28.5374C51.4094 28.5656 51.2435 28.5707 51.082 28.5523C50.7078 28.5523 49.7062 28.7435 49.5741 28.701H49.442C49.2879 28.701 49.0568 28.6514 48.9467 28.701L48.4844 28.8639L47.4498 28.6656C47.1333 28.6608 46.8167 28.6727 46.5032 28.701L46.184 28.5594L46.085 28.5169C46.006 28.4952 45.917 28.4942 45.8369 28.514C45.7567 28.5338 45.6918 28.573 45.6557 28.6231C45.5688 28.7323 45.4443 28.8274 45.2917 28.901C45.1391 28.9747 44.9625 29.025 44.7752 29.0481C44.2732 29.0244 43.7692 29.0244 43.2673 29.0481V29.0835L43.2123 29.1331C43.1352 29.1897 43.0471 29.1897 43.0141 29.1331V29.0906L42.8931 28.9843C42.75 28.8852 42.3207 28.9135 41.9355 29.0481H41.8804L41.5172 28.8498C41.4197 28.9076 41.3052 28.9525 41.1805 28.9817C41.0558 29.0108 40.9233 29.0238 40.7908 29.0197C40.4232 29.02 40.0558 29.0082 39.6901 28.9843C39.2001 28.9972 38.7167 29.0618 38.2593 29.1756C38.0281 29.1756 37.2797 29.0693 36.9715 29.1756L36.5973 28.9772L36.3111 28.8285C35.8158 28.9325 35.3014 28.9944 34.7812 29.0127L34.4509 29.1189L34.1097 29.2181C33.7442 29.1287 33.3997 29.0071 33.0861 28.8568L32.8 29.0693C32.5578 29.2535 32.3267 28.9772 32.0955 28.9772C31.8644 28.9772 31.4462 29.1472 31.3471 29.1047C30.9705 28.9663 30.5296 28.9186 30.1033 28.9702C29.597 28.9702 29.0027 28.8498 28.5734 29.1118C28.3523 29.086 28.1351 29.0481 27.924 28.9985C27.3808 28.9179 26.8162 28.9179 26.273 28.9985L25.8878 28.956C25.073 28.8757 24.2676 28.7597 23.4773 28.609C23.3122 28.609 23.2352 28.4106 23.1031 28.3115C23.0226 28.2528 22.9143 28.213 22.7949 28.1982C22.6078 28.1982 22.3987 28.2902 22.2336 28.269H22.1235C22.0615 28.1889 21.9733 28.1183 21.865 28.0621C21.7568 28.0059 21.6309 27.9653 21.4961 27.9432C21.0548 27.9242 20.6115 27.9385 20.1753 27.9857L19.9772 27.9078C19.4434 27.7348 18.8438 27.6635 18.2492 27.7024C18.1831 27.7024 18.018 27.5466 18.0511 27.5182C18.0841 27.4899 18.5574 27.3058 17.93 27.2633C17.6438 27.2633 17.6769 27.0791 17.93 26.9729L18.0401 26.9162C18.0836 26.8743 18.1068 26.825 18.1068 26.7746C18.1068 26.7241 18.0836 26.6748 18.0401 26.6329C17.963 26.5408 18.3813 26.4063 18.5354 26.4842C18.6894 26.5621 19.2838 26.4417 19.4489 26.5196L19.5259 26.6046C19.592 26.6683 19.5259 26.7675 19.5259 26.8383C19.5991 26.897 19.6993 26.9391 19.8121 26.9587H19.8782C20.0633 26.8716 20.2298 26.7692 20.3735 26.6542C20.5496 26.5196 20.9458 26.0451 20.8468 25.9459C20.7477 25.8467 19.8562 25.9459 19.603 25.8892V25.8184L19.515 25.6201C19.3168 25.436 19.0747 25.3651 18.9646 25.4572C18.8546 25.5493 18.7335 25.953 18.4803 25.8043C18.2272 25.6555 17.1265 25.443 16.9614 25.358C16.7963 25.2731 17.2586 24.9685 17.4677 25.0606C17.6768 25.1527 18.3372 25.3651 18.4363 25.3226C18.5468 25.1937 18.6389 25.0586 18.7115 24.9189L19.1077 25.0606C19.2598 25.0989 19.4289 25.0989 19.581 25.0606C19.7241 24.9473 19.7021 24.8623 19.3719 24.7914L19.1187 24.7348C18.8986 24.5365 18.9096 24.3169 19.1187 24.2461L19.2508 24.1469L19.3278 24.0903C19.2824 23.9823 19.1766 23.889 19.0307 23.8282C18.6258 23.6955 18.1969 23.5956 17.7539 23.5307L17.6438 23.7786L17.4567 24.1682C16.9174 24.069 16.6202 23.9557 16.7853 23.9203C16.9504 23.8849 17.2366 23.7716 17.1705 23.7361L16.5321 23.4033L16.323 23.297L16.1249 23.2049C15.8116 23.242 15.4882 23.2147 15.2003 23.127H14.9362C14.6433 23.1092 14.3485 23.1092 14.0556 23.127C13.5611 23.1022 13.0643 23.1022 12.5698 23.127C12.0965 23.1766 11.7443 22.9854 11.271 23.0421C10.9817 23.0498 10.6963 22.9977 10.4565 22.8933L10.1263 22.7871C9.58866 22.7773 9.05221 22.7489 8.51931 22.7021C8.02401 22.6525 6.38404 22.2063 5.8227 22.1001L5.28335 22.0292L4.92015 21.9797C4.51649 21.9607 4.11553 21.9228 3.72043 21.8663L3.50028 21.7955L2.58674 21.498C2.74084 21.1793 2.93896 20.7898 3.03802 20.6411L2.3666 20.7048C2.0364 20.7048 1.8603 20.6411 1.92634 20.464L1.98136 20.3507C2.01083 20.2917 2.01922 20.2292 2.00588 20.1679C1.99254 20.1066 1.95783 20.048 1.90434 19.9965C1.80528 19.9328 1.56313 19.7203 1.69521 19.6778C1.97639 19.571 2.24167 19.4477 2.48769 19.3095L2.11347 19.2316C1.80528 19.175 1.67319 19.09 1.82728 18.9767L2.09143 18.7783C1.65794 18.4742 1.34461 18.1074 1.1779 17.7089L0.627564 17.3264L0.484473 17.2343C0.715612 16.9723 0.770629 16.7527 0.605529 16.7386C0.44043 16.7244 0.209298 16.604 0.407418 16.4978C0.605538 16.3915 0.407434 16.0091 0.561527 15.9878C0.71562 15.9666 1.10084 15.7328 0.990769 15.5487L0.891713 15.3716C0.781646 15.1875 0.57252 14.9963 0.616547 14.8192C0.721111 14.6191 0.926386 14.4471 1.1999 14.3305C1.376 14.2455 1.84928 14.288 1.94834 14.1959L2.13547 14.0118C2.42164 14.0118 2.78487 14.0613 2.93897 14.0684C3.09306 14.0755 3.85252 13.6435 4.03963 13.6789C4.22674 13.7143 5.06324 13.5372 5.37142 13.5302L5.67961 13.4664C5.91075 13.4168 6.32901 13.5939 6.51612 13.5372C6.62847 13.4888 6.76064 13.463 6.89585 13.463C7.03107 13.463 7.1632 13.4888 7.27555 13.5372C7.52727 13.5987 7.80532 13.5987 8.05705 13.5372L8.70643 13.3531C8.64039 13.5656 9.09165 13.4947 9.71903 13.2044L10.6326 13.2964H10.7867C10.9568 13.2272 11.1627 13.2043 11.359 13.2327C11.8536 13.266 12.3501 13.183 12.7569 12.999L13.5053 13.2185C13.7365 13.2893 14.3418 13.084 14.4629 13.1548L14.8811 13.3885C15.2003 13.261 15.7617 13.0627 16.1359 12.9494L16.4551 12.9069C16.8197 12.8694 17.1912 12.8694 17.5558 12.9069C18.0895 13.0173 18.6667 13.0023 19.1847 12.8644L19.625 12.7157C20.0188 12.6792 20.4206 12.7085 20.7917 12.8007L20.8688 12.8502L21.0008 12.9494C21.1659 13.0627 21.4521 13.0131 21.6282 12.8431C21.8043 12.6732 23.0921 12.8431 23.5103 12.8431C23.9286 12.8431 25.1504 12.5315 25.4696 12.5174H25.7667C26.2136 12.5487 26.6657 12.5246 27.0985 12.4465C27.215 12.4063 27.3417 12.3799 27.4727 12.3686H27.7039C28.0012 12.2895 28.3064 12.2233 28.6174 12.1703H28.8706H29.0797C29.2668 12.3049 29.4099 12.2553 29.3989 12.057L29.9713 12.1136C30.1539 12.1543 30.3488 12.1665 30.5401 12.1493C30.7314 12.132 30.9137 12.0858 31.0719 12.0145C31.1322 11.9998 31.1987 11.9998 31.259 12.0145C31.259 12.142 31.259 12.2978 31.6443 12.2411C31.7984 12.2411 31.8314 12.0145 31.9965 11.972C32.38 11.874 32.7846 11.8143 33.1962 11.7949H33.6585C34.1032 11.8413 34.5566 11.8413 35.0013 11.7949C35.3786 11.7311 35.7669 11.6978 36.157 11.6958C36.4565 11.7216 36.76 11.7216 37.0595 11.6958C37.1366 11.6533 37.4558 11.54 37.4778 11.5895C37.5348 11.641 37.6149 11.6801 37.7073 11.7016C37.7997 11.7231 37.9001 11.726 37.9951 11.7099C38.3437 11.6193 38.7227 11.5876 39.0958 11.6179C39.2278 11.6745 39.7561 11.8445 39.8882 11.802C40.0905 11.6941 40.2749 11.5731 40.4386 11.4408C40.5927 11.3346 41.2861 11.3912 41.5392 11.3487H42.1116C42.573 11.3528 43.0332 11.3812 43.4874 11.4337H43.8616C43.9626 11.4512 44.0689 11.4512 44.1698 11.4337L44.9733 11.1646C45.4576 11.3629 45.8759 11.455 45.8979 11.37C45.9199 11.285 46.162 11.0796 46.3822 11.1362H46.5473H46.7013C46.9936 11.1059 47.2634 11.0166 47.4718 10.8813H47.8571H48.0111C48.0531 10.8543 48.0864 10.8223 48.109 10.787C48.1317 10.7518 48.1434 10.714 48.1434 10.6759C48.1434 10.6377 48.1317 10.6 48.109 10.5647C48.0864 10.5295 48.0531 10.4975 48.0111 10.4705H47.813C47.4718 10.4209 47.4828 10.5767 47.4168 10.6971C47.3507 10.8175 47.0756 10.7538 46.8995 10.768C46.5032 10.8105 46.0079 10.9379 45.7438 10.86C45.3313 10.7769 44.8971 10.748 44.467 10.775C44.0157 10.775 43.5755 10.775 43.1242 10.775C42.6729 10.775 42.2216 10.775 41.7814 10.775C41.154 10.8175 40.9339 10.5484 40.6147 10.3784L40.2405 10.1801C39.8702 10.1794 39.501 10.2055 39.1398 10.258C38.9043 10.2928 38.6652 10.3165 38.4244 10.3288C38.1096 10.2783 37.8113 10.192 37.5438 10.0739C37.3787 10.0101 36.7183 9.87555 36.5973 9.95346L36.5202 10.0455C36.3881 10.1801 36.4101 10.1872 36.8284 10.1872H37.0375C37.0375 10.258 37.0375 10.3855 36.9605 10.3926C36.6743 10.3926 36.245 10.5626 36.179 10.2722V10.1305C36.256 9.94637 36.3331 9.76223 36.3551 9.71973C36.3771 9.67723 36.3551 9.571 36.245 9.59225H36.146L35.7387 9.64182L35.1994 9.69848C35.247 9.74024 35.2787 9.78856 35.2921 9.83959C35.3056 9.89063 35.3004 9.94299 35.2768 9.99249C35.2533 10.042 35.2122 10.0873 35.1567 10.1248C35.1013 10.1623 35.033 10.1909 34.9573 10.2084C34.4949 10.301 33.9998 10.301 33.5374 10.2084V10.1447L33.5924 10.0314C33.6695 9.91804 33.5924 9.82597 33.4934 9.83305C33.3506 9.81613 33.2221 9.76677 33.1312 9.69397C33.0403 9.62116 32.9931 9.52977 32.9981 9.43643H32.888L31.8644 9.23104C32.0625 8.78484 32.4808 8.45904 32.8 8.52278L33.0201 8.57236C33.2292 8.61485 33.4274 8.68568 33.6475 8.7211C33.7856 8.72994 33.9244 8.71008 34.0437 8.66443L34.1208 8.62902C34.4706 8.60905 34.8054 8.52826 35.0894 8.39529V8.19698C34.8107 8.09144 34.4982 8.02845 34.1758 8.01284L33.9887 8.07658C33.8456 8.12616 33.9887 8.36697 33.6145 8.31031L33.3613 8.26781C33.1081 8.14033 32.811 8.14033 32.7009 8.26781C32.5908 8.3953 31.9635 8.26781 31.9855 8.21115C32.0075 8.15449 31.9855 8.04116 31.8754 8.04116C31.7653 8.04116 31.3141 8.09783 31.292 8.16866C31.27 8.23948 31.105 8.44487 31.0059 8.43779C31.0059 8.37404 31.0059 8.28197 30.8958 8.2324L30.5876 8.01284C30.0703 8.01284 29.597 8.01284 29.487 8.01284C29.3769 8.01284 29.2888 7.72953 29.6741 7.43206L30.2244 7.59496L30.6427 7.72953C31.1049 7.72953 31.5012 7.60205 31.5122 7.46748C31.5232 7.33291 31.4351 6.95753 31.292 6.95753C31.149 6.95753 30.7417 7.01419 30.8848 7.0921V7.15584V7.21958C30.8848 7.32582 30.5986 7.3754 30.3345 7.33291C30.0703 7.29041 29.619 7.12043 29.9272 7.04961V6.97878C29.9272 6.87962 29.7511 6.76631 29.597 6.67423C29.443 6.58216 29.3219 6.77338 29.1788 6.7663C29.0271 6.74657 28.8887 6.69709 28.7825 6.62465C28.7825 6.62465 28.9146 6.51841 28.9917 6.46883L30.0153 6.57508C30.5106 6.62466 31.8424 6.36968 31.9745 6.42634H32.0845C32.2372 6.40885 32.3808 6.36751 32.5028 6.30594C32.5163 6.29086 32.5234 6.27376 32.5234 6.25635C32.5234 6.23895 32.5163 6.22185 32.5028 6.20678V6.1572C32.4257 6.1572 32.5028 6.06513 32.6018 6.02264C32.7009 5.98014 33.2072 5.92348 33.3063 5.97306C33.4053 6.02263 33.7796 6.12887 33.8786 6.07221C33.9865 6.03536 34.1098 6.02167 34.2306 6.03314C34.3514 6.04461 34.4633 6.08063 34.55 6.13595C34.7369 6.31715 34.9428 6.48991 35.1664 6.65299C35.1887 6.47673 35.1626 6.29932 35.0894 6.12887V5.88098V5.82432C35.1731 5.79749 35.2654 5.78354 35.359 5.78354C35.4526 5.78354 35.5449 5.79749 35.6287 5.82432V5.88807L35.7498 6.04389C35.8708 6.25636 36.124 6.20678 36.3331 5.93056L36.5973 5.79599L36.9054 5.64017C37.0595 5.43478 37.2467 5.3073 37.3017 5.35688C37.5171 5.47396 37.7811 5.54783 38.0611 5.56934L38.3033 5.64017L38.5344 5.70391C38.9087 5.73933 39.2058 5.70392 39.2058 5.5906C39.2058 5.47728 39.3159 5.30021 39.437 5.34271H39.5691C39.8368 5.43662 40.1269 5.50125 40.4276 5.53394C40.5707 5.53394 40.7248 5.25772 40.8789 5.25772H41.176C41.4469 5.25768 41.7168 5.27909 41.9795 5.32146C42.0351 5.32988 42.0929 5.33023 42.1487 5.32251C42.2045 5.31479 42.257 5.29918 42.3023 5.27682C42.3476 5.25445 42.3846 5.22588 42.4106 5.19318C42.4366 5.16048 42.4511 5.12446 42.4528 5.08773V4.94608L42.5078 4.78319C42.6399 4.61321 43.2563 4.57779 43.8947 4.70528L44.6101 4.35115C45.0393 4.13867 45.4026 3.77037 46.162 4.13158C46.4922 3.96868 46.8995 3.92619 47.0756 4.02535L47.2737 4.10326L47.3617 4.13867H48.0442C48.4507 4.08151 48.8514 4.00818 49.2439 3.91911C49.7842 3.8737 50.328 3.84769 50.8729 3.84121C51.2141 3.84121 51.9735 3.57206 52.1937 3.67122C52.4138 3.77038 52.81 4.06785 52.777 4.13867C52.744 4.2095 52.8431 4.46447 53.1182 4.45739H53.3934H53.8337C54.1284 4.28548 54.4008 4.09835 54.6481 3.89787C54.8132 3.74913 55.3966 3.37375 55.5287 3.43749H55.6277L56.1451 3.59331C56.0677 3.7716 55.9062 3.93001 55.6828 4.0466L55.6057 4.13867L55.5507 4.20949C55.6167 4.30865 55.7488 4.38656 55.8369 4.3724C56.179 4.24781 56.5098 4.11065 56.8275 3.96161L57.3668 4.08909L57.5209 4.13158C57.675 4.18116 57.9171 4.0891 58.0712 3.91911C58.2253 3.74913 58.8417 3.33834 59.0508 3.43042H59.2599L59.6232 3.48708C59.9092 3.59601 60.2116 3.68617 60.5257 3.75621C60.7018 3.75621 60.6798 4.11742 60.7568 4.167C60.8339 4.21658 61.1311 4.23782 61.1861 4.30865C61.2411 4.37947 61.6704 4.30865 61.7254 4.15992C61.7804 4.01119 62.5069 4.07493 62.661 4.09618C63.0841 4.03917 63.517 4.01774 63.9488 4.03243L64.4551 4.06784H64.9394C65.4457 4.13867 65.963 4.06784 66.04 3.98993C66.1171 3.91203 65.952 3.53665 66.04 3.45166ZM275.166 6.8513C275.397 6.6459 275.243 6.39801 274.814 6.29886L274.473 6.26344L273.944 6.20678C273.361 6.20678 273.053 6.24928 273.262 6.34135C273.471 6.43343 274.902 7.05669 275.166 6.8513ZM280.438 8.89816C280.526 8.84858 280.438 8.57235 280.251 8.28197H278.688C278.347 8.56527 278.27 8.9194 278.523 9.0823H278.655L278.985 9.03981C279.316 8.91941 279.657 8.86274 279.756 8.91232C279.968 8.95705 280.198 8.95204 280.405 8.89816H280.438ZM284.093 26.0451C284.225 26.0451 284.522 25.9105 284.753 25.7051C284.984 25.4997 284.269 24.9968 284.379 24.9614V24.7914C284.049 24.7348 283.718 24.7348 283.663 24.7914C283.608 24.8481 283.817 25.0818 283.894 25.181C283.971 25.2801 283.894 25.5564 283.994 25.6626C284.093 25.7688 283.971 26.0238 284.06 26.0451H284.093ZM41.3741 8.09783C41.3741 8.21115 41.187 8.26073 40.9889 8.1899C40.7908 8.11908 40.9229 8.43071 41.4072 8.42363H41.8364L42.6399 8.48028C42.9371 8.23239 42.9591 8.05533 42.7059 8.09075C42.4528 8.12616 41.7374 8.03408 41.7044 7.94909C41.6556 7.85345 41.5929 7.76097 41.5172 7.67287C41.4342 7.80863 41.3859 7.95214 41.3741 8.09783V8.09783ZM51.8304 4.55654C52.0176 4.34406 51.7204 4.18116 51.17 4.18824L50.8398 3.97577C50.6392 4.04623 50.4776 4.15515 50.3776 4.2874C50.3776 4.38656 51.016 4.57779 51.2141 4.60612C51.2141 4.84693 51.3682 4.8965 51.6433 4.69819L51.8304 4.55654ZM262.652 4.82568C262.652 4.69111 262.564 4.64861 262.487 4.74068C262.414 4.80413 262.312 4.85128 262.196 4.87543C262.079 4.89958 261.954 4.89952 261.837 4.87525C261.617 4.79026 260.869 4.74777 260.946 4.79027C261.023 4.83276 261.089 4.96733 260.946 5.0169C260.803 5.06648 260.747 5.21522 261.32 5.12315L261.573 5.18689L261.936 5.27188C262.116 5.26014 262.285 5.20972 262.414 5.12875C262.544 5.04778 262.628 4.94101 262.652 4.82568V4.82568ZM284.335 22.9146C284.533 22.9854 284.731 22.9571 284.786 22.8437C284.841 22.7304 284.467 22.3692 284.379 22.27L284.126 22.3975L283.663 22.6454C283.344 22.5978 283.021 22.5647 282.695 22.5463V22.5463C282.674 22.5661 282.663 22.5896 282.663 22.6136C282.663 22.6375 282.674 22.661 282.695 22.6808C282.948 22.78 283.234 22.865 283.498 22.9571H283.575C283.641 23.0562 284.148 22.8437 284.335 22.9146ZM45.4906 4.84693C45.8648 4.91067 46.162 4.92484 46.162 4.84693C46.1828 4.72961 46.231 4.61498 46.3051 4.50696C46.3822 4.41488 46.151 4.32281 45.9199 4.42197L45.5346 4.28032C45.1824 4.15284 45.0724 4.43614 44.8302 4.52113C44.5881 4.60612 44.6321 4.72652 44.8302 4.83276C45.0284 4.939 45.0944 5.00982 45.3695 4.87525L45.4906 4.84693ZM256.103 20.4286C255.971 20.4923 256.103 20.5277 256.389 20.4923C256.675 20.4569 257.49 20.7756 257.776 20.7685C258.062 20.7615 258.183 20.3436 257.842 20.3223C257.252 20.2943 256.659 20.3205 256.081 20.4002L256.103 20.4286ZM183.811 29.2605C183.646 29.211 183.503 29.2605 183.503 29.3597C183.503 29.4589 183.426 29.7138 183.327 29.7138C183.228 29.7138 182.909 29.7138 182.909 29.8059C182.919 29.8943 182.941 29.982 182.975 30.068C183.462 30.0449 183.948 30.0023 184.427 29.9405V29.7634V29.6501C184.328 29.5226 183.932 29.3101 183.811 29.2605ZM242.774 1.93599C242.896 1.97984 243.04 1.99252 243.177 1.97155C243.313 1.95057 243.432 1.89746 243.511 1.82267L243.577 1.69519C243.586 1.63922 243.577 1.58268 243.55 1.52907C243.524 1.47547 243.48 1.42594 243.423 1.38355C243.392 1.35179 243.351 1.32462 243.303 1.30386C243.255 1.2831 243.2 1.26923 243.143 1.26319C243.086 1.25716 243.027 1.25909 242.971 1.26886C242.915 1.27862 242.862 1.29598 242.818 1.3198L242.609 1.4048C242.245 1.48271 242.543 1.84392 242.73 1.93599H242.774ZM236.61 1.93599C237.017 1.87933 237.292 1.74476 237.226 1.63853C236.975 1.49002 236.643 1.41115 236.302 1.41897C236.082 1.49688 236.17 2.0139 236.566 1.96432L236.61 1.93599ZM287.758 23.9769C287.846 23.807 287.604 23.7291 287.218 23.807L286.91 23.9061C286.668 23.984 286.448 24.0903 286.833 24.239H286.943C286.943 24.4656 287.637 24.2107 287.714 24.0053L287.758 23.9769ZM72.644 3.48708C72.2918 3.58623 72.4569 3.73497 73.0072 3.81996L73.3924 3.89787C73.7667 3.97578 73.9208 3.82704 74.0969 3.7208C74.273 3.61456 74.1629 3.57915 74.0969 3.5154C73.7061 3.43473 73.2963 3.39877 72.8862 3.40917L72.644 3.48708ZM33.7025 7.07086C33.6744 7.01627 33.6217 6.96828 33.5512 6.93298C33.4806 6.89767 33.3954 6.87664 33.3063 6.87254C33.0247 6.89305 32.7518 6.94836 32.5028 7.03544C32.2281 7.18009 32.0221 7.37152 31.9084 7.58788H31.9635L32.0295 7.6233C32.4396 7.53061 32.8313 7.40698 33.1962 7.255L33.6695 7.05669L33.7025 7.07086ZM70.0244 3.96161C70.0244 4.06785 70.1895 4.09617 70.4317 4.03243C70.7882 3.93986 71.119 3.8107 71.4113 3.64997L71.2462 3.53665C71.1251 3.45166 71.2462 3.26043 70.8609 3.30292L70.5087 3.33834C70.2747 3.52236 70.0989 3.7341 69.9914 3.96161H70.0244ZM174.874 2.40344C175.193 2.5026 175.215 2.5026 174.94 2.40344C174.665 2.30429 174.015 1.95724 173.927 2.07764C173.892 2.19465 173.919 2.31596 174.005 2.42155C174.091 2.52713 174.231 2.61069 174.4 2.65842L174.488 2.60883L174.874 2.40344ZM91.4433 3.67122C91.4433 3.77038 91.6525 3.73496 91.8506 3.60039C92.0487 3.46582 92.1258 3.04087 91.8506 3.07629C91.519 3.11805 91.1972 3.18708 90.893 3.28168C90.893 3.28168 90.893 3.40916 91.0141 3.40208C91.1352 3.395 91.4213 3.54373 91.4433 3.67122ZM130.528 2.77882C129.835 2.74341 129.482 2.87797 129.746 3.06212L130.143 3.01255C130.517 2.95872 130.885 2.88771 131.243 2.80007C131.243 2.80007 131.243 2.6655 131.243 2.60176C131.212 2.58382 131.175 2.57016 131.136 2.56164C131.096 2.55312 131.054 2.54989 131.012 2.55217L130.528 2.77882ZM29.52 27.0437C29.6601 26.8668 29.7138 26.6669 29.6741 26.47L29.2778 26.5338C29.1458 26.5338 28.9807 26.7462 28.9036 26.5692C28.8266 26.3921 28.7055 26.2788 28.3643 26.3992C28.5307 26.5871 28.751 26.7529 29.0137 26.8879L29.2668 26.9445L29.52 27.0437ZM251.524 19.3591C251.612 19.26 251.381 19.1537 251.007 19.1254L250.786 19.1891L250.544 19.26C250.461 19.3281 250.407 19.4091 250.388 19.4949C250.369 19.5806 250.385 19.6681 250.434 19.7487H250.577H250.764C251.052 19.6582 251.31 19.5331 251.524 19.3804V19.3591ZM213.1 1.86516C213.254 1.72351 213.1 1.66685 212.88 1.74476C212.659 1.82267 211.889 1.74476 211.779 1.82267V1.87225C211.779 1.98557 211.625 2.1343 211.999 2.18388H212.197C212.428 2.2972 212.946 2.03514 213.1 1.88641V1.86516ZM256.796 5.05232C256.444 4.88234 256.422 4.83985 256.796 4.96025C257.248 5.1024 257.737 5.18887 258.238 5.21522C258.326 5.1798 258.238 4.96024 257.699 4.83984L257.435 4.90359L256.796 5.05232ZM220.188 2.16972C220.463 2.26887 220.683 2.2972 220.672 2.23346C220.683 2.12946 220.716 2.02693 220.771 1.9289C220.771 1.87932 220.683 1.69518 220.353 1.68102C220.023 1.66685 219.902 2.09181 220.188 2.19097V2.16972ZM178.88 2.21929C178.605 2.21929 178.66 2.3751 179.012 2.55925L179.375 2.63008H179.485C179.838 2.43885 179.155 2.25471 178.88 2.25471V2.21929ZM71.3012 27.327C70.993 27.327 70.8059 27.4262 70.905 27.5466C71.004 27.667 71.4663 27.8936 71.7745 27.8299C72.0827 27.7661 71.6094 27.327 71.3012 27.327ZM259.008 22.0222C259.008 22.0576 258.953 22.1496 258.766 22.2276C258.579 22.3055 258.546 22.5604 258.766 22.4896L259.008 22.433L259.284 22.3621C259.669 22.2984 259.801 22.1567 259.581 22.0434L259.394 21.9443C259.317 21.9088 259.24 21.8522 259.174 21.8522H259.041C259.019 21.8603 258.999 21.8717 258.985 21.8856C258.971 21.8994 258.961 21.9152 258.958 21.9318C258.955 21.9483 258.958 21.9651 258.966 21.9808C258.975 21.9965 258.99 22.0107 259.008 22.0222V22.0222ZM254.606 19.6495C254.98 19.6495 255.112 19.5433 254.881 19.4512C254.65 19.3591 253.78 19.4512 253.505 19.4512C253.23 19.4512 254.254 19.6566 254.639 19.6495H254.606ZM166.861 2.5026C167.246 2.70091 167.675 2.58051 167.807 2.22638L167.136 2.06347H166.993C166.663 2.18388 166.454 2.31845 166.52 2.35386L166.861 2.5026ZM59.5351 7.30458C59.5027 7.31531 59.4756 7.33155 59.4567 7.35154C59.4378 7.37153 59.4277 7.39448 59.4277 7.41789C59.4277 7.44131 59.4378 7.46427 59.4567 7.48426C59.4756 7.50425 59.5027 7.52049 59.5351 7.53122C59.8605 7.64406 60.2036 7.73428 60.5587 7.80036H60.7899C60.8696 7.78826 60.9399 7.75809 60.988 7.71537C60.988 7.67288 60.988 7.58788 60.988 7.56663L60.6578 7.43206C60.3055 7.31874 59.7112 7.21251 59.5681 7.30458H59.5351ZM39.2719 8.36697C39.0756 8.23773 38.821 8.1517 38.5442 8.12117C38.2675 8.09064 37.9828 8.11717 37.7309 8.19698C38.3913 8.70693 38.4023 8.70693 39.3049 8.36697H39.2719Z" fill="#01746B"/>
</svg>
